G04 Layer_Physical_Order=2*
G04 Layer_Color=16776960*
%FSLAX44Y44*%
%MOMM*%
G71*
G01*
G75*
%ADD17R,1.1000X1.1000*%
%ADD19R,1.1000X1.1000*%
%ADD51C,0.2540*%
%ADD52C,1.0000*%
%ADD53C,0.5000*%
%ADD54C,2.0000*%
%ADD63C,0.1000*%
%ADD64C,2.0000*%
%ADD65C,1.3000*%
%ADD66R,1.3000X1.3000*%
%ADD67P,2.0345X8X202.5*%
%ADD68C,2.5000*%
%ADD69R,2.5000X2.5000*%
%ADD70O,4.0000X2.0000*%
%ADD71C,2.0000*%
%ADD72R,2.0000X2.0000*%
%ADD73P,2.0345X8X292.5*%
%ADD74C,0.9000*%
%ADD75C,6.0000*%
%ADD76C,2.3550*%
%ADD77C,1.6764*%
%ADD78C,3.2500*%
%ADD79P,1.8145X8X112.5*%
%ADD80C,0.6000*%
G36*
X791608Y-612970D02*
X791437Y-612812D01*
X791252Y-612671D01*
X791052Y-612547D01*
X790837Y-612439D01*
X790607Y-612347D01*
X790362Y-612273D01*
X790102Y-612215D01*
X789827Y-612173D01*
X789537Y-612148D01*
X789232Y-612140D01*
Y-609600D01*
X789537Y-609592D01*
X789827Y-609567D01*
X790102Y-609525D01*
X790362Y-609467D01*
X790607Y-609393D01*
X790837Y-609301D01*
X791052Y-609193D01*
X791252Y-609069D01*
X791437Y-608928D01*
X791608Y-608770D01*
Y-612970D01*
D02*
G37*
G36*
X825843Y-614993D02*
X825631Y-614939D01*
X825417Y-614915D01*
X825202Y-614920D01*
X824986Y-614954D01*
X824768Y-615019D01*
X824548Y-615112D01*
X824327Y-615235D01*
X824105Y-615387D01*
X823881Y-615569D01*
X823655Y-615781D01*
X822498Y-613346D01*
X822711Y-613126D01*
X823254Y-612482D01*
X823402Y-612273D01*
X823650Y-611864D01*
X823749Y-611663D01*
X823832Y-611466D01*
X823899Y-611271D01*
X825843Y-614993D01*
D02*
G37*
G36*
X1123400Y-580235D02*
X1123247Y-580139D01*
X1123086Y-580078D01*
X1122916Y-580051D01*
X1122738Y-580060D01*
X1122551Y-580103D01*
X1122355Y-580181D01*
X1122151Y-580293D01*
X1121938Y-580440D01*
X1121717Y-580622D01*
X1121487Y-580839D01*
X1120080Y-578654D01*
X1122651Y-576301D01*
X1123400Y-580235D01*
D02*
G37*
G36*
X1128158Y-572330D02*
X1127987Y-572172D01*
X1127802Y-572031D01*
X1127602Y-571907D01*
X1127387Y-571799D01*
X1127157Y-571707D01*
X1126912Y-571633D01*
X1126652Y-571575D01*
X1126377Y-571533D01*
X1126087Y-571508D01*
X1125782Y-571500D01*
Y-568960D01*
X1126087Y-568952D01*
X1126377Y-568927D01*
X1126652Y-568885D01*
X1126912Y-568827D01*
X1127157Y-568753D01*
X1127387Y-568661D01*
X1127602Y-568553D01*
X1127802Y-568429D01*
X1127987Y-568288D01*
X1128158Y-568130D01*
Y-572330D01*
D02*
G37*
G36*
X922088Y-623199D02*
X921994Y-623393D01*
X921911Y-623718D01*
X921839Y-624172D01*
X921778Y-624756D01*
X921662Y-627285D01*
X921640Y-629620D01*
X911640D01*
X911634Y-628387D01*
X911286Y-623394D01*
X911192Y-623199D01*
X911087Y-623134D01*
X922193D01*
X922088Y-623199D01*
D02*
G37*
G36*
X661807Y-631058D02*
X661957Y-631222D01*
X662126Y-631367D01*
X662316Y-631492D01*
X662524Y-631599D01*
X662753Y-631685D01*
X663002Y-631753D01*
X663270Y-631801D01*
X663558Y-631830D01*
X663865Y-631840D01*
X663235Y-634380D01*
X662930Y-634386D01*
X662360Y-634434D01*
X662094Y-634475D01*
X661840Y-634529D01*
X661600Y-634594D01*
X661372Y-634671D01*
X661158Y-634760D01*
X660956Y-634861D01*
X660767Y-634974D01*
X661676Y-630874D01*
X661807Y-631058D01*
D02*
G37*
G36*
X708433Y-612738D02*
X708618Y-612879D01*
X708818Y-613003D01*
X709033Y-613111D01*
X709263Y-613203D01*
X709508Y-613277D01*
X709768Y-613335D01*
X710043Y-613377D01*
X710333Y-613402D01*
X710638Y-613410D01*
Y-615950D01*
X710333Y-615958D01*
X710043Y-615983D01*
X709768Y-616025D01*
X709508Y-616083D01*
X709263Y-616157D01*
X709033Y-616249D01*
X708818Y-616357D01*
X708618Y-616481D01*
X708433Y-616622D01*
X708262Y-616780D01*
Y-612580D01*
X708433Y-612738D01*
D02*
G37*
G36*
X669063Y-625438D02*
X669248Y-625579D01*
X669448Y-625703D01*
X669663Y-625811D01*
X669893Y-625902D01*
X670138Y-625977D01*
X670398Y-626035D01*
X670673Y-626077D01*
X670963Y-626102D01*
X671268Y-626110D01*
Y-628650D01*
X670963Y-628658D01*
X670673Y-628683D01*
X670398Y-628725D01*
X670138Y-628783D01*
X669893Y-628857D01*
X669663Y-628949D01*
X669448Y-629057D01*
X669248Y-629181D01*
X669063Y-629322D01*
X668892Y-629480D01*
Y-625280D01*
X669063Y-625438D01*
D02*
G37*
G36*
X796063Y-600038D02*
X796248Y-600179D01*
X796448Y-600303D01*
X796663Y-600411D01*
X796893Y-600503D01*
X797138Y-600577D01*
X797398Y-600635D01*
X797673Y-600677D01*
X797963Y-600702D01*
X798268Y-600710D01*
Y-603250D01*
X797963Y-603258D01*
X797673Y-603283D01*
X797398Y-603325D01*
X797138Y-603383D01*
X796893Y-603457D01*
X796663Y-603549D01*
X796448Y-603657D01*
X796248Y-603781D01*
X796063Y-603922D01*
X795892Y-604080D01*
Y-599880D01*
X796063Y-600038D01*
D02*
G37*
G36*
X791608Y-604080D02*
X791437Y-603922D01*
X791252Y-603781D01*
X791052Y-603657D01*
X790837Y-603549D01*
X790607Y-603457D01*
X790362Y-603383D01*
X790102Y-603325D01*
X789827Y-603283D01*
X789537Y-603258D01*
X789232Y-603250D01*
Y-600710D01*
X789537Y-600702D01*
X789827Y-600677D01*
X790102Y-600635D01*
X790362Y-600577D01*
X790607Y-600503D01*
X790837Y-600411D01*
X791052Y-600303D01*
X791252Y-600179D01*
X791437Y-600038D01*
X791608Y-599880D01*
Y-604080D01*
D02*
G37*
G36*
X1456288Y-1811D02*
X1462507Y-3047D01*
X1468511Y-5086D01*
X1474198Y-7890D01*
X1479471Y-11413D01*
X1484238Y-15594D01*
X1488419Y-20362D01*
X1491942Y-25634D01*
X1494747Y-31321D01*
X1496785Y-37326D01*
X1498022Y-43545D01*
X1498272Y-47359D01*
X1498336Y-49872D01*
X1498336D01*
X1498376Y-50000D01*
Y-950000D01*
X1498571Y-950470D01*
X1498190Y-956288D01*
X1496953Y-962507D01*
X1494914Y-968511D01*
X1492110Y-974198D01*
X1488587Y-979471D01*
X1484406Y-984238D01*
X1479638Y-988419D01*
X1474366Y-991942D01*
X1468679Y-994747D01*
X1462674Y-996785D01*
X1456455Y-998022D01*
X1452641Y-998272D01*
X1450128Y-998336D01*
Y-998336D01*
X1450000Y-998376D01*
X50000D01*
X49531Y-998571D01*
X43713Y-998189D01*
X37493Y-996953D01*
X31489Y-994914D01*
X25802Y-992110D01*
X20529Y-988587D01*
X15762Y-984406D01*
X11581Y-979638D01*
X8058Y-974366D01*
X5253Y-968679D01*
X3215Y-962674D01*
X1978Y-956455D01*
X1728Y-952641D01*
X1664Y-950127D01*
X1664D01*
X1624Y-950000D01*
Y-530000D01*
X385253D01*
X389862Y-534609D01*
X389932Y-534961D01*
X390816Y-536284D01*
X392139Y-537168D01*
X393700Y-537478D01*
X395261Y-537168D01*
X396050Y-536640D01*
X396851Y-536645D01*
X398217Y-536909D01*
X399017Y-537215D01*
X399417Y-537813D01*
X401292Y-539689D01*
X401362Y-540041D01*
X402246Y-541364D01*
X403569Y-542248D01*
X405130Y-542558D01*
X406691Y-542248D01*
X408014Y-541364D01*
X408898Y-540041D01*
X409208Y-538480D01*
X408978Y-537323D01*
X408970Y-536812D01*
X410431Y-534642D01*
X410501Y-534628D01*
X411824Y-533744D01*
X412708Y-532421D01*
X413018Y-530860D01*
X413724Y-530000D01*
X424302D01*
X425106Y-531204D01*
X426429Y-532088D01*
X427990Y-532398D01*
X429551Y-532088D01*
X430874Y-531204D01*
X431678Y-530000D01*
X553835D01*
X554807Y-532347D01*
X551241Y-535912D01*
X550889Y-535982D01*
X549566Y-536866D01*
X548682Y-538189D01*
X548372Y-539750D01*
X548682Y-541311D01*
X549566Y-542634D01*
X550889Y-543518D01*
X552450Y-543828D01*
X554011Y-543518D01*
X555334Y-542634D01*
X556218Y-541311D01*
X556288Y-540959D01*
X567247Y-530000D01*
X571615D01*
X572587Y-532347D01*
X567731Y-537202D01*
X566420Y-536942D01*
X564859Y-537252D01*
X563536Y-538136D01*
X562652Y-539459D01*
X562342Y-541020D01*
X562652Y-542581D01*
X563536Y-543904D01*
X564859Y-544788D01*
X566136Y-547547D01*
X566102Y-547611D01*
X539958D01*
X538508Y-546161D01*
X538438Y-545809D01*
X537554Y-544486D01*
X536231Y-543602D01*
X534670Y-543292D01*
X533109Y-543602D01*
X531786Y-544486D01*
X530902Y-545809D01*
X530592Y-547370D01*
X530902Y-548931D01*
X531786Y-550254D01*
X533109Y-551138D01*
X533461Y-551208D01*
X535957Y-553703D01*
X537114Y-554477D01*
X538480Y-554749D01*
X545323D01*
X545449Y-555054D01*
X545809Y-557572D01*
X544486Y-558456D01*
X543602Y-559779D01*
X543292Y-561340D01*
X543602Y-562901D01*
X544486Y-564224D01*
X545809Y-565108D01*
X547370Y-565418D01*
X548931Y-565108D01*
X550254Y-564224D01*
X551138Y-562901D01*
X551208Y-562549D01*
X551388Y-562369D01*
X573273D01*
X574639Y-562097D01*
X575137Y-561764D01*
X576757Y-563737D01*
X573832Y-566661D01*
X563199D01*
X562901Y-566462D01*
X561340Y-566152D01*
X559779Y-566462D01*
X558456Y-567346D01*
X557572Y-568669D01*
X557262Y-570230D01*
X557572Y-571791D01*
X558456Y-573114D01*
X559779Y-573998D01*
X561340Y-574308D01*
X562901Y-573998D01*
X563199Y-573799D01*
X575310D01*
X576676Y-573527D01*
X577833Y-572753D01*
X620587Y-530000D01*
X675755D01*
X676727Y-532347D01*
X567482Y-641591D01*
X557530D01*
X556164Y-641863D01*
X555007Y-642637D01*
X548701Y-648942D01*
X548349Y-649012D01*
X547026Y-649896D01*
X546142Y-651219D01*
X545832Y-652780D01*
X546142Y-654341D01*
X547026Y-655664D01*
X548349Y-656548D01*
X549910Y-656858D01*
X551471Y-656548D01*
X552794Y-655664D01*
X553678Y-654341D01*
X553748Y-653989D01*
X559008Y-648729D01*
X561497D01*
X562435Y-651189D01*
X561224Y-652787D01*
X561049Y-652822D01*
X559726Y-653706D01*
X558842Y-655029D01*
X558532Y-656590D01*
X558842Y-658151D01*
X559726Y-659474D01*
X561049Y-660358D01*
X562610Y-660668D01*
X564171Y-660358D01*
X565494Y-659474D01*
X566378Y-658151D01*
X566448Y-657799D01*
X566628Y-657619D01*
X575310D01*
X575925Y-657496D01*
X577183Y-659830D01*
X575072Y-661941D01*
X573329D01*
X573031Y-661742D01*
X571470Y-661432D01*
X569909Y-661742D01*
X568586Y-662626D01*
X567702Y-663949D01*
X567392Y-665510D01*
X567702Y-667071D01*
X568586Y-668394D01*
X569909Y-669278D01*
X571470Y-669588D01*
X573031Y-669278D01*
X573329Y-669079D01*
X576550D01*
X577165Y-668956D01*
X578423Y-671290D01*
X575102Y-674611D01*
X565739D01*
X565441Y-674412D01*
X563880Y-674102D01*
X562319Y-674412D01*
X560996Y-675296D01*
X560112Y-676619D01*
X559802Y-678180D01*
X560112Y-679741D01*
X560996Y-681064D01*
X562319Y-681948D01*
X563880Y-682258D01*
X565441Y-681948D01*
X565739Y-681749D01*
X575803D01*
X576866Y-683750D01*
X576932Y-684211D01*
X575102Y-686041D01*
X560278D01*
X553748Y-679511D01*
X553678Y-679159D01*
X552794Y-677836D01*
X551471Y-676952D01*
X549910Y-676642D01*
X548349Y-676952D01*
X547026Y-677836D01*
X546142Y-679159D01*
X545832Y-680720D01*
X546142Y-682281D01*
X547026Y-683604D01*
X548349Y-684488D01*
X548701Y-684558D01*
X556277Y-692133D01*
X557434Y-692907D01*
X558800Y-693179D01*
X576580D01*
X577946Y-692907D01*
X579103Y-692133D01*
X716488Y-554749D01*
X773923D01*
X774975Y-557289D01*
X739201Y-593062D01*
X738849Y-593132D01*
X737526Y-594016D01*
X736642Y-595339D01*
X736332Y-596900D01*
X736642Y-598461D01*
X737526Y-599784D01*
X738849Y-600668D01*
X740410Y-600978D01*
X741971Y-600668D01*
X743294Y-599784D01*
X744178Y-598461D01*
X744248Y-598109D01*
X779988Y-562369D01*
X851896D01*
X852948Y-564909D01*
X818191Y-599665D01*
X798381D01*
X798297Y-599628D01*
X798024Y-599621D01*
X797800Y-599601D01*
X797597Y-599571D01*
X797414Y-599530D01*
X797251Y-599480D01*
X797106Y-599423D01*
X796978Y-599358D01*
X796863Y-599287D01*
X796760Y-599208D01*
X796628Y-599086D01*
X796607Y-599078D01*
X795311Y-598212D01*
X793750Y-597902D01*
X792189Y-598212D01*
X790893Y-599078D01*
X790872Y-599086D01*
X790740Y-599208D01*
X790637Y-599287D01*
X790522Y-599358D01*
X790394Y-599423D01*
X790249Y-599480D01*
X790086Y-599530D01*
X789903Y-599571D01*
X789700Y-599601D01*
X789476Y-599621D01*
X789203Y-599628D01*
X789119Y-599665D01*
X782320D01*
X781434Y-599842D01*
X780683Y-600343D01*
X774223Y-606803D01*
X773841Y-607376D01*
X763771Y-617445D01*
X736289D01*
X725647Y-606803D01*
X724896Y-606302D01*
X724010Y-606125D01*
X716991D01*
X716907Y-606088D01*
X716634Y-606081D01*
X716410Y-606061D01*
X716207Y-606031D01*
X716024Y-605990D01*
X715861Y-605940D01*
X715716Y-605883D01*
X715588Y-605818D01*
X715473Y-605747D01*
X715370Y-605668D01*
X715238Y-605546D01*
X715217Y-605538D01*
X713921Y-604672D01*
X712360Y-604362D01*
X710799Y-604672D01*
X709476Y-605556D01*
X708592Y-606879D01*
X708282Y-608440D01*
X708294Y-608499D01*
X706179Y-610613D01*
X706120Y-610602D01*
X704559Y-610912D01*
X703236Y-611796D01*
X702352Y-613119D01*
X702042Y-614680D01*
X702352Y-616241D01*
X703157Y-617445D01*
X703019Y-618118D01*
X702289Y-619986D01*
X693420D01*
X692534Y-620162D01*
X691783Y-620663D01*
X687381Y-625065D01*
X671381D01*
X671297Y-625028D01*
X671024Y-625021D01*
X670800Y-625001D01*
X670597Y-624971D01*
X670414Y-624930D01*
X670251Y-624880D01*
X670106Y-624823D01*
X669978Y-624758D01*
X669863Y-624687D01*
X669760Y-624608D01*
X669628Y-624486D01*
X669607Y-624478D01*
X668311Y-623612D01*
X666750Y-623302D01*
X665189Y-623612D01*
X663866Y-624496D01*
X662982Y-625819D01*
X662745Y-627010D01*
X661602Y-627946D01*
X660329Y-628620D01*
X659130Y-628382D01*
X657569Y-628692D01*
X656246Y-629576D01*
X655362Y-630899D01*
X655052Y-632460D01*
X655362Y-634021D01*
X656246Y-635344D01*
X657569Y-636228D01*
X659130Y-636538D01*
X660691Y-636228D01*
X661135Y-635931D01*
X661322Y-635904D01*
X661476Y-635811D01*
X661608Y-635746D01*
X661754Y-635685D01*
X661916Y-635630D01*
X662094Y-635581D01*
X662289Y-635540D01*
X662488Y-635509D01*
X662986Y-635467D01*
X663256Y-635462D01*
X663343Y-635424D01*
X692770D01*
X693656Y-635248D01*
X694407Y-634747D01*
X698839Y-630314D01*
X714671D01*
X720993Y-636637D01*
X721744Y-637138D01*
X722630Y-637314D01*
X816610D01*
X817496Y-637138D01*
X818247Y-636637D01*
X837297Y-617587D01*
X837798Y-616836D01*
X837974Y-615950D01*
Y-604209D01*
X863289Y-578895D01*
X905947D01*
X906919Y-581241D01*
X905411Y-582750D01*
X904849Y-583590D01*
X904652Y-584581D01*
Y-586780D01*
X928627D01*
Y-584581D01*
X928430Y-583590D01*
X927869Y-582750D01*
X926360Y-581241D01*
X927332Y-578895D01*
X933206D01*
X934258Y-581435D01*
X931877Y-583815D01*
X931877Y-583816D01*
X931560Y-584581D01*
X931560Y-584581D01*
Y-593979D01*
X931877Y-594744D01*
X936575Y-599443D01*
X936576Y-599443D01*
X937341Y-599761D01*
X937341Y-599760D01*
X946739D01*
X947504Y-599443D01*
X952203Y-594744D01*
X952203Y-594744D01*
X952521Y-593979D01*
X952520Y-593979D01*
Y-584581D01*
X952203Y-583816D01*
X949822Y-581435D01*
X950874Y-578895D01*
X958606D01*
X959658Y-581435D01*
X957277Y-583815D01*
X957277Y-583816D01*
X956960Y-584581D01*
X956960Y-584581D01*
Y-593979D01*
X957277Y-594744D01*
X961975Y-599443D01*
X961976Y-599443D01*
X962741Y-599761D01*
X962741Y-599760D01*
X972139D01*
X972904Y-599443D01*
X976006Y-596342D01*
X976270Y-596248D01*
X977573Y-595937D01*
X979144Y-595691D01*
X982998Y-595410D01*
X988292Y-600704D01*
Y-629926D01*
X982986Y-635233D01*
X930904D01*
X922757Y-627086D01*
Y-627026D01*
X922858Y-624836D01*
X922913Y-624313D01*
X922965Y-623983D01*
X926803Y-620145D01*
X926803Y-620144D01*
X927120Y-619379D01*
X927120Y-619379D01*
Y-609981D01*
X926803Y-609216D01*
X922104Y-604517D01*
X922104Y-604517D01*
X921339Y-604199D01*
X921339Y-604200D01*
X911941D01*
X911175Y-604517D01*
X906477Y-609216D01*
X906476Y-609216D01*
X906159Y-609981D01*
X906159Y-609981D01*
Y-619379D01*
X906476Y-620144D01*
X910236Y-623904D01*
X910522Y-628001D01*
Y-629620D01*
X910988Y-631961D01*
X912314Y-633946D01*
X924044Y-645676D01*
X926029Y-647002D01*
X928370Y-647467D01*
X939651D01*
X940797Y-649989D01*
X940600Y-650980D01*
Y-653980D01*
X948690D01*
X956780D01*
Y-650980D01*
X956583Y-649989D01*
X957729Y-647467D01*
X971401D01*
X972547Y-649989D01*
X972350Y-650980D01*
Y-653980D01*
X980440D01*
X988530D01*
Y-650980D01*
X988333Y-649989D01*
X988043Y-649556D01*
X987965Y-648461D01*
X988496Y-646578D01*
X989846Y-645676D01*
X998736Y-636786D01*
X1000062Y-634801D01*
X1000527Y-632460D01*
Y-598170D01*
X1000062Y-595829D01*
X998736Y-593844D01*
X989846Y-584954D01*
X987861Y-583628D01*
X985520Y-583162D01*
X984453D01*
X981002Y-583051D01*
X979157Y-582871D01*
X977573Y-582623D01*
X977395Y-582580D01*
X976690Y-581435D01*
X978110Y-578895D01*
X1054411D01*
X1063893Y-588377D01*
X1064644Y-588878D01*
X1065530Y-589054D01*
X1125383D01*
X1125465Y-589092D01*
X1125738Y-589100D01*
X1125939Y-589122D01*
X1126102Y-589153D01*
X1126225Y-589189D01*
X1126311Y-589226D01*
X1126365Y-589258D01*
X1126396Y-589283D01*
X1126414Y-589303D01*
X1126430Y-589328D01*
X1126478Y-589439D01*
X1126513Y-589472D01*
X1126532Y-589571D01*
X1127416Y-590894D01*
X1128739Y-591778D01*
X1130300Y-592088D01*
X1131861Y-591778D01*
X1133184Y-590894D01*
X1134068Y-589571D01*
X1134378Y-588010D01*
X1134068Y-586449D01*
X1133184Y-585126D01*
X1131861Y-584242D01*
X1130300Y-583932D01*
X1128966Y-584197D01*
X1128861Y-584190D01*
X1128768Y-584222D01*
X1128514Y-584283D01*
X1128402Y-584301D01*
X1127182Y-584385D01*
X1126895Y-584388D01*
X1126805Y-584426D01*
X1125647D01*
X1124566Y-581885D01*
X1124637Y-581812D01*
X1125220Y-581928D01*
X1126781Y-581618D01*
X1128104Y-580734D01*
X1128988Y-579411D01*
X1129298Y-577850D01*
X1129060Y-576651D01*
X1129734Y-575378D01*
X1130670Y-574235D01*
X1131861Y-573998D01*
X1133184Y-573114D01*
X1134068Y-571791D01*
X1134378Y-570230D01*
X1134068Y-568669D01*
X1133184Y-567346D01*
X1131861Y-566462D01*
X1130300Y-566152D01*
X1128739Y-566462D01*
X1127443Y-567328D01*
X1127422Y-567336D01*
X1127290Y-567458D01*
X1127187Y-567537D01*
X1127072Y-567608D01*
X1126944Y-567673D01*
X1126799Y-567730D01*
X1126636Y-567780D01*
X1126453Y-567821D01*
X1126250Y-567851D01*
X1126026Y-567871D01*
X1125753Y-567878D01*
X1125669Y-567915D01*
X1122680D01*
X1121794Y-568092D01*
X1121043Y-568593D01*
X1115371Y-574266D01*
X1092221D01*
X1091491Y-572398D01*
X1091353Y-571726D01*
X1092158Y-570521D01*
X1092468Y-568960D01*
X1092158Y-567399D01*
X1091274Y-566076D01*
X1089951Y-565192D01*
X1089599Y-565122D01*
X1080753Y-556277D01*
X1079596Y-555503D01*
X1078230Y-555231D01*
X931687D01*
X930635Y-552691D01*
X1137903Y-345423D01*
X1138677Y-344266D01*
X1138949Y-342900D01*
Y-254208D01*
X1160988Y-232169D01*
X1249378D01*
X1250132Y-232019D01*
X1254308D01*
X1255062Y-232169D01*
X1377950D01*
X1379316Y-231897D01*
X1380473Y-231123D01*
X1393129Y-218468D01*
X1393481Y-218398D01*
X1394804Y-217514D01*
X1395688Y-216191D01*
X1395998Y-214630D01*
X1395688Y-213069D01*
X1394804Y-211746D01*
X1393481Y-210862D01*
X1391920Y-210552D01*
X1390359Y-210862D01*
X1389036Y-211746D01*
X1388152Y-213069D01*
X1388082Y-213421D01*
X1376472Y-225031D01*
X1255666D01*
X1254912Y-224881D01*
X1249528D01*
X1248774Y-225031D01*
X1159510D01*
X1158144Y-225303D01*
X1156987Y-226077D01*
X1133373Y-249690D01*
X1131417Y-249316D01*
X1130696Y-248869D01*
X1130495Y-247421D01*
X1157178Y-220739D01*
X1290320D01*
X1291686Y-220467D01*
X1292843Y-219693D01*
X1296609Y-215928D01*
X1296961Y-215858D01*
X1298284Y-214974D01*
X1299168Y-213651D01*
X1299478Y-212090D01*
X1299168Y-210529D01*
X1298284Y-209206D01*
X1296961Y-208322D01*
X1295400Y-208012D01*
X1293839Y-208322D01*
X1292516Y-209206D01*
X1291632Y-210529D01*
X1291562Y-210881D01*
X1288842Y-213601D01*
X1155700D01*
X1154334Y-213873D01*
X1153177Y-214647D01*
X1124979Y-242845D01*
X1122439Y-241793D01*
Y-235158D01*
X1147018Y-210579D01*
X1196340D01*
X1197706Y-210307D01*
X1198863Y-209533D01*
X1200089Y-208308D01*
X1200441Y-208238D01*
X1201764Y-207354D01*
X1202648Y-206031D01*
X1202958Y-204470D01*
X1202648Y-202909D01*
X1201764Y-201586D01*
X1200441Y-200702D01*
X1198880Y-200392D01*
X1197319Y-200702D01*
X1195996Y-201586D01*
X1195112Y-202909D01*
X1195042Y-203261D01*
X1194862Y-203441D01*
X1145540D01*
X1144174Y-203713D01*
X1143017Y-204487D01*
X1116347Y-231157D01*
X1116089Y-231543D01*
X1113549Y-230772D01*
Y-218440D01*
X1113277Y-217074D01*
X1112503Y-215917D01*
X1106198Y-209611D01*
X1106128Y-209259D01*
X1105244Y-207936D01*
X1103921Y-207052D01*
X1102360Y-206742D01*
X1100799Y-207052D01*
X1099476Y-207936D01*
X1098592Y-209259D01*
X1098282Y-210820D01*
X1098592Y-212381D01*
X1099476Y-213704D01*
X1100799Y-214588D01*
X1101151Y-214658D01*
X1106411Y-219918D01*
Y-240932D01*
X1103871Y-241703D01*
X1103613Y-241317D01*
X1088373Y-226077D01*
X1087216Y-225303D01*
X1085850Y-225031D01*
X1022558D01*
X1010948Y-213421D01*
X1010878Y-213069D01*
X1009994Y-211746D01*
X1008671Y-210862D01*
X1007110Y-210552D01*
X1005549Y-210862D01*
X1004226Y-211746D01*
X1003342Y-213069D01*
X1003032Y-214630D01*
X1003342Y-216191D01*
X1004226Y-217514D01*
X1005549Y-218398D01*
X1005901Y-218468D01*
X1018557Y-231123D01*
X1019714Y-231897D01*
X1021080Y-232169D01*
X1084372D01*
X1097521Y-245318D01*
Y-329992D01*
X918002Y-509511D01*
X701040D01*
X699674Y-509783D01*
X698517Y-510557D01*
X689073Y-520000D01*
X630146D01*
X629679Y-519430D01*
Y-244048D01*
X641558Y-232169D01*
X899160D01*
X900526Y-231897D01*
X901683Y-231123D01*
X911799Y-221008D01*
X912151Y-220938D01*
X913474Y-220054D01*
X914358Y-218731D01*
X914668Y-217170D01*
X914358Y-215609D01*
X913474Y-214286D01*
X912151Y-213402D01*
X910590Y-213092D01*
X909029Y-213402D01*
X907706Y-214286D01*
X906822Y-215609D01*
X906752Y-215961D01*
X897682Y-225031D01*
X813168D01*
X812397Y-222491D01*
X812783Y-222233D01*
X815279Y-219738D01*
X815631Y-219668D01*
X816954Y-218784D01*
X817838Y-217461D01*
X818148Y-215900D01*
X817838Y-214339D01*
X816954Y-213016D01*
X815631Y-212132D01*
X814070Y-211822D01*
X812509Y-212132D01*
X811186Y-213016D01*
X810302Y-214339D01*
X810232Y-214691D01*
X808782Y-216141D01*
X635000D01*
X633634Y-216413D01*
X632477Y-217187D01*
X616979Y-232685D01*
X614439Y-231633D01*
Y-226268D01*
X627588Y-213119D01*
X715010D01*
X716376Y-212847D01*
X717533Y-212073D01*
X720029Y-209578D01*
X720381Y-209508D01*
X721704Y-208624D01*
X722588Y-207301D01*
X722898Y-205740D01*
X722588Y-204179D01*
X721704Y-202856D01*
X720381Y-201972D01*
X718820Y-201662D01*
X717259Y-201972D01*
X715936Y-202856D01*
X715052Y-204179D01*
X714982Y-204531D01*
X713532Y-205981D01*
X626110D01*
X624744Y-206253D01*
X623587Y-207027D01*
X609359Y-221255D01*
X606819Y-220203D01*
Y-186898D01*
X622239Y-171478D01*
X622591Y-171408D01*
X623914Y-170524D01*
X624798Y-169201D01*
X625108Y-167640D01*
X624798Y-166079D01*
X623914Y-164756D01*
X622591Y-163872D01*
X621030Y-163562D01*
X619469Y-163872D01*
X618146Y-164756D01*
X617262Y-166079D01*
X617192Y-166431D01*
X600727Y-182897D01*
X599953Y-184054D01*
X599681Y-185420D01*
Y-495475D01*
X599619Y-495517D01*
X597079Y-494159D01*
Y-260350D01*
X596807Y-258984D01*
X596033Y-257827D01*
X550313Y-212107D01*
X549156Y-211333D01*
X547790Y-211061D01*
X527639D01*
X527341Y-210862D01*
X525780Y-210552D01*
X524219Y-210862D01*
X522896Y-211746D01*
X522012Y-213069D01*
X521702Y-214630D01*
X522012Y-216191D01*
X522896Y-217514D01*
X524219Y-218398D01*
X525780Y-218708D01*
X527341Y-218398D01*
X527639Y-218199D01*
X546312D01*
X589941Y-261828D01*
Y-497212D01*
X567153Y-520000D01*
X437589D01*
Y-215580D01*
X437317Y-214214D01*
X436543Y-213057D01*
X433098Y-209611D01*
X433028Y-209259D01*
X432144Y-207936D01*
X430821Y-207052D01*
X429260Y-206742D01*
X427699Y-207052D01*
X426376Y-207936D01*
X425492Y-209259D01*
X425182Y-210820D01*
X425492Y-212381D01*
X426376Y-213704D01*
X427699Y-214588D01*
X428051Y-214658D01*
X430451Y-217058D01*
Y-255203D01*
X427911Y-256255D01*
X368523Y-196867D01*
X367365Y-196093D01*
X365999Y-195821D01*
X324439D01*
X324141Y-195622D01*
X322580Y-195312D01*
X321019Y-195622D01*
X319696Y-196506D01*
X318812Y-197829D01*
X318502Y-199390D01*
X318812Y-200951D01*
X319696Y-202274D01*
X321019Y-203158D01*
X322580Y-203468D01*
X324141Y-203158D01*
X324439Y-202959D01*
X362681D01*
X363111Y-203601D01*
X361753Y-206141D01*
X239128D01*
X238788Y-205801D01*
X238718Y-205449D01*
X237834Y-204126D01*
X236511Y-203242D01*
X234950Y-202932D01*
X233389Y-203242D01*
X232066Y-204126D01*
X231182Y-205449D01*
X230872Y-207010D01*
X231182Y-208571D01*
X232066Y-209894D01*
X233389Y-210778D01*
X233134Y-213317D01*
X232983Y-213681D01*
X146338D01*
X143538Y-210881D01*
X143468Y-210529D01*
X142584Y-209206D01*
X141261Y-208322D01*
X139700Y-208012D01*
X138139Y-208322D01*
X136816Y-209206D01*
X135932Y-210529D01*
X135622Y-212090D01*
X135932Y-213651D01*
X136816Y-214974D01*
X138139Y-215858D01*
X138491Y-215928D01*
X141245Y-218681D01*
X140193Y-221221D01*
X56088D01*
X47018Y-212151D01*
X46948Y-211799D01*
X46064Y-210476D01*
X44741Y-209592D01*
X43180Y-209282D01*
X41619Y-209592D01*
X40296Y-210476D01*
X39412Y-211799D01*
X39102Y-213360D01*
X39412Y-214921D01*
X40296Y-216244D01*
X41619Y-217128D01*
X41971Y-217198D01*
X52087Y-227313D01*
X53244Y-228087D01*
X54610Y-228359D01*
X357932D01*
X400291Y-270718D01*
Y-476042D01*
X382287Y-494047D01*
X381513Y-495204D01*
X381241Y-496570D01*
Y-520000D01*
X1624D01*
Y-50000D01*
X1429Y-49531D01*
X1811Y-43713D01*
X3047Y-37493D01*
X5086Y-31489D01*
X7890Y-25802D01*
X11413Y-20529D01*
X15594Y-15762D01*
X20362Y-11581D01*
X25634Y-8058D01*
X31321Y-5253D01*
X37326Y-3215D01*
X43545Y-1978D01*
X47359Y-1728D01*
X49872Y-1664D01*
Y-1664D01*
X50000Y-1624D01*
X1450000D01*
X1450470Y-1429D01*
X1456288Y-1811D01*
D02*
G37*
G36*
X972903Y-581271D02*
X973285Y-581902D01*
X973922Y-582460D01*
X974815Y-582943D01*
X975962Y-583351D01*
X977363Y-583686D01*
X979020Y-583946D01*
X980932Y-584131D01*
X985520Y-584280D01*
Y-594280D01*
X983099Y-594317D01*
X979020Y-594614D01*
X977363Y-594874D01*
X975962Y-595209D01*
X974815Y-595617D01*
X973922Y-596100D01*
X973285Y-596658D01*
X972903Y-597289D01*
X972775Y-597995D01*
X972775Y-580565D01*
X972903Y-581271D01*
D02*
G37*
G36*
X1127470Y-589006D02*
X1127387Y-588816D01*
X1127279Y-588647D01*
X1127146Y-588498D01*
X1126987Y-588368D01*
X1126802Y-588259D01*
X1126593Y-588169D01*
X1126358Y-588100D01*
X1126097Y-588050D01*
X1125811Y-588020D01*
X1125500Y-588010D01*
X1126904Y-585470D01*
X1127224Y-585467D01*
X1128527Y-585378D01*
X1128728Y-585345D01*
X1129071Y-585263D01*
X1129212Y-585214D01*
X1127470Y-589006D01*
D02*
G37*
G36*
X714673Y-606498D02*
X714858Y-606639D01*
X715058Y-606763D01*
X715273Y-606871D01*
X715503Y-606963D01*
X715748Y-607037D01*
X716008Y-607095D01*
X716283Y-607137D01*
X716573Y-607162D01*
X716878Y-607170D01*
Y-609710D01*
X716573Y-609718D01*
X716283Y-609743D01*
X716008Y-609785D01*
X715748Y-609843D01*
X715503Y-609917D01*
X715273Y-610009D01*
X715058Y-610117D01*
X714858Y-610241D01*
X714673Y-610382D01*
X714502Y-610540D01*
Y-606340D01*
X714673Y-606498D01*
D02*
G37*
%LPC*%
G36*
X152559Y-774670D02*
X140950D01*
Y-786279D01*
X142187Y-786116D01*
X145669Y-784674D01*
X148659Y-782380D01*
X150954Y-779389D01*
X152396Y-775907D01*
X152559Y-774670D01*
D02*
G37*
G36*
X135950D02*
X124341D01*
X124503Y-775907D01*
X125946Y-779389D01*
X128240Y-782380D01*
X131231Y-784674D01*
X134713Y-786116D01*
X135950Y-786279D01*
Y-774670D01*
D02*
G37*
G36*
X84837Y-759170D02*
X76650D01*
Y-767357D01*
X77001Y-767311D01*
X79658Y-766210D01*
X81940Y-764460D01*
X83690Y-762178D01*
X84791Y-759521D01*
X84837Y-759170D01*
D02*
G37*
G36*
X628850Y-778470D02*
X622260D01*
Y-785060D01*
X626260D01*
X627251Y-784863D01*
X628091Y-784301D01*
X628653Y-783461D01*
X628850Y-782470D01*
Y-778470D01*
D02*
G37*
G36*
X135950Y-758061D02*
X134713Y-758223D01*
X131231Y-759666D01*
X128240Y-761961D01*
X125946Y-764951D01*
X124503Y-768433D01*
X124341Y-769670D01*
X135950D01*
Y-758061D01*
D02*
G37*
G36*
X140950D02*
Y-769670D01*
X152559D01*
X152396Y-768433D01*
X150954Y-764951D01*
X148659Y-761961D01*
X145669Y-759666D01*
X142187Y-758223D01*
X140950Y-758061D01*
D02*
G37*
G36*
X1471970Y-772495D02*
X1451970D01*
X1449098Y-772873D01*
X1446423Y-773981D01*
X1444125Y-775745D01*
X1442361Y-778043D01*
X1441253Y-780718D01*
X1440875Y-783590D01*
X1441253Y-786462D01*
X1442361Y-789137D01*
X1444125Y-791435D01*
X1446423Y-793198D01*
X1449098Y-794307D01*
X1451970Y-794685D01*
X1471970D01*
X1474842Y-794307D01*
X1477517Y-793198D01*
X1479815Y-791435D01*
X1481579Y-789137D01*
X1482687Y-786462D01*
X1483065Y-783590D01*
X1482687Y-780718D01*
X1481579Y-778043D01*
X1479815Y-775745D01*
X1477517Y-773981D01*
X1474842Y-772873D01*
X1471970Y-772495D01*
D02*
G37*
G36*
X843280Y-792444D02*
X839756Y-792908D01*
X836472Y-794268D01*
X833652Y-796432D01*
X831488Y-799252D01*
X830127Y-802536D01*
X829663Y-806060D01*
X830127Y-809584D01*
X831488Y-812868D01*
X833652Y-815688D01*
X836472Y-817852D01*
X839756Y-819213D01*
X843280Y-819677D01*
X846804Y-819213D01*
X850088Y-817852D01*
X852908Y-815688D01*
X855072Y-812868D01*
X856432Y-809584D01*
X856897Y-806060D01*
X856432Y-802536D01*
X855072Y-799252D01*
X852908Y-796432D01*
X850088Y-794268D01*
X846804Y-792908D01*
X843280Y-792444D01*
D02*
G37*
G36*
X905510D02*
X901986Y-792908D01*
X898702Y-794268D01*
X895882Y-796432D01*
X893718Y-799252D01*
X892357Y-802536D01*
X891893Y-806060D01*
X892357Y-809584D01*
X893718Y-812868D01*
X895882Y-815688D01*
X898702Y-817852D01*
X901986Y-819213D01*
X905510Y-819677D01*
X909034Y-819213D01*
X912318Y-817852D01*
X915138Y-815688D01*
X917302Y-812868D01*
X918662Y-809584D01*
X919127Y-806060D01*
X918662Y-802536D01*
X917302Y-799252D01*
X915138Y-796432D01*
X912318Y-794268D01*
X909034Y-792908D01*
X905510Y-792444D01*
D02*
G37*
G36*
X698410D02*
X694886Y-792908D01*
X691602Y-794268D01*
X688782Y-796432D01*
X686618Y-799252D01*
X685257Y-802536D01*
X684794Y-806060D01*
X685257Y-809584D01*
X686618Y-812868D01*
X688782Y-815688D01*
X691602Y-817852D01*
X694886Y-819213D01*
X698410Y-819677D01*
X701934Y-819213D01*
X705218Y-817852D01*
X708038Y-815688D01*
X710202Y-812868D01*
X711562Y-809584D01*
X712027Y-806060D01*
X711562Y-802536D01*
X710202Y-799252D01*
X708038Y-796432D01*
X705218Y-794268D01*
X701934Y-792908D01*
X698410Y-792444D01*
D02*
G37*
G36*
X801280D02*
X797756Y-792908D01*
X794472Y-794268D01*
X791652Y-796432D01*
X789488Y-799252D01*
X788128Y-802536D01*
X787664Y-806060D01*
X788128Y-809584D01*
X789488Y-812868D01*
X791652Y-815688D01*
X794472Y-817852D01*
X797756Y-819213D01*
X801280Y-819677D01*
X804804Y-819213D01*
X808088Y-817852D01*
X810908Y-815688D01*
X813072Y-812868D01*
X814433Y-809584D01*
X814896Y-806060D01*
X814433Y-802536D01*
X813072Y-799252D01*
X810908Y-796432D01*
X808088Y-794268D01*
X804804Y-792908D01*
X801280Y-792444D01*
D02*
G37*
G36*
X993140Y-808722D02*
X991579Y-809032D01*
X990256Y-809916D01*
X989372Y-811239D01*
X989062Y-812800D01*
X989372Y-814361D01*
X990256Y-815684D01*
X991579Y-816568D01*
X993140Y-816878D01*
X994701Y-816568D01*
X996024Y-815684D01*
X996404Y-815115D01*
X1117911D01*
X1124853Y-822057D01*
X1125604Y-822558D01*
X1126490Y-822735D01*
X1199426D01*
X1199806Y-823304D01*
X1201129Y-824188D01*
X1202690Y-824498D01*
X1204251Y-824188D01*
X1205574Y-823304D01*
X1206458Y-821981D01*
X1206768Y-820420D01*
X1206458Y-818859D01*
X1205574Y-817536D01*
X1204251Y-816652D01*
X1202690Y-816342D01*
X1201129Y-816652D01*
X1199806Y-817536D01*
X1199426Y-818105D01*
X1127449D01*
X1120507Y-811163D01*
X1119756Y-810662D01*
X1118870Y-810486D01*
X996404D01*
X996024Y-809916D01*
X994701Y-809032D01*
X993140Y-808722D01*
D02*
G37*
G36*
X558509Y-798470D02*
X552260D01*
Y-804719D01*
X554319Y-803866D01*
X556207Y-802417D01*
X557656Y-800529D01*
X558509Y-798470D01*
D02*
G37*
G36*
X1420970Y-772495D02*
X1400970D01*
X1398098Y-772873D01*
X1395423Y-773981D01*
X1393125Y-775745D01*
X1391362Y-778043D01*
X1390253Y-780718D01*
X1389875Y-783590D01*
X1390253Y-786462D01*
X1391362Y-789137D01*
X1393125Y-791435D01*
X1395423Y-793198D01*
X1398098Y-794307D01*
X1400970Y-794685D01*
X1420970D01*
X1423842Y-794307D01*
X1426517Y-793198D01*
X1428815Y-791435D01*
X1430578Y-789137D01*
X1431687Y-786462D01*
X1432065Y-783590D01*
X1431687Y-780718D01*
X1430578Y-778043D01*
X1428815Y-775745D01*
X1426517Y-773981D01*
X1423842Y-772873D01*
X1420970Y-772495D01*
D02*
G37*
G36*
X533400Y-820152D02*
X531839Y-820462D01*
X530516Y-821346D01*
X529632Y-822669D01*
X529322Y-824230D01*
X529455Y-824902D01*
X501283Y-853073D01*
X500782Y-853824D01*
X500772Y-853875D01*
X500036Y-854366D01*
X499152Y-855689D01*
X498842Y-857250D01*
X499152Y-858811D01*
X500036Y-860134D01*
X501359Y-861018D01*
X502920Y-861328D01*
X504481Y-861018D01*
X505804Y-860134D01*
X506688Y-858811D01*
X506998Y-857250D01*
X506688Y-855689D01*
X506097Y-854806D01*
X532728Y-828175D01*
X533400Y-828308D01*
X534961Y-827998D01*
X536284Y-827114D01*
X537168Y-825791D01*
X537478Y-824230D01*
X537168Y-822669D01*
X536284Y-821346D01*
X534961Y-820462D01*
X533400Y-820152D01*
D02*
G37*
G36*
X547260Y-798470D02*
X541011D01*
X541864Y-800529D01*
X543313Y-802417D01*
X545201Y-803866D01*
X547260Y-804719D01*
Y-798470D01*
D02*
G37*
G36*
X516200Y-708620D02*
X510610D01*
Y-714210D01*
X513610D01*
X514601Y-714013D01*
X515441Y-713451D01*
X516003Y-712611D01*
X516200Y-711620D01*
Y-708620D01*
D02*
G37*
G36*
X761619Y-691830D02*
X761619Y-691830D01*
X752221D01*
X751456Y-692147D01*
X746757Y-696845D01*
X746757Y-696846D01*
X746440Y-697611D01*
X746440Y-697611D01*
Y-707009D01*
X746757Y-707774D01*
X751456Y-712473D01*
X751456Y-712473D01*
X752221Y-712791D01*
X752221Y-712790D01*
X761619D01*
X762384Y-712473D01*
X767083Y-707775D01*
X767083Y-707774D01*
X767401Y-707009D01*
X767400Y-707009D01*
Y-697611D01*
X767083Y-696846D01*
X762384Y-692147D01*
Y-692147D01*
X761619Y-691830D01*
D02*
G37*
G36*
X171450Y-690307D02*
X169001Y-690630D01*
X166719Y-691575D01*
X164759Y-693079D01*
X163255Y-695039D01*
X162309Y-697321D01*
X161987Y-699770D01*
X162309Y-702219D01*
X163255Y-704501D01*
X164759Y-706461D01*
X166719Y-707965D01*
X169001Y-708911D01*
X171450Y-709233D01*
X173899Y-708911D01*
X176182Y-707965D01*
X178141Y-706461D01*
X179645Y-704501D01*
X180590Y-702219D01*
X180913Y-699770D01*
X180590Y-697321D01*
X179645Y-695039D01*
X178141Y-693079D01*
X176182Y-691575D01*
X173899Y-690630D01*
X171450Y-690307D01*
D02*
G37*
G36*
X505610Y-708620D02*
X500020D01*
Y-711620D01*
X500217Y-712611D01*
X500779Y-713451D01*
X501619Y-714013D01*
X502610Y-714210D01*
X505610D01*
Y-708620D01*
D02*
G37*
G36*
X196850Y-703007D02*
X194401Y-703329D01*
X192118Y-704275D01*
X190159Y-705779D01*
X188655Y-707738D01*
X187710Y-710021D01*
X187387Y-712470D01*
X187710Y-714919D01*
X188655Y-717202D01*
X190159Y-719161D01*
X192118Y-720665D01*
X194401Y-721610D01*
X196850Y-721933D01*
X199299Y-721610D01*
X201581Y-720665D01*
X203541Y-719161D01*
X205045Y-717202D01*
X205991Y-714919D01*
X206313Y-712470D01*
X205991Y-710021D01*
X205045Y-707738D01*
X203541Y-705779D01*
X201581Y-704275D01*
X199299Y-703329D01*
X196850Y-703007D01*
D02*
G37*
G36*
X729020Y-704810D02*
X719532D01*
Y-707009D01*
X719729Y-708000D01*
X720291Y-708840D01*
X724989Y-713539D01*
X725830Y-714101D01*
X726821Y-714298D01*
X729020D01*
Y-704810D01*
D02*
G37*
G36*
X743508D02*
X734020D01*
Y-714298D01*
X736219D01*
X737210Y-714101D01*
X738050Y-713539D01*
X742749Y-708840D01*
X743310Y-708000D01*
X743508Y-707009D01*
Y-704810D01*
D02*
G37*
G36*
X729020Y-690322D02*
X726821D01*
X725830Y-690519D01*
X724989Y-691081D01*
X720291Y-695780D01*
X719729Y-696620D01*
X719532Y-697611D01*
Y-699810D01*
X729020D01*
Y-690322D01*
D02*
G37*
G36*
X736219D02*
X734020D01*
Y-699810D01*
X743508D01*
Y-697611D01*
X743310Y-696620D01*
X742749Y-695780D01*
X738050Y-691081D01*
X737210Y-690519D01*
X736219Y-690322D01*
D02*
G37*
G36*
X273050Y-641192D02*
X271489Y-641502D01*
X270166Y-642386D01*
X269282Y-643709D01*
X268972Y-645270D01*
X269282Y-646831D01*
X270166Y-648154D01*
X271489Y-649038D01*
X271841Y-649108D01*
X288531Y-665798D01*
Y-685592D01*
X276542Y-697581D01*
X272479D01*
X272181Y-697382D01*
X270620Y-697072D01*
X269059Y-697382D01*
X267736Y-698266D01*
X266852Y-699589D01*
X266542Y-701150D01*
X266852Y-702711D01*
X267736Y-704034D01*
X269059Y-704918D01*
X270620Y-705228D01*
X272181Y-704918D01*
X272479Y-704719D01*
X278020D01*
X279386Y-704447D01*
X280543Y-703673D01*
X294623Y-689593D01*
X295397Y-688436D01*
X295669Y-687070D01*
Y-664320D01*
X295397Y-662954D01*
X294623Y-661797D01*
X276888Y-644061D01*
X276818Y-643709D01*
X275934Y-642386D01*
X274611Y-641502D01*
X273050Y-641192D01*
D02*
G37*
G36*
X1377950Y-679785D02*
X1375078Y-680163D01*
X1372402Y-681272D01*
X1370105Y-683035D01*
X1368342Y-685332D01*
X1367233Y-688008D01*
X1366855Y-690880D01*
X1367233Y-693752D01*
X1368342Y-696428D01*
X1370105Y-698725D01*
X1372402Y-700489D01*
X1375078Y-701597D01*
X1377950Y-701975D01*
X1380822Y-701597D01*
X1383497Y-700489D01*
X1385795Y-698725D01*
X1387558Y-696428D01*
X1388667Y-693752D01*
X1389045Y-690880D01*
X1388667Y-688008D01*
X1387558Y-685332D01*
X1385795Y-683035D01*
X1383497Y-681272D01*
X1380822Y-680163D01*
X1377950Y-679785D01*
D02*
G37*
G36*
X128270Y-690612D02*
X126709Y-690922D01*
X125386Y-691806D01*
X124502Y-693129D01*
X124192Y-694690D01*
X124502Y-696251D01*
X125386Y-697574D01*
X125955Y-697954D01*
Y-709930D01*
X126132Y-710816D01*
X126633Y-711567D01*
X176980Y-761913D01*
X177731Y-762415D01*
X178617Y-762591D01*
X200824D01*
X201876Y-765131D01*
X180031Y-786975D01*
X163470D01*
X162585Y-787152D01*
X161834Y-787653D01*
X152972Y-796516D01*
X102324D01*
X101944Y-795946D01*
X100621Y-795062D01*
X99060Y-794752D01*
X97499Y-795062D01*
X96176Y-795946D01*
X95292Y-797269D01*
X94982Y-798830D01*
X95292Y-800391D01*
X96176Y-801714D01*
X97499Y-802598D01*
X99060Y-802908D01*
X100621Y-802598D01*
X101944Y-801714D01*
X102324Y-801144D01*
X153931D01*
X154816Y-800968D01*
X155567Y-800467D01*
X159873Y-796161D01*
X160122Y-796174D01*
X162465Y-797161D01*
X162602Y-797851D01*
X163486Y-799174D01*
X164809Y-800058D01*
X166370Y-800368D01*
X167931Y-800058D01*
X169254Y-799174D01*
X169634Y-798605D01*
X181308D01*
X182193Y-798428D01*
X182944Y-797927D01*
X230237Y-750634D01*
X230738Y-749883D01*
X230914Y-748998D01*
Y-737559D01*
X240989Y-727485D01*
X328930D01*
X329816Y-727308D01*
X330567Y-726807D01*
X330798Y-726575D01*
X331470Y-726708D01*
X333031Y-726398D01*
X334354Y-725514D01*
X335238Y-724191D01*
X335548Y-722630D01*
X335238Y-721069D01*
X334354Y-719746D01*
X333031Y-718862D01*
X331470Y-718552D01*
X330937Y-718658D01*
X329686Y-716317D01*
X334401Y-711602D01*
X334989Y-711994D01*
X336550Y-712305D01*
X338111Y-711994D01*
X339434Y-711110D01*
X340318Y-709787D01*
X340628Y-708227D01*
X340318Y-706666D01*
X339941Y-706102D01*
X341333Y-703789D01*
X341630Y-703848D01*
X343191Y-703538D01*
X344514Y-702654D01*
X345398Y-701331D01*
X345708Y-699770D01*
X345398Y-698209D01*
X344514Y-696886D01*
X343191Y-696002D01*
X341630Y-695692D01*
X340069Y-696002D01*
X338746Y-696886D01*
X338366Y-697456D01*
X334010D01*
X333124Y-697632D01*
X332373Y-698133D01*
X317811Y-712695D01*
X231805D01*
X230920Y-712872D01*
X230169Y-713373D01*
X215533Y-728009D01*
X215032Y-728760D01*
X214855Y-729645D01*
Y-745270D01*
X202164Y-757962D01*
X179575D01*
X130584Y-708971D01*
Y-697954D01*
X131154Y-697574D01*
X132038Y-696251D01*
X132348Y-694690D01*
X132038Y-693129D01*
X131154Y-691806D01*
X129831Y-690922D01*
X128270Y-690612D01*
D02*
G37*
G36*
X505610Y-698030D02*
X502610D01*
X501619Y-698227D01*
X500779Y-698789D01*
X500217Y-699629D01*
X500020Y-700620D01*
Y-703620D01*
X505610D01*
Y-698030D01*
D02*
G37*
G36*
X513610D02*
X510610D01*
Y-703620D01*
X516200D01*
Y-700620D01*
X516003Y-699629D01*
X515441Y-698789D01*
X514601Y-698227D01*
X513610Y-698030D01*
D02*
G37*
G36*
Y-718350D02*
X510610D01*
Y-723940D01*
X516200D01*
Y-720940D01*
X516003Y-719949D01*
X515441Y-719109D01*
X514601Y-718547D01*
X513610Y-718350D01*
D02*
G37*
G36*
X207537Y-740370D02*
X199350D01*
Y-748557D01*
X199701Y-748511D01*
X202358Y-747410D01*
X204640Y-745660D01*
X206390Y-743378D01*
X207491Y-740721D01*
X207537Y-740370D01*
D02*
G37*
G36*
X58950Y-721807D02*
X56501Y-722130D01*
X54219Y-723075D01*
X52259Y-724579D01*
X50755Y-726538D01*
X49809Y-728821D01*
X49487Y-731270D01*
X49809Y-733719D01*
X50755Y-736001D01*
X52259Y-737961D01*
X54219Y-739465D01*
X56501Y-740411D01*
X58950Y-740733D01*
X61399Y-740411D01*
X63682Y-739465D01*
X65641Y-737961D01*
X67145Y-736001D01*
X68091Y-733719D01*
X68413Y-731270D01*
X68091Y-728821D01*
X67145Y-726538D01*
X65641Y-724579D01*
X63682Y-723075D01*
X61399Y-722130D01*
X58950Y-721807D01*
D02*
G37*
G36*
X586740Y-738872D02*
X585179Y-739182D01*
X583883Y-740048D01*
X583862Y-740056D01*
X583730Y-740178D01*
X583627Y-740257D01*
X583512Y-740328D01*
X583384Y-740393D01*
X583239Y-740450D01*
X583076Y-740500D01*
X582893Y-740541D01*
X582690Y-740571D01*
X582466Y-740591D01*
X582193Y-740598D01*
X582109Y-740636D01*
X577401D01*
X577317Y-740598D01*
X577044Y-740591D01*
X576820Y-740571D01*
X576617Y-740541D01*
X576434Y-740500D01*
X576271Y-740450D01*
X576126Y-740393D01*
X575998Y-740328D01*
X575883Y-740257D01*
X575780Y-740178D01*
X575648Y-740056D01*
X575627Y-740048D01*
X574331Y-739182D01*
X572770Y-738872D01*
X571209Y-739182D01*
X569886Y-740066D01*
X569002Y-741389D01*
X568692Y-742950D01*
X569002Y-744511D01*
X569886Y-745834D01*
X571209Y-746718D01*
X572770Y-747028D01*
X574331Y-746718D01*
X575627Y-745852D01*
X575648Y-745844D01*
X575780Y-745722D01*
X575883Y-745643D01*
X575998Y-745572D01*
X576126Y-745507D01*
X576271Y-745450D01*
X576434Y-745400D01*
X576617Y-745359D01*
X576820Y-745329D01*
X577044Y-745309D01*
X577317Y-745302D01*
X577401Y-745265D01*
X582109D01*
X582193Y-745302D01*
X582466Y-745309D01*
X582690Y-745329D01*
X582893Y-745359D01*
X583076Y-745400D01*
X583239Y-745450D01*
X583384Y-745507D01*
X583512Y-745572D01*
X583627Y-745643D01*
X583730Y-745722D01*
X583862Y-745844D01*
X583883Y-745852D01*
X585179Y-746718D01*
X586740Y-747028D01*
X588301Y-746718D01*
X589624Y-745834D01*
X590508Y-744511D01*
X590818Y-742950D01*
X590508Y-741389D01*
X589624Y-740066D01*
X588301Y-739182D01*
X586740Y-738872D01*
D02*
G37*
G36*
X194350Y-740370D02*
X186163D01*
X186209Y-740721D01*
X187310Y-743378D01*
X189060Y-745660D01*
X191342Y-747410D01*
X193999Y-748511D01*
X194350Y-748557D01*
Y-740370D01*
D02*
G37*
G36*
X71650Y-759170D02*
X63463D01*
X63509Y-759521D01*
X64610Y-762178D01*
X66360Y-764460D01*
X68642Y-766210D01*
X71299Y-767311D01*
X71650Y-767357D01*
Y-759170D01*
D02*
G37*
G36*
Y-745983D02*
X71299Y-746029D01*
X68642Y-747130D01*
X66360Y-748880D01*
X64610Y-751162D01*
X63509Y-753819D01*
X63463Y-754170D01*
X71650D01*
Y-745983D01*
D02*
G37*
G36*
X76650D02*
Y-754170D01*
X84837D01*
X84791Y-753819D01*
X83690Y-751162D01*
X81940Y-748880D01*
X79658Y-747130D01*
X77001Y-746029D01*
X76650Y-745983D01*
D02*
G37*
G36*
X516200Y-728940D02*
X510610D01*
Y-734530D01*
X513610D01*
X514601Y-734333D01*
X515441Y-733771D01*
X516003Y-732931D01*
X516200Y-731940D01*
Y-728940D01*
D02*
G37*
G36*
X107950Y-733159D02*
X107898Y-733180D01*
X107844Y-733164D01*
X104658Y-733478D01*
X104560Y-733530D01*
X104450Y-733519D01*
X101387Y-734448D01*
X101301Y-734519D01*
X101191Y-734530D01*
X98368Y-736039D01*
X98298Y-736124D01*
X98192Y-736156D01*
X95717Y-738187D01*
X95665Y-738285D01*
X95567Y-738337D01*
X93537Y-740812D01*
X93504Y-740918D01*
X93419Y-740988D01*
X91910Y-743811D01*
X91899Y-743921D01*
X91828Y-744007D01*
X90899Y-747070D01*
X90910Y-747180D01*
X90858Y-747278D01*
X90544Y-750464D01*
X90576Y-750570D01*
X90544Y-750676D01*
X90858Y-753862D01*
X90910Y-753960D01*
X90899Y-754070D01*
X91828Y-757133D01*
X91899Y-757219D01*
X91910Y-757329D01*
X93419Y-760152D01*
X93504Y-760222D01*
X93537Y-760328D01*
X95567Y-762803D01*
X95665Y-762855D01*
X95717Y-762953D01*
X98192Y-764984D01*
X98298Y-765016D01*
X98368Y-765101D01*
X101191Y-766610D01*
X101301Y-766621D01*
X101387Y-766692D01*
X104450Y-767621D01*
X104560Y-767610D01*
X104658Y-767662D01*
X107844Y-767976D01*
X107898Y-767960D01*
X107950Y-767981D01*
X108002Y-767960D01*
X108056Y-767976D01*
X111242Y-767662D01*
X111340Y-767610D01*
X111450Y-767621D01*
X114513Y-766692D01*
X114599Y-766621D01*
X114709Y-766610D01*
X117532Y-765101D01*
X117602Y-765016D01*
X117708Y-764984D01*
X120183Y-762953D01*
X120235Y-762855D01*
X120333Y-762803D01*
X122364Y-760328D01*
X122396Y-760222D01*
X122481Y-760152D01*
X123990Y-757329D01*
X124001Y-757219D01*
X124072Y-757133D01*
X125001Y-754070D01*
X124990Y-753960D01*
X125042Y-753862D01*
X125356Y-750676D01*
X125324Y-750570D01*
X125356Y-750464D01*
X125042Y-747278D01*
X124990Y-747180D01*
X125001Y-747070D01*
X124072Y-744007D01*
X124001Y-743921D01*
X123990Y-743811D01*
X122481Y-740988D01*
X122396Y-740918D01*
X122364Y-740812D01*
X120333Y-738337D01*
X120235Y-738285D01*
X120183Y-738187D01*
X117708Y-736156D01*
X117602Y-736124D01*
X117532Y-736039D01*
X114709Y-734530D01*
X114599Y-734519D01*
X114513Y-734448D01*
X111450Y-733519D01*
X111340Y-733530D01*
X111242Y-733478D01*
X108056Y-733164D01*
X108002Y-733180D01*
X107950Y-733159D01*
D02*
G37*
G36*
X505610Y-718350D02*
X502610D01*
X501619Y-718547D01*
X500779Y-719109D01*
X500217Y-719949D01*
X500020Y-720940D01*
Y-723940D01*
X505610D01*
Y-718350D01*
D02*
G37*
G36*
Y-728940D02*
X500020D01*
Y-731940D01*
X500217Y-732931D01*
X500779Y-733771D01*
X501619Y-734333D01*
X502610Y-734530D01*
X505610D01*
Y-728940D01*
D02*
G37*
G36*
X194350Y-727183D02*
X193999Y-727229D01*
X191342Y-728330D01*
X189060Y-730080D01*
X187310Y-732362D01*
X186209Y-735019D01*
X186163Y-735370D01*
X194350D01*
Y-727183D01*
D02*
G37*
G36*
X199350D02*
Y-735370D01*
X207537D01*
X207491Y-735019D01*
X206390Y-732362D01*
X204640Y-730080D01*
X202358Y-728330D01*
X199701Y-727229D01*
X199350Y-727183D01*
D02*
G37*
G36*
X171450Y-715707D02*
X169001Y-716030D01*
X166719Y-716975D01*
X164759Y-718479D01*
X163255Y-720439D01*
X162309Y-722721D01*
X161987Y-725170D01*
X162309Y-727619D01*
X163255Y-729902D01*
X164759Y-731861D01*
X166719Y-733365D01*
X169001Y-734311D01*
X171450Y-734633D01*
X173899Y-734311D01*
X176182Y-733365D01*
X178141Y-731861D01*
X179645Y-729902D01*
X180590Y-727619D01*
X180913Y-725170D01*
X180590Y-722721D01*
X179645Y-720439D01*
X178141Y-718479D01*
X176182Y-716975D01*
X173899Y-716030D01*
X171450Y-715707D01*
D02*
G37*
G36*
X561451Y-930730D02*
X561240Y-930772D01*
X561029Y-930730D01*
X559273Y-931079D01*
X559094Y-931199D01*
X558883Y-931241D01*
X557394Y-932236D01*
X557275Y-932415D01*
X557096Y-932534D01*
X556101Y-934023D01*
X556059Y-934234D01*
X555940Y-934413D01*
X555590Y-936169D01*
X555612Y-936277D01*
X555570Y-936380D01*
X555612Y-936482D01*
X555590Y-936591D01*
X555940Y-938347D01*
X556059Y-938526D01*
X556101Y-938737D01*
X557096Y-940226D01*
X557275Y-940345D01*
X557394Y-940524D01*
X558883Y-941519D01*
X559094Y-941561D01*
X559273Y-941680D01*
X561029Y-942030D01*
X561240Y-941988D01*
X561451Y-942030D01*
X563207Y-941680D01*
X563386Y-941561D01*
X563597Y-941519D01*
X565086Y-940524D01*
X565205Y-940345D01*
X565384Y-940226D01*
X566379Y-938737D01*
X566421Y-938526D01*
X566541Y-938347D01*
X566890Y-936591D01*
X566868Y-936482D01*
X566911Y-936380D01*
X566868Y-936277D01*
X566890Y-936169D01*
X566541Y-934413D01*
X566421Y-934234D01*
X566379Y-934023D01*
X565384Y-932534D01*
X565205Y-932415D01*
X565086Y-932236D01*
X563597Y-931241D01*
X563386Y-931199D01*
X563207Y-931079D01*
X561451Y-930730D01*
D02*
G37*
G36*
X222770Y-909280D02*
X212951D01*
X213053Y-910054D01*
X214316Y-913104D01*
X216326Y-915724D01*
X218946Y-917734D01*
X221996Y-918997D01*
X222770Y-919099D01*
Y-909280D01*
D02*
G37*
G36*
X237589D02*
X227770D01*
Y-919099D01*
X228544Y-918997D01*
X231594Y-917734D01*
X234214Y-915724D01*
X236224Y-913104D01*
X237487Y-910054D01*
X237589Y-909280D01*
D02*
G37*
G36*
X225270Y-934625D02*
X225218Y-934647D01*
X225164Y-934630D01*
X222223Y-934920D01*
X222126Y-934972D01*
X222015Y-934961D01*
X219188Y-935819D01*
X219102Y-935889D01*
X218992Y-935900D01*
X216386Y-937293D01*
X216316Y-937379D01*
X216210Y-937411D01*
X213925Y-939285D01*
X213873Y-939383D01*
X213775Y-939435D01*
X211901Y-941719D01*
X211869Y-941825D01*
X211783Y-941896D01*
X210390Y-944502D01*
X210379Y-944612D01*
X210309Y-944698D01*
X209451Y-947525D01*
X209462Y-947635D01*
X209410Y-947733D01*
X209120Y-950674D01*
X209153Y-950780D01*
X209120Y-950886D01*
X209410Y-953827D01*
X209462Y-953924D01*
X209451Y-954035D01*
X210309Y-956862D01*
X210379Y-956948D01*
X210390Y-957058D01*
X211783Y-959664D01*
X211869Y-959734D01*
X211901Y-959840D01*
X213775Y-962124D01*
X213873Y-962177D01*
X213925Y-962274D01*
X216210Y-964149D01*
X216316Y-964181D01*
X216386Y-964267D01*
X218992Y-965660D01*
X219102Y-965671D01*
X219188Y-965741D01*
X222015Y-966599D01*
X222126Y-966588D01*
X222223Y-966640D01*
X225164Y-966930D01*
X225218Y-966913D01*
X225270Y-966935D01*
X225322Y-966913D01*
X225376Y-966930D01*
X228317Y-966640D01*
X228414Y-966588D01*
X228525Y-966599D01*
X231352Y-965741D01*
X231438Y-965671D01*
X231548Y-965660D01*
X234154Y-964267D01*
X234224Y-964181D01*
X234331Y-964149D01*
X236615Y-962274D01*
X236667Y-962177D01*
X236765Y-962124D01*
X238639Y-959840D01*
X238671Y-959734D01*
X238757Y-959664D01*
X240150Y-957058D01*
X240161Y-956948D01*
X240231Y-956862D01*
X241089Y-954035D01*
X241078Y-953924D01*
X241130Y-953827D01*
X241420Y-950886D01*
X241388Y-950780D01*
X241420Y-950674D01*
X241130Y-947733D01*
X241078Y-947635D01*
X241089Y-947525D01*
X240231Y-944698D01*
X240161Y-944612D01*
X240150Y-944502D01*
X238757Y-941896D01*
X238671Y-941825D01*
X238639Y-941719D01*
X236765Y-939435D01*
X236667Y-939383D01*
X236615Y-939285D01*
X234331Y-937411D01*
X234224Y-937379D01*
X234154Y-937293D01*
X231548Y-935900D01*
X231438Y-935889D01*
X231352Y-935819D01*
X228525Y-934961D01*
X228414Y-934972D01*
X228317Y-934920D01*
X225376Y-934630D01*
X225322Y-934647D01*
X225270Y-934625D01*
D02*
G37*
G36*
X359890D02*
X359838Y-934647D01*
X359784Y-934630D01*
X356843Y-934920D01*
X356746Y-934972D01*
X356635Y-934961D01*
X353808Y-935819D01*
X353722Y-935889D01*
X353612Y-935900D01*
X351006Y-937293D01*
X350936Y-937379D01*
X350830Y-937411D01*
X348545Y-939285D01*
X348493Y-939383D01*
X348395Y-939435D01*
X346521Y-941719D01*
X346489Y-941825D01*
X346403Y-941896D01*
X345010Y-944502D01*
X344999Y-944612D01*
X344929Y-944698D01*
X344071Y-947525D01*
X344082Y-947635D01*
X344030Y-947733D01*
X343740Y-950674D01*
X343773Y-950780D01*
X343740Y-950886D01*
X344030Y-953827D01*
X344082Y-953924D01*
X344071Y-954035D01*
X344929Y-956862D01*
X344999Y-956948D01*
X345010Y-957058D01*
X346403Y-959664D01*
X346489Y-959734D01*
X346521Y-959840D01*
X348395Y-962124D01*
X348493Y-962177D01*
X348545Y-962274D01*
X350830Y-964149D01*
X350936Y-964181D01*
X351006Y-964267D01*
X353612Y-965660D01*
X353722Y-965671D01*
X353808Y-965741D01*
X356635Y-966599D01*
X356746Y-966588D01*
X356843Y-966640D01*
X359784Y-966930D01*
X359838Y-966913D01*
X359890Y-966935D01*
X359942Y-966913D01*
X359996Y-966930D01*
X362937Y-966640D01*
X363035Y-966588D01*
X363145Y-966599D01*
X365972Y-965741D01*
X366058Y-965671D01*
X366168Y-965660D01*
X368774Y-964267D01*
X368844Y-964181D01*
X368951Y-964149D01*
X371235Y-962274D01*
X371287Y-962177D01*
X371385Y-962124D01*
X373259Y-959840D01*
X373291Y-959734D01*
X373377Y-959664D01*
X374770Y-957058D01*
X374781Y-956948D01*
X374851Y-956862D01*
X375709Y-954035D01*
X375698Y-953924D01*
X375750Y-953827D01*
X376040Y-950886D01*
X376008Y-950780D01*
X376040Y-950674D01*
X375750Y-947733D01*
X375698Y-947635D01*
X375709Y-947525D01*
X374851Y-944698D01*
X374781Y-944612D01*
X374770Y-944502D01*
X373377Y-941896D01*
X373291Y-941825D01*
X373259Y-941719D01*
X371385Y-939435D01*
X371287Y-939383D01*
X371235Y-939285D01*
X368951Y-937411D01*
X368844Y-937379D01*
X368774Y-937293D01*
X366168Y-935900D01*
X366058Y-935889D01*
X365972Y-935819D01*
X363145Y-934961D01*
X363035Y-934972D01*
X362937Y-934920D01*
X359996Y-934630D01*
X359942Y-934647D01*
X359890Y-934625D01*
D02*
G37*
G36*
X517451Y-930730D02*
X517240Y-930772D01*
X517029Y-930730D01*
X515273Y-931079D01*
X515094Y-931199D01*
X514883Y-931241D01*
X513395Y-932236D01*
X513275Y-932415D01*
X513096Y-932534D01*
X512101Y-934023D01*
X512059Y-934234D01*
X511940Y-934413D01*
X511590Y-936169D01*
X511612Y-936277D01*
X511570Y-936380D01*
X511612Y-936482D01*
X511590Y-936591D01*
X511940Y-938347D01*
X512059Y-938526D01*
X512101Y-938737D01*
X513096Y-940226D01*
X513275Y-940345D01*
X513395Y-940524D01*
X514883Y-941519D01*
X515094Y-941561D01*
X515273Y-941680D01*
X517029Y-942030D01*
X517240Y-941988D01*
X517451Y-942030D01*
X519207Y-941680D01*
X519386Y-941561D01*
X519597Y-941519D01*
X521086Y-940524D01*
X521205Y-940345D01*
X521385Y-940226D01*
X522379Y-938737D01*
X522421Y-938526D01*
X522541Y-938347D01*
X522890Y-936591D01*
X522868Y-936482D01*
X522911Y-936380D01*
X522868Y-936277D01*
X522890Y-936169D01*
X522541Y-934413D01*
X522421Y-934234D01*
X522379Y-934023D01*
X521385Y-932534D01*
X521205Y-932415D01*
X521086Y-932236D01*
X519597Y-931241D01*
X519386Y-931199D01*
X519207Y-931079D01*
X517451Y-930730D01*
D02*
G37*
G36*
X357390Y-909280D02*
X347571D01*
X347673Y-910054D01*
X348936Y-913104D01*
X350946Y-915724D01*
X353566Y-917734D01*
X356617Y-918997D01*
X357390Y-919099D01*
Y-909280D01*
D02*
G37*
G36*
X265270Y-895698D02*
X245270D01*
X244505Y-896015D01*
X244188Y-896780D01*
Y-916780D01*
X244505Y-917545D01*
X245270Y-917862D01*
X265270D01*
X266035Y-917545D01*
X266352Y-916780D01*
Y-896780D01*
X266035Y-896015D01*
X265270Y-895698D01*
D02*
G37*
G36*
X116459Y-889949D02*
X116459Y-889950D01*
X107061D01*
X106296Y-890267D01*
X101597Y-894966D01*
X101597Y-894966D01*
X101279Y-895731D01*
X101280Y-895731D01*
Y-905129D01*
X101597Y-905894D01*
X106295Y-910593D01*
X106296Y-910593D01*
X107061Y-910910D01*
X107061Y-910910D01*
X116459D01*
X117224Y-910593D01*
X121923Y-905894D01*
X121923Y-905894D01*
X122240Y-905129D01*
X122240Y-905129D01*
Y-895731D01*
X121923Y-894966D01*
X117224Y-890267D01*
Y-890267D01*
X116459Y-889949D01*
D02*
G37*
G36*
X222770Y-894461D02*
X221996Y-894563D01*
X218946Y-895826D01*
X216326Y-897836D01*
X214316Y-900456D01*
X213053Y-903506D01*
X212951Y-904280D01*
X222770D01*
Y-894461D01*
D02*
G37*
G36*
X372209Y-909280D02*
X362390D01*
Y-919099D01*
X363164Y-918997D01*
X366214Y-917734D01*
X368834Y-915724D01*
X370844Y-913104D01*
X372107Y-910054D01*
X372209Y-909280D01*
D02*
G37*
G36*
X719410Y-917905D02*
X719358Y-917927D01*
X719304Y-917910D01*
X716363Y-918200D01*
X716266Y-918252D01*
X716155Y-918241D01*
X713328Y-919099D01*
X713242Y-919169D01*
X713132Y-919180D01*
X710526Y-920573D01*
X710456Y-920659D01*
X710350Y-920691D01*
X708065Y-922566D01*
X708013Y-922663D01*
X707915Y-922716D01*
X706041Y-925000D01*
X706009Y-925106D01*
X705923Y-925176D01*
X704530Y-927782D01*
X704519Y-927892D01*
X704449Y-927978D01*
X703591Y-930805D01*
X703602Y-930916D01*
X703550Y-931013D01*
X703260Y-933954D01*
X703292Y-934060D01*
X703260Y-934166D01*
X703550Y-937107D01*
X703602Y-937205D01*
X703591Y-937315D01*
X704449Y-940142D01*
X704519Y-940228D01*
X704530Y-940338D01*
X705923Y-942944D01*
X706009Y-943015D01*
X706041Y-943121D01*
X707915Y-945405D01*
X708013Y-945457D01*
X708065Y-945555D01*
X710350Y-947429D01*
X710456Y-947461D01*
X710526Y-947547D01*
X713132Y-948940D01*
X713242Y-948951D01*
X713328Y-949021D01*
X716155Y-949879D01*
X716266Y-949868D01*
X716363Y-949920D01*
X719304Y-950210D01*
X719358Y-950193D01*
X719410Y-950215D01*
X719462Y-950193D01*
X719516Y-950210D01*
X722457Y-949920D01*
X722554Y-949868D01*
X722665Y-949879D01*
X725492Y-949021D01*
X725578Y-948951D01*
X725688Y-948940D01*
X728294Y-947547D01*
X728364Y-947461D01*
X728471Y-947429D01*
X730755Y-945555D01*
X730807Y-945457D01*
X730905Y-945405D01*
X732779Y-943121D01*
X732811Y-943015D01*
X732897Y-942944D01*
X734290Y-940338D01*
X734301Y-940228D01*
X734371Y-940142D01*
X735229Y-937315D01*
X735218Y-937205D01*
X735270Y-937107D01*
X735560Y-934166D01*
X735528Y-934060D01*
X735560Y-933954D01*
X735270Y-931013D01*
X735218Y-930916D01*
X735229Y-930805D01*
X734371Y-927978D01*
X734301Y-927892D01*
X734290Y-927782D01*
X732897Y-925176D01*
X732811Y-925106D01*
X732779Y-925000D01*
X730905Y-922716D01*
X730807Y-922663D01*
X730755Y-922566D01*
X728471Y-920691D01*
X728364Y-920659D01*
X728294Y-920573D01*
X725688Y-919180D01*
X725578Y-919169D01*
X725492Y-919099D01*
X722665Y-918241D01*
X722554Y-918252D01*
X722457Y-918200D01*
X719516Y-917910D01*
X719462Y-917927D01*
X719410Y-917905D01*
D02*
G37*
G36*
X822280D02*
X822228Y-917927D01*
X822174Y-917910D01*
X819233Y-918200D01*
X819136Y-918252D01*
X819025Y-918241D01*
X816198Y-919099D01*
X816112Y-919169D01*
X816002Y-919180D01*
X813396Y-920573D01*
X813326Y-920659D01*
X813220Y-920691D01*
X810935Y-922566D01*
X810883Y-922663D01*
X810785Y-922716D01*
X808911Y-925000D01*
X808879Y-925106D01*
X808793Y-925176D01*
X807400Y-927782D01*
X807389Y-927892D01*
X807319Y-927978D01*
X806461Y-930805D01*
X806472Y-930916D01*
X806420Y-931013D01*
X806130Y-933954D01*
X806162Y-934060D01*
X806130Y-934166D01*
X806420Y-937107D01*
X806472Y-937205D01*
X806461Y-937315D01*
X807319Y-940142D01*
X807389Y-940228D01*
X807400Y-940338D01*
X808793Y-942944D01*
X808879Y-943015D01*
X808911Y-943121D01*
X810785Y-945405D01*
X810883Y-945457D01*
X810935Y-945555D01*
X813220Y-947429D01*
X813326Y-947461D01*
X813396Y-947547D01*
X816002Y-948940D01*
X816112Y-948951D01*
X816198Y-949021D01*
X819025Y-949879D01*
X819136Y-949868D01*
X819233Y-949920D01*
X822174Y-950210D01*
X822228Y-950193D01*
X822280Y-950215D01*
X822332Y-950193D01*
X822386Y-950210D01*
X825327Y-949920D01*
X825424Y-949868D01*
X825535Y-949879D01*
X828362Y-949021D01*
X828448Y-948951D01*
X828558Y-948940D01*
X831164Y-947547D01*
X831235Y-947461D01*
X831341Y-947429D01*
X833625Y-945555D01*
X833677Y-945457D01*
X833775Y-945405D01*
X835649Y-943121D01*
X835681Y-943015D01*
X835767Y-942944D01*
X837160Y-940338D01*
X837171Y-940228D01*
X837241Y-940142D01*
X838099Y-937315D01*
X838088Y-937205D01*
X838140Y-937107D01*
X838430Y-934166D01*
X838398Y-934060D01*
X838430Y-933954D01*
X838140Y-931013D01*
X838088Y-930916D01*
X838099Y-930805D01*
X837241Y-927978D01*
X837171Y-927892D01*
X837160Y-927782D01*
X835767Y-925176D01*
X835681Y-925106D01*
X835649Y-925000D01*
X833775Y-922716D01*
X833677Y-922663D01*
X833625Y-922566D01*
X831341Y-920691D01*
X831235Y-920659D01*
X831164Y-920573D01*
X828558Y-919180D01*
X828448Y-919169D01*
X828362Y-919099D01*
X825535Y-918241D01*
X825424Y-918252D01*
X825327Y-918200D01*
X822386Y-917910D01*
X822332Y-917927D01*
X822280Y-917905D01*
D02*
G37*
G36*
X116459Y-915350D02*
X116459Y-915350D01*
X107061D01*
X106296Y-915667D01*
X101597Y-920366D01*
X101597Y-920366D01*
X101279Y-921131D01*
X101280Y-921131D01*
Y-930529D01*
X101597Y-931294D01*
X106295Y-935993D01*
X106296Y-935993D01*
X107061Y-936311D01*
X107061Y-936310D01*
X116459D01*
X117224Y-935993D01*
X121923Y-931294D01*
X121923Y-931294D01*
X122240Y-930529D01*
X122240Y-930529D01*
Y-921131D01*
X121923Y-920366D01*
X117224Y-915667D01*
Y-915667D01*
X116459Y-915350D01*
D02*
G37*
G36*
X82444Y-952500D02*
X52500D01*
Y-982444D01*
X55106Y-982239D01*
X60086Y-981043D01*
X64819Y-979083D01*
X69186Y-976407D01*
X73080Y-973080D01*
X76407Y-969186D01*
X79083Y-964818D01*
X81043Y-960087D01*
X82239Y-955106D01*
X82444Y-952500D01*
D02*
G37*
G36*
X1450000Y-918904D02*
X1445135Y-919287D01*
X1440391Y-920426D01*
X1435883Y-922293D01*
X1431722Y-924843D01*
X1428012Y-928012D01*
X1424843Y-931722D01*
X1422293Y-935883D01*
X1420426Y-940391D01*
X1419287Y-945135D01*
X1418904Y-950000D01*
X1419287Y-954865D01*
X1420426Y-959609D01*
X1422293Y-964117D01*
X1424843Y-968278D01*
X1428012Y-971988D01*
X1431722Y-975157D01*
X1435883Y-977707D01*
X1440391Y-979574D01*
X1445135Y-980713D01*
X1450000Y-981096D01*
X1454865Y-980713D01*
X1459609Y-979574D01*
X1464117Y-977707D01*
X1468278Y-975157D01*
X1471988Y-971988D01*
X1475157Y-968278D01*
X1477707Y-964117D01*
X1479574Y-959609D01*
X1480713Y-954865D01*
X1481096Y-950000D01*
X1480713Y-945135D01*
X1479574Y-940391D01*
X1477707Y-935883D01*
X1475157Y-931722D01*
X1471988Y-928012D01*
X1468278Y-924843D01*
X1464117Y-922293D01*
X1459609Y-920426D01*
X1454865Y-919287D01*
X1450000Y-918904D01*
D02*
G37*
G36*
X329890Y-895685D02*
X327019Y-896063D01*
X324343Y-897171D01*
X322045Y-898935D01*
X320282Y-901233D01*
X319173Y-903908D01*
X318795Y-906780D01*
X319173Y-909652D01*
X320282Y-912327D01*
X322045Y-914625D01*
X322116Y-914680D01*
X322414Y-915016D01*
X322680Y-915407D01*
X322926Y-915876D01*
X323149Y-916428D01*
X323344Y-917061D01*
X323507Y-917777D01*
X323635Y-918561D01*
X323773Y-920226D01*
Y-933766D01*
X283216Y-974323D01*
X212084D01*
X201388Y-963626D01*
Y-920547D01*
X201430Y-919440D01*
X201523Y-918574D01*
X201653Y-917777D01*
X201817Y-917061D01*
X202011Y-916428D01*
X202234Y-915876D01*
X202480Y-915407D01*
X202746Y-915016D01*
X203044Y-914680D01*
X203115Y-914625D01*
X204879Y-912327D01*
X205987Y-909652D01*
X206365Y-906780D01*
X205987Y-903908D01*
X204879Y-901233D01*
X203115Y-898935D01*
X200818Y-897171D01*
X198142Y-896063D01*
X195270Y-895685D01*
X192398Y-896063D01*
X189723Y-897171D01*
X187425Y-898935D01*
X185662Y-901233D01*
X184553Y-903908D01*
X184175Y-906780D01*
X184553Y-909652D01*
X185662Y-912327D01*
X187425Y-914625D01*
X187496Y-914680D01*
X187794Y-915016D01*
X188060Y-915407D01*
X188307Y-915876D01*
X188529Y-916428D01*
X188724Y-917061D01*
X188887Y-917777D01*
X189015Y-918561D01*
X189153Y-920226D01*
Y-966160D01*
X189618Y-968501D01*
X190944Y-970486D01*
X205224Y-984766D01*
X207209Y-986092D01*
X209550Y-986557D01*
X285750D01*
X288091Y-986092D01*
X290076Y-984766D01*
X334216Y-940626D01*
X335542Y-938641D01*
X336008Y-936300D01*
Y-920547D01*
X336050Y-919440D01*
X336143Y-918574D01*
X336273Y-917777D01*
X336437Y-917061D01*
X336631Y-916428D01*
X336854Y-915876D01*
X337100Y-915407D01*
X337366Y-915016D01*
X337664Y-914680D01*
X337735Y-914625D01*
X339499Y-912327D01*
X340607Y-909652D01*
X340985Y-906780D01*
X340607Y-903908D01*
X339499Y-901233D01*
X337735Y-898935D01*
X335438Y-897171D01*
X332762Y-896063D01*
X329890Y-895685D01*
D02*
G37*
G36*
X109260Y-979130D02*
X99772D01*
Y-981329D01*
X99969Y-982320D01*
X100531Y-983160D01*
X105230Y-987859D01*
X106070Y-988421D01*
X107061Y-988618D01*
X109260D01*
Y-979130D01*
D02*
G37*
G36*
X123748D02*
X114260D01*
Y-988618D01*
X116459D01*
X117450Y-988421D01*
X118290Y-987859D01*
X122989Y-983160D01*
X123551Y-982320D01*
X123748Y-981329D01*
Y-979130D01*
D02*
G37*
G36*
X47500Y-952500D02*
X17556D01*
X17761Y-955106D01*
X18957Y-960087D01*
X20917Y-964818D01*
X23593Y-969186D01*
X26920Y-973080D01*
X30814Y-976407D01*
X35182Y-979083D01*
X39913Y-981043D01*
X44894Y-982239D01*
X47500Y-982444D01*
Y-952500D01*
D02*
G37*
G36*
X109260Y-964642D02*
X107061D01*
X106070Y-964839D01*
X105230Y-965401D01*
X100531Y-970100D01*
X99969Y-970940D01*
X99772Y-971931D01*
Y-974130D01*
X109260D01*
Y-964642D01*
D02*
G37*
G36*
X740410Y-792444D02*
X736886Y-792908D01*
X733602Y-794268D01*
X730782Y-796432D01*
X728618Y-799252D01*
X727258Y-802536D01*
X726794Y-806060D01*
X727258Y-809584D01*
X728618Y-812868D01*
X730782Y-815688D01*
X733602Y-817852D01*
X736886Y-819213D01*
X740410Y-819677D01*
X743934Y-819213D01*
X744625Y-818926D01*
X760604Y-834906D01*
X762589Y-836232D01*
X764930Y-836697D01*
X862336D01*
X870182Y-844544D01*
Y-878840D01*
X870648Y-881181D01*
X871974Y-883166D01*
X887214Y-898406D01*
X889199Y-899732D01*
X891540Y-900198D01*
X1056646D01*
X1079733Y-923284D01*
Y-949960D01*
X1080198Y-952301D01*
X1081524Y-954286D01*
X1083509Y-955612D01*
X1085850Y-956077D01*
X1088191Y-955612D01*
X1090176Y-954286D01*
X1091502Y-952301D01*
X1091967Y-949960D01*
Y-920750D01*
X1091502Y-918409D01*
X1090176Y-916424D01*
X1063506Y-889754D01*
X1061521Y-888428D01*
X1059180Y-887962D01*
X894074D01*
X882418Y-876306D01*
Y-842010D01*
X881952Y-839669D01*
X880626Y-837684D01*
X869196Y-826254D01*
X867211Y-824928D01*
X864870Y-824463D01*
X767464D01*
X753276Y-810275D01*
X753562Y-809584D01*
X754026Y-806060D01*
X753562Y-802536D01*
X752202Y-799252D01*
X750038Y-796432D01*
X747218Y-794268D01*
X743934Y-792908D01*
X740410Y-792444D01*
D02*
G37*
G36*
X47500Y-917556D02*
X44894Y-917761D01*
X39913Y-918957D01*
X35182Y-920917D01*
X30814Y-923593D01*
X26920Y-926920D01*
X23593Y-930814D01*
X20917Y-935182D01*
X18957Y-939913D01*
X17761Y-944894D01*
X17556Y-947500D01*
X47500D01*
Y-917556D01*
D02*
G37*
G36*
X52500D02*
Y-947500D01*
X82444D01*
X82239Y-944894D01*
X81043Y-939913D01*
X79083Y-935182D01*
X76407Y-930814D01*
X73080Y-926920D01*
X69186Y-923593D01*
X64819Y-920917D01*
X60086Y-918957D01*
X55106Y-917761D01*
X52500Y-917556D01*
D02*
G37*
G36*
X116459Y-964642D02*
X114260D01*
Y-974130D01*
X123748D01*
Y-971931D01*
X123551Y-970940D01*
X122989Y-970100D01*
X118290Y-965401D01*
X117450Y-964839D01*
X116459Y-964642D01*
D02*
G37*
G36*
X1377950Y-603585D02*
X1375078Y-603963D01*
X1372402Y-605071D01*
X1370105Y-606835D01*
X1338355Y-638585D01*
X1336591Y-640882D01*
X1335483Y-643558D01*
X1335105Y-646430D01*
Y-944094D01*
X1306044Y-973155D01*
X409726D01*
X400985Y-964414D01*
Y-906780D01*
X400972Y-906685D01*
Y-896780D01*
X400655Y-896015D01*
X399890Y-895698D01*
X389985D01*
X389890Y-895685D01*
X389795Y-895698D01*
X379890D01*
X379125Y-896015D01*
X378808Y-896780D01*
Y-906685D01*
X378795Y-906780D01*
Y-969010D01*
X379173Y-971882D01*
X380281Y-974557D01*
X382045Y-976855D01*
X397285Y-992095D01*
X399582Y-993858D01*
X402258Y-994967D01*
X405130Y-995345D01*
X1310640D01*
X1313512Y-994967D01*
X1316187Y-993858D01*
X1318485Y-992095D01*
X1354045Y-956535D01*
X1355809Y-954238D01*
X1356917Y-951562D01*
X1357295Y-948690D01*
Y-651026D01*
X1385795Y-622525D01*
X1387558Y-620228D01*
X1388667Y-617552D01*
X1389045Y-614680D01*
X1388667Y-611808D01*
X1387558Y-609132D01*
X1385795Y-606835D01*
X1383497Y-605071D01*
X1380822Y-603963D01*
X1377950Y-603585D01*
D02*
G37*
G36*
X116459Y-940750D02*
X116459Y-940750D01*
X107061D01*
X106296Y-941067D01*
X101597Y-945766D01*
X101597Y-945766D01*
X101279Y-946531D01*
X101280Y-946531D01*
Y-955929D01*
X101597Y-956694D01*
X106295Y-961393D01*
X106296Y-961393D01*
X107061Y-961711D01*
X107061Y-961710D01*
X116459D01*
X117224Y-961393D01*
X121923Y-956694D01*
X121923Y-956694D01*
X122240Y-955929D01*
X122240Y-955929D01*
Y-946531D01*
X121923Y-945766D01*
X117224Y-941067D01*
Y-941067D01*
X116459Y-940750D01*
D02*
G37*
G36*
X227770Y-894461D02*
Y-904280D01*
X237589D01*
X237487Y-903506D01*
X236224Y-900456D01*
X234214Y-897836D01*
X231594Y-895826D01*
X228544Y-894563D01*
X227770Y-894461D01*
D02*
G37*
G36*
X192770Y-864461D02*
X191996Y-864563D01*
X188946Y-865826D01*
X186327Y-867836D01*
X184317Y-870456D01*
X183053Y-873506D01*
X182951Y-874280D01*
X192770D01*
Y-864461D01*
D02*
G37*
G36*
X197770D02*
Y-874280D01*
X207589D01*
X207487Y-873506D01*
X206224Y-870456D01*
X204214Y-867836D01*
X201594Y-865826D01*
X198544Y-864563D01*
X197770Y-864461D01*
D02*
G37*
G36*
X1408470Y-859842D02*
X1400970D01*
X1397696Y-860273D01*
X1394646Y-861536D01*
X1392026Y-863546D01*
X1390016Y-866166D01*
X1388753Y-869216D01*
X1388651Y-869990D01*
X1408470D01*
Y-859842D01*
D02*
G37*
G36*
X710910Y-847478D02*
X685910D01*
X685145Y-847795D01*
X684828Y-848560D01*
Y-873560D01*
X685145Y-874325D01*
X685910Y-874642D01*
X710910D01*
X711675Y-874325D01*
X711992Y-873560D01*
Y-848560D01*
X711675Y-847795D01*
X710910Y-847478D01*
D02*
G37*
G36*
X752910D02*
X727910D01*
X727145Y-847795D01*
X726828Y-848560D01*
Y-873560D01*
X727145Y-874325D01*
X727910Y-874642D01*
X752910D01*
X753675Y-874325D01*
X753992Y-873560D01*
Y-848560D01*
X753675Y-847795D01*
X752910Y-847478D01*
D02*
G37*
G36*
X855780D02*
X830780D01*
X830015Y-847795D01*
X829698Y-848560D01*
Y-873560D01*
X830015Y-874325D01*
X830780Y-874642D01*
X855780D01*
X856545Y-874325D01*
X856862Y-873560D01*
Y-848560D01*
X856545Y-847795D01*
X855780Y-847478D01*
D02*
G37*
G36*
X1420970Y-859842D02*
X1413470D01*
Y-869990D01*
X1433289D01*
X1433187Y-869216D01*
X1431924Y-866166D01*
X1429914Y-863546D01*
X1427294Y-861536D01*
X1424244Y-860273D01*
X1420970Y-859842D01*
D02*
G37*
G36*
X116459Y-839149D02*
X116459Y-839149D01*
X107061D01*
X106296Y-839466D01*
X101597Y-844165D01*
X101597Y-844165D01*
X101279Y-844931D01*
X101280Y-844931D01*
Y-854329D01*
X101597Y-855094D01*
X106295Y-859793D01*
X106296Y-859793D01*
X107061Y-860110D01*
X107061Y-860110D01*
X116459D01*
X117224Y-859793D01*
X121923Y-855094D01*
X121923Y-855094D01*
X122240Y-854329D01*
X122240Y-854329D01*
Y-844931D01*
X121923Y-844165D01*
X117224Y-839466D01*
Y-839466D01*
X116459Y-839149D01*
D02*
G37*
G36*
X534670Y-831582D02*
X533109Y-831892D01*
X531786Y-832776D01*
X530902Y-834099D01*
X530592Y-835660D01*
X530902Y-837221D01*
X531786Y-838544D01*
X533109Y-839428D01*
X534670Y-839738D01*
X535342Y-839605D01*
X547003Y-851267D01*
X547754Y-851768D01*
X548640Y-851945D01*
X551726D01*
X552106Y-852514D01*
X553429Y-853398D01*
X554990Y-853708D01*
X556551Y-853398D01*
X557874Y-852514D01*
X558758Y-851191D01*
X559068Y-849630D01*
X558758Y-848069D01*
X557874Y-846746D01*
X556551Y-845862D01*
X554990Y-845552D01*
X553429Y-845862D01*
X552106Y-846746D01*
X551981Y-846934D01*
X549377Y-847094D01*
X538615Y-836332D01*
X538748Y-835660D01*
X538438Y-834099D01*
X537554Y-832776D01*
X536231Y-831892D01*
X534670Y-831582D01*
D02*
G37*
G36*
X1127760Y-759795D02*
X1109980D01*
X1107108Y-760173D01*
X1104433Y-761282D01*
X1102135Y-763045D01*
X1082524Y-782655D01*
X984250D01*
X981378Y-783033D01*
X978702Y-784141D01*
X976405Y-785905D01*
X962435Y-799875D01*
X960671Y-802172D01*
X959563Y-804848D01*
X959185Y-807720D01*
Y-832334D01*
X941554Y-849965D01*
X919092D01*
Y-848560D01*
X918775Y-847795D01*
X918010Y-847478D01*
X893010D01*
X892245Y-847795D01*
X891928Y-848560D01*
Y-873560D01*
X892245Y-874325D01*
X893010Y-874642D01*
X918010D01*
X918775Y-874325D01*
X919092Y-873560D01*
Y-872155D01*
X946150D01*
X949022Y-871777D01*
X951697Y-870668D01*
X953995Y-868905D01*
X978125Y-844775D01*
X979889Y-842477D01*
X980997Y-839802D01*
X981375Y-836930D01*
Y-812316D01*
X988846Y-804845D01*
X1087120D01*
X1089992Y-804467D01*
X1092667Y-803359D01*
X1094965Y-801595D01*
X1114576Y-781985D01*
X1127760D01*
X1130632Y-781607D01*
X1133307Y-780499D01*
X1135605Y-778735D01*
X1137368Y-776438D01*
X1138477Y-773762D01*
X1138855Y-770890D01*
X1138477Y-768018D01*
X1137368Y-765342D01*
X1135605Y-763045D01*
X1133307Y-761282D01*
X1130632Y-760173D01*
X1127760Y-759795D01*
D02*
G37*
G36*
X1459470Y-859842D02*
X1451970D01*
X1448696Y-860273D01*
X1445646Y-861536D01*
X1443026Y-863546D01*
X1441016Y-866166D01*
X1439753Y-869216D01*
X1439651Y-869990D01*
X1459470D01*
Y-859842D01*
D02*
G37*
G36*
X1471970D02*
X1464470D01*
Y-869990D01*
X1484289D01*
X1484187Y-869216D01*
X1482924Y-866166D01*
X1480914Y-863546D01*
X1478294Y-861536D01*
X1475244Y-860273D01*
X1471970Y-859842D01*
D02*
G37*
G36*
X998220Y-822692D02*
X996659Y-823002D01*
X995336Y-823886D01*
X994452Y-825209D01*
X994142Y-826770D01*
X994452Y-828331D01*
X994651Y-828629D01*
Y-863011D01*
X994452Y-863309D01*
X994142Y-864870D01*
X994452Y-866431D01*
X995336Y-867754D01*
X996659Y-868638D01*
X998220Y-868948D01*
X999781Y-868638D01*
X1001104Y-867754D01*
X1001988Y-866431D01*
X1002298Y-864870D01*
X1001988Y-863309D01*
X1001789Y-863011D01*
Y-828629D01*
X1001988Y-828331D01*
X1002298Y-826770D01*
X1001988Y-825209D01*
X1001104Y-823886D01*
X999781Y-823002D01*
X998220Y-822692D01*
D02*
G37*
G36*
X1484289Y-874990D02*
X1464470D01*
Y-885138D01*
X1471970D01*
X1475244Y-884707D01*
X1478294Y-883444D01*
X1480914Y-881434D01*
X1482924Y-878814D01*
X1484187Y-875764D01*
X1484289Y-874990D01*
D02*
G37*
G36*
X207589Y-879280D02*
X197770D01*
Y-889099D01*
X198544Y-888997D01*
X201594Y-887734D01*
X204214Y-885724D01*
X206224Y-883104D01*
X207487Y-880054D01*
X207589Y-879280D01*
D02*
G37*
G36*
X327390D02*
X317571D01*
X317673Y-880054D01*
X318937Y-883104D01*
X320947Y-885724D01*
X323566Y-887734D01*
X326617Y-888997D01*
X327390Y-889099D01*
Y-879280D01*
D02*
G37*
G36*
X342209D02*
X332390D01*
Y-889099D01*
X333164Y-888997D01*
X336214Y-887734D01*
X338834Y-885724D01*
X340844Y-883104D01*
X342107Y-880054D01*
X342209Y-879280D01*
D02*
G37*
G36*
X357390Y-894461D02*
X356617Y-894563D01*
X353566Y-895826D01*
X350946Y-897836D01*
X348936Y-900456D01*
X347673Y-903506D01*
X347571Y-904280D01*
X357390D01*
Y-894461D01*
D02*
G37*
G36*
X362390D02*
Y-904280D01*
X372209D01*
X372107Y-903506D01*
X370844Y-900456D01*
X368834Y-897836D01*
X366214Y-895826D01*
X363164Y-894563D01*
X362390Y-894461D01*
D02*
G37*
G36*
X192770Y-879280D02*
X182951D01*
X183053Y-880054D01*
X184317Y-883104D01*
X186327Y-885724D01*
X188946Y-887734D01*
X191996Y-888997D01*
X192770Y-889099D01*
Y-879280D01*
D02*
G37*
G36*
X225270Y-865685D02*
X222398Y-866063D01*
X219723Y-867172D01*
X217425Y-868935D01*
X215662Y-871233D01*
X214553Y-873908D01*
X214175Y-876780D01*
X214553Y-879652D01*
X215662Y-882327D01*
X217425Y-884625D01*
X219723Y-886388D01*
X222398Y-887497D01*
X225270Y-887875D01*
X228142Y-887497D01*
X230818Y-886388D01*
X233115Y-884625D01*
X234879Y-882327D01*
X235987Y-879652D01*
X236365Y-876780D01*
X235987Y-873908D01*
X234879Y-871233D01*
X233115Y-868935D01*
X230818Y-867172D01*
X228142Y-866063D01*
X225270Y-865685D01*
D02*
G37*
G36*
X1408470Y-874990D02*
X1388651D01*
X1388753Y-875764D01*
X1390016Y-878814D01*
X1392026Y-881434D01*
X1394646Y-883444D01*
X1397696Y-884707D01*
X1400970Y-885138D01*
X1408470D01*
Y-874990D01*
D02*
G37*
G36*
X1433289D02*
X1413470D01*
Y-885138D01*
X1420970D01*
X1424244Y-884707D01*
X1427294Y-883444D01*
X1429914Y-881434D01*
X1431924Y-878814D01*
X1433187Y-875764D01*
X1433289Y-874990D01*
D02*
G37*
G36*
X1459470D02*
X1439651D01*
X1439753Y-875764D01*
X1441016Y-878814D01*
X1443026Y-881434D01*
X1445646Y-883444D01*
X1448696Y-884707D01*
X1451970Y-885138D01*
X1459470D01*
Y-874990D01*
D02*
G37*
G36*
X359890Y-865685D02*
X357019Y-866063D01*
X354343Y-867172D01*
X352045Y-868935D01*
X350282Y-871233D01*
X349173Y-873908D01*
X348795Y-876780D01*
X349173Y-879652D01*
X350282Y-882327D01*
X352045Y-884625D01*
X354343Y-886388D01*
X357019Y-887497D01*
X359890Y-887875D01*
X362762Y-887497D01*
X365438Y-886388D01*
X367735Y-884625D01*
X369498Y-882327D01*
X370607Y-879652D01*
X370985Y-876780D01*
X370607Y-873908D01*
X369498Y-871233D01*
X367735Y-868935D01*
X365438Y-867172D01*
X362762Y-866063D01*
X359890Y-865685D01*
D02*
G37*
G36*
X269240Y-844282D02*
X267679Y-844592D01*
X266356Y-845476D01*
X265472Y-846799D01*
X265162Y-848360D01*
X265472Y-849921D01*
X265671Y-850219D01*
Y-854951D01*
X262890D01*
X261524Y-855223D01*
X260367Y-855997D01*
X252747Y-863617D01*
X251973Y-864774D01*
X251701Y-866140D01*
Y-866352D01*
X249722Y-867172D01*
X247425Y-868935D01*
X245662Y-871233D01*
X244553Y-873908D01*
X244175Y-876780D01*
X244553Y-879652D01*
X245662Y-882327D01*
X247425Y-884625D01*
X249722Y-886388D01*
X252398Y-887497D01*
X255270Y-887875D01*
X258142Y-887497D01*
X260818Y-886388D01*
X263115Y-884625D01*
X264879Y-882327D01*
X265987Y-879652D01*
X266365Y-876780D01*
X265987Y-873908D01*
X264879Y-871233D01*
X263115Y-868935D01*
X261983Y-868066D01*
X261525Y-864932D01*
X264368Y-862089D01*
X326209D01*
X326617Y-864563D01*
X323566Y-865826D01*
X320947Y-867836D01*
X318937Y-870456D01*
X317673Y-873506D01*
X317571Y-874280D01*
X342209D01*
X342107Y-873506D01*
X340844Y-870456D01*
X338834Y-867836D01*
X336214Y-865826D01*
X333164Y-864563D01*
X333571Y-862089D01*
X378252D01*
X380423Y-864259D01*
X380432Y-864286D01*
X381003Y-864921D01*
X381412Y-865503D01*
X381704Y-866071D01*
X381888Y-866628D01*
X381974Y-867182D01*
X381966Y-867750D01*
X381859Y-868344D01*
X381646Y-868973D01*
X381318Y-869640D01*
X380839Y-870387D01*
X380811Y-870542D01*
X380281Y-871233D01*
X379173Y-873908D01*
X378795Y-876780D01*
X379173Y-879652D01*
X380281Y-882327D01*
X382045Y-884625D01*
X384342Y-886388D01*
X387018Y-887497D01*
X389890Y-887875D01*
X392762Y-887497D01*
X395438Y-886388D01*
X397735Y-884625D01*
X399498Y-882327D01*
X400607Y-879652D01*
X400985Y-876780D01*
X400607Y-873908D01*
X399498Y-871233D01*
X397735Y-868935D01*
X395438Y-867172D01*
X395357Y-867138D01*
X394512Y-866635D01*
X391750Y-864766D01*
X390877Y-864103D01*
X387294Y-860999D01*
X386425Y-860149D01*
X386393Y-860136D01*
X382253Y-855997D01*
X381096Y-855223D01*
X379730Y-854951D01*
X272809D01*
Y-850219D01*
X273008Y-849921D01*
X273318Y-848360D01*
X273008Y-846799D01*
X272124Y-845476D01*
X270801Y-844592D01*
X269240Y-844282D01*
D02*
G37*
G36*
X116459Y-864549D02*
X116459Y-864550D01*
X107061D01*
X106296Y-864867D01*
X101597Y-869566D01*
X101597Y-869566D01*
X101279Y-870331D01*
X101280Y-870331D01*
Y-879729D01*
X101597Y-880494D01*
X106295Y-885193D01*
X106296Y-885193D01*
X107061Y-885510D01*
X107061Y-885510D01*
X116459D01*
X117224Y-885193D01*
X121923Y-880495D01*
X121923Y-880494D01*
X122240Y-879729D01*
X122240Y-879729D01*
Y-870331D01*
X121923Y-869566D01*
X117224Y-864867D01*
Y-864867D01*
X116459Y-864549D01*
D02*
G37*
G36*
X196850Y-677607D02*
X194401Y-677930D01*
X192118Y-678875D01*
X190159Y-680379D01*
X188655Y-682338D01*
X187710Y-684621D01*
X187387Y-687070D01*
X187710Y-689519D01*
X188655Y-691802D01*
X190159Y-693761D01*
X192118Y-695265D01*
X194401Y-696210D01*
X196850Y-696533D01*
X199299Y-696210D01*
X201581Y-695265D01*
X203541Y-693761D01*
X205045Y-691802D01*
X205991Y-689519D01*
X206313Y-687070D01*
X205991Y-684621D01*
X205045Y-682338D01*
X203541Y-680379D01*
X201581Y-678875D01*
X199299Y-677930D01*
X196850Y-677607D01*
D02*
G37*
G36*
X49449Y-534350D02*
X49449Y-534350D01*
X40051D01*
X39286Y-534667D01*
X34587Y-539366D01*
X34587Y-539366D01*
X34269Y-540131D01*
X34270Y-540131D01*
Y-549529D01*
X34587Y-550294D01*
X39286Y-554993D01*
X39286Y-554993D01*
X40051Y-555311D01*
X40051Y-555310D01*
X49449D01*
X50214Y-554993D01*
X54913Y-550294D01*
X54913Y-550294D01*
X55230Y-549529D01*
X55230Y-549529D01*
Y-540131D01*
X54913Y-539366D01*
X50214Y-534667D01*
Y-534667D01*
X49449Y-534350D01*
D02*
G37*
G36*
X74849D02*
X74849Y-534350D01*
X65451D01*
X64686Y-534667D01*
X59987Y-539366D01*
X59987Y-539366D01*
X59670Y-540131D01*
X59670Y-540131D01*
Y-549529D01*
X59987Y-550294D01*
X64686Y-554993D01*
X64686Y-554993D01*
X65451Y-555311D01*
X65451Y-555310D01*
X74849D01*
X75615Y-554993D01*
X80314Y-550294D01*
X80314Y-550294D01*
X80631Y-549529D01*
X80631Y-549529D01*
Y-540131D01*
X80314Y-539366D01*
X75615Y-534667D01*
Y-534667D01*
X74849Y-534350D01*
D02*
G37*
G36*
X774700Y-389622D02*
X773139Y-389932D01*
X771816Y-390816D01*
X770932Y-392139D01*
X770622Y-393700D01*
X770932Y-395261D01*
X771816Y-396584D01*
X773139Y-397468D01*
X774700Y-397778D01*
X776261Y-397468D01*
X777584Y-396584D01*
X778468Y-395261D01*
X778778Y-393700D01*
X778468Y-392139D01*
X777584Y-390816D01*
X776261Y-389932D01*
X774700Y-389622D01*
D02*
G37*
G36*
X472860Y-558220D02*
X469860D01*
Y-563810D01*
X475450D01*
Y-560810D01*
X475253Y-559819D01*
X474691Y-558979D01*
X473851Y-558417D01*
X472860Y-558220D01*
D02*
G37*
G36*
X161290Y-548372D02*
X159729Y-548682D01*
X158406Y-549566D01*
X157522Y-550889D01*
X157212Y-552450D01*
X155135Y-554527D01*
X153574Y-554837D01*
X152251Y-555721D01*
X151725Y-556509D01*
X151295Y-557060D01*
X148881Y-557572D01*
X148881D01*
X148680Y-557532D01*
X147320Y-557262D01*
X145759Y-557572D01*
X144436Y-558456D01*
X143552Y-559779D01*
X143242Y-561340D01*
X143512Y-562700D01*
X143552Y-562901D01*
Y-562901D01*
X143040Y-565315D01*
X142489Y-565745D01*
X141701Y-566271D01*
X140817Y-567594D01*
X140507Y-569155D01*
X140817Y-570716D01*
X141701Y-572039D01*
X143024Y-572923D01*
X144585Y-573233D01*
X145257Y-573100D01*
X169115Y-596958D01*
X169866Y-597460D01*
X170752Y-597636D01*
X288393D01*
X294367Y-603610D01*
X295028Y-604052D01*
X295566Y-604857D01*
X296889Y-605741D01*
X298450Y-606052D01*
X300011Y-605741D01*
X301334Y-604857D01*
X302218Y-603534D01*
X302397Y-602632D01*
X304259Y-601733D01*
X304989Y-601632D01*
X306973Y-603617D01*
X307724Y-604118D01*
X308610Y-604295D01*
X309156D01*
X309536Y-604864D01*
X310859Y-605748D01*
X312420Y-606058D01*
X313981Y-605748D01*
X315304Y-604864D01*
X316188Y-603541D01*
X316498Y-601980D01*
X316188Y-600419D01*
X315672Y-599647D01*
X315932Y-598492D01*
X316245Y-597787D01*
X316767Y-597062D01*
X317791Y-596858D01*
X319114Y-595974D01*
X319998Y-594651D01*
X320308Y-593090D01*
X319998Y-591529D01*
X319919Y-591412D01*
X320213Y-590831D01*
X321599Y-589353D01*
X322580Y-589548D01*
X324141Y-589238D01*
X325464Y-588354D01*
X326348Y-587031D01*
X326658Y-585470D01*
X326348Y-583909D01*
X325464Y-582586D01*
X324141Y-581702D01*
X322580Y-581392D01*
X321019Y-581702D01*
X319696Y-582586D01*
X319316Y-583156D01*
X312109D01*
X306474Y-577521D01*
X305723Y-577019D01*
X304837Y-576843D01*
X181336D01*
X163605Y-559111D01*
Y-555714D01*
X164174Y-555334D01*
X165058Y-554011D01*
X165368Y-552450D01*
X165058Y-550889D01*
X164174Y-549566D01*
X162851Y-548682D01*
X161290Y-548372D01*
D02*
G37*
G36*
X24049Y-534350D02*
X24049Y-534350D01*
X14651D01*
X13886Y-534667D01*
X9187Y-539366D01*
X9187Y-539366D01*
X8870Y-540131D01*
X8870Y-540131D01*
Y-549529D01*
X9187Y-550294D01*
X13886Y-554993D01*
X13886Y-554993D01*
X14651Y-555311D01*
X14651Y-555310D01*
X24049D01*
X24814Y-554993D01*
X29513Y-550294D01*
X29513Y-550294D01*
X29831Y-549529D01*
X29830Y-549529D01*
Y-540131D01*
X29513Y-539366D01*
X24814Y-534667D01*
Y-534667D01*
X24049Y-534350D01*
D02*
G37*
G36*
X514350Y-285134D02*
X509486Y-285517D01*
X504741Y-286656D01*
X500233Y-288523D01*
X496072Y-291073D01*
X492362Y-294242D01*
X489193Y-297952D01*
X486643Y-302113D01*
X484776Y-306621D01*
X483637Y-311366D01*
X483254Y-316230D01*
X483637Y-321095D01*
X484776Y-325839D01*
X486643Y-330347D01*
X489193Y-334508D01*
X492362Y-338218D01*
X496072Y-341387D01*
X500233Y-343937D01*
X504741Y-345804D01*
X509486Y-346943D01*
X514350Y-347326D01*
X519215Y-346943D01*
X523959Y-345804D01*
X528467Y-343937D01*
X532628Y-341387D01*
X536338Y-338218D01*
X539507Y-334508D01*
X542057Y-330347D01*
X543924Y-325839D01*
X545063Y-321095D01*
X545446Y-316230D01*
X545063Y-311366D01*
X543924Y-306621D01*
X542057Y-302113D01*
X539507Y-297952D01*
X536338Y-294242D01*
X532628Y-291073D01*
X528467Y-288523D01*
X523959Y-286656D01*
X519215Y-285517D01*
X514350Y-285134D01*
D02*
G37*
G36*
X760349Y-322259D02*
X760349Y-322260D01*
X750951D01*
X750186Y-322577D01*
X745487Y-327276D01*
X745487Y-327276D01*
X745170Y-328041D01*
X745170Y-328041D01*
Y-337439D01*
X745487Y-338204D01*
X750185Y-342903D01*
X750186Y-342903D01*
X750951Y-343220D01*
X750951Y-343220D01*
X760349D01*
X761114Y-342903D01*
X765813Y-338204D01*
X765813Y-338204D01*
X766131Y-337439D01*
X766130Y-337439D01*
Y-328041D01*
X765813Y-327276D01*
X761114Y-322577D01*
Y-322577D01*
X760349Y-322259D01*
D02*
G37*
G36*
X785749D02*
X785749Y-322260D01*
X776351D01*
X775586Y-322577D01*
X770887Y-327276D01*
X770887Y-327276D01*
X770570Y-328041D01*
X770570Y-328041D01*
Y-337439D01*
X770887Y-338204D01*
X775585Y-342903D01*
X775586Y-342903D01*
X776351Y-343220D01*
X776351Y-343220D01*
X785749D01*
X786514Y-342903D01*
X791213Y-338204D01*
X791213Y-338204D01*
X791531Y-337439D01*
X791530Y-337439D01*
Y-328041D01*
X791213Y-327276D01*
X786514Y-322577D01*
Y-322577D01*
X785749Y-322259D01*
D02*
G37*
G36*
X811149D02*
X811149Y-322260D01*
X801751D01*
X800986Y-322577D01*
X796287Y-327276D01*
X796287Y-327276D01*
X795969Y-328041D01*
X795970Y-328041D01*
Y-337439D01*
X796287Y-338204D01*
X800985Y-342903D01*
X800986Y-342903D01*
X801751Y-343220D01*
X801751Y-343220D01*
X811149D01*
X811914Y-342903D01*
X816613Y-338204D01*
X816613Y-338204D01*
X816930Y-337439D01*
X816930Y-337439D01*
Y-328041D01*
X816613Y-327276D01*
X811914Y-322577D01*
Y-322577D01*
X811149Y-322259D01*
D02*
G37*
G36*
X995680Y-285134D02*
X990816Y-285517D01*
X986071Y-286656D01*
X981563Y-288523D01*
X977402Y-291073D01*
X973692Y-294242D01*
X970523Y-297952D01*
X967973Y-302113D01*
X966106Y-306621D01*
X964967Y-311366D01*
X964584Y-316230D01*
X964967Y-321095D01*
X966106Y-325839D01*
X967973Y-330347D01*
X970523Y-334508D01*
X973692Y-338218D01*
X977402Y-341387D01*
X981563Y-343937D01*
X986071Y-345804D01*
X990816Y-346943D01*
X995680Y-347326D01*
X1000545Y-346943D01*
X1005289Y-345804D01*
X1009797Y-343937D01*
X1013958Y-341387D01*
X1017668Y-338218D01*
X1020837Y-334508D01*
X1023387Y-330347D01*
X1025254Y-325839D01*
X1026393Y-321095D01*
X1026776Y-316230D01*
X1026393Y-311366D01*
X1025254Y-306621D01*
X1023387Y-302113D01*
X1020837Y-297952D01*
X1017668Y-294242D01*
X1013958Y-291073D01*
X1009797Y-288523D01*
X1005289Y-286656D01*
X1000545Y-285517D01*
X995680Y-285134D01*
D02*
G37*
G36*
X709549Y-322259D02*
X709549Y-322260D01*
X700151D01*
X699385Y-322577D01*
X694687Y-327276D01*
X694686Y-327276D01*
X694369Y-328041D01*
X694369Y-328041D01*
Y-337439D01*
X694686Y-338204D01*
X699385Y-342903D01*
X699385Y-342903D01*
X700151Y-343220D01*
X700151Y-343220D01*
X709549D01*
X710314Y-342903D01*
X715013Y-338204D01*
X715013Y-338204D01*
X715330Y-337439D01*
X715330Y-337439D01*
Y-328041D01*
X715013Y-327276D01*
X710314Y-322577D01*
Y-322577D01*
X709549Y-322259D01*
D02*
G37*
G36*
X734949D02*
X734949Y-322260D01*
X725551D01*
X724786Y-322577D01*
X720087Y-327276D01*
X720087Y-327276D01*
X719770Y-328041D01*
X719770Y-328041D01*
Y-337439D01*
X720087Y-338204D01*
X724786Y-342903D01*
X724786Y-342903D01*
X725551Y-343220D01*
X725551Y-343220D01*
X734949D01*
X735714Y-342903D01*
X740413Y-338204D01*
X740413Y-338204D01*
X740731Y-337439D01*
X740730Y-337439D01*
Y-328041D01*
X740413Y-327276D01*
X735714Y-322577D01*
Y-322577D01*
X734949Y-322259D01*
D02*
G37*
G36*
X464860Y-558220D02*
X461860D01*
X460869Y-558417D01*
X460029Y-558979D01*
X459467Y-559819D01*
X459270Y-560810D01*
Y-563810D01*
X464860D01*
Y-558220D01*
D02*
G37*
G36*
X49449Y-559749D02*
X49449Y-559750D01*
X40051D01*
X39286Y-560067D01*
X34587Y-564766D01*
X34587Y-564766D01*
X34269Y-565531D01*
X34270Y-565531D01*
Y-574929D01*
X34587Y-575694D01*
X39286Y-580393D01*
X39286Y-580393D01*
X40051Y-580710D01*
X40051Y-580710D01*
X49449D01*
X50214Y-580393D01*
X54913Y-575695D01*
X54913Y-575694D01*
X55230Y-574929D01*
X55230Y-574929D01*
Y-565531D01*
X54913Y-564766D01*
X50214Y-560067D01*
Y-560067D01*
X49449Y-559749D01*
D02*
G37*
G36*
X74849D02*
X74849Y-559750D01*
X65451D01*
X64686Y-560067D01*
X59987Y-564766D01*
X59987Y-564766D01*
X59670Y-565531D01*
X59670Y-565531D01*
Y-574929D01*
X59987Y-575694D01*
X64686Y-580393D01*
X64686Y-580393D01*
X65451Y-580710D01*
X65451Y-580710D01*
X74849D01*
X75615Y-580393D01*
X80314Y-575695D01*
X80314Y-575694D01*
X80631Y-574929D01*
X80631Y-574929D01*
Y-565531D01*
X80314Y-564766D01*
X75615Y-560067D01*
Y-560067D01*
X74849Y-559749D01*
D02*
G37*
G36*
X419250Y-572730D02*
X413660D01*
Y-575730D01*
X413857Y-576721D01*
X414419Y-577561D01*
X415259Y-578123D01*
X416250Y-578320D01*
X419250D01*
Y-572730D01*
D02*
G37*
G36*
X928627Y-591780D02*
X919140D01*
Y-601268D01*
X921339D01*
X922330Y-601071D01*
X923170Y-600509D01*
X927869Y-595810D01*
X928430Y-594970D01*
X928627Y-593979D01*
Y-591780D01*
D02*
G37*
G36*
X16850Y-572730D02*
X7362D01*
Y-574929D01*
X7559Y-575920D01*
X8121Y-576760D01*
X12820Y-581459D01*
X13660Y-582021D01*
X14651Y-582218D01*
X16850D01*
Y-572730D01*
D02*
G37*
G36*
X31338D02*
X21850D01*
Y-582218D01*
X24049D01*
X25040Y-582021D01*
X25880Y-581459D01*
X30579Y-576760D01*
X31141Y-575920D01*
X31338Y-574929D01*
Y-572730D01*
D02*
G37*
G36*
X429840D02*
X424250D01*
Y-578320D01*
X427250D01*
X428241Y-578123D01*
X429081Y-577561D01*
X429643Y-576721D01*
X429840Y-575730D01*
Y-572730D01*
D02*
G37*
G36*
X419250Y-562140D02*
X416250D01*
X415259Y-562337D01*
X414419Y-562899D01*
X413857Y-563739D01*
X413660Y-564730D01*
Y-567730D01*
X419250D01*
Y-562140D01*
D02*
G37*
G36*
X427250D02*
X424250D01*
Y-567730D01*
X429840D01*
Y-564730D01*
X429643Y-563739D01*
X429081Y-562899D01*
X428241Y-562337D01*
X427250Y-562140D01*
D02*
G37*
G36*
X24049Y-558242D02*
X21850D01*
Y-567730D01*
X31338D01*
Y-565531D01*
X31141Y-564540D01*
X30579Y-563700D01*
X25880Y-559001D01*
X25040Y-558439D01*
X24049Y-558242D01*
D02*
G37*
G36*
X464860Y-568810D02*
X459270D01*
Y-571810D01*
X459467Y-572801D01*
X460029Y-573641D01*
X460869Y-574203D01*
X461860Y-574400D01*
X464860D01*
Y-568810D01*
D02*
G37*
G36*
X475450D02*
X469860D01*
Y-574400D01*
X472860D01*
X473851Y-574203D01*
X474691Y-573641D01*
X475253Y-572801D01*
X475450Y-571810D01*
Y-568810D01*
D02*
G37*
G36*
X16850Y-558242D02*
X14651D01*
X13660Y-558439D01*
X12820Y-559001D01*
X8121Y-563700D01*
X7559Y-564540D01*
X7362Y-565531D01*
Y-567730D01*
X16850D01*
Y-558242D01*
D02*
G37*
G36*
X1242949Y-293050D02*
X1242949Y-293050D01*
X1233551D01*
X1232786Y-293367D01*
X1228087Y-298065D01*
X1228087Y-298066D01*
X1227769Y-298831D01*
X1227770Y-298831D01*
Y-308229D01*
X1228087Y-308994D01*
X1232785Y-313693D01*
X1232786Y-313693D01*
X1233551Y-314011D01*
X1233551Y-314010D01*
X1242949D01*
X1243714Y-313693D01*
X1248413Y-308995D01*
X1248413Y-308994D01*
X1248730Y-308229D01*
X1248730Y-308229D01*
Y-298831D01*
X1248413Y-298066D01*
X1243714Y-293367D01*
Y-293367D01*
X1242949Y-293050D01*
D02*
G37*
G36*
X1268349D02*
X1268349Y-293050D01*
X1258951D01*
X1258186Y-293367D01*
X1253487Y-298065D01*
X1253487Y-298066D01*
X1253169Y-298831D01*
X1253170Y-298831D01*
Y-308229D01*
X1253487Y-308994D01*
X1258186Y-313693D01*
X1258186Y-313693D01*
X1258951Y-314011D01*
X1258951Y-314010D01*
X1268349D01*
X1269114Y-313693D01*
X1273813Y-308995D01*
X1273813Y-308994D01*
X1274130Y-308229D01*
X1274130Y-308229D01*
Y-298831D01*
X1273813Y-298066D01*
X1269114Y-293367D01*
Y-293367D01*
X1268349Y-293050D01*
D02*
G37*
G36*
X1293749D02*
X1293749Y-293050D01*
X1284351D01*
X1283586Y-293367D01*
X1278887Y-298065D01*
X1278887Y-298066D01*
X1278569Y-298831D01*
X1278570Y-298831D01*
Y-308229D01*
X1278887Y-308994D01*
X1283586Y-313693D01*
X1283586Y-313693D01*
X1284351Y-314011D01*
X1284351Y-314010D01*
X1293749D01*
X1294514Y-313693D01*
X1299213Y-308995D01*
X1299213Y-308994D01*
X1299530Y-308229D01*
X1299530Y-308229D01*
Y-298831D01*
X1299213Y-298066D01*
X1294514Y-293367D01*
Y-293367D01*
X1293749Y-293050D01*
D02*
G37*
G36*
X811149Y-296859D02*
X811149Y-296860D01*
X801751D01*
X800986Y-297177D01*
X796287Y-301875D01*
X796287Y-301876D01*
X795969Y-302641D01*
X795970Y-302641D01*
Y-312039D01*
X796287Y-312804D01*
X800985Y-317503D01*
X800986Y-317503D01*
X801751Y-317820D01*
X801751Y-317820D01*
X811149D01*
X811914Y-317503D01*
X816613Y-312805D01*
X816613Y-312804D01*
X816930Y-312039D01*
X816930Y-312039D01*
Y-302641D01*
X816613Y-301876D01*
X811914Y-297177D01*
Y-297177D01*
X811149Y-296859D01*
D02*
G37*
G36*
X1192149Y-293050D02*
X1192149Y-293050D01*
X1182751D01*
X1181985Y-293367D01*
X1177287Y-298065D01*
X1177286Y-298066D01*
X1176969Y-298831D01*
X1176969Y-298831D01*
Y-308229D01*
X1177286Y-308994D01*
X1181985Y-313693D01*
X1181985Y-313693D01*
X1182751Y-314011D01*
X1182751Y-314010D01*
X1192149D01*
X1192914Y-313693D01*
X1197613Y-308995D01*
X1197613Y-308994D01*
X1197930Y-308229D01*
X1197930Y-308229D01*
Y-298831D01*
X1197613Y-298066D01*
X1192914Y-293367D01*
Y-293367D01*
X1192149Y-293050D01*
D02*
G37*
G36*
X1217549D02*
X1217549Y-293050D01*
X1208151D01*
X1207386Y-293367D01*
X1202687Y-298065D01*
X1202687Y-298066D01*
X1202370Y-298831D01*
X1202370Y-298831D01*
Y-308229D01*
X1202687Y-308994D01*
X1207385Y-313693D01*
X1207386Y-313693D01*
X1208151Y-314011D01*
X1208151Y-314010D01*
X1217549D01*
X1218314Y-313693D01*
X1223013Y-308995D01*
X1223013Y-308994D01*
X1223331Y-308229D01*
X1223330Y-308229D01*
Y-298831D01*
X1223013Y-298066D01*
X1218314Y-293367D01*
Y-293367D01*
X1217549Y-293050D01*
D02*
G37*
G36*
X228219Y-287969D02*
X228219Y-287970D01*
X218821D01*
X218055Y-288287D01*
X213356Y-292985D01*
X213356Y-292986D01*
X213039Y-293751D01*
X213039Y-293751D01*
Y-303149D01*
X213356Y-303914D01*
X218055Y-308613D01*
X218055Y-308613D01*
X218821Y-308930D01*
X218821Y-308930D01*
X228219D01*
X228984Y-308613D01*
X233683Y-303915D01*
X233683Y-303914D01*
X234000Y-303149D01*
X234000Y-303149D01*
Y-293751D01*
X233683Y-292986D01*
X228984Y-288287D01*
Y-288287D01*
X228219Y-287969D01*
D02*
G37*
G36*
X329819D02*
X329819Y-287970D01*
X320421D01*
X319656Y-288287D01*
X314957Y-292985D01*
X314957Y-292986D01*
X314639Y-293751D01*
X314640Y-293751D01*
Y-303149D01*
X314957Y-303914D01*
X319655Y-308613D01*
X319656Y-308613D01*
X320421Y-308930D01*
X320421Y-308930D01*
X329819D01*
X330584Y-308613D01*
X335283Y-303915D01*
X335283Y-303914D01*
X335601Y-303149D01*
X335600Y-303149D01*
Y-293751D01*
X335283Y-292986D01*
X330584Y-288287D01*
Y-288287D01*
X329819Y-287969D01*
D02*
G37*
G36*
X50000Y-18904D02*
X45135Y-19287D01*
X40391Y-20426D01*
X35883Y-22293D01*
X31722Y-24843D01*
X28012Y-28012D01*
X24843Y-31722D01*
X22293Y-35883D01*
X20426Y-40391D01*
X19287Y-45135D01*
X18904Y-50000D01*
X19287Y-54865D01*
X20426Y-59609D01*
X22293Y-64117D01*
X24843Y-68278D01*
X28012Y-71988D01*
X31722Y-75157D01*
X35883Y-77707D01*
X40391Y-79574D01*
X45135Y-80713D01*
X50000Y-81096D01*
X54865Y-80713D01*
X59609Y-79574D01*
X64117Y-77707D01*
X68278Y-75157D01*
X71988Y-71988D01*
X75157Y-68278D01*
X77707Y-64117D01*
X79574Y-59609D01*
X80713Y-54865D01*
X81096Y-50000D01*
X80713Y-45135D01*
X79574Y-40391D01*
X77707Y-35883D01*
X75157Y-31722D01*
X71988Y-28012D01*
X68278Y-24843D01*
X64117Y-22293D01*
X59609Y-20426D01*
X54865Y-19287D01*
X50000Y-18904D01*
D02*
G37*
G36*
X1450000D02*
X1445135Y-19287D01*
X1440391Y-20426D01*
X1435883Y-22293D01*
X1431722Y-24843D01*
X1428012Y-28012D01*
X1424843Y-31722D01*
X1422293Y-35883D01*
X1420426Y-40391D01*
X1419287Y-45135D01*
X1418904Y-50000D01*
X1419287Y-54865D01*
X1420426Y-59609D01*
X1422293Y-64117D01*
X1424843Y-68278D01*
X1428012Y-71988D01*
X1431722Y-75157D01*
X1435883Y-77707D01*
X1440391Y-79574D01*
X1445135Y-80713D01*
X1450000Y-81096D01*
X1454865Y-80713D01*
X1459609Y-79574D01*
X1464117Y-77707D01*
X1468278Y-75157D01*
X1471988Y-71988D01*
X1475157Y-68278D01*
X1477707Y-64117D01*
X1479574Y-59609D01*
X1480713Y-54865D01*
X1481096Y-50000D01*
X1480713Y-45135D01*
X1479574Y-40391D01*
X1477707Y-35883D01*
X1475157Y-31722D01*
X1471988Y-28012D01*
X1468278Y-24843D01*
X1464117Y-22293D01*
X1459609Y-20426D01*
X1454865Y-19287D01*
X1450000Y-18904D01*
D02*
G37*
G36*
X253619Y-287969D02*
X253619Y-287970D01*
X244221D01*
X243456Y-288287D01*
X238757Y-292985D01*
X238757Y-292986D01*
X238440Y-293751D01*
X238440Y-293751D01*
Y-303149D01*
X238757Y-303914D01*
X243456Y-308613D01*
X243456Y-308613D01*
X244221Y-308930D01*
X244221Y-308930D01*
X253619D01*
X254384Y-308613D01*
X259083Y-303915D01*
X259083Y-303914D01*
X259401Y-303149D01*
X259400Y-303149D01*
Y-293751D01*
X259083Y-292986D01*
X254384Y-288287D01*
Y-288287D01*
X253619Y-287969D01*
D02*
G37*
G36*
X279019D02*
X279019Y-287970D01*
X269621D01*
X268856Y-288287D01*
X264157Y-292985D01*
X264157Y-292986D01*
X263839Y-293751D01*
X263840Y-293751D01*
Y-303149D01*
X264157Y-303914D01*
X268855Y-308613D01*
X268856Y-308613D01*
X269621Y-308930D01*
X269621Y-308930D01*
X279019D01*
X279784Y-308613D01*
X284483Y-303915D01*
X284483Y-303914D01*
X284800Y-303149D01*
X284800Y-303149D01*
Y-293751D01*
X284483Y-292986D01*
X279784Y-288287D01*
Y-288287D01*
X279019Y-287969D01*
D02*
G37*
G36*
X304419D02*
X304419Y-287970D01*
X295021D01*
X294256Y-288287D01*
X289557Y-292985D01*
X289557Y-292986D01*
X289240Y-293751D01*
X289240Y-293751D01*
Y-303149D01*
X289557Y-303914D01*
X294256Y-308613D01*
X294256Y-308613D01*
X295021Y-308930D01*
X295021Y-308930D01*
X304419D01*
X305184Y-308613D01*
X309883Y-303915D01*
X309883Y-303914D01*
X310201Y-303149D01*
X310200Y-303149D01*
Y-293751D01*
X309883Y-292986D01*
X305184Y-288287D01*
Y-288287D01*
X304419Y-287969D01*
D02*
G37*
G36*
X785749Y-296859D02*
X785749Y-296860D01*
X776351D01*
X775586Y-297177D01*
X770887Y-301875D01*
X770887Y-301876D01*
X770570Y-302641D01*
X770570Y-302641D01*
Y-312039D01*
X770887Y-312804D01*
X775585Y-317503D01*
X775586Y-317503D01*
X776351Y-317820D01*
X776351Y-317820D01*
X785749D01*
X786514Y-317503D01*
X791213Y-312805D01*
X791213Y-312804D01*
X791531Y-312039D01*
X791530Y-312039D01*
Y-302641D01*
X791213Y-301876D01*
X786514Y-297177D01*
Y-297177D01*
X785749Y-296859D01*
D02*
G37*
G36*
X1268349Y-318449D02*
X1268349Y-318450D01*
X1258951D01*
X1258186Y-318767D01*
X1253487Y-323465D01*
X1253487Y-323466D01*
X1253169Y-324231D01*
X1253170Y-324231D01*
Y-333629D01*
X1253487Y-334394D01*
X1258186Y-339093D01*
X1258186Y-339093D01*
X1258951Y-339411D01*
X1258951Y-339410D01*
X1268349D01*
X1269114Y-339093D01*
X1273813Y-334394D01*
X1273813Y-334394D01*
X1274130Y-333629D01*
X1274130Y-333629D01*
Y-324231D01*
X1273813Y-323466D01*
X1269114Y-318767D01*
Y-318767D01*
X1268349Y-318449D01*
D02*
G37*
G36*
X1293749D02*
X1293749Y-318450D01*
X1284351D01*
X1283586Y-318767D01*
X1278887Y-323465D01*
X1278887Y-323466D01*
X1278569Y-324231D01*
X1278570Y-324231D01*
Y-333629D01*
X1278887Y-334394D01*
X1283586Y-339093D01*
X1283586Y-339093D01*
X1284351Y-339411D01*
X1284351Y-339410D01*
X1293749D01*
X1294514Y-339093D01*
X1299213Y-334394D01*
X1299213Y-334394D01*
X1299530Y-333629D01*
X1299530Y-333629D01*
Y-324231D01*
X1299213Y-323466D01*
X1294514Y-318767D01*
Y-318767D01*
X1293749Y-318449D01*
D02*
G37*
G36*
X228219Y-313370D02*
X228219Y-313370D01*
X218821D01*
X218055Y-313687D01*
X213356Y-318386D01*
X213356Y-318386D01*
X213039Y-319151D01*
X213039Y-319151D01*
Y-328549D01*
X213356Y-329314D01*
X218055Y-334013D01*
X218055Y-334013D01*
X218821Y-334330D01*
X218821Y-334330D01*
X228219D01*
X228984Y-334013D01*
X233683Y-329314D01*
X233683Y-329314D01*
X234000Y-328549D01*
X234000Y-328549D01*
Y-319151D01*
X233683Y-318386D01*
X228984Y-313687D01*
Y-313687D01*
X228219Y-313370D01*
D02*
G37*
G36*
X1192149Y-318449D02*
X1192149Y-318450D01*
X1182751D01*
X1181985Y-318767D01*
X1177287Y-323465D01*
X1177286Y-323466D01*
X1176969Y-324231D01*
X1176969Y-324231D01*
Y-333629D01*
X1177286Y-334394D01*
X1181985Y-339093D01*
X1181985Y-339093D01*
X1182751Y-339411D01*
X1182751Y-339410D01*
X1192149D01*
X1192914Y-339093D01*
X1197613Y-334394D01*
X1197613Y-334394D01*
X1197930Y-333629D01*
X1197930Y-333629D01*
Y-324231D01*
X1197613Y-323466D01*
X1192914Y-318767D01*
Y-318767D01*
X1192149Y-318449D01*
D02*
G37*
G36*
X1217549D02*
X1217549Y-318450D01*
X1208151D01*
X1207386Y-318767D01*
X1202687Y-323465D01*
X1202687Y-323466D01*
X1202370Y-324231D01*
X1202370Y-324231D01*
Y-333629D01*
X1202687Y-334394D01*
X1207385Y-339093D01*
X1207386Y-339093D01*
X1208151Y-339411D01*
X1208151Y-339410D01*
X1217549D01*
X1218314Y-339093D01*
X1223013Y-334394D01*
X1223013Y-334394D01*
X1223331Y-333629D01*
X1223330Y-333629D01*
Y-324231D01*
X1223013Y-323466D01*
X1218314Y-318767D01*
Y-318767D01*
X1217549Y-318449D01*
D02*
G37*
G36*
X1242949D02*
X1242949Y-318450D01*
X1233551D01*
X1232786Y-318767D01*
X1228087Y-323465D01*
X1228087Y-323466D01*
X1227769Y-324231D01*
X1227770Y-324231D01*
Y-333629D01*
X1228087Y-334394D01*
X1232785Y-339093D01*
X1232786Y-339093D01*
X1233551Y-339411D01*
X1233551Y-339410D01*
X1242949D01*
X1243714Y-339093D01*
X1248413Y-334394D01*
X1248413Y-334394D01*
X1248730Y-333629D01*
X1248730Y-333629D01*
Y-324231D01*
X1248413Y-323466D01*
X1243714Y-318767D01*
Y-318767D01*
X1242949Y-318449D01*
D02*
G37*
G36*
X253619Y-313370D02*
X253619Y-313370D01*
X244221D01*
X243456Y-313687D01*
X238757Y-318386D01*
X238757Y-318386D01*
X238440Y-319151D01*
X238440Y-319151D01*
Y-328549D01*
X238757Y-329314D01*
X243456Y-334013D01*
X243456Y-334013D01*
X244221Y-334330D01*
X244221Y-334330D01*
X253619D01*
X254384Y-334013D01*
X259083Y-329314D01*
X259083Y-329314D01*
X259401Y-328549D01*
X259400Y-328549D01*
Y-319151D01*
X259083Y-318386D01*
X254384Y-313687D01*
Y-313687D01*
X253619Y-313370D01*
D02*
G37*
G36*
X709549Y-296859D02*
X709549Y-296860D01*
X700151D01*
X699385Y-297177D01*
X694687Y-301875D01*
X694686Y-301876D01*
X694369Y-302641D01*
X694369Y-302641D01*
Y-312039D01*
X694686Y-312804D01*
X699385Y-317503D01*
X699385Y-317503D01*
X700151Y-317820D01*
X700151Y-317820D01*
X709549D01*
X710314Y-317503D01*
X715013Y-312805D01*
X715013Y-312804D01*
X715330Y-312039D01*
X715330Y-312039D01*
Y-302641D01*
X715013Y-301876D01*
X710314Y-297177D01*
Y-297177D01*
X709549Y-296859D01*
D02*
G37*
G36*
X734949D02*
X734949Y-296860D01*
X725551D01*
X724786Y-297177D01*
X720087Y-301875D01*
X720087Y-301876D01*
X719770Y-302641D01*
X719770Y-302641D01*
Y-312039D01*
X720087Y-312804D01*
X724786Y-317503D01*
X724786Y-317503D01*
X725551Y-317820D01*
X725551Y-317820D01*
X734949D01*
X735714Y-317503D01*
X740413Y-312805D01*
X740413Y-312804D01*
X740731Y-312039D01*
X740730Y-312039D01*
Y-302641D01*
X740413Y-301876D01*
X735714Y-297177D01*
Y-297177D01*
X734949Y-296859D01*
D02*
G37*
G36*
X760349D02*
X760349Y-296860D01*
X750951D01*
X750186Y-297177D01*
X745487Y-301875D01*
X745487Y-301876D01*
X745170Y-302641D01*
X745170Y-302641D01*
Y-312039D01*
X745487Y-312804D01*
X750185Y-317503D01*
X750186Y-317503D01*
X750951Y-317820D01*
X750951Y-317820D01*
X760349D01*
X761114Y-317503D01*
X765813Y-312805D01*
X765813Y-312804D01*
X766131Y-312039D01*
X766130Y-312039D01*
Y-302641D01*
X765813Y-301876D01*
X761114Y-297177D01*
Y-297177D01*
X760349Y-296859D01*
D02*
G37*
G36*
X279019Y-313370D02*
X279019Y-313370D01*
X269621D01*
X268856Y-313687D01*
X264157Y-318386D01*
X264157Y-318386D01*
X263839Y-319151D01*
X263840Y-319151D01*
Y-328549D01*
X264157Y-329314D01*
X268855Y-334013D01*
X268856Y-334013D01*
X269621Y-334330D01*
X269621Y-334330D01*
X279019D01*
X279784Y-334013D01*
X284483Y-329314D01*
X284483Y-329314D01*
X284800Y-328549D01*
X284800Y-328549D01*
Y-319151D01*
X284483Y-318386D01*
X279784Y-313687D01*
Y-313687D01*
X279019Y-313370D01*
D02*
G37*
G36*
X304419D02*
X304419Y-313370D01*
X295021D01*
X294256Y-313687D01*
X289557Y-318386D01*
X289557Y-318386D01*
X289240Y-319151D01*
X289240Y-319151D01*
Y-328549D01*
X289557Y-329314D01*
X294256Y-334013D01*
X294256Y-334013D01*
X295021Y-334330D01*
X295021Y-334330D01*
X304419D01*
X305184Y-334013D01*
X309883Y-329314D01*
X309883Y-329314D01*
X310201Y-328549D01*
X310200Y-328549D01*
Y-319151D01*
X309883Y-318386D01*
X305184Y-313687D01*
Y-313687D01*
X304419Y-313370D01*
D02*
G37*
G36*
X329819D02*
X329819Y-313370D01*
X320421D01*
X319656Y-313687D01*
X314957Y-318386D01*
X314957Y-318386D01*
X314639Y-319151D01*
X314640Y-319151D01*
Y-328549D01*
X314957Y-329314D01*
X319655Y-334013D01*
X319656Y-334013D01*
X320421Y-334330D01*
X320421Y-334330D01*
X329819D01*
X330584Y-334013D01*
X335283Y-329314D01*
X335283Y-329314D01*
X335601Y-328549D01*
X335600Y-328549D01*
Y-319151D01*
X335283Y-318386D01*
X330584Y-313687D01*
Y-313687D01*
X329819Y-313370D01*
D02*
G37*
G36*
X977940Y-658980D02*
X972350D01*
Y-661980D01*
X972547Y-662971D01*
X973109Y-663811D01*
X973949Y-664373D01*
X974940Y-664570D01*
X977940D01*
Y-658980D01*
D02*
G37*
G36*
X988530D02*
X982940D01*
Y-664570D01*
X985940D01*
X986931Y-664373D01*
X987771Y-663811D01*
X988333Y-662971D01*
X988530Y-661980D01*
Y-658980D01*
D02*
G37*
G36*
X956780D02*
X951190D01*
Y-664570D01*
X954190D01*
X955181Y-664373D01*
X956021Y-663811D01*
X956583Y-662971D01*
X956780Y-661980D01*
Y-658980D01*
D02*
G37*
G36*
X527630Y-660360D02*
X522040D01*
Y-665950D01*
X525040D01*
X526031Y-665753D01*
X526871Y-665191D01*
X527433Y-664351D01*
X527630Y-663360D01*
Y-660360D01*
D02*
G37*
G36*
X946190Y-658980D02*
X940600D01*
Y-661980D01*
X940797Y-662971D01*
X941359Y-663811D01*
X942199Y-664373D01*
X943190Y-664570D01*
X946190D01*
Y-658980D01*
D02*
G37*
G36*
X525040Y-649770D02*
X522040D01*
Y-655360D01*
X527630D01*
Y-652360D01*
X527433Y-651369D01*
X526871Y-650529D01*
X526031Y-649967D01*
X525040Y-649770D01*
D02*
G37*
G36*
X71650Y-644883D02*
X71299Y-644929D01*
X68642Y-646030D01*
X66360Y-647780D01*
X64610Y-650062D01*
X63509Y-652719D01*
X63463Y-653070D01*
X71650D01*
Y-644883D01*
D02*
G37*
G36*
X517040Y-649770D02*
X514040D01*
X513049Y-649967D01*
X512209Y-650529D01*
X511647Y-651369D01*
X511450Y-652360D01*
Y-655360D01*
X517040D01*
Y-649770D01*
D02*
G37*
G36*
X453430Y-657280D02*
X450430D01*
X449439Y-657477D01*
X448599Y-658039D01*
X448037Y-658879D01*
X447840Y-659870D01*
Y-662870D01*
X453430D01*
Y-657280D01*
D02*
G37*
G36*
X461430D02*
X458430D01*
Y-662870D01*
X464020D01*
Y-659870D01*
X463823Y-658879D01*
X463261Y-658039D01*
X462421Y-657477D01*
X461430Y-657280D01*
D02*
G37*
G36*
X517040Y-660360D02*
X511450D01*
Y-663360D01*
X511647Y-664351D01*
X512209Y-665191D01*
X513049Y-665753D01*
X514040Y-665950D01*
X517040D01*
Y-660360D01*
D02*
G37*
G36*
X866140Y-653006D02*
X732790D01*
X731904Y-653182D01*
X731153Y-653683D01*
X720401Y-664436D01*
X664210D01*
X663324Y-664612D01*
X662573Y-665113D01*
X644201Y-683485D01*
X615245D01*
X614971Y-683302D01*
X613410Y-682992D01*
X611849Y-683302D01*
X610526Y-684186D01*
X609642Y-685509D01*
X609332Y-687070D01*
X609642Y-688631D01*
X610526Y-689954D01*
X611849Y-690838D01*
X612756Y-691018D01*
X613652Y-692866D01*
X613757Y-693610D01*
X604761Y-702606D01*
X580901D01*
X580658Y-702310D01*
X580348Y-700749D01*
X579464Y-699426D01*
X578141Y-698542D01*
X576580Y-698232D01*
X575019Y-698542D01*
X573696Y-699426D01*
X572812Y-700749D01*
X572502Y-702310D01*
X572812Y-703871D01*
X573696Y-705194D01*
X575019Y-706078D01*
X576580Y-706388D01*
X577252Y-706255D01*
X577553Y-706557D01*
X578304Y-707058D01*
X579190Y-707234D01*
X605430D01*
X605970Y-707914D01*
X606610Y-709647D01*
X603561Y-712695D01*
X586194D01*
X585814Y-712126D01*
X584491Y-711242D01*
X582930Y-710932D01*
X581369Y-711242D01*
X580046Y-712126D01*
X579162Y-713449D01*
X578852Y-715010D01*
X579162Y-716571D01*
X580046Y-717894D01*
X581369Y-718778D01*
X582930Y-719088D01*
X584491Y-718778D01*
X585814Y-717894D01*
X586194Y-717325D01*
X604520D01*
X605406Y-717148D01*
X606157Y-716647D01*
X621989Y-700815D01*
X651510D01*
X652396Y-700638D01*
X653147Y-700137D01*
X672789Y-680495D01*
X731520D01*
X732406Y-680318D01*
X733157Y-679817D01*
X742829Y-670145D01*
X854831D01*
X953403Y-768717D01*
X954154Y-769218D01*
X955040Y-769395D01*
X984796D01*
X985176Y-769964D01*
X986499Y-770848D01*
X988060Y-771158D01*
X989621Y-770848D01*
X990944Y-769964D01*
X991828Y-768641D01*
X992138Y-767080D01*
X991828Y-765519D01*
X990944Y-764196D01*
X989621Y-763312D01*
X988060Y-763002D01*
X986499Y-763312D01*
X985176Y-764196D01*
X984796Y-764765D01*
X955999D01*
X858835Y-667602D01*
X859778Y-664952D01*
X860950Y-664833D01*
X889903Y-693787D01*
X890654Y-694288D01*
X891540Y-694464D01*
X971550D01*
X972436Y-694288D01*
X973187Y-693787D01*
X979768Y-687205D01*
X980440Y-687338D01*
X982001Y-687028D01*
X983324Y-686144D01*
X984208Y-684821D01*
X984518Y-683260D01*
X985940Y-681062D01*
X986705Y-680745D01*
X987022Y-679980D01*
Y-668980D01*
X986705Y-668215D01*
X985940Y-667898D01*
X974940D01*
X974175Y-668215D01*
X973858Y-668980D01*
Y-679980D01*
X974175Y-680745D01*
X974940Y-681062D01*
X976362Y-683260D01*
X976495Y-683932D01*
X970591Y-689836D01*
X948618D01*
X947825Y-687897D01*
X947778Y-687296D01*
X950327Y-684747D01*
X950828Y-683996D01*
X951004Y-683110D01*
Y-681062D01*
X954190D01*
X954955Y-680745D01*
X955272Y-679980D01*
Y-668980D01*
X954955Y-668215D01*
X954190Y-667898D01*
X943190D01*
X942425Y-668215D01*
X942108Y-668980D01*
Y-679980D01*
X942425Y-680745D01*
X943190Y-681062D01*
X942908Y-683485D01*
X899884D01*
X899504Y-682916D01*
X898181Y-682032D01*
X896620Y-681722D01*
X895948Y-681855D01*
X867777Y-653683D01*
X867026Y-653182D01*
X866140Y-653006D01*
D02*
G37*
G36*
X171450Y-664907D02*
X169001Y-665229D01*
X166719Y-666175D01*
X164759Y-667679D01*
X163255Y-669639D01*
X162309Y-671921D01*
X161987Y-674370D01*
X162309Y-676819D01*
X163255Y-679101D01*
X164759Y-681061D01*
X166719Y-682565D01*
X169001Y-683511D01*
X171450Y-683833D01*
X173899Y-683511D01*
X176182Y-682565D01*
X178141Y-681061D01*
X179645Y-679101D01*
X180590Y-676819D01*
X180913Y-674370D01*
X180590Y-671921D01*
X179645Y-669639D01*
X178141Y-667679D01*
X176182Y-666175D01*
X173899Y-665229D01*
X171450Y-664907D01*
D02*
G37*
G36*
X175641Y-639506D02*
X167259D01*
X166494Y-639823D01*
X162303Y-644014D01*
X162303Y-644014D01*
X161986Y-644779D01*
Y-653161D01*
X162303Y-653926D01*
X166494Y-658117D01*
X166494Y-658117D01*
X167259Y-658434D01*
X175641D01*
X176406Y-658117D01*
X180597Y-653926D01*
X180597Y-653926D01*
X180914Y-653161D01*
Y-651533D01*
X180924Y-651526D01*
X181060Y-651471D01*
X181274Y-651413D01*
X181561Y-651365D01*
X181918Y-651334D01*
X182367Y-651322D01*
X182452Y-651284D01*
X190990D01*
X191345Y-651972D01*
X191663Y-653824D01*
X190159Y-654979D01*
X188655Y-656938D01*
X187710Y-659221D01*
X187387Y-661670D01*
X187710Y-664119D01*
X188655Y-666402D01*
X190159Y-668361D01*
X192118Y-669865D01*
X194401Y-670810D01*
X196850Y-671133D01*
X199299Y-670810D01*
X201581Y-669865D01*
X203541Y-668361D01*
X203576Y-668316D01*
X203596Y-668307D01*
X204459Y-667456D01*
X206076Y-666030D01*
X206803Y-665475D01*
X207495Y-665008D01*
X208140Y-664635D01*
X208732Y-664356D01*
X209268Y-664166D01*
X209745Y-664059D01*
X210250Y-664019D01*
X210317Y-663985D01*
X228911D01*
X235175Y-670249D01*
Y-673411D01*
X233313Y-675273D01*
X232812Y-676024D01*
X232635Y-676910D01*
Y-681990D01*
X232812Y-682876D01*
X233313Y-683627D01*
X237583Y-687897D01*
X238334Y-688398D01*
X239220Y-688575D01*
X261901D01*
X262787Y-688398D01*
X263537Y-687897D01*
X265859Y-685574D01*
X265879D01*
X265963Y-685612D01*
X266236Y-685619D01*
X266460Y-685639D01*
X266663Y-685669D01*
X266846Y-685710D01*
X267009Y-685760D01*
X267154Y-685817D01*
X267282Y-685882D01*
X267397Y-685953D01*
X267500Y-686032D01*
X267632Y-686154D01*
X267653Y-686162D01*
X268949Y-687028D01*
X270510Y-687338D01*
X272071Y-687028D01*
X273394Y-686144D01*
X274278Y-684821D01*
X274588Y-683260D01*
X274278Y-681699D01*
X273394Y-680376D01*
X272071Y-679492D01*
X270510Y-679182D01*
X268949Y-679492D01*
X267653Y-680358D01*
X267632Y-680366D01*
X267500Y-680488D01*
X267397Y-680567D01*
X267282Y-680638D01*
X267154Y-680703D01*
X267009Y-680760D01*
X266846Y-680810D01*
X266663Y-680851D01*
X266460Y-680881D01*
X266236Y-680901D01*
X265963Y-680908D01*
X265879Y-680946D01*
X265451D01*
X263845Y-679898D01*
X263201Y-679259D01*
X263053Y-678920D01*
X262848Y-677889D01*
X261964Y-676566D01*
X260641Y-675682D01*
X259080Y-675372D01*
X257519Y-675682D01*
X256196Y-676566D01*
X253975Y-675318D01*
X242719Y-664061D01*
X235099Y-656441D01*
X225991Y-647333D01*
X225240Y-646832D01*
X224354Y-646656D01*
X182452D01*
X182367Y-646618D01*
X181918Y-646606D01*
X181561Y-646575D01*
X181274Y-646527D01*
X181060Y-646469D01*
X180924Y-646414D01*
X180914Y-646408D01*
Y-644779D01*
X180597Y-644014D01*
X176406Y-639823D01*
X176406Y-639823D01*
X175641Y-639506D01*
D02*
G37*
G36*
X710819Y-691830D02*
X710819Y-691830D01*
X701421D01*
X700655Y-692147D01*
X696778Y-696024D01*
X694103Y-696472D01*
X693517Y-696354D01*
X693433Y-696319D01*
X693091Y-696150D01*
X693055Y-696162D01*
X693020Y-696148D01*
X688340D01*
X688340Y-696148D01*
X687575Y-696465D01*
X654872Y-729168D01*
X614680Y-729168D01*
X613915Y-729485D01*
X606295Y-737105D01*
X589317Y-754082D01*
X568317D01*
X568001Y-753696D01*
X567192Y-751543D01*
X567648Y-750861D01*
X567958Y-749300D01*
X567648Y-747739D01*
X566764Y-746416D01*
X565441Y-745532D01*
X563880Y-745222D01*
X562319Y-745532D01*
X561023Y-746398D01*
X561002Y-746406D01*
X560870Y-746528D01*
X560767Y-746607D01*
X560652Y-746678D01*
X560524Y-746743D01*
X560379Y-746800D01*
X560216Y-746850D01*
X560033Y-746891D01*
X559830Y-746921D01*
X559606Y-746941D01*
X559333Y-746948D01*
X559249Y-746985D01*
X554541D01*
X554457Y-746948D01*
X554184Y-746941D01*
X553960Y-746921D01*
X553757Y-746891D01*
X553574Y-746850D01*
X553411Y-746800D01*
X553266Y-746743D01*
X553138Y-746678D01*
X553023Y-746607D01*
X552920Y-746528D01*
X552788Y-746406D01*
X552767Y-746398D01*
X551471Y-745532D01*
X549910Y-745222D01*
X548349Y-745532D01*
X547026Y-746416D01*
X546142Y-747739D01*
X545832Y-749300D01*
X546142Y-750861D01*
X546598Y-751543D01*
X545789Y-753696D01*
X545472Y-754082D01*
X537740D01*
X535399Y-754548D01*
X533414Y-755874D01*
X532884Y-756404D01*
X531558Y-758389D01*
X531092Y-760730D01*
X531558Y-763071D01*
X532884Y-765056D01*
X534869Y-766382D01*
X537210Y-766848D01*
X539551Y-766382D01*
X539647Y-766318D01*
X556827D01*
X557333Y-768857D01*
X555978Y-769419D01*
X554411Y-770621D01*
X553209Y-772188D01*
X552453Y-774012D01*
X552195Y-775970D01*
X552453Y-777928D01*
X553209Y-779752D01*
X554378Y-781275D01*
X554350Y-781485D01*
X553492Y-783816D01*
X528009D01*
X500747Y-756553D01*
X499996Y-756052D01*
X499110Y-755875D01*
X450539D01*
X446137Y-751473D01*
X445386Y-750972D01*
X444500Y-750796D01*
X396964D01*
X396584Y-750226D01*
X395261Y-749342D01*
X393700Y-749032D01*
X392139Y-749342D01*
X390816Y-750226D01*
X389932Y-751549D01*
X389622Y-753110D01*
X389932Y-754671D01*
X390816Y-755994D01*
X392139Y-756878D01*
X393700Y-757188D01*
X395261Y-756878D01*
X396584Y-755994D01*
X396964Y-755424D01*
X432981D01*
X434380Y-757896D01*
X434369Y-757964D01*
X434072Y-759460D01*
X434205Y-760132D01*
X414923Y-779413D01*
X414422Y-780164D01*
X414245Y-781050D01*
Y-840740D01*
X414422Y-841626D01*
X414923Y-842377D01*
X466993Y-894447D01*
X467744Y-894948D01*
X468630Y-895125D01*
X635311D01*
X645428Y-905242D01*
X646179Y-905743D01*
X647065Y-905919D01*
X862006D01*
X872123Y-916037D01*
X872874Y-916538D01*
X873760Y-916714D01*
X898634D01*
X899053Y-917973D01*
X899232Y-919180D01*
X896626Y-920573D01*
X896556Y-920659D01*
X896450Y-920691D01*
X894165Y-922566D01*
X894113Y-922663D01*
X894015Y-922716D01*
X892141Y-925000D01*
X892109Y-925106D01*
X892023Y-925176D01*
X890630Y-927782D01*
X890619Y-927892D01*
X890549Y-927978D01*
X889691Y-930805D01*
X889702Y-930916D01*
X889650Y-931013D01*
X889360Y-933954D01*
X889392Y-934060D01*
X889360Y-934166D01*
X889650Y-937107D01*
X889702Y-937205D01*
X889691Y-937315D01*
X890549Y-940142D01*
X890619Y-940228D01*
X890630Y-940338D01*
X892023Y-942944D01*
X892109Y-943015D01*
X892141Y-943121D01*
X894015Y-945405D01*
X894113Y-945457D01*
X894165Y-945555D01*
X896450Y-947429D01*
X896556Y-947461D01*
X896626Y-947547D01*
X899232Y-948940D01*
X899342Y-948951D01*
X899428Y-949021D01*
X902255Y-949879D01*
X902366Y-949868D01*
X902463Y-949920D01*
X905404Y-950210D01*
X905458Y-950193D01*
X905510Y-950215D01*
X905562Y-950193D01*
X905616Y-950210D01*
X908557Y-949920D01*
X908654Y-949868D01*
X908765Y-949879D01*
X911592Y-949021D01*
X911678Y-948951D01*
X911788Y-948940D01*
X914394Y-947547D01*
X914464Y-947461D01*
X914570Y-947429D01*
X916855Y-945555D01*
X916907Y-945457D01*
X917005Y-945405D01*
X918879Y-943121D01*
X918911Y-943015D01*
X918997Y-942944D01*
X920390Y-940338D01*
X920401Y-940228D01*
X920471Y-940142D01*
X921329Y-937315D01*
X921318Y-937205D01*
X921370Y-937107D01*
X921660Y-934166D01*
X921628Y-934060D01*
X921660Y-933954D01*
X921370Y-931013D01*
X921318Y-930916D01*
X921329Y-930805D01*
X920471Y-927978D01*
X920401Y-927892D01*
X920390Y-927782D01*
X918997Y-925176D01*
X918911Y-925106D01*
X918879Y-925000D01*
X917005Y-922716D01*
X916907Y-922663D01*
X916855Y-922566D01*
X914570Y-920691D01*
X914464Y-920659D01*
X914394Y-920573D01*
X911788Y-919180D01*
X911967Y-917973D01*
X912386Y-916714D01*
X1042981D01*
X1046345Y-920078D01*
X1046212Y-920750D01*
X1046522Y-922311D01*
X1047406Y-923634D01*
X1048729Y-924518D01*
X1050290Y-924828D01*
X1051851Y-924518D01*
X1053174Y-923634D01*
X1054058Y-922311D01*
X1054295Y-921120D01*
X1055438Y-920184D01*
X1056712Y-919510D01*
X1057910Y-919748D01*
X1059471Y-919438D01*
X1060794Y-918554D01*
X1061678Y-917231D01*
X1061988Y-915670D01*
X1061678Y-914109D01*
X1060794Y-912786D01*
X1059471Y-911902D01*
X1057910Y-911592D01*
X1057238Y-911725D01*
X1051927Y-906413D01*
X1051176Y-905912D01*
X1050290Y-905735D01*
X877259D01*
X866507Y-894983D01*
X865756Y-894482D01*
X864870Y-894305D01*
X795098D01*
X794305Y-892367D01*
X794258Y-891766D01*
X802917Y-883107D01*
X803418Y-882356D01*
X803595Y-881470D01*
Y-874642D01*
X813780D01*
X814545Y-874325D01*
X814862Y-873560D01*
Y-848560D01*
X814545Y-847795D01*
X813780Y-847478D01*
X788780D01*
X788015Y-847795D01*
X787698Y-848560D01*
Y-873560D01*
X788015Y-874325D01*
X788780Y-874642D01*
X798966D01*
Y-880511D01*
X791521Y-887955D01*
X764618D01*
X763825Y-886017D01*
X763778Y-885415D01*
X773797Y-875397D01*
X774298Y-874646D01*
X774474Y-873760D01*
Y-851624D01*
X775044Y-851244D01*
X775928Y-849921D01*
X776238Y-848360D01*
X775928Y-846799D01*
X775044Y-845476D01*
X773721Y-844592D01*
X772160Y-844282D01*
X770599Y-844592D01*
X769276Y-845476D01*
X768392Y-846799D01*
X768082Y-848360D01*
X768392Y-849921D01*
X769276Y-851244D01*
X769846Y-851624D01*
Y-872801D01*
X761041Y-881606D01*
X675329D01*
X669425Y-875702D01*
X669558Y-875030D01*
X669248Y-873469D01*
X668364Y-872146D01*
X667041Y-871262D01*
X665480Y-870952D01*
X663919Y-871262D01*
X662596Y-872146D01*
X661712Y-873469D01*
X661475Y-874660D01*
X660332Y-875596D01*
X659059Y-876270D01*
X657860Y-876032D01*
X656299Y-876342D01*
X654976Y-877226D01*
X654092Y-878549D01*
X653782Y-880110D01*
X654092Y-881671D01*
X654976Y-882994D01*
X656299Y-883878D01*
X657860Y-884188D01*
X658532Y-884055D01*
X666242Y-891766D01*
X666195Y-892367D01*
X665402Y-894305D01*
X655009D01*
X646797Y-886093D01*
X646046Y-885592D01*
X645160Y-885415D01*
X622321D01*
X621591Y-883548D01*
X621453Y-882876D01*
X622258Y-881671D01*
X622568Y-880110D01*
X622258Y-878549D01*
X621374Y-877226D01*
X620316Y-875683D01*
X620944Y-874117D01*
X620988Y-874051D01*
X621298Y-872490D01*
X620988Y-870929D01*
X620104Y-869606D01*
X618781Y-868722D01*
X617220Y-868412D01*
X615659Y-868722D01*
X614336Y-869606D01*
X614252Y-869732D01*
X611298D01*
X611214Y-869606D01*
X609891Y-868722D01*
X609233Y-868591D01*
X608232Y-868189D01*
X607328Y-866140D01*
X607018Y-864579D01*
X606134Y-863256D01*
X604811Y-862372D01*
X603250Y-862062D01*
X601689Y-862372D01*
X600366Y-863256D01*
X599482Y-864579D01*
X599172Y-866140D01*
X597108Y-867906D01*
X479945D01*
X475463Y-863423D01*
X475463Y-863423D01*
X465701Y-853662D01*
X444274Y-832235D01*
Y-797249D01*
X464107Y-777417D01*
X464608Y-776666D01*
X464785Y-775780D01*
Y-771487D01*
X465164Y-771234D01*
X466048Y-769911D01*
X466358Y-768350D01*
X466048Y-766789D01*
X465164Y-765466D01*
X463841Y-764582D01*
X462280Y-764272D01*
X460719Y-764582D01*
X459396Y-765466D01*
X458512Y-766789D01*
X458467Y-767014D01*
X457552Y-768702D01*
X455864Y-769617D01*
X455639Y-769662D01*
X454316Y-770546D01*
X453858Y-771232D01*
X451729Y-771699D01*
X450893Y-771615D01*
X449871Y-770932D01*
X448310Y-770622D01*
X446749Y-770932D01*
X445426Y-771816D01*
X444288Y-771816D01*
X442784Y-769603D01*
X443144Y-768707D01*
X443188Y-768641D01*
X443498Y-767080D01*
X443188Y-765519D01*
X442304Y-764196D01*
X441245Y-762653D01*
X441874Y-761087D01*
X441918Y-761021D01*
X442228Y-759460D01*
X444293Y-757279D01*
X444300Y-757277D01*
X445263Y-757146D01*
X447943Y-759827D01*
X448694Y-760328D01*
X449580Y-760505D01*
X498151D01*
X525413Y-787767D01*
X526164Y-788268D01*
X527050Y-788445D01*
X540938D01*
X542191Y-790984D01*
X541864Y-791411D01*
X541011Y-793470D01*
X549760D01*
X558509D01*
X557656Y-791411D01*
X557329Y-790984D01*
X558582Y-788445D01*
X563075D01*
X563778Y-789590D01*
X564132Y-790984D01*
X563209Y-792188D01*
X562453Y-794012D01*
X562195Y-795970D01*
X562453Y-797928D01*
X563209Y-799752D01*
X564411Y-801319D01*
X565978Y-802521D01*
X567802Y-803277D01*
X569760Y-803535D01*
X571718Y-803277D01*
X573542Y-802521D01*
X575109Y-801319D01*
X576311Y-799752D01*
X577067Y-797928D01*
X577325Y-795970D01*
X577067Y-794012D01*
X576311Y-792188D01*
X575388Y-790984D01*
X575742Y-789590D01*
X576445Y-788445D01*
X583075D01*
X583778Y-789590D01*
X584132Y-790984D01*
X583209Y-792188D01*
X582453Y-794012D01*
X582195Y-795970D01*
X582453Y-797928D01*
X583209Y-799752D01*
X584411Y-801319D01*
X585978Y-802521D01*
X587802Y-803277D01*
X589760Y-803535D01*
X591718Y-803277D01*
X593542Y-802521D01*
X595109Y-801319D01*
X596311Y-799752D01*
X597067Y-797928D01*
X597325Y-795970D01*
X597067Y-794012D01*
X596311Y-792188D01*
X595109Y-790621D01*
X593542Y-789419D01*
X593284Y-789312D01*
X592687Y-786316D01*
X596334Y-782669D01*
X597802Y-783277D01*
X599760Y-783535D01*
X601718Y-783277D01*
X603542Y-782521D01*
X604906Y-781475D01*
X605784Y-781645D01*
X607445Y-782447D01*
Y-788811D01*
X605978Y-789419D01*
X604411Y-790621D01*
X603209Y-792188D01*
X602453Y-794012D01*
X602195Y-795970D01*
X602453Y-797928D01*
X603209Y-799752D01*
X604411Y-801319D01*
X605978Y-802521D01*
X607802Y-803277D01*
X609760Y-803535D01*
X611718Y-803277D01*
X613542Y-802521D01*
X615109Y-801319D01*
X616311Y-799752D01*
X617067Y-797928D01*
X617325Y-795970D01*
X617067Y-794012D01*
X616311Y-792188D01*
X615109Y-790621D01*
X613542Y-789419D01*
X613407Y-789363D01*
X612836Y-787424D01*
X614435Y-785060D01*
X617260D01*
Y-775970D01*
X619760D01*
Y-773470D01*
X628850D01*
Y-769470D01*
X628842Y-769432D01*
X630189Y-767257D01*
X630647Y-766892D01*
X664210D01*
X706381Y-766892D01*
X707390Y-766892D01*
X707390Y-766892D01*
X708155Y-766575D01*
X708472Y-765810D01*
X708472Y-765810D01*
X708472Y-764801D01*
X708472Y-715307D01*
X708472Y-714298D01*
X710597Y-712790D01*
X710819D01*
X711584Y-712473D01*
X716283Y-707775D01*
X716283Y-707774D01*
X716600Y-707009D01*
X716600Y-707009D01*
Y-697611D01*
X716283Y-696846D01*
X711584Y-692147D01*
Y-692147D01*
X710819Y-691830D01*
D02*
G37*
G36*
X473710Y-638542D02*
X472149Y-638852D01*
X470826Y-639736D01*
X469942Y-641059D01*
X469632Y-642620D01*
X469942Y-644181D01*
X470808Y-645477D01*
X470816Y-645498D01*
X470938Y-645630D01*
X471017Y-645733D01*
X471088Y-645848D01*
X471153Y-645976D01*
X471210Y-646121D01*
X471260Y-646284D01*
X471301Y-646467D01*
X471331Y-646670D01*
X471351Y-646894D01*
X471358Y-647167D01*
X471395Y-647251D01*
Y-686700D01*
X469849Y-687417D01*
X468884Y-687865D01*
X468550Y-687727D01*
X467140D01*
X467140Y-687727D01*
X462512D01*
Y-677870D01*
X462195Y-677105D01*
X461430Y-676788D01*
X450430D01*
X449665Y-677105D01*
X449348Y-677870D01*
Y-688870D01*
X449665Y-689635D01*
X450430Y-689952D01*
X451171D01*
X451342Y-690013D01*
X451499Y-690117D01*
X451663Y-690294D01*
X451836Y-690577D01*
X452002Y-690984D01*
X452146Y-691517D01*
X452256Y-692174D01*
X452324Y-692949D01*
X452348Y-693866D01*
X452361Y-693896D01*
Y-695371D01*
X452162Y-695669D01*
X451852Y-697230D01*
X452162Y-698791D01*
X453046Y-700114D01*
X454369Y-700998D01*
X455930Y-701308D01*
X457491Y-700998D01*
X458814Y-700114D01*
X459698Y-698791D01*
X460008Y-697230D01*
X460226Y-696747D01*
X462021Y-694922D01*
X466050D01*
X466420Y-694769D01*
X466795Y-694625D01*
X466801Y-694611D01*
X466815Y-694605D01*
X466969Y-694234D01*
X467132Y-693868D01*
X467156Y-692945D01*
X467225Y-692165D01*
X467324Y-691564D01*
X468091Y-690836D01*
X468479Y-690649D01*
X468990Y-690488D01*
X471395Y-692056D01*
Y-702069D01*
X469688Y-703789D01*
X469663Y-703805D01*
X468329D01*
X468244Y-703768D01*
X467373Y-703746D01*
X466936Y-703710D01*
X466582Y-703658D01*
X466464Y-703633D01*
X466366Y-703607D01*
X466259Y-703570D01*
X466154Y-703577D01*
X464820Y-703312D01*
X463259Y-703622D01*
X461936Y-704506D01*
X461052Y-705829D01*
X460742Y-707390D01*
X461052Y-708951D01*
X461936Y-710274D01*
X463259Y-711158D01*
X464820Y-711468D01*
X466381Y-711158D01*
X467704Y-710274D01*
X468588Y-708951D01*
X468607Y-708852D01*
X468642Y-708819D01*
X468690Y-708708D01*
X468706Y-708683D01*
X468724Y-708663D01*
X468755Y-708638D01*
X468809Y-708606D01*
X468895Y-708569D01*
X469018Y-708533D01*
X469181Y-708502D01*
X469382Y-708481D01*
X469655Y-708472D01*
X469737Y-708434D01*
X473473D01*
X473498Y-708451D01*
X473583Y-708434D01*
X473837D01*
X473922Y-708451D01*
X473947Y-708434D01*
X481991D01*
X482075Y-708472D01*
X482530Y-708484D01*
X482893Y-708515D01*
X483186Y-708564D01*
X483405Y-708622D01*
X483528Y-708671D01*
Y-711620D01*
X483845Y-712385D01*
X484610Y-712702D01*
X487547D01*
X487554Y-712712D01*
X487609Y-712848D01*
X487667Y-713062D01*
X487715Y-713349D01*
X487746Y-713706D01*
X487758Y-714155D01*
X487795Y-714240D01*
Y-718320D01*
X487758Y-718405D01*
X487746Y-718860D01*
X487715Y-719223D01*
X487666Y-719517D01*
X487608Y-719735D01*
X487558Y-719858D01*
X484610D01*
X483845Y-720175D01*
X483528Y-720940D01*
Y-731940D01*
X483845Y-732705D01*
X484610Y-733022D01*
X495610D01*
X496375Y-732705D01*
X496692Y-731940D01*
Y-720940D01*
X496375Y-720175D01*
X495610Y-719858D01*
X492662D01*
X492612Y-719735D01*
X492554Y-719516D01*
X492505Y-719223D01*
X492474Y-718860D01*
X492462Y-718405D01*
X492425Y-718320D01*
Y-714240D01*
X492462Y-714155D01*
X492474Y-713706D01*
X492505Y-713349D01*
X492553Y-713062D01*
X492611Y-712848D01*
X492666Y-712712D01*
X492672Y-712702D01*
X495610D01*
X496375Y-712385D01*
X496692Y-711620D01*
Y-700620D01*
X496375Y-699855D01*
X495610Y-699538D01*
X484610D01*
X483845Y-699855D01*
X483528Y-700620D01*
Y-703568D01*
X483405Y-703618D01*
X483186Y-703676D01*
X482893Y-703725D01*
X482530Y-703756D01*
X482075Y-703768D01*
X481990Y-703805D01*
X477757D01*
X477732Y-703789D01*
X476025Y-702069D01*
Y-647251D01*
X476062Y-647167D01*
X476069Y-646894D01*
X476089Y-646670D01*
X476119Y-646467D01*
X476160Y-646284D01*
X476210Y-646121D01*
X476267Y-645976D01*
X476332Y-645848D01*
X476403Y-645733D01*
X476482Y-645630D01*
X476604Y-645498D01*
X476612Y-645477D01*
X477478Y-644181D01*
X477788Y-642620D01*
X477478Y-641059D01*
X476594Y-639736D01*
X475271Y-638852D01*
X473710Y-638542D01*
D02*
G37*
G36*
X71650Y-658070D02*
X63463D01*
X63509Y-658421D01*
X64610Y-661078D01*
X66360Y-663360D01*
X68642Y-665110D01*
X71299Y-666211D01*
X71650Y-666257D01*
Y-658070D01*
D02*
G37*
G36*
X84837D02*
X76650D01*
Y-666257D01*
X77001Y-666211D01*
X79658Y-665110D01*
X81940Y-663360D01*
X83690Y-661078D01*
X84791Y-658421D01*
X84837Y-658070D01*
D02*
G37*
G36*
X464020Y-667870D02*
X458430D01*
Y-673460D01*
X461430D01*
X462421Y-673263D01*
X463261Y-672701D01*
X463823Y-671861D01*
X464020Y-670870D01*
Y-667870D01*
D02*
G37*
G36*
X339090Y-577582D02*
X337529Y-577892D01*
X336206Y-578776D01*
X335322Y-580099D01*
X335012Y-581660D01*
X335322Y-583221D01*
X336206Y-584544D01*
X336901Y-585008D01*
X337272Y-586780D01*
X337285Y-587062D01*
X337154Y-587943D01*
X332142Y-592955D01*
X331470Y-592822D01*
X329909Y-593132D01*
X328586Y-594016D01*
X327702Y-595339D01*
X327392Y-596900D01*
X327702Y-598461D01*
X328586Y-599784D01*
X329909Y-600668D01*
X331470Y-600978D01*
X333031Y-600668D01*
X334354Y-599784D01*
X335238Y-598461D01*
X335548Y-596900D01*
X335415Y-596228D01*
X340049Y-591595D01*
X352101D01*
X420746Y-660239D01*
Y-672141D01*
X418045Y-674842D01*
X416976Y-674639D01*
X415453Y-673841D01*
X415248Y-672809D01*
X414364Y-671486D01*
X413041Y-670602D01*
X411480Y-670292D01*
X409919Y-670602D01*
X408596Y-671486D01*
X407712Y-672809D01*
X407402Y-674370D01*
X405007Y-675351D01*
X404314Y-675282D01*
X404020Y-675067D01*
X361725Y-632771D01*
Y-608330D01*
X361548Y-607444D01*
X361047Y-606693D01*
X354697Y-600343D01*
X353946Y-599842D01*
X353060Y-599665D01*
X347434D01*
X347054Y-599096D01*
X345731Y-598212D01*
X344170Y-597902D01*
X342609Y-598212D01*
X341286Y-599096D01*
X340402Y-600419D01*
X340092Y-601980D01*
X340402Y-603541D01*
X341085Y-604563D01*
X341169Y-605399D01*
X340702Y-607528D01*
X340016Y-607986D01*
X339132Y-609309D01*
X338822Y-610870D01*
X339132Y-612431D01*
X340016Y-613754D01*
X341339Y-614638D01*
X342900Y-614948D01*
X344461Y-614638D01*
X345784Y-613754D01*
X345909Y-613566D01*
X348513Y-613406D01*
X350746Y-615639D01*
Y-636270D01*
X350922Y-637156D01*
X351423Y-637907D01*
X395196Y-681679D01*
Y-700702D01*
X393592Y-702156D01*
X391205Y-701185D01*
X391118Y-700749D01*
X390234Y-699426D01*
X388911Y-698542D01*
X387350Y-698232D01*
X385789Y-698542D01*
X384466Y-699426D01*
X383582Y-700749D01*
X383272Y-702310D01*
X383405Y-702982D01*
X340671Y-745715D01*
X254000D01*
X253114Y-745892D01*
X252363Y-746393D01*
X186253Y-812504D01*
X185764Y-812456D01*
X184441Y-811572D01*
X182880Y-811262D01*
X181319Y-811572D01*
X179996Y-812456D01*
X179112Y-813779D01*
X178802Y-815340D01*
X179112Y-816901D01*
X179996Y-818224D01*
X181319Y-819108D01*
X182880Y-819418D01*
X184929Y-820322D01*
X185331Y-821323D01*
X185462Y-821981D01*
X186346Y-823304D01*
X187669Y-824188D01*
X188576Y-824368D01*
X189472Y-826216D01*
X189577Y-826960D01*
X187380Y-829157D01*
X186399Y-829352D01*
X185076Y-830236D01*
X184192Y-831559D01*
X183882Y-833120D01*
X184192Y-834681D01*
X184726Y-835480D01*
X184286Y-837456D01*
X183859Y-838242D01*
X182536Y-839126D01*
X181652Y-840449D01*
X181342Y-842010D01*
X181652Y-843571D01*
X182536Y-844894D01*
X183859Y-845778D01*
X185420Y-846088D01*
X186981Y-845778D01*
X188304Y-844894D01*
X189188Y-843571D01*
X189383Y-842590D01*
X237070Y-794903D01*
X239952Y-795613D01*
X240072Y-795999D01*
X239762Y-797560D01*
X240072Y-799121D01*
X240956Y-800444D01*
X242279Y-801328D01*
X243840Y-801638D01*
X245401Y-801328D01*
X246724Y-800444D01*
X247608Y-799121D01*
X247918Y-797560D01*
X247608Y-795999D01*
X246724Y-794676D01*
X247435Y-792158D01*
X267659Y-771935D01*
X286061D01*
X291733Y-777607D01*
X292484Y-778108D01*
X293370Y-778285D01*
X356870D01*
X357756Y-778108D01*
X358507Y-777607D01*
X419467Y-716647D01*
X419968Y-715896D01*
X420145Y-715010D01*
Y-688029D01*
X429627Y-678547D01*
X430128Y-677796D01*
X430304Y-676910D01*
Y-656590D01*
X430128Y-655704D01*
X429627Y-654953D01*
X354697Y-580023D01*
X353946Y-579522D01*
X353060Y-579346D01*
X342354D01*
X341974Y-578776D01*
X340651Y-577892D01*
X339090Y-577582D01*
D02*
G37*
G36*
X453430Y-667870D02*
X447840D01*
Y-670870D01*
X448037Y-671861D01*
X448599Y-672701D01*
X449439Y-673263D01*
X450430Y-673460D01*
X453430D01*
Y-667870D01*
D02*
G37*
G36*
X135950Y-617170D02*
X124341D01*
X124503Y-618407D01*
X125946Y-621889D01*
X128240Y-624879D01*
X131231Y-627174D01*
X134713Y-628616D01*
X135950Y-628779D01*
Y-617170D01*
D02*
G37*
G36*
X152559D02*
X140950D01*
Y-628779D01*
X142187Y-628616D01*
X145669Y-627174D01*
X148659Y-624879D01*
X150954Y-621889D01*
X152396Y-618407D01*
X152559Y-617170D01*
D02*
G37*
G36*
X409250Y-563648D02*
X398250D01*
X397485Y-563965D01*
X397168Y-564730D01*
Y-575730D01*
X397485Y-576495D01*
X398250Y-576812D01*
X398991D01*
X399162Y-576873D01*
X399319Y-576977D01*
X399483Y-577154D01*
X399656Y-577437D01*
X399822Y-577844D01*
X399966Y-578377D01*
X400075Y-579034D01*
X400144Y-579809D01*
X400157Y-580316D01*
X396257Y-584217D01*
X395483Y-585374D01*
X395211Y-586740D01*
Y-593771D01*
X395012Y-594069D01*
X394702Y-595630D01*
X395012Y-597191D01*
X395896Y-598514D01*
X397219Y-599398D01*
X398780Y-599708D01*
X400341Y-599398D01*
X400639Y-599199D01*
X403652D01*
X420387Y-615933D01*
X421544Y-616707D01*
X422910Y-616979D01*
X464880D01*
X466245Y-616707D01*
X467403Y-615933D01*
X469318Y-614019D01*
X476681D01*
Y-630110D01*
X476953Y-631476D01*
X477653Y-632523D01*
X477684Y-632609D01*
X478201Y-633172D01*
X478633Y-633737D01*
X479015Y-634340D01*
X479348Y-634982D01*
X479631Y-635667D01*
X479865Y-636394D01*
X480048Y-637167D01*
X480180Y-637986D01*
X480260Y-638853D01*
X480288Y-639798D01*
X480301Y-639827D01*
Y-650921D01*
X480102Y-651219D01*
X479792Y-652780D01*
X480102Y-654341D01*
X480301Y-654639D01*
Y-677591D01*
X480102Y-677889D01*
X479792Y-679450D01*
X480102Y-681011D01*
X480986Y-682334D01*
X482309Y-683218D01*
X483870Y-683528D01*
X485431Y-683218D01*
X486754Y-682334D01*
X487638Y-681011D01*
X487948Y-679450D01*
X487638Y-677889D01*
X487439Y-677591D01*
Y-665443D01*
X487451Y-665417D01*
X487497Y-664533D01*
X487622Y-663827D01*
X487817Y-663241D01*
X488074Y-662765D01*
X488389Y-662379D01*
X488775Y-662064D01*
X489251Y-661807D01*
X489837Y-661612D01*
X490543Y-661487D01*
X491286Y-661448D01*
X491967Y-661466D01*
X492748Y-661535D01*
X493410Y-661644D01*
X493948Y-661788D01*
X494358Y-661955D01*
X494644Y-662129D01*
X494823Y-662294D01*
X494928Y-662450D01*
X494958Y-662534D01*
Y-663360D01*
X495275Y-664125D01*
X496040Y-664442D01*
X507040D01*
X507805Y-664125D01*
X508122Y-663360D01*
Y-652360D01*
X507805Y-651595D01*
X507040Y-651278D01*
X496040D01*
X495275Y-651595D01*
X494958Y-652360D01*
Y-653186D01*
X494928Y-653270D01*
X494823Y-653426D01*
X494644Y-653591D01*
X494358Y-653765D01*
X493948Y-653932D01*
X493410Y-654076D01*
X492748Y-654185D01*
X491967Y-654254D01*
X491225Y-654273D01*
X490484Y-654253D01*
X490160Y-654224D01*
X487948Y-652780D01*
X487638Y-651219D01*
X487439Y-650921D01*
Y-641307D01*
X487680Y-641109D01*
X540431D01*
X540729Y-641308D01*
X542290Y-641618D01*
X543851Y-641308D01*
X545174Y-640424D01*
X546058Y-639101D01*
X546368Y-637540D01*
X546058Y-635979D01*
X545174Y-634656D01*
X543851Y-633772D01*
X542290Y-633462D01*
X540729Y-633772D01*
X540431Y-633971D01*
X489158D01*
X486425Y-631238D01*
X486412Y-631206D01*
X486406Y-631203D01*
X486403Y-631197D01*
X486370Y-631183D01*
X483819Y-628632D01*
Y-611649D01*
X484018Y-611351D01*
X484328Y-609790D01*
X484018Y-608229D01*
X483819Y-607931D01*
Y-588200D01*
X483547Y-586834D01*
X482773Y-585677D01*
X478883Y-581787D01*
X477726Y-581013D01*
X476474Y-580764D01*
X476395Y-580728D01*
X475147Y-580688D01*
X474678Y-580643D01*
X474288Y-580582D01*
X473994Y-580512D01*
X473942Y-580494D01*
Y-578810D01*
X473625Y-578045D01*
X472860Y-577728D01*
X461860D01*
X461095Y-578045D01*
X460778Y-578810D01*
Y-589810D01*
X461095Y-590575D01*
X461860Y-590892D01*
X472860D01*
X473625Y-590575D01*
X476057Y-591342D01*
X476478Y-591603D01*
X476681Y-592015D01*
Y-606881D01*
X467840D01*
X466474Y-607153D01*
X465316Y-607927D01*
X463402Y-609841D01*
X424388D01*
X407653Y-593107D01*
X406496Y-592333D01*
X405130Y-592061D01*
X402349D01*
Y-588218D01*
X406273Y-584293D01*
X407047Y-583136D01*
X407319Y-581770D01*
Y-580756D01*
X407332Y-580725D01*
X407356Y-579809D01*
X407425Y-579034D01*
X407534Y-578377D01*
X407677Y-577844D01*
X407844Y-577437D01*
X408017Y-577154D01*
X408181Y-576977D01*
X408338Y-576873D01*
X408509Y-576812D01*
X409250D01*
X410015Y-576495D01*
X410332Y-575730D01*
Y-564730D01*
X410015Y-563965D01*
X409250Y-563648D01*
D02*
G37*
G36*
X58950Y-620707D02*
X56501Y-621030D01*
X54219Y-621975D01*
X52259Y-623479D01*
X50755Y-625439D01*
X49809Y-627721D01*
X49487Y-630170D01*
X49809Y-632619D01*
X50755Y-634902D01*
X52259Y-636861D01*
X54219Y-638365D01*
X56501Y-639310D01*
X58950Y-639633D01*
X61399Y-639310D01*
X63682Y-638365D01*
X65641Y-636861D01*
X67145Y-634902D01*
X68091Y-632619D01*
X68413Y-630170D01*
X68091Y-627721D01*
X67145Y-625439D01*
X65641Y-623479D01*
X63682Y-621975D01*
X61399Y-621030D01*
X58950Y-620707D01*
D02*
G37*
G36*
X964940Y-617180D02*
X955452D01*
Y-619379D01*
X955649Y-620370D01*
X956211Y-621210D01*
X960910Y-625909D01*
X961750Y-626471D01*
X962741Y-626668D01*
X964940D01*
Y-617180D01*
D02*
G37*
G36*
X946739Y-604199D02*
X946739Y-604200D01*
X937341D01*
X936576Y-604517D01*
X931877Y-609216D01*
X931877Y-609216D01*
X931560Y-609981D01*
X931560Y-609981D01*
Y-619379D01*
X931877Y-620144D01*
X936575Y-624843D01*
X936576Y-624843D01*
X937341Y-625160D01*
X937341Y-625160D01*
X946739D01*
X947504Y-624843D01*
X952203Y-620145D01*
X952203Y-620144D01*
X952521Y-619379D01*
X952520Y-619379D01*
Y-609981D01*
X952203Y-609216D01*
X947504Y-604517D01*
Y-604517D01*
X946739Y-604199D01*
D02*
G37*
G36*
X107950Y-618859D02*
X107898Y-618881D01*
X107844Y-618864D01*
X104658Y-619178D01*
X104560Y-619230D01*
X104450Y-619219D01*
X101387Y-620149D01*
X101301Y-620219D01*
X101191Y-620230D01*
X98368Y-621739D01*
X98298Y-621824D01*
X98192Y-621856D01*
X95717Y-623887D01*
X95665Y-623985D01*
X95567Y-624037D01*
X93537Y-626512D01*
X93504Y-626618D01*
X93419Y-626688D01*
X91910Y-629511D01*
X91899Y-629621D01*
X91828Y-629707D01*
X90899Y-632770D01*
X90910Y-632881D01*
X90858Y-632978D01*
X90544Y-636164D01*
X90576Y-636270D01*
X90544Y-636376D01*
X90858Y-639562D01*
X90910Y-639660D01*
X90899Y-639770D01*
X91828Y-642833D01*
X91899Y-642919D01*
X91910Y-643029D01*
X93419Y-645852D01*
X93504Y-645922D01*
X93537Y-646028D01*
X95567Y-648503D01*
X95665Y-648555D01*
X95717Y-648653D01*
X98192Y-650684D01*
X98298Y-650716D01*
X98368Y-650801D01*
X101191Y-652310D01*
X101301Y-652321D01*
X101387Y-652392D01*
X104450Y-653321D01*
X104560Y-653310D01*
X104658Y-653362D01*
X107844Y-653676D01*
X107898Y-653660D01*
X107950Y-653681D01*
X108002Y-653660D01*
X108056Y-653676D01*
X111242Y-653362D01*
X111340Y-653310D01*
X111450Y-653321D01*
X114513Y-652392D01*
X114599Y-652321D01*
X114709Y-652310D01*
X117532Y-650801D01*
X117602Y-650716D01*
X117708Y-650684D01*
X120183Y-648653D01*
X120235Y-648555D01*
X120333Y-648503D01*
X122364Y-646028D01*
X122396Y-645922D01*
X122481Y-645852D01*
X123990Y-643029D01*
X124001Y-642919D01*
X124072Y-642833D01*
X125001Y-639770D01*
X124990Y-639660D01*
X125042Y-639562D01*
X125356Y-636376D01*
X125324Y-636270D01*
X125356Y-636164D01*
X125042Y-632978D01*
X124990Y-632881D01*
X125001Y-632770D01*
X124072Y-629707D01*
X124001Y-629621D01*
X123990Y-629511D01*
X122481Y-626688D01*
X122396Y-626618D01*
X122364Y-626512D01*
X120333Y-624037D01*
X120235Y-623985D01*
X120183Y-623887D01*
X117708Y-621856D01*
X117602Y-621824D01*
X117532Y-621739D01*
X114709Y-620230D01*
X114599Y-620219D01*
X114513Y-620149D01*
X111450Y-619219D01*
X111340Y-619230D01*
X111242Y-619178D01*
X108056Y-618864D01*
X108002Y-618881D01*
X107950Y-618859D01*
D02*
G37*
G36*
X979428Y-617180D02*
X969940D01*
Y-626668D01*
X972139D01*
X973130Y-626471D01*
X973970Y-625909D01*
X978669Y-621210D01*
X979231Y-620370D01*
X979428Y-619379D01*
Y-617180D01*
D02*
G37*
G36*
X964940Y-602692D02*
X962741D01*
X961750Y-602889D01*
X960910Y-603451D01*
X956211Y-608150D01*
X955649Y-608990D01*
X955452Y-609981D01*
Y-612180D01*
X964940D01*
Y-602692D01*
D02*
G37*
G36*
X135950Y-600561D02*
X134713Y-600723D01*
X131231Y-602166D01*
X128240Y-604460D01*
X125946Y-607451D01*
X124503Y-610933D01*
X124341Y-612170D01*
X135950D01*
Y-600561D01*
D02*
G37*
G36*
X140950D02*
Y-612170D01*
X152559D01*
X152396Y-610933D01*
X150954Y-607451D01*
X148659Y-604460D01*
X145669Y-602166D01*
X142187Y-600723D01*
X140950Y-600561D01*
D02*
G37*
G36*
X76650Y-644883D02*
Y-653070D01*
X84837D01*
X84791Y-652719D01*
X83690Y-650062D01*
X81940Y-647780D01*
X79658Y-646030D01*
X77001Y-644929D01*
X76650Y-644883D01*
D02*
G37*
G36*
X914140Y-591780D02*
X904652D01*
Y-593979D01*
X904849Y-594970D01*
X905411Y-595810D01*
X910109Y-600509D01*
X910950Y-601071D01*
X911941Y-601268D01*
X914140D01*
Y-591780D01*
D02*
G37*
G36*
X972139Y-602692D02*
X969940D01*
Y-612180D01*
X979428D01*
Y-609981D01*
X979231Y-608990D01*
X978669Y-608150D01*
X973970Y-603451D01*
X973130Y-602889D01*
X972139Y-602692D01*
D02*
G37*
G36*
X1454291Y-641621D02*
X1454150Y-641658D01*
X1454009Y-641621D01*
X1451398Y-641964D01*
X1451272Y-642037D01*
X1451125D01*
X1448693Y-643045D01*
X1448589Y-643148D01*
X1448448Y-643186D01*
X1446359Y-644789D01*
X1446286Y-644916D01*
X1446159Y-644989D01*
X1444556Y-647078D01*
X1444518Y-647219D01*
X1444415Y-647323D01*
X1443407Y-649755D01*
Y-649902D01*
X1443334Y-650028D01*
X1442991Y-652639D01*
X1443010Y-652711D01*
X1442981Y-652780D01*
X1443010Y-652849D01*
X1442991Y-652921D01*
X1443334Y-655532D01*
X1443407Y-655658D01*
Y-655805D01*
X1444415Y-658237D01*
X1444518Y-658341D01*
X1444556Y-658482D01*
X1446159Y-660571D01*
X1446286Y-660644D01*
X1446359Y-660771D01*
X1448448Y-662374D01*
X1448589Y-662412D01*
X1448693Y-662515D01*
X1451125Y-663523D01*
X1451272D01*
X1451398Y-663596D01*
X1454009Y-663939D01*
X1454150Y-663902D01*
X1454291Y-663939D01*
X1456902Y-663596D01*
X1457029Y-663523D01*
X1457175D01*
X1459607Y-662515D01*
X1459711Y-662412D01*
X1459852Y-662374D01*
X1461941Y-660771D01*
X1462014Y-660644D01*
X1462141Y-660571D01*
X1463744Y-658482D01*
X1463782Y-658341D01*
X1463885Y-658237D01*
X1464893Y-655805D01*
Y-655658D01*
X1464966Y-655532D01*
X1465309Y-652921D01*
X1465290Y-652849D01*
X1465319Y-652780D01*
X1465290Y-652711D01*
X1465309Y-652639D01*
X1464966Y-650028D01*
X1464893Y-649902D01*
Y-649755D01*
X1463885Y-647323D01*
X1463782Y-647219D01*
X1463744Y-647078D01*
X1462141Y-644989D01*
X1462014Y-644916D01*
X1461941Y-644789D01*
X1459852Y-643186D01*
X1459711Y-643148D01*
X1459607Y-643045D01*
X1457175Y-642037D01*
X1457029D01*
X1456902Y-641964D01*
X1454291Y-641621D01*
D02*
G37*
%LPD*%
G36*
X584598Y-745050D02*
X584427Y-744892D01*
X584242Y-744751D01*
X584042Y-744627D01*
X583827Y-744519D01*
X583597Y-744427D01*
X583352Y-744353D01*
X583092Y-744295D01*
X582817Y-744253D01*
X582527Y-744228D01*
X582222Y-744220D01*
Y-741680D01*
X582527Y-741672D01*
X582817Y-741647D01*
X583092Y-741605D01*
X583352Y-741547D01*
X583597Y-741472D01*
X583827Y-741381D01*
X584042Y-741273D01*
X584242Y-741149D01*
X584427Y-741008D01*
X584598Y-740850D01*
Y-745050D01*
D02*
G37*
G36*
X575083Y-741008D02*
X575268Y-741149D01*
X575468Y-741273D01*
X575683Y-741381D01*
X575913Y-741472D01*
X576158Y-741547D01*
X576418Y-741605D01*
X576693Y-741647D01*
X576983Y-741672D01*
X577288Y-741680D01*
Y-744220D01*
X576983Y-744228D01*
X576693Y-744253D01*
X576418Y-744295D01*
X576158Y-744353D01*
X575913Y-744427D01*
X575683Y-744519D01*
X575468Y-744627D01*
X575268Y-744751D01*
X575083Y-744892D01*
X574912Y-745050D01*
Y-740850D01*
X575083Y-741008D01*
D02*
G37*
G36*
X201890Y-914350D02*
X201550Y-914849D01*
X201250Y-915422D01*
X200990Y-916065D01*
X200770Y-916781D01*
X200590Y-917569D01*
X200450Y-918429D01*
X200350Y-919361D01*
X200270Y-921440D01*
X190270D01*
X190250Y-920365D01*
X190090Y-918429D01*
X189950Y-917569D01*
X189770Y-916781D01*
X189550Y-916065D01*
X189290Y-915422D01*
X188990Y-914849D01*
X188650Y-914350D01*
X188270Y-913921D01*
X202270D01*
X201890Y-914350D01*
D02*
G37*
G36*
X336510D02*
X336170Y-914849D01*
X335870Y-915422D01*
X335610Y-916065D01*
X335390Y-916781D01*
X335210Y-917569D01*
X335070Y-918429D01*
X334970Y-919361D01*
X334890Y-921440D01*
X324890D01*
X324870Y-920365D01*
X324710Y-918429D01*
X324570Y-917569D01*
X324390Y-916781D01*
X324170Y-916065D01*
X323910Y-915422D01*
X323610Y-914849D01*
X323270Y-914350D01*
X322890Y-913921D01*
X336890D01*
X336510Y-914350D01*
D02*
G37*
G36*
X386561Y-861795D02*
X390195Y-864944D01*
X391119Y-865646D01*
X393931Y-867549D01*
X394882Y-868115D01*
X381750Y-870971D01*
X382262Y-870173D01*
X382649Y-869387D01*
X382910Y-868614D01*
X383047Y-867854D01*
X383058Y-867107D01*
X382944Y-866373D01*
X382705Y-865651D01*
X382341Y-864942D01*
X381851Y-864246D01*
X381237Y-863563D01*
X385669Y-860923D01*
X386561Y-861795D01*
D02*
G37*
G36*
X256456Y-680903D02*
X256421Y-680869D01*
X256358Y-680837D01*
X256267Y-680810D01*
X256147Y-680786D01*
X256000Y-680766D01*
X255618Y-680736D01*
X254834Y-680720D01*
Y-678180D01*
X255124Y-678178D01*
X256147Y-678114D01*
X256267Y-678090D01*
X256358Y-678063D01*
X256421Y-678031D01*
X256456Y-677997D01*
Y-680903D01*
D02*
G37*
G36*
X268368Y-685360D02*
X268197Y-685202D01*
X268012Y-685061D01*
X267812Y-684937D01*
X267597Y-684829D01*
X267367Y-684737D01*
X267122Y-684663D01*
X266862Y-684605D01*
X266587Y-684563D01*
X266297Y-684538D01*
X265992Y-684530D01*
Y-681990D01*
X266297Y-681982D01*
X266587Y-681957D01*
X266862Y-681915D01*
X267122Y-681857D01*
X267367Y-681783D01*
X267597Y-681691D01*
X267812Y-681583D01*
X268012Y-681459D01*
X268197Y-681318D01*
X268368Y-681160D01*
Y-685360D01*
D02*
G37*
G36*
X179824Y-646671D02*
X179901Y-646887D01*
X180028Y-647078D01*
X180205Y-647243D01*
X180434Y-647383D01*
X180713Y-647497D01*
X181044Y-647586D01*
X181425Y-647649D01*
X181856Y-647687D01*
X182339Y-647700D01*
Y-650240D01*
X181856Y-650253D01*
X181425Y-650291D01*
X181044Y-650354D01*
X180713Y-650443D01*
X180434Y-650557D01*
X180205Y-650697D01*
X180028Y-650862D01*
X179901Y-651053D01*
X179824Y-651269D01*
X179799Y-651510D01*
Y-646430D01*
X179824Y-646671D01*
D02*
G37*
G36*
X203720Y-656676D02*
X205388Y-658147D01*
X206171Y-658745D01*
X206921Y-659251D01*
X207637Y-659664D01*
X208320Y-659986D01*
X208968Y-660216D01*
X209583Y-660354D01*
X210164Y-660400D01*
Y-662940D01*
X209583Y-662986D01*
X208968Y-663124D01*
X208320Y-663354D01*
X207637Y-663676D01*
X206921Y-664089D01*
X206171Y-664595D01*
X205388Y-665193D01*
X203720Y-666664D01*
X202836Y-667537D01*
Y-655803D01*
X203720Y-656676D01*
D02*
G37*
G36*
X552223Y-747358D02*
X552408Y-747499D01*
X552608Y-747623D01*
X552823Y-747731D01*
X553053Y-747822D01*
X553298Y-747897D01*
X553558Y-747955D01*
X553833Y-747997D01*
X554123Y-748022D01*
X554428Y-748030D01*
Y-750570D01*
X554123Y-750578D01*
X553833Y-750603D01*
X553558Y-750645D01*
X553298Y-750703D01*
X553053Y-750778D01*
X552823Y-750869D01*
X552608Y-750977D01*
X552408Y-751101D01*
X552223Y-751242D01*
X552052Y-751400D01*
Y-747200D01*
X552223Y-747358D01*
D02*
G37*
G36*
X561738Y-751400D02*
X561567Y-751242D01*
X561382Y-751101D01*
X561182Y-750977D01*
X560967Y-750869D01*
X560737Y-750778D01*
X560492Y-750703D01*
X560232Y-750645D01*
X559957Y-750603D01*
X559667Y-750578D01*
X559362Y-750570D01*
Y-748030D01*
X559667Y-748022D01*
X559957Y-747997D01*
X560232Y-747955D01*
X560492Y-747897D01*
X560737Y-747822D01*
X560967Y-747731D01*
X561182Y-747623D01*
X561382Y-747499D01*
X561567Y-747358D01*
X561738Y-747200D01*
Y-751400D01*
D02*
G37*
G36*
X694132Y-698500D02*
Y-699810D01*
X706120D01*
Y-704810D01*
X694132D01*
Y-707009D01*
X694329Y-708000D01*
X694891Y-708840D01*
X699589Y-713539D01*
X700430Y-714101D01*
X701421Y-714298D01*
X707390D01*
X707390Y-765810D01*
X664210Y-765810D01*
X588010Y-765810D01*
X588010Y-756920D01*
X607060Y-737870D01*
X614680Y-730250D01*
X655320Y-730250D01*
X688340Y-697230D01*
X693020D01*
X694132Y-698500D01*
D02*
G37*
G36*
X492409Y-711612D02*
X492193Y-711689D01*
X492002Y-711816D01*
X491837Y-711993D01*
X491698Y-712222D01*
X491583Y-712501D01*
X491494Y-712832D01*
X491431Y-713213D01*
X491393Y-713644D01*
X491380Y-714127D01*
X488840D01*
X488827Y-713644D01*
X488789Y-713213D01*
X488726Y-712832D01*
X488637Y-712501D01*
X488522Y-712222D01*
X488383Y-711993D01*
X488218Y-711816D01*
X488027Y-711689D01*
X487811Y-711612D01*
X487570Y-711587D01*
X492650D01*
X492409Y-711612D01*
D02*
G37*
G36*
X468075Y-688859D02*
X467650Y-689010D01*
X467275Y-689262D01*
X466950Y-689614D01*
X466675Y-690067D01*
X466450Y-690620D01*
X466275Y-691274D01*
X466150Y-692029D01*
X466075Y-692884D01*
X466050Y-693839D01*
X461050D01*
X461025Y-692884D01*
X460950Y-692029D01*
X460825Y-691274D01*
X460650Y-690620D01*
X460425Y-690067D01*
X460150Y-689614D01*
X459825Y-689262D01*
X459759Y-689218D01*
X459655Y-689287D01*
X459330Y-689637D01*
X459055Y-690087D01*
X458830Y-690637D01*
X458655Y-691287D01*
X458530Y-692037D01*
X458455Y-692887D01*
X458430Y-693837D01*
X453430D01*
X453405Y-692887D01*
X453330Y-692037D01*
X453205Y-691287D01*
X453030Y-690637D01*
X452805Y-690087D01*
X452530Y-689637D01*
X452205Y-689287D01*
X451830Y-689037D01*
X451405Y-688887D01*
X450930Y-688837D01*
X458814D01*
X458550Y-688809D01*
X468550D01*
X468075Y-688859D01*
D02*
G37*
G36*
X475005Y-702793D02*
X475082Y-703224D01*
X475209Y-703605D01*
X475386Y-703936D01*
X475615Y-704215D01*
X475894Y-704444D01*
X476225Y-704621D01*
X476606Y-704748D01*
X477037Y-704825D01*
X477520Y-704850D01*
X473710Y-707390D01*
X469900Y-704850D01*
X470383Y-704825D01*
X470814Y-704748D01*
X471195Y-704621D01*
X471526Y-704444D01*
X471805Y-704215D01*
X472034Y-703936D01*
X472211Y-703605D01*
X472338Y-703224D01*
X472415Y-702793D01*
X472440Y-702310D01*
X474980D01*
X475005Y-702793D01*
D02*
G37*
G36*
X466049Y-704643D02*
X466210Y-704686D01*
X466392Y-704725D01*
X466814Y-704786D01*
X467315Y-704827D01*
X468216Y-704850D01*
X469620Y-707390D01*
X469309Y-707400D01*
X469023Y-707430D01*
X468762Y-707480D01*
X468527Y-707549D01*
X468318Y-707639D01*
X468133Y-707748D01*
X467974Y-707878D01*
X467841Y-708027D01*
X467733Y-708196D01*
X467650Y-708386D01*
X465908Y-704594D01*
X466049Y-704643D01*
D02*
G37*
G36*
X484674Y-708660D02*
X484648Y-708419D01*
X484571Y-708203D01*
X484442Y-708012D01*
X484262Y-707847D01*
X484031Y-707708D01*
X483748Y-707593D01*
X483414Y-707504D01*
X483028Y-707441D01*
X482591Y-707403D01*
X482103Y-707390D01*
Y-704850D01*
X482591Y-704837D01*
X483028Y-704799D01*
X483414Y-704736D01*
X483748Y-704647D01*
X484031Y-704532D01*
X484262Y-704393D01*
X484442Y-704228D01*
X484571Y-704037D01*
X484648Y-703821D01*
X484674Y-703580D01*
Y-708660D01*
D02*
G37*
G36*
X475652Y-644933D02*
X475511Y-645118D01*
X475387Y-645318D01*
X475279Y-645533D01*
X475187Y-645763D01*
X475113Y-646008D01*
X475055Y-646268D01*
X475013Y-646543D01*
X474988Y-646833D01*
X474980Y-647138D01*
X472440D01*
X472432Y-646833D01*
X472407Y-646543D01*
X472365Y-646268D01*
X472307Y-646008D01*
X472233Y-645763D01*
X472141Y-645533D01*
X472033Y-645318D01*
X471909Y-645118D01*
X471768Y-644933D01*
X471610Y-644762D01*
X475810D01*
X475652Y-644933D01*
D02*
G37*
G36*
X491393Y-718921D02*
X491431Y-719358D01*
X491494Y-719744D01*
X491583Y-720078D01*
X491698Y-720361D01*
X491837Y-720592D01*
X492002Y-720772D01*
X492193Y-720901D01*
X492409Y-720978D01*
X492650Y-721003D01*
X487570D01*
X487811Y-720978D01*
X488027Y-720901D01*
X488218Y-720772D01*
X488383Y-720592D01*
X488522Y-720361D01*
X488637Y-720078D01*
X488726Y-719744D01*
X488789Y-719358D01*
X488827Y-718921D01*
X488840Y-718433D01*
X491380D01*
X491393Y-718921D01*
D02*
G37*
G36*
X408275Y-575747D02*
X407850Y-575897D01*
X407475Y-576147D01*
X407150Y-576497D01*
X406875Y-576947D01*
X406650Y-577497D01*
X406475Y-578147D01*
X406350Y-578897D01*
X406275Y-579747D01*
X406250Y-580697D01*
X401250D01*
X401225Y-579747D01*
X401150Y-578897D01*
X401025Y-578147D01*
X400850Y-577497D01*
X400625Y-576947D01*
X400350Y-576497D01*
X400025Y-576147D01*
X399650Y-575897D01*
X399225Y-575747D01*
X398750Y-575697D01*
X408750D01*
X408275Y-575747D01*
D02*
G37*
G36*
X472832Y-580973D02*
X472939Y-581149D01*
X473117Y-581304D01*
X473367Y-581438D01*
X473687Y-581552D01*
X474079Y-581645D01*
X474543Y-581717D01*
X475077Y-581769D01*
X476360Y-581810D01*
Y-586810D01*
X475683Y-586820D01*
X474543Y-586903D01*
X474079Y-586975D01*
X473687Y-587068D01*
X473367Y-587182D01*
X473117Y-587316D01*
X472939Y-587471D01*
X472832Y-587647D01*
X472797Y-587843D01*
Y-580777D01*
X472832Y-580973D01*
D02*
G37*
G36*
X486420Y-653270D02*
X486570Y-653709D01*
X486820Y-654096D01*
X487170Y-654431D01*
X487620Y-654715D01*
X488170Y-654947D01*
X488820Y-655128D01*
X489570Y-655257D01*
X490420Y-655334D01*
X491224Y-655356D01*
X492029Y-655335D01*
X492884Y-655260D01*
X493638Y-655135D01*
X494292Y-654960D01*
X494846Y-654735D01*
X495299Y-654460D01*
X495651Y-654135D01*
X495902Y-653760D01*
X496053Y-653335D01*
X496104Y-652860D01*
Y-662860D01*
X496053Y-662385D01*
X495902Y-661960D01*
X495651Y-661585D01*
X495299Y-661260D01*
X494846Y-660985D01*
X494292Y-660760D01*
X493638Y-660585D01*
X492884Y-660460D01*
X492029Y-660385D01*
X491271Y-660365D01*
X490420Y-660410D01*
X489570Y-660560D01*
X488820Y-660810D01*
X488170Y-661160D01*
X487620Y-661610D01*
X487170Y-662160D01*
X486820Y-662810D01*
X486570Y-663560D01*
X486420Y-664410D01*
X486370Y-665360D01*
X483870Y-657860D01*
X486370Y-652780D01*
X486420Y-653270D01*
D02*
G37*
G36*
X485638Y-631962D02*
X483870Y-633730D01*
X481370Y-639766D01*
X481341Y-638787D01*
X481255Y-637850D01*
X481110Y-636956D01*
X480908Y-636104D01*
X480648Y-635294D01*
X480330Y-634526D01*
X479955Y-633801D01*
X479522Y-633117D01*
X479031Y-632476D01*
X478482Y-631878D01*
X485638Y-631962D01*
D02*
G37*
D17*
X948690Y-674480D02*
D03*
Y-656480D02*
D03*
X980440Y-674480D02*
D03*
Y-656480D02*
D03*
X455930Y-665370D02*
D03*
Y-683370D02*
D03*
X467360Y-566310D02*
D03*
Y-584310D02*
D03*
D19*
X519540Y-657860D02*
D03*
X501540D02*
D03*
X421750Y-570230D02*
D03*
X403750D02*
D03*
X508110Y-726440D02*
D03*
X490110D02*
D03*
X508110Y-706120D02*
D03*
X490110D02*
D03*
D51*
X185420Y-842010D02*
X186690D01*
X187960Y-831850D02*
X261620Y-758190D01*
X187960Y-833120D02*
Y-831850D01*
X190500Y-820420D02*
X257810Y-753110D01*
X189230Y-820420D02*
X190500D01*
X186690Y-815340D02*
X254000Y-748030D01*
X182880Y-815340D02*
X186690D01*
X356870Y-775970D02*
X417830Y-715010D01*
X297370Y-769430D02*
X354520D01*
X297180Y-769620D02*
X297370Y-769430D01*
X354520D02*
X412750Y-711200D01*
X293370Y-775970D02*
X356870D01*
X243840Y-797560D02*
Y-792480D01*
X266700Y-769620D01*
X287020D01*
X293370Y-775970D01*
X334010Y-699770D02*
X341630D01*
X318770Y-715010D02*
X334010Y-699770D01*
X231805Y-715010D02*
X318770D01*
X228600Y-736600D02*
X240030Y-725170D01*
X228600Y-748998D02*
Y-736600D01*
X181308Y-796290D02*
X228600Y-748998D01*
X322640Y-720090D02*
X334503Y-708227D01*
X235918Y-720090D02*
X322640D01*
X222250Y-733758D02*
X235918Y-720090D01*
X217170Y-729645D02*
X231805Y-715010D01*
X328930Y-725170D02*
X331470Y-722630D01*
X240030Y-725170D02*
X328930D01*
X217170Y-746229D02*
Y-729645D01*
X203123Y-760276D02*
X217170Y-746229D01*
X222250Y-748030D02*
Y-733758D01*
X180990Y-789290D02*
X222250Y-748030D01*
X163470Y-789290D02*
X180990D01*
X178617Y-760276D02*
X203123D01*
X417830Y-715010D02*
Y-687070D01*
X412750Y-711200D02*
Y-683410D01*
X407670Y-708660D02*
Y-678180D01*
X353060Y-763270D02*
X407670Y-708660D01*
X265430Y-763270D02*
X353060D01*
X402590Y-704850D02*
Y-676910D01*
X349250Y-758190D02*
X402590Y-704850D01*
X261620Y-758190D02*
X349250D01*
X397510Y-702310D02*
Y-680720D01*
X346710Y-753110D02*
X397510Y-702310D01*
X257810Y-753110D02*
X346710D01*
X341630Y-748030D02*
X387350Y-702310D01*
X254000Y-748030D02*
X341630D01*
X427990Y-676910D02*
Y-656590D01*
X417830Y-687070D02*
X427990Y-676910D01*
X423060Y-673100D02*
Y-659280D01*
X412750Y-683410D02*
X423060Y-673100D01*
X353060Y-589280D02*
X423060Y-659280D01*
X339090Y-589280D02*
X353060D01*
X331470Y-596900D02*
X339090Y-589280D01*
X407670Y-678180D02*
X411480Y-674370D01*
X186690Y-842010D02*
X265430Y-763270D01*
X353060Y-581660D02*
X427990Y-656590D01*
X339090Y-581660D02*
X353060D01*
Y-601980D02*
X359410Y-608330D01*
Y-633730D02*
Y-608330D01*
Y-633730D02*
X402590Y-676910D01*
X353060Y-636270D02*
X397510Y-680720D01*
X353060Y-636270D02*
Y-614680D01*
X666750Y-627380D02*
X688340D01*
X659780Y-633110D02*
X692770D01*
X161290Y-560070D02*
X180377Y-579157D01*
X161290Y-560070D02*
Y-552450D01*
X147320Y-561340D02*
X175914Y-589934D01*
X825500Y-612140D02*
X826770D01*
X807720Y-629920D02*
X825500Y-612140D01*
X821207Y-608330D02*
X859307Y-570230D01*
X796290Y-608330D02*
X821207D01*
X793750Y-610870D02*
X796290Y-608330D01*
X835660Y-603250D02*
X862330Y-576580D01*
X835660Y-615950D02*
Y-603250D01*
X816610Y-635000D02*
X835660Y-615950D01*
X722630Y-635000D02*
X816610D01*
X784860Y-610870D02*
X793750D01*
X819150Y-601980D02*
X855980Y-565150D01*
X793750Y-601980D02*
X819150D01*
X715630Y-628000D02*
X722630Y-635000D01*
X718820Y-622300D02*
X726440Y-629920D01*
X770890Y-624840D02*
X784860Y-610870D01*
X721360Y-614680D02*
X731520Y-624840D01*
X770890D01*
X726440Y-629920D02*
X807720D01*
X764730Y-619760D02*
X775860Y-608630D01*
X735330Y-619760D02*
X764730D01*
X724010Y-608440D02*
X735330Y-619760D01*
X706120Y-614680D02*
X721360D01*
X693420Y-622300D02*
X718820D01*
X862330Y-576580D02*
X1055370D01*
X170752Y-595322D02*
X289352D01*
X144585Y-569155D02*
X170752Y-595322D01*
X155135Y-561052D02*
Y-558605D01*
X349250Y-610870D02*
X353060Y-614680D01*
X342900Y-610870D02*
X349250D01*
X344170Y-601980D02*
X353060D01*
X576580Y-702310D02*
X579190Y-704920D01*
X775860Y-608440D02*
X782320Y-601980D01*
X793750D01*
X659130Y-632460D02*
X659780Y-633110D01*
X692770D02*
X697880Y-628000D01*
X688340Y-627380D02*
X693420Y-622300D01*
X697880Y-628000D02*
X715630D01*
X775860Y-608630D02*
Y-608440D01*
X712360D02*
X724010D01*
X855980Y-565150D02*
X1061720D01*
X1073150Y-576580D01*
X859307Y-570230D02*
X1057910D01*
X1069340Y-581660D01*
X1055370Y-576580D02*
X1065530Y-586740D01*
X1073150Y-576580D02*
X1116330D01*
X1122680Y-570230D01*
X1130300D01*
X1118870Y-581660D02*
X1122680Y-577850D01*
X1125220D01*
X1126490D01*
X1065530Y-586740D02*
X1129030D01*
X1130300Y-588010D01*
X175914Y-589934D02*
X296564D01*
X308610Y-601980D01*
X312420D01*
X289352Y-595322D02*
X296003Y-601973D01*
X298450D01*
X299676Y-584546D02*
X308220Y-593090D01*
X316230D01*
X304837Y-579157D02*
X311150Y-585470D01*
X180377Y-579157D02*
X304837D01*
X311150Y-585470D02*
X322580D01*
X980440Y-683260D02*
Y-672480D01*
X948690Y-683110D02*
Y-672210D01*
X896620Y-685800D02*
X946000D01*
X948690Y-683110D01*
X490110Y-726440D02*
Y-706120D01*
X464820Y-707390D02*
X466090Y-706120D01*
X473710D01*
X490110D01*
X473710D02*
Y-642620D01*
X613410Y-687070D02*
X614680Y-685800D01*
X572770Y-742950D02*
X586740D01*
X549910Y-749300D02*
X563880D01*
X1069340Y-581660D02*
X1118870D01*
X254834Y-679450D02*
X259080D01*
X196850Y-661670D02*
X229870D01*
X237490Y-674370D02*
Y-669290D01*
X234950Y-676910D02*
X237490Y-674370D01*
X234950Y-681990D02*
Y-676910D01*
Y-681990D02*
X239220Y-686260D01*
X261901D01*
X264901Y-683260D01*
X270510D01*
X171450Y-648970D02*
X224354D01*
X233462Y-658078D01*
X241082Y-665698D02*
X254834Y-679450D01*
X229870Y-661670D02*
X237490Y-669290D01*
X233462Y-658078D02*
X241082Y-665698D01*
X334503Y-708227D02*
X336550D01*
X166370Y-796290D02*
X181308D01*
X99060Y-798830D02*
X153931D01*
X163470Y-789290D01*
X128270Y-709930D02*
Y-694690D01*
Y-709930D02*
X178617Y-760276D01*
X548640Y-849630D02*
X554990D01*
X534670Y-835660D02*
X548640Y-849630D01*
X502920Y-854710D02*
X533400Y-824230D01*
X971550Y-692150D02*
X980440Y-683260D01*
X579190Y-704920D02*
X605720D01*
X618490Y-692150D01*
X582930Y-715010D02*
X604520D01*
X621030Y-698500D01*
X866140Y-655320D02*
X896620Y-685800D01*
X732790Y-655320D02*
X866140D01*
X721360Y-666750D02*
X732790Y-655320D01*
X664210Y-666750D02*
X721360D01*
X645160Y-685800D02*
X664210Y-666750D01*
X614680Y-685800D02*
X645160D01*
X618490Y-692150D02*
X647700D01*
X666750Y-673100D01*
X725170D01*
X736600Y-661670D01*
X861060D01*
X891540Y-692150D01*
X971550D01*
X741870Y-667830D02*
X855790D01*
X731520Y-678180D02*
X741870Y-667830D01*
X671830Y-678180D02*
X731520D01*
X651510Y-698500D02*
X671830Y-678180D01*
X621030Y-698500D02*
X651510D01*
X609760Y-798510D02*
Y-795970D01*
Y-762580D01*
X502920Y-857250D02*
Y-854710D01*
X464065Y-855298D02*
X473826Y-865060D01*
X478986Y-870220D01*
X462280Y-768350D02*
X462470Y-768540D01*
Y-775780D02*
Y-768540D01*
X416560Y-840740D02*
X468630Y-892810D01*
X416560Y-840740D02*
Y-781050D01*
X438150Y-759460D01*
X421640Y-838200D02*
X471170Y-887730D01*
X421640Y-838200D02*
Y-784860D01*
X439420Y-767080D01*
X426720Y-835660D02*
X473710Y-882650D01*
X426720Y-835660D02*
Y-788670D01*
X440690Y-774700D01*
X431800Y-834390D02*
X476250Y-878840D01*
X431800Y-834390D02*
Y-791210D01*
X448310Y-774700D01*
X436880Y-834149D02*
X476491Y-873760D01*
X436880Y-834149D02*
Y-793750D01*
X457200Y-773430D01*
X441960Y-833194D02*
X464065Y-855298D01*
X441960Y-833194D02*
Y-796290D01*
X462470Y-775780D01*
X449580Y-758190D02*
X499110D01*
X444500Y-753110D02*
X449580Y-758190D01*
X393700Y-753110D02*
X444500D01*
X499110Y-758190D02*
X527050Y-786130D01*
X589600D01*
X599760Y-775970D01*
X478986Y-870220D02*
X599440D01*
X476491Y-873760D02*
X607060D01*
X473710Y-882650D02*
X615950D01*
X772160Y-873760D02*
Y-848360D01*
X476250Y-878840D02*
X610870D01*
X855790Y-667830D02*
X955040Y-767080D01*
X988060D01*
X993140Y-812800D02*
X1118870D01*
X1126490Y-820420D01*
X1202690D01*
X876300Y-908050D02*
X1050290D01*
X1057910Y-915670D01*
X873760Y-914400D02*
X1043940D01*
X1050290Y-920750D01*
X155135Y-561052D02*
X178629Y-584546D01*
X299676D01*
X599440Y-870220D02*
X603250Y-866410D01*
Y-866140D01*
X607060Y-873760D02*
X608330Y-872490D01*
X615950Y-882650D02*
X618490Y-880110D01*
X610870Y-878840D02*
X617220Y-872490D01*
X636270Y-892810D02*
X647065Y-903605D01*
X862965D01*
X468630Y-892810D02*
X636270D01*
X862965Y-903605D02*
X873760Y-914400D01*
X471170Y-887730D02*
X645160D01*
X654050Y-896620D01*
X864870D01*
X876300Y-908050D01*
X657860Y-880110D02*
X668020Y-890270D01*
X665480Y-875030D02*
X674370Y-883920D01*
X792480Y-890270D02*
X801280Y-881470D01*
X668020Y-890270D02*
X792480D01*
X801280Y-881470D02*
Y-861060D01*
X762000Y-883920D02*
X772160Y-873760D01*
X674370Y-883920D02*
X762000D01*
D52*
X1085850Y-949960D02*
Y-920750D01*
X764930Y-830580D02*
X864870D01*
X740410Y-806060D02*
X764930Y-830580D01*
X632460Y-760200D02*
Y-744220D01*
X285750Y-980440D02*
X329890Y-936300D01*
X209550Y-980440D02*
X285750D01*
X195270Y-966160D02*
X209550Y-980440D01*
X329890Y-936300D02*
Y-906780D01*
X195270Y-966160D02*
Y-906780D01*
X916640Y-629620D02*
Y-614680D01*
Y-629620D02*
X928370Y-641350D01*
X985520D01*
X994410Y-632460D01*
Y-598170D01*
X985520Y-589280D02*
X994410Y-598170D01*
X967440Y-589280D02*
X985520D01*
X537210Y-760730D02*
X537740Y-760200D01*
X632460D01*
X864870Y-830580D02*
X876300Y-842010D01*
X977900Y-894080D02*
X1059180D01*
X1085850Y-920750D01*
X876300Y-878840D02*
Y-842010D01*
Y-878840D02*
X891540Y-894080D01*
X977900D01*
D53*
X262890Y-858520D02*
X269240D01*
X255270Y-866140D02*
X262890Y-858520D01*
X255270Y-876780D02*
Y-866140D01*
X269240Y-858520D02*
X379730D01*
X269240D02*
Y-848360D01*
X1290320Y-217170D02*
X1295400Y-212090D01*
X1377950Y-228600D02*
X1391920Y-214630D01*
X1255062Y-228600D02*
X1377950D01*
X1118870Y-337328D02*
Y-233680D01*
X1196340Y-207010D02*
X1198880Y-204470D01*
X1145540Y-207010D02*
X1196340D01*
X1118870Y-233680D02*
X1145540Y-207010D01*
X1155700Y-217170D02*
X1290320D01*
X1126490Y-246380D02*
X1155700Y-217170D01*
X1254912Y-228450D02*
X1255062Y-228600D01*
X1249528Y-228450D02*
X1254912D01*
X1249378Y-228600D02*
X1249528Y-228450D01*
X1159510Y-228600D02*
X1249378D01*
X1135380Y-252730D02*
X1159510Y-228600D01*
X1102360Y-210820D02*
X1109980Y-218440D01*
Y-334010D02*
Y-218440D01*
X1101090Y-331470D02*
Y-243840D01*
X1007110Y-214630D02*
X1021080Y-228600D01*
X1085850D01*
X1101090Y-243840D01*
X603250Y-499613D02*
Y-185420D01*
X621030Y-167640D01*
X610870Y-502656D02*
Y-224790D01*
X715010Y-209550D02*
X717550Y-207010D01*
X626110Y-209550D02*
X715010D01*
X610870Y-224790D02*
X626110Y-209550D01*
X618490Y-505699D02*
Y-236220D01*
X810260Y-219710D02*
X814070Y-215900D01*
X635000Y-219710D02*
X810260D01*
X618490Y-236220D02*
X635000Y-219710D01*
X626110Y-519430D02*
Y-242570D01*
X899160Y-228600D02*
X910590Y-217170D01*
X640080Y-228600D02*
X899160D01*
X626110Y-242570D02*
X640080Y-228600D01*
X593510Y-498690D02*
Y-260350D01*
X525780Y-214630D02*
X547790D01*
X593510Y-260350D01*
X429260Y-210820D02*
X434020Y-215580D01*
Y-522290D02*
Y-215580D01*
X322580Y-199390D02*
X365999D01*
X426480Y-259870D01*
X234950Y-207010D02*
X237650Y-209710D01*
X144860Y-217250D02*
X362533D01*
X139700Y-212090D02*
X144860Y-217250D01*
X156210Y-224790D02*
X359410D01*
X54610D02*
X156210D01*
X43180Y-213360D02*
X54610Y-224790D01*
X384810Y-524510D02*
X393700Y-533400D01*
X384810Y-524510D02*
Y-496570D01*
X401940Y-535290D02*
X405130Y-538480D01*
X401940Y-535290D02*
Y-530210D01*
X397510Y-525780D02*
X401940Y-530210D01*
X398780Y-595630D02*
Y-586740D01*
X403750Y-581770D01*
Y-570230D01*
X455930Y-697230D02*
Y-683370D01*
X467840Y-610450D02*
X479590D01*
X480250Y-609790D01*
X464880Y-613410D02*
X467840Y-610450D01*
X422910Y-613410D02*
X464880D01*
X405130Y-595630D02*
X422910Y-613410D01*
X483870Y-633730D02*
X487680Y-637540D01*
X542290D01*
X549910Y-680720D02*
X558800Y-689610D01*
X1126490Y-340372D02*
Y-246380D01*
X713740Y-541020D02*
X925842D01*
X1126490Y-340372D01*
X1118858Y-337328D02*
X1118870D01*
X923837Y-532350D02*
X1118858Y-337328D01*
X709710Y-532350D02*
X923837D01*
X552450Y-539750D02*
X593510Y-498690D01*
X549910Y-558800D02*
X573273D01*
X594360Y-508503D02*
X603250Y-499613D01*
X601980Y-511546D02*
X610870Y-502656D01*
X609520Y-514669D02*
X618490Y-505699D01*
X573273Y-558800D02*
X609520Y-522553D01*
X569727Y-551180D02*
X601980Y-518927D01*
Y-511546D01*
X538480Y-551180D02*
X569727D01*
X609520Y-522553D02*
Y-514669D01*
X594360Y-515620D02*
Y-508503D01*
X534670Y-547370D02*
X538480Y-551180D01*
X566420Y-541020D02*
X568960D01*
X427990Y-528320D02*
X434020Y-522290D01*
X408940Y-493870D02*
X418940Y-483870D01*
X408940Y-530860D02*
Y-493870D01*
X426480Y-494373D02*
Y-259870D01*
X419100Y-518160D02*
Y-501753D01*
X426480Y-494373D01*
X418940Y-483870D02*
Y-262994D01*
X397510Y-525780D02*
Y-494533D01*
X411400Y-480643D02*
Y-266117D01*
X397510Y-494533D02*
X411400Y-480643D01*
X403860Y-477520D02*
Y-269240D01*
X384810Y-496570D02*
X403860Y-477520D01*
X365656Y-209710D02*
X418940Y-262994D01*
X237650Y-209710D02*
X365656D01*
X362533Y-217250D02*
X411400Y-266117D01*
X359410Y-224790D02*
X403860Y-269240D01*
X389890Y-876780D02*
Y-868680D01*
X379730Y-858520D02*
X389890Y-868680D01*
X561340Y-570230D02*
X575310D01*
X563880Y-678180D02*
X576580D01*
X558800Y-689610D02*
X576580D01*
X562610Y-656590D02*
X565150Y-654050D01*
X575310D01*
X549910Y-652780D02*
X557530Y-645160D01*
X568960D01*
X547370Y-561340D02*
X549910Y-558800D01*
X1135380Y-342900D02*
Y-252730D01*
X715010Y-551180D02*
X927100D01*
X1135380Y-342900D01*
X568960Y-645160D02*
X701040Y-513080D01*
X919480D01*
X1101090Y-331470D01*
X575310Y-654050D02*
X707390Y-521970D01*
X922020D01*
X1109980Y-334010D01*
X483870Y-652780D02*
Y-633730D01*
X480250Y-630110D02*
X483870Y-633730D01*
X480250Y-630110D02*
Y-609790D01*
X398780Y-595630D02*
X405130D01*
X568960Y-541020D02*
X594360Y-515620D01*
X575310Y-570230D02*
X626110Y-519430D01*
X740410Y-596900D02*
X778510Y-558800D01*
X1078230D02*
X1088390Y-568960D01*
X483870Y-657860D02*
X501540D01*
X483870Y-679450D02*
Y-652780D01*
X571470Y-665510D02*
X576550D01*
X709710Y-532350D01*
X576580Y-678180D02*
X713740Y-541020D01*
X576580Y-689610D02*
X715010Y-551180D01*
X778510Y-558800D02*
X1078230D01*
X480250Y-609790D02*
Y-588200D01*
X476360Y-584310D02*
X480250Y-588200D01*
X467360Y-584310D02*
X476360D01*
X270620Y-701150D02*
X278020D01*
X292100Y-687070D01*
Y-664320D01*
X273050Y-645270D02*
X292100Y-664320D01*
X998220Y-864870D02*
Y-826770D01*
D54*
X389890Y-969010D02*
X405130Y-984250D01*
X389890Y-969010D02*
Y-906780D01*
X905510Y-861060D02*
X946150D01*
X970280Y-836930D01*
Y-807720D01*
X984250Y-793750D01*
X405130Y-984250D02*
X1310640D01*
X1346200Y-948690D01*
Y-646430D02*
X1377950Y-614680D01*
X1346200Y-948690D02*
Y-646430D01*
X1087120Y-793750D02*
X1109980Y-770890D01*
X1127760D01*
X984250Y-793750D02*
X1087120D01*
D63*
X1450128Y-999960D02*
G03*
X1500128Y-949960I0J50000D01*
G01*
X1499960Y-49872D02*
G03*
X1449960Y127I-50000J0D01*
G01*
X49872Y-40D02*
G03*
X-127Y-50040I0J-50000D01*
G01*
X40Y-950127D02*
G03*
X50040Y-1000127I50000J0D01*
G01*
X50000Y0D02*
X1450000D01*
X0Y-950000D02*
Y-50000D01*
X50000Y-1000000D02*
X1450000D01*
X1500000Y-950000D02*
Y-50000D01*
D64*
X1377950Y-614680D02*
D03*
Y-690880D02*
D03*
D65*
X549760Y-795970D02*
D03*
X559760Y-775970D02*
D03*
X569760Y-795970D02*
D03*
X579760Y-775970D02*
D03*
X589760Y-795970D02*
D03*
X599760Y-775970D02*
D03*
X609760Y-795970D02*
D03*
D66*
X619760Y-775970D02*
D03*
D67*
X70150Y-570230D02*
D03*
X44750Y-544830D02*
D03*
Y-570230D02*
D03*
X19350Y-544830D02*
D03*
Y-570230D02*
D03*
X70150Y-544830D02*
D03*
X223520Y-323850D02*
D03*
X299720Y-298450D02*
D03*
Y-323850D02*
D03*
X274320Y-298450D02*
D03*
Y-323850D02*
D03*
X248920Y-298450D02*
D03*
Y-323850D02*
D03*
X223520Y-298450D02*
D03*
X325120Y-323850D02*
D03*
Y-298450D02*
D03*
X1289050Y-303530D02*
D03*
Y-328930D02*
D03*
X1187450Y-303530D02*
D03*
X1212850Y-328930D02*
D03*
Y-303530D02*
D03*
X1238250Y-328930D02*
D03*
Y-303530D02*
D03*
X1263650Y-328930D02*
D03*
Y-303530D02*
D03*
X1187450Y-328930D02*
D03*
X916640Y-614680D02*
D03*
X967440Y-589280D02*
D03*
Y-614680D02*
D03*
X942040Y-589280D02*
D03*
Y-614680D02*
D03*
X916640Y-589280D02*
D03*
X704850Y-332740D02*
D03*
X781050Y-307340D02*
D03*
Y-332740D02*
D03*
X755650Y-307340D02*
D03*
Y-332740D02*
D03*
X730250Y-307340D02*
D03*
Y-332740D02*
D03*
X704850Y-307340D02*
D03*
X806450Y-332740D02*
D03*
Y-307340D02*
D03*
X706120Y-702310D02*
D03*
X731520D02*
D03*
X756920D02*
D03*
D68*
X905510Y-806060D02*
D03*
X843280D02*
D03*
X801280D02*
D03*
X740410D02*
D03*
X698410D02*
D03*
D69*
X905510Y-861060D02*
D03*
X843280D02*
D03*
X801280D02*
D03*
X740410D02*
D03*
X698410D02*
D03*
D70*
X1410970Y-783590D02*
D03*
X1461970D02*
D03*
Y-872490D02*
D03*
X1410970D02*
D03*
D71*
X195270Y-876780D02*
D03*
X225270D02*
D03*
X255270D02*
D03*
X195270Y-906780D02*
D03*
X225270D02*
D03*
X329890Y-876780D02*
D03*
X359890D02*
D03*
X389890D02*
D03*
X329890Y-906780D02*
D03*
X359890D02*
D03*
D72*
X255270D02*
D03*
X389890D02*
D03*
D73*
X111760Y-849630D02*
D03*
Y-976630D02*
D03*
Y-875030D02*
D03*
Y-951230D02*
D03*
Y-900430D02*
D03*
Y-925830D02*
D03*
D74*
X561240Y-936380D02*
D03*
X517240D02*
D03*
D75*
X1450000Y-50000D02*
D03*
X50000D02*
D03*
Y-950000D02*
D03*
X1450000D02*
D03*
X995680Y-316230D02*
D03*
X514350D02*
D03*
D76*
X138450Y-772170D02*
D03*
Y-614670D02*
D03*
D77*
X74150Y-756670D02*
D03*
X58950Y-731270D02*
D03*
X74150Y-655570D02*
D03*
X58950Y-630170D02*
D03*
X196850Y-661670D02*
D03*
Y-687070D02*
D03*
X171450Y-699770D02*
D03*
Y-725170D02*
D03*
X196850Y-737870D02*
D03*
X171450Y-674370D02*
D03*
X196850Y-712470D02*
D03*
D78*
X107950Y-636270D02*
D03*
Y-750570D02*
D03*
D79*
X171450Y-648970D02*
D03*
D80*
X182880Y-815340D02*
D03*
X189230Y-820420D02*
D03*
X187960Y-833120D02*
D03*
X185420Y-842010D02*
D03*
X275590Y-618490D02*
D03*
X257810Y-572770D02*
D03*
X292100Y-609600D02*
D03*
Y-635000D02*
D03*
X262890Y-694690D02*
D03*
X294640Y-735330D02*
D03*
X215900Y-775970D02*
D03*
X297180Y-769620D02*
D03*
X243840Y-797560D02*
D03*
X266700Y-800100D02*
D03*
X393700Y-753110D02*
D03*
X401320Y-857250D02*
D03*
X353060Y-833120D02*
D03*
X269240Y-848360D02*
D03*
X977900Y-894080D02*
D03*
X998220Y-864870D02*
D03*
X1007110Y-214630D02*
D03*
X1102360Y-210820D02*
D03*
X1295400Y-212090D02*
D03*
X1391920Y-214630D02*
D03*
X1220470Y-168910D02*
D03*
X1198880Y-204470D02*
D03*
X910590Y-217170D02*
D03*
X814070Y-215900D02*
D03*
X718820Y-205740D02*
D03*
X621030Y-167640D02*
D03*
X525780Y-214630D02*
D03*
X429260Y-210820D02*
D03*
X322580Y-199390D02*
D03*
X234950Y-207010D02*
D03*
X257810Y-172720D02*
D03*
X139700Y-212090D02*
D03*
X43180Y-213360D02*
D03*
X163830Y-170180D02*
D03*
X198120Y-205740D02*
D03*
X77470Y-170180D02*
D03*
X740410Y-204470D02*
D03*
X459740Y-278130D02*
D03*
X939800Y-203200D02*
D03*
X838200Y-205740D02*
D03*
X1310640Y-281940D02*
D03*
X1344930Y-431800D02*
D03*
X1240790Y-471170D02*
D03*
X1054100Y-476250D02*
D03*
X868680Y-438150D02*
D03*
X764540Y-434340D02*
D03*
X675640D02*
D03*
X581660Y-472440D02*
D03*
X579120Y-435610D02*
D03*
X358140Y-472440D02*
D03*
X280670Y-477520D02*
D03*
X266700Y-608330D02*
D03*
X200660Y-641350D02*
D03*
X241300Y-650240D02*
D03*
X213360Y-668020D02*
D03*
X214630Y-717550D02*
D03*
X270620Y-701150D02*
D03*
X641350Y-706120D02*
D03*
X626110Y-722630D02*
D03*
X393700Y-533400D02*
D03*
X405130Y-538480D02*
D03*
X236220Y-853440D02*
D03*
X406400Y-927100D02*
D03*
X391160Y-994410D02*
D03*
X406400Y-958850D02*
D03*
X340360Y-963930D02*
D03*
X370840Y-927100D02*
D03*
X341630Y-920750D02*
D03*
X318770Y-965200D02*
D03*
X294640Y-952500D02*
D03*
X314960Y-930910D02*
D03*
X180340Y-969010D02*
D03*
X179070Y-947420D02*
D03*
X180340Y-922020D02*
D03*
X209550Y-929640D02*
D03*
X275590Y-934720D02*
D03*
X191770Y-981710D02*
D03*
X276860Y-904240D02*
D03*
X275590Y-960120D02*
D03*
X292100Y-795020D02*
D03*
X280670Y-849630D02*
D03*
X488950Y-967740D02*
D03*
X588010D02*
D03*
X26670Y-828040D02*
D03*
X152400Y-939800D02*
D03*
X38100Y-890270D02*
D03*
X24130Y-855980D02*
D03*
X76200Y-839470D02*
D03*
Y-880110D02*
D03*
X151130Y-896620D02*
D03*
X292100Y-844550D02*
D03*
X218440Y-834390D02*
D03*
X189230Y-852170D02*
D03*
X118110Y-811530D02*
D03*
X537210Y-760730D02*
D03*
X632460Y-744220D02*
D03*
X666750Y-627380D02*
D03*
X147320Y-561340D02*
D03*
X161290Y-552450D02*
D03*
X826770Y-612140D02*
D03*
X411480Y-674370D02*
D03*
X455930Y-697230D02*
D03*
X1242060Y-704003D02*
D03*
Y-692150D02*
D03*
Y-715857D02*
D03*
Y-727710D02*
D03*
X1254125Y-728133D02*
D03*
Y-716280D02*
D03*
Y-692573D02*
D03*
Y-704427D02*
D03*
X1266190Y-728133D02*
D03*
Y-716280D02*
D03*
Y-692573D02*
D03*
Y-704427D02*
D03*
X1278255Y-728133D02*
D03*
Y-716280D02*
D03*
Y-692573D02*
D03*
Y-704427D02*
D03*
X1290320Y-728133D02*
D03*
Y-716280D02*
D03*
Y-692573D02*
D03*
Y-704427D02*
D03*
X1302385Y-728133D02*
D03*
Y-716280D02*
D03*
Y-692573D02*
D03*
Y-704427D02*
D03*
X1314450Y-728133D02*
D03*
Y-716280D02*
D03*
Y-692573D02*
D03*
Y-704427D02*
D03*
X671830Y-778510D02*
D03*
X234950Y-808990D02*
D03*
X793750Y-610870D02*
D03*
X816610Y-595630D02*
D03*
X693420Y-643890D02*
D03*
X462280Y-603250D02*
D03*
X387350Y-702310D02*
D03*
X542290Y-637540D02*
D03*
X549910Y-680720D02*
D03*
X706120Y-614680D02*
D03*
X527050Y-575310D02*
D03*
X1092200Y-560070D02*
D03*
X144585Y-569155D02*
D03*
X155135Y-558605D02*
D03*
X127000Y-783590D02*
D03*
X496570Y-593090D02*
D03*
X447040Y-590550D02*
D03*
X339090Y-581660D02*
D03*
X331470Y-596900D02*
D03*
X378460Y-689610D02*
D03*
X455930Y-704850D02*
D03*
X342900Y-610870D02*
D03*
X344170Y-601980D02*
D03*
X961390Y-685800D02*
D03*
X1065530Y-675640D02*
D03*
X1040130Y-711200D02*
D03*
X960120Y-713740D02*
D03*
X1129030Y-613410D02*
D03*
X1117600Y-633730D02*
D03*
X1115060Y-566420D02*
D03*
X1159510Y-590550D02*
D03*
X1447800Y-759460D02*
D03*
X1365250Y-751840D02*
D03*
X1465580Y-732790D02*
D03*
X1028700Y-922020D02*
D03*
X1045210Y-873760D02*
D03*
X1099820Y-944880D02*
D03*
X1013460Y-873760D02*
D03*
X1155700Y-698500D02*
D03*
X1074420Y-741680D02*
D03*
X1155700Y-673100D02*
D03*
X961390Y-746760D02*
D03*
X1040130D02*
D03*
X977900Y-774700D02*
D03*
X1005840Y-764540D02*
D03*
X861060Y-750570D02*
D03*
X817880Y-778510D02*
D03*
X861060Y-774700D02*
D03*
X607060Y-902970D02*
D03*
X877570Y-716280D02*
D03*
X469900Y-849630D02*
D03*
X511810Y-744220D02*
D03*
X643890Y-715010D02*
D03*
X532130Y-721360D02*
D03*
X496570Y-784860D02*
D03*
X500380Y-830580D02*
D03*
X212090Y-852170D02*
D03*
X157480Y-816610D02*
D03*
X266700Y-736600D02*
D03*
X309880Y-782320D02*
D03*
X226060Y-624840D02*
D03*
X214630Y-551180D02*
D03*
X102870Y-533400D02*
D03*
X224790Y-539750D02*
D03*
X162560Y-541020D02*
D03*
X309880D02*
D03*
X318770Y-551180D02*
D03*
X300990D02*
D03*
X299720Y-568960D02*
D03*
X360680Y-570230D02*
D03*
X431800Y-640080D02*
D03*
X471170Y-618490D02*
D03*
X642620Y-656590D02*
D03*
X829310Y-575310D02*
D03*
X855980Y-636270D02*
D03*
X833120D02*
D03*
X715010D02*
D03*
X669290Y-640080D02*
D03*
X748030Y-575310D02*
D03*
X726440D02*
D03*
X704850D02*
D03*
X674370Y-601980D02*
D03*
X603250Y-675640D02*
D03*
X1003300Y-647700D02*
D03*
X688340Y-792480D02*
D03*
X659130Y-717550D02*
D03*
X610870Y-847090D02*
D03*
X563880Y-913130D02*
D03*
X281940Y-810260D02*
D03*
X182880Y-568960D02*
D03*
X205740Y-571500D02*
D03*
X356870Y-722630D02*
D03*
X577850Y-187960D02*
D03*
X687070Y-288290D02*
D03*
X881380Y-220980D02*
D03*
X966470Y-193040D02*
D03*
X861060Y-262890D02*
D03*
X873760Y-289560D02*
D03*
X868680Y-193040D02*
D03*
X777240Y-257810D02*
D03*
X774700Y-194310D02*
D03*
X690880Y-238760D02*
D03*
X681990Y-195580D02*
D03*
X59690Y-454660D02*
D03*
X111760Y-414020D02*
D03*
X304800Y-412750D02*
D03*
X350520Y-452120D02*
D03*
X342900Y-394970D02*
D03*
X256540Y-452120D02*
D03*
X240030Y-375920D02*
D03*
X157480Y-454660D02*
D03*
X100330Y-448310D02*
D03*
X144780Y-421640D02*
D03*
X156210Y-391160D02*
D03*
X181610Y-344170D02*
D03*
X133350Y-349250D02*
D03*
X124460Y-370840D02*
D03*
X54610Y-400050D02*
D03*
X59690Y-356870D02*
D03*
X80010Y-330200D02*
D03*
X101600Y-309880D02*
D03*
X68580Y-294640D02*
D03*
X58420Y-210820D02*
D03*
X100330Y-189230D02*
D03*
X101600Y-245110D02*
D03*
X133350Y-276860D02*
D03*
X292100Y-248920D02*
D03*
X204470Y-240030D02*
D03*
X219710Y-203200D02*
D03*
X191770Y-184150D02*
D03*
X285750Y-190500D02*
D03*
X354330Y-186690D02*
D03*
X382270D02*
D03*
X405130D02*
D03*
X496570Y-217170D02*
D03*
X501650Y-181610D02*
D03*
X477520Y-189230D02*
D03*
X402590Y-219710D02*
D03*
X379730Y-262890D02*
D03*
X393700Y-280670D02*
D03*
X588010Y-900430D02*
D03*
X488950D02*
D03*
X927100Y-763270D02*
D03*
X530860Y-646430D02*
D03*
X403860Y-666750D02*
D03*
X384810Y-632460D02*
D03*
X441005Y-708345D02*
D03*
X448310Y-648970D02*
D03*
X406400Y-612140D02*
D03*
X624840Y-541020D02*
D03*
X509270Y-581660D02*
D03*
X344170Y-651510D02*
D03*
X561340Y-570230D02*
D03*
X547370Y-561340D02*
D03*
X534670Y-547370D02*
D03*
X566420Y-541020D02*
D03*
X552450Y-539750D02*
D03*
X408940Y-530860D02*
D03*
X427990Y-528320D02*
D03*
X419100Y-518160D02*
D03*
X549910Y-652780D02*
D03*
X563880Y-678180D02*
D03*
X571470Y-665510D02*
D03*
X562610Y-656590D02*
D03*
X896620Y-685800D02*
D03*
X980440Y-683260D02*
D03*
X582930Y-715010D02*
D03*
X576580Y-702310D02*
D03*
X554990Y-849630D02*
D03*
X488950Y-934720D02*
D03*
X588010D02*
D03*
X480250Y-609790D02*
D03*
X483870Y-652780D02*
D03*
X430530Y-598170D02*
D03*
X440690Y-684530D02*
D03*
X398780Y-595630D02*
D03*
X452120Y-627380D02*
D03*
X388620Y-650240D02*
D03*
X378460Y-678180D02*
D03*
X104140Y-501650D02*
D03*
X109220Y-485140D02*
D03*
X200660Y-501650D02*
D03*
X180340Y-483870D02*
D03*
X299720Y-474980D02*
D03*
X296407Y-501650D02*
D03*
X388620Y-472440D02*
D03*
X368300Y-504190D02*
D03*
X502644Y-485140D02*
D03*
X488950Y-463550D02*
D03*
X702310Y-486410D02*
D03*
X680941Y-501650D02*
D03*
X791045Y-485140D02*
D03*
X777075Y-501650D02*
D03*
X864870Y-476250D02*
D03*
X891540Y-502920D02*
D03*
X1079446Y-485140D02*
D03*
X1065476Y-501650D02*
D03*
X1151890Y-476250D02*
D03*
X1161609Y-501650D02*
D03*
X1271713Y-485140D02*
D03*
X1244600Y-513080D02*
D03*
X1344930Y-472440D02*
D03*
X1366520Y-487680D02*
D03*
X1437640Y-474980D02*
D03*
X1409700Y-431800D02*
D03*
X1022956Y-140970D02*
D03*
X1008986Y-157480D02*
D03*
X1119089Y-140970D02*
D03*
X1105119Y-157480D02*
D03*
X1215223Y-140970D02*
D03*
X1201253Y-157480D02*
D03*
X1311356Y-140970D02*
D03*
X1318260Y-166370D02*
D03*
X1407490Y-140970D02*
D03*
X1405890Y-161290D02*
D03*
X541263Y-140970D02*
D03*
X527293Y-157480D02*
D03*
X637396Y-140970D02*
D03*
X623426Y-157480D02*
D03*
X733530Y-140970D02*
D03*
X717550Y-154940D02*
D03*
X829663Y-140970D02*
D03*
X815694Y-157480D02*
D03*
X925797Y-140970D02*
D03*
X911827Y-157480D02*
D03*
X59570Y-140970D02*
D03*
X63500Y-158750D02*
D03*
X155704Y-140970D02*
D03*
X149860Y-161290D02*
D03*
X251837Y-140970D02*
D03*
X237867Y-157480D02*
D03*
X347971Y-140970D02*
D03*
X334001Y-157480D02*
D03*
X444104Y-140970D02*
D03*
X430134Y-157480D02*
D03*
X982980Y-513080D02*
D03*
X1002030Y-491490D02*
D03*
X393700Y-345440D02*
D03*
X443230Y-462280D02*
D03*
Y-441960D02*
D03*
X444500Y-398780D02*
D03*
X443230Y-306070D02*
D03*
X454660Y-372110D02*
D03*
X565150Y-355600D02*
D03*
X551180Y-373380D02*
D03*
X533400Y-417830D02*
D03*
X640080Y-392430D02*
D03*
X636270Y-444500D02*
D03*
Y-466090D02*
D03*
X637540Y-361950D02*
D03*
X582930Y-326390D02*
D03*
X636270Y-288290D02*
D03*
X494030Y-251460D02*
D03*
X582930Y-236220D02*
D03*
X735330Y-393700D02*
D03*
X774700D02*
D03*
X819150Y-394970D02*
D03*
X833120Y-355600D02*
D03*
X910590Y-398780D02*
D03*
X833120Y-454660D02*
D03*
X732790D02*
D03*
X928370Y-453390D02*
D03*
X962660Y-448310D02*
D03*
X986790Y-422910D02*
D03*
X910590Y-327660D02*
D03*
X938530Y-353060D02*
D03*
X1022350Y-382270D02*
D03*
X1051560Y-353060D02*
D03*
X1076960Y-328930D02*
D03*
X1054100Y-312420D02*
D03*
X925830Y-298450D02*
D03*
X947420Y-275590D02*
D03*
X970280Y-246380D02*
D03*
X1029970Y-463550D02*
D03*
X1079500Y-419100D02*
D03*
X1101090Y-396240D02*
D03*
X1118870Y-377190D02*
D03*
X1090930Y-260350D02*
D03*
X1172210Y-285750D02*
D03*
X1060450Y-185420D02*
D03*
X1073150Y-220980D02*
D03*
X1168400Y-238760D02*
D03*
X1252220Y-234950D02*
D03*
X1160780Y-194310D02*
D03*
X1125220Y-193040D02*
D03*
X1153160Y-175260D02*
D03*
X1275080Y-237490D02*
D03*
X1272540Y-208280D02*
D03*
X1309370Y-205740D02*
D03*
X1355090Y-198120D02*
D03*
X1372870Y-175260D02*
D03*
X1416050Y-203200D02*
D03*
X1423670Y-168910D02*
D03*
X1249680Y-175260D02*
D03*
X1351280Y-280670D02*
D03*
X1383030Y-276860D02*
D03*
X1357630Y-240030D02*
D03*
X1286510Y-386080D02*
D03*
X1310640Y-351790D02*
D03*
X1360170Y-353060D02*
D03*
X1381760Y-372110D02*
D03*
X1404620Y-397510D02*
D03*
X1440180Y-313690D02*
D03*
X1407160Y-370840D02*
D03*
X1452880Y-327660D02*
D03*
X1413510Y-313690D02*
D03*
X1437640Y-288290D02*
D03*
X1308100Y-397510D02*
D03*
X1264920Y-431800D02*
D03*
X1219200Y-454660D02*
D03*
X1217930Y-379730D02*
D03*
X1209040Y-407670D02*
D03*
X1158240Y-398780D02*
D03*
X1155700Y-433070D02*
D03*
X1116330Y-455930D02*
D03*
X1309370D02*
D03*
X1407160Y-458470D02*
D03*
X1446530Y-434340D02*
D03*
X1106170Y-549910D02*
D03*
X1150620Y-551180D02*
D03*
X1191260Y-549910D02*
D03*
X1247140Y-553720D02*
D03*
X1297940D02*
D03*
X1348740Y-552450D02*
D03*
X1399540Y-532130D02*
D03*
X1460500Y-513080D02*
D03*
X1060450Y-549910D02*
D03*
X712360Y-608440D02*
D03*
X793750Y-601980D02*
D03*
X659130Y-632460D02*
D03*
X749300Y-612140D02*
D03*
X687070Y-593090D02*
D03*
X731520D02*
D03*
X718820Y-600710D02*
D03*
X740410Y-596900D02*
D03*
X803910Y-575310D02*
D03*
X778510D02*
D03*
X753110Y-596900D02*
D03*
X783590Y-594360D02*
D03*
X1088390Y-568960D02*
D03*
X1130300Y-570230D02*
D03*
X1125220Y-577850D02*
D03*
X1130300Y-588010D02*
D03*
X864870Y-582930D02*
D03*
X850900Y-598170D02*
D03*
X894080Y-628650D02*
D03*
X880110Y-619760D02*
D03*
X928370Y-654050D02*
D03*
X919480Y-678180D02*
D03*
X1003300Y-680720D02*
D03*
X312420Y-601980D02*
D03*
X298450Y-601973D02*
D03*
X316230Y-593090D02*
D03*
X322580Y-585470D02*
D03*
X483870Y-679450D02*
D03*
X464820Y-707390D02*
D03*
X473710Y-642620D02*
D03*
X613410Y-687070D02*
D03*
X563880Y-749300D02*
D03*
X572770Y-742950D02*
D03*
X586740D02*
D03*
X549910Y-749300D02*
D03*
X1050290Y-582930D02*
D03*
X1032510Y-584200D02*
D03*
Y-632460D02*
D03*
X1066800Y-633730D02*
D03*
X326390Y-815340D02*
D03*
X270510Y-683260D02*
D03*
X259080Y-679450D02*
D03*
X246380Y-737870D02*
D03*
X336550Y-708227D02*
D03*
X331470Y-722630D02*
D03*
X341630Y-699770D02*
D03*
X166370Y-796290D02*
D03*
X99060Y-798830D02*
D03*
X128270Y-694690D02*
D03*
X318770Y-679450D02*
D03*
X273050Y-645270D02*
D03*
X1092200Y-740410D02*
D03*
X890270Y-796290D02*
D03*
X767080Y-779780D02*
D03*
X933450Y-923290D02*
D03*
X957580Y-781050D02*
D03*
X901700Y-767080D02*
D03*
X534670Y-835660D02*
D03*
X533400Y-824230D02*
D03*
X828040Y-676910D02*
D03*
X808990D02*
D03*
X759460Y-673100D02*
D03*
X657860Y-657860D02*
D03*
X754380Y-640080D02*
D03*
X734060Y-645160D02*
D03*
X817880Y-750570D02*
D03*
X1155700Y-711200D02*
D03*
X1045210Y-797560D02*
D03*
X1010920Y-788670D02*
D03*
Y-797560D02*
D03*
X1045210Y-788670D02*
D03*
X1085850Y-949960D02*
D03*
X1098550Y-711200D02*
D03*
X502920Y-857250D02*
D03*
X447040Y-800100D02*
D03*
X438150Y-759460D02*
D03*
X439420Y-767080D02*
D03*
X440690Y-774700D02*
D03*
X448310D02*
D03*
X457200Y-773430D02*
D03*
X462280Y-768350D02*
D03*
X434340Y-746760D02*
D03*
X772160Y-848360D02*
D03*
X988060Y-767080D02*
D03*
X998220Y-826770D02*
D03*
X993140Y-812800D02*
D03*
X1202690Y-820420D02*
D03*
X1057910Y-915670D02*
D03*
X1050290Y-920750D02*
D03*
X1085850Y-941070D02*
D03*
X1225550Y-956310D02*
D03*
Y-896620D02*
D03*
X1205230Y-845820D02*
D03*
Y-857250D02*
D03*
Y-905510D02*
D03*
Y-918210D02*
D03*
X1225550Y-835660D02*
D03*
X1172210Y-952500D02*
D03*
X1203960Y-965200D02*
D03*
X1117600Y-765810D02*
D03*
Y-774700D02*
D03*
X1129030Y-765810D02*
D03*
Y-774700D02*
D03*
X642620Y-778510D02*
D03*
X603250Y-866140D02*
D03*
X608330Y-872490D02*
D03*
X618490Y-880110D02*
D03*
X617220Y-872490D02*
D03*
X665480Y-875030D02*
D03*
X657860Y-880110D02*
D03*
M02*
