G04 Layer_Color=8421504*
%FSLAX44Y44*%
%MOMM*%
G71*
G01*
G75*
%ADD10R,0.3500X1.1000*%
%ADD11R,0.4500X0.3500*%
%ADD12R,0.4500X0.2500*%
G04:AMPARAMS|DCode=13|XSize=0.9mm|YSize=3.9mm|CornerRadius=0.0495mm|HoleSize=0mm|Usage=FLASHONLY|Rotation=90.000|XOffset=0mm|YOffset=0mm|HoleType=Round|Shape=RoundedRectangle|*
%AMROUNDEDRECTD13*
21,1,0.9000,3.8010,0,0,90.0*
21,1,0.8010,3.9000,0,0,90.0*
1,1,0.0990,1.9005,0.4005*
1,1,0.0990,1.9005,-0.4005*
1,1,0.0990,-1.9005,-0.4005*
1,1,0.0990,-1.9005,0.4005*
%
%ADD13ROUNDEDRECTD13*%
G04:AMPARAMS|DCode=14|XSize=9.126mm|YSize=13.37mm|CornerRadius=0.0456mm|HoleSize=0mm|Usage=FLASHONLY|Rotation=90.000|XOffset=0mm|YOffset=0mm|HoleType=Round|Shape=RoundedRectangle|*
%AMROUNDEDRECTD14*
21,1,9.1260,13.2787,0,0,90.0*
21,1,9.0347,13.3700,0,0,90.0*
1,1,0.0913,6.6394,4.5174*
1,1,0.0913,6.6394,-4.5174*
1,1,0.0913,-6.6394,-4.5174*
1,1,0.0913,-6.6394,4.5174*
%
%ADD14ROUNDEDRECTD14*%
%ADD15O,2.0000X0.6000*%
%ADD16O,0.6000X2.0000*%
%ADD17R,1.1000X1.1000*%
%ADD18R,1.6000X5.0000*%
%ADD19R,1.1000X1.1000*%
%ADD20R,0.7620X0.7620*%
%ADD21R,2.8000X1.4500*%
%ADD22R,1.4500X0.3000*%
%ADD23O,1.4500X0.3000*%
%ADD24R,0.7620X0.7620*%
%ADD25R,1.3000X1.0000*%
%ADD26R,1.3000X1.0000*%
%ADD27R,0.6500X2.2000*%
%ADD28O,0.7000X2.5000*%
%ADD29O,2.1000X0.3000*%
%ADD30O,0.3000X2.1000*%
%ADD31R,1.5500X1.3500*%
%ADD32R,1.7000X0.9500*%
%ADD33R,1.9000X1.3500*%
%ADD34R,0.8000X0.7000*%
%ADD35R,0.7000X0.9000*%
%ADD36R,1.0000X0.9000*%
%ADD37R,1.4000X1.2000*%
%ADD38R,0.9000X1.9000*%
%ADD39R,3.2000X1.9000*%
G04:AMPARAMS|DCode=40|XSize=2.8mm|YSize=0.5mm|CornerRadius=0.125mm|HoleSize=0mm|Usage=FLASHONLY|Rotation=270.000|XOffset=0mm|YOffset=0mm|HoleType=Round|Shape=RoundedRectangle|*
%AMROUNDEDRECTD40*
21,1,2.8000,0.2500,0,0,270.0*
21,1,2.5500,0.5000,0,0,270.0*
1,1,0.2500,-0.1250,-1.2750*
1,1,0.2500,-0.1250,1.2750*
1,1,0.2500,0.1250,1.2750*
1,1,0.2500,0.1250,-1.2750*
%
%ADD40ROUNDEDRECTD40*%
G04:AMPARAMS|DCode=41|XSize=3.5mm|YSize=2.05mm|CornerRadius=0.5125mm|HoleSize=0mm|Usage=FLASHONLY|Rotation=270.000|XOffset=0mm|YOffset=0mm|HoleType=Round|Shape=RoundedRectangle|*
%AMROUNDEDRECTD41*
21,1,3.5000,1.0250,0,0,270.0*
21,1,2.4750,2.0500,0,0,270.0*
1,1,1.0250,-0.5125,-1.2375*
1,1,1.0250,-0.5125,1.2375*
1,1,1.0250,0.5125,1.2375*
1,1,1.0250,0.5125,-1.2375*
%
%ADD41ROUNDEDRECTD41*%
G04:AMPARAMS|DCode=42|XSize=4mm|YSize=2.05mm|CornerRadius=0.5125mm|HoleSize=0mm|Usage=FLASHONLY|Rotation=270.000|XOffset=0mm|YOffset=0mm|HoleType=Round|Shape=RoundedRectangle|*
%AMROUNDEDRECTD42*
21,1,4.0000,1.0250,0,0,270.0*
21,1,2.9750,2.0500,0,0,270.0*
1,1,1.0250,-0.5125,-1.4875*
1,1,1.0250,-0.5125,1.4875*
1,1,1.0250,0.5125,1.4875*
1,1,1.0250,0.5125,-1.4875*
%
%ADD42ROUNDEDRECTD42*%
G04:AMPARAMS|DCode=43|XSize=3.5mm|YSize=2.05mm|CornerRadius=0.5125mm|HoleSize=0mm|Usage=FLASHONLY|Rotation=270.000|XOffset=0mm|YOffset=0mm|HoleType=Round|Shape=RoundedRectangle|*
%AMROUNDEDRECTD43*
21,1,3.5000,1.0250,0,0,270.0*
21,1,2.4750,2.0500,0,0,270.0*
1,1,1.0250,-0.5125,-1.2375*
1,1,1.0250,-0.5125,1.2375*
1,1,1.0250,0.5125,1.2375*
1,1,1.0250,0.5125,-1.2375*
%
%ADD43ROUNDEDRECTD43*%
%ADD44R,0.9000X1.0000*%
%ADD45R,1.4000X2.7000*%
%ADD46R,2.8000X1.3500*%
%ADD47O,0.7600X1.2700*%
%ADD48R,0.7600X1.2700*%
%ADD49R,3.8100X2.0320*%
%ADD50R,1.5240X2.0320*%
%ADD63C,0.1000*%
D10*
X165100Y-834390D02*
D03*
X125730Y-557530D02*
D03*
X637540Y-868680D02*
D03*
D11*
X159850Y-827890D02*
D03*
X120480Y-551030D02*
D03*
X632290Y-862180D02*
D03*
D12*
X170350Y-828390D02*
D03*
X159850Y-832390D02*
D03*
Y-836390D02*
D03*
Y-840390D02*
D03*
X170350D02*
D03*
Y-836390D02*
D03*
Y-832390D02*
D03*
X130980Y-555530D02*
D03*
Y-559530D02*
D03*
Y-563530D02*
D03*
X120480D02*
D03*
Y-559530D02*
D03*
Y-555530D02*
D03*
X130980Y-551530D02*
D03*
X642790Y-866680D02*
D03*
Y-870680D02*
D03*
Y-874680D02*
D03*
X632290D02*
D03*
Y-870680D02*
D03*
Y-866680D02*
D03*
X642790Y-862680D02*
D03*
D13*
X1177760Y-647700D02*
D03*
Y-660400D02*
D03*
Y-673100D02*
D03*
Y-685800D02*
D03*
Y-698500D02*
D03*
Y-711200D02*
D03*
Y-723900D02*
D03*
Y-736600D02*
D03*
Y-749300D02*
D03*
Y-762000D02*
D03*
Y-774700D02*
D03*
D14*
X1277260Y-711200D02*
D03*
D15*
X1132840Y-977900D02*
D03*
X1188720Y-939800D02*
D03*
Y-977900D02*
D03*
X1132840Y-952500D02*
D03*
Y-939800D02*
D03*
X1188720Y-952500D02*
D03*
X1132840Y-965200D02*
D03*
X1188720D02*
D03*
X1132840Y-858520D02*
D03*
X1188720Y-820420D02*
D03*
Y-858520D02*
D03*
X1132840Y-833120D02*
D03*
Y-820420D02*
D03*
X1188720Y-833120D02*
D03*
X1132840Y-845820D02*
D03*
X1188720D02*
D03*
X1132840Y-918210D02*
D03*
X1188720Y-880110D02*
D03*
Y-918210D02*
D03*
X1132840Y-892810D02*
D03*
Y-880110D02*
D03*
X1188720Y-892810D02*
D03*
X1132840Y-905510D02*
D03*
X1188720D02*
D03*
D16*
X1430020Y-243840D02*
D03*
X1391920Y-187960D02*
D03*
X1430020D02*
D03*
X1404620Y-243840D02*
D03*
X1391920D02*
D03*
X1404620Y-187960D02*
D03*
X1417320Y-243840D02*
D03*
Y-187960D02*
D03*
X1427480Y-398780D02*
D03*
X1465580Y-454660D02*
D03*
X1427480D02*
D03*
X1452880Y-398780D02*
D03*
X1465580D02*
D03*
X1452880Y-454660D02*
D03*
X1440180Y-398780D02*
D03*
Y-454660D02*
D03*
X1333681Y-243840D02*
D03*
X1295581Y-187960D02*
D03*
X1333681D02*
D03*
X1308281Y-243840D02*
D03*
X1295581D02*
D03*
X1308281Y-187960D02*
D03*
X1320981Y-243840D02*
D03*
Y-187960D02*
D03*
X1331346Y-398780D02*
D03*
X1369446Y-454660D02*
D03*
X1331346D02*
D03*
X1356746Y-398780D02*
D03*
X1369446D02*
D03*
X1356746Y-454660D02*
D03*
X1344046Y-398780D02*
D03*
Y-454660D02*
D03*
X1237343Y-243840D02*
D03*
X1199243Y-187960D02*
D03*
X1237343D02*
D03*
X1211943Y-243840D02*
D03*
X1199243D02*
D03*
X1211943Y-187960D02*
D03*
X1224643Y-243840D02*
D03*
Y-187960D02*
D03*
X1235213Y-398780D02*
D03*
X1273313Y-454660D02*
D03*
X1235213D02*
D03*
X1260613Y-398780D02*
D03*
X1273313D02*
D03*
X1260613Y-454660D02*
D03*
X1247913Y-398780D02*
D03*
Y-454660D02*
D03*
X1141004Y-243840D02*
D03*
X1102904Y-187960D02*
D03*
X1141004D02*
D03*
X1115604Y-243840D02*
D03*
X1102904D02*
D03*
X1115604Y-187960D02*
D03*
X1128304Y-243840D02*
D03*
Y-187960D02*
D03*
X1139079Y-398780D02*
D03*
X1177179Y-454660D02*
D03*
X1139079D02*
D03*
X1164479Y-398780D02*
D03*
X1177179D02*
D03*
X1164479Y-454660D02*
D03*
X1151779Y-398780D02*
D03*
Y-454660D02*
D03*
X1044666Y-243840D02*
D03*
X1006566Y-187960D02*
D03*
X1044666D02*
D03*
X1019266Y-243840D02*
D03*
X1006566D02*
D03*
X1019266Y-187960D02*
D03*
X1031966Y-243840D02*
D03*
Y-187960D02*
D03*
X1042946Y-398780D02*
D03*
X1081046Y-454660D02*
D03*
X1042946D02*
D03*
X1068346Y-398780D02*
D03*
X1081046D02*
D03*
X1068346Y-454660D02*
D03*
X1055646Y-398780D02*
D03*
Y-454660D02*
D03*
X948327Y-243840D02*
D03*
X910227Y-187960D02*
D03*
X948327D02*
D03*
X922927Y-243840D02*
D03*
X910227D02*
D03*
X922927Y-187960D02*
D03*
X935627Y-243840D02*
D03*
Y-187960D02*
D03*
X946812Y-398780D02*
D03*
X984912Y-454660D02*
D03*
X946812D02*
D03*
X972212Y-398780D02*
D03*
X984912D02*
D03*
X972212Y-454660D02*
D03*
X959512Y-398780D02*
D03*
Y-454660D02*
D03*
X851989Y-243840D02*
D03*
X813888Y-187960D02*
D03*
X851989D02*
D03*
X826589Y-243840D02*
D03*
X813888D02*
D03*
X826589Y-187960D02*
D03*
X839288Y-243840D02*
D03*
Y-187960D02*
D03*
X850678Y-398780D02*
D03*
X888779Y-454660D02*
D03*
X850678D02*
D03*
X876078Y-398780D02*
D03*
X888779D02*
D03*
X876078Y-454660D02*
D03*
X863379Y-398780D02*
D03*
Y-454660D02*
D03*
X755650Y-243840D02*
D03*
X717550Y-187960D02*
D03*
X755650D02*
D03*
X730250Y-243840D02*
D03*
X717550D02*
D03*
X730250Y-187960D02*
D03*
X742950Y-243840D02*
D03*
Y-187960D02*
D03*
X754545Y-398780D02*
D03*
X792645Y-454660D02*
D03*
X754545D02*
D03*
X779945Y-398780D02*
D03*
X792645D02*
D03*
X779945Y-454660D02*
D03*
X767245Y-398780D02*
D03*
Y-454660D02*
D03*
X659311Y-243840D02*
D03*
X621211Y-187960D02*
D03*
X659311D02*
D03*
X633911Y-243840D02*
D03*
X621211D02*
D03*
X633911Y-187960D02*
D03*
X646611Y-243840D02*
D03*
Y-187960D02*
D03*
X658411Y-398780D02*
D03*
X696511Y-454660D02*
D03*
X658411D02*
D03*
X683811Y-398780D02*
D03*
X696511D02*
D03*
X683811Y-454660D02*
D03*
X671111Y-398780D02*
D03*
Y-454660D02*
D03*
X562973Y-243840D02*
D03*
X524873Y-187960D02*
D03*
X562973D02*
D03*
X537573Y-243840D02*
D03*
X524873D02*
D03*
X537573Y-187960D02*
D03*
X550273Y-243840D02*
D03*
Y-187960D02*
D03*
X562278Y-398780D02*
D03*
X600378Y-454660D02*
D03*
X562278D02*
D03*
X587678Y-398780D02*
D03*
X600378D02*
D03*
X587678Y-454660D02*
D03*
X574978Y-398780D02*
D03*
Y-454660D02*
D03*
X466634Y-243840D02*
D03*
X428534Y-187960D02*
D03*
X466634D02*
D03*
X441234Y-243840D02*
D03*
X428534D02*
D03*
X441234Y-187960D02*
D03*
X453934Y-243840D02*
D03*
Y-187960D02*
D03*
X466090Y-398780D02*
D03*
X504190Y-454660D02*
D03*
X466090D02*
D03*
X491490Y-398780D02*
D03*
X504190D02*
D03*
X491490Y-454660D02*
D03*
X478790Y-398780D02*
D03*
Y-454660D02*
D03*
X370296Y-243840D02*
D03*
X332196Y-187960D02*
D03*
X370296D02*
D03*
X344896Y-243840D02*
D03*
X332196D02*
D03*
X344896Y-187960D02*
D03*
X357596Y-243840D02*
D03*
Y-187960D02*
D03*
X370011Y-398780D02*
D03*
X408111Y-454660D02*
D03*
X370011D02*
D03*
X395411Y-398780D02*
D03*
X408111D02*
D03*
X395411Y-454660D02*
D03*
X382711Y-398780D02*
D03*
Y-454660D02*
D03*
X273957Y-243840D02*
D03*
X235857Y-187960D02*
D03*
X273957D02*
D03*
X248557Y-243840D02*
D03*
X235857D02*
D03*
X248557Y-187960D02*
D03*
X261257Y-243840D02*
D03*
Y-187960D02*
D03*
X273877Y-398780D02*
D03*
X311977Y-454660D02*
D03*
X273877D02*
D03*
X299277Y-398780D02*
D03*
X311977D02*
D03*
X299277Y-454660D02*
D03*
X286577Y-398780D02*
D03*
Y-454660D02*
D03*
X177619Y-243840D02*
D03*
X139519Y-187960D02*
D03*
X177619D02*
D03*
X152219Y-243840D02*
D03*
X139519D02*
D03*
X152219Y-187960D02*
D03*
X164919Y-243840D02*
D03*
Y-187960D02*
D03*
X177744Y-398780D02*
D03*
X215844Y-454660D02*
D03*
X177744D02*
D03*
X203144Y-398780D02*
D03*
X215844D02*
D03*
X203144Y-454660D02*
D03*
X190444Y-398780D02*
D03*
Y-454660D02*
D03*
X81280Y-243840D02*
D03*
X43180Y-187960D02*
D03*
X81280D02*
D03*
X55880Y-243840D02*
D03*
X43180D02*
D03*
X55880Y-187960D02*
D03*
X68580Y-243840D02*
D03*
Y-187960D02*
D03*
X81610Y-398780D02*
D03*
X119710Y-454660D02*
D03*
X81610D02*
D03*
X107010Y-398780D02*
D03*
X119710D02*
D03*
X107010Y-454660D02*
D03*
X94310Y-398780D02*
D03*
Y-454660D02*
D03*
D17*
X238760Y-699660D02*
D03*
Y-717660D02*
D03*
X238760Y-680830D02*
D03*
Y-662830D02*
D03*
X655320Y-590440D02*
D03*
Y-608440D02*
D03*
X683260Y-635110D02*
D03*
Y-617110D02*
D03*
X1080770Y-601870D02*
D03*
Y-619870D02*
D03*
X986790Y-982980D02*
D03*
Y-964980D02*
D03*
X866140Y-623680D02*
D03*
Y-605680D02*
D03*
X284480Y-683150D02*
D03*
Y-701150D02*
D03*
X284480Y-663050D02*
D03*
Y-645050D02*
D03*
X306070Y-677020D02*
D03*
Y-659020D02*
D03*
X306070Y-697120D02*
D03*
Y-715120D02*
D03*
X262890Y-627270D02*
D03*
Y-645270D02*
D03*
X224790Y-793640D02*
D03*
Y-811640D02*
D03*
X1141730Y-712360D02*
D03*
Y-730360D02*
D03*
X1120140D02*
D03*
Y-712360D02*
D03*
X838200Y-601870D02*
D03*
Y-619870D02*
D03*
X739140Y-630030D02*
D03*
Y-612030D02*
D03*
X1014730Y-964980D02*
D03*
Y-982980D02*
D03*
X958850Y-964980D02*
D03*
Y-982980D02*
D03*
X1140460Y-670450D02*
D03*
Y-688450D02*
D03*
X1118870Y-688450D02*
D03*
Y-670450D02*
D03*
D18*
X1029970Y-887740D02*
D03*
Y-793740D02*
D03*
D19*
X77580Y-816610D02*
D03*
X59580D02*
D03*
X810150Y-664210D02*
D03*
X828150D02*
D03*
X811420Y-689610D02*
D03*
X829420D02*
D03*
X1059290Y-600710D02*
D03*
X1041290D02*
D03*
X1059290Y-619760D02*
D03*
X1041290D02*
D03*
X809100Y-643890D02*
D03*
X791100D02*
D03*
X1053990Y-660400D02*
D03*
X1071990D02*
D03*
X59580Y-599440D02*
D03*
X77580D02*
D03*
X266590Y-722630D02*
D03*
X284590D02*
D03*
X674260Y-655320D02*
D03*
X692260D02*
D03*
X624730Y-816610D02*
D03*
X642730D02*
D03*
X335390Y-737870D02*
D03*
X317390D02*
D03*
X647810Y-640080D02*
D03*
X629810D02*
D03*
X1060340Y-568960D02*
D03*
X1078340D02*
D03*
X59580Y-795020D02*
D03*
X77580D02*
D03*
X704960Y-779780D02*
D03*
X686960D02*
D03*
X736490Y-779780D02*
D03*
X754490D02*
D03*
D20*
X41910Y-816610D02*
D03*
X26670D02*
D03*
X1071880Y-643890D02*
D03*
X1056640D02*
D03*
D21*
X860280Y-652410D02*
D03*
Y-701410D02*
D03*
X1010920Y-585100D02*
D03*
Y-634100D02*
D03*
D22*
X1146810Y-593090D02*
D03*
X806450Y-624840D02*
D03*
D23*
X1146810Y-588090D02*
D03*
Y-583090D02*
D03*
Y-578090D02*
D03*
Y-573090D02*
D03*
X1102810Y-593090D02*
D03*
Y-588090D02*
D03*
Y-583090D02*
D03*
Y-578090D02*
D03*
Y-573090D02*
D03*
X762450Y-604840D02*
D03*
Y-609840D02*
D03*
Y-614840D02*
D03*
Y-619840D02*
D03*
Y-624840D02*
D03*
X806450Y-604840D02*
D03*
Y-609840D02*
D03*
Y-614840D02*
D03*
Y-619840D02*
D03*
D24*
X986790Y-932070D02*
D03*
Y-947310D02*
D03*
X882650Y-590550D02*
D03*
Y-605790D02*
D03*
X1014730Y-930800D02*
D03*
Y-946040D02*
D03*
X958850Y-930800D02*
D03*
Y-946040D02*
D03*
D25*
X485140Y-869950D02*
D03*
X463140Y-859950D02*
D03*
X597310Y-846930D02*
D03*
X575310Y-836930D02*
D03*
D26*
X485140Y-849950D02*
D03*
X575310Y-856930D02*
D03*
D27*
X616682Y-669340D02*
D03*
Y-706340D02*
D03*
D28*
X281940Y-780680D02*
D03*
X269240D02*
D03*
X256540D02*
D03*
X243840D02*
D03*
X281940Y-829680D02*
D03*
X269240D02*
D03*
X256540D02*
D03*
X243840D02*
D03*
D29*
X514150Y-589510D02*
D03*
Y-593510D02*
D03*
Y-597510D02*
D03*
Y-601510D02*
D03*
Y-605510D02*
D03*
Y-609510D02*
D03*
Y-613510D02*
D03*
Y-617510D02*
D03*
Y-621510D02*
D03*
Y-625510D02*
D03*
Y-629510D02*
D03*
Y-633510D02*
D03*
Y-637510D02*
D03*
Y-641510D02*
D03*
Y-645510D02*
D03*
Y-649510D02*
D03*
Y-653510D02*
D03*
Y-657510D02*
D03*
Y-661510D02*
D03*
Y-665510D02*
D03*
Y-669510D02*
D03*
Y-673510D02*
D03*
Y-677510D02*
D03*
Y-681510D02*
D03*
Y-685510D02*
D03*
Y-689510D02*
D03*
Y-693510D02*
D03*
Y-697510D02*
D03*
Y-701510D02*
D03*
Y-705510D02*
D03*
Y-709510D02*
D03*
Y-713510D02*
D03*
X362150D02*
D03*
Y-709510D02*
D03*
Y-705510D02*
D03*
Y-701510D02*
D03*
Y-697510D02*
D03*
Y-693510D02*
D03*
Y-689510D02*
D03*
Y-685510D02*
D03*
Y-681510D02*
D03*
Y-677510D02*
D03*
Y-673510D02*
D03*
Y-669510D02*
D03*
Y-665510D02*
D03*
Y-661510D02*
D03*
Y-657510D02*
D03*
Y-653510D02*
D03*
Y-649510D02*
D03*
Y-645510D02*
D03*
Y-641510D02*
D03*
Y-637510D02*
D03*
Y-633510D02*
D03*
Y-629510D02*
D03*
Y-625510D02*
D03*
Y-621510D02*
D03*
Y-617510D02*
D03*
Y-613510D02*
D03*
Y-609510D02*
D03*
Y-605510D02*
D03*
Y-601510D02*
D03*
Y-597510D02*
D03*
Y-593510D02*
D03*
Y-589510D02*
D03*
D30*
X500150Y-727510D02*
D03*
X496150D02*
D03*
X492150D02*
D03*
X488150D02*
D03*
X484150D02*
D03*
X480150D02*
D03*
X476150D02*
D03*
X472150D02*
D03*
X468150D02*
D03*
X464150D02*
D03*
X460150D02*
D03*
X456150D02*
D03*
X452150D02*
D03*
X448150D02*
D03*
X444150D02*
D03*
X440150D02*
D03*
X436150D02*
D03*
X432150D02*
D03*
X428150D02*
D03*
X424150D02*
D03*
X420150D02*
D03*
X416150D02*
D03*
X412150D02*
D03*
X408150D02*
D03*
X404150D02*
D03*
X400150D02*
D03*
X396150D02*
D03*
X392150D02*
D03*
X388150D02*
D03*
X384150D02*
D03*
X380150D02*
D03*
X376150D02*
D03*
Y-575510D02*
D03*
X380150D02*
D03*
X384150D02*
D03*
X388150D02*
D03*
X392150D02*
D03*
X396150D02*
D03*
X400150D02*
D03*
X404150D02*
D03*
X408150D02*
D03*
X412150D02*
D03*
X416150D02*
D03*
X420150D02*
D03*
X424150D02*
D03*
X428150D02*
D03*
X432150D02*
D03*
X436150D02*
D03*
X440150D02*
D03*
X444150D02*
D03*
X448150D02*
D03*
X452150D02*
D03*
X456150D02*
D03*
X460150D02*
D03*
X464150D02*
D03*
X468150D02*
D03*
X472150D02*
D03*
X476150D02*
D03*
X480150D02*
D03*
X484150D02*
D03*
X488150D02*
D03*
X492150D02*
D03*
X496150D02*
D03*
X500150D02*
D03*
D31*
X1103630Y-749460D02*
D03*
Y-769460D02*
D03*
D32*
X1143000Y-773400D02*
D03*
Y-801400D02*
D03*
D33*
X1179830Y-616710D02*
D03*
Y-584710D02*
D03*
D34*
X605790Y-830580D02*
D03*
Y-816580D02*
D03*
X516890Y-877600D02*
D03*
Y-863600D02*
D03*
X534670D02*
D03*
Y-877600D02*
D03*
X553720D02*
D03*
Y-863600D02*
D03*
D35*
X481950Y-794510D02*
D03*
X495950D02*
D03*
X469280Y-794510D02*
D03*
X455280D02*
D03*
X1134730Y-751840D02*
D03*
X1148730D02*
D03*
D36*
X482600Y-780920D02*
D03*
Y-764920D02*
D03*
X1214120Y-895730D02*
D03*
Y-879730D02*
D03*
Y-956690D02*
D03*
Y-940690D02*
D03*
Y-836040D02*
D03*
Y-820040D02*
D03*
D37*
X464410Y-814070D02*
D03*
Y-830070D02*
D03*
X486410Y-814070D02*
D03*
Y-830070D02*
D03*
D38*
X1026300Y-663730D02*
D03*
X1003300D02*
D03*
X980300D02*
D03*
X942480D02*
D03*
X919480D02*
D03*
X896480D02*
D03*
D39*
X1003300Y-730730D02*
D03*
X919480D02*
D03*
D40*
X539240Y-913130D02*
D03*
X555240D02*
D03*
X547240D02*
D03*
X523240D02*
D03*
X531240D02*
D03*
D41*
X588490Y-912880D02*
D03*
D42*
Y-955380D02*
D03*
X489990D02*
D03*
D43*
Y-912880D02*
D03*
D44*
X611250Y-730250D02*
D03*
X595250D02*
D03*
X611250Y-745490D02*
D03*
X595250D02*
D03*
X540130Y-734060D02*
D03*
X524130D02*
D03*
X540130Y-749300D02*
D03*
X524130D02*
D03*
D45*
X720310Y-657860D02*
D03*
X747810D02*
D03*
D46*
X861060Y-730760D02*
D03*
Y-762760D02*
D03*
X817880Y-730760D02*
D03*
Y-762760D02*
D03*
D47*
X321310Y-842370D02*
D03*
X334010D02*
D03*
X346710D02*
D03*
X359410D02*
D03*
X372110D02*
D03*
X384810D02*
D03*
X397510D02*
D03*
X410210D02*
D03*
X321310Y-801370D02*
D03*
X334010D02*
D03*
X346710D02*
D03*
X359410D02*
D03*
X372110D02*
D03*
X384810D02*
D03*
X397510D02*
D03*
D48*
X410210D02*
D03*
D49*
X691134Y-677418D02*
D03*
D50*
X714248Y-740410D02*
D03*
X691134D02*
D03*
X668020D02*
D03*
D63*
X1450128Y-999960D02*
G03*
X1500128Y-949960I0J50000D01*
G01*
X1499960Y-49872D02*
G03*
X1449960Y127I-50000J0D01*
G01*
X49872Y-40D02*
G03*
X-127Y-50040I0J-50000D01*
G01*
X40Y-950127D02*
G03*
X50040Y-1000127I50000J0D01*
G01*
X50000Y0D02*
X1450000D01*
X0Y-950000D02*
Y-50000D01*
X50000Y-1000000D02*
X1450000D01*
X1500000Y-950000D02*
Y-50000D01*
M02*
