G04 Layer_Color=16711935*
%FSLAX44Y44*%
%MOMM*%
G71*
G01*
G75*
%ADD63C,0.1000*%
%ADD73P,2.0345X8X292.5*%
%ADD98R,1.3032X1.3032*%
%ADD100R,1.3032X1.3032*%
%ADD131C,2.2032*%
%ADD132C,1.5032*%
%ADD133R,1.5032X1.5032*%
%ADD134P,2.2544X8X202.5*%
%ADD135C,2.7032*%
%ADD136R,2.7032X2.7032*%
%ADD137C,0.2032*%
%ADD138O,4.2032X2.2032*%
%ADD139C,2.2032*%
%ADD140R,2.2032X2.2032*%
%ADD141P,2.2544X8X292.5*%
%ADD142C,1.1032*%
%ADD143C,6.2032*%
%ADD144C,2.5582*%
%ADD145C,1.8796*%
%ADD146C,3.4532*%
D63*
X1450128Y-999960D02*
G03*
X1500128Y-949960I0J50000D01*
G01*
X1499960Y-49872D02*
G03*
X1449960Y127I-50000J0D01*
G01*
X49872Y-40D02*
G03*
X-127Y-50040I0J-50000D01*
G01*
X40Y-950127D02*
G03*
X50040Y-1000127I50000J0D01*
G01*
X50000Y0D02*
X1450000D01*
X0Y-950000D02*
Y-50000D01*
X50000Y-1000000D02*
X1450000D01*
X1500000Y-950000D02*
Y-50000D01*
D73*
X171450Y-648970D02*
D03*
D98*
X948690Y-674480D02*
D03*
Y-656480D02*
D03*
X980440Y-674480D02*
D03*
Y-656480D02*
D03*
X455930Y-665370D02*
D03*
Y-683370D02*
D03*
X467360Y-566310D02*
D03*
Y-584310D02*
D03*
D100*
X519540Y-657860D02*
D03*
X501540D02*
D03*
X421750Y-570230D02*
D03*
X403750D02*
D03*
X508110Y-726440D02*
D03*
X490110D02*
D03*
X508110Y-706120D02*
D03*
X490110D02*
D03*
D131*
X1377950Y-614680D02*
D03*
Y-690880D02*
D03*
D132*
X549760Y-795970D02*
D03*
X559760Y-775970D02*
D03*
X569760Y-795970D02*
D03*
X579760Y-775970D02*
D03*
X589760Y-795970D02*
D03*
X599760Y-775970D02*
D03*
X609760Y-795970D02*
D03*
D133*
X619760Y-775970D02*
D03*
D134*
X70150Y-570230D02*
D03*
X44750Y-544830D02*
D03*
Y-570230D02*
D03*
X19350Y-544830D02*
D03*
Y-570230D02*
D03*
X70150Y-544830D02*
D03*
X223520Y-323850D02*
D03*
X299720Y-298450D02*
D03*
Y-323850D02*
D03*
X274320Y-298450D02*
D03*
Y-323850D02*
D03*
X248920Y-298450D02*
D03*
Y-323850D02*
D03*
X223520Y-298450D02*
D03*
X325120Y-323850D02*
D03*
Y-298450D02*
D03*
X1289050Y-303530D02*
D03*
Y-328930D02*
D03*
X1187450Y-303530D02*
D03*
X1212850Y-328930D02*
D03*
Y-303530D02*
D03*
X1238250Y-328930D02*
D03*
Y-303530D02*
D03*
X1263650Y-328930D02*
D03*
Y-303530D02*
D03*
X1187450Y-328930D02*
D03*
X916640Y-614680D02*
D03*
X967440Y-589280D02*
D03*
Y-614680D02*
D03*
X942040Y-589280D02*
D03*
Y-614680D02*
D03*
X916640Y-589280D02*
D03*
X704850Y-332740D02*
D03*
X781050Y-307340D02*
D03*
Y-332740D02*
D03*
X755650Y-307340D02*
D03*
Y-332740D02*
D03*
X730250Y-307340D02*
D03*
Y-332740D02*
D03*
X704850Y-307340D02*
D03*
X806450Y-332740D02*
D03*
Y-307340D02*
D03*
X706120Y-702310D02*
D03*
X731520D02*
D03*
X756920D02*
D03*
D135*
X905510Y-806060D02*
D03*
X843280D02*
D03*
X801280D02*
D03*
X740410D02*
D03*
X698410D02*
D03*
D136*
X905510Y-861060D02*
D03*
X843280D02*
D03*
X801280D02*
D03*
X740410D02*
D03*
X698410D02*
D03*
D137*
X905510Y-934060D02*
D03*
X225270Y-950780D02*
D03*
X359890D02*
D03*
X822280Y-934060D02*
D03*
X719410D02*
D03*
D138*
X1410970Y-783590D02*
D03*
X1461970D02*
D03*
Y-872490D02*
D03*
X1410970D02*
D03*
D139*
X195270Y-876780D02*
D03*
X225270D02*
D03*
X255270D02*
D03*
X195270Y-906780D02*
D03*
X225270D02*
D03*
X329890Y-876780D02*
D03*
X359890D02*
D03*
X389890D02*
D03*
X329890Y-906780D02*
D03*
X359890D02*
D03*
D140*
X255270D02*
D03*
X389890D02*
D03*
D141*
X111760Y-849630D02*
D03*
Y-976630D02*
D03*
Y-875030D02*
D03*
Y-951230D02*
D03*
Y-900430D02*
D03*
Y-925830D02*
D03*
D142*
X561240Y-936380D02*
D03*
X517240D02*
D03*
D143*
X50000Y-950000D02*
D03*
D144*
X138450Y-772170D02*
D03*
Y-614670D02*
D03*
D145*
X74150Y-756670D02*
D03*
X58950Y-731270D02*
D03*
X74150Y-655570D02*
D03*
X58950Y-630170D02*
D03*
X196850Y-661670D02*
D03*
Y-687070D02*
D03*
X171450Y-699770D02*
D03*
Y-725170D02*
D03*
X196850Y-737870D02*
D03*
X171450Y-674370D02*
D03*
X196850Y-712470D02*
D03*
D146*
X107950Y-636270D02*
D03*
Y-750570D02*
D03*
M02*
