G04 Layer_Color=65535*
%FSLAX44Y44*%
%MOMM*%
G71*
G01*
G75*
%ADD60C,1.0000*%
%ADD61C,0.2540*%
%ADD62C,0.5000*%
%ADD87C,0.2032*%
%ADD88C,0.6000*%
%ADD89C,0.2500*%
%ADD90C,0.2000*%
%ADD91C,0.0079*%
%ADD92C,0.1016*%
%ADD93C,0.1524*%
%ADD94C,0.1000*%
%ADD95C,0.1270*%
%ADD96C,0.0100*%
%ADD97R,0.3810X0.7620*%
%ADD98R,0.7620X0.3810*%
G36*
X1374505Y-620849D02*
X1374681Y-620868D01*
X1374876Y-620908D01*
X1375110Y-620947D01*
X1375344Y-621005D01*
X1375598Y-621083D01*
X1375871Y-621161D01*
X1376144Y-621278D01*
X1376417Y-621415D01*
X1376690Y-621571D01*
X1376944Y-621766D01*
X1377197Y-621961D01*
X1377431Y-622215D01*
X1377451Y-622234D01*
X1377490Y-622273D01*
X1377549Y-622351D01*
X1377626Y-622468D01*
X1377705Y-622624D01*
X1377802Y-622800D01*
X1377919Y-622995D01*
X1378017Y-623248D01*
X1378134Y-623521D01*
X1378231Y-623834D01*
X1378329Y-624185D01*
X1378426Y-624555D01*
X1378485Y-624965D01*
X1378543Y-625394D01*
X1378582Y-625882D01*
Y-626389D01*
X1372438D01*
Y-626409D01*
Y-626428D01*
Y-626487D01*
X1372457Y-626565D01*
X1372477Y-626779D01*
X1372516Y-627013D01*
X1372594Y-627306D01*
X1372691Y-627579D01*
X1372828Y-627852D01*
X1373023Y-628106D01*
X1373042Y-628125D01*
X1373120Y-628203D01*
X1373237Y-628301D01*
X1373413Y-628398D01*
X1373608Y-628515D01*
X1373862Y-628613D01*
X1374135Y-628691D01*
X1374427Y-628710D01*
X1374525D01*
X1374642Y-628691D01*
X1374778Y-628671D01*
X1374915Y-628632D01*
X1375091Y-628574D01*
X1375247Y-628496D01*
X1375403Y-628398D01*
X1375422Y-628379D01*
X1375461Y-628340D01*
X1375539Y-628262D01*
X1375617Y-628145D01*
X1375715Y-628008D01*
X1375832Y-627833D01*
X1375929Y-627637D01*
X1376007Y-627384D01*
X1378446Y-627794D01*
Y-627813D01*
X1378426Y-627852D01*
X1378387Y-627930D01*
X1378348Y-628008D01*
X1378309Y-628125D01*
X1378231Y-628262D01*
X1378075Y-628554D01*
X1377861Y-628886D01*
X1377607Y-629218D01*
X1377295Y-629549D01*
X1376944Y-629842D01*
X1376924D01*
X1376905Y-629881D01*
X1376846Y-629900D01*
X1376768Y-629959D01*
X1376671Y-629998D01*
X1376534Y-630056D01*
X1376241Y-630193D01*
X1375871Y-630330D01*
X1375442Y-630427D01*
X1374954Y-630505D01*
X1374408Y-630544D01*
X1374310D01*
X1374174Y-630525D01*
X1374018D01*
X1373803Y-630486D01*
X1373589Y-630466D01*
X1373335Y-630408D01*
X1373062Y-630349D01*
X1372769Y-630271D01*
X1372477Y-630154D01*
X1372164Y-630037D01*
X1371872Y-629881D01*
X1371579Y-629705D01*
X1371306Y-629491D01*
X1371053Y-629237D01*
X1370818Y-628964D01*
Y-628945D01*
X1370780Y-628905D01*
X1370741Y-628828D01*
X1370682Y-628730D01*
X1370604Y-628613D01*
X1370526Y-628457D01*
X1370448Y-628281D01*
X1370370Y-628086D01*
X1370292Y-627872D01*
X1370214Y-627618D01*
X1370136Y-627364D01*
X1370058Y-627072D01*
X1369960Y-626448D01*
X1369941Y-626116D01*
X1369921Y-625765D01*
Y-625745D01*
Y-625667D01*
Y-625550D01*
X1369941Y-625375D01*
X1369960Y-625199D01*
X1369980Y-624965D01*
X1370019Y-624711D01*
X1370077Y-624458D01*
X1370214Y-623873D01*
X1370311Y-623580D01*
X1370428Y-623268D01*
X1370565Y-622975D01*
X1370721Y-622683D01*
X1370896Y-622410D01*
X1371111Y-622156D01*
X1371131Y-622136D01*
X1371170Y-622098D01*
X1371228Y-622039D01*
X1371326Y-621941D01*
X1371443Y-621844D01*
X1371599Y-621727D01*
X1371755Y-621610D01*
X1371950Y-621493D01*
X1372164Y-621376D01*
X1372379Y-621239D01*
X1372633Y-621142D01*
X1372906Y-621044D01*
X1373198Y-620947D01*
X1373491Y-620888D01*
X1373823Y-620849D01*
X1374154Y-620830D01*
X1374349D01*
X1374505Y-620849D01*
D02*
G37*
G36*
X1349458Y-630310D02*
X1347098D01*
X1345498Y-624341D01*
X1343918Y-630310D01*
X1341538D01*
X1338612Y-621025D01*
X1340992D01*
X1342728Y-627111D01*
X1344328Y-621025D01*
X1346708D01*
X1348249Y-627111D01*
X1350024Y-621025D01*
X1352443D01*
X1349458Y-630310D01*
D02*
G37*
G36*
X1279076Y-620849D02*
X1279252Y-620868D01*
X1279447Y-620908D01*
X1279681Y-620947D01*
X1279915Y-621005D01*
X1280169Y-621083D01*
X1280442Y-621161D01*
X1280715Y-621278D01*
X1280988Y-621415D01*
X1281261Y-621571D01*
X1281515Y-621766D01*
X1281768Y-621961D01*
X1282002Y-622215D01*
X1282022Y-622234D01*
X1282061Y-622273D01*
X1282119Y-622351D01*
X1282197Y-622468D01*
X1282275Y-622624D01*
X1282373Y-622800D01*
X1282490Y-622995D01*
X1282587Y-623248D01*
X1282704Y-623521D01*
X1282802Y-623834D01*
X1282900Y-624185D01*
X1282997Y-624555D01*
X1283056Y-624965D01*
X1283114Y-625394D01*
X1283153Y-625882D01*
Y-626389D01*
X1277008D01*
Y-626409D01*
Y-626428D01*
Y-626487D01*
X1277028Y-626565D01*
X1277047Y-626779D01*
X1277086Y-627013D01*
X1277165Y-627306D01*
X1277262Y-627579D01*
X1277399Y-627852D01*
X1277594Y-628106D01*
X1277613Y-628125D01*
X1277691Y-628203D01*
X1277808Y-628301D01*
X1277984Y-628398D01*
X1278179Y-628515D01*
X1278432Y-628613D01*
X1278706Y-628691D01*
X1278998Y-628710D01*
X1279096D01*
X1279213Y-628691D01*
X1279349Y-628671D01*
X1279486Y-628632D01*
X1279661Y-628574D01*
X1279817Y-628496D01*
X1279974Y-628398D01*
X1279993Y-628379D01*
X1280032Y-628340D01*
X1280110Y-628262D01*
X1280188Y-628145D01*
X1280286Y-628008D01*
X1280403Y-627833D01*
X1280500Y-627637D01*
X1280578Y-627384D01*
X1283017Y-627794D01*
Y-627813D01*
X1282997Y-627852D01*
X1282958Y-627930D01*
X1282919Y-628008D01*
X1282880Y-628125D01*
X1282802Y-628262D01*
X1282646Y-628554D01*
X1282431Y-628886D01*
X1282178Y-629218D01*
X1281866Y-629549D01*
X1281515Y-629842D01*
X1281495D01*
X1281476Y-629881D01*
X1281417Y-629900D01*
X1281339Y-629959D01*
X1281241Y-629998D01*
X1281105Y-630056D01*
X1280812Y-630193D01*
X1280442Y-630330D01*
X1280013Y-630427D01*
X1279525Y-630505D01*
X1278979Y-630544D01*
X1278881D01*
X1278745Y-630525D01*
X1278588D01*
X1278374Y-630486D01*
X1278159Y-630466D01*
X1277906Y-630408D01*
X1277633Y-630349D01*
X1277340Y-630271D01*
X1277047Y-630154D01*
X1276735Y-630037D01*
X1276443Y-629881D01*
X1276150Y-629705D01*
X1275877Y-629491D01*
X1275623Y-629237D01*
X1275389Y-628964D01*
Y-628945D01*
X1275350Y-628905D01*
X1275311Y-628828D01*
X1275253Y-628730D01*
X1275175Y-628613D01*
X1275097Y-628457D01*
X1275019Y-628281D01*
X1274941Y-628086D01*
X1274863Y-627872D01*
X1274785Y-627618D01*
X1274706Y-627364D01*
X1274629Y-627072D01*
X1274531Y-626448D01*
X1274511Y-626116D01*
X1274492Y-625765D01*
Y-625745D01*
Y-625667D01*
Y-625550D01*
X1274511Y-625375D01*
X1274531Y-625199D01*
X1274550Y-624965D01*
X1274589Y-624711D01*
X1274648Y-624458D01*
X1274785Y-623873D01*
X1274882Y-623580D01*
X1274999Y-623268D01*
X1275136Y-622975D01*
X1275292Y-622683D01*
X1275467Y-622410D01*
X1275682Y-622156D01*
X1275701Y-622136D01*
X1275740Y-622098D01*
X1275799Y-622039D01*
X1275897Y-621941D01*
X1276013Y-621844D01*
X1276170Y-621727D01*
X1276326Y-621610D01*
X1276521Y-621493D01*
X1276735Y-621376D01*
X1276950Y-621239D01*
X1277204Y-621142D01*
X1277477Y-621044D01*
X1277769Y-620947D01*
X1278062Y-620888D01*
X1278393Y-620849D01*
X1278725Y-620830D01*
X1278920D01*
X1279076Y-620849D01*
D02*
G37*
G36*
X1357749D02*
X1357905D01*
X1358275Y-620868D01*
X1358665Y-620927D01*
X1359075Y-620986D01*
X1359465Y-621083D01*
X1359641Y-621142D01*
X1359797Y-621220D01*
X1359836Y-621239D01*
X1359933Y-621298D01*
X1360070Y-621376D01*
X1360246Y-621493D01*
X1360421Y-621629D01*
X1360616Y-621805D01*
X1360792Y-622000D01*
X1360928Y-622215D01*
X1360948Y-622234D01*
X1360987Y-622332D01*
X1361026Y-622488D01*
X1361104Y-622722D01*
X1361123Y-622858D01*
X1361163Y-623014D01*
X1361182Y-623190D01*
X1361201Y-623405D01*
X1361221Y-623619D01*
X1361241Y-623873D01*
X1361260Y-624126D01*
Y-624419D01*
X1361221Y-627267D01*
Y-627286D01*
Y-627325D01*
Y-627384D01*
Y-627462D01*
Y-627677D01*
X1361241Y-627950D01*
Y-628242D01*
X1361279Y-628554D01*
X1361299Y-628828D01*
X1361338Y-629081D01*
Y-629101D01*
X1361358Y-629179D01*
X1361396Y-629296D01*
X1361436Y-629452D01*
X1361494Y-629627D01*
X1361572Y-629842D01*
X1361670Y-630056D01*
X1361787Y-630310D01*
X1359368D01*
Y-630290D01*
X1359348Y-630271D01*
X1359329Y-630213D01*
X1359309Y-630135D01*
X1359270Y-630037D01*
X1359212Y-629920D01*
X1359173Y-629764D01*
X1359114Y-629608D01*
Y-629588D01*
Y-629569D01*
X1359075Y-629491D01*
X1359056Y-629393D01*
X1359036Y-629315D01*
X1359017Y-629335D01*
X1358919Y-629413D01*
X1358802Y-629530D01*
X1358627Y-629666D01*
X1358431Y-629822D01*
X1358197Y-629978D01*
X1357963Y-630115D01*
X1357690Y-630252D01*
X1357651Y-630271D01*
X1357573Y-630290D01*
X1357417Y-630349D01*
X1357222Y-630388D01*
X1357007Y-630447D01*
X1356754Y-630505D01*
X1356461Y-630525D01*
X1356169Y-630544D01*
X1356032D01*
X1355934Y-630525D01*
X1355818D01*
X1355661Y-630505D01*
X1355349Y-630447D01*
X1354979Y-630349D01*
X1354608Y-630232D01*
X1354237Y-630037D01*
X1353906Y-629783D01*
X1353867Y-629744D01*
X1353769Y-629647D01*
X1353652Y-629471D01*
X1353496Y-629237D01*
X1353340Y-628945D01*
X1353223Y-628613D01*
X1353125Y-628223D01*
X1353087Y-627794D01*
Y-627755D01*
Y-627657D01*
X1353106Y-627520D01*
X1353125Y-627325D01*
X1353184Y-627111D01*
X1353242Y-626877D01*
X1353340Y-626643D01*
X1353457Y-626409D01*
X1353477Y-626389D01*
X1353535Y-626311D01*
X1353613Y-626194D01*
X1353730Y-626057D01*
X1353867Y-625901D01*
X1354042Y-625745D01*
X1354257Y-625589D01*
X1354491Y-625453D01*
X1354530Y-625433D01*
X1354628Y-625394D01*
X1354784Y-625336D01*
X1354998Y-625258D01*
X1355271Y-625160D01*
X1355603Y-625063D01*
X1355993Y-624965D01*
X1356442Y-624868D01*
X1356461D01*
X1356520Y-624848D01*
X1356598Y-624828D01*
X1356715Y-624809D01*
X1356871Y-624790D01*
X1357027Y-624751D01*
X1357398Y-624672D01*
X1357788Y-624575D01*
X1358178Y-624477D01*
X1358548Y-624380D01*
X1358705Y-624321D01*
X1358841Y-624263D01*
Y-624029D01*
Y-623990D01*
Y-623912D01*
X1358822Y-623795D01*
X1358802Y-623639D01*
X1358763Y-623463D01*
X1358685Y-623307D01*
X1358607Y-623151D01*
X1358490Y-623014D01*
X1358470Y-622995D01*
X1358412Y-622956D01*
X1358334Y-622917D01*
X1358197Y-622858D01*
X1358022Y-622800D01*
X1357788Y-622741D01*
X1357495Y-622722D01*
X1357164Y-622702D01*
X1357046D01*
X1356929Y-622722D01*
X1356793Y-622741D01*
X1356442Y-622819D01*
X1356286Y-622878D01*
X1356130Y-622975D01*
X1356110Y-622995D01*
X1356071Y-623034D01*
X1355993Y-623092D01*
X1355915Y-623190D01*
X1355818Y-623307D01*
X1355720Y-623463D01*
X1355622Y-623658D01*
X1355544Y-623873D01*
X1353340Y-623463D01*
Y-623443D01*
X1353360Y-623405D01*
X1353379Y-623326D01*
X1353418Y-623248D01*
X1353516Y-623014D01*
X1353633Y-622722D01*
X1353808Y-622390D01*
X1354042Y-622078D01*
X1354315Y-621766D01*
X1354628Y-621493D01*
X1354647D01*
X1354667Y-621473D01*
X1354725Y-621434D01*
X1354803Y-621395D01*
X1354901Y-621337D01*
X1355018Y-621278D01*
X1355154Y-621220D01*
X1355310Y-621161D01*
X1355486Y-621103D01*
X1355700Y-621044D01*
X1355915Y-620986D01*
X1356169Y-620927D01*
X1356422Y-620888D01*
X1356715Y-620849D01*
X1357007Y-620830D01*
X1357612D01*
X1357749Y-620849D01*
D02*
G37*
G36*
X1316003D02*
X1316159D01*
X1316530Y-620868D01*
X1316920Y-620927D01*
X1317330Y-620986D01*
X1317720Y-621083D01*
X1317896Y-621142D01*
X1318051Y-621220D01*
X1318091Y-621239D01*
X1318188Y-621298D01*
X1318325Y-621376D01*
X1318500Y-621493D01*
X1318676Y-621629D01*
X1318871Y-621805D01*
X1319046Y-622000D01*
X1319183Y-622215D01*
X1319203Y-622234D01*
X1319241Y-622332D01*
X1319281Y-622488D01*
X1319359Y-622722D01*
X1319378Y-622858D01*
X1319417Y-623014D01*
X1319437Y-623190D01*
X1319456Y-623405D01*
X1319476Y-623619D01*
X1319495Y-623873D01*
X1319515Y-624126D01*
Y-624419D01*
X1319476Y-627267D01*
Y-627286D01*
Y-627325D01*
Y-627384D01*
Y-627462D01*
Y-627677D01*
X1319495Y-627950D01*
Y-628242D01*
X1319534Y-628554D01*
X1319554Y-628828D01*
X1319593Y-629081D01*
Y-629101D01*
X1319612Y-629179D01*
X1319651Y-629296D01*
X1319690Y-629452D01*
X1319749Y-629627D01*
X1319827Y-629842D01*
X1319924Y-630056D01*
X1320041Y-630310D01*
X1317622D01*
Y-630290D01*
X1317603Y-630271D01*
X1317583Y-630213D01*
X1317564Y-630135D01*
X1317525Y-630037D01*
X1317466Y-629920D01*
X1317427Y-629764D01*
X1317369Y-629608D01*
Y-629588D01*
Y-629569D01*
X1317330Y-629491D01*
X1317310Y-629393D01*
X1317291Y-629315D01*
X1317271Y-629335D01*
X1317174Y-629413D01*
X1317057Y-629530D01*
X1316881Y-629666D01*
X1316686Y-629822D01*
X1316452Y-629978D01*
X1316218Y-630115D01*
X1315945Y-630252D01*
X1315906Y-630271D01*
X1315828Y-630290D01*
X1315672Y-630349D01*
X1315477Y-630388D01*
X1315262Y-630447D01*
X1315008Y-630505D01*
X1314716Y-630525D01*
X1314423Y-630544D01*
X1314287D01*
X1314189Y-630525D01*
X1314072D01*
X1313916Y-630505D01*
X1313604Y-630447D01*
X1313233Y-630349D01*
X1312863Y-630232D01*
X1312492Y-630037D01*
X1312160Y-629783D01*
X1312121Y-629744D01*
X1312024Y-629647D01*
X1311907Y-629471D01*
X1311751Y-629237D01*
X1311595Y-628945D01*
X1311478Y-628613D01*
X1311380Y-628223D01*
X1311341Y-627794D01*
Y-627755D01*
Y-627657D01*
X1311361Y-627520D01*
X1311380Y-627325D01*
X1311439Y-627111D01*
X1311497Y-626877D01*
X1311595Y-626643D01*
X1311712Y-626409D01*
X1311731Y-626389D01*
X1311790Y-626311D01*
X1311868Y-626194D01*
X1311985Y-626057D01*
X1312121Y-625901D01*
X1312297Y-625745D01*
X1312511Y-625589D01*
X1312746Y-625453D01*
X1312785Y-625433D01*
X1312882Y-625394D01*
X1313038Y-625336D01*
X1313253Y-625258D01*
X1313526Y-625160D01*
X1313858Y-625063D01*
X1314248Y-624965D01*
X1314696Y-624868D01*
X1314716D01*
X1314774Y-624848D01*
X1314852Y-624828D01*
X1314969Y-624809D01*
X1315125Y-624790D01*
X1315282Y-624751D01*
X1315652Y-624672D01*
X1316042Y-624575D01*
X1316432Y-624477D01*
X1316803Y-624380D01*
X1316959Y-624321D01*
X1317096Y-624263D01*
Y-624029D01*
Y-623990D01*
Y-623912D01*
X1317076Y-623795D01*
X1317057Y-623639D01*
X1317018Y-623463D01*
X1316940Y-623307D01*
X1316862Y-623151D01*
X1316745Y-623014D01*
X1316725Y-622995D01*
X1316667Y-622956D01*
X1316588Y-622917D01*
X1316452Y-622858D01*
X1316276Y-622800D01*
X1316042Y-622741D01*
X1315750Y-622722D01*
X1315418Y-622702D01*
X1315301D01*
X1315184Y-622722D01*
X1315047Y-622741D01*
X1314696Y-622819D01*
X1314540Y-622878D01*
X1314384Y-622975D01*
X1314365Y-622995D01*
X1314326Y-623034D01*
X1314248Y-623092D01*
X1314170Y-623190D01*
X1314072Y-623307D01*
X1313974Y-623463D01*
X1313877Y-623658D01*
X1313799Y-623873D01*
X1311595Y-623463D01*
Y-623443D01*
X1311614Y-623405D01*
X1311634Y-623326D01*
X1311673Y-623248D01*
X1311770Y-623014D01*
X1311887Y-622722D01*
X1312063Y-622390D01*
X1312297Y-622078D01*
X1312570Y-621766D01*
X1312882Y-621493D01*
X1312902D01*
X1312921Y-621473D01*
X1312980Y-621434D01*
X1313058Y-621395D01*
X1313155Y-621337D01*
X1313272Y-621278D01*
X1313409Y-621220D01*
X1313565Y-621161D01*
X1313741Y-621103D01*
X1313955Y-621044D01*
X1314170Y-620986D01*
X1314423Y-620927D01*
X1314677Y-620888D01*
X1314969Y-620849D01*
X1315262Y-620830D01*
X1315867D01*
X1316003Y-620849D01*
D02*
G37*
G36*
X1303499Y-622234D02*
X1303519Y-622215D01*
X1303558Y-622175D01*
X1303616Y-622098D01*
X1303714Y-622020D01*
X1303831Y-621902D01*
X1303948Y-621785D01*
X1304104Y-621668D01*
X1304299Y-621532D01*
X1304709Y-621278D01*
X1305177Y-621044D01*
X1305450Y-620966D01*
X1305723Y-620888D01*
X1306016Y-620849D01*
X1306308Y-620830D01*
X1306445D01*
X1306620Y-620849D01*
X1306815Y-620868D01*
X1307050Y-620908D01*
X1307323Y-620966D01*
X1307576Y-621044D01*
X1307830Y-621161D01*
X1307869Y-621181D01*
X1307947Y-621220D01*
X1308064Y-621278D01*
X1308220Y-621376D01*
X1308376Y-621493D01*
X1308551Y-621629D01*
X1308727Y-621785D01*
X1308864Y-621961D01*
X1308883Y-621980D01*
X1308922Y-622039D01*
X1308981Y-622156D01*
X1309059Y-622273D01*
X1309137Y-622449D01*
X1309215Y-622624D01*
X1309273Y-622839D01*
X1309332Y-623053D01*
Y-623073D01*
X1309351Y-623170D01*
X1309371Y-623307D01*
X1309410Y-623502D01*
X1309429Y-623756D01*
X1309449Y-624068D01*
X1309468Y-624458D01*
Y-624887D01*
Y-630310D01*
X1307010D01*
Y-625414D01*
Y-625394D01*
Y-625355D01*
Y-625277D01*
Y-625180D01*
Y-624926D01*
X1306991Y-624633D01*
X1306971Y-624321D01*
X1306952Y-624029D01*
X1306913Y-623775D01*
X1306874Y-623658D01*
X1306854Y-623580D01*
Y-623560D01*
X1306835Y-623502D01*
X1306796Y-623443D01*
X1306737Y-623346D01*
X1306601Y-623131D01*
X1306484Y-623034D01*
X1306367Y-622936D01*
X1306347Y-622917D01*
X1306308Y-622897D01*
X1306230Y-622858D01*
X1306133Y-622819D01*
X1305996Y-622780D01*
X1305840Y-622741D01*
X1305684Y-622702D01*
X1305391D01*
X1305274Y-622722D01*
X1305118Y-622741D01*
X1304962Y-622780D01*
X1304767Y-622839D01*
X1304592Y-622917D01*
X1304397Y-623014D01*
X1304377Y-623034D01*
X1304319Y-623073D01*
X1304240Y-623131D01*
X1304143Y-623229D01*
X1304026Y-623366D01*
X1303909Y-623521D01*
X1303811Y-623697D01*
X1303714Y-623912D01*
Y-623931D01*
X1303675Y-624029D01*
X1303655Y-624165D01*
X1303616Y-624341D01*
X1303577Y-624594D01*
X1303538Y-624907D01*
X1303519Y-625258D01*
X1303499Y-625667D01*
Y-630310D01*
X1301041D01*
Y-617494D01*
X1303499D01*
Y-622234D01*
D02*
G37*
G36*
X1326518Y-620849D02*
X1326732Y-620888D01*
X1326966Y-620947D01*
X1327259Y-621025D01*
X1327552Y-621142D01*
X1327844Y-621298D01*
X1327083Y-623443D01*
X1327064Y-623424D01*
X1326986Y-623385D01*
X1326849Y-623307D01*
X1326713Y-623229D01*
X1326518Y-623170D01*
X1326323Y-623092D01*
X1326127Y-623053D01*
X1325913Y-623034D01*
X1325835D01*
X1325737Y-623053D01*
X1325620Y-623073D01*
X1325484Y-623112D01*
X1325328Y-623151D01*
X1325172Y-623229D01*
X1325035Y-623326D01*
X1325016Y-623346D01*
X1324977Y-623385D01*
X1324918Y-623463D01*
X1324840Y-623560D01*
X1324742Y-623697D01*
X1324645Y-623892D01*
X1324547Y-624107D01*
X1324469Y-624360D01*
Y-624399D01*
X1324450Y-624438D01*
X1324430Y-624516D01*
Y-624594D01*
X1324411Y-624711D01*
X1324391Y-624868D01*
X1324372Y-625024D01*
X1324352Y-625219D01*
X1324333Y-625433D01*
X1324313Y-625687D01*
Y-625979D01*
X1324294Y-626292D01*
X1324274Y-626643D01*
Y-627033D01*
Y-627462D01*
Y-630310D01*
X1321816D01*
Y-621025D01*
X1324099D01*
Y-622332D01*
X1324118Y-622312D01*
X1324196Y-622195D01*
X1324313Y-622039D01*
X1324450Y-621844D01*
X1324606Y-621629D01*
X1324781Y-621434D01*
X1324977Y-621259D01*
X1325152Y-621122D01*
X1325172Y-621103D01*
X1325230Y-621083D01*
X1325328Y-621025D01*
X1325464Y-620966D01*
X1325620Y-620927D01*
X1325796Y-620868D01*
X1325991Y-620849D01*
X1326206Y-620830D01*
X1326342D01*
X1326518Y-620849D01*
D02*
G37*
G36*
X1368263D02*
X1368478Y-620888D01*
X1368712Y-620947D01*
X1369004Y-621025D01*
X1369297Y-621142D01*
X1369590Y-621298D01*
X1368829Y-623443D01*
X1368809Y-623424D01*
X1368731Y-623385D01*
X1368595Y-623307D01*
X1368458Y-623229D01*
X1368263Y-623170D01*
X1368068Y-623092D01*
X1367873Y-623053D01*
X1367658Y-623034D01*
X1367580D01*
X1367483Y-623053D01*
X1367366Y-623073D01*
X1367229Y-623112D01*
X1367073Y-623151D01*
X1366917Y-623229D01*
X1366781Y-623326D01*
X1366761Y-623346D01*
X1366722Y-623385D01*
X1366664Y-623463D01*
X1366586Y-623560D01*
X1366488Y-623697D01*
X1366390Y-623892D01*
X1366293Y-624107D01*
X1366215Y-624360D01*
Y-624399D01*
X1366195Y-624438D01*
X1366176Y-624516D01*
Y-624594D01*
X1366156Y-624711D01*
X1366137Y-624868D01*
X1366117Y-625024D01*
X1366098Y-625219D01*
X1366078Y-625433D01*
X1366059Y-625687D01*
Y-625979D01*
X1366039Y-626292D01*
X1366020Y-626643D01*
Y-627033D01*
Y-627462D01*
Y-630310D01*
X1363562D01*
Y-621025D01*
X1365844D01*
Y-622332D01*
X1365864Y-622312D01*
X1365942Y-622195D01*
X1366059Y-622039D01*
X1366195Y-621844D01*
X1366351Y-621629D01*
X1366527Y-621434D01*
X1366722Y-621259D01*
X1366898Y-621122D01*
X1366917Y-621103D01*
X1366976Y-621083D01*
X1367073Y-621025D01*
X1367210Y-620966D01*
X1367366Y-620927D01*
X1367541Y-620868D01*
X1367736Y-620849D01*
X1367951Y-620830D01*
X1368087D01*
X1368263Y-620849D01*
D02*
G37*
G36*
X1337403Y-630310D02*
X1335120D01*
Y-628964D01*
X1335101Y-629003D01*
X1335023Y-629101D01*
X1334886Y-629237D01*
X1334730Y-629413D01*
X1334535Y-629588D01*
X1334301Y-629803D01*
X1334047Y-629978D01*
X1333755Y-630154D01*
X1333716Y-630173D01*
X1333618Y-630213D01*
X1333482Y-630271D01*
X1333287Y-630349D01*
X1333053Y-630427D01*
X1332780Y-630486D01*
X1332506Y-630525D01*
X1332214Y-630544D01*
X1332058D01*
X1331941Y-630525D01*
X1331804Y-630505D01*
X1331648Y-630466D01*
X1331277Y-630388D01*
X1330848Y-630232D01*
X1330614Y-630135D01*
X1330380Y-629998D01*
X1330146Y-629861D01*
X1329931Y-629686D01*
X1329697Y-629491D01*
X1329483Y-629257D01*
X1329463Y-629237D01*
X1329444Y-629198D01*
X1329385Y-629120D01*
X1329307Y-629022D01*
X1329229Y-628886D01*
X1329132Y-628730D01*
X1329015Y-628535D01*
X1328917Y-628320D01*
X1328819Y-628086D01*
X1328703Y-627813D01*
X1328605Y-627520D01*
X1328527Y-627189D01*
X1328449Y-626857D01*
X1328410Y-626487D01*
X1328371Y-626077D01*
X1328351Y-625667D01*
Y-625648D01*
Y-625570D01*
Y-625433D01*
X1328371Y-625277D01*
X1328390Y-625082D01*
X1328410Y-624848D01*
X1328449Y-624594D01*
X1328488Y-624341D01*
X1328624Y-623756D01*
X1328819Y-623151D01*
X1328937Y-622858D01*
X1329093Y-622585D01*
X1329249Y-622312D01*
X1329444Y-622078D01*
X1329463Y-622058D01*
X1329502Y-622020D01*
X1329561Y-621961D01*
X1329639Y-621883D01*
X1329756Y-621785D01*
X1329892Y-621688D01*
X1330049Y-621571D01*
X1330204Y-621454D01*
X1330400Y-621337D01*
X1330614Y-621220D01*
X1331102Y-621025D01*
X1331355Y-620947D01*
X1331648Y-620888D01*
X1331941Y-620849D01*
X1332253Y-620830D01*
X1332409D01*
X1332506Y-620849D01*
X1332643Y-620868D01*
X1332799Y-620908D01*
X1333170Y-620986D01*
X1333579Y-621142D01*
X1333813Y-621259D01*
X1334047Y-621376D01*
X1334262Y-621532D01*
X1334496Y-621707D01*
X1334730Y-621902D01*
X1334945Y-622136D01*
Y-617494D01*
X1337403D01*
Y-630310D01*
D02*
G37*
G36*
X1257911Y-620849D02*
X1258086Y-620868D01*
X1258301Y-620908D01*
X1258516Y-620947D01*
X1258769Y-621005D01*
X1259042Y-621083D01*
X1259315Y-621161D01*
X1259608Y-621278D01*
X1259881Y-621415D01*
X1260174Y-621571D01*
X1260466Y-621766D01*
X1260739Y-621961D01*
X1260993Y-622215D01*
X1261012Y-622234D01*
X1261051Y-622273D01*
X1261110Y-622351D01*
X1261208Y-622468D01*
X1261305Y-622585D01*
X1261422Y-622761D01*
X1261539Y-622936D01*
X1261676Y-623151D01*
X1261793Y-623405D01*
X1261910Y-623658D01*
X1262027Y-623951D01*
X1262124Y-624243D01*
X1262222Y-624575D01*
X1262281Y-624926D01*
X1262319Y-625277D01*
X1262339Y-625667D01*
Y-625687D01*
Y-625765D01*
Y-625862D01*
X1262319Y-626018D01*
X1262300Y-626194D01*
X1262261Y-626409D01*
X1262222Y-626643D01*
X1262163Y-626896D01*
X1262105Y-627169D01*
X1262007Y-627443D01*
X1261890Y-627735D01*
X1261773Y-628028D01*
X1261598Y-628320D01*
X1261422Y-628613D01*
X1261208Y-628886D01*
X1260974Y-629159D01*
X1260954Y-629179D01*
X1260915Y-629218D01*
X1260837Y-629296D01*
X1260739Y-629374D01*
X1260603Y-629471D01*
X1260447Y-629588D01*
X1260252Y-629725D01*
X1260037Y-629842D01*
X1259803Y-629978D01*
X1259549Y-630115D01*
X1259276Y-630232D01*
X1258964Y-630330D01*
X1258652Y-630408D01*
X1258301Y-630486D01*
X1257930Y-630525D01*
X1257560Y-630544D01*
X1257345D01*
X1257228Y-630525D01*
X1257092Y-630505D01*
X1256779Y-630466D01*
X1256409Y-630408D01*
X1255999Y-630310D01*
X1255570Y-630173D01*
X1255141Y-629978D01*
X1255121D01*
X1255082Y-629959D01*
X1255024Y-629920D01*
X1254946Y-629861D01*
X1254751Y-629725D01*
X1254497Y-629549D01*
X1254204Y-629315D01*
X1253912Y-629022D01*
X1253639Y-628671D01*
X1253385Y-628281D01*
Y-628262D01*
X1253366Y-628223D01*
X1253327Y-628164D01*
X1253288Y-628086D01*
X1253249Y-627969D01*
X1253210Y-627852D01*
X1253151Y-627696D01*
X1253093Y-627520D01*
X1252995Y-627130D01*
X1252897Y-626662D01*
X1252820Y-626135D01*
X1252800Y-625570D01*
Y-625550D01*
Y-625511D01*
Y-625453D01*
X1252820Y-625355D01*
Y-625258D01*
X1252839Y-625121D01*
X1252878Y-624809D01*
X1252936Y-624438D01*
X1253054Y-624048D01*
X1253190Y-623619D01*
X1253385Y-623190D01*
Y-623170D01*
X1253405Y-623131D01*
X1253444Y-623073D01*
X1253502Y-622995D01*
X1253639Y-622800D01*
X1253834Y-622546D01*
X1254068Y-622253D01*
X1254361Y-621961D01*
X1254692Y-621688D01*
X1255082Y-621434D01*
X1255102D01*
X1255141Y-621415D01*
X1255199Y-621376D01*
X1255277Y-621337D01*
X1255375Y-621298D01*
X1255511Y-621239D01*
X1255804Y-621122D01*
X1256175Y-621025D01*
X1256604Y-620927D01*
X1257053Y-620849D01*
X1257560Y-620830D01*
X1257755D01*
X1257911Y-620849D01*
D02*
G37*
G36*
X1269654D02*
X1269791Y-620868D01*
X1269947Y-620888D01*
X1270337Y-620986D01*
X1270766Y-621142D01*
X1271000Y-621239D01*
X1271234Y-621376D01*
X1271449Y-621512D01*
X1271683Y-621688D01*
X1271917Y-621883D01*
X1272132Y-622117D01*
X1272151Y-622136D01*
X1272190Y-622175D01*
X1272229Y-622253D01*
X1272307Y-622351D01*
X1272385Y-622488D01*
X1272483Y-622644D01*
X1272600Y-622819D01*
X1272697Y-623034D01*
X1272795Y-623268D01*
X1272912Y-623541D01*
X1273009Y-623834D01*
X1273087Y-624146D01*
X1273166Y-624477D01*
X1273224Y-624848D01*
X1273243Y-625238D01*
X1273263Y-625648D01*
Y-625667D01*
Y-625745D01*
Y-625862D01*
X1273243Y-626038D01*
X1273224Y-626233D01*
X1273204Y-626448D01*
X1273166Y-626701D01*
X1273127Y-626974D01*
X1272990Y-627540D01*
X1272892Y-627852D01*
X1272775Y-628145D01*
X1272639Y-628437D01*
X1272502Y-628730D01*
X1272307Y-629003D01*
X1272112Y-629257D01*
X1272093Y-629276D01*
X1272054Y-629315D01*
X1271995Y-629374D01*
X1271917Y-629452D01*
X1271800Y-629549D01*
X1271663Y-629666D01*
X1271507Y-629783D01*
X1271351Y-629900D01*
X1270942Y-630135D01*
X1270473Y-630349D01*
X1270220Y-630427D01*
X1269947Y-630486D01*
X1269654Y-630525D01*
X1269362Y-630544D01*
X1269225D01*
X1269089Y-630525D01*
X1268913Y-630505D01*
X1268698Y-630466D01*
X1268464Y-630427D01*
X1268211Y-630349D01*
X1267977Y-630252D01*
X1267957Y-630232D01*
X1267859Y-630193D01*
X1267742Y-630115D01*
X1267586Y-629998D01*
X1267391Y-629861D01*
X1267157Y-629666D01*
X1266923Y-629452D01*
X1266670Y-629198D01*
Y-633860D01*
X1264212D01*
Y-621025D01*
X1266494D01*
Y-622390D01*
X1266514Y-622351D01*
X1266572Y-622273D01*
X1266670Y-622156D01*
X1266806Y-622000D01*
X1266982Y-621824D01*
X1267177Y-621629D01*
X1267411Y-621454D01*
X1267684Y-621278D01*
X1267723Y-621259D01*
X1267821Y-621200D01*
X1267977Y-621142D01*
X1268191Y-621044D01*
X1268425Y-620966D01*
X1268718Y-620908D01*
X1269050Y-620849D01*
X1269381Y-620830D01*
X1269537D01*
X1269654Y-620849D01*
D02*
G37*
G36*
X1290741D02*
X1290936Y-620868D01*
X1291171Y-620908D01*
X1291424Y-620947D01*
X1291678Y-621025D01*
X1291931Y-621122D01*
X1291970Y-621142D01*
X1292048Y-621181D01*
X1292166Y-621239D01*
X1292302Y-621317D01*
X1292478Y-621434D01*
X1292634Y-621571D01*
X1292809Y-621707D01*
X1292946Y-621883D01*
X1292965Y-621902D01*
X1293004Y-621961D01*
X1293063Y-622058D01*
X1293141Y-622175D01*
X1293219Y-622332D01*
X1293297Y-622507D01*
X1293375Y-622702D01*
X1293434Y-622917D01*
Y-622936D01*
X1293453Y-623014D01*
X1293472Y-623151D01*
X1293512Y-623326D01*
X1293531Y-623560D01*
X1293551Y-623853D01*
X1293570Y-624185D01*
Y-624555D01*
Y-630310D01*
X1291112D01*
Y-625589D01*
Y-625570D01*
Y-625531D01*
Y-625453D01*
Y-625355D01*
Y-625219D01*
Y-625082D01*
X1291093Y-624790D01*
X1291073Y-624458D01*
X1291034Y-624146D01*
X1290995Y-623873D01*
X1290975Y-623756D01*
X1290936Y-623658D01*
Y-623639D01*
X1290917Y-623580D01*
X1290878Y-623502D01*
X1290820Y-623405D01*
X1290663Y-623170D01*
X1290429Y-622956D01*
X1290410Y-622936D01*
X1290371Y-622917D01*
X1290293Y-622878D01*
X1290195Y-622819D01*
X1290078Y-622780D01*
X1289922Y-622741D01*
X1289766Y-622722D01*
X1289590Y-622702D01*
X1289474D01*
X1289357Y-622722D01*
X1289200Y-622741D01*
X1289025Y-622780D01*
X1288830Y-622858D01*
X1288635Y-622936D01*
X1288440Y-623053D01*
X1288420Y-623073D01*
X1288362Y-623112D01*
X1288284Y-623190D01*
X1288167Y-623307D01*
X1288069Y-623443D01*
X1287952Y-623600D01*
X1287835Y-623775D01*
X1287757Y-623990D01*
Y-624009D01*
X1287737Y-624107D01*
X1287698Y-624243D01*
X1287679Y-624458D01*
X1287659Y-624594D01*
X1287640Y-624751D01*
X1287620Y-624926D01*
X1287601Y-625121D01*
Y-625336D01*
X1287581Y-625570D01*
Y-625843D01*
Y-626116D01*
Y-630310D01*
X1285123D01*
Y-621025D01*
X1287406D01*
Y-622390D01*
X1287425Y-622371D01*
X1287464Y-622332D01*
X1287523Y-622253D01*
X1287620Y-622136D01*
X1287737Y-622020D01*
X1287893Y-621902D01*
X1288049Y-621746D01*
X1288244Y-621610D01*
X1288459Y-621473D01*
X1288674Y-621317D01*
X1288927Y-621200D01*
X1289200Y-621064D01*
X1289493Y-620966D01*
X1289786Y-620888D01*
X1290117Y-620849D01*
X1290449Y-620830D01*
X1290585D01*
X1290741Y-620849D01*
D02*
G37*
%LPC*%
G36*
X1374310Y-622702D02*
X1374174D01*
X1374037Y-622741D01*
X1373842Y-622780D01*
X1373628Y-622858D01*
X1373413Y-622956D01*
X1373198Y-623112D01*
X1372984Y-623307D01*
X1372964Y-623326D01*
X1372906Y-623405D01*
X1372828Y-623541D01*
X1372730Y-623717D01*
X1372633Y-623951D01*
X1372555Y-624224D01*
X1372496Y-624536D01*
X1372477Y-624887D01*
X1376144D01*
Y-624868D01*
Y-624848D01*
Y-624790D01*
X1376125Y-624711D01*
X1376105Y-624516D01*
X1376066Y-624282D01*
X1375988Y-624029D01*
X1375890Y-623756D01*
X1375754Y-623502D01*
X1375578Y-623268D01*
X1375559Y-623248D01*
X1375481Y-623170D01*
X1375383Y-623092D01*
X1375227Y-622975D01*
X1375052Y-622878D01*
X1374837Y-622780D01*
X1374583Y-622722D01*
X1374310Y-622702D01*
D02*
G37*
G36*
X1278881D02*
X1278745D01*
X1278608Y-622741D01*
X1278413Y-622780D01*
X1278198Y-622858D01*
X1277984Y-622956D01*
X1277769Y-623112D01*
X1277555Y-623307D01*
X1277535Y-623326D01*
X1277477Y-623405D01*
X1277399Y-623541D01*
X1277301Y-623717D01*
X1277204Y-623951D01*
X1277125Y-624224D01*
X1277067Y-624536D01*
X1277047Y-624887D01*
X1280715D01*
Y-624868D01*
Y-624848D01*
Y-624790D01*
X1280695Y-624711D01*
X1280676Y-624516D01*
X1280637Y-624282D01*
X1280559Y-624029D01*
X1280461Y-623756D01*
X1280325Y-623502D01*
X1280149Y-623268D01*
X1280130Y-623248D01*
X1280052Y-623170D01*
X1279954Y-623092D01*
X1279798Y-622975D01*
X1279622Y-622878D01*
X1279408Y-622780D01*
X1279154Y-622722D01*
X1278881Y-622702D01*
D02*
G37*
G36*
X1358841Y-625862D02*
X1358822D01*
X1358744Y-625901D01*
X1358627Y-625921D01*
X1358470Y-625979D01*
X1358256Y-626038D01*
X1358002Y-626096D01*
X1357690Y-626175D01*
X1357339Y-626253D01*
X1357300D01*
X1357183Y-626292D01*
X1357007Y-626330D01*
X1356793Y-626389D01*
X1356578Y-626448D01*
X1356344Y-626526D01*
X1356169Y-626604D01*
X1356013Y-626682D01*
X1355993Y-626701D01*
X1355934Y-626740D01*
X1355856Y-626818D01*
X1355779Y-626916D01*
X1355700Y-627033D01*
X1355622Y-627189D01*
X1355564Y-627345D01*
X1355544Y-627540D01*
Y-627560D01*
Y-627618D01*
X1355564Y-627735D01*
X1355583Y-627852D01*
X1355642Y-627989D01*
X1355700Y-628145D01*
X1355798Y-628301D01*
X1355915Y-628437D01*
X1355934Y-628457D01*
X1355993Y-628496D01*
X1356071Y-628554D01*
X1356188Y-628613D01*
X1356325Y-628691D01*
X1356500Y-628749D01*
X1356676Y-628788D01*
X1356890Y-628808D01*
X1357007D01*
X1357124Y-628788D01*
X1357300Y-628749D01*
X1357495Y-628710D01*
X1357710Y-628632D01*
X1357924Y-628515D01*
X1358158Y-628379D01*
X1358178Y-628359D01*
X1358236Y-628320D01*
X1358295Y-628242D01*
X1358392Y-628145D01*
X1358490Y-628028D01*
X1358587Y-627891D01*
X1358665Y-627735D01*
X1358744Y-627560D01*
Y-627540D01*
X1358763Y-627501D01*
X1358783Y-627423D01*
X1358802Y-627286D01*
Y-627130D01*
X1358822Y-626916D01*
X1358841Y-626682D01*
Y-626370D01*
Y-625862D01*
D02*
G37*
G36*
X1317096D02*
X1317076D01*
X1316998Y-625901D01*
X1316881Y-625921D01*
X1316725Y-625979D01*
X1316510Y-626038D01*
X1316257Y-626096D01*
X1315945Y-626175D01*
X1315594Y-626253D01*
X1315555D01*
X1315438Y-626292D01*
X1315262Y-626330D01*
X1315047Y-626389D01*
X1314833Y-626448D01*
X1314599Y-626526D01*
X1314423Y-626604D01*
X1314267Y-626682D01*
X1314248Y-626701D01*
X1314189Y-626740D01*
X1314111Y-626818D01*
X1314033Y-626916D01*
X1313955Y-627033D01*
X1313877Y-627189D01*
X1313819Y-627345D01*
X1313799Y-627540D01*
Y-627560D01*
Y-627618D01*
X1313819Y-627735D01*
X1313838Y-627852D01*
X1313896Y-627989D01*
X1313955Y-628145D01*
X1314053Y-628301D01*
X1314170Y-628437D01*
X1314189Y-628457D01*
X1314248Y-628496D01*
X1314326Y-628554D01*
X1314443Y-628613D01*
X1314579Y-628691D01*
X1314755Y-628749D01*
X1314930Y-628788D01*
X1315145Y-628808D01*
X1315262D01*
X1315379Y-628788D01*
X1315555Y-628749D01*
X1315750Y-628710D01*
X1315964Y-628632D01*
X1316179Y-628515D01*
X1316413Y-628379D01*
X1316432Y-628359D01*
X1316491Y-628320D01*
X1316550Y-628242D01*
X1316647Y-628145D01*
X1316745Y-628028D01*
X1316842Y-627891D01*
X1316920Y-627735D01*
X1316998Y-627560D01*
Y-627540D01*
X1317018Y-627501D01*
X1317037Y-627423D01*
X1317057Y-627286D01*
Y-627130D01*
X1317076Y-626916D01*
X1317096Y-626682D01*
Y-626370D01*
Y-625862D01*
D02*
G37*
G36*
X1332897Y-622702D02*
X1332858D01*
X1332760Y-622722D01*
X1332604Y-622741D01*
X1332389Y-622780D01*
X1332175Y-622878D01*
X1331921Y-622995D01*
X1331687Y-623170D01*
X1331453Y-623405D01*
X1331434Y-623443D01*
X1331355Y-623541D01*
X1331277Y-623697D01*
X1331160Y-623931D01*
X1331063Y-624224D01*
X1330965Y-624575D01*
X1330887Y-625004D01*
X1330868Y-625492D01*
Y-625511D01*
Y-625550D01*
Y-625628D01*
Y-625745D01*
X1330887Y-625862D01*
Y-625999D01*
X1330926Y-626330D01*
X1330965Y-626682D01*
X1331024Y-627033D01*
X1331121Y-627364D01*
X1331199Y-627520D01*
X1331258Y-627657D01*
Y-627677D01*
X1331277Y-627696D01*
X1331375Y-627813D01*
X1331512Y-627950D01*
X1331687Y-628125D01*
X1331921Y-628301D01*
X1332214Y-628457D01*
X1332545Y-628574D01*
X1332721Y-628593D01*
X1332916Y-628613D01*
X1332955D01*
X1333053Y-628593D01*
X1333209Y-628574D01*
X1333404Y-628515D01*
X1333638Y-628437D01*
X1333872Y-628301D01*
X1334106Y-628125D01*
X1334340Y-627891D01*
X1334360Y-627852D01*
X1334438Y-627755D01*
X1334535Y-627579D01*
X1334652Y-627345D01*
X1334750Y-627052D01*
X1334847Y-626682D01*
X1334925Y-626233D01*
X1334945Y-625726D01*
Y-625706D01*
Y-625648D01*
Y-625570D01*
Y-625472D01*
X1334925Y-625336D01*
X1334906Y-625180D01*
X1334867Y-624828D01*
X1334808Y-624458D01*
X1334691Y-624087D01*
X1334555Y-623717D01*
X1334457Y-623560D01*
X1334360Y-623424D01*
X1334340Y-623385D01*
X1334262Y-623307D01*
X1334126Y-623190D01*
X1333969Y-623053D01*
X1333755Y-622936D01*
X1333501Y-622819D01*
X1333209Y-622741D01*
X1332897Y-622702D01*
D02*
G37*
G36*
X1257560Y-622839D02*
X1257521D01*
X1257404Y-622858D01*
X1257228Y-622878D01*
X1256994Y-622936D01*
X1256740Y-623014D01*
X1256487Y-623151D01*
X1256214Y-623326D01*
X1255960Y-623580D01*
X1255941Y-623619D01*
X1255863Y-623717D01*
X1255765Y-623892D01*
X1255648Y-624126D01*
X1255511Y-624419D01*
X1255414Y-624790D01*
X1255336Y-625199D01*
X1255316Y-625687D01*
Y-625706D01*
Y-625745D01*
Y-625823D01*
X1255336Y-625921D01*
Y-626038D01*
X1255355Y-626155D01*
X1255394Y-626467D01*
X1255472Y-626818D01*
X1255590Y-627169D01*
X1255745Y-627501D01*
X1255960Y-627813D01*
X1255999Y-627852D01*
X1256077Y-627930D01*
X1256214Y-628047D01*
X1256409Y-628164D01*
X1256643Y-628301D01*
X1256916Y-628418D01*
X1257209Y-628496D01*
X1257560Y-628535D01*
X1257599D01*
X1257716Y-628515D01*
X1257891Y-628496D01*
X1258125Y-628437D01*
X1258379Y-628359D01*
X1258633Y-628223D01*
X1258906Y-628047D01*
X1259159Y-627813D01*
X1259179Y-627774D01*
X1259257Y-627677D01*
X1259374Y-627501D01*
X1259491Y-627267D01*
X1259608Y-626974D01*
X1259725Y-626604D01*
X1259803Y-626175D01*
X1259823Y-625687D01*
Y-625667D01*
Y-625628D01*
Y-625550D01*
Y-625453D01*
X1259803Y-625355D01*
X1259783Y-625219D01*
X1259744Y-624907D01*
X1259667Y-624575D01*
X1259549Y-624224D01*
X1259374Y-623892D01*
X1259159Y-623580D01*
X1259140Y-623541D01*
X1259042Y-623463D01*
X1258906Y-623346D01*
X1258711Y-623209D01*
X1258496Y-623073D01*
X1258223Y-622956D01*
X1257911Y-622878D01*
X1257560Y-622839D01*
D02*
G37*
G36*
X1268698Y-622761D02*
X1268659D01*
X1268542Y-622780D01*
X1268386Y-622800D01*
X1268172Y-622839D01*
X1267937Y-622936D01*
X1267703Y-623053D01*
X1267450Y-623229D01*
X1267216Y-623463D01*
X1267196Y-623502D01*
X1267118Y-623600D01*
X1267040Y-623756D01*
X1266923Y-623990D01*
X1266826Y-624282D01*
X1266728Y-624633D01*
X1266650Y-625043D01*
X1266631Y-625531D01*
Y-625550D01*
Y-625609D01*
Y-625687D01*
X1266650Y-625784D01*
Y-625921D01*
X1266670Y-626077D01*
X1266709Y-626409D01*
X1266787Y-626799D01*
X1266884Y-627169D01*
X1267040Y-627540D01*
X1267138Y-627696D01*
X1267235Y-627852D01*
X1267255Y-627891D01*
X1267352Y-627969D01*
X1267489Y-628086D01*
X1267664Y-628223D01*
X1267879Y-628359D01*
X1268133Y-628476D01*
X1268425Y-628554D01*
X1268757Y-628593D01*
X1268796D01*
X1268893Y-628574D01*
X1269050Y-628554D01*
X1269245Y-628515D01*
X1269479Y-628418D01*
X1269713Y-628301D01*
X1269947Y-628145D01*
X1270161Y-627911D01*
X1270181Y-627872D01*
X1270259Y-627774D01*
X1270356Y-627618D01*
X1270454Y-627364D01*
X1270571Y-627052D01*
X1270610Y-626877D01*
X1270649Y-626662D01*
X1270688Y-626448D01*
X1270727Y-626194D01*
X1270747Y-625940D01*
Y-625648D01*
Y-625628D01*
Y-625589D01*
Y-625511D01*
Y-625414D01*
X1270727Y-625277D01*
X1270708Y-625141D01*
X1270669Y-624828D01*
X1270610Y-624477D01*
X1270493Y-624107D01*
X1270356Y-623775D01*
X1270161Y-623483D01*
X1270142Y-623443D01*
X1270064Y-623366D01*
X1269927Y-623248D01*
X1269752Y-623112D01*
X1269557Y-622995D01*
X1269303Y-622878D01*
X1269010Y-622800D01*
X1268698Y-622761D01*
D02*
G37*
%LPD*%
D60*
X133350Y-47643D02*
Y-87630D01*
Y-67636D01*
X160008D01*
Y-47643D01*
Y-87630D01*
X199995Y-54307D02*
X193331Y-47643D01*
X180002D01*
X173337Y-54307D01*
Y-60972D01*
X180002Y-67636D01*
X193331D01*
X199995Y-74301D01*
Y-80965D01*
X193331Y-87630D01*
X180002D01*
X173337Y-80965D01*
X213324Y-47643D02*
Y-87630D01*
X233318D01*
X239982Y-80965D01*
Y-74301D01*
X233318Y-67636D01*
X213324D01*
X233318D01*
X239982Y-60972D01*
Y-54307D01*
X233318Y-47643D01*
X213324D01*
X253311Y-87630D02*
Y-47643D01*
X279969Y-87630D01*
Y-47643D01*
X319956D02*
X293298D01*
Y-87630D01*
X319956D01*
X293298Y-67636D02*
X306627D01*
X373272D02*
X399930D01*
X453246Y-47643D02*
Y-74301D01*
X466576Y-87630D01*
X479905Y-74301D01*
Y-47643D01*
X519892D02*
X493234D01*
Y-87630D01*
X519892D01*
X493234Y-67636D02*
X506563D01*
X533221Y-87630D02*
Y-47643D01*
X559879Y-87630D01*
Y-47643D01*
X573208D02*
Y-87630D01*
X593201D01*
X599866Y-80965D01*
Y-54307D01*
X593201Y-47643D01*
X573208D01*
X653182Y-67636D02*
X679840D01*
X733156Y-87630D02*
Y-47643D01*
X746485Y-60972D01*
X759814Y-47643D01*
Y-87630D01*
X793137Y-47643D02*
X779808D01*
X773143Y-54307D01*
Y-80965D01*
X779808Y-87630D01*
X793137D01*
X799801Y-80965D01*
Y-54307D01*
X793137Y-47643D01*
X813130D02*
X839788D01*
X826459D01*
Y-87630D01*
X873111Y-47643D02*
X859782D01*
X853117Y-54307D01*
Y-80965D01*
X859782Y-87630D01*
X873111D01*
X879775Y-80965D01*
Y-54307D01*
X873111Y-47643D01*
X893104Y-87630D02*
Y-47643D01*
X913098D01*
X919762Y-54307D01*
Y-67636D01*
X913098Y-74301D01*
X893104D01*
X906433D02*
X919762Y-87630D01*
X999736Y-54307D02*
X993072Y-47643D01*
X979743D01*
X973078Y-54307D01*
Y-80965D01*
X979743Y-87630D01*
X993072D01*
X999736Y-80965D01*
X1033059Y-47643D02*
X1019730D01*
X1013065Y-54307D01*
Y-80965D01*
X1019730Y-87630D01*
X1033059D01*
X1039724Y-80965D01*
Y-54307D01*
X1033059Y-47643D01*
X1053053Y-87630D02*
Y-47643D01*
X1079711Y-87630D01*
Y-47643D01*
X1093040D02*
X1119698D01*
X1106369D01*
Y-87630D01*
X1133027D02*
Y-47643D01*
X1153020D01*
X1159685Y-54307D01*
Y-67636D01*
X1153020Y-74301D01*
X1133027D01*
X1146356D02*
X1159685Y-87630D01*
X1193007Y-47643D02*
X1179678D01*
X1173014Y-54307D01*
Y-80965D01*
X1179678Y-87630D01*
X1193007D01*
X1199672Y-80965D01*
Y-54307D01*
X1193007Y-47643D01*
X1213001D02*
Y-87630D01*
X1239659D01*
X1252988Y-47643D02*
Y-87630D01*
X1279646D01*
X1319633Y-47643D02*
X1292975D01*
Y-87630D01*
X1319633D01*
X1292975Y-67636D02*
X1306304D01*
X1332962Y-87630D02*
Y-47643D01*
X1352956D01*
X1359620Y-54307D01*
Y-67636D01*
X1352956Y-74301D01*
X1332962D01*
X1346291D02*
X1359620Y-87630D01*
D61*
X1320800Y-596900D02*
G03*
X1311351Y-596494I-4362J8635D01*
G01*
X1137920Y-600710D02*
G03*
X1137920Y-600710I-1270J0D01*
G01*
X807720Y-632460D02*
G03*
X807720Y-632460I-1270J0D01*
G01*
X1307287Y-609194D02*
X1311351Y-596494D01*
X1303477Y-607924D02*
X1307287Y-609194D01*
X1297127Y-611632D02*
X1303477Y-607924D01*
X1292047Y-606654D02*
X1297127Y-611632D01*
X1292047Y-606654D02*
X1297127Y-600304D01*
X1293317Y-592684D02*
X1297127Y-600304D01*
X1285697Y-591414D02*
X1293317Y-592684D01*
X1285697Y-591414D02*
Y-585064D01*
X1294587Y-582524D01*
X1296822Y-576123D01*
X1292682Y-569316D02*
X1296822Y-576123D01*
X1292682Y-569316D02*
X1297610Y-564388D01*
X1304595Y-568858D01*
X1311097Y-566217D01*
X1312367Y-558444D01*
X1319987Y-558394D01*
X1321257Y-566064D01*
X1327607Y-568554D01*
X1335176Y-563423D01*
X1340307Y-568554D01*
X1335227Y-574904D02*
X1340307Y-568554D01*
X1335227Y-574904D02*
X1337767Y-582524D01*
X1346657Y-585064D01*
Y-591414D02*
Y-585064D01*
X1339037Y-592684D02*
X1346657Y-591414D01*
X1335735Y-600456D02*
X1339037Y-592684D01*
X1335735Y-600456D02*
X1339647Y-606603D01*
X1335227Y-611734D02*
X1339647Y-606603D01*
X1328242Y-607314D02*
X1335227Y-611734D01*
X1325067Y-609194D02*
X1328242Y-607314D01*
X1320800Y-596900D02*
X1325067Y-609194D01*
X1208084Y-539913D02*
X1201420D01*
Y-544912D01*
X1204752D01*
X1201420D01*
Y-549910D01*
X1213083D02*
X1216415D01*
X1218081Y-548244D01*
Y-544912D01*
X1216415Y-543246D01*
X1213083D01*
X1211417Y-544912D01*
Y-548244D01*
X1213083Y-549910D01*
X1221414Y-543246D02*
Y-549910D01*
Y-546578D01*
X1223080Y-544912D01*
X1224746Y-543246D01*
X1226412D01*
X1241407Y-539913D02*
Y-549910D01*
Y-544912D01*
X1248072D01*
Y-539913D01*
Y-549910D01*
X1253070Y-543246D02*
X1256402D01*
X1258068Y-544912D01*
Y-549910D01*
X1253070D01*
X1251404Y-548244D01*
X1253070Y-546578D01*
X1258068D01*
X1268065Y-543246D02*
X1263067D01*
X1261401Y-544912D01*
Y-548244D01*
X1263067Y-549910D01*
X1268065D01*
X1271397D02*
Y-539913D01*
Y-546578D02*
X1276396Y-543246D01*
X1271397Y-546578D02*
X1276396Y-549910D01*
X1286393D02*
X1283060D01*
X1281394Y-548244D01*
Y-544912D01*
X1283060Y-543246D01*
X1286393D01*
X1288059Y-544912D01*
Y-546578D01*
X1281394D01*
X1291391Y-543246D02*
Y-549910D01*
Y-546578D01*
X1293057Y-544912D01*
X1294723Y-543246D01*
X1296389D01*
X1301388Y-549910D02*
X1306386D01*
X1308052Y-548244D01*
X1306386Y-546578D01*
X1303054D01*
X1301388Y-544912D01*
X1303054Y-543246D01*
X1308052D01*
X1311385Y-553242D02*
Y-543246D01*
X1316383D01*
X1318049Y-544912D01*
Y-548244D01*
X1316383Y-549910D01*
X1311385D01*
X1323047Y-543246D02*
X1326380D01*
X1328046Y-544912D01*
Y-549910D01*
X1323047D01*
X1321381Y-548244D01*
X1323047Y-546578D01*
X1328046D01*
X1338043Y-543246D02*
X1333044D01*
X1331378Y-544912D01*
Y-548244D01*
X1333044Y-549910D01*
X1338043D01*
X1346373D02*
X1343041D01*
X1341375Y-548244D01*
Y-544912D01*
X1343041Y-543246D01*
X1346373D01*
X1348039Y-544912D01*
Y-546578D01*
X1341375D01*
X1361369Y-539913D02*
Y-549910D01*
X1366367D01*
X1368033Y-548244D01*
Y-546578D01*
X1366367Y-544912D01*
X1361369D01*
X1366367D01*
X1368033Y-543246D01*
Y-541579D01*
X1366367Y-539913D01*
X1361369D01*
X1371365Y-543246D02*
Y-549910D01*
Y-546578D01*
X1373031Y-544912D01*
X1374698Y-543246D01*
X1376364D01*
X1381362Y-549910D02*
X1384694D01*
X1383028D01*
Y-543246D01*
X1381362D01*
X1389693Y-549910D02*
X1394691D01*
X1396357Y-548244D01*
X1394691Y-546578D01*
X1391359D01*
X1389693Y-544912D01*
X1391359Y-543246D01*
X1396357D01*
X1399689Y-539913D02*
Y-549910D01*
X1404688D01*
X1406354Y-548244D01*
Y-546578D01*
Y-544912D01*
X1404688Y-543246D01*
X1399689D01*
X1411352D02*
X1414685D01*
X1416351Y-544912D01*
Y-549910D01*
X1411352D01*
X1409686Y-548244D01*
X1411352Y-546578D01*
X1416351D01*
X1419683Y-549910D02*
Y-543246D01*
X1424681D01*
X1426348Y-544912D01*
Y-549910D01*
X1434678D02*
X1431346D01*
X1429680Y-548244D01*
Y-544912D01*
X1431346Y-543246D01*
X1434678D01*
X1436344Y-544912D01*
Y-546578D01*
X1429680D01*
X1449673Y-539913D02*
Y-546578D01*
X1453006Y-549910D01*
X1456338Y-546578D01*
Y-539913D01*
X1459670Y-549910D02*
X1463002D01*
X1461336D01*
Y-539913D01*
X1459670Y-541579D01*
X1468001Y-549910D02*
Y-548244D01*
X1469667D01*
Y-549910D01*
X1468001D01*
X1476331Y-541579D02*
X1477998Y-539913D01*
X1481330D01*
X1482996Y-541579D01*
Y-548244D01*
X1481330Y-549910D01*
X1477998D01*
X1476331Y-548244D01*
Y-541579D01*
X1230630Y-518323D02*
Y-528320D01*
X1235628D01*
X1237294Y-526654D01*
Y-519989D01*
X1235628Y-518323D01*
X1230630D01*
X1245625Y-528320D02*
X1242293D01*
X1240627Y-526654D01*
Y-523322D01*
X1242293Y-521656D01*
X1245625D01*
X1247291Y-523322D01*
Y-524988D01*
X1240627D01*
X1250624Y-528320D02*
X1255622D01*
X1257288Y-526654D01*
X1255622Y-524988D01*
X1252290D01*
X1250624Y-523322D01*
X1252290Y-521656D01*
X1257288D01*
X1260620Y-528320D02*
X1263953D01*
X1262287D01*
Y-521656D01*
X1260620D01*
X1272283Y-531652D02*
X1273949D01*
X1275615Y-529986D01*
Y-521656D01*
X1270617D01*
X1268951Y-523322D01*
Y-526654D01*
X1270617Y-528320D01*
X1275615D01*
X1278948D02*
Y-521656D01*
X1283946D01*
X1285612Y-523322D01*
Y-528320D01*
X1293943D02*
X1290611D01*
X1288945Y-526654D01*
Y-523322D01*
X1290611Y-521656D01*
X1293943D01*
X1295609Y-523322D01*
Y-524988D01*
X1288945D01*
X1305606Y-518323D02*
Y-528320D01*
X1300607D01*
X1298941Y-526654D01*
Y-523322D01*
X1300607Y-521656D01*
X1305606D01*
X1318935Y-518323D02*
Y-528320D01*
X1323933D01*
X1325599Y-526654D01*
Y-524988D01*
X1323933Y-523322D01*
X1318935D01*
X1323933D01*
X1325599Y-521656D01*
Y-519989D01*
X1323933Y-518323D01*
X1318935D01*
X1328932Y-521656D02*
Y-526654D01*
X1330598Y-528320D01*
X1335596D01*
Y-529986D01*
X1333930Y-531652D01*
X1332264D01*
X1335596Y-528320D02*
Y-521656D01*
X1348925Y-518323D02*
Y-528320D01*
X1355590D01*
X1358922Y-521656D02*
Y-526654D01*
X1360588Y-528320D01*
X1365587D01*
Y-521656D01*
X1368919Y-528320D02*
Y-518323D01*
Y-524988D02*
X1373917Y-521656D01*
X1368919Y-524988D02*
X1373917Y-528320D01*
X1383914D02*
X1380582D01*
X1378916Y-526654D01*
Y-523322D01*
X1380582Y-521656D01*
X1383914D01*
X1385580Y-523322D01*
Y-524988D01*
X1378916D01*
X1398909Y-518323D02*
Y-528320D01*
Y-523322D01*
X1405574D01*
Y-518323D01*
Y-528320D01*
X1410572D02*
X1413904D01*
X1415570Y-526654D01*
Y-523322D01*
X1413904Y-521656D01*
X1410572D01*
X1408906Y-523322D01*
Y-526654D01*
X1410572Y-528320D01*
X1418903Y-521656D02*
X1422235Y-528320D01*
X1425567Y-521656D01*
X1428900Y-528320D02*
X1432232D01*
X1430566D01*
Y-521656D01*
X1428900D01*
X1437230Y-528320D02*
Y-521656D01*
X1442229D01*
X1443895Y-523322D01*
Y-528320D01*
X1450559Y-531652D02*
X1452225D01*
X1453891Y-529986D01*
Y-521656D01*
X1448893D01*
X1447227Y-523322D01*
Y-526654D01*
X1448893Y-528320D01*
X1453891D01*
X1458890Y-519989D02*
Y-521656D01*
X1457224D01*
X1460556D01*
X1458890D01*
Y-526654D01*
X1460556Y-528320D01*
X1467220D02*
X1470553D01*
X1472219Y-526654D01*
Y-523322D01*
X1470553Y-521656D01*
X1467220D01*
X1465554Y-523322D01*
Y-526654D01*
X1467220Y-528320D01*
X1475551D02*
Y-521656D01*
X1480549D01*
X1482216Y-523322D01*
Y-528320D01*
D62*
X671840Y-995630D02*
X736840D01*
X671840D02*
Y-893130D01*
X736840D01*
Y-995630D02*
Y-893130D01*
X1433470Y-638810D02*
X1439470D01*
X1433470Y-715010D02*
X1439470D01*
X1343300Y-904160D02*
Y-917489D01*
X1349964Y-910825D02*
X1336635D01*
X1320637Y-904160D02*
Y-917489D01*
X1343300Y-765730D02*
Y-779059D01*
X1349964Y-772394D02*
X1336635D01*
X1320637Y-765730D02*
Y-779059D01*
X1131570Y-975360D02*
X1138234D01*
X1134902D01*
Y-955366D01*
X1131570Y-958699D01*
X1161560Y-975360D02*
X1148231D01*
X1161560Y-962031D01*
Y-958699D01*
X1158228Y-955366D01*
X1151563D01*
X1148231Y-958699D01*
X1168225Y-955366D02*
Y-968696D01*
X1174889Y-975360D01*
X1181554Y-968696D01*
Y-955366D01*
X1208212Y-975360D02*
Y-962031D01*
X1214876Y-955366D01*
X1221541Y-962031D01*
Y-975360D01*
Y-965363D01*
X1208212D01*
X1241535Y-962031D02*
X1231538D01*
X1228205Y-965363D01*
Y-972028D01*
X1231538Y-975360D01*
X1241535D01*
X1261528Y-962031D02*
X1251531D01*
X1248199Y-965363D01*
Y-972028D01*
X1251531Y-975360D01*
X1261528D01*
X1278189D02*
X1271525D01*
X1268193Y-972028D01*
Y-965363D01*
X1271525Y-962031D01*
X1278189D01*
X1281522Y-965363D01*
Y-968696D01*
X1268193D01*
X1288186Y-975360D02*
X1298183D01*
X1301515Y-972028D01*
X1298183Y-968696D01*
X1291518D01*
X1288186Y-965363D01*
X1291518Y-962031D01*
X1301515D01*
X1308180Y-975360D02*
X1318177D01*
X1321509Y-972028D01*
X1318177Y-968696D01*
X1311512D01*
X1308180Y-965363D01*
X1311512Y-962031D01*
X1321509D01*
X1331506Y-975360D02*
X1338170D01*
X1341502Y-972028D01*
Y-965363D01*
X1338170Y-962031D01*
X1331506D01*
X1328173Y-965363D01*
Y-972028D01*
X1331506Y-975360D01*
X1348167Y-962031D02*
Y-975360D01*
Y-968696D01*
X1351499Y-965363D01*
X1354831Y-962031D01*
X1358164D01*
X1368160D02*
Y-972028D01*
X1371493Y-975360D01*
X1381490D01*
Y-978692D01*
X1378157Y-982025D01*
X1374825D01*
X1381490Y-975360D02*
Y-962031D01*
X1431127Y-596900D02*
Y-610229D01*
X1440343Y-755650D02*
Y-742321D01*
X1433679Y-748986D02*
X1447008D01*
X1377309Y-685800D02*
X1363980D01*
X1377309Y-672471D01*
Y-669139D01*
X1373977Y-665806D01*
X1367312D01*
X1363980Y-669139D01*
X1397303Y-665806D02*
X1390638Y-669139D01*
X1383974Y-675803D01*
Y-682468D01*
X1387306Y-685800D01*
X1393970D01*
X1397303Y-682468D01*
Y-679136D01*
X1393970Y-675803D01*
X1383974D01*
X1403967Y-665806D02*
Y-679136D01*
X1410632Y-685800D01*
X1417296Y-679136D01*
Y-665806D01*
X1443954D02*
Y-685800D01*
X1453951D01*
X1457283Y-682468D01*
Y-669139D01*
X1453951Y-665806D01*
X1443954D01*
X1477277Y-669139D02*
X1473945Y-665806D01*
X1467280D01*
X1463948Y-669139D01*
Y-682468D01*
X1467280Y-685800D01*
X1473945D01*
X1477277Y-682468D01*
X1309370Y-291949D02*
X1312702Y-288616D01*
X1319367D01*
X1322699Y-291949D01*
Y-295281D01*
X1319367Y-298613D01*
X1316035D01*
X1319367D01*
X1322699Y-301945D01*
Y-305278D01*
X1319367Y-308610D01*
X1312702D01*
X1309370Y-305278D01*
X1329364Y-291949D02*
X1332696Y-288616D01*
X1339360D01*
X1342693Y-291949D01*
Y-305278D01*
X1339360Y-308610D01*
X1332696D01*
X1329364Y-305278D01*
Y-291949D01*
X1323969Y-344170D02*
X1310640D01*
X1323969Y-330841D01*
Y-327509D01*
X1320637Y-324176D01*
X1313972D01*
X1310640Y-327509D01*
X1330634Y-340838D02*
X1333966Y-344170D01*
X1340630D01*
X1343963Y-340838D01*
Y-327509D01*
X1340630Y-324176D01*
X1333966D01*
X1330634Y-327509D01*
Y-330841D01*
X1333966Y-334173D01*
X1343963D01*
X1148709Y-306070D02*
X1135380D01*
X1148709Y-292741D01*
Y-289409D01*
X1145377Y-286076D01*
X1138712D01*
X1135380Y-289409D01*
X1168703Y-306070D02*
X1155374D01*
X1168703Y-292741D01*
Y-289409D01*
X1165370Y-286076D01*
X1158706D01*
X1155374Y-289409D01*
X1155059Y-340360D02*
X1141730D01*
X1155059Y-327031D01*
Y-323699D01*
X1151727Y-320366D01*
X1145062D01*
X1141730Y-323699D01*
X1161724Y-340360D02*
X1168388D01*
X1165056D01*
Y-320366D01*
X1161724Y-323699D01*
X837559Y-309880D02*
X824230D01*
X837559Y-296551D01*
Y-293219D01*
X834227Y-289886D01*
X827562D01*
X824230Y-293219D01*
X844224D02*
X847556Y-289886D01*
X854220D01*
X857553Y-293219D01*
Y-306548D01*
X854220Y-309880D01*
X847556D01*
X844224Y-306548D01*
Y-293219D01*
X826770Y-344170D02*
X833435D01*
X830102D01*
Y-324176D01*
X826770Y-327509D01*
X843431Y-340838D02*
X846764Y-344170D01*
X853428D01*
X856760Y-340838D01*
Y-327509D01*
X853428Y-324176D01*
X846764D01*
X843431Y-327509D01*
Y-330841D01*
X846764Y-334173D01*
X856760D01*
X656590Y-311150D02*
X663254D01*
X659922D01*
Y-291156D01*
X656590Y-294489D01*
X686580Y-311150D02*
X673251D01*
X686580Y-297821D01*
Y-294489D01*
X683248Y-291156D01*
X676583D01*
X673251Y-294489D01*
X660400Y-345440D02*
X667065D01*
X663732D01*
Y-325446D01*
X660400Y-328779D01*
X677061Y-345440D02*
X683726D01*
X680394D01*
Y-325446D01*
X677061Y-328779D01*
X346710Y-302260D02*
X353374D01*
X350042D01*
Y-282266D01*
X346710Y-285599D01*
X363371D02*
X366703Y-282266D01*
X373368D01*
X376700Y-285599D01*
Y-298928D01*
X373368Y-302260D01*
X366703D01*
X363371Y-298928D01*
Y-285599D01*
X350520Y-333218D02*
X353852Y-336550D01*
X360517D01*
X363849Y-333218D01*
Y-319889D01*
X360517Y-316556D01*
X353852D01*
X350520Y-319889D01*
Y-323221D01*
X353852Y-326553D01*
X363849D01*
X202559Y-298450D02*
X189230D01*
X202559Y-285121D01*
Y-281789D01*
X199227Y-278456D01*
X192562D01*
X189230Y-281789D01*
X193040Y-337820D02*
X199704D01*
X196372D01*
Y-317826D01*
X193040Y-321159D01*
D87*
X851472Y-973550D02*
G03*
X851472Y-843550I-13406J65000D01*
G01*
X827470Y-842550D02*
G03*
X827470Y-973550I13506J-65500D01*
G01*
X1157542Y-930370D02*
G03*
X1157542Y-800370I-13406J65000D01*
G01*
X1133540Y-799370D02*
G03*
X1133540Y-930370I13506J-65500D01*
G01*
X594360Y-902970D02*
G03*
X594360Y-902970I-12700J0D01*
G01*
X632340Y-712340D02*
G03*
X631840Y-663340I-5750J24444D01*
G01*
X621840Y-663840D02*
G03*
X621340Y-712340I4750J-24302D01*
G01*
X669290Y-760730D02*
Y-727710D01*
Y-760730D02*
X737870D01*
Y-727710D01*
X669290D02*
X737870D01*
X771970Y-975550D02*
X829470D01*
X771970D02*
Y-868050D01*
X799470Y-840550D01*
X829470D01*
X849470D02*
X879470D01*
X906971Y-868050D01*
Y-975550D02*
Y-868050D01*
X849470Y-975550D02*
X906971D01*
X1078039Y-932370D02*
X1135540D01*
X1078039D02*
Y-824870D01*
X1105540Y-797370D01*
X1135540D01*
X1155540D02*
X1185540D01*
X1213040Y-824870D01*
Y-932370D02*
Y-824870D01*
X1155540Y-932370D02*
X1213040D01*
X1114044Y-651764D02*
Y-644144D01*
X879094Y-583946D02*
X886714D01*
X882904Y-774954D02*
Y-767334D01*
X1265174Y-837946D02*
X1272794D01*
X60706Y-802386D02*
Y-794766D01*
X22070Y-608310D02*
X153670D01*
X22070Y-771610D02*
X153670D01*
Y-608310D01*
X607060Y-915670D02*
Y-890570D01*
X566260Y-928370D02*
X597060D01*
X556260Y-915370D02*
Y-890570D01*
X566260Y-877570D02*
X597060D01*
X631840Y-661340D02*
X642341D01*
X611342D02*
X621342D01*
X632341Y-714340D02*
X653341D01*
X600342D02*
X621342D01*
X653341D02*
Y-672340D01*
X642341Y-661340D02*
X653341Y-672340D01*
X600342D02*
X611342Y-661340D01*
X600342Y-714340D02*
Y-672340D01*
X283650Y-615750D02*
Y-602750D01*
X211650D02*
X283650D01*
X211650Y-615750D02*
Y-602750D01*
Y-730750D02*
Y-717750D01*
Y-730750D02*
X283650D01*
Y-717750D01*
D88*
X491720Y-835660D02*
G03*
X491720Y-835660I-1500J0D01*
G01*
X492650Y-600010D02*
G03*
X492650Y-600010I-3000J0D01*
G01*
D89*
X111680Y-550110D02*
G03*
X111680Y-550110I-500J0D01*
G01*
X79930Y-877770D02*
G03*
X79930Y-877770I-500J0D01*
G01*
X549340Y-765120D02*
G03*
X549340Y-765120I-500J0D01*
G01*
X1037550Y-663730D02*
G03*
X1037550Y-663730I-1250J0D01*
G01*
X1019580Y-864200D02*
G03*
X1019580Y-864200I-1250J0D01*
G01*
X46860Y-486160D02*
G03*
X46860Y-486160I-1250J0D01*
G01*
X508400Y-575510D02*
G03*
X508400Y-575510I-1250J0D01*
G01*
X505810Y-978010D02*
G03*
X505810Y-978010I-1250J0D01*
G01*
X953730Y-663730D02*
G03*
X953730Y-663730I-1250J0D01*
G01*
X1196165Y-655530D02*
G03*
X1196165Y-655530I-1250J0D01*
G01*
X1467270Y-156460D02*
G03*
X1467270Y-156460I-1250J0D01*
G01*
X1392730Y-486160D02*
G03*
X1392730Y-486160I-1250J0D01*
G01*
X1370931Y-156460D02*
G03*
X1370931Y-156460I-1250J0D01*
G01*
X1296596Y-486160D02*
G03*
X1296596Y-486160I-1250J0D01*
G01*
X1274593Y-156460D02*
G03*
X1274593Y-156460I-1250J0D01*
G01*
X1200463Y-486160D02*
G03*
X1200463Y-486160I-1250J0D01*
G01*
X1178254Y-156460D02*
G03*
X1178254Y-156460I-1250J0D01*
G01*
X1104329Y-486160D02*
G03*
X1104329Y-486160I-1250J0D01*
G01*
X1081916Y-156460D02*
G03*
X1081916Y-156460I-1250J0D01*
G01*
X1008196Y-486160D02*
G03*
X1008196Y-486160I-1250J0D01*
G01*
X985577Y-156460D02*
G03*
X985577Y-156460I-1250J0D01*
G01*
X912062Y-486160D02*
G03*
X912062Y-486160I-1250J0D01*
G01*
X889239Y-156460D02*
G03*
X889239Y-156460I-1250J0D01*
G01*
X815928Y-486160D02*
G03*
X815928Y-486160I-1250J0D01*
G01*
X792900Y-156460D02*
G03*
X792900Y-156460I-1250J0D01*
G01*
X719795Y-486160D02*
G03*
X719795Y-486160I-1250J0D01*
G01*
X696561Y-156460D02*
G03*
X696561Y-156460I-1250J0D01*
G01*
X623661Y-486160D02*
G03*
X623661Y-486160I-1250J0D01*
G01*
X600223Y-156460D02*
G03*
X600223Y-156460I-1250J0D01*
G01*
X527528Y-486160D02*
G03*
X527528Y-486160I-1250J0D01*
G01*
X503884Y-156460D02*
G03*
X503884Y-156460I-1250J0D01*
G01*
X431340Y-479810D02*
G03*
X431340Y-479810I-1250J0D01*
G01*
X407546Y-156460D02*
G03*
X407546Y-156460I-1250J0D01*
G01*
X335261Y-486160D02*
G03*
X335261Y-486160I-1250J0D01*
G01*
X311207Y-156460D02*
G03*
X311207Y-156460I-1250J0D01*
G01*
X239127Y-486160D02*
G03*
X239127Y-486160I-1250J0D01*
G01*
X214869Y-156460D02*
G03*
X214869Y-156460I-1250J0D01*
G01*
X142994Y-486160D02*
G03*
X142994Y-486160I-1250J0D01*
G01*
X118530Y-156460D02*
G03*
X118530Y-156460I-1250J0D01*
G01*
X974090Y-560233D02*
Y-570230D01*
X979088D01*
X980754Y-568564D01*
Y-561899D01*
X979088Y-560233D01*
X974090D01*
X984087Y-570230D02*
Y-560233D01*
X989085D01*
X990751Y-561899D01*
Y-565232D01*
X989085Y-566898D01*
X984087D01*
X987419D02*
X990751Y-570230D01*
X994084Y-560233D02*
Y-566898D01*
X997416Y-570230D01*
X1000748Y-566898D01*
Y-560233D01*
X935034Y-561899D02*
X933368Y-560233D01*
X930036D01*
X928370Y-561899D01*
Y-563565D01*
X930036Y-565232D01*
X933368D01*
X935034Y-566898D01*
Y-568564D01*
X933368Y-570230D01*
X930036D01*
X928370Y-568564D01*
X945031Y-560233D02*
X938367D01*
Y-570230D01*
X945031D01*
X938367Y-565232D02*
X941699D01*
X948364Y-570230D02*
Y-560233D01*
X955028Y-570230D01*
Y-560233D01*
X890584Y-563169D02*
X888918Y-561503D01*
X885586D01*
X883920Y-563169D01*
Y-569834D01*
X885586Y-571500D01*
X888918D01*
X890584Y-569834D01*
Y-566502D01*
X887252D01*
X893917Y-571500D02*
Y-561503D01*
X900581Y-571500D01*
Y-561503D01*
X903914D02*
Y-571500D01*
X908912D01*
X910578Y-569834D01*
Y-563169D01*
X908912Y-561503D01*
X903914D01*
X13015Y-591109D02*
X11348Y-589443D01*
X8016D01*
X6350Y-591109D01*
Y-597774D01*
X8016Y-599440D01*
X11348D01*
X13015Y-597774D01*
Y-594442D01*
X9682D01*
X16347Y-599440D02*
Y-589443D01*
X23011Y-599440D01*
Y-589443D01*
X26344D02*
Y-599440D01*
X31342D01*
X33008Y-597774D01*
Y-591109D01*
X31342Y-589443D01*
X26344D01*
X33020Y-521970D02*
Y-511973D01*
X36352Y-515305D01*
X39685Y-511973D01*
Y-521970D01*
X43017Y-511973D02*
X46349D01*
X44683D01*
Y-521970D01*
X43017D01*
X46349D01*
X58012Y-513639D02*
X56346Y-511973D01*
X53014D01*
X51347Y-513639D01*
Y-515305D01*
X53014Y-516972D01*
X56346D01*
X58012Y-518638D01*
Y-520304D01*
X56346Y-521970D01*
X53014D01*
X51347Y-520304D01*
X68009Y-513639D02*
X66343Y-511973D01*
X63010D01*
X61344Y-513639D01*
Y-520304D01*
X63010Y-521970D01*
X66343D01*
X68009Y-520304D01*
X71341Y-516972D02*
X78005D01*
X81338Y-511973D02*
X84670D01*
X83004D01*
Y-521970D01*
X81338D01*
X84670D01*
X94667Y-511973D02*
X91334D01*
X89668Y-513639D01*
Y-520304D01*
X91334Y-521970D01*
X94667D01*
X96333Y-520304D01*
Y-513639D01*
X94667Y-511973D01*
X525780Y-854710D02*
Y-844713D01*
X530778D01*
X532444Y-846379D01*
Y-849712D01*
X530778Y-851378D01*
X525780D01*
X535777Y-854710D02*
Y-844713D01*
X540775D01*
X542441Y-846379D01*
Y-849712D01*
X540775Y-851378D01*
X535777D01*
X539109D02*
X542441Y-854710D01*
X550772Y-844713D02*
X547440D01*
X545774Y-846379D01*
Y-853044D01*
X547440Y-854710D01*
X550772D01*
X552438Y-853044D01*
Y-846379D01*
X550772Y-844713D01*
X562435Y-846379D02*
X560769Y-844713D01*
X557436D01*
X555770Y-846379D01*
Y-853044D01*
X557436Y-854710D01*
X560769D01*
X562435Y-853044D01*
Y-849712D01*
X559103D01*
X565767Y-854710D02*
Y-844713D01*
X570765D01*
X572432Y-846379D01*
Y-849712D01*
X570765Y-851378D01*
X565767D01*
X569099D02*
X572432Y-854710D01*
X575764D02*
Y-848046D01*
X579096Y-844713D01*
X582428Y-848046D01*
Y-854710D01*
Y-849712D01*
X575764D01*
X585761Y-854710D02*
Y-844713D01*
X589093Y-848046D01*
X592425Y-844713D01*
Y-854710D01*
X557530Y-952500D02*
Y-942503D01*
X562528D01*
X564194Y-944169D01*
Y-947502D01*
X562528Y-949168D01*
X557530D01*
X560862D02*
X564194Y-952500D01*
X574191Y-942503D02*
X567527D01*
Y-952500D01*
X574191D01*
X567527Y-947502D02*
X570859D01*
X584188Y-944169D02*
X582522Y-942503D01*
X579190D01*
X577524Y-944169D01*
Y-945835D01*
X579190Y-947502D01*
X582522D01*
X584188Y-949168D01*
Y-950834D01*
X582522Y-952500D01*
X579190D01*
X577524Y-950834D01*
X594185Y-942503D02*
X587520D01*
Y-952500D01*
X594185D01*
X587520Y-947502D02*
X590853D01*
X597517Y-942503D02*
X604182D01*
X600849D01*
Y-952500D01*
X284795Y-867969D02*
X283128Y-866303D01*
X279796D01*
X278130Y-867969D01*
Y-874634D01*
X279796Y-876300D01*
X283128D01*
X284795Y-874634D01*
X288127Y-876300D02*
Y-869635D01*
X291459Y-866303D01*
X294791Y-869635D01*
Y-876300D01*
Y-871302D01*
X288127D01*
X298124Y-876300D02*
Y-866303D01*
X304788Y-876300D01*
Y-866303D01*
X103429Y-983935D02*
X101763Y-985602D01*
Y-988934D01*
X103429Y-990600D01*
X110094D01*
X111760Y-988934D01*
Y-985602D01*
X110094Y-983935D01*
X106762D01*
Y-987268D01*
X111760Y-980603D02*
X101763D01*
X111760Y-973939D01*
X101763D01*
Y-970606D02*
X111760D01*
Y-965608D01*
X110094Y-963942D01*
X103429D01*
X101763Y-965608D01*
Y-970606D01*
X122234Y-820583D02*
X115570D01*
Y-825582D01*
X118902D01*
X115570D01*
Y-830580D01*
X125567Y-820583D02*
X132231D01*
X128899D01*
Y-830580D01*
X135564Y-820583D02*
Y-830580D01*
X140562D01*
X142228Y-828914D01*
Y-822249D01*
X140562Y-820583D01*
X135564D01*
X145560D02*
X148893D01*
X147226D01*
Y-830580D01*
X145560D01*
X148893D01*
X971864Y-634289D02*
X970198Y-632623D01*
X966866D01*
X965200Y-634289D01*
Y-640954D01*
X966866Y-642620D01*
X970198D01*
X971864Y-640954D01*
Y-637622D01*
X968532D01*
X975197Y-642620D02*
Y-632623D01*
X981861Y-642620D01*
Y-632623D01*
X985194D02*
Y-642620D01*
X990192D01*
X991858Y-640954D01*
Y-634289D01*
X990192Y-632623D01*
X985194D01*
X935034Y-634289D02*
X933368Y-632623D01*
X930036D01*
X928370Y-634289D01*
Y-635956D01*
X930036Y-637622D01*
X933368D01*
X935034Y-639288D01*
Y-640954D01*
X933368Y-642620D01*
X930036D01*
X928370Y-640954D01*
X945031Y-632623D02*
X938367D01*
Y-642620D01*
X945031D01*
X938367Y-637622D02*
X941699D01*
X948364Y-642620D02*
Y-632623D01*
X955028Y-642620D01*
Y-632623D01*
X883920Y-633893D02*
Y-643890D01*
X888918D01*
X890584Y-642224D01*
Y-635559D01*
X888918Y-633893D01*
X883920D01*
X893917Y-643890D02*
Y-633893D01*
X898915D01*
X900581Y-635559D01*
Y-638892D01*
X898915Y-640558D01*
X893917D01*
X897249D02*
X900581Y-643890D01*
X903914Y-633893D02*
Y-640558D01*
X907246Y-643890D01*
X910578Y-640558D01*
Y-633893D01*
D90*
X527050Y-806635D02*
G03*
X527050Y-800285I0J3175D01*
G01*
X1115900Y-595590D02*
G03*
X1113400Y-595590I-1250J0D01*
G01*
X785700Y-627340D02*
G03*
X783200Y-627340I-1250J0D01*
G01*
X52830Y-878180D02*
Y-859180D01*
X20830Y-878180D02*
Y-859180D01*
X969800Y-677230D02*
X1036800D01*
X969800Y-717230D02*
X1036800D01*
Y-677230D01*
X969800Y-717230D02*
Y-677230D01*
X472630Y-767070D02*
Y-766070D01*
X464630Y-767070D02*
Y-766070D01*
X474480Y-784660D02*
X475480D01*
X474480Y-791660D02*
X475480D01*
X527050Y-806635D02*
Y-802610D01*
Y-804310D02*
Y-800285D01*
Y-804310D02*
X590550D01*
Y-802610D01*
X527050D02*
X590550D01*
X918280Y-893795D02*
X1022280D01*
X1062600Y-891445D02*
Y-880445D01*
X1045600Y-891445D02*
Y-880445D01*
X854830Y-809410D02*
Y-798410D01*
X869830Y-809410D02*
Y-798410D01*
X889870Y-809490D02*
Y-808490D01*
X903370Y-809490D02*
Y-808490D01*
X49110Y-437160D02*
X114110D01*
Y-472160D02*
Y-437160D01*
X49110Y-472160D02*
X113614D01*
X49110D02*
Y-437160D01*
X376650Y-713010D02*
Y-590010D01*
X499650Y-713010D02*
Y-590010D01*
X376650Y-713010D02*
X499650D01*
X376650Y-590010D02*
X499650D01*
X488060Y-974960D02*
Y-924960D01*
X472060Y-974960D02*
Y-924960D01*
Y-974960D02*
X488060D01*
X472060Y-924960D02*
X488060D01*
X162270Y-997280D02*
X288270D01*
X162270D02*
Y-898280D01*
X185270D01*
X288270Y-997280D02*
Y-898280D01*
X205270D02*
X215270D01*
X235270D02*
X242270D01*
X268270D02*
X288270D01*
X215270Y-997280D02*
Y-987280D01*
X235270D01*
Y-997280D02*
Y-987280D01*
X1499170Y-833450D02*
Y-779450D01*
X1377170D02*
X1499170D01*
X1377170Y-833450D02*
X1499170D01*
X1484170Y-818450D02*
X1499170D01*
X1484170D02*
Y-794450D01*
X1499170D01*
X1377170Y-833450D02*
Y-779450D01*
X644740Y-849250D02*
Y-845250D01*
X633740Y-832250D02*
X640740D01*
X633740Y-839250D02*
Y-832250D01*
Y-862250D02*
X640740D01*
X633740D02*
Y-855250D01*
X1115900Y-595590D02*
X1121050D01*
X1108250D02*
X1113400D01*
X1108250D02*
Y-570590D01*
X1121050D01*
Y-595590D02*
Y-570590D01*
X873280Y-690410D02*
Y-663410D01*
X847280Y-690410D02*
Y-663410D01*
X793170Y-664710D02*
Y-663710D01*
X784170Y-664710D02*
Y-663710D01*
X111260Y-803330D02*
X112260D01*
X111260Y-794330D02*
X112260D01*
X507810Y-757420D02*
Y-756420D01*
X515810Y-757420D02*
Y-756420D01*
X612910Y-748220D02*
X613910D01*
X612910Y-740220D02*
X613910D01*
X612910Y-724980D02*
X613910D01*
X612910Y-732980D02*
X613910D01*
X528510Y-757420D02*
Y-756420D01*
X520510Y-757420D02*
Y-756420D01*
X638310Y-644580D02*
X639310D01*
X638310Y-635580D02*
X639310D01*
X842700Y-611370D02*
Y-610370D01*
X833700Y-611370D02*
Y-610370D01*
X321890Y-754880D02*
Y-753880D01*
X330890Y-754880D02*
Y-753880D01*
X84590Y-840930D02*
X85590D01*
X84590Y-832930D02*
X85590D01*
X84590Y-821880D02*
X85590D01*
X84590Y-813880D02*
X85590D01*
X26860Y-820920D02*
Y-819920D01*
X18860Y-820920D02*
Y-819920D01*
X48450Y-820920D02*
Y-819920D01*
X40450Y-820920D02*
Y-819920D01*
X885980Y-677230D02*
X952980D01*
X885980Y-717230D02*
X952980D01*
Y-677230D01*
X885980Y-717230D02*
Y-677230D01*
X447810Y-791660D02*
X448810D01*
X447810Y-784660D02*
X448810D01*
X503690Y-859210D02*
X504690D01*
X503690Y-850210D02*
X504690D01*
X824920Y-806950D02*
Y-805950D01*
X815920Y-806950D02*
Y-805950D01*
X1224510Y-755580D02*
Y-651580D01*
X1100590Y-756340D02*
X1101590D01*
X1100590Y-747340D02*
X1101590D01*
X1161360Y-669790D02*
Y-668790D01*
X1170360Y-669790D02*
Y-668790D01*
X1141230Y-756340D02*
X1142230D01*
X1141230Y-747340D02*
X1142230D01*
X920060Y-770875D02*
Y-769875D01*
X929060Y-770875D02*
Y-769875D01*
X1004070Y-837105D02*
X1005070D01*
X1004070Y-828105D02*
X1005070D01*
X929060Y-810245D02*
Y-809245D01*
X920060Y-810245D02*
Y-809245D01*
X1024310Y-767065D02*
Y-766065D01*
X1015310Y-767065D02*
Y-766065D01*
X1024310Y-808975D02*
Y-807975D01*
X1015310Y-808975D02*
Y-807975D01*
X1209890Y-607450D02*
X1220890D01*
X1209890Y-624450D02*
X1220890D01*
X1211160Y-784980D02*
X1222160D01*
X1211160Y-799980D02*
X1222160D01*
X1156470Y-711780D02*
X1157470D01*
X1156470Y-720780D02*
X1157470D01*
X1139960Y-769220D02*
X1140960D01*
X1139960Y-782720D02*
X1140960D01*
X962080Y-820920D02*
Y-819920D01*
X953080Y-820920D02*
Y-819920D01*
X1397520Y-205460D02*
X1462520D01*
X1397520D02*
Y-170460D01*
X1398016D02*
X1462520D01*
Y-205460D02*
Y-170460D01*
X1394980Y-437160D02*
X1459980D01*
Y-472160D02*
Y-437160D01*
X1394980Y-472160D02*
X1459484D01*
X1394980D02*
Y-437160D01*
X1301181Y-205460D02*
X1366181D01*
X1301181D02*
Y-170460D01*
X1301677D02*
X1366181D01*
Y-205460D02*
Y-170460D01*
X1298846Y-437160D02*
X1363846D01*
Y-472160D02*
Y-437160D01*
X1298846Y-472160D02*
X1363350D01*
X1298846D02*
Y-437160D01*
X1204843Y-205460D02*
X1269843D01*
X1204843D02*
Y-170460D01*
X1205339D02*
X1269843D01*
Y-205460D02*
Y-170460D01*
X1202713Y-437160D02*
X1267713D01*
Y-472160D02*
Y-437160D01*
X1202713Y-472160D02*
X1267217D01*
X1202713D02*
Y-437160D01*
X1108504Y-205460D02*
X1173504D01*
X1108504D02*
Y-170460D01*
X1109000D02*
X1173504D01*
Y-205460D02*
Y-170460D01*
X1106579Y-437160D02*
X1171579D01*
Y-472160D02*
Y-437160D01*
X1106579Y-472160D02*
X1171083D01*
X1106579D02*
Y-437160D01*
X1012166Y-205460D02*
X1077166D01*
X1012166D02*
Y-170460D01*
X1012662D02*
X1077166D01*
Y-205460D02*
Y-170460D01*
X1010446Y-437160D02*
X1075446D01*
Y-472160D02*
Y-437160D01*
X1010446Y-472160D02*
X1074950D01*
X1010446D02*
Y-437160D01*
X915827Y-205460D02*
X980827D01*
X915827D02*
Y-170460D01*
X916323D02*
X980827D01*
Y-205460D02*
Y-170460D01*
X914312Y-437160D02*
X979312D01*
Y-472160D02*
Y-437160D01*
X914312Y-472160D02*
X978816D01*
X914312D02*
Y-437160D01*
X819489Y-205460D02*
X884489D01*
X819489D02*
Y-170460D01*
X819985D02*
X884489D01*
Y-205460D02*
Y-170460D01*
X818178Y-437160D02*
X883178D01*
Y-472160D02*
Y-437160D01*
X818178Y-472160D02*
X882682D01*
X818178D02*
Y-437160D01*
X723150Y-205460D02*
X788150D01*
X723150D02*
Y-170460D01*
X723646D02*
X788150D01*
Y-205460D02*
Y-170460D01*
X722045Y-437160D02*
X787045D01*
Y-472160D02*
Y-437160D01*
X722045Y-472160D02*
X786549D01*
X722045D02*
Y-437160D01*
X626811Y-205460D02*
X691811D01*
X626811D02*
Y-170460D01*
X627307D02*
X691811D01*
Y-205460D02*
Y-170460D01*
X625911Y-437160D02*
X690911D01*
Y-472160D02*
Y-437160D01*
X625911Y-472160D02*
X690415D01*
X625911D02*
Y-437160D01*
X530473Y-205460D02*
X595473D01*
X530473D02*
Y-170460D01*
X530969D02*
X595473D01*
Y-205460D02*
Y-170460D01*
X529778Y-437160D02*
X594778D01*
Y-472160D02*
Y-437160D01*
X529778Y-472160D02*
X594282D01*
X529778D02*
Y-437160D01*
X434134Y-205460D02*
X499134D01*
X434134D02*
Y-170460D01*
X434630D02*
X499134D01*
Y-205460D02*
Y-170460D01*
X433590Y-430810D02*
X498590D01*
Y-465810D02*
Y-430810D01*
X433590Y-465810D02*
X498094D01*
X433590D02*
Y-430810D01*
X337796Y-205460D02*
X402796D01*
X337796D02*
Y-170460D01*
X338292D02*
X402796D01*
Y-205460D02*
Y-170460D01*
X337511Y-437160D02*
X402511D01*
Y-472160D02*
Y-437160D01*
X337511Y-472160D02*
X402015D01*
X337511D02*
Y-437160D01*
X241457Y-205460D02*
X306457D01*
X241457D02*
Y-170460D01*
X241953D02*
X306457D01*
Y-205460D02*
Y-170460D01*
X241377Y-437160D02*
X306377D01*
Y-472160D02*
Y-437160D01*
X241377Y-472160D02*
X305881D01*
X241377D02*
Y-437160D01*
X145119Y-205460D02*
X210119D01*
X145119D02*
Y-170460D01*
X145615D02*
X210119D01*
Y-205460D02*
Y-170460D01*
X145244Y-437160D02*
X210244D01*
Y-472160D02*
Y-437160D01*
X145244Y-472160D02*
X209748D01*
X145244D02*
Y-437160D01*
X48780Y-205460D02*
X113780D01*
X48780D02*
Y-170460D01*
X49276D02*
X113780D01*
Y-205460D02*
Y-170460D01*
X666060Y-685030D02*
Y-684030D01*
X675060Y-685030D02*
Y-684030D01*
X754960Y-728210D02*
Y-727210D01*
X763960Y-728210D02*
Y-727210D01*
X482100Y-916360D02*
X483100D01*
X482100Y-907360D02*
X483100D01*
X296890Y-997280D02*
X422890D01*
X296890D02*
Y-898280D01*
X319890D01*
X422890Y-997280D02*
Y-898280D01*
X339890D02*
X349890D01*
X369890D02*
X376890D01*
X402890D02*
X422890D01*
X349890Y-997280D02*
Y-987280D01*
X369890D01*
Y-997280D02*
Y-987280D01*
X240610Y-787900D02*
Y-786900D01*
X249610Y-787900D02*
Y-786900D01*
X230560Y-560570D02*
Y-559570D01*
X221560Y-560570D02*
Y-559570D01*
X272550Y-783010D02*
X273550D01*
X272550Y-774010D02*
X273550D01*
X263660Y-560760D02*
X264660D01*
X263660Y-551760D02*
X264660D01*
X263660Y-582350D02*
X264660D01*
X263660Y-573350D02*
X264660D01*
X272550Y-753800D02*
X273550D01*
X272550Y-744800D02*
X273550D01*
X168220Y-593590D02*
Y-592590D01*
X177220Y-593590D02*
Y-592590D01*
X183570Y-734560D02*
Y-733560D01*
X174570Y-734560D02*
Y-733560D01*
X1499170Y-894410D02*
Y-840410D01*
X1377170D02*
X1499170D01*
X1377170Y-894410D02*
X1499170D01*
X1484170Y-879410D02*
X1499170D01*
X1484170D02*
Y-855410D01*
X1499170D01*
X1377170Y-894410D02*
Y-840410D01*
X756910Y-838930D02*
Y-831930D01*
X749910D02*
X756910D01*
Y-861930D02*
Y-854930D01*
X749910Y-861930D02*
X756910D01*
X745910Y-848930D02*
Y-844930D01*
X1062490Y-655900D02*
X1063490D01*
X1062490Y-664900D02*
X1063490D01*
X861640Y-615180D02*
Y-614180D01*
X870640Y-615180D02*
Y-614180D01*
X834970Y-782820D02*
Y-781820D01*
X843970Y-782820D02*
Y-781820D01*
X1264230Y-886960D02*
Y-885960D01*
X1273230Y-886960D02*
Y-885960D01*
X790850Y-627340D02*
Y-602340D01*
X778050D02*
X790850D01*
X778050Y-627340D02*
Y-602340D01*
Y-627340D02*
X783200D01*
X785700D02*
X790850D01*
X1023920Y-623100D02*
Y-596100D01*
X997920Y-623100D02*
Y-596100D01*
X1087890Y-624260D02*
X1088890D01*
X1087890Y-615260D02*
X1088890D01*
X1049790Y-624260D02*
X1050790D01*
X1049790Y-615260D02*
X1050790D01*
X1049790Y-605210D02*
X1050790D01*
X1049790Y-596210D02*
X1050790D01*
X819920Y-685110D02*
X820920D01*
X819920Y-694110D02*
X820920D01*
X818650Y-659710D02*
X819650D01*
X818650Y-668710D02*
X819650D01*
X678760Y-626610D02*
Y-625610D01*
X687760Y-626610D02*
Y-625610D01*
X659820Y-599940D02*
Y-598940D01*
X650820Y-599940D02*
Y-598940D01*
X507580Y-887350D02*
Y-883350D01*
X496580Y-870350D02*
X503580D01*
X496580Y-877350D02*
Y-870350D01*
Y-900350D02*
X503580D01*
X496580D02*
Y-893350D01*
D91*
X276226Y-720725D02*
G03*
X276226Y-720725I-3175J0D01*
G01*
D92*
X771970Y-975550D02*
Y-868050D01*
X799470Y-840550D01*
X879470D02*
X906971Y-868050D01*
Y-975550D02*
Y-868050D01*
X1078039Y-932370D02*
Y-824870D01*
X1105540Y-797370D01*
X1185540D02*
X1213040Y-824870D01*
Y-932370D02*
Y-824870D01*
X1094740Y-651002D02*
X1104900D01*
X1094740Y-644398D02*
X1104900D01*
X879348Y-603250D02*
Y-593090D01*
X885952Y-603250D02*
Y-593090D01*
X863600Y-774192D02*
X873760D01*
X863600Y-767588D02*
X873760D01*
X1265428Y-857250D02*
Y-847090D01*
X1272032Y-857250D02*
Y-847090D01*
X69850Y-795528D02*
X80010D01*
X69850Y-802132D02*
X80010D01*
X653341Y-714340D02*
Y-672340D01*
X642341Y-661340D02*
X653341Y-672340D01*
X600342D02*
X611342Y-661340D01*
X600342Y-714340D02*
Y-672340D01*
D93*
X125730Y-839470D02*
X139446D01*
X125476Y-991870D02*
X139446D01*
Y-941070D02*
X145796Y-947420D01*
Y-960120D02*
Y-947420D01*
X139446Y-966470D02*
X145796Y-960120D01*
X139446Y-966470D02*
X145796Y-972820D01*
Y-985520D02*
Y-972820D01*
X139446Y-991870D02*
X145796Y-985520D01*
X119126Y-972820D02*
X125476Y-966470D01*
X119126Y-985520D02*
X125476Y-991870D01*
X119126Y-985520D02*
Y-972820D01*
Y-947420D02*
X125476Y-941070D01*
X119126Y-960120D02*
X125476Y-966470D01*
X119126Y-960120D02*
Y-947420D01*
X119380Y-858520D02*
Y-845820D01*
Y-883920D02*
Y-871220D01*
Y-909320D02*
Y-896620D01*
Y-934720D02*
Y-922020D01*
X139446Y-941070D02*
X145796Y-934720D01*
Y-922020D01*
X139446Y-915670D02*
X145796Y-922020D01*
X139446Y-915670D02*
X145796Y-909320D01*
Y-896620D01*
X139446Y-890270D02*
X145796Y-896620D01*
X139446Y-890270D02*
X145796Y-883920D01*
Y-871220D01*
X139446Y-864870D02*
X145796Y-871220D01*
X139446Y-864870D02*
X145796Y-858520D01*
Y-845820D01*
X139446Y-839470D02*
X145796Y-845820D01*
X119380Y-934720D02*
X125730Y-941070D01*
X119380Y-922020D02*
X125730Y-915670D01*
X119380Y-909320D02*
X125730Y-915670D01*
X119380Y-896620D02*
X125730Y-890270D01*
X119380Y-883920D02*
X125730Y-890270D01*
X119380Y-871220D02*
X125730Y-864870D01*
X119380Y-858520D02*
X125730Y-864870D01*
X119380Y-845820D02*
X125730Y-839470D01*
X337820Y-330200D02*
Y-292100D01*
X331470Y-285750D02*
X337820Y-292100D01*
X312420D02*
X318770Y-285750D01*
Y-336550D02*
X331470D01*
X337820Y-330200D01*
X312420D02*
X318770Y-336550D01*
Y-285750D02*
X331470D01*
X210820Y-330200D02*
X217170Y-336550D01*
X229870D02*
X236220Y-330200D01*
X242570Y-336550D01*
X255270D02*
X261620Y-330200D01*
X267970Y-336550D01*
X280670D02*
X287020Y-330200D01*
X293370Y-336550D01*
X306070D02*
X312420Y-330200D01*
X210820D02*
Y-292100D01*
X217170Y-285750D01*
X229870D01*
X236220Y-292100D01*
X242570Y-285750D01*
X255270D01*
X261620Y-292100D01*
X267970Y-285750D01*
X280670D01*
X287020Y-292100D01*
X293370Y-285750D01*
X306070D01*
X312420Y-292100D01*
X293370Y-336550D02*
X306070D01*
X267970D02*
X280670D01*
X242570D02*
X255270D01*
X217170D02*
X229870D01*
X6650Y-576580D02*
Y-538480D01*
X63800Y-532130D02*
X76500D01*
X38400D02*
X51100D01*
X13000D02*
X25700D01*
X6650Y-576580D02*
X13000Y-582930D01*
X25700D01*
X32050Y-576580D01*
X38400Y-582930D01*
X51100D01*
X57450Y-576580D01*
X63800Y-582930D01*
X76500D01*
X82850Y-576580D01*
Y-538480D01*
X6650D02*
X13000Y-532130D01*
X25700D02*
X32050Y-538480D01*
X38400Y-532130D01*
X51100D02*
X57450Y-538480D01*
X63800Y-532130D01*
X76500D02*
X82850Y-538480D01*
X819150Y-339090D02*
Y-300990D01*
X812800Y-294640D02*
X819150Y-300990D01*
X793750D02*
X800100Y-294640D01*
Y-345440D02*
X812800D01*
X819150Y-339090D01*
X793750D02*
X800100Y-345440D01*
Y-294640D02*
X812800D01*
X692150Y-339090D02*
X698500Y-345440D01*
X711200D02*
X717550Y-339090D01*
X723900Y-345440D01*
X736600D02*
X742950Y-339090D01*
X749300Y-345440D01*
X762000D02*
X768350Y-339090D01*
X774700Y-345440D01*
X787400D02*
X793750Y-339090D01*
X692150D02*
Y-300990D01*
X698500Y-294640D01*
X711200D01*
X717550Y-300990D01*
X723900Y-294640D01*
X736600D01*
X742950Y-300990D01*
X749300Y-294640D01*
X762000D01*
X768350Y-300990D01*
X774700Y-294640D01*
X787400D01*
X793750Y-300990D01*
X774700Y-345440D02*
X787400D01*
X749300D02*
X762000D01*
X723900D02*
X736600D01*
X698500D02*
X711200D01*
X903940Y-621030D02*
X910290Y-627380D01*
X922990D02*
X929340Y-621030D01*
X935690Y-627380D01*
X948390D02*
X954740Y-621030D01*
X961090Y-627380D01*
X973790D02*
X980140Y-621030D01*
X903940D02*
Y-582930D01*
X910290Y-576580D01*
X922990D01*
X929340Y-582930D01*
X935690Y-576580D01*
X948390D01*
X954740Y-582930D01*
X961090Y-576580D01*
X973790D01*
X980140Y-582930D01*
X961090Y-627380D02*
X973790D01*
X935690D02*
X948390D01*
X910290D02*
X922990D01*
X980140Y-621030D02*
Y-582930D01*
X1181100Y-341630D02*
X1193800D01*
X1206500D02*
X1219200D01*
X1231900D02*
X1244600D01*
X1257300D02*
X1270000D01*
Y-290830D02*
X1276350Y-297180D01*
X1257300Y-290830D02*
X1270000D01*
X1250950Y-297180D02*
X1257300Y-290830D01*
X1244600D02*
X1250950Y-297180D01*
X1231900Y-290830D02*
X1244600D01*
X1225550Y-297180D02*
X1231900Y-290830D01*
X1219200D02*
X1225550Y-297180D01*
X1206500Y-290830D02*
X1219200D01*
X1200150Y-297180D02*
X1206500Y-290830D01*
X1193800D02*
X1200150Y-297180D01*
X1181100Y-290830D02*
X1193800D01*
X1174750Y-297180D02*
X1181100Y-290830D01*
X1174750Y-335280D02*
Y-297180D01*
X1270000Y-341630D02*
X1276350Y-335280D01*
X1250950D02*
X1257300Y-341630D01*
X1244600D02*
X1250950Y-335280D01*
X1225550D02*
X1231900Y-341630D01*
X1219200D02*
X1225550Y-335280D01*
X1200150D02*
X1206500Y-341630D01*
X1193800D02*
X1200150Y-335280D01*
X1174750D02*
X1181100Y-341630D01*
X1282700Y-290830D02*
X1295400D01*
X1276350Y-335280D02*
X1282700Y-341630D01*
X1295400D02*
X1301750Y-335280D01*
X1282700Y-341630D02*
X1295400D01*
X1276350Y-297180D02*
X1282700Y-290830D01*
X1295400D02*
X1301750Y-297180D01*
Y-335280D02*
Y-297180D01*
D94*
X482600Y-832610D02*
Y-798320D01*
X440690D02*
X482600D01*
X440690Y-832610D02*
Y-798320D01*
Y-832610D02*
X482600D01*
X495800Y-831850D02*
Y-775970D01*
X622300D01*
Y-831850D02*
Y-775970D01*
X495800Y-831850D02*
X622300D01*
X595370Y-754960D02*
X612370D01*
X595370Y-763960D02*
X612370D01*
X723320Y-879100D02*
Y-862100D01*
X714320Y-879100D02*
Y-862100D01*
X704270Y-879100D02*
Y-862100D01*
X695270Y-879100D02*
Y-862100D01*
X686490Y-879100D02*
Y-862100D01*
X677490Y-879100D02*
Y-862100D01*
D95*
X562610Y-915670D02*
Y-907420D01*
X560060Y-902871D02*
X562610Y-907420D01*
Y-900671D02*
Y-891819D01*
D96*
X1144333Y-864220D02*
X1144000Y-863887D01*
X1143333D01*
X1143000Y-864220D01*
Y-865553D01*
X1143333Y-865886D01*
X1144000D01*
X1144333Y-865553D01*
X1146332Y-865886D02*
X1144999D01*
X1146332Y-864553D01*
Y-864220D01*
X1145999Y-863887D01*
X1145333D01*
X1144999Y-864220D01*
X1146999D02*
X1147332Y-863887D01*
X1147998D01*
X1148332Y-864220D01*
Y-864553D01*
X1147998Y-864886D01*
X1147665D01*
X1147998D01*
X1148332Y-865220D01*
Y-865553D01*
X1147998Y-865886D01*
X1147332D01*
X1146999Y-865553D01*
X838263Y-907400D02*
X837930Y-907067D01*
X837263D01*
X836930Y-907400D01*
Y-908733D01*
X837263Y-909066D01*
X837930D01*
X838263Y-908733D01*
X840262Y-909066D02*
X838929D01*
X840262Y-907733D01*
Y-907400D01*
X839929Y-907067D01*
X839263D01*
X838929Y-907400D01*
X842262Y-909066D02*
X840929D01*
X842262Y-907733D01*
Y-907400D01*
X841928Y-907067D01*
X841262D01*
X840929Y-907400D01*
X43497Y-556547D02*
X42830D01*
X43164D01*
Y-558213D01*
X42830Y-558546D01*
X42497D01*
X42164Y-558213D01*
X44163Y-558546D02*
Y-556547D01*
X45163D01*
X45496Y-556880D01*
Y-557546D01*
X45163Y-557880D01*
X44163D01*
X46163Y-556880D02*
X46496Y-556547D01*
X47162D01*
X47496Y-556880D01*
Y-557213D01*
X47162Y-557546D01*
X47496Y-557880D01*
Y-558213D01*
X47162Y-558546D01*
X46496D01*
X46163Y-558213D01*
Y-557880D01*
X46496Y-557546D01*
X46163Y-557213D01*
Y-556880D01*
X46496Y-557546D02*
X47162D01*
X109220Y-799846D02*
Y-797847D01*
X110220D01*
X110553Y-798180D01*
Y-798846D01*
X110220Y-799180D01*
X109220D01*
X109886D02*
X110553Y-799846D01*
X111219Y-798180D02*
X111553Y-797847D01*
X112219D01*
X112552Y-798180D01*
Y-798513D01*
X112219Y-798846D01*
X111886D01*
X112219D01*
X112552Y-799180D01*
Y-799513D01*
X112219Y-799846D01*
X111553D01*
X111219Y-799513D01*
X114218Y-799846D02*
Y-797847D01*
X113219Y-798846D01*
X114552D01*
X72390Y-797847D02*
Y-799846D01*
X73390D01*
X73723Y-799513D01*
Y-798180D01*
X73390Y-797847D01*
X72390D01*
X74389Y-799846D02*
X75056D01*
X74723D01*
Y-797847D01*
X74389Y-798180D01*
X652780Y-600456D02*
Y-598457D01*
X653780D01*
X654113Y-598790D01*
Y-599456D01*
X653780Y-599790D01*
X652780D01*
X653446D02*
X654113Y-600456D01*
X654779Y-598790D02*
X655113Y-598457D01*
X655779D01*
X656112Y-598790D01*
Y-599123D01*
X655779Y-599456D01*
X655446D01*
X655779D01*
X656112Y-599790D01*
Y-600123D01*
X655779Y-600456D01*
X655113D01*
X654779Y-600123D01*
X656779Y-598790D02*
X657112Y-598457D01*
X657778D01*
X658112Y-598790D01*
Y-599123D01*
X657778Y-599456D01*
X657445D01*
X657778D01*
X658112Y-599790D01*
Y-600123D01*
X657778Y-600456D01*
X657112D01*
X656779Y-600123D01*
X680720Y-627126D02*
Y-625127D01*
X681720D01*
X682053Y-625460D01*
Y-626126D01*
X681720Y-626460D01*
X680720D01*
X681386D02*
X682053Y-627126D01*
X682719Y-625460D02*
X683053Y-625127D01*
X683719D01*
X684052Y-625460D01*
Y-625793D01*
X683719Y-626126D01*
X683386D01*
X683719D01*
X684052Y-626460D01*
Y-626793D01*
X683719Y-627126D01*
X683053D01*
X682719Y-626793D01*
X686052Y-627126D02*
X684719D01*
X686052Y-625793D01*
Y-625460D01*
X685718Y-625127D01*
X685052D01*
X684719Y-625460D01*
X816864Y-665226D02*
Y-663227D01*
X817864D01*
X818197Y-663560D01*
Y-664226D01*
X817864Y-664560D01*
X816864D01*
X817530D02*
X818197Y-665226D01*
X818863Y-663560D02*
X819197Y-663227D01*
X819863D01*
X820196Y-663560D01*
Y-663893D01*
X819863Y-664226D01*
X819530D01*
X819863D01*
X820196Y-664560D01*
Y-664893D01*
X819863Y-665226D01*
X819197D01*
X818863Y-664893D01*
X820863Y-665226D02*
X821529D01*
X821196D01*
Y-663227D01*
X820863Y-663560D01*
X821436Y-692150D02*
X819437D01*
Y-691150D01*
X819770Y-690817D01*
X820436D01*
X820770Y-691150D01*
Y-692150D01*
Y-691484D02*
X821436Y-690817D01*
Y-688818D02*
Y-690151D01*
X820103Y-688818D01*
X819770D01*
X819437Y-689151D01*
Y-689817D01*
X819770Y-690151D01*
X819437Y-686818D02*
X819770Y-687485D01*
X820436Y-688151D01*
X821103D01*
X821436Y-687818D01*
Y-687152D01*
X821103Y-686818D01*
X820770D01*
X820436Y-687152D01*
Y-688151D01*
X1047750Y-601726D02*
Y-599727D01*
X1048750D01*
X1049083Y-600060D01*
Y-600726D01*
X1048750Y-601060D01*
X1047750D01*
X1048416D02*
X1049083Y-601726D01*
X1049749D02*
X1050416D01*
X1050083D01*
Y-599727D01*
X1049749Y-600060D01*
X1052748Y-601726D02*
X1051415D01*
X1052748Y-600393D01*
Y-600060D01*
X1052415Y-599727D01*
X1051749D01*
X1051415Y-600060D01*
X1048004Y-620776D02*
Y-618777D01*
X1049004D01*
X1049337Y-619110D01*
Y-619776D01*
X1049004Y-620110D01*
X1048004D01*
X1048670D02*
X1049337Y-620776D01*
X1050003D02*
X1050670D01*
X1050337D01*
Y-618777D01*
X1050003Y-619110D01*
X1051669Y-620776D02*
X1052336D01*
X1052003D01*
Y-618777D01*
X1051669Y-619110D01*
X789877Y-664860D02*
X790210Y-665193D01*
X790877D01*
X791210Y-664860D01*
Y-663527D01*
X790877Y-663194D01*
X790210D01*
X789877Y-663527D01*
X789211Y-663194D02*
X788544D01*
X788877D01*
Y-665193D01*
X789211Y-664860D01*
X787544Y-663527D02*
X787211Y-663194D01*
X786545D01*
X786212Y-663527D01*
Y-664860D01*
X786545Y-665193D01*
X787211D01*
X787544Y-664860D01*
Y-664527D01*
X787211Y-664194D01*
X786212D01*
X1087183Y-619110D02*
X1086850Y-618777D01*
X1086183D01*
X1085850Y-619110D01*
Y-620443D01*
X1086183Y-620776D01*
X1086850D01*
X1087183Y-620443D01*
X1087849Y-620776D02*
X1088516D01*
X1088183D01*
Y-618777D01*
X1087849Y-619110D01*
X1089516D02*
X1089849Y-618777D01*
X1090515D01*
X1090848Y-619110D01*
Y-619443D01*
X1090515Y-619776D01*
X1090848Y-620110D01*
Y-620443D01*
X1090515Y-620776D01*
X1089849D01*
X1089516Y-620443D01*
Y-620110D01*
X1089849Y-619776D01*
X1089516Y-619443D01*
Y-619110D01*
X1089849Y-619776D02*
X1090515D01*
X87630Y-889287D02*
Y-890953D01*
X87963Y-891286D01*
X88630D01*
X88963Y-890953D01*
Y-889287D01*
X90629Y-891286D02*
Y-889287D01*
X89629Y-890286D01*
X90962D01*
X91629Y-891286D02*
X92295D01*
X91962D01*
Y-889287D01*
X91629Y-889620D01*
X558800Y-753397D02*
Y-755063D01*
X559133Y-755396D01*
X559800D01*
X560133Y-755063D01*
Y-753397D01*
X561799Y-755396D02*
Y-753397D01*
X560799Y-754396D01*
X562132D01*
X562799Y-753730D02*
X563132Y-753397D01*
X563798D01*
X564132Y-753730D01*
Y-755063D01*
X563798Y-755396D01*
X563132D01*
X562799Y-755063D01*
Y-753730D01*
X857758Y-677926D02*
Y-675927D01*
X858758D01*
X859091Y-676260D01*
Y-676926D01*
X858758Y-677260D01*
X857758D01*
X858424D02*
X859091Y-677926D01*
X859757D02*
X860424D01*
X860091D01*
Y-675927D01*
X859757Y-676260D01*
X861423D02*
X861757Y-675927D01*
X862423D01*
X862756Y-676260D01*
Y-677593D01*
X862423Y-677926D01*
X861757D01*
X861423Y-677593D01*
Y-676260D01*
X1009142Y-610616D02*
Y-608617D01*
X1010142D01*
X1010475Y-608950D01*
Y-609616D01*
X1010142Y-609950D01*
X1009142D01*
X1009808D02*
X1010475Y-610616D01*
X1011141Y-610283D02*
X1011475Y-610616D01*
X1012141D01*
X1012474Y-610283D01*
Y-608950D01*
X1012141Y-608617D01*
X1011475D01*
X1011141Y-608950D01*
Y-609283D01*
X1011475Y-609616D01*
X1012474D01*
X1112012Y-584233D02*
Y-585899D01*
X1112345Y-586232D01*
X1113012D01*
X1113345Y-585899D01*
Y-584233D01*
X1114011Y-584566D02*
X1114345Y-584233D01*
X1115011D01*
X1115344Y-584566D01*
Y-584899D01*
X1115011Y-585232D01*
X1114678D01*
X1115011D01*
X1115344Y-585566D01*
Y-585899D01*
X1115011Y-586232D01*
X1114345D01*
X1114011Y-585899D01*
X1116011D02*
X1116344Y-586232D01*
X1117010D01*
X1117344Y-585899D01*
Y-584566D01*
X1117010Y-584233D01*
X1116344D01*
X1116011Y-584566D01*
Y-584899D01*
X1116344Y-585232D01*
X1117344D01*
X781812Y-615983D02*
Y-617649D01*
X782145Y-617982D01*
X782812D01*
X783145Y-617649D01*
Y-615983D01*
X783811Y-616316D02*
X784145Y-615983D01*
X784811D01*
X785144Y-616316D01*
Y-616649D01*
X784811Y-616982D01*
X784478D01*
X784811D01*
X785144Y-617316D01*
Y-617649D01*
X784811Y-617982D01*
X784145D01*
X783811Y-617649D01*
X785811Y-616316D02*
X786144Y-615983D01*
X786810D01*
X787144Y-616316D01*
Y-616649D01*
X786810Y-616982D01*
X787144Y-617316D01*
Y-617649D01*
X786810Y-617982D01*
X786144D01*
X785811Y-617649D01*
Y-617316D01*
X786144Y-616982D01*
X785811Y-616649D01*
Y-616316D01*
X786144Y-616982D02*
X786810D01*
X1266190Y-887476D02*
Y-885477D01*
X1267190D01*
X1267523Y-885810D01*
Y-886476D01*
X1267190Y-886810D01*
X1266190D01*
X1266856D02*
X1267523Y-887476D01*
X1268189Y-885810D02*
X1268523Y-885477D01*
X1269189D01*
X1269522Y-885810D01*
Y-886143D01*
X1269189Y-886476D01*
X1268856D01*
X1269189D01*
X1269522Y-886810D01*
Y-887143D01*
X1269189Y-887476D01*
X1268523D01*
X1268189Y-887143D01*
X1270189Y-885810D02*
X1270522Y-885477D01*
X1271188D01*
X1271522Y-885810D01*
Y-887143D01*
X1271188Y-887476D01*
X1270522D01*
X1270189Y-887143D01*
Y-885810D01*
X836930Y-783336D02*
Y-781337D01*
X837930D01*
X838263Y-781670D01*
Y-782336D01*
X837930Y-782670D01*
X836930D01*
X837596D02*
X838263Y-783336D01*
X840262D02*
X838929D01*
X840262Y-782003D01*
Y-781670D01*
X839929Y-781337D01*
X839263D01*
X838929Y-781670D01*
X840929Y-783003D02*
X841262Y-783336D01*
X841928D01*
X842262Y-783003D01*
Y-781670D01*
X841928Y-781337D01*
X841262D01*
X840929Y-781670D01*
Y-782003D01*
X841262Y-782336D01*
X842262D01*
X863600Y-615696D02*
Y-613697D01*
X864600D01*
X864933Y-614030D01*
Y-614696D01*
X864600Y-615030D01*
X863600D01*
X864266D02*
X864933Y-615696D01*
X866932D02*
X865599D01*
X866932Y-614363D01*
Y-614030D01*
X866599Y-613697D01*
X865933D01*
X865599Y-614030D01*
X867599D02*
X867932Y-613697D01*
X868598D01*
X868932Y-614030D01*
Y-614363D01*
X868598Y-614696D01*
X868932Y-615030D01*
Y-615363D01*
X868598Y-615696D01*
X867932D01*
X867599Y-615363D01*
Y-615030D01*
X867932Y-614696D01*
X867599Y-614363D01*
Y-614030D01*
X867932Y-614696D02*
X868598D01*
X1060450Y-661416D02*
Y-659417D01*
X1061450D01*
X1061783Y-659750D01*
Y-660416D01*
X1061450Y-660750D01*
X1060450D01*
X1061116D02*
X1061783Y-661416D01*
X1063782D02*
X1062449D01*
X1063782Y-660083D01*
Y-659750D01*
X1063449Y-659417D01*
X1062783D01*
X1062449Y-659750D01*
X1064449Y-659417D02*
X1065782D01*
Y-659750D01*
X1064449Y-661083D01*
Y-661416D01*
X1266952Y-849917D02*
Y-851916D01*
X1267952D01*
X1268285Y-851583D01*
Y-850250D01*
X1267952Y-849917D01*
X1266952D01*
X1268951Y-851583D02*
X1269285Y-851916D01*
X1269951D01*
X1270284Y-851583D01*
Y-850250D01*
X1269951Y-849917D01*
X1269285D01*
X1268951Y-850250D01*
Y-850583D01*
X1269285Y-850916D01*
X1270284D01*
X868172Y-769907D02*
Y-771906D01*
X869172D01*
X869505Y-771573D01*
Y-770240D01*
X869172Y-769907D01*
X868172D01*
X870171Y-770240D02*
X870505Y-769907D01*
X871171D01*
X871504Y-770240D01*
Y-770573D01*
X871171Y-770906D01*
X871504Y-771240D01*
Y-771573D01*
X871171Y-771906D01*
X870505D01*
X870171Y-771573D01*
Y-771240D01*
X870505Y-770906D01*
X870171Y-770573D01*
Y-770240D01*
X870505Y-770906D02*
X871171D01*
X881707Y-598718D02*
X883706D01*
Y-597718D01*
X883373Y-597385D01*
X882040D01*
X881707Y-597718D01*
Y-598718D01*
Y-596719D02*
Y-595386D01*
X882040D01*
X883373Y-596719D01*
X883706D01*
X1099312Y-646717D02*
Y-648716D01*
X1100312D01*
X1100645Y-648383D01*
Y-647050D01*
X1100312Y-646717D01*
X1099312D01*
X1102644D02*
X1101978Y-647050D01*
X1101311Y-647716D01*
Y-648383D01*
X1101645Y-648716D01*
X1102311D01*
X1102644Y-648383D01*
Y-648050D01*
X1102311Y-647716D01*
X1101311D01*
X637540Y-846361D02*
Y-848360D01*
X638540D01*
X638873Y-848027D01*
Y-846694D01*
X638540Y-846361D01*
X637540D01*
X640539Y-848360D02*
Y-846361D01*
X639539Y-847360D01*
X640872D01*
X749808Y-845853D02*
Y-847852D01*
X750808D01*
X751141Y-847519D01*
Y-846186D01*
X750808Y-845853D01*
X749808D01*
X751807Y-846186D02*
X752141Y-845853D01*
X752807D01*
X753140Y-846186D01*
Y-846519D01*
X752807Y-846852D01*
X752474D01*
X752807D01*
X753140Y-847186D01*
Y-847519D01*
X752807Y-847852D01*
X752141D01*
X751807Y-847519D01*
X1395539Y-803943D02*
X1394872D01*
X1395206D01*
Y-805609D01*
X1394872Y-805942D01*
X1394539D01*
X1394206Y-805609D01*
X1397538Y-803943D02*
X1396872Y-804276D01*
X1396205Y-804942D01*
Y-805609D01*
X1396539Y-805942D01*
X1397205D01*
X1397538Y-805609D01*
Y-805276D01*
X1397205Y-804942D01*
X1396205D01*
X1395539Y-864903D02*
X1394872D01*
X1395206D01*
Y-866569D01*
X1394872Y-866902D01*
X1394539D01*
X1394206Y-866569D01*
X1397538Y-864903D02*
X1396205D01*
Y-865902D01*
X1396872Y-865569D01*
X1397205D01*
X1397538Y-865902D01*
Y-866569D01*
X1397205Y-866902D01*
X1396539D01*
X1396205Y-866569D01*
X1474279Y-637827D02*
X1473612D01*
X1473946D01*
Y-639493D01*
X1473612Y-639826D01*
X1473279D01*
X1472946Y-639493D01*
X1475945Y-639826D02*
Y-637827D01*
X1474945Y-638826D01*
X1476278D01*
X1474279Y-714027D02*
X1473612D01*
X1473946D01*
Y-715693D01*
X1473612Y-716026D01*
X1473279D01*
X1472946Y-715693D01*
X1474945Y-714360D02*
X1475279Y-714027D01*
X1475945D01*
X1476278Y-714360D01*
Y-714693D01*
X1475945Y-715026D01*
X1475612D01*
X1475945D01*
X1476278Y-715360D01*
Y-715693D01*
X1475945Y-716026D01*
X1475279D01*
X1474945Y-715693D01*
X246380Y-665767D02*
X247713D01*
X247046D01*
Y-667766D01*
X248379D02*
X249046D01*
X248713D01*
Y-665767D01*
X248379Y-666100D01*
X176530Y-735076D02*
Y-733077D01*
X177530D01*
X177863Y-733410D01*
Y-734076D01*
X177530Y-734410D01*
X176530D01*
X177196D02*
X177863Y-735076D01*
X178529D02*
X179196D01*
X178863D01*
Y-733077D01*
X178529Y-733410D01*
X180196D02*
X180529Y-733077D01*
X181195D01*
X181528Y-733410D01*
Y-733743D01*
X181195Y-734076D01*
X181528Y-734410D01*
Y-734743D01*
X181195Y-735076D01*
X180529D01*
X180196Y-734743D01*
Y-734410D01*
X180529Y-734076D01*
X180196Y-733743D01*
Y-733410D01*
X180529Y-734076D02*
X181195D01*
X170180Y-594106D02*
Y-592107D01*
X171180D01*
X171513Y-592440D01*
Y-593106D01*
X171180Y-593440D01*
X170180D01*
X170846D02*
X171513Y-594106D01*
X172179D02*
X172846D01*
X172513D01*
Y-592107D01*
X172179Y-592440D01*
X173846Y-592107D02*
X175178D01*
Y-592440D01*
X173846Y-593773D01*
Y-594106D01*
X270510Y-750316D02*
Y-748317D01*
X271510D01*
X271843Y-748650D01*
Y-749316D01*
X271510Y-749650D01*
X270510D01*
X271176D02*
X271843Y-750316D01*
X272509D02*
X273176D01*
X272843D01*
Y-748317D01*
X272509Y-748650D01*
X275508Y-748317D02*
X274842Y-748650D01*
X274175Y-749316D01*
Y-749983D01*
X274509Y-750316D01*
X275175D01*
X275508Y-749983D01*
Y-749650D01*
X275175Y-749316D01*
X274175D01*
X261620Y-578866D02*
Y-576867D01*
X262620D01*
X262953Y-577200D01*
Y-577866D01*
X262620Y-578200D01*
X261620D01*
X262286D02*
X262953Y-578866D01*
X263619D02*
X264286D01*
X263953D01*
Y-576867D01*
X263619Y-577200D01*
X266618Y-576867D02*
X265285D01*
Y-577866D01*
X265952Y-577533D01*
X266285D01*
X266618Y-577866D01*
Y-578533D01*
X266285Y-578866D01*
X265619D01*
X265285Y-578533D01*
X261620Y-557276D02*
Y-555277D01*
X262620D01*
X262953Y-555610D01*
Y-556276D01*
X262620Y-556610D01*
X261620D01*
X262286D02*
X262953Y-557276D01*
X263619D02*
X264286D01*
X263953D01*
Y-555277D01*
X263619Y-555610D01*
X266285Y-557276D02*
Y-555277D01*
X265285Y-556276D01*
X266618D01*
X270510Y-779526D02*
Y-777527D01*
X271510D01*
X271843Y-777860D01*
Y-778526D01*
X271510Y-778860D01*
X270510D01*
X271176D02*
X271843Y-779526D01*
X272509D02*
X273176D01*
X272843D01*
Y-777527D01*
X272509Y-777860D01*
X274175D02*
X274509Y-777527D01*
X275175D01*
X275508Y-777860D01*
Y-778193D01*
X275175Y-778526D01*
X274842D01*
X275175D01*
X275508Y-778860D01*
Y-779193D01*
X275175Y-779526D01*
X274509D01*
X274175Y-779193D01*
X76019Y-688646D02*
X75352D01*
X75686D01*
Y-690313D01*
X75352Y-690646D01*
X75019D01*
X74686Y-690313D01*
X76685Y-690646D02*
Y-688646D01*
X77685D01*
X78018Y-688980D01*
Y-689646D01*
X77685Y-689979D01*
X76685D01*
X80017Y-688646D02*
X78685D01*
Y-689646D01*
X79351Y-689313D01*
X79684D01*
X80017Y-689646D01*
Y-690313D01*
X79684Y-690646D01*
X79018D01*
X78685Y-690313D01*
X226710Y-559117D02*
X227043Y-558784D01*
Y-558117D01*
X226710Y-557784D01*
X225377D01*
X225044Y-558117D01*
Y-558784D01*
X225377Y-559117D01*
X225044Y-561116D02*
Y-559783D01*
X226377Y-561116D01*
X226710D01*
X227043Y-560783D01*
Y-560117D01*
X226710Y-559783D01*
X225044Y-561783D02*
Y-562449D01*
Y-562116D01*
X227043D01*
X226710Y-561783D01*
X243903Y-786750D02*
X243570Y-786417D01*
X242903D01*
X242570Y-786750D01*
Y-788083D01*
X242903Y-788416D01*
X243570D01*
X243903Y-788083D01*
X245902Y-788416D02*
X244569D01*
X245902Y-787083D01*
Y-786750D01*
X245569Y-786417D01*
X244903D01*
X244569Y-786750D01*
X246569D02*
X246902Y-786417D01*
X247568D01*
X247902Y-786750D01*
Y-788083D01*
X247568Y-788416D01*
X246902D01*
X246569Y-788083D01*
Y-786750D01*
X625665Y-687182D02*
X625332Y-686849D01*
X624665D01*
X624332Y-687182D01*
Y-688515D01*
X624665Y-688848D01*
X625332D01*
X625665Y-688515D01*
X626331Y-688848D02*
X626998D01*
X626665D01*
Y-686849D01*
X626331Y-687182D01*
X627998D02*
X628331Y-686849D01*
X628997D01*
X629330Y-687182D01*
Y-687515D01*
X628997Y-687848D01*
X628664D01*
X628997D01*
X629330Y-688182D01*
Y-688515D01*
X628997Y-688848D01*
X628331D01*
X627998Y-688515D01*
X224853Y-930943D02*
X224186D01*
X224520D01*
Y-932609D01*
X224186Y-932942D01*
X223853D01*
X223520Y-932609D01*
X226852Y-932942D02*
X225519D01*
X226852Y-931609D01*
Y-931276D01*
X226519Y-930943D01*
X225853D01*
X225519Y-931276D01*
X359981Y-930943D02*
X359314D01*
X359648D01*
Y-932609D01*
X359314Y-932942D01*
X358981D01*
X358648Y-932609D01*
X360647Y-932942D02*
X361314D01*
X360981D01*
Y-930943D01*
X360647Y-931276D01*
X477520Y-949231D02*
Y-950897D01*
X477853Y-951230D01*
X478520D01*
X478853Y-950897D01*
Y-949231D01*
X479519Y-949564D02*
X479853Y-949231D01*
X480519D01*
X480852Y-949564D01*
Y-949897D01*
X480519Y-950230D01*
X480186D01*
X480519D01*
X480852Y-950564D01*
Y-950897D01*
X480519Y-951230D01*
X479853D01*
X479519Y-950897D01*
X482852Y-949231D02*
X481519D01*
Y-950230D01*
X482185Y-949897D01*
X482518D01*
X482852Y-950230D01*
Y-950897D01*
X482518Y-951230D01*
X481852D01*
X481519Y-950897D01*
X481393Y-911210D02*
X481060Y-910877D01*
X480393D01*
X480060Y-911210D01*
Y-912543D01*
X480393Y-912876D01*
X481060D01*
X481393Y-912543D01*
X482059Y-912876D02*
X482726D01*
X482393D01*
Y-910877D01*
X482059Y-911210D01*
X485058Y-912876D02*
X483726D01*
X485058Y-911543D01*
Y-911210D01*
X484725Y-910877D01*
X484059D01*
X483726Y-911210D01*
X758507Y-726960D02*
X758174Y-726627D01*
X757507D01*
X757174Y-726960D01*
Y-728293D01*
X757507Y-728626D01*
X758174D01*
X758507Y-728293D01*
X759173Y-728626D02*
X759840D01*
X759507D01*
Y-726627D01*
X759173Y-726960D01*
X760839Y-728626D02*
X761506D01*
X761173D01*
Y-726627D01*
X760839Y-726960D01*
X669353Y-683880D02*
X669020Y-683547D01*
X668353D01*
X668020Y-683880D01*
Y-685213D01*
X668353Y-685546D01*
X669020D01*
X669353Y-685213D01*
X670019Y-685546D02*
X670686D01*
X670353D01*
Y-683547D01*
X670019Y-683880D01*
X671685D02*
X672019Y-683547D01*
X672685D01*
X673018Y-683880D01*
Y-685213D01*
X672685Y-685546D01*
X672019D01*
X671685Y-685213D01*
Y-683880D01*
X273367Y-310167D02*
X272700D01*
X273034D01*
Y-311833D01*
X272700Y-312166D01*
X272367D01*
X272034Y-311833D01*
X274033Y-312166D02*
Y-310167D01*
X275033D01*
X275366Y-310500D01*
Y-311166D01*
X275033Y-311500D01*
X274033D01*
X276033Y-312166D02*
X276699D01*
X276366D01*
Y-310167D01*
X276033Y-310500D01*
X1237043Y-315247D02*
X1236376D01*
X1236710D01*
Y-316913D01*
X1236376Y-317246D01*
X1236043D01*
X1235710Y-316913D01*
X1237709Y-317246D02*
Y-315247D01*
X1238709D01*
X1239042Y-315580D01*
Y-316246D01*
X1238709Y-316580D01*
X1237709D01*
X1239709Y-315580D02*
X1240042Y-315247D01*
X1240708D01*
X1241042Y-315580D01*
Y-315913D01*
X1240708Y-316246D01*
X1240375D01*
X1240708D01*
X1241042Y-316580D01*
Y-316913D01*
X1240708Y-317246D01*
X1240042D01*
X1239709Y-316913D01*
X436880Y-650527D02*
Y-652193D01*
X437213Y-652526D01*
X437880D01*
X438213Y-652193D01*
Y-650527D01*
X438879Y-652526D02*
X439546D01*
X439213D01*
Y-650527D01*
X438879Y-650860D01*
X77470Y-453677D02*
Y-455343D01*
X77803Y-455676D01*
X78470D01*
X78803Y-455343D01*
Y-453677D01*
X80802Y-455676D02*
X79469D01*
X80802Y-454343D01*
Y-454010D01*
X80469Y-453677D01*
X79803D01*
X79469Y-454010D01*
X82042Y-186977D02*
Y-188643D01*
X82375Y-188976D01*
X83042D01*
X83375Y-188643D01*
Y-186977D01*
X84041Y-187310D02*
X84375Y-186977D01*
X85041D01*
X85374Y-187310D01*
Y-187643D01*
X85041Y-187976D01*
X84708D01*
X85041D01*
X85374Y-188310D01*
Y-188643D01*
X85041Y-188976D01*
X84375D01*
X84041Y-188643D01*
X173736Y-453677D02*
Y-455343D01*
X174069Y-455676D01*
X174736D01*
X175069Y-455343D01*
Y-453677D01*
X176735Y-455676D02*
Y-453677D01*
X175735Y-454676D01*
X177068D01*
X178308Y-186977D02*
Y-188643D01*
X178641Y-188976D01*
X179308D01*
X179641Y-188643D01*
Y-186977D01*
X181640D02*
X180307D01*
Y-187976D01*
X180974Y-187643D01*
X181307D01*
X181640Y-187976D01*
Y-188643D01*
X181307Y-188976D01*
X180641D01*
X180307Y-188643D01*
X269748Y-453677D02*
Y-455343D01*
X270081Y-455676D01*
X270748D01*
X271081Y-455343D01*
Y-453677D01*
X273080D02*
X272414Y-454010D01*
X271747Y-454676D01*
Y-455343D01*
X272081Y-455676D01*
X272747D01*
X273080Y-455343D01*
Y-455010D01*
X272747Y-454676D01*
X271747D01*
X274574Y-186977D02*
Y-188643D01*
X274907Y-188976D01*
X275574D01*
X275907Y-188643D01*
Y-186977D01*
X276573D02*
X277906D01*
Y-187310D01*
X276573Y-188643D01*
Y-188976D01*
X366014Y-453677D02*
Y-455343D01*
X366347Y-455676D01*
X367014D01*
X367347Y-455343D01*
Y-453677D01*
X368013Y-454010D02*
X368347Y-453677D01*
X369013D01*
X369346Y-454010D01*
Y-454343D01*
X369013Y-454676D01*
X369346Y-455010D01*
Y-455343D01*
X369013Y-455676D01*
X368347D01*
X368013Y-455343D01*
Y-455010D01*
X368347Y-454676D01*
X368013Y-454343D01*
Y-454010D01*
X368347Y-454676D02*
X369013D01*
X371094Y-186977D02*
Y-188643D01*
X371427Y-188976D01*
X372094D01*
X372427Y-188643D01*
Y-186977D01*
X373093Y-188643D02*
X373427Y-188976D01*
X374093D01*
X374426Y-188643D01*
Y-187310D01*
X374093Y-186977D01*
X373427D01*
X373093Y-187310D01*
Y-187643D01*
X373427Y-187976D01*
X374426D01*
X461264Y-447327D02*
Y-448993D01*
X461597Y-449326D01*
X462264D01*
X462597Y-448993D01*
Y-447327D01*
X463263Y-449326D02*
X463930D01*
X463597D01*
Y-447327D01*
X463263Y-447660D01*
X464930D02*
X465263Y-447327D01*
X465929D01*
X466262Y-447660D01*
Y-448993D01*
X465929Y-449326D01*
X465263D01*
X464930Y-448993D01*
Y-447660D01*
X466852Y-186977D02*
Y-188643D01*
X467185Y-188976D01*
X467852D01*
X468185Y-188643D01*
Y-186977D01*
X468851Y-188976D02*
X469518D01*
X469185D01*
Y-186977D01*
X468851Y-187310D01*
X470518Y-188976D02*
X471184D01*
X470851D01*
Y-186977D01*
X470518Y-187310D01*
X557530Y-453677D02*
Y-455343D01*
X557863Y-455676D01*
X558530D01*
X558863Y-455343D01*
Y-453677D01*
X559529Y-455676D02*
X560196D01*
X559863D01*
Y-453677D01*
X559529Y-454010D01*
X562528Y-455676D02*
X561195D01*
X562528Y-454343D01*
Y-454010D01*
X562195Y-453677D01*
X561529D01*
X561195Y-454010D01*
X562864Y-186977D02*
Y-188643D01*
X563197Y-188976D01*
X563864D01*
X564197Y-188643D01*
Y-186977D01*
X564863Y-188976D02*
X565530D01*
X565197D01*
Y-186977D01*
X564863Y-187310D01*
X566530D02*
X566863Y-186977D01*
X567529D01*
X567862Y-187310D01*
Y-187643D01*
X567529Y-187976D01*
X567196D01*
X567529D01*
X567862Y-188310D01*
Y-188643D01*
X567529Y-188976D01*
X566863D01*
X566530Y-188643D01*
X653542Y-453677D02*
Y-455343D01*
X653875Y-455676D01*
X654542D01*
X654875Y-455343D01*
Y-453677D01*
X655541Y-455676D02*
X656208D01*
X655875D01*
Y-453677D01*
X655541Y-454010D01*
X658207Y-455676D02*
Y-453677D01*
X657207Y-454676D01*
X658540D01*
X659130Y-186977D02*
Y-188643D01*
X659463Y-188976D01*
X660130D01*
X660463Y-188643D01*
Y-186977D01*
X661129Y-188976D02*
X661796D01*
X661463D01*
Y-186977D01*
X661129Y-187310D01*
X664128Y-186977D02*
X662795D01*
Y-187976D01*
X663462Y-187643D01*
X663795D01*
X664128Y-187976D01*
Y-188643D01*
X663795Y-188976D01*
X663129D01*
X662795Y-188643D01*
X749554Y-453677D02*
Y-455343D01*
X749887Y-455676D01*
X750554D01*
X750887Y-455343D01*
Y-453677D01*
X751553Y-455676D02*
X752220D01*
X751887D01*
Y-453677D01*
X751553Y-454010D01*
X754552Y-453677D02*
X753886Y-454010D01*
X753220Y-454676D01*
Y-455343D01*
X753553Y-455676D01*
X754219D01*
X754552Y-455343D01*
Y-455010D01*
X754219Y-454676D01*
X753220D01*
X755650Y-186977D02*
Y-188643D01*
X755983Y-188976D01*
X756650D01*
X756983Y-188643D01*
Y-186977D01*
X757649Y-188976D02*
X758316D01*
X757983D01*
Y-186977D01*
X757649Y-187310D01*
X759315Y-186977D02*
X760648D01*
Y-187310D01*
X759315Y-188643D01*
Y-188976D01*
X845820Y-453677D02*
Y-455343D01*
X846153Y-455676D01*
X846820D01*
X847153Y-455343D01*
Y-453677D01*
X847819Y-455676D02*
X848486D01*
X848153D01*
Y-453677D01*
X847819Y-454010D01*
X849485D02*
X849819Y-453677D01*
X850485D01*
X850818Y-454010D01*
Y-454343D01*
X850485Y-454676D01*
X850818Y-455010D01*
Y-455343D01*
X850485Y-455676D01*
X849819D01*
X849485Y-455343D01*
Y-455010D01*
X849819Y-454676D01*
X849485Y-454343D01*
Y-454010D01*
X849819Y-454676D02*
X850485D01*
X851916Y-186977D02*
Y-188643D01*
X852249Y-188976D01*
X852916D01*
X853249Y-188643D01*
Y-186977D01*
X853915Y-188976D02*
X854582D01*
X854249D01*
Y-186977D01*
X853915Y-187310D01*
X855582Y-188643D02*
X855915Y-188976D01*
X856581D01*
X856914Y-188643D01*
Y-187310D01*
X856581Y-186977D01*
X855915D01*
X855582Y-187310D01*
Y-187643D01*
X855915Y-187976D01*
X856914D01*
X941832Y-453677D02*
Y-455343D01*
X942165Y-455676D01*
X942832D01*
X943165Y-455343D01*
Y-453677D01*
X945164Y-455676D02*
X943831D01*
X945164Y-454343D01*
Y-454010D01*
X944831Y-453677D01*
X944165D01*
X943831Y-454010D01*
X945831D02*
X946164Y-453677D01*
X946830D01*
X947164Y-454010D01*
Y-455343D01*
X946830Y-455676D01*
X946164D01*
X945831Y-455343D01*
Y-454010D01*
X948436Y-186977D02*
Y-188643D01*
X948769Y-188976D01*
X949436D01*
X949769Y-188643D01*
Y-186977D01*
X951768Y-188976D02*
X950435D01*
X951768Y-187643D01*
Y-187310D01*
X951435Y-186977D01*
X950769D01*
X950435Y-187310D01*
X952435Y-188976D02*
X953101D01*
X952768D01*
Y-186977D01*
X952435Y-187310D01*
X1037844Y-453677D02*
Y-455343D01*
X1038177Y-455676D01*
X1038844D01*
X1039177Y-455343D01*
Y-453677D01*
X1041176Y-455676D02*
X1039843D01*
X1041176Y-454343D01*
Y-454010D01*
X1040843Y-453677D01*
X1040177D01*
X1039843Y-454010D01*
X1043176Y-455676D02*
X1041843D01*
X1043176Y-454343D01*
Y-454010D01*
X1042842Y-453677D01*
X1042176D01*
X1041843Y-454010D01*
X1044448Y-186977D02*
Y-188643D01*
X1044781Y-188976D01*
X1045448D01*
X1045781Y-188643D01*
Y-186977D01*
X1047780Y-188976D02*
X1046447D01*
X1047780Y-187643D01*
Y-187310D01*
X1047447Y-186977D01*
X1046781D01*
X1046447Y-187310D01*
X1048447D02*
X1048780Y-186977D01*
X1049446D01*
X1049780Y-187310D01*
Y-187643D01*
X1049446Y-187976D01*
X1049113D01*
X1049446D01*
X1049780Y-188310D01*
Y-188643D01*
X1049446Y-188976D01*
X1048780D01*
X1048447Y-188643D01*
X1134110Y-453677D02*
Y-455343D01*
X1134443Y-455676D01*
X1135110D01*
X1135443Y-455343D01*
Y-453677D01*
X1137442Y-455676D02*
X1136109D01*
X1137442Y-454343D01*
Y-454010D01*
X1137109Y-453677D01*
X1136443D01*
X1136109Y-454010D01*
X1139108Y-455676D02*
Y-453677D01*
X1138109Y-454676D01*
X1139442D01*
X1140714Y-186977D02*
Y-188643D01*
X1141047Y-188976D01*
X1141714D01*
X1142047Y-188643D01*
Y-186977D01*
X1144046Y-188976D02*
X1142713D01*
X1144046Y-187643D01*
Y-187310D01*
X1143713Y-186977D01*
X1143047D01*
X1142713Y-187310D01*
X1146046Y-186977D02*
X1144713D01*
Y-187976D01*
X1145379Y-187643D01*
X1145712D01*
X1146046Y-187976D01*
Y-188643D01*
X1145712Y-188976D01*
X1145046D01*
X1144713Y-188643D01*
X1230122Y-453677D02*
Y-455343D01*
X1230455Y-455676D01*
X1231122D01*
X1231455Y-455343D01*
Y-453677D01*
X1233454Y-455676D02*
X1232121D01*
X1233454Y-454343D01*
Y-454010D01*
X1233121Y-453677D01*
X1232455D01*
X1232121Y-454010D01*
X1235454Y-453677D02*
X1234787Y-454010D01*
X1234121Y-454676D01*
Y-455343D01*
X1234454Y-455676D01*
X1235120D01*
X1235454Y-455343D01*
Y-455010D01*
X1235120Y-454676D01*
X1234121D01*
X1236980Y-186977D02*
Y-188643D01*
X1237313Y-188976D01*
X1237980D01*
X1238313Y-188643D01*
Y-186977D01*
X1240312Y-188976D02*
X1238979D01*
X1240312Y-187643D01*
Y-187310D01*
X1239979Y-186977D01*
X1239313D01*
X1238979Y-187310D01*
X1240979Y-186977D02*
X1242312D01*
Y-187310D01*
X1240979Y-188643D01*
Y-188976D01*
X1326388Y-453677D02*
Y-455343D01*
X1326721Y-455676D01*
X1327388D01*
X1327721Y-455343D01*
Y-453677D01*
X1329720Y-455676D02*
X1328387D01*
X1329720Y-454343D01*
Y-454010D01*
X1329387Y-453677D01*
X1328721D01*
X1328387Y-454010D01*
X1330387D02*
X1330720Y-453677D01*
X1331386D01*
X1331720Y-454010D01*
Y-454343D01*
X1331386Y-454676D01*
X1331720Y-455010D01*
Y-455343D01*
X1331386Y-455676D01*
X1330720D01*
X1330387Y-455343D01*
Y-455010D01*
X1330720Y-454676D01*
X1330387Y-454343D01*
Y-454010D01*
X1330720Y-454676D02*
X1331386D01*
X1333500Y-186977D02*
Y-188643D01*
X1333833Y-188976D01*
X1334500D01*
X1334833Y-188643D01*
Y-186977D01*
X1336832Y-188976D02*
X1335499D01*
X1336832Y-187643D01*
Y-187310D01*
X1336499Y-186977D01*
X1335833D01*
X1335499Y-187310D01*
X1337499Y-188643D02*
X1337832Y-188976D01*
X1338498D01*
X1338832Y-188643D01*
Y-187310D01*
X1338498Y-186977D01*
X1337832D01*
X1337499Y-187310D01*
Y-187643D01*
X1337832Y-187976D01*
X1338832D01*
X1422400Y-453677D02*
Y-455343D01*
X1422733Y-455676D01*
X1423400D01*
X1423733Y-455343D01*
Y-453677D01*
X1424399Y-454010D02*
X1424733Y-453677D01*
X1425399D01*
X1425732Y-454010D01*
Y-454343D01*
X1425399Y-454676D01*
X1425066D01*
X1425399D01*
X1425732Y-455010D01*
Y-455343D01*
X1425399Y-455676D01*
X1424733D01*
X1424399Y-455343D01*
X1426399Y-454010D02*
X1426732Y-453677D01*
X1427398D01*
X1427732Y-454010D01*
Y-455343D01*
X1427398Y-455676D01*
X1426732D01*
X1426399Y-455343D01*
Y-454010D01*
X1430020Y-186977D02*
Y-188643D01*
X1430353Y-188976D01*
X1431020D01*
X1431353Y-188643D01*
Y-186977D01*
X1432019Y-187310D02*
X1432353Y-186977D01*
X1433019D01*
X1433352Y-187310D01*
Y-187643D01*
X1433019Y-187976D01*
X1432686D01*
X1433019D01*
X1433352Y-188310D01*
Y-188643D01*
X1433019Y-188976D01*
X1432353D01*
X1432019Y-188643D01*
X1434019Y-188976D02*
X1434685D01*
X1434352D01*
Y-186977D01*
X1434019Y-187310D01*
X896683Y-808340D02*
X896350Y-808007D01*
X895683D01*
X895350Y-808340D01*
Y-809673D01*
X895683Y-810006D01*
X896350D01*
X896683Y-809673D01*
X897349Y-810006D02*
X898016D01*
X897683D01*
Y-808007D01*
X897349Y-808340D01*
X957135Y-819770D02*
X956802Y-819437D01*
X956135D01*
X955802Y-819770D01*
Y-821103D01*
X956135Y-821436D01*
X956802D01*
X957135Y-821103D01*
X959134Y-821436D02*
X957801D01*
X959134Y-820103D01*
Y-819770D01*
X958801Y-819437D01*
X958135D01*
X957801Y-819770D01*
X861885Y-803260D02*
X861552Y-802927D01*
X860885D01*
X860552Y-803260D01*
Y-804593D01*
X860885Y-804926D01*
X861552D01*
X861885Y-804593D01*
X862551Y-803260D02*
X862885Y-802927D01*
X863551D01*
X863884Y-803260D01*
Y-803593D01*
X863551Y-803926D01*
X863218D01*
X863551D01*
X863884Y-804260D01*
Y-804593D01*
X863551Y-804926D01*
X862885D01*
X862551Y-804593D01*
X1053655Y-885302D02*
X1053322Y-884969D01*
X1052655D01*
X1052322Y-885302D01*
Y-886635D01*
X1052655Y-886968D01*
X1053322D01*
X1053655Y-886635D01*
X1055321Y-886968D02*
Y-884969D01*
X1054321Y-885968D01*
X1055654D01*
X1140015Y-775320D02*
X1139682Y-774987D01*
X1139015D01*
X1138682Y-775320D01*
Y-776653D01*
X1139015Y-776986D01*
X1139682D01*
X1140015Y-776653D01*
X1142014Y-774987D02*
X1140681D01*
Y-775986D01*
X1141348Y-775653D01*
X1141681D01*
X1142014Y-775986D01*
Y-776653D01*
X1141681Y-776986D01*
X1141015D01*
X1140681Y-776653D01*
X1156525Y-715630D02*
X1156192Y-715297D01*
X1155525D01*
X1155192Y-715630D01*
Y-716963D01*
X1155525Y-717296D01*
X1156192D01*
X1156525Y-716963D01*
X1158524Y-715297D02*
X1157858Y-715630D01*
X1157191Y-716296D01*
Y-716963D01*
X1157525Y-717296D01*
X1158191D01*
X1158524Y-716963D01*
Y-716630D01*
X1158191Y-716296D01*
X1157191D01*
X1217105Y-793130D02*
X1217438Y-793463D01*
X1218105D01*
X1218438Y-793130D01*
Y-791797D01*
X1218105Y-791464D01*
X1217438D01*
X1217105Y-791797D01*
X1216439Y-793463D02*
X1215106D01*
Y-793130D01*
X1216439Y-791797D01*
Y-791464D01*
X1214945Y-615300D02*
X1214612Y-614967D01*
X1213945D01*
X1213612Y-615300D01*
Y-616633D01*
X1213945Y-616966D01*
X1214612D01*
X1214945Y-616633D01*
X1215611Y-615300D02*
X1215945Y-614967D01*
X1216611D01*
X1216944Y-615300D01*
Y-615633D01*
X1216611Y-615966D01*
X1216944Y-616300D01*
Y-616633D01*
X1216611Y-616966D01*
X1215945D01*
X1215611Y-616633D01*
Y-616300D01*
X1215945Y-615966D01*
X1215611Y-615633D01*
Y-615300D01*
X1215945Y-615966D02*
X1216611D01*
X1018540Y-809498D02*
Y-807499D01*
X1019540D01*
X1019873Y-807832D01*
Y-808498D01*
X1019540Y-808832D01*
X1018540D01*
X1019206D02*
X1019873Y-809498D01*
X1020539D02*
X1021206D01*
X1020873D01*
Y-807499D01*
X1020539Y-807832D01*
X1018032Y-767588D02*
Y-765589D01*
X1019032D01*
X1019365Y-765922D01*
Y-766588D01*
X1019032Y-766922D01*
X1018032D01*
X1018698D02*
X1019365Y-767588D01*
X1021364D02*
X1020031D01*
X1021364Y-766255D01*
Y-765922D01*
X1021031Y-765589D01*
X1020365D01*
X1020031Y-765922D01*
X922782Y-810768D02*
Y-808769D01*
X923782D01*
X924115Y-809102D01*
Y-809768D01*
X923782Y-810102D01*
X922782D01*
X923448D02*
X924115Y-810768D01*
X924781Y-809102D02*
X925115Y-808769D01*
X925781D01*
X926114Y-809102D01*
Y-809435D01*
X925781Y-809768D01*
X925448D01*
X925781D01*
X926114Y-810102D01*
Y-810435D01*
X925781Y-810768D01*
X925115D01*
X924781Y-810435D01*
X1002792Y-833628D02*
Y-831629D01*
X1003792D01*
X1004125Y-831962D01*
Y-832628D01*
X1003792Y-832962D01*
X1002792D01*
X1003458D02*
X1004125Y-833628D01*
X1005791D02*
Y-831629D01*
X1004791Y-832628D01*
X1006124D01*
X922782Y-771398D02*
Y-769399D01*
X923782D01*
X924115Y-769732D01*
Y-770398D01*
X923782Y-770732D01*
X922782D01*
X923448D02*
X924115Y-771398D01*
X926114Y-769399D02*
X924781D01*
Y-770398D01*
X925448Y-770065D01*
X925781D01*
X926114Y-770398D01*
Y-771065D01*
X925781Y-771398D01*
X925115D01*
X924781Y-771065D01*
X1139952Y-752856D02*
Y-750857D01*
X1140952D01*
X1141285Y-751190D01*
Y-751856D01*
X1140952Y-752190D01*
X1139952D01*
X1140618D02*
X1141285Y-752856D01*
X1143284Y-750857D02*
X1142618Y-751190D01*
X1141951Y-751856D01*
Y-752523D01*
X1142285Y-752856D01*
X1142951D01*
X1143284Y-752523D01*
Y-752190D01*
X1142951Y-751856D01*
X1141951D01*
X1164082Y-670306D02*
Y-668307D01*
X1165082D01*
X1165415Y-668640D01*
Y-669306D01*
X1165082Y-669640D01*
X1164082D01*
X1164748D02*
X1165415Y-670306D01*
X1166081Y-668307D02*
X1167414D01*
Y-668640D01*
X1166081Y-669973D01*
Y-670306D01*
X1099312Y-752856D02*
Y-750857D01*
X1100312D01*
X1100645Y-751190D01*
Y-751856D01*
X1100312Y-752190D01*
X1099312D01*
X1099978D02*
X1100645Y-752856D01*
X1101311Y-751190D02*
X1101645Y-750857D01*
X1102311D01*
X1102644Y-751190D01*
Y-751523D01*
X1102311Y-751856D01*
X1102644Y-752190D01*
Y-752523D01*
X1102311Y-752856D01*
X1101645D01*
X1101311Y-752523D01*
Y-752190D01*
X1101645Y-751856D01*
X1101311Y-751523D01*
Y-751190D01*
X1101645Y-751856D02*
X1102311D01*
X967740Y-922815D02*
Y-924481D01*
X968073Y-924814D01*
X968740D01*
X969073Y-924481D01*
Y-922815D01*
X969739Y-923148D02*
X970073Y-922815D01*
X970739D01*
X971072Y-923148D01*
Y-923481D01*
X970739Y-923814D01*
X970406D01*
X970739D01*
X971072Y-924148D01*
Y-924481D01*
X970739Y-924814D01*
X970073D01*
X969739Y-924481D01*
X973072Y-924814D02*
X971739D01*
X973072Y-923481D01*
Y-923148D01*
X972738Y-922815D01*
X972072D01*
X971739Y-923148D01*
X1251966Y-702597D02*
Y-704263D01*
X1252299Y-704596D01*
X1252966D01*
X1253299Y-704263D01*
Y-702597D01*
X1253965Y-702930D02*
X1254299Y-702597D01*
X1254965D01*
X1255298Y-702930D01*
Y-703263D01*
X1254965Y-703596D01*
X1254632D01*
X1254965D01*
X1255298Y-703930D01*
Y-704263D01*
X1254965Y-704596D01*
X1254299D01*
X1253965Y-704263D01*
X1255965Y-702930D02*
X1256298Y-702597D01*
X1256964D01*
X1257298Y-702930D01*
Y-703263D01*
X1256964Y-703596D01*
X1256631D01*
X1256964D01*
X1257298Y-703930D01*
Y-704263D01*
X1256964Y-704596D01*
X1256298D01*
X1255965Y-704263D01*
X819975Y-805800D02*
X819642Y-805467D01*
X818975D01*
X818642Y-805800D01*
Y-807133D01*
X818975Y-807466D01*
X819642D01*
X819975Y-807133D01*
X820641D02*
X820975Y-807466D01*
X821641D01*
X821974Y-807133D01*
Y-805800D01*
X821641Y-805467D01*
X820975D01*
X820641Y-805800D01*
Y-806133D01*
X820975Y-806466D01*
X821974D01*
X701040Y-743491D02*
Y-745157D01*
X701373Y-745490D01*
X702040D01*
X702373Y-745157D01*
Y-743491D01*
X703039Y-743824D02*
X703373Y-743491D01*
X704039D01*
X704372Y-743824D01*
Y-744157D01*
X704039Y-744490D01*
X703706D01*
X704039D01*
X704372Y-744824D01*
Y-745157D01*
X704039Y-745490D01*
X703373D01*
X703039Y-745157D01*
X706038Y-745490D02*
Y-743491D01*
X705039Y-744490D01*
X706372D01*
X940625Y-600997D02*
X939958D01*
X940292D01*
Y-602663D01*
X939958Y-602996D01*
X939625D01*
X939292Y-602663D01*
X941291Y-602996D02*
Y-600997D01*
X942291D01*
X942624Y-601330D01*
Y-601996D01*
X942291Y-602330D01*
X941291D01*
X944290Y-602996D02*
Y-600997D01*
X943291Y-601996D01*
X944624D01*
X602551Y-758810D02*
X602218Y-758477D01*
X601551D01*
X601218Y-758810D01*
Y-760143D01*
X601551Y-760476D01*
X602218D01*
X602551Y-760143D01*
X604550Y-760476D02*
X603217D01*
X604550Y-759143D01*
Y-758810D01*
X604217Y-758477D01*
X603551D01*
X603217Y-758810D01*
X606216Y-760476D02*
Y-758477D01*
X605217Y-759476D01*
X606550D01*
X557593Y-802419D02*
X556926D01*
X557260D01*
Y-804085D01*
X556926Y-804418D01*
X556593D01*
X556260Y-804085D01*
X558259Y-804418D02*
Y-802419D01*
X559259D01*
X559592Y-802752D01*
Y-803418D01*
X559259Y-803752D01*
X558259D01*
X561592Y-802419D02*
X560925Y-802752D01*
X560259Y-803418D01*
Y-804085D01*
X560592Y-804418D01*
X561258D01*
X561592Y-804085D01*
Y-803752D01*
X561258Y-803418D01*
X560259D01*
X505206Y-857250D02*
X503207D01*
Y-856250D01*
X503540Y-855917D01*
X504206D01*
X504540Y-856250D01*
Y-857250D01*
Y-856584D02*
X505206Y-855917D01*
Y-855251D02*
Y-854584D01*
Y-854917D01*
X503207D01*
X503540Y-855251D01*
X504873Y-853585D02*
X505206Y-853251D01*
Y-852585D01*
X504873Y-852252D01*
X503540D01*
X503207Y-852585D01*
Y-853251D01*
X503540Y-853585D01*
X503873D01*
X504206Y-853251D01*
Y-852252D01*
X581010Y-902399D02*
X580677Y-902732D01*
Y-903399D01*
X581010Y-903732D01*
X581343D01*
X581676Y-903399D01*
Y-902732D01*
X582010Y-902399D01*
X582343D01*
X582676Y-902732D01*
Y-903399D01*
X582343Y-903732D01*
X582676Y-901733D02*
Y-901066D01*
Y-901399D01*
X580677D01*
X581010Y-901733D01*
X473773Y-787512D02*
X473440Y-787179D01*
X472773D01*
X472440Y-787512D01*
Y-788845D01*
X472773Y-789178D01*
X473440D01*
X473773Y-788845D01*
X475772Y-789178D02*
X474439D01*
X475772Y-787845D01*
Y-787512D01*
X475439Y-787179D01*
X474773D01*
X474439Y-787512D01*
X477772Y-787179D02*
X476439D01*
Y-788178D01*
X477105Y-787845D01*
X477438D01*
X477772Y-788178D01*
Y-788845D01*
X477438Y-789178D01*
X476772D01*
X476439Y-788845D01*
X447103Y-787512D02*
X446770Y-787179D01*
X446103D01*
X445770Y-787512D01*
Y-788845D01*
X446103Y-789178D01*
X446770D01*
X447103Y-788845D01*
X449102Y-789178D02*
X447769D01*
X449102Y-787845D01*
Y-787512D01*
X448769Y-787179D01*
X448103D01*
X447769Y-787512D01*
X451102Y-787179D02*
X450435Y-787512D01*
X449769Y-788178D01*
Y-788845D01*
X450102Y-789178D01*
X450768D01*
X451102Y-788845D01*
Y-788512D01*
X450768Y-788178D01*
X449769D01*
X466090Y-767588D02*
Y-765589D01*
X467090D01*
X467423Y-765922D01*
Y-766588D01*
X467090Y-766922D01*
X466090D01*
X466756D02*
X467423Y-767588D01*
X469422D02*
X468089D01*
X469422Y-766255D01*
Y-765922D01*
X469089Y-765589D01*
X468423D01*
X468089Y-765922D01*
X470089D02*
X470422Y-765589D01*
X471088D01*
X471422Y-765922D01*
Y-767255D01*
X471088Y-767588D01*
X470422D01*
X470089Y-767255D01*
Y-765922D01*
X460248Y-814357D02*
Y-814690D01*
X460914Y-815356D01*
X461581Y-814690D01*
Y-814357D01*
X460914Y-815356D02*
Y-816356D01*
X462247D02*
X462914D01*
X462581D01*
Y-814357D01*
X462247Y-814690D01*
X1000760Y-696247D02*
Y-697913D01*
X1001093Y-698246D01*
X1001760D01*
X1002093Y-697913D01*
Y-696247D01*
X1002759Y-696580D02*
X1003093Y-696247D01*
X1003759D01*
X1004092Y-696580D01*
Y-696913D01*
X1003759Y-697246D01*
X1003426D01*
X1003759D01*
X1004092Y-697580D01*
Y-697913D01*
X1003759Y-698246D01*
X1003093D01*
X1002759Y-697913D01*
X1006092Y-696247D02*
X1005425Y-696580D01*
X1004759Y-697246D01*
Y-697913D01*
X1005092Y-698246D01*
X1005758D01*
X1006092Y-697913D01*
Y-697580D01*
X1005758Y-697246D01*
X1004759D01*
X916940Y-696247D02*
Y-697913D01*
X917273Y-698246D01*
X917940D01*
X918273Y-697913D01*
Y-696247D01*
X918939Y-696580D02*
X919273Y-696247D01*
X919939D01*
X920272Y-696580D01*
Y-696913D01*
X919939Y-697246D01*
X919606D01*
X919939D01*
X920272Y-697580D01*
Y-697913D01*
X919939Y-698246D01*
X919273D01*
X918939Y-697913D01*
X920939Y-696247D02*
X922272D01*
Y-696580D01*
X920939Y-697913D01*
Y-698246D01*
X35623Y-868030D02*
X35290Y-867697D01*
X34623D01*
X34290Y-868030D01*
Y-869363D01*
X34623Y-869696D01*
X35290D01*
X35623Y-869363D01*
X37622Y-869696D02*
X36289D01*
X37622Y-868363D01*
Y-868030D01*
X37289Y-867697D01*
X36623D01*
X36289Y-868030D01*
X38289Y-867697D02*
X39622D01*
Y-868030D01*
X38289Y-869363D01*
Y-869696D01*
X42164Y-821436D02*
Y-819437D01*
X43164D01*
X43497Y-819770D01*
Y-820436D01*
X43164Y-820770D01*
X42164D01*
X42830D02*
X43497Y-821436D01*
X45496D02*
X44163D01*
X45496Y-820103D01*
Y-819770D01*
X45163Y-819437D01*
X44497D01*
X44163Y-819770D01*
X46163Y-821436D02*
X46829D01*
X46496D01*
Y-819437D01*
X46163Y-819770D01*
X20320Y-821436D02*
Y-819437D01*
X21320D01*
X21653Y-819770D01*
Y-820436D01*
X21320Y-820770D01*
X20320D01*
X20986D02*
X21653Y-821436D01*
X23652D02*
X22319D01*
X23652Y-820103D01*
Y-819770D01*
X23319Y-819437D01*
X22653D01*
X22319Y-819770D01*
X25652Y-821436D02*
X24319D01*
X25652Y-820103D01*
Y-819770D01*
X25318Y-819437D01*
X24652D01*
X24319Y-819770D01*
X82550Y-818896D02*
Y-816897D01*
X83550D01*
X83883Y-817230D01*
Y-817896D01*
X83550Y-818230D01*
X82550D01*
X83216D02*
X83883Y-818896D01*
X85882D02*
X84549D01*
X85882Y-817563D01*
Y-817230D01*
X85549Y-816897D01*
X84883D01*
X84549Y-817230D01*
X86549D02*
X86882Y-816897D01*
X87548D01*
X87882Y-817230D01*
Y-817563D01*
X87548Y-817896D01*
X87215D01*
X87548D01*
X87882Y-818230D01*
Y-818563D01*
X87548Y-818896D01*
X86882D01*
X86549Y-818563D01*
X82550Y-837946D02*
Y-835947D01*
X83550D01*
X83883Y-836280D01*
Y-836946D01*
X83550Y-837280D01*
X82550D01*
X83216D02*
X83883Y-837946D01*
X85882D02*
X84549D01*
X85882Y-836613D01*
Y-836280D01*
X85549Y-835947D01*
X84883D01*
X84549Y-836280D01*
X87548Y-837946D02*
Y-835947D01*
X86549Y-836946D01*
X87882D01*
X131127Y-914687D02*
X130460D01*
X130794D01*
Y-916353D01*
X130460Y-916686D01*
X130127D01*
X129794Y-916353D01*
X131793Y-916686D02*
Y-914687D01*
X132793D01*
X133126Y-915020D01*
Y-915686D01*
X132793Y-916020D01*
X131793D01*
X133793Y-914687D02*
X135126D01*
Y-915020D01*
X133793Y-916353D01*
Y-916686D01*
X754443Y-319057D02*
X753776D01*
X754110D01*
Y-320723D01*
X753776Y-321056D01*
X753443D01*
X753110Y-320723D01*
X755109Y-321056D02*
Y-319057D01*
X756109D01*
X756442Y-319390D01*
Y-320056D01*
X756109Y-320390D01*
X755109D01*
X758442Y-321056D02*
X757109D01*
X758442Y-319723D01*
Y-319390D01*
X758108Y-319057D01*
X757442D01*
X757109Y-319390D01*
X323850Y-755396D02*
Y-753397D01*
X324850D01*
X325183Y-753730D01*
Y-754396D01*
X324850Y-754730D01*
X323850D01*
X324516D02*
X325183Y-755396D01*
X327182D02*
X325849D01*
X327182Y-754063D01*
Y-753730D01*
X326849Y-753397D01*
X326183D01*
X325849Y-753730D01*
X329182Y-753397D02*
X327849D01*
Y-754396D01*
X328515Y-754063D01*
X328848D01*
X329182Y-754396D01*
Y-755063D01*
X328848Y-755396D01*
X328182D01*
X327849Y-755063D01*
X703897Y-943389D02*
X703230D01*
X703564D01*
Y-945055D01*
X703230Y-945388D01*
X702897D01*
X702564Y-945055D01*
X704563Y-943389D02*
X705896D01*
Y-943722D01*
X704563Y-945055D01*
Y-945388D01*
X680720Y-869475D02*
Y-871474D01*
X682053D01*
X682719D02*
X683386D01*
X683053D01*
Y-869475D01*
X682719Y-869808D01*
X697992Y-869475D02*
Y-871474D01*
X699325D01*
X701324D02*
X699991D01*
X701324Y-870141D01*
Y-869808D01*
X700991Y-869475D01*
X700325D01*
X699991Y-869808D01*
X717042Y-869475D02*
Y-871474D01*
X718375D01*
X719041Y-869808D02*
X719375Y-869475D01*
X720041D01*
X720374Y-869808D01*
Y-870141D01*
X720041Y-870474D01*
X719708D01*
X720041D01*
X720374Y-870808D01*
Y-871141D01*
X720041Y-871474D01*
X719375D01*
X719041Y-871141D01*
X835660Y-611886D02*
Y-609887D01*
X836660D01*
X836993Y-610220D01*
Y-610886D01*
X836660Y-611220D01*
X835660D01*
X836326D02*
X836993Y-611886D01*
X837659Y-610220D02*
X837993Y-609887D01*
X838659D01*
X838992Y-610220D01*
Y-610553D01*
X838659Y-610886D01*
X838326D01*
X838659D01*
X838992Y-611220D01*
Y-611553D01*
X838659Y-611886D01*
X837993D01*
X837659Y-611553D01*
X840992Y-609887D02*
X839659D01*
Y-610886D01*
X840325Y-610553D01*
X840658D01*
X840992Y-610886D01*
Y-611553D01*
X840658Y-611886D01*
X839992D01*
X839659Y-611553D01*
X636270Y-641096D02*
Y-639097D01*
X637270D01*
X637603Y-639430D01*
Y-640096D01*
X637270Y-640430D01*
X636270D01*
X636936D02*
X637603Y-641096D01*
X638269Y-639430D02*
X638603Y-639097D01*
X639269D01*
X639602Y-639430D01*
Y-639763D01*
X639269Y-640096D01*
X638936D01*
X639269D01*
X639602Y-640430D01*
Y-640763D01*
X639269Y-641096D01*
X638603D01*
X638269Y-640763D01*
X641602Y-639097D02*
X640935Y-639430D01*
X640269Y-640096D01*
Y-640763D01*
X640602Y-641096D01*
X641268D01*
X641602Y-640763D01*
Y-640430D01*
X641268Y-640096D01*
X640269D01*
X119126Y-561627D02*
Y-563293D01*
X119459Y-563626D01*
X120126D01*
X120459Y-563293D01*
Y-561627D01*
X122125Y-563626D02*
Y-561627D01*
X121125Y-562626D01*
X122458D01*
X124458Y-563626D02*
X123125D01*
X124458Y-562293D01*
Y-561960D01*
X124124Y-561627D01*
X123458D01*
X123125Y-561960D01*
X499364Y-884461D02*
Y-886127D01*
X499697Y-886460D01*
X500364D01*
X500697Y-886127D01*
Y-884461D01*
X502363Y-886460D02*
Y-884461D01*
X501363Y-885460D01*
X502696D01*
X503363Y-884794D02*
X503696Y-884461D01*
X504362D01*
X504696Y-884794D01*
Y-885127D01*
X504362Y-885460D01*
X504029D01*
X504362D01*
X504696Y-885794D01*
Y-886127D01*
X504362Y-886460D01*
X503696D01*
X503363Y-886127D01*
X521970Y-757936D02*
Y-755937D01*
X522970D01*
X523303Y-756270D01*
Y-756936D01*
X522970Y-757270D01*
X521970D01*
X522636D02*
X523303Y-757936D01*
X523969Y-756270D02*
X524303Y-755937D01*
X524969D01*
X525302Y-756270D01*
Y-756603D01*
X524969Y-756936D01*
X524636D01*
X524969D01*
X525302Y-757270D01*
Y-757603D01*
X524969Y-757936D01*
X524303D01*
X523969Y-757603D01*
X525969Y-755937D02*
X527302D01*
Y-756270D01*
X525969Y-757603D01*
Y-757936D01*
X610870Y-729996D02*
Y-727997D01*
X611870D01*
X612203Y-728330D01*
Y-728996D01*
X611870Y-729330D01*
X610870D01*
X611536D02*
X612203Y-729996D01*
X612869Y-728330D02*
X613203Y-727997D01*
X613869D01*
X614202Y-728330D01*
Y-728663D01*
X613869Y-728996D01*
X613536D01*
X613869D01*
X614202Y-729330D01*
Y-729663D01*
X613869Y-729996D01*
X613203D01*
X612869Y-729663D01*
X614869Y-728330D02*
X615202Y-727997D01*
X615868D01*
X616202Y-728330D01*
Y-728663D01*
X615868Y-728996D01*
X616202Y-729330D01*
Y-729663D01*
X615868Y-729996D01*
X615202D01*
X614869Y-729663D01*
Y-729330D01*
X615202Y-728996D01*
X614869Y-728663D01*
Y-728330D01*
X615202Y-728996D02*
X615868D01*
X610870Y-745236D02*
Y-743237D01*
X611870D01*
X612203Y-743570D01*
Y-744236D01*
X611870Y-744570D01*
X610870D01*
X611536D02*
X612203Y-745236D01*
X612869Y-743570D02*
X613203Y-743237D01*
X613869D01*
X614202Y-743570D01*
Y-743903D01*
X613869Y-744236D01*
X613536D01*
X613869D01*
X614202Y-744570D01*
Y-744903D01*
X613869Y-745236D01*
X613203D01*
X612869Y-744903D01*
X614869D02*
X615202Y-745236D01*
X615868D01*
X616202Y-744903D01*
Y-743570D01*
X615868Y-743237D01*
X615202D01*
X614869Y-743570D01*
Y-743903D01*
X615202Y-744236D01*
X616202D01*
X509270Y-757936D02*
Y-755937D01*
X510270D01*
X510603Y-756270D01*
Y-756936D01*
X510270Y-757270D01*
X509270D01*
X509936D02*
X510603Y-757936D01*
X512269D02*
Y-755937D01*
X511269Y-756936D01*
X512602D01*
X513269Y-756270D02*
X513602Y-755937D01*
X514268D01*
X514602Y-756270D01*
Y-757603D01*
X514268Y-757936D01*
X513602D01*
X513269Y-757603D01*
Y-756270D01*
D97*
X1105535Y-647700D02*
D03*
X1094105D02*
D03*
X874395Y-770890D02*
D03*
X862965D02*
D03*
X69215Y-798830D02*
D03*
X80645D02*
D03*
D98*
X882650Y-603885D02*
D03*
Y-592455D02*
D03*
X1268730Y-857885D02*
D03*
Y-846455D02*
D03*
M02*
