G04 Layer_Color=8421504*
%FSLAX44Y44*%
%MOMM*%
G71*
G01*
G75*
%ADD10R,1.3000X1.0000*%
%ADD11R,1.3000X1.0000*%
%ADD12R,1.1000X1.1000*%
%ADD13R,1.1000X1.1000*%
%ADD14R,2.8000X1.4500*%
%ADD15R,1.4500X0.3000*%
%ADD16O,1.4500X0.3000*%
%ADD17R,3.8000X2.0000*%
%ADD18R,1.5000X2.0000*%
%ADD19R,1.3500X1.5500*%
%ADD20R,0.9500X1.7000*%
%ADD21R,1.3500X1.9000*%
%ADD22R,2.4100X0.8900*%
%ADD23R,8.5400X5.3500*%
%ADD24R,0.7000X0.9000*%
%ADD25R,3.2000X1.9000*%
%ADD26R,0.9000X1.9000*%
%ADD27R,1.0000X0.9000*%
%ADD28R,0.9000X1.0000*%
%ADD29R,0.8000X0.7000*%
%ADD30R,2.2000X0.7600*%
%ADD31R,0.6500X2.2000*%
%ADD32O,2.5000X0.7000*%
%ADD33O,0.3000X2.1000*%
%ADD34O,2.1000X0.3000*%
%ADD35R,1.5500X1.3500*%
%ADD36R,1.7000X0.9500*%
%ADD37R,1.9000X1.3500*%
%ADD38R,0.8900X2.4100*%
%ADD39R,5.3500X8.5400*%
%ADD40R,0.7000X0.8000*%
%ADD41O,0.7600X2.4000*%
%ADD42R,0.7600X2.4000*%
%ADD43R,1.5240X0.7620*%
%ADD44R,1.4000X1.2000*%
%ADD45R,3.4000X1.4000*%
G04:AMPARAMS|DCode=46|XSize=3.5mm|YSize=2.05mm|CornerRadius=0.5125mm|HoleSize=0mm|Usage=FLASHONLY|Rotation=270.000|XOffset=0mm|YOffset=0mm|HoleType=Round|Shape=RoundedRectangle|*
%AMROUNDEDRECTD46*
21,1,3.5000,1.0250,0,0,270.0*
21,1,2.4750,2.0500,0,0,270.0*
1,1,1.0250,-0.5125,-1.2375*
1,1,1.0250,-0.5125,1.2375*
1,1,1.0250,0.5125,1.2375*
1,1,1.0250,0.5125,-1.2375*
%
%ADD46ROUNDEDRECTD46*%
G04:AMPARAMS|DCode=47|XSize=4mm|YSize=2.05mm|CornerRadius=0.5125mm|HoleSize=0mm|Usage=FLASHONLY|Rotation=270.000|XOffset=0mm|YOffset=0mm|HoleType=Round|Shape=RoundedRectangle|*
%AMROUNDEDRECTD47*
21,1,4.0000,1.0250,0,0,270.0*
21,1,2.9750,2.0500,0,0,270.0*
1,1,1.0250,-0.5125,-1.4875*
1,1,1.0250,-0.5125,1.4875*
1,1,1.0250,0.5125,1.4875*
1,1,1.0250,0.5125,-1.4875*
%
%ADD47ROUNDEDRECTD47*%
G04:AMPARAMS|DCode=48|XSize=3.5mm|YSize=2.05mm|CornerRadius=0.5125mm|HoleSize=0mm|Usage=FLASHONLY|Rotation=270.000|XOffset=0mm|YOffset=0mm|HoleType=Round|Shape=RoundedRectangle|*
%AMROUNDEDRECTD48*
21,1,3.5000,1.0250,0,0,270.0*
21,1,2.4750,2.0500,0,0,270.0*
1,1,1.0250,-0.5125,-1.2375*
1,1,1.0250,-0.5125,1.2375*
1,1,1.0250,0.5125,1.2375*
1,1,1.0250,0.5125,-1.2375*
%
%ADD48ROUNDEDRECTD48*%
G04:AMPARAMS|DCode=49|XSize=2.8mm|YSize=0.5mm|CornerRadius=0.125mm|HoleSize=0mm|Usage=FLASHONLY|Rotation=270.000|XOffset=0mm|YOffset=0mm|HoleType=Round|Shape=RoundedRectangle|*
%AMROUNDEDRECTD49*
21,1,2.8000,0.2500,0,0,270.0*
21,1,2.5500,0.5000,0,0,270.0*
1,1,0.2500,-0.1250,-1.2750*
1,1,0.2500,-0.1250,1.2750*
1,1,0.2500,0.1250,1.2750*
1,1,0.2500,0.1250,-1.2750*
%
%ADD49ROUNDEDRECTD49*%
%ADD50R,0.2650X0.4790*%
%ADD51R,2.3520X0.3510*%
%ADD52R,0.4790X0.2650*%
%ADD53R,0.3510X2.3520*%
%ADD54R,0.7620X0.7620*%
%ADD55R,0.7620X0.7620*%
%ADD56R,1.6000X5.0000*%
D10*
X491080Y-885350D02*
D03*
X513080Y-895350D02*
D03*
X740410Y-836930D02*
D03*
X762410Y-846930D02*
D03*
X628240Y-847250D02*
D03*
X650240Y-857250D02*
D03*
D11*
X513080Y-875350D02*
D03*
X740410Y-856930D02*
D03*
X650240Y-837250D02*
D03*
D12*
X655320Y-608440D02*
D03*
Y-590440D02*
D03*
X683260Y-617110D02*
D03*
Y-635110D02*
D03*
X1268730Y-877460D02*
D03*
Y-895460D02*
D03*
X839470Y-773320D02*
D03*
Y-791320D02*
D03*
X866140Y-605680D02*
D03*
Y-623680D02*
D03*
X179070Y-743060D02*
D03*
Y-725060D02*
D03*
X172720Y-584090D02*
D03*
Y-602090D02*
D03*
X226060Y-569070D02*
D03*
Y-551070D02*
D03*
X245110Y-778400D02*
D03*
Y-796400D02*
D03*
X670560Y-676800D02*
D03*
Y-694800D02*
D03*
X957580Y-829420D02*
D03*
Y-811420D02*
D03*
X1019810Y-817475D02*
D03*
Y-799475D02*
D03*
Y-775565D02*
D03*
Y-757565D02*
D03*
X924560Y-818745D02*
D03*
Y-800745D02*
D03*
Y-761375D02*
D03*
Y-779375D02*
D03*
X1165860Y-660290D02*
D03*
Y-678290D02*
D03*
X820420Y-815450D02*
D03*
Y-797450D02*
D03*
X326390Y-745380D02*
D03*
Y-763380D02*
D03*
X838200Y-619870D02*
D03*
Y-601870D02*
D03*
X788670Y-673210D02*
D03*
Y-655210D02*
D03*
D13*
X828150Y-664210D02*
D03*
X810150D02*
D03*
X829420Y-689610D02*
D03*
X811420D02*
D03*
X1041290Y-600710D02*
D03*
X1059290D02*
D03*
X1041290Y-619760D02*
D03*
X1059290D02*
D03*
X1079390Y-619760D02*
D03*
X1097390D02*
D03*
X1071990Y-660400D02*
D03*
X1053990D02*
D03*
X264050Y-749300D02*
D03*
X282050D02*
D03*
X255160Y-577850D02*
D03*
X273160D02*
D03*
X255160Y-556260D02*
D03*
X273160D02*
D03*
X264050Y-778510D02*
D03*
X282050D02*
D03*
X473600Y-911860D02*
D03*
X491600D02*
D03*
X718710Y-688340D02*
D03*
X736710D02*
D03*
X1165970Y-716280D02*
D03*
X1147970D02*
D03*
X995570Y-832605D02*
D03*
X1013570D02*
D03*
X1132730Y-751840D02*
D03*
X1150730D02*
D03*
X1092090D02*
D03*
X1110090D02*
D03*
X495190Y-854710D02*
D03*
X513190D02*
D03*
X629810Y-640080D02*
D03*
X647810D02*
D03*
X102760Y-798830D02*
D03*
X120760D02*
D03*
D14*
X1010920Y-634100D02*
D03*
Y-585100D02*
D03*
X860280Y-701410D02*
D03*
Y-652410D02*
D03*
D15*
X806450Y-624840D02*
D03*
X1136650Y-593090D02*
D03*
D16*
X806450Y-619840D02*
D03*
Y-614840D02*
D03*
Y-609840D02*
D03*
Y-604840D02*
D03*
X762450Y-624840D02*
D03*
Y-619840D02*
D03*
Y-614840D02*
D03*
Y-609840D02*
D03*
Y-604840D02*
D03*
X1092650Y-573090D02*
D03*
Y-578090D02*
D03*
Y-583090D02*
D03*
Y-588090D02*
D03*
Y-593090D02*
D03*
X1136650Y-573090D02*
D03*
Y-578090D02*
D03*
Y-583090D02*
D03*
Y-588090D02*
D03*
D17*
X81280Y-219460D02*
D03*
X177744Y-423160D02*
D03*
X177619Y-219460D02*
D03*
X273877Y-423160D02*
D03*
X273957Y-219460D02*
D03*
X370011Y-423160D02*
D03*
X370296Y-219460D02*
D03*
X466090Y-416810D02*
D03*
X466634Y-219460D02*
D03*
X562278Y-423160D02*
D03*
X562973Y-219460D02*
D03*
X658411Y-423160D02*
D03*
X659311Y-219460D02*
D03*
X754545Y-423160D02*
D03*
X755650Y-219460D02*
D03*
X850678Y-423160D02*
D03*
X851989Y-219460D02*
D03*
X946812Y-423160D02*
D03*
X948327Y-219460D02*
D03*
X1042946Y-423160D02*
D03*
X1044666Y-219460D02*
D03*
X1139079Y-423160D02*
D03*
X1141004Y-219460D02*
D03*
X1235213Y-423160D02*
D03*
X1237343Y-219460D02*
D03*
X1331346Y-423160D02*
D03*
X1333681Y-219460D02*
D03*
X1427480Y-423160D02*
D03*
X1430020Y-219460D02*
D03*
X81610Y-423160D02*
D03*
D18*
X58280Y-156460D02*
D03*
X81280D02*
D03*
X104280D02*
D03*
X200744Y-486160D02*
D03*
X177744D02*
D03*
X154744D02*
D03*
X154619Y-156460D02*
D03*
X177619D02*
D03*
X200619D02*
D03*
X296877Y-486160D02*
D03*
X273877D02*
D03*
X250877D02*
D03*
X250957Y-156460D02*
D03*
X273957D02*
D03*
X296957D02*
D03*
X393011Y-486160D02*
D03*
X370011D02*
D03*
X347011D02*
D03*
X347296Y-156460D02*
D03*
X370296D02*
D03*
X393296D02*
D03*
X489090Y-479810D02*
D03*
X466090D02*
D03*
X443090D02*
D03*
X443634Y-156460D02*
D03*
X466634D02*
D03*
X489634D02*
D03*
X585278Y-486160D02*
D03*
X562278D02*
D03*
X539278D02*
D03*
X539973Y-156460D02*
D03*
X562973D02*
D03*
X585973D02*
D03*
X681411Y-486160D02*
D03*
X658411D02*
D03*
X635411D02*
D03*
X636311Y-156460D02*
D03*
X659311D02*
D03*
X682311D02*
D03*
X777545Y-486160D02*
D03*
X754545D02*
D03*
X731545D02*
D03*
X732650Y-156460D02*
D03*
X755650D02*
D03*
X778650D02*
D03*
X873679Y-486160D02*
D03*
X850678D02*
D03*
X827679D02*
D03*
X828988Y-156460D02*
D03*
X851989D02*
D03*
X874988D02*
D03*
X969812Y-486160D02*
D03*
X946812D02*
D03*
X923812D02*
D03*
X925327Y-156460D02*
D03*
X948327D02*
D03*
X971327D02*
D03*
X1065946Y-486160D02*
D03*
X1042946D02*
D03*
X1019946D02*
D03*
X1021666Y-156460D02*
D03*
X1044666D02*
D03*
X1067666D02*
D03*
X1162079Y-486160D02*
D03*
X1139079D02*
D03*
X1116079D02*
D03*
X1118004Y-156460D02*
D03*
X1141004D02*
D03*
X1164004D02*
D03*
X1258213Y-486160D02*
D03*
X1235213D02*
D03*
X1212213D02*
D03*
X1214343Y-156460D02*
D03*
X1237343D02*
D03*
X1260343D02*
D03*
X1354346Y-486160D02*
D03*
X1331346D02*
D03*
X1308346D02*
D03*
X1310681Y-156460D02*
D03*
X1333681D02*
D03*
X1356681D02*
D03*
X1450480Y-486160D02*
D03*
X1427480D02*
D03*
X1404480D02*
D03*
X1407020Y-156460D02*
D03*
X1430020D02*
D03*
X1453020D02*
D03*
X104610Y-486160D02*
D03*
X81610D02*
D03*
X58610D02*
D03*
D19*
X1150460Y-775970D02*
D03*
X1130460D02*
D03*
D20*
X1230660Y-792480D02*
D03*
X1202660D02*
D03*
D21*
X1231390Y-615950D02*
D03*
X1199390D02*
D03*
D22*
X1194915Y-665480D02*
D03*
Y-678180D02*
D03*
Y-690880D02*
D03*
Y-703580D02*
D03*
Y-716280D02*
D03*
Y-728980D02*
D03*
Y-741680D02*
D03*
D23*
X1271215Y-703580D02*
D03*
D24*
X441310Y-788160D02*
D03*
X455310D02*
D03*
X481980Y-788160D02*
D03*
X467980D02*
D03*
D25*
X919480Y-730730D02*
D03*
X1003300D02*
D03*
D26*
X896480Y-663730D02*
D03*
X919480D02*
D03*
X942480D02*
D03*
X980300D02*
D03*
X1003300D02*
D03*
X1026300D02*
D03*
D27*
X44450Y-812420D02*
D03*
Y-828420D02*
D03*
X22860Y-812420D02*
D03*
Y-828420D02*
D03*
X524510Y-748920D02*
D03*
Y-764920D02*
D03*
X511810Y-764920D02*
D03*
Y-748920D02*
D03*
X468630Y-758570D02*
D03*
Y-774570D02*
D03*
D28*
X93090Y-817880D02*
D03*
X77090D02*
D03*
X93090Y-836930D02*
D03*
X77090D02*
D03*
X605410Y-728980D02*
D03*
X621410D02*
D03*
X621410Y-744220D02*
D03*
X605410D02*
D03*
D29*
X681990Y-863600D02*
D03*
Y-877600D02*
D03*
X699770Y-863600D02*
D03*
Y-877600D02*
D03*
X718820Y-863600D02*
D03*
Y-877600D02*
D03*
D30*
X288926Y-711200D02*
D03*
Y-698500D02*
D03*
Y-685800D02*
D03*
Y-673100D02*
D03*
Y-660400D02*
D03*
Y-647700D02*
D03*
Y-635000D02*
D03*
Y-622300D02*
D03*
X206375D02*
D03*
Y-635000D02*
D03*
Y-647700D02*
D03*
Y-660400D02*
D03*
Y-673100D02*
D03*
Y-685800D02*
D03*
Y-698500D02*
D03*
Y-711200D02*
D03*
D31*
X626842Y-669340D02*
D03*
Y-706340D02*
D03*
D32*
X455560Y-930910D02*
D03*
Y-943610D02*
D03*
Y-956310D02*
D03*
Y-969010D02*
D03*
X504560Y-930910D02*
D03*
Y-943610D02*
D03*
Y-956310D02*
D03*
Y-969010D02*
D03*
D33*
X500150Y-575510D02*
D03*
X496150D02*
D03*
X492150D02*
D03*
X488150D02*
D03*
X484150D02*
D03*
X480150D02*
D03*
X476150D02*
D03*
X472150D02*
D03*
X468150D02*
D03*
X464150D02*
D03*
X460150D02*
D03*
X456150D02*
D03*
X452150D02*
D03*
X448150D02*
D03*
X444150D02*
D03*
X440150D02*
D03*
X436150D02*
D03*
X432150D02*
D03*
X428150D02*
D03*
X424150D02*
D03*
X420150D02*
D03*
X416150D02*
D03*
X412150D02*
D03*
X408150D02*
D03*
X404150D02*
D03*
X400150D02*
D03*
X396150D02*
D03*
X392150D02*
D03*
X388150D02*
D03*
X384150D02*
D03*
X380150D02*
D03*
X376150D02*
D03*
Y-727510D02*
D03*
X380150D02*
D03*
X384150D02*
D03*
X388150D02*
D03*
X392150D02*
D03*
X396150D02*
D03*
X400150D02*
D03*
X404150D02*
D03*
X408150D02*
D03*
X412150D02*
D03*
X416150D02*
D03*
X420150D02*
D03*
X424150D02*
D03*
X428150D02*
D03*
X432150D02*
D03*
X436150D02*
D03*
X440150D02*
D03*
X444150D02*
D03*
X448150D02*
D03*
X452150D02*
D03*
X456150D02*
D03*
X460150D02*
D03*
X464150D02*
D03*
X468150D02*
D03*
X472150D02*
D03*
X476150D02*
D03*
X480150D02*
D03*
X484150D02*
D03*
X488150D02*
D03*
X492150D02*
D03*
X496150D02*
D03*
X500150D02*
D03*
D34*
X362150Y-589510D02*
D03*
Y-593510D02*
D03*
Y-597510D02*
D03*
Y-601510D02*
D03*
Y-605510D02*
D03*
Y-609510D02*
D03*
Y-613510D02*
D03*
Y-617510D02*
D03*
Y-621510D02*
D03*
Y-625510D02*
D03*
Y-629510D02*
D03*
Y-633510D02*
D03*
Y-637510D02*
D03*
Y-641510D02*
D03*
Y-645510D02*
D03*
Y-649510D02*
D03*
Y-653510D02*
D03*
Y-657510D02*
D03*
Y-661510D02*
D03*
Y-665510D02*
D03*
Y-669510D02*
D03*
Y-673510D02*
D03*
Y-677510D02*
D03*
Y-681510D02*
D03*
Y-685510D02*
D03*
Y-689510D02*
D03*
Y-693510D02*
D03*
Y-697510D02*
D03*
Y-701510D02*
D03*
Y-705510D02*
D03*
Y-709510D02*
D03*
Y-713510D02*
D03*
X514150D02*
D03*
Y-709510D02*
D03*
Y-705510D02*
D03*
Y-701510D02*
D03*
Y-697510D02*
D03*
Y-693510D02*
D03*
Y-689510D02*
D03*
Y-685510D02*
D03*
Y-681510D02*
D03*
Y-677510D02*
D03*
Y-673510D02*
D03*
Y-669510D02*
D03*
Y-665510D02*
D03*
Y-661510D02*
D03*
Y-657510D02*
D03*
Y-653510D02*
D03*
Y-649510D02*
D03*
Y-645510D02*
D03*
Y-641510D02*
D03*
Y-637510D02*
D03*
Y-633510D02*
D03*
Y-629510D02*
D03*
Y-625510D02*
D03*
Y-621510D02*
D03*
Y-617510D02*
D03*
Y-613510D02*
D03*
Y-609510D02*
D03*
Y-605510D02*
D03*
Y-601510D02*
D03*
Y-597510D02*
D03*
Y-593510D02*
D03*
Y-589510D02*
D03*
D35*
X896620Y-798990D02*
D03*
Y-818990D02*
D03*
D36*
X862330Y-789910D02*
D03*
Y-817910D02*
D03*
D37*
X1054100Y-901945D02*
D03*
Y-869945D02*
D03*
D38*
X1008380Y-864200D02*
D03*
X995680D02*
D03*
X982980D02*
D03*
X970280D02*
D03*
X957580D02*
D03*
X944880D02*
D03*
X932180D02*
D03*
D39*
X970280Y-940500D02*
D03*
D40*
X596870Y-759460D02*
D03*
X610870D02*
D03*
D41*
X584200Y-783960D02*
D03*
X571500D02*
D03*
X558800D02*
D03*
X546100D02*
D03*
X533400D02*
D03*
X584200Y-822960D02*
D03*
X571500D02*
D03*
X558800D02*
D03*
X546100D02*
D03*
D42*
X533400D02*
D03*
D43*
X556260Y-883920D02*
D03*
X607060D02*
D03*
X556260Y-922020D02*
D03*
X607060D02*
D03*
D44*
X450440Y-807720D02*
D03*
Y-823720D02*
D03*
X472440Y-807720D02*
D03*
Y-823720D02*
D03*
D45*
X36830Y-889180D02*
D03*
Y-848180D02*
D03*
D46*
X655090Y-912880D02*
D03*
D47*
Y-955380D02*
D03*
X753590D02*
D03*
D48*
Y-912880D02*
D03*
D49*
X696340Y-913130D02*
D03*
X688340D02*
D03*
X712340D02*
D03*
X720340D02*
D03*
X704340D02*
D03*
D50*
X548840Y-757980D02*
D03*
X553840D02*
D03*
X558840D02*
D03*
X563840D02*
D03*
X568840D02*
D03*
X573840D02*
D03*
Y-745700D02*
D03*
X568840D02*
D03*
X563840D02*
D03*
X558840D02*
D03*
X553840D02*
D03*
X548840D02*
D03*
D51*
X561340Y-751840D02*
D03*
D52*
X86570Y-877770D02*
D03*
Y-882770D02*
D03*
Y-887770D02*
D03*
Y-892770D02*
D03*
Y-897770D02*
D03*
Y-902770D02*
D03*
X98850D02*
D03*
Y-897770D02*
D03*
Y-892770D02*
D03*
Y-887770D02*
D03*
Y-882770D02*
D03*
Y-877770D02*
D03*
X118320Y-550110D02*
D03*
Y-555110D02*
D03*
Y-560110D02*
D03*
Y-565110D02*
D03*
Y-570110D02*
D03*
Y-575110D02*
D03*
X130600D02*
D03*
Y-570110D02*
D03*
Y-565110D02*
D03*
Y-560110D02*
D03*
Y-555110D02*
D03*
Y-550110D02*
D03*
D53*
X92710Y-890270D02*
D03*
X124460Y-562610D02*
D03*
D54*
X82550Y-798830D02*
D03*
X67310D02*
D03*
X861060Y-770890D02*
D03*
X876300D02*
D03*
X1092200Y-647700D02*
D03*
X1107440D02*
D03*
D55*
X1268730Y-844550D02*
D03*
Y-859790D02*
D03*
X882650Y-590550D02*
D03*
Y-605790D02*
D03*
D56*
X1145540Y-911870D02*
D03*
Y-817870D02*
D03*
X839470Y-955050D02*
D03*
Y-861050D02*
D03*
M02*
