G04 Layer_Physical_Order=2*
G04 Layer_Color=16711680*
%FSLAX44Y44*%
%MOMM*%
G71*
G01*
G75*
%ADD27R,1.0000X0.9000*%
%ADD50R,1.1000X1.1000*%
%ADD51R,1.1000X1.1000*%
%ADD59C,2.0000*%
%ADD60C,1.0000*%
%ADD61C,0.2540*%
%ADD62C,0.5000*%
%ADD72P,2.0345X8X292.5*%
%ADD73C,2.3550*%
%ADD74C,1.6764*%
%ADD75P,1.8145X8X292.5*%
%ADD76C,3.2500*%
%ADD77C,0.9000*%
%ADD78P,2.0345X8X22.5*%
%ADD79C,2.0000*%
%ADD80R,2.0000X2.0000*%
%ADD81O,4.0000X2.0000*%
%ADD82C,2.5000*%
%ADD83R,2.5000X2.5000*%
%ADD84C,6.0000*%
%ADD85C,0.6000*%
%ADD86C,1.0000*%
G36*
X1456222Y-2307D02*
X1462377Y-3532D01*
X1468320Y-5549D01*
X1473948Y-8324D01*
X1479166Y-11811D01*
X1483884Y-15949D01*
X1488022Y-20667D01*
X1491508Y-25885D01*
X1494284Y-31513D01*
X1496301Y-37455D01*
X1497525Y-43610D01*
X1497935Y-49858D01*
X1497921Y-49872D01*
X1497921D01*
X1497961Y-50074D01*
Y-950000D01*
X1498066Y-950528D01*
X1497693Y-956222D01*
X1496469Y-962377D01*
X1494451Y-968319D01*
X1491676Y-973948D01*
X1488189Y-979166D01*
X1484051Y-983884D01*
X1479333Y-988022D01*
X1474115Y-991508D01*
X1468487Y-994284D01*
X1462545Y-996301D01*
X1456390Y-997525D01*
X1450142Y-997935D01*
X1450128Y-997921D01*
Y-997921D01*
X1449926Y-997961D01*
X788214D01*
X787862Y-995454D01*
X790660Y-994295D01*
X793062Y-992452D01*
X815922Y-969592D01*
X815922Y-969592D01*
X817765Y-967190D01*
X818924Y-964392D01*
X819319Y-961390D01*
X819319Y-961390D01*
Y-878565D01*
X831162Y-866722D01*
X833005Y-864320D01*
X834164Y-861522D01*
X834559Y-858520D01*
X834164Y-855518D01*
X833005Y-852720D01*
X831162Y-850318D01*
X828760Y-848475D01*
X825962Y-847316D01*
X822960Y-846921D01*
X819958Y-847316D01*
X817160Y-848475D01*
X814758Y-850318D01*
X799518Y-865558D01*
X797675Y-867960D01*
X796516Y-870758D01*
X796121Y-873760D01*
X796121Y-873760D01*
Y-956585D01*
X780055Y-972651D01*
X409935D01*
X401489Y-964205D01*
Y-906780D01*
X401390Y-906026D01*
Y-895280D01*
X390644D01*
X389890Y-895181D01*
X389136Y-895280D01*
X378390D01*
Y-906026D01*
X378291Y-906780D01*
Y-945848D01*
X375751Y-946225D01*
X375208Y-944435D01*
X373676Y-941569D01*
X371614Y-939056D01*
X369101Y-936994D01*
X366235Y-935462D01*
X363125Y-934519D01*
X359890Y-934200D01*
X356656Y-934519D01*
X353545Y-935462D01*
X350679Y-936994D01*
X348166Y-939056D01*
X346104Y-941569D01*
X344572Y-944435D01*
X343629Y-947545D01*
X343310Y-950780D01*
X343629Y-954015D01*
X344572Y-957125D01*
X346104Y-959991D01*
X348166Y-962504D01*
X350679Y-964566D01*
X353545Y-966098D01*
X356656Y-967041D01*
X359890Y-967360D01*
X363125Y-967041D01*
X366235Y-966098D01*
X369101Y-964566D01*
X371614Y-962504D01*
X373676Y-959991D01*
X375208Y-957125D01*
X375751Y-955335D01*
X378291Y-955712D01*
Y-969010D01*
X378291Y-969010D01*
X378686Y-972012D01*
X379845Y-974810D01*
X381688Y-977212D01*
X396928Y-992452D01*
X396928Y-992452D01*
X399330Y-994295D01*
X402128Y-995454D01*
X401777Y-997961D01*
X50000D01*
X49472Y-998066D01*
X43778Y-997693D01*
X37623Y-996469D01*
X31681Y-994451D01*
X26052Y-991676D01*
X20834Y-988189D01*
X16116Y-984051D01*
X11978Y-979333D01*
X8492Y-974115D01*
X5716Y-968487D01*
X3699Y-962544D01*
X2475Y-956390D01*
X2065Y-950142D01*
X2079Y-950127D01*
X2079D01*
X2039Y-949926D01*
Y-530000D01*
X384532D01*
X389405Y-534872D01*
X389461Y-535156D01*
X390456Y-536644D01*
X391944Y-537639D01*
X393700Y-537988D01*
X395456Y-537639D01*
X395747Y-537445D01*
X397479Y-537020D01*
X399002Y-538092D01*
X399056Y-538174D01*
X400835Y-539952D01*
X400891Y-540236D01*
X401886Y-541724D01*
X403374Y-542719D01*
X405130Y-543068D01*
X406886Y-542719D01*
X408374Y-541724D01*
X409369Y-540236D01*
X409718Y-538480D01*
X409369Y-536724D01*
X410696Y-535099D01*
X412184Y-534104D01*
X413179Y-532616D01*
X413528Y-530860D01*
X414234Y-530000D01*
X423736D01*
X423751Y-530076D01*
X424746Y-531564D01*
X426234Y-532559D01*
X427990Y-532908D01*
X429746Y-532559D01*
X431234Y-531564D01*
X432229Y-530076D01*
X432244Y-530000D01*
X553114D01*
X554086Y-532347D01*
X550978Y-535455D01*
X550694Y-535511D01*
X549206Y-536506D01*
X548211Y-537994D01*
X547862Y-539750D01*
X548211Y-541506D01*
X549206Y-542994D01*
X550694Y-543989D01*
X552450Y-544338D01*
X554206Y-543989D01*
X555694Y-542994D01*
X556689Y-541506D01*
X556745Y-541222D01*
X559723Y-538244D01*
X562043Y-539249D01*
X562153Y-539407D01*
X561832Y-541020D01*
X562181Y-542776D01*
X563176Y-544264D01*
X563621Y-544562D01*
X562850Y-547102D01*
X540169D01*
X538965Y-545898D01*
X538909Y-545614D01*
X537914Y-544126D01*
X536426Y-543131D01*
X534670Y-542782D01*
X532914Y-543131D01*
X531426Y-544126D01*
X530431Y-545614D01*
X530082Y-547370D01*
X530431Y-549126D01*
X531426Y-550614D01*
X532914Y-551609D01*
X533198Y-551665D01*
X535596Y-554064D01*
X536919Y-554948D01*
X538480Y-555258D01*
X538480Y-555258D01*
X543800D01*
X544571Y-557798D01*
X544126Y-558096D01*
X543131Y-559584D01*
X542782Y-561340D01*
X543131Y-563096D01*
X544126Y-564584D01*
X545614Y-565579D01*
X547370Y-565928D01*
X549126Y-565579D01*
X550614Y-564584D01*
X551609Y-563096D01*
X551652Y-562878D01*
X571222D01*
X572637Y-565418D01*
X572182Y-566152D01*
X563336D01*
X563096Y-565991D01*
X561340Y-565642D01*
X559584Y-565991D01*
X558096Y-566986D01*
X557101Y-568474D01*
X556752Y-570230D01*
X557101Y-571986D01*
X558096Y-573474D01*
X559584Y-574469D01*
X561340Y-574818D01*
X563096Y-574469D01*
X563336Y-574308D01*
X575310D01*
X575310Y-574308D01*
X576871Y-573998D01*
X578194Y-573114D01*
X621308Y-530000D01*
X675034D01*
X676006Y-532347D01*
X567271Y-641082D01*
X557530D01*
X557530Y-641082D01*
X555969Y-641392D01*
X554646Y-642276D01*
X548438Y-648485D01*
X548154Y-648541D01*
X546666Y-649536D01*
X545671Y-651024D01*
X545322Y-652780D01*
X545671Y-654536D01*
X546666Y-656024D01*
X548154Y-657019D01*
X549910Y-657368D01*
X551666Y-657019D01*
X553154Y-656024D01*
X554149Y-654536D01*
X554205Y-654252D01*
X558437Y-650021D01*
X559539Y-650220D01*
X560044Y-652892D01*
X559366Y-653346D01*
X558371Y-654834D01*
X558022Y-656590D01*
X558371Y-658346D01*
X559366Y-659834D01*
X560854Y-660829D01*
X562610Y-661178D01*
X564366Y-660829D01*
X565854Y-659834D01*
X566849Y-658346D01*
X566892Y-658128D01*
X572583D01*
X573921Y-660421D01*
X573226Y-661271D01*
X571470Y-660922D01*
X569714Y-661271D01*
X568226Y-662266D01*
X567231Y-663754D01*
X566882Y-665510D01*
X567231Y-667266D01*
X568226Y-668754D01*
X569714Y-669749D01*
X571470Y-670098D01*
X573226Y-669749D01*
X573452Y-669598D01*
X575885Y-669722D01*
X576842Y-671462D01*
X576935Y-672057D01*
X574891Y-674102D01*
X565876D01*
X565636Y-673941D01*
X563880Y-673592D01*
X562124Y-673941D01*
X560636Y-674936D01*
X559641Y-676424D01*
X559292Y-678180D01*
X559641Y-679936D01*
X560636Y-681424D01*
X562124Y-682419D01*
X563880Y-682768D01*
X565636Y-682419D01*
X565876Y-682258D01*
X572311D01*
X573668Y-684798D01*
X573178Y-685532D01*
X560489D01*
X554205Y-679248D01*
X554149Y-678964D01*
X553154Y-677476D01*
X551666Y-676481D01*
X549910Y-676132D01*
X548154Y-676481D01*
X546666Y-677476D01*
X545671Y-678964D01*
X545322Y-680720D01*
X545671Y-682476D01*
X546666Y-683964D01*
X548154Y-684959D01*
X548438Y-685015D01*
X555916Y-692494D01*
X555916Y-692494D01*
X557239Y-693378D01*
X558800Y-693688D01*
X558800Y-693688D01*
X576580D01*
X576580Y-693688D01*
X578141Y-693378D01*
X579464Y-692494D01*
X716699Y-555258D01*
X772692D01*
X773744Y-557798D01*
X738938Y-592605D01*
X738654Y-592661D01*
X737166Y-593656D01*
X736171Y-595144D01*
X735822Y-596900D01*
X736171Y-598656D01*
X737166Y-600144D01*
X738654Y-601139D01*
X740410Y-601488D01*
X742166Y-601139D01*
X743654Y-600144D01*
X744649Y-598656D01*
X744705Y-598372D01*
X780199Y-562878D01*
X850665D01*
X851718Y-565418D01*
X817980Y-599156D01*
X798466D01*
X798312Y-599087D01*
X798055Y-599080D01*
X797864Y-599064D01*
X797697Y-599038D01*
X797552Y-599006D01*
X797430Y-598969D01*
X797328Y-598928D01*
X797242Y-598885D01*
X797171Y-598841D01*
X797109Y-598794D01*
X796996Y-598689D01*
X796836Y-598630D01*
X795506Y-597741D01*
X793750Y-597392D01*
X791994Y-597741D01*
X790664Y-598630D01*
X790504Y-598689D01*
X790391Y-598794D01*
X790329Y-598841D01*
X790258Y-598885D01*
X790172Y-598928D01*
X790070Y-598969D01*
X789948Y-599006D01*
X789803Y-599038D01*
X789636Y-599064D01*
X789445Y-599080D01*
X789188Y-599087D01*
X789034Y-599156D01*
X782320D01*
X782320Y-599156D01*
X781239Y-599371D01*
X780323Y-599983D01*
X773863Y-606443D01*
X773480Y-607015D01*
X763560Y-616936D01*
X736500D01*
X726007Y-606443D01*
X725091Y-605831D01*
X724010Y-605616D01*
X724010Y-605616D01*
X717076D01*
X716922Y-605547D01*
X716665Y-605540D01*
X716474Y-605524D01*
X716307Y-605498D01*
X716162Y-605466D01*
X716040Y-605429D01*
X715938Y-605388D01*
X715852Y-605345D01*
X715781Y-605301D01*
X715719Y-605254D01*
X715606Y-605149D01*
X715446Y-605090D01*
X714116Y-604201D01*
X712360Y-603852D01*
X710604Y-604201D01*
X709116Y-605196D01*
X708121Y-606684D01*
X707772Y-608440D01*
X706120Y-610092D01*
X704364Y-610441D01*
X702876Y-611436D01*
X701881Y-612924D01*
X701532Y-614680D01*
X701881Y-616436D01*
X702215Y-616936D01*
X700974Y-619476D01*
X693420D01*
X693420Y-619476D01*
X692339Y-619691D01*
X691423Y-620303D01*
X691423Y-620303D01*
X687170Y-624556D01*
X671466D01*
X671312Y-624487D01*
X671055Y-624480D01*
X670864Y-624464D01*
X670697Y-624438D01*
X670553Y-624406D01*
X670430Y-624369D01*
X670328Y-624328D01*
X670242Y-624285D01*
X670171Y-624241D01*
X670109Y-624194D01*
X669996Y-624089D01*
X669836Y-624030D01*
X668506Y-623141D01*
X666750Y-622792D01*
X664994Y-623141D01*
X663506Y-624136D01*
X662511Y-625624D01*
X662401Y-626179D01*
X661365Y-627575D01*
X659692Y-627984D01*
X659130Y-627872D01*
X657374Y-628221D01*
X655886Y-629216D01*
X654891Y-630704D01*
X654542Y-632460D01*
X654891Y-634216D01*
X655886Y-635704D01*
X657374Y-636699D01*
X659130Y-637048D01*
X660886Y-636699D01*
X661319Y-636409D01*
X661599Y-636368D01*
X661736Y-636286D01*
X661833Y-636238D01*
X661945Y-636191D01*
X662074Y-636147D01*
X662221Y-636107D01*
X662387Y-636073D01*
X662553Y-636047D01*
X663014Y-636008D01*
X663267Y-636003D01*
X663425Y-635934D01*
X692770D01*
X692770Y-635934D01*
X693851Y-635719D01*
X694767Y-635107D01*
X699050Y-630824D01*
X714460D01*
X720633Y-636997D01*
X721549Y-637609D01*
X722630Y-637824D01*
X816610D01*
X816610Y-637824D01*
X817691Y-637609D01*
X818607Y-636997D01*
X837657Y-617947D01*
X837657Y-617947D01*
X838269Y-617031D01*
X838484Y-615950D01*
Y-604420D01*
X863500Y-579404D01*
X905290D01*
X906262Y-581751D01*
X904702Y-583311D01*
Y-586780D01*
X928578D01*
Y-583311D01*
X927018Y-581751D01*
X927990Y-579404D01*
X932250D01*
X933222Y-581751D01*
X931142Y-583831D01*
Y-594729D01*
X936591Y-600178D01*
X947489D01*
X952938Y-594729D01*
Y-583831D01*
X950858Y-581751D01*
X951830Y-579404D01*
X957650D01*
X958622Y-581751D01*
X956542Y-583831D01*
Y-594729D01*
X961991Y-600178D01*
X972889D01*
X973926Y-599141D01*
X973927Y-599141D01*
X973927Y-599140D01*
X976230Y-596837D01*
X976426Y-596767D01*
X977680Y-596468D01*
X979207Y-596228D01*
X982926Y-595958D01*
X987854Y-600886D01*
Y-629744D01*
X982804Y-634794D01*
X931086D01*
X923300Y-627008D01*
X923397Y-624879D01*
X923448Y-624385D01*
X923480Y-624187D01*
X927538Y-620129D01*
Y-609231D01*
X922089Y-603782D01*
X911191D01*
X905742Y-609231D01*
Y-620129D01*
X909708Y-624096D01*
X910011Y-628448D01*
X910016Y-629627D01*
X910116Y-629865D01*
X910307Y-631317D01*
X910962Y-632898D01*
X912004Y-634256D01*
X923734Y-645986D01*
X925092Y-647028D01*
X926673Y-647683D01*
X928370Y-647906D01*
X970081D01*
X972400Y-648440D01*
X972400Y-650446D01*
Y-653980D01*
X980440D01*
X988480D01*
Y-649542D01*
X988660Y-648121D01*
X989641Y-646381D01*
X990156Y-645986D01*
X999046Y-637096D01*
X1000088Y-635738D01*
X1000743Y-634157D01*
X1000966Y-632460D01*
Y-598170D01*
X1000743Y-596473D01*
X1000088Y-594892D01*
X999046Y-593534D01*
X990156Y-584644D01*
X988798Y-583602D01*
X987217Y-582947D01*
X985802Y-582761D01*
X985573Y-582657D01*
X981038Y-582510D01*
X979516Y-582363D01*
X978618Y-581944D01*
X978986Y-580285D01*
X979989Y-579404D01*
X1054200D01*
X1063533Y-588737D01*
X1063533Y-588737D01*
X1064449Y-589349D01*
X1065530Y-589564D01*
X1115137D01*
X1115288Y-589633D01*
X1115541Y-589641D01*
X1115700Y-589658D01*
X1115814Y-589679D01*
X1115861Y-589693D01*
X1115893Y-589724D01*
X1115901Y-589766D01*
X1116896Y-591254D01*
X1118384Y-592249D01*
X1120140Y-592598D01*
X1121896Y-592249D01*
X1123384Y-591254D01*
X1124379Y-589766D01*
X1124728Y-588010D01*
X1124379Y-586254D01*
X1123384Y-584766D01*
X1121896Y-583771D01*
X1120140Y-583422D01*
X1119797Y-583084D01*
X1118304Y-581094D01*
X1119299Y-579606D01*
X1119648Y-577850D01*
X1119536Y-577288D01*
X1119945Y-575615D01*
X1121341Y-574579D01*
X1121896Y-574469D01*
X1123384Y-573474D01*
X1124379Y-571986D01*
X1124728Y-570230D01*
X1124379Y-568474D01*
X1123384Y-566986D01*
X1121896Y-565991D01*
X1120140Y-565642D01*
X1118384Y-565991D01*
X1117054Y-566880D01*
X1116894Y-566939D01*
X1116781Y-567044D01*
X1116719Y-567091D01*
X1116648Y-567135D01*
X1116562Y-567178D01*
X1116460Y-567219D01*
X1116338Y-567256D01*
X1116193Y-567288D01*
X1116026Y-567314D01*
X1115835Y-567330D01*
X1115578Y-567337D01*
X1115424Y-567406D01*
X1112520D01*
X1111439Y-567621D01*
X1110523Y-568233D01*
X1110523Y-568233D01*
X1105000Y-573756D01*
X1083376D01*
X1082135Y-571216D01*
X1082469Y-570716D01*
X1082818Y-568960D01*
X1082469Y-567204D01*
X1081474Y-565716D01*
X1079986Y-564721D01*
X1079702Y-564665D01*
X1070954Y-555916D01*
X1069631Y-555032D01*
X1068070Y-554722D01*
X1068070Y-554722D01*
X932918D01*
X931866Y-552182D01*
X1138264Y-345784D01*
X1138264Y-345784D01*
X1139148Y-344461D01*
X1139458Y-342900D01*
Y-254419D01*
X1171359Y-222518D01*
X1309370D01*
X1309370Y-222518D01*
X1310931Y-222208D01*
X1312254Y-221324D01*
X1398689Y-134888D01*
X1448106D01*
X1448725Y-135507D01*
X1448781Y-135790D01*
X1449776Y-137279D01*
X1451264Y-138273D01*
X1453020Y-138622D01*
X1454776Y-138273D01*
X1456264Y-137279D01*
X1457259Y-135790D01*
X1457608Y-134034D01*
X1457259Y-132278D01*
X1456264Y-130790D01*
X1454776Y-129795D01*
X1454492Y-129739D01*
X1452679Y-127926D01*
X1451356Y-127042D01*
X1449796Y-126732D01*
X1449796Y-126732D01*
X1397000D01*
X1397000Y-126732D01*
X1395439Y-127042D01*
X1394116Y-127926D01*
X1394116Y-127926D01*
X1307681Y-214362D01*
X1233778D01*
X1233680Y-214238D01*
X1232856Y-211822D01*
X1309789Y-134888D01*
X1351534D01*
X1351577Y-135106D01*
X1352571Y-136594D01*
X1354060Y-137589D01*
X1355816Y-137938D01*
X1357572Y-137589D01*
X1359060Y-136594D01*
X1360055Y-135106D01*
X1360404Y-133350D01*
X1360055Y-131594D01*
X1359060Y-130106D01*
X1357572Y-129111D01*
X1357288Y-129055D01*
X1356160Y-127926D01*
X1354836Y-127042D01*
X1353276Y-126732D01*
X1353276Y-126732D01*
X1308100D01*
X1308100Y-126732D01*
X1306539Y-127042D01*
X1305216Y-127926D01*
X1227671Y-205472D01*
X1163320D01*
X1163320Y-205472D01*
X1161759Y-205782D01*
X1160436Y-206666D01*
X1160436Y-206666D01*
X1125488Y-241614D01*
X1122948Y-240562D01*
Y-222669D01*
X1210729Y-134888D01*
X1256283D01*
X1256327Y-135106D01*
X1257321Y-136594D01*
X1258810Y-137589D01*
X1260566Y-137938D01*
X1262321Y-137589D01*
X1263810Y-136594D01*
X1264805Y-135106D01*
X1265154Y-133350D01*
X1264805Y-131594D01*
X1263810Y-130106D01*
X1262321Y-129111D01*
X1262038Y-129055D01*
X1260910Y-127926D01*
X1259586Y-127042D01*
X1258026Y-126732D01*
X1258026Y-126732D01*
X1209040D01*
X1207479Y-127042D01*
X1206156Y-127926D01*
X1206156Y-127926D01*
X1116598Y-217484D01*
X1114182Y-216660D01*
X1114058Y-216562D01*
Y-187835D01*
X1165518Y-136375D01*
X1165801Y-136319D01*
X1167290Y-135324D01*
X1168285Y-133836D01*
X1168634Y-132080D01*
X1168285Y-130324D01*
X1167290Y-128836D01*
X1165801Y-127841D01*
X1164046Y-127492D01*
X1162290Y-127841D01*
X1160801Y-128836D01*
X1159807Y-130324D01*
X1159750Y-130608D01*
X1107708Y-182650D01*
X1105292Y-181826D01*
X1105168Y-181728D01*
Y-165644D01*
X1105168Y-165644D01*
X1104858Y-164084D01*
X1103974Y-162761D01*
X1071961Y-130748D01*
X1071905Y-130464D01*
X1070910Y-128976D01*
X1069421Y-127981D01*
X1067666Y-127632D01*
X1065910Y-127981D01*
X1064421Y-128976D01*
X1063427Y-130464D01*
X1063077Y-132220D01*
X1063427Y-133976D01*
X1064421Y-135464D01*
X1065910Y-136459D01*
X1066193Y-136515D01*
X1097012Y-167334D01*
Y-329781D01*
X917791Y-509002D01*
X701040D01*
X701040Y-509002D01*
X699479Y-509312D01*
X698156Y-510196D01*
X698156Y-510196D01*
X688352Y-520000D01*
X630656D01*
X630188Y-519430D01*
Y-231027D01*
X676687Y-184528D01*
X924911D01*
X924911Y-184528D01*
X926472Y-184218D01*
X927795Y-183334D01*
X972800Y-138330D01*
X973083Y-138273D01*
X974571Y-137279D01*
X975566Y-135790D01*
X975915Y-134034D01*
X975566Y-132278D01*
X974571Y-130790D01*
X973083Y-129795D01*
X971327Y-129446D01*
X969571Y-129795D01*
X968083Y-130790D01*
X967088Y-132278D01*
X967032Y-132562D01*
X923222Y-176372D01*
X840461D01*
X839409Y-173832D01*
X875595Y-137645D01*
X875879Y-137589D01*
X877367Y-136594D01*
X878362Y-135106D01*
X878711Y-133350D01*
X878362Y-131594D01*
X877367Y-130106D01*
X875879Y-129111D01*
X874123Y-128762D01*
X872367Y-129111D01*
X870879Y-130106D01*
X869884Y-131594D01*
X869828Y-131878D01*
X833064Y-168642D01*
X752811D01*
X752712Y-168518D01*
X751889Y-166102D01*
X780345Y-137645D01*
X780629Y-137589D01*
X782117Y-136594D01*
X783112Y-135106D01*
X783461Y-133350D01*
X783112Y-131594D01*
X782117Y-130106D01*
X780629Y-129111D01*
X778873Y-128762D01*
X777117Y-129111D01*
X775629Y-130106D01*
X774634Y-131594D01*
X774577Y-131878D01*
X746703Y-159752D01*
X664041D01*
X662989Y-157212D01*
X683825Y-136375D01*
X684109Y-136319D01*
X685597Y-135324D01*
X686592Y-133836D01*
X686941Y-132080D01*
X686592Y-130324D01*
X685597Y-128836D01*
X684109Y-127841D01*
X682353Y-127492D01*
X680597Y-127841D01*
X679109Y-128836D01*
X678114Y-130324D01*
X678058Y-130608D01*
X600366Y-208299D01*
X600128Y-208655D01*
X597588Y-207884D01*
Y-139757D01*
X597588Y-139757D01*
X597278Y-138196D01*
X596394Y-136873D01*
X590268Y-130748D01*
X590212Y-130464D01*
X589217Y-128976D01*
X587729Y-127981D01*
X585973Y-127632D01*
X584217Y-127981D01*
X582729Y-128976D01*
X581734Y-130464D01*
X581385Y-132220D01*
X581734Y-133976D01*
X582729Y-135464D01*
X584217Y-136459D01*
X584500Y-136515D01*
X589432Y-141447D01*
Y-497001D01*
X566432Y-520000D01*
X438098D01*
Y-262359D01*
X492518Y-207940D01*
X492518Y-207940D01*
X493402Y-206616D01*
X493713Y-205056D01*
Y-136030D01*
X493873Y-135790D01*
X494222Y-134034D01*
X493873Y-132278D01*
X492879Y-130790D01*
X491390Y-129795D01*
X489634Y-129446D01*
X487878Y-129795D01*
X486390Y-130790D01*
X485395Y-132278D01*
X485046Y-134034D01*
X485395Y-135790D01*
X485556Y-136030D01*
Y-203366D01*
X432225Y-256697D01*
X429660Y-256957D01*
X428915Y-256538D01*
X396508Y-224131D01*
Y-135346D01*
X396669Y-135106D01*
X397018Y-133350D01*
X396669Y-131594D01*
X395674Y-130106D01*
X394186Y-129111D01*
X392430Y-128762D01*
X390674Y-129111D01*
X389186Y-130106D01*
X388191Y-131594D01*
X387842Y-133350D01*
X388191Y-135106D01*
X388352Y-135346D01*
Y-223046D01*
X385812Y-224098D01*
X368540Y-206826D01*
X367217Y-205942D01*
X365656Y-205632D01*
X365656Y-205632D01*
X336969D01*
X301258Y-169921D01*
Y-135346D01*
X301419Y-135106D01*
X301768Y-133350D01*
X301419Y-131594D01*
X300424Y-130106D01*
X298936Y-129111D01*
X297180Y-128762D01*
X295424Y-129111D01*
X293936Y-130106D01*
X292941Y-131594D01*
X292592Y-133350D01*
X292941Y-135106D01*
X293102Y-135346D01*
Y-171610D01*
X293102Y-171610D01*
X293412Y-173171D01*
X294296Y-174494D01*
X330434Y-210632D01*
X329382Y-213172D01*
X287519D01*
X204955Y-130608D01*
X204899Y-130324D01*
X203904Y-128836D01*
X202416Y-127841D01*
X200660Y-127492D01*
X198904Y-127841D01*
X197416Y-128836D01*
X196421Y-130324D01*
X196072Y-132080D01*
X196421Y-133836D01*
X197416Y-135324D01*
X198904Y-136319D01*
X199188Y-136375D01*
X280984Y-218172D01*
X279932Y-220712D01*
X198539D01*
X108575Y-130748D01*
X108519Y-130464D01*
X107524Y-128976D01*
X106036Y-127981D01*
X104280Y-127632D01*
X102524Y-127981D01*
X101036Y-128976D01*
X100041Y-130464D01*
X99692Y-132220D01*
X100041Y-133976D01*
X101036Y-135464D01*
X102524Y-136459D01*
X102808Y-136515D01*
X193966Y-227674D01*
X193966Y-227674D01*
X195289Y-228558D01*
X196850Y-228868D01*
X357721D01*
X399782Y-270929D01*
Y-475831D01*
X381926Y-493686D01*
X381042Y-495009D01*
X380732Y-496570D01*
X380732Y-496570D01*
Y-520000D01*
X2039D01*
Y-50000D01*
X1934Y-49472D01*
X2307Y-43778D01*
X3532Y-37623D01*
X5549Y-31681D01*
X8324Y-26052D01*
X11811Y-20834D01*
X15949Y-16116D01*
X20667Y-11978D01*
X25885Y-8492D01*
X31513Y-5716D01*
X37455Y-3699D01*
X43610Y-2475D01*
X49858Y-2065D01*
X49872Y-2079D01*
Y-2079D01*
X50074Y-2039D01*
X1450000D01*
X1450529Y-1934D01*
X1456222Y-2307D01*
D02*
G37*
G36*
X1117998Y-572330D02*
X1117827Y-572172D01*
X1117642Y-572031D01*
X1117442Y-571907D01*
X1117227Y-571799D01*
X1116997Y-571707D01*
X1116752Y-571633D01*
X1116492Y-571575D01*
X1116217Y-571533D01*
X1115927Y-571508D01*
X1115622Y-571500D01*
Y-568960D01*
X1115927Y-568952D01*
X1116217Y-568927D01*
X1116492Y-568885D01*
X1116752Y-568827D01*
X1116997Y-568753D01*
X1117227Y-568661D01*
X1117442Y-568553D01*
X1117642Y-568429D01*
X1117827Y-568288D01*
X1117998Y-568130D01*
Y-572330D01*
D02*
G37*
G36*
X1113240Y-580235D02*
X1113087Y-580139D01*
X1112926Y-580078D01*
X1112756Y-580051D01*
X1112578Y-580060D01*
X1112391Y-580103D01*
X1112195Y-580181D01*
X1111991Y-580293D01*
X1111778Y-580440D01*
X1111557Y-580622D01*
X1111327Y-580839D01*
X1109920Y-578654D01*
X1112491Y-576301D01*
X1113240Y-580235D01*
D02*
G37*
G36*
X1117310Y-589006D02*
X1117227Y-588816D01*
X1117119Y-588647D01*
X1116986Y-588498D01*
X1116827Y-588368D01*
X1116642Y-588259D01*
X1116433Y-588169D01*
X1116198Y-588100D01*
X1115937Y-588050D01*
X1115651Y-588020D01*
X1115340Y-588010D01*
X1116744Y-585470D01*
X1117064Y-585467D01*
X1118367Y-585378D01*
X1118568Y-585345D01*
X1118911Y-585263D01*
X1119052Y-585214D01*
X1117310Y-589006D01*
D02*
G37*
G36*
X972906Y-581273D02*
X973288Y-581904D01*
X973925Y-582461D01*
X974817Y-582943D01*
X975964Y-583352D01*
X977366Y-583686D01*
X979022Y-583946D01*
X980933Y-584132D01*
X985520Y-584280D01*
Y-594280D01*
X983099Y-594317D01*
X979022Y-594614D01*
X977366Y-594874D01*
X975964Y-595208D01*
X974817Y-595616D01*
X973925Y-596099D01*
X973288Y-596656D01*
X972906Y-597287D01*
X972779Y-597993D01*
Y-580568D01*
X972906Y-581273D01*
D02*
G37*
G36*
X796063Y-600038D02*
X796248Y-600179D01*
X796448Y-600303D01*
X796663Y-600411D01*
X796893Y-600503D01*
X797138Y-600577D01*
X797398Y-600635D01*
X797673Y-600677D01*
X797963Y-600702D01*
X798268Y-600710D01*
Y-603250D01*
X797963Y-603258D01*
X797673Y-603283D01*
X797398Y-603325D01*
X797138Y-603383D01*
X796893Y-603457D01*
X796663Y-603549D01*
X796448Y-603657D01*
X796248Y-603781D01*
X796063Y-603922D01*
X795892Y-604080D01*
Y-599880D01*
X796063Y-600038D01*
D02*
G37*
G36*
X791608Y-604080D02*
X791437Y-603922D01*
X791252Y-603781D01*
X791052Y-603657D01*
X790837Y-603549D01*
X790607Y-603457D01*
X790362Y-603383D01*
X790102Y-603325D01*
X789827Y-603283D01*
X789537Y-603258D01*
X789232Y-603250D01*
Y-600710D01*
X789537Y-600702D01*
X789827Y-600677D01*
X790102Y-600635D01*
X790362Y-600577D01*
X790607Y-600503D01*
X790837Y-600411D01*
X791052Y-600303D01*
X791252Y-600179D01*
X791437Y-600038D01*
X791608Y-599880D01*
Y-604080D01*
D02*
G37*
G36*
X714673Y-606498D02*
X714858Y-606639D01*
X715058Y-606763D01*
X715273Y-606871D01*
X715503Y-606963D01*
X715748Y-607037D01*
X716008Y-607095D01*
X716283Y-607137D01*
X716573Y-607162D01*
X716878Y-607170D01*
Y-609710D01*
X716573Y-609718D01*
X716283Y-609743D01*
X716008Y-609785D01*
X715748Y-609843D01*
X715503Y-609917D01*
X715273Y-610009D01*
X715058Y-610117D01*
X714858Y-610241D01*
X714673Y-610382D01*
X714502Y-610540D01*
Y-606340D01*
X714673Y-606498D01*
D02*
G37*
G36*
X791608Y-612970D02*
X791437Y-612812D01*
X791252Y-612671D01*
X791052Y-612547D01*
X790837Y-612439D01*
X790607Y-612347D01*
X790362Y-612273D01*
X790102Y-612215D01*
X789827Y-612173D01*
X789537Y-612148D01*
X789232Y-612140D01*
Y-609600D01*
X789537Y-609592D01*
X789827Y-609567D01*
X790102Y-609525D01*
X790362Y-609467D01*
X790607Y-609393D01*
X790837Y-609301D01*
X791052Y-609193D01*
X791252Y-609069D01*
X791437Y-608928D01*
X791608Y-608770D01*
Y-612970D01*
D02*
G37*
G36*
X825843Y-614993D02*
X825631Y-614939D01*
X825417Y-614915D01*
X825202Y-614920D01*
X824986Y-614954D01*
X824768Y-615019D01*
X824548Y-615112D01*
X824327Y-615235D01*
X824105Y-615387D01*
X823881Y-615569D01*
X823655Y-615781D01*
X822498Y-613346D01*
X822711Y-613126D01*
X823254Y-612482D01*
X823402Y-612273D01*
X823650Y-611864D01*
X823749Y-611663D01*
X823832Y-611466D01*
X823899Y-611271D01*
X825843Y-614993D01*
D02*
G37*
G36*
X708433Y-612738D02*
X708618Y-612879D01*
X708818Y-613003D01*
X709033Y-613111D01*
X709263Y-613203D01*
X709508Y-613277D01*
X709768Y-613335D01*
X710043Y-613377D01*
X710333Y-613402D01*
X710638Y-613410D01*
Y-615950D01*
X710333Y-615958D01*
X710043Y-615983D01*
X709768Y-616025D01*
X709508Y-616083D01*
X709263Y-616157D01*
X709033Y-616249D01*
X708818Y-616357D01*
X708618Y-616481D01*
X708433Y-616622D01*
X708262Y-616780D01*
Y-612580D01*
X708433Y-612738D01*
D02*
G37*
G36*
X669063Y-625438D02*
X669248Y-625579D01*
X669448Y-625703D01*
X669663Y-625811D01*
X669893Y-625902D01*
X670138Y-625977D01*
X670398Y-626035D01*
X670673Y-626077D01*
X670963Y-626102D01*
X671268Y-626110D01*
Y-628650D01*
X670963Y-628658D01*
X670673Y-628683D01*
X670398Y-628725D01*
X670138Y-628783D01*
X669893Y-628857D01*
X669663Y-628949D01*
X669448Y-629057D01*
X669248Y-629181D01*
X669063Y-629322D01*
X668892Y-629480D01*
Y-625280D01*
X669063Y-625438D01*
D02*
G37*
G36*
X922086Y-623202D02*
X921992Y-623397D01*
X921910Y-623721D01*
X921838Y-624175D01*
X921777Y-624758D01*
X921662Y-627286D01*
X921640Y-629620D01*
X911640D01*
X911634Y-628388D01*
X911287Y-623397D01*
X911194Y-623202D01*
X911089Y-623138D01*
X922190D01*
X922086Y-623202D01*
D02*
G37*
G36*
X661807Y-631058D02*
X661957Y-631222D01*
X662126Y-631367D01*
X662316Y-631492D01*
X662524Y-631599D01*
X662753Y-631685D01*
X663002Y-631753D01*
X663270Y-631801D01*
X663558Y-631830D01*
X663865Y-631840D01*
X663235Y-634380D01*
X662930Y-634386D01*
X662360Y-634434D01*
X662094Y-634475D01*
X661840Y-634529D01*
X661600Y-634594D01*
X661372Y-634671D01*
X661158Y-634760D01*
X660956Y-634861D01*
X660767Y-634974D01*
X661676Y-630874D01*
X661807Y-631058D01*
D02*
G37*
%LPC*%
G36*
X1450000Y-18403D02*
X1445057Y-18792D01*
X1440236Y-19949D01*
X1435655Y-21846D01*
X1431427Y-24437D01*
X1427657Y-27657D01*
X1424437Y-31428D01*
X1421846Y-35655D01*
X1419949Y-40236D01*
X1418792Y-45057D01*
X1418403Y-50000D01*
X1418792Y-54943D01*
X1419949Y-59764D01*
X1421846Y-64345D01*
X1424437Y-68573D01*
X1427657Y-72343D01*
X1431427Y-75563D01*
X1435655Y-78154D01*
X1440236Y-80051D01*
X1445057Y-81208D01*
X1450000Y-81597D01*
X1454943Y-81208D01*
X1459764Y-80051D01*
X1464345Y-78154D01*
X1468573Y-75563D01*
X1472343Y-72343D01*
X1475563Y-68573D01*
X1478154Y-64345D01*
X1480051Y-59764D01*
X1481208Y-54943D01*
X1481597Y-50000D01*
X1481208Y-45057D01*
X1480051Y-40236D01*
X1478154Y-35655D01*
X1475563Y-31428D01*
X1472343Y-27657D01*
X1468573Y-24437D01*
X1464345Y-21846D01*
X1459764Y-19949D01*
X1454943Y-18792D01*
X1450000Y-18403D01*
D02*
G37*
G36*
X50000D02*
X45057Y-18792D01*
X40236Y-19949D01*
X35655Y-21846D01*
X31428Y-24437D01*
X27657Y-27657D01*
X24437Y-31428D01*
X21846Y-35655D01*
X19949Y-40236D01*
X18792Y-45057D01*
X18403Y-50000D01*
X18792Y-54943D01*
X19949Y-59764D01*
X21846Y-64345D01*
X24437Y-68573D01*
X27657Y-72343D01*
X31428Y-75563D01*
X35655Y-78154D01*
X40236Y-80051D01*
X45057Y-81208D01*
X50000Y-81597D01*
X54943Y-81208D01*
X59764Y-80051D01*
X64345Y-78154D01*
X68573Y-75563D01*
X72343Y-72343D01*
X75563Y-68573D01*
X78154Y-64345D01*
X80051Y-59764D01*
X81208Y-54943D01*
X81597Y-50000D01*
X81208Y-45057D01*
X80051Y-40236D01*
X78154Y-35655D01*
X75563Y-31428D01*
X72343Y-27657D01*
X68573Y-24437D01*
X64345Y-21846D01*
X59764Y-19949D01*
X54943Y-18792D01*
X50000Y-18403D01*
D02*
G37*
G36*
X330569Y-287552D02*
X319671D01*
X314222Y-293001D01*
Y-303899D01*
X319671Y-309348D01*
X330569D01*
X336018Y-303899D01*
Y-293001D01*
X330569Y-287552D01*
D02*
G37*
G36*
X305169D02*
X294271D01*
X288822Y-293001D01*
Y-303899D01*
X294271Y-309348D01*
X305169D01*
X310618Y-303899D01*
Y-293001D01*
X305169Y-287552D01*
D02*
G37*
G36*
X279769D02*
X268871D01*
X263422Y-293001D01*
Y-303899D01*
X268871Y-309348D01*
X279769D01*
X285218Y-303899D01*
Y-293001D01*
X279769Y-287552D01*
D02*
G37*
G36*
X254369D02*
X243471D01*
X238022Y-293001D01*
Y-303899D01*
X243471Y-309348D01*
X254369D01*
X259818Y-303899D01*
Y-293001D01*
X254369Y-287552D01*
D02*
G37*
G36*
X228969D02*
X218071D01*
X212622Y-293001D01*
Y-303899D01*
X218071Y-309348D01*
X228969D01*
X234418Y-303899D01*
Y-293001D01*
X228969Y-287552D01*
D02*
G37*
G36*
X1294499Y-292632D02*
X1283601D01*
X1278152Y-298081D01*
Y-308979D01*
X1283601Y-314428D01*
X1294499D01*
X1299948Y-308979D01*
Y-298081D01*
X1294499Y-292632D01*
D02*
G37*
G36*
X1269099D02*
X1258201D01*
X1252752Y-298081D01*
Y-308979D01*
X1258201Y-314428D01*
X1269099D01*
X1274548Y-308979D01*
Y-298081D01*
X1269099Y-292632D01*
D02*
G37*
G36*
X1243699D02*
X1232801D01*
X1227352Y-298081D01*
Y-308979D01*
X1232801Y-314428D01*
X1243699D01*
X1249148Y-308979D01*
Y-298081D01*
X1243699Y-292632D01*
D02*
G37*
G36*
X1218299D02*
X1207401D01*
X1201952Y-298081D01*
Y-308979D01*
X1207401Y-314428D01*
X1218299D01*
X1223748Y-308979D01*
Y-298081D01*
X1218299Y-292632D01*
D02*
G37*
G36*
X1192899D02*
X1182001D01*
X1176552Y-298081D01*
Y-308979D01*
X1182001Y-314428D01*
X1192899D01*
X1198348Y-308979D01*
Y-298081D01*
X1192899Y-292632D01*
D02*
G37*
G36*
X811899Y-296442D02*
X801001D01*
X795552Y-301891D01*
Y-312789D01*
X801001Y-318238D01*
X811899D01*
X817348Y-312789D01*
Y-301891D01*
X811899Y-296442D01*
D02*
G37*
G36*
X786499D02*
X775601D01*
X770152Y-301891D01*
Y-312789D01*
X775601Y-318238D01*
X786499D01*
X791948Y-312789D01*
Y-301891D01*
X786499Y-296442D01*
D02*
G37*
G36*
X761099D02*
X750201D01*
X744752Y-301891D01*
Y-312789D01*
X750201Y-318238D01*
X761099D01*
X766548Y-312789D01*
Y-301891D01*
X761099Y-296442D01*
D02*
G37*
G36*
X735699D02*
X724801D01*
X719352Y-301891D01*
Y-312789D01*
X724801Y-318238D01*
X735699D01*
X741148Y-312789D01*
Y-301891D01*
X735699Y-296442D01*
D02*
G37*
G36*
X710299D02*
X699401D01*
X693952Y-301891D01*
Y-312789D01*
X699401Y-318238D01*
X710299D01*
X715748Y-312789D01*
Y-301891D01*
X710299Y-296442D01*
D02*
G37*
G36*
X330569Y-312952D02*
X319671D01*
X314222Y-318401D01*
Y-329299D01*
X319671Y-334748D01*
X330569D01*
X336018Y-329299D01*
Y-318401D01*
X330569Y-312952D01*
D02*
G37*
G36*
X305169D02*
X294271D01*
X288822Y-318401D01*
Y-329299D01*
X294271Y-334748D01*
X305169D01*
X310618Y-329299D01*
Y-318401D01*
X305169Y-312952D01*
D02*
G37*
G36*
X279769D02*
X268871D01*
X263422Y-318401D01*
Y-329299D01*
X268871Y-334748D01*
X279769D01*
X285218Y-329299D01*
Y-318401D01*
X279769Y-312952D01*
D02*
G37*
G36*
X254369D02*
X243471D01*
X238022Y-318401D01*
Y-329299D01*
X243471Y-334748D01*
X254369D01*
X259818Y-329299D01*
Y-318401D01*
X254369Y-312952D01*
D02*
G37*
G36*
X228969D02*
X218071D01*
X212622Y-318401D01*
Y-329299D01*
X218071Y-334748D01*
X228969D01*
X234418Y-329299D01*
Y-318401D01*
X228969Y-312952D01*
D02*
G37*
G36*
X1294499Y-318032D02*
X1283601D01*
X1278152Y-323481D01*
Y-334379D01*
X1283601Y-339828D01*
X1294499D01*
X1299948Y-334379D01*
Y-323481D01*
X1294499Y-318032D01*
D02*
G37*
G36*
X1269099D02*
X1258201D01*
X1252752Y-323481D01*
Y-334379D01*
X1258201Y-339828D01*
X1269099D01*
X1274548Y-334379D01*
Y-323481D01*
X1269099Y-318032D01*
D02*
G37*
G36*
X1243699D02*
X1232801D01*
X1227352Y-323481D01*
Y-334379D01*
X1232801Y-339828D01*
X1243699D01*
X1249148Y-334379D01*
Y-323481D01*
X1243699Y-318032D01*
D02*
G37*
G36*
X1218299D02*
X1207401D01*
X1201952Y-323481D01*
Y-334379D01*
X1207401Y-339828D01*
X1218299D01*
X1223748Y-334379D01*
Y-323481D01*
X1218299Y-318032D01*
D02*
G37*
G36*
X1192899D02*
X1182001D01*
X1176552Y-323481D01*
Y-334379D01*
X1182001Y-339828D01*
X1192899D01*
X1198348Y-334379D01*
Y-323481D01*
X1192899Y-318032D01*
D02*
G37*
G36*
X811899Y-321842D02*
X801001D01*
X795552Y-327291D01*
Y-338189D01*
X801001Y-343638D01*
X811899D01*
X817348Y-338189D01*
Y-327291D01*
X811899Y-321842D01*
D02*
G37*
G36*
X786499D02*
X775601D01*
X770152Y-327291D01*
Y-338189D01*
X775601Y-343638D01*
X786499D01*
X791948Y-338189D01*
Y-327291D01*
X786499Y-321842D01*
D02*
G37*
G36*
X761099D02*
X750201D01*
X744752Y-327291D01*
Y-338189D01*
X750201Y-343638D01*
X761099D01*
X766548Y-338189D01*
Y-327291D01*
X761099Y-321842D01*
D02*
G37*
G36*
X735699D02*
X724801D01*
X719352Y-327291D01*
Y-338189D01*
X724801Y-343638D01*
X735699D01*
X741148Y-338189D01*
Y-327291D01*
X735699Y-321842D01*
D02*
G37*
G36*
X710299D02*
X699401D01*
X693952Y-327291D01*
Y-338189D01*
X699401Y-343638D01*
X710299D01*
X715748Y-338189D01*
Y-327291D01*
X710299Y-321842D01*
D02*
G37*
G36*
X995680Y-284633D02*
X990737Y-285022D01*
X985916Y-286179D01*
X981335Y-288076D01*
X977107Y-290667D01*
X973337Y-293887D01*
X970117Y-297658D01*
X967526Y-301885D01*
X965629Y-306466D01*
X964472Y-311287D01*
X964083Y-316230D01*
X964472Y-321173D01*
X965629Y-325994D01*
X967526Y-330575D01*
X970117Y-334803D01*
X973337Y-338573D01*
X977107Y-341793D01*
X981335Y-344384D01*
X985916Y-346281D01*
X990737Y-347438D01*
X995680Y-347827D01*
X1000623Y-347438D01*
X1005444Y-346281D01*
X1010025Y-344384D01*
X1014252Y-341793D01*
X1018023Y-338573D01*
X1021243Y-334803D01*
X1023833Y-330575D01*
X1025731Y-325994D01*
X1026888Y-321173D01*
X1027277Y-316230D01*
X1026888Y-311287D01*
X1025731Y-306466D01*
X1023833Y-301885D01*
X1021243Y-297658D01*
X1018023Y-293887D01*
X1014252Y-290667D01*
X1010025Y-288076D01*
X1005444Y-286179D01*
X1000623Y-285022D01*
X995680Y-284633D01*
D02*
G37*
G36*
X514350D02*
X509407Y-285022D01*
X504586Y-286179D01*
X500005Y-288076D01*
X495778Y-290667D01*
X492007Y-293887D01*
X488787Y-297658D01*
X486197Y-301885D01*
X484299Y-306466D01*
X483142Y-311287D01*
X482753Y-316230D01*
X483142Y-321173D01*
X484299Y-325994D01*
X486197Y-330575D01*
X488787Y-334803D01*
X492007Y-338573D01*
X495778Y-341793D01*
X500005Y-344384D01*
X504586Y-346281D01*
X509407Y-347438D01*
X514350Y-347827D01*
X519293Y-347438D01*
X524114Y-346281D01*
X528695Y-344384D01*
X532923Y-341793D01*
X536693Y-338573D01*
X539913Y-334803D01*
X542504Y-330575D01*
X544401Y-325994D01*
X545558Y-321173D01*
X545947Y-316230D01*
X545558Y-311287D01*
X544401Y-306466D01*
X542504Y-301885D01*
X539913Y-297658D01*
X536693Y-293887D01*
X532923Y-290667D01*
X528695Y-288076D01*
X524114Y-286179D01*
X519293Y-285022D01*
X514350Y-284633D01*
D02*
G37*
G36*
X75599Y-533932D02*
X64701D01*
X59252Y-539381D01*
Y-550279D01*
X64701Y-555728D01*
X75599D01*
X81048Y-550279D01*
Y-539381D01*
X75599Y-533932D01*
D02*
G37*
G36*
X50199D02*
X39301D01*
X33852Y-539381D01*
Y-550279D01*
X39301Y-555728D01*
X50199D01*
X55648Y-550279D01*
Y-539381D01*
X50199Y-533932D01*
D02*
G37*
G36*
X24799D02*
X13901D01*
X8452Y-539381D01*
Y-550279D01*
X13901Y-555728D01*
X24799D01*
X30248Y-550279D01*
Y-539381D01*
X24799Y-533932D01*
D02*
G37*
G36*
X161290Y-547862D02*
X159534Y-548211D01*
X158046Y-549206D01*
X157051Y-550694D01*
X156702Y-552450D01*
X155135Y-554017D01*
X153379Y-554366D01*
X151891Y-555361D01*
X150896Y-556849D01*
X149076Y-557101D01*
X147320Y-556752D01*
X145564Y-557101D01*
X144076Y-558096D01*
X143081Y-559584D01*
X142732Y-561340D01*
X142924Y-562307D01*
X142829Y-564916D01*
X141341Y-565911D01*
X140346Y-567399D01*
X139997Y-569155D01*
X138430Y-570722D01*
X136674Y-571071D01*
X135186Y-572066D01*
X134191Y-573554D01*
X133842Y-575310D01*
X134191Y-577066D01*
X135186Y-578554D01*
X136674Y-579549D01*
X138430Y-579898D01*
X140186Y-579549D01*
X140197Y-579542D01*
X140246Y-579543D01*
X140290Y-579567D01*
X140387Y-579633D01*
X140511Y-579734D01*
X140695Y-579906D01*
X140851Y-579965D01*
X163593Y-602707D01*
X163593Y-602707D01*
X164509Y-603319D01*
X165590Y-603534D01*
X165590Y-603534D01*
X283020D01*
X301243Y-621757D01*
X301243Y-621757D01*
X302159Y-622369D01*
X303240Y-622584D01*
X306434D01*
X306588Y-622653D01*
X306845Y-622660D01*
X307036Y-622676D01*
X307203Y-622702D01*
X307348Y-622734D01*
X307470Y-622771D01*
X307572Y-622812D01*
X307658Y-622855D01*
X307729Y-622899D01*
X307791Y-622946D01*
X307904Y-623051D01*
X308064Y-623110D01*
X309394Y-623999D01*
X311150Y-624348D01*
X312906Y-623999D01*
X314394Y-623004D01*
X315389Y-621516D01*
X315738Y-619760D01*
X315389Y-618004D01*
X314394Y-616516D01*
X312906Y-615521D01*
X311150Y-615172D01*
X309394Y-615521D01*
X308064Y-616410D01*
X307904Y-616469D01*
X307791Y-616574D01*
X307729Y-616621D01*
X307658Y-616665D01*
X307572Y-616708D01*
X307470Y-616749D01*
X307348Y-616786D01*
X307203Y-616818D01*
X307036Y-616844D01*
X306845Y-616860D01*
X306588Y-616867D01*
X306434Y-616936D01*
X304410D01*
X296135Y-608661D01*
X297424Y-606357D01*
X298450Y-606562D01*
X300206Y-606212D01*
X301694Y-605218D01*
X302689Y-603729D01*
X302703Y-603659D01*
X305459Y-602823D01*
X306613Y-603977D01*
X306613Y-603977D01*
X307529Y-604589D01*
X308610Y-604804D01*
X308610Y-604804D01*
X308895D01*
X309176Y-605224D01*
X310664Y-606219D01*
X312420Y-606568D01*
X314176Y-606219D01*
X315664Y-605224D01*
X316659Y-603736D01*
X317008Y-601980D01*
X316659Y-600224D01*
X316606Y-600146D01*
X317803Y-597365D01*
X317986Y-597329D01*
X319474Y-596334D01*
X320469Y-594846D01*
X320818Y-593090D01*
X320654Y-592265D01*
X322220Y-590276D01*
X322580Y-590058D01*
X324336Y-589709D01*
X325824Y-588714D01*
X326819Y-587226D01*
X327168Y-585470D01*
X326819Y-583714D01*
X325824Y-582226D01*
X324336Y-581231D01*
X322580Y-580882D01*
X320824Y-581231D01*
X319494Y-582120D01*
X319334Y-582179D01*
X319221Y-582284D01*
X319159Y-582331D01*
X319088Y-582375D01*
X319002Y-582418D01*
X318900Y-582459D01*
X318778Y-582496D01*
X318633Y-582528D01*
X318466Y-582554D01*
X318275Y-582570D01*
X318018Y-582577D01*
X317864Y-582646D01*
X312320D01*
X306835Y-577160D01*
X305918Y-576548D01*
X304837Y-576333D01*
X304837Y-576333D01*
X246108D01*
X245337Y-573793D01*
X245814Y-573474D01*
X246809Y-571986D01*
X246865Y-571702D01*
X254419Y-564148D01*
X369151D01*
X378116Y-573114D01*
X379439Y-573998D01*
X381000Y-574308D01*
X381000Y-574308D01*
X393138D01*
X393238Y-574353D01*
X394144Y-574377D01*
X394888Y-574442D01*
X395503Y-574544D01*
X395982Y-574672D01*
X396321Y-574810D01*
X396524Y-574933D01*
X396616Y-575018D01*
X396648Y-575065D01*
X396666Y-575117D01*
X396696Y-575401D01*
X396750Y-575499D01*
Y-577230D01*
X398480D01*
X398579Y-577284D01*
X398863Y-577314D01*
X398915Y-577332D01*
X398962Y-577364D01*
X399047Y-577456D01*
X399170Y-577658D01*
X399308Y-577998D01*
X399436Y-578477D01*
X399538Y-579092D01*
X399603Y-579836D01*
X399611Y-580141D01*
X395896Y-583856D01*
X395012Y-585179D01*
X394702Y-586740D01*
X394702Y-586740D01*
Y-593634D01*
X394541Y-593874D01*
X394192Y-595630D01*
X394541Y-597386D01*
X395536Y-598874D01*
X397024Y-599869D01*
X398780Y-600218D01*
X400536Y-599869D01*
X400776Y-599708D01*
X403441D01*
X420026Y-616294D01*
X420026Y-616294D01*
X421349Y-617178D01*
X422910Y-617488D01*
X464880D01*
X464880Y-617488D01*
X466441Y-617178D01*
X467764Y-616294D01*
X469529Y-614528D01*
X476172D01*
Y-630110D01*
X476172Y-630110D01*
X476482Y-631671D01*
X477204Y-632751D01*
X477285Y-632975D01*
X477785Y-633521D01*
X478189Y-634048D01*
X478546Y-634610D01*
X478857Y-635211D01*
X479123Y-635853D01*
X479343Y-636539D01*
X479517Y-637273D01*
X479643Y-638054D01*
X479720Y-638885D01*
X479747Y-639813D01*
X479792Y-639912D01*
Y-650784D01*
X479631Y-651024D01*
X479282Y-652780D01*
X479631Y-654536D01*
X479792Y-654776D01*
Y-677454D01*
X479631Y-677694D01*
X479282Y-679450D01*
X479631Y-681206D01*
X480626Y-682694D01*
X482114Y-683689D01*
X483870Y-684038D01*
X485626Y-683689D01*
X487114Y-682694D01*
X488109Y-681206D01*
X488458Y-679450D01*
X488109Y-677694D01*
X487948Y-677454D01*
Y-665535D01*
X487991Y-665445D01*
X488036Y-664594D01*
X488148Y-663960D01*
X488316Y-663456D01*
X488526Y-663067D01*
X488774Y-662764D01*
X489077Y-662515D01*
X489466Y-662306D01*
X489970Y-662138D01*
X490604Y-662026D01*
X491292Y-661990D01*
X491934Y-662007D01*
X492678Y-662072D01*
X493293Y-662174D01*
X493772Y-662302D01*
X494112Y-662440D01*
X494314Y-662563D01*
X494406Y-662648D01*
X494438Y-662695D01*
X494456Y-662747D01*
X494486Y-663031D01*
X494540Y-663130D01*
Y-664860D01*
X508540D01*
Y-650860D01*
X494540D01*
Y-652590D01*
X494486Y-652689D01*
X494456Y-652973D01*
X494438Y-653025D01*
X494407Y-653072D01*
X494314Y-653157D01*
X494112Y-653280D01*
X493772Y-653418D01*
X493293Y-653546D01*
X492678Y-653648D01*
X491934Y-653713D01*
X491224Y-653732D01*
X490861Y-653722D01*
X488458Y-652780D01*
X488109Y-651024D01*
X487948Y-650784D01*
Y-641618D01*
X540294D01*
X540534Y-641779D01*
X542290Y-642128D01*
X544046Y-641779D01*
X545534Y-640784D01*
X546529Y-639296D01*
X546878Y-637540D01*
X546529Y-635784D01*
X545534Y-634296D01*
X544046Y-633301D01*
X542290Y-632952D01*
X540534Y-633301D01*
X540294Y-633462D01*
X489369D01*
X486842Y-630934D01*
X486799Y-630828D01*
X486790Y-630824D01*
X486786Y-630814D01*
X486677Y-630769D01*
X484328Y-628421D01*
Y-611786D01*
X484489Y-611546D01*
X484838Y-609790D01*
X484489Y-608034D01*
X483494Y-606546D01*
X482006Y-605551D01*
X481722Y-605495D01*
X471438Y-595211D01*
Y-591310D01*
X471438Y-591310D01*
X474360D01*
Y-577310D01*
X460360D01*
Y-591310D01*
X463282D01*
X463282Y-591310D01*
Y-596900D01*
X463282Y-596900D01*
X463592Y-598461D01*
X464476Y-599784D01*
X468784Y-604092D01*
X468447Y-604905D01*
X467533Y-606433D01*
X466279Y-606682D01*
X464956Y-607566D01*
X464956Y-607566D01*
X463190Y-609332D01*
X424599D01*
X408014Y-592746D01*
X406691Y-591862D01*
X405130Y-591552D01*
X402858Y-590943D01*
Y-588429D01*
X406634Y-584654D01*
X406634Y-584654D01*
X407518Y-583331D01*
X407828Y-581770D01*
X407828Y-581770D01*
Y-580842D01*
X407873Y-580742D01*
X407897Y-579836D01*
X407962Y-579092D01*
X408064Y-578477D01*
X408192Y-577998D01*
X408330Y-577659D01*
X408453Y-577456D01*
X408538Y-577364D01*
X408585Y-577332D01*
X408637Y-577314D01*
X408921Y-577284D01*
X409020Y-577230D01*
X410750D01*
Y-563230D01*
X396750D01*
Y-564960D01*
X396696Y-565059D01*
X396666Y-565343D01*
X396648Y-565395D01*
X396617Y-565442D01*
X396524Y-565527D01*
X396321Y-565650D01*
X395982Y-565788D01*
X395503Y-565916D01*
X394888Y-566018D01*
X394144Y-566083D01*
X393238Y-566107D01*
X393138Y-566152D01*
X382689D01*
X373724Y-557186D01*
X372401Y-556302D01*
X370840Y-555992D01*
X370840Y-555992D01*
X252730D01*
X251169Y-556302D01*
X249846Y-557186D01*
X249846Y-557186D01*
X241098Y-565935D01*
X240814Y-565991D01*
X239326Y-566986D01*
X238331Y-568474D01*
X237982Y-570230D01*
X238331Y-571986D01*
X239326Y-573474D01*
X239803Y-573793D01*
X239032Y-576333D01*
X181547D01*
X164114Y-558900D01*
Y-557166D01*
X164183Y-557012D01*
X164190Y-556755D01*
X164206Y-556564D01*
X164232Y-556397D01*
X164264Y-556253D01*
X164301Y-556130D01*
X164342Y-556028D01*
X164385Y-555942D01*
X164429Y-555871D01*
X164476Y-555809D01*
X164581Y-555696D01*
X164640Y-555536D01*
X165529Y-554206D01*
X165878Y-552450D01*
X165529Y-550694D01*
X164534Y-549206D01*
X163046Y-548211D01*
X161290Y-547862D01*
D02*
G37*
G36*
X475400Y-558270D02*
X469860D01*
Y-563810D01*
X475400D01*
Y-558270D01*
D02*
G37*
G36*
X464860D02*
X459320D01*
Y-563810D01*
X464860D01*
Y-558270D01*
D02*
G37*
G36*
X25319Y-558292D02*
X21850D01*
Y-567730D01*
X31288D01*
Y-564261D01*
X25319Y-558292D01*
D02*
G37*
G36*
X429790Y-562190D02*
X424250D01*
Y-567730D01*
X429790D01*
Y-562190D01*
D02*
G37*
G36*
X419250D02*
X413710D01*
Y-567730D01*
X419250D01*
Y-562190D01*
D02*
G37*
G36*
X16850Y-558292D02*
X13381D01*
X7412Y-564261D01*
Y-567730D01*
X16850D01*
Y-558292D01*
D02*
G37*
G36*
X475400Y-568810D02*
X469860D01*
Y-574350D01*
X475400D01*
Y-568810D01*
D02*
G37*
G36*
X464860D02*
X459320D01*
Y-574350D01*
X464860D01*
Y-568810D01*
D02*
G37*
G36*
X429790Y-572730D02*
X424250D01*
Y-578270D01*
X429790D01*
Y-572730D01*
D02*
G37*
G36*
X419250D02*
X413710D01*
Y-578270D01*
X419250D01*
Y-572730D01*
D02*
G37*
G36*
X75599Y-559332D02*
X64701D01*
X59252Y-564781D01*
Y-575679D01*
X64701Y-581128D01*
X75599D01*
X81048Y-575679D01*
Y-564781D01*
X75599Y-559332D01*
D02*
G37*
G36*
X50199D02*
X39301D01*
X33852Y-564781D01*
Y-575679D01*
X39301Y-581128D01*
X50199D01*
X55648Y-575679D01*
Y-564781D01*
X50199Y-559332D01*
D02*
G37*
G36*
X31288Y-572730D02*
X21850D01*
Y-582168D01*
X25319D01*
X31288Y-576199D01*
Y-572730D01*
D02*
G37*
G36*
X16850D02*
X7412D01*
Y-576199D01*
X13381Y-582168D01*
X16850D01*
Y-572730D01*
D02*
G37*
G36*
X339090Y-577072D02*
X337334Y-577421D01*
X335846Y-578416D01*
X334851Y-579904D01*
X334502Y-581660D01*
X334851Y-583416D01*
X335846Y-584904D01*
X337334Y-585899D01*
X339090Y-586248D01*
X340846Y-585899D01*
X341086Y-585738D01*
X357384D01*
X358642Y-587201D01*
X357311Y-589397D01*
X357279Y-589432D01*
X334860D01*
X334860Y-589432D01*
X333299Y-589742D01*
X331976Y-590626D01*
X329998Y-592605D01*
X329714Y-592661D01*
X328226Y-593656D01*
X327231Y-595144D01*
X326882Y-596900D01*
X327231Y-598656D01*
X328226Y-600144D01*
X329714Y-601139D01*
X331470Y-601488D01*
X333226Y-601139D01*
X334714Y-600144D01*
X335709Y-598656D01*
X335765Y-598372D01*
X336304Y-597834D01*
X338864Y-598062D01*
X339953Y-600191D01*
X339931Y-600224D01*
X339582Y-601980D01*
X339931Y-603736D01*
X340339Y-604347D01*
X340765Y-605554D01*
X339802Y-607528D01*
X339656Y-607626D01*
X338661Y-609114D01*
X338312Y-610870D01*
X338661Y-612626D01*
X339656Y-614114D01*
X341144Y-615109D01*
X342900Y-615458D01*
X344656Y-615109D01*
X344896Y-614948D01*
X347561D01*
X348982Y-616369D01*
Y-640080D01*
X348982Y-640080D01*
X349292Y-641641D01*
X350176Y-642964D01*
X393432Y-686219D01*
Y-698740D01*
X390892Y-699511D01*
X390594Y-699066D01*
X389106Y-698071D01*
X387350Y-697722D01*
X385594Y-698071D01*
X384106Y-699066D01*
X383111Y-700554D01*
X382762Y-702310D01*
X383111Y-704066D01*
X383272Y-704306D01*
Y-706971D01*
X347561Y-742682D01*
X240030D01*
X238469Y-742992D01*
X237146Y-743876D01*
X237146Y-743876D01*
X192621Y-788402D01*
X114300D01*
X112739Y-788712D01*
X111416Y-789596D01*
X60616Y-840396D01*
X59732Y-841719D01*
X59422Y-843280D01*
X59422Y-843280D01*
Y-875030D01*
X59422Y-875030D01*
X59732Y-876591D01*
X60455Y-877672D01*
X60531Y-878056D01*
X61526Y-879544D01*
X63014Y-880539D01*
X63389Y-880613D01*
X64066Y-883216D01*
X63071Y-884704D01*
X62722Y-886460D01*
X63071Y-888216D01*
X64066Y-889704D01*
X64212Y-889802D01*
X65175Y-891776D01*
X64749Y-892983D01*
X64341Y-893594D01*
X63992Y-895350D01*
X64341Y-897106D01*
X65336Y-898594D01*
X66824Y-899589D01*
X67379Y-899699D01*
X68775Y-900735D01*
X69184Y-902408D01*
X69072Y-902970D01*
X69421Y-904726D01*
X70416Y-906214D01*
X71904Y-907209D01*
X73660Y-907558D01*
X75416Y-907209D01*
X75656Y-907048D01*
X86360D01*
X86360Y-907048D01*
X87921Y-906738D01*
X89244Y-905854D01*
X96204Y-898894D01*
X96204Y-898894D01*
X97088Y-897571D01*
X97398Y-896010D01*
X97398Y-896010D01*
Y-849439D01*
X123609Y-823228D01*
X209550D01*
X209550Y-823228D01*
X211111Y-822918D01*
X212434Y-822034D01*
X255689Y-778778D01*
X360680D01*
X360680Y-778778D01*
X362241Y-778468D01*
X363564Y-777584D01*
X411405Y-729743D01*
X413752Y-730715D01*
Y-854710D01*
X413752Y-854710D01*
X414062Y-856271D01*
X414946Y-857594D01*
X435342Y-877989D01*
Y-928370D01*
X435342Y-928370D01*
X435652Y-929931D01*
X436536Y-931254D01*
X450506Y-945224D01*
X450506Y-945224D01*
X451829Y-946108D01*
X453390Y-946418D01*
X491071D01*
X512736Y-968084D01*
X512736Y-968084D01*
X514059Y-968968D01*
X515620Y-969278D01*
X526324D01*
X526564Y-969439D01*
X528320Y-969788D01*
X530076Y-969439D01*
X531564Y-968444D01*
X532559Y-966956D01*
X532908Y-965200D01*
X532559Y-963444D01*
X531564Y-961956D01*
X530076Y-960961D01*
X528320Y-960612D01*
X526564Y-960961D01*
X526324Y-961122D01*
X517309D01*
X497526Y-941338D01*
X498578Y-938798D01*
X523240D01*
X523240Y-938798D01*
X524801Y-938488D01*
X526124Y-937604D01*
X528522Y-935205D01*
X528806Y-935149D01*
X530294Y-934154D01*
X531289Y-932666D01*
X531638Y-930910D01*
X531289Y-929154D01*
X530294Y-927666D01*
X528806Y-926671D01*
X527050Y-926322D01*
X525294Y-926671D01*
X523806Y-927666D01*
X522811Y-929154D01*
X522755Y-929438D01*
X521551Y-930642D01*
X460159D01*
X451118Y-921601D01*
Y-871220D01*
X451118Y-871220D01*
X450808Y-869659D01*
X449924Y-868336D01*
X449924Y-868336D01*
X438496Y-856908D01*
X439479Y-854300D01*
X440058Y-854262D01*
X443773Y-857977D01*
X444689Y-858589D01*
X445770Y-858804D01*
X514450D01*
X529338Y-873692D01*
X529398Y-873850D01*
X529576Y-874037D01*
X529699Y-874183D01*
X529799Y-874319D01*
X529879Y-874444D01*
X529939Y-874557D01*
X529982Y-874658D01*
X530012Y-874749D01*
X530031Y-874831D01*
X530042Y-874908D01*
X530048Y-875062D01*
X530119Y-875217D01*
X530431Y-876786D01*
X531426Y-878274D01*
X532914Y-879269D01*
X534670Y-879618D01*
X536426Y-879269D01*
X537914Y-878274D01*
X538909Y-876786D01*
X539258Y-875030D01*
X538909Y-873274D01*
X537914Y-871786D01*
X536426Y-870791D01*
X534857Y-870479D01*
X534702Y-870408D01*
X534548Y-870402D01*
X534471Y-870391D01*
X534389Y-870372D01*
X534298Y-870342D01*
X534197Y-870298D01*
X534084Y-870238D01*
X533959Y-870159D01*
X533823Y-870059D01*
X533677Y-869935D01*
X533490Y-869759D01*
X533332Y-869698D01*
X517617Y-853983D01*
X516701Y-853371D01*
X515620Y-853156D01*
X515620Y-853156D01*
X446940D01*
X443482Y-849698D01*
X443422Y-849540D01*
X443244Y-849353D01*
X443121Y-849207D01*
X443021Y-849071D01*
X442942Y-848946D01*
X442881Y-848833D01*
X442838Y-848732D01*
X442808Y-848641D01*
X442789Y-848559D01*
X442778Y-848482D01*
X442772Y-848328D01*
X442701Y-848173D01*
X442389Y-846604D01*
X441394Y-845116D01*
X439906Y-844121D01*
X438150Y-843772D01*
X436394Y-844121D01*
X434906Y-845116D01*
X433911Y-846604D01*
X433562Y-848360D01*
X433567Y-848388D01*
X431226Y-849639D01*
X429528Y-847941D01*
Y-748449D01*
X435954Y-742024D01*
X436838Y-740701D01*
X437148Y-739140D01*
X437148Y-739140D01*
Y-655320D01*
X436838Y-653759D01*
X435954Y-652436D01*
X435954Y-652436D01*
X362294Y-578776D01*
X360971Y-577892D01*
X359410Y-577582D01*
X359410Y-577582D01*
X341086D01*
X340846Y-577421D01*
X339090Y-577072D01*
D02*
G37*
G36*
X928578Y-591780D02*
X919140D01*
Y-601218D01*
X922609D01*
X928578Y-595249D01*
Y-591780D01*
D02*
G37*
G36*
X914140D02*
X904702D01*
Y-595249D01*
X910671Y-601218D01*
X914140D01*
Y-591780D01*
D02*
G37*
G36*
X88870Y-594201D02*
Y-605810D01*
X100479D01*
X100316Y-604573D01*
X98874Y-601091D01*
X96580Y-598100D01*
X93589Y-595806D01*
X90107Y-594363D01*
X88870Y-594201D01*
D02*
G37*
G36*
X83870D02*
X82633Y-594363D01*
X79151Y-595806D01*
X76160Y-598100D01*
X73866Y-601091D01*
X72423Y-604573D01*
X72260Y-605810D01*
X83870D01*
Y-594201D01*
D02*
G37*
G36*
X973409Y-602742D02*
X969940D01*
Y-612180D01*
X979378D01*
Y-608711D01*
X973409Y-602742D01*
D02*
G37*
G36*
X964940D02*
X961471D01*
X955502Y-608711D01*
Y-612180D01*
X964940D01*
Y-602742D01*
D02*
G37*
G36*
X100479Y-610810D02*
X88870D01*
Y-622419D01*
X90107Y-622257D01*
X93589Y-620814D01*
X96580Y-618520D01*
X98874Y-615529D01*
X100316Y-612047D01*
X100479Y-610810D01*
D02*
G37*
G36*
X83870D02*
X72260D01*
X72423Y-612047D01*
X73866Y-615529D01*
X76160Y-618520D01*
X79151Y-620814D01*
X82633Y-622257D01*
X83870Y-622419D01*
Y-610810D01*
D02*
G37*
G36*
X947489Y-603782D02*
X936591D01*
X931142Y-609231D01*
Y-620129D01*
X936591Y-625578D01*
X947489D01*
X952938Y-620129D01*
Y-609231D01*
X947489Y-603782D01*
D02*
G37*
G36*
X979378Y-617180D02*
X969940D01*
Y-626618D01*
X973409D01*
X979378Y-620649D01*
Y-617180D01*
D02*
G37*
G36*
X964940D02*
X955502D01*
Y-620649D01*
X961471Y-626618D01*
X964940D01*
Y-617180D01*
D02*
G37*
G36*
X1471970Y-626162D02*
X1464470D01*
Y-636310D01*
X1484289D01*
X1484187Y-635536D01*
X1482924Y-632486D01*
X1480914Y-629866D01*
X1478294Y-627856D01*
X1475244Y-626593D01*
X1471970Y-626162D01*
D02*
G37*
G36*
X1459470D02*
X1451970D01*
X1448696Y-626593D01*
X1445646Y-627856D01*
X1443026Y-629866D01*
X1441016Y-632486D01*
X1439753Y-635536D01*
X1439651Y-636310D01*
X1459470D01*
Y-626162D01*
D02*
G37*
G36*
X1420970D02*
X1413470D01*
Y-636310D01*
X1433289D01*
X1433187Y-635536D01*
X1431924Y-632486D01*
X1429914Y-629866D01*
X1427294Y-627856D01*
X1424244Y-626593D01*
X1420970Y-626162D01*
D02*
G37*
G36*
X1408470D02*
X1400970D01*
X1397696Y-626593D01*
X1394646Y-627856D01*
X1392026Y-629866D01*
X1390016Y-632486D01*
X1388753Y-635536D01*
X1388651Y-636310D01*
X1408470D01*
Y-626162D01*
D02*
G37*
G36*
X143470Y-611043D02*
X140890Y-611382D01*
X138486Y-612378D01*
X136422Y-613962D01*
X134838Y-616026D01*
X133842Y-618430D01*
X133503Y-621010D01*
X133842Y-623590D01*
X134838Y-625994D01*
X136422Y-628058D01*
X138486Y-629642D01*
X140890Y-630638D01*
X141018Y-630654D01*
Y-633216D01*
X140619Y-633269D01*
X137962Y-634370D01*
X135681Y-636120D01*
X133930Y-638402D01*
X132829Y-641059D01*
X132783Y-641410D01*
X143470D01*
X154157D01*
X154111Y-641059D01*
X153011Y-638402D01*
X151260Y-636120D01*
X148978Y-634370D01*
X146321Y-633269D01*
X145922Y-633216D01*
Y-630654D01*
X146050Y-630638D01*
X148454Y-629642D01*
X150518Y-628058D01*
X152102Y-625994D01*
X153098Y-623590D01*
X153437Y-621010D01*
X153098Y-618430D01*
X152102Y-616026D01*
X150518Y-613962D01*
X148454Y-612378D01*
X146050Y-611382D01*
X143470Y-611043D01*
D02*
G37*
G36*
X52070Y-608274D02*
X48590Y-608617D01*
X45244Y-609632D01*
X42161Y-611280D01*
X39458Y-613498D01*
X37240Y-616201D01*
X35592Y-619285D01*
X34577Y-622630D01*
X34234Y-626110D01*
X34577Y-629590D01*
X35592Y-632935D01*
X37240Y-636019D01*
X39458Y-638722D01*
X42161Y-640940D01*
X45244Y-642588D01*
X48590Y-643603D01*
X52070Y-643946D01*
X55550Y-643603D01*
X58896Y-642588D01*
X61979Y-640940D01*
X64682Y-638722D01*
X66900Y-636019D01*
X68548Y-632935D01*
X69563Y-629590D01*
X69906Y-626110D01*
X69563Y-622630D01*
X68548Y-619285D01*
X66900Y-616201D01*
X64682Y-613498D01*
X61979Y-611280D01*
X58896Y-609632D01*
X55550Y-608617D01*
X52070Y-608274D01*
D02*
G37*
G36*
X330200Y-643112D02*
X328444Y-643461D01*
X327114Y-644350D01*
X326954Y-644409D01*
X326841Y-644514D01*
X326779Y-644561D01*
X326708Y-644605D01*
X326622Y-644648D01*
X326520Y-644689D01*
X326398Y-644726D01*
X326253Y-644758D01*
X326086Y-644784D01*
X325895Y-644800D01*
X325638Y-644807D01*
X325484Y-644876D01*
X314596D01*
X314442Y-644807D01*
X314185Y-644800D01*
X313994Y-644784D01*
X313827Y-644758D01*
X313682Y-644726D01*
X313560Y-644689D01*
X313458Y-644648D01*
X313372Y-644605D01*
X313301Y-644561D01*
X313239Y-644514D01*
X313126Y-644409D01*
X312966Y-644350D01*
X311636Y-643461D01*
X309880Y-643112D01*
X308124Y-643461D01*
X306636Y-644456D01*
X305641Y-645944D01*
X305292Y-647700D01*
X305641Y-649456D01*
X306636Y-650944D01*
X308124Y-651939D01*
X309880Y-652288D01*
X311636Y-651939D01*
X312966Y-651050D01*
X313126Y-650991D01*
X313239Y-650886D01*
X313301Y-650839D01*
X313372Y-650795D01*
X313458Y-650752D01*
X313560Y-650711D01*
X313682Y-650674D01*
X313827Y-650642D01*
X313994Y-650616D01*
X314185Y-650600D01*
X314442Y-650593D01*
X315585Y-651099D01*
X315897Y-651678D01*
X316381Y-653967D01*
X315801Y-654834D01*
X315452Y-656590D01*
X315801Y-658346D01*
X316796Y-659834D01*
X318284Y-660829D01*
X319853Y-661141D01*
X320008Y-661212D01*
X320162Y-661218D01*
X320239Y-661229D01*
X320321Y-661248D01*
X320412Y-661278D01*
X320513Y-661321D01*
X320626Y-661382D01*
X320751Y-661461D01*
X320887Y-661561D01*
X321033Y-661685D01*
X321220Y-661861D01*
X321378Y-661922D01*
X322328Y-662872D01*
X322388Y-663030D01*
X322566Y-663217D01*
X322689Y-663363D01*
X322789Y-663499D01*
X322868Y-663624D01*
X322929Y-663737D01*
X322972Y-663838D01*
X323002Y-663929D01*
X323021Y-664011D01*
X323032Y-664088D01*
X323038Y-664242D01*
X323109Y-664397D01*
X323421Y-665966D01*
X324416Y-667454D01*
X325904Y-668449D01*
X327660Y-668798D01*
X329416Y-668449D01*
X330904Y-667454D01*
X331899Y-665966D01*
X332248Y-664210D01*
X331899Y-662454D01*
X330904Y-660966D01*
X329416Y-659971D01*
X327847Y-659659D01*
X327692Y-659588D01*
X327538Y-659582D01*
X327461Y-659571D01*
X327379Y-659552D01*
X327288Y-659522D01*
X327187Y-659479D01*
X327074Y-659418D01*
X326949Y-659339D01*
X326813Y-659239D01*
X326667Y-659115D01*
X326480Y-658939D01*
X326322Y-658878D01*
X325372Y-657928D01*
X325312Y-657770D01*
X325134Y-657583D01*
X325011Y-657437D01*
X324911Y-657301D01*
X324832Y-657176D01*
X324771Y-657063D01*
X324728Y-656962D01*
X324698Y-656871D01*
X324679Y-656789D01*
X324668Y-656712D01*
X324662Y-656558D01*
X324591Y-656403D01*
X324279Y-654834D01*
X323699Y-653967D01*
X324183Y-651678D01*
X324495Y-651099D01*
X325638Y-650593D01*
X325895Y-650600D01*
X326086Y-650616D01*
X326253Y-650642D01*
X326398Y-650674D01*
X326520Y-650711D01*
X326622Y-650752D01*
X326708Y-650795D01*
X326779Y-650839D01*
X326841Y-650886D01*
X326954Y-650991D01*
X327114Y-651050D01*
X328444Y-651939D01*
X330200Y-652288D01*
X331956Y-651939D01*
X333444Y-650944D01*
X334439Y-649456D01*
X334788Y-647700D01*
X334439Y-645944D01*
X333444Y-644456D01*
X331956Y-643461D01*
X330200Y-643112D01*
D02*
G37*
G36*
X1484289Y-641310D02*
X1464470D01*
Y-651458D01*
X1471970D01*
X1475244Y-651027D01*
X1478294Y-649764D01*
X1480914Y-647754D01*
X1482924Y-645134D01*
X1484187Y-642084D01*
X1484289Y-641310D01*
D02*
G37*
G36*
X1459470D02*
X1439651D01*
X1439753Y-642084D01*
X1441016Y-645134D01*
X1443026Y-647754D01*
X1445646Y-649764D01*
X1448696Y-651027D01*
X1451970Y-651458D01*
X1459470D01*
Y-641310D01*
D02*
G37*
G36*
X1433289D02*
X1413470D01*
Y-651458D01*
X1420970D01*
X1424244Y-651027D01*
X1427294Y-649764D01*
X1429914Y-647754D01*
X1431924Y-645134D01*
X1433187Y-642084D01*
X1433289Y-641310D01*
D02*
G37*
G36*
X1408470D02*
X1388651D01*
X1388753Y-642084D01*
X1390016Y-645134D01*
X1392026Y-647754D01*
X1394646Y-649764D01*
X1397696Y-651027D01*
X1400970Y-651458D01*
X1408470D01*
Y-641310D01*
D02*
G37*
G36*
X527580Y-649820D02*
X522040D01*
Y-655360D01*
X527580D01*
Y-649820D01*
D02*
G37*
G36*
X517040D02*
X511500D01*
Y-655360D01*
X517040D01*
Y-649820D01*
D02*
G37*
G36*
X180340Y-617712D02*
X178584Y-618061D01*
X177096Y-619056D01*
X176101Y-620544D01*
X176045Y-620828D01*
X162216Y-634656D01*
X161332Y-635979D01*
X161022Y-637540D01*
X161022Y-637540D01*
Y-652341D01*
X157061Y-656302D01*
X148731D01*
X148226Y-653762D01*
X148978Y-653450D01*
X151260Y-651700D01*
X153011Y-649418D01*
X154111Y-646761D01*
X154157Y-646410D01*
X143470D01*
X132783D01*
X132829Y-646761D01*
X133930Y-649418D01*
X135681Y-651700D01*
X137962Y-653450D01*
X138715Y-653762D01*
X138209Y-656302D01*
X130800D01*
X130800Y-656302D01*
X129239Y-656612D01*
X127916Y-657496D01*
X124106Y-661306D01*
X123222Y-662629D01*
X122912Y-664190D01*
X122912Y-664190D01*
Y-674350D01*
X122912Y-674350D01*
X123222Y-675911D01*
X124106Y-677234D01*
X129186Y-682314D01*
X129186Y-682314D01*
X130509Y-683198D01*
X132070Y-683509D01*
X132070Y-683509D01*
X153251D01*
X154672Y-684930D01*
Y-689171D01*
X153251Y-690592D01*
X124869D01*
X110151Y-675873D01*
X110107Y-675766D01*
X106199Y-671797D01*
X103990Y-669411D01*
X103745Y-669114D01*
X103573Y-668880D01*
X103561Y-668872D01*
X103557Y-668858D01*
X103323Y-668722D01*
X102318Y-667412D01*
X100254Y-665828D01*
X99787Y-665635D01*
Y-662885D01*
X100254Y-662692D01*
X102318Y-661108D01*
X103902Y-659044D01*
X104898Y-656640D01*
X105237Y-654060D01*
X104898Y-651480D01*
X103902Y-649076D01*
X102318Y-647012D01*
X100254Y-645428D01*
X97850Y-644432D01*
X95270Y-644093D01*
X92690Y-644432D01*
X90286Y-645428D01*
X88222Y-647012D01*
X86638Y-649076D01*
X85642Y-651480D01*
X85303Y-654060D01*
X85340Y-654341D01*
X82959Y-655716D01*
X82454Y-655328D01*
X80050Y-654332D01*
X77470Y-653992D01*
X74890Y-654332D01*
X72486Y-655328D01*
X70486Y-656862D01*
X70375Y-656906D01*
X69744Y-657510D01*
X69149Y-658014D01*
X68556Y-658451D01*
X67967Y-658823D01*
X67381Y-659132D01*
X66798Y-659381D01*
X66215Y-659572D01*
X65632Y-659707D01*
X65043Y-659788D01*
X64373Y-659818D01*
X64280Y-659862D01*
X48500D01*
X46940Y-660172D01*
X45616Y-661056D01*
X45616Y-661056D01*
X18696Y-687976D01*
X17812Y-689299D01*
X17502Y-690860D01*
X17502Y-690860D01*
Y-789214D01*
X17341Y-789454D01*
X16992Y-791210D01*
X17341Y-792966D01*
X18336Y-794454D01*
X19824Y-795449D01*
X21580Y-795798D01*
X23336Y-795449D01*
X24824Y-794454D01*
X27226D01*
X28714Y-795449D01*
X30470Y-795798D01*
X32226Y-795449D01*
X33714Y-794454D01*
X34709Y-792966D01*
X35058Y-791210D01*
X34709Y-789454D01*
X34548Y-789214D01*
Y-763372D01*
X37088Y-762736D01*
X37240Y-763019D01*
X39458Y-765722D01*
X42161Y-767940D01*
X45244Y-769588D01*
X48590Y-770603D01*
X52070Y-770946D01*
X55550Y-770603D01*
X58896Y-769588D01*
X61979Y-767940D01*
X64682Y-765722D01*
X66900Y-763019D01*
X68548Y-759936D01*
X69563Y-756590D01*
X69906Y-753110D01*
X69563Y-749630D01*
X68548Y-746284D01*
X66900Y-743201D01*
X64682Y-740498D01*
X61979Y-738280D01*
X58896Y-736632D01*
X55550Y-735617D01*
X52070Y-735274D01*
X48590Y-735617D01*
X45244Y-736632D01*
X42161Y-738280D01*
X39458Y-740498D01*
X37240Y-743201D01*
X37088Y-743484D01*
X34548Y-742848D01*
Y-701440D01*
X47570Y-688418D01*
X64268D01*
X64361Y-688462D01*
X65031Y-688492D01*
X65619Y-688573D01*
X66202Y-688708D01*
X66783Y-688900D01*
X67364Y-689149D01*
X67948Y-689459D01*
X68534Y-689831D01*
X69123Y-690269D01*
X69715Y-690774D01*
X70342Y-691380D01*
X70433Y-691416D01*
X72486Y-692992D01*
X72953Y-693185D01*
Y-695935D01*
X72486Y-696128D01*
X70422Y-697712D01*
X70200Y-698001D01*
X67665Y-698168D01*
X63975Y-694478D01*
X63919Y-694194D01*
X62924Y-692706D01*
X61436Y-691711D01*
X59680Y-691362D01*
X57924Y-691711D01*
X56436Y-692706D01*
X55441Y-694194D01*
X55092Y-695950D01*
X55441Y-697706D01*
X56436Y-699194D01*
X57924Y-700189D01*
X58208Y-700245D01*
X65586Y-707624D01*
X65586Y-707624D01*
X66909Y-708508D01*
X68454Y-708815D01*
X68838Y-709743D01*
X70422Y-711808D01*
X71948Y-712979D01*
X72065Y-715213D01*
X71906Y-715901D01*
X67588Y-720219D01*
Y-730101D01*
X72529Y-735042D01*
X82411D01*
X87352Y-730101D01*
Y-724842D01*
X89892Y-723589D01*
X90286Y-723892D01*
X92690Y-724888D01*
X95270Y-725227D01*
X97850Y-724888D01*
X100254Y-723892D01*
X102318Y-722308D01*
X103902Y-720244D01*
X104898Y-717840D01*
X105237Y-715260D01*
X104898Y-712680D01*
X103902Y-710276D01*
X102318Y-708212D01*
X100254Y-706628D01*
X99787Y-706435D01*
Y-703685D01*
X100254Y-703492D01*
X102318Y-701908D01*
X103902Y-699844D01*
X104898Y-697440D01*
X105237Y-694860D01*
X104898Y-692280D01*
X103902Y-689876D01*
X102318Y-687812D01*
X100254Y-686228D01*
X99787Y-686035D01*
Y-683285D01*
X100254Y-683092D01*
X101493Y-682141D01*
X101761Y-682070D01*
X101763Y-682068D01*
X101765Y-682067D01*
X102208Y-681728D01*
X102530Y-681548D01*
X102811Y-681448D01*
X103068Y-681406D01*
X103329Y-681414D01*
X103623Y-681478D01*
X103968Y-681616D01*
X104369Y-681846D01*
X104819Y-682184D01*
X105360Y-682680D01*
X105457Y-682715D01*
X120296Y-697554D01*
X120296Y-697554D01*
X121619Y-698438D01*
X123180Y-698749D01*
X123180Y-698748D01*
X154940D01*
X154940Y-698749D01*
X156501Y-698438D01*
X157824Y-697554D01*
X161634Y-693744D01*
X162518Y-692421D01*
X162828Y-690860D01*
X162828Y-690860D01*
Y-683240D01*
X162828Y-683240D01*
X162518Y-681680D01*
X161634Y-680356D01*
X157824Y-676546D01*
X156501Y-675662D01*
X154940Y-675352D01*
X154940Y-675352D01*
X133759D01*
X131068Y-672661D01*
Y-665880D01*
X132489Y-664458D01*
X158750D01*
X158750Y-664459D01*
X160311Y-664148D01*
X161634Y-663264D01*
X167984Y-656914D01*
X167984Y-656914D01*
X168868Y-655591D01*
X169178Y-654030D01*
Y-639229D01*
X181812Y-626595D01*
X182096Y-626539D01*
X183584Y-625544D01*
X184579Y-624056D01*
X184928Y-622300D01*
X184579Y-620544D01*
X183584Y-619056D01*
X182096Y-618061D01*
X180340Y-617712D01*
D02*
G37*
G36*
X904160Y-654250D02*
X899120D01*
Y-658790D01*
X904160D01*
Y-654250D01*
D02*
G37*
G36*
X894120D02*
X889080D01*
Y-658790D01*
X894120D01*
Y-654250D01*
D02*
G37*
G36*
X471590Y-657330D02*
X466050D01*
Y-662870D01*
X471590D01*
Y-657330D01*
D02*
G37*
G36*
X461050D02*
X455510D01*
Y-662870D01*
X461050D01*
Y-657330D01*
D02*
G37*
G36*
X988480Y-658980D02*
X982940D01*
Y-664520D01*
X988480D01*
Y-658980D01*
D02*
G37*
G36*
X977940D02*
X972400D01*
Y-664520D01*
X977940D01*
Y-658980D01*
D02*
G37*
G36*
X527580Y-660360D02*
X522040D01*
Y-665900D01*
X527580D01*
Y-660360D01*
D02*
G37*
G36*
X517040D02*
X511500D01*
Y-665900D01*
X517040D01*
Y-660360D01*
D02*
G37*
G36*
X904160Y-663790D02*
X899120D01*
Y-668330D01*
X904160D01*
Y-663790D01*
D02*
G37*
G36*
X894120D02*
X889080D01*
Y-668330D01*
X894120D01*
Y-663790D01*
D02*
G37*
G36*
X471590Y-667870D02*
X466050D01*
Y-673410D01*
X471590D01*
Y-667870D01*
D02*
G37*
G36*
X461050D02*
X455510D01*
Y-673410D01*
X461050D01*
Y-667870D01*
D02*
G37*
G36*
X987440Y-667480D02*
X973440D01*
Y-681480D01*
X973440D01*
X973912Y-684020D01*
X966051Y-691882D01*
X900190D01*
X899419Y-689342D01*
X899864Y-689044D01*
X900859Y-687556D01*
X901208Y-685800D01*
X903120Y-683290D01*
X903120D01*
Y-671290D01*
X890120D01*
Y-681722D01*
X607060D01*
X607060Y-681722D01*
X605499Y-682032D01*
X604176Y-682916D01*
X597968Y-689125D01*
X597684Y-689181D01*
X596196Y-690176D01*
X595201Y-691664D01*
X594852Y-693420D01*
X595201Y-695176D01*
X596196Y-696664D01*
X597684Y-697659D01*
X599440Y-698008D01*
X601196Y-697659D01*
X602684Y-696664D01*
X603679Y-695176D01*
X603735Y-694892D01*
X608749Y-689878D01*
X622658D01*
X623050Y-691069D01*
X623081Y-692418D01*
X622096Y-693076D01*
X622096Y-693076D01*
X614331Y-700842D01*
X580879D01*
X580875Y-700838D01*
X580819Y-700554D01*
X579824Y-699066D01*
X578336Y-698071D01*
X576580Y-697722D01*
X574824Y-698071D01*
X573336Y-699066D01*
X572341Y-700554D01*
X571992Y-702310D01*
X572341Y-704066D01*
X573336Y-705554D01*
X574824Y-706549D01*
X575108Y-706605D01*
X576306Y-707804D01*
X577629Y-708688D01*
X579190Y-708998D01*
X579190Y-708998D01*
X579255D01*
X580026Y-711538D01*
X579686Y-711766D01*
X578691Y-713254D01*
X578342Y-715010D01*
X578691Y-716766D01*
X579686Y-718254D01*
X581174Y-719249D01*
X582930Y-719598D01*
X584686Y-719249D01*
X584926Y-719088D01*
X623570D01*
X623570Y-719088D01*
X625131Y-718778D01*
X626454Y-717894D01*
X635419Y-708928D01*
X993140D01*
X993140Y-708928D01*
X994701Y-708618D01*
X996024Y-707734D01*
X1006259Y-697498D01*
X1140460D01*
X1140460Y-697498D01*
X1142021Y-697188D01*
X1143344Y-696304D01*
X1144472Y-695175D01*
X1144756Y-695119D01*
X1146244Y-694124D01*
X1147239Y-692636D01*
X1147588Y-690880D01*
X1147239Y-689124D01*
X1146244Y-687636D01*
X1144756Y-686641D01*
X1143000Y-686292D01*
X1141244Y-686641D01*
X1139756Y-687636D01*
X1138761Y-689124D01*
X1138718Y-689342D01*
X1004570D01*
X1003009Y-689652D01*
X1001686Y-690536D01*
X991451Y-700772D01*
X972158D01*
X972060Y-700648D01*
X971236Y-698232D01*
X981912Y-687555D01*
X982196Y-687499D01*
X983684Y-686504D01*
X984679Y-685016D01*
X985028Y-683260D01*
X987264Y-681480D01*
X987440D01*
Y-667480D01*
D02*
G37*
G36*
X470550Y-676370D02*
X456550D01*
Y-690370D01*
X458280D01*
X458379Y-690424D01*
X458663Y-690454D01*
X458715Y-690472D01*
X458762Y-690503D01*
X458847Y-690596D01*
X458970Y-690798D01*
X459108Y-691138D01*
X459236Y-691617D01*
X459338Y-692232D01*
X459403Y-692976D01*
X459427Y-693882D01*
X459472Y-693982D01*
Y-695234D01*
X459311Y-695474D01*
X458962Y-697230D01*
X459311Y-698986D01*
X460306Y-700474D01*
X461794Y-701469D01*
X463550Y-701818D01*
X465306Y-701469D01*
X466794Y-700474D01*
X467789Y-698986D01*
X468138Y-697230D01*
X467789Y-695474D01*
X467628Y-695234D01*
Y-693982D01*
X467673Y-693882D01*
X467697Y-692976D01*
X467762Y-692232D01*
X467864Y-691617D01*
X467992Y-691138D01*
X468130Y-690798D01*
X468253Y-690596D01*
X468338Y-690504D01*
X468385Y-690472D01*
X468437Y-690454D01*
X468721Y-690424D01*
X468820Y-690370D01*
X470550D01*
Y-676370D01*
D02*
G37*
G36*
X273050Y-630412D02*
X271294Y-630761D01*
X269806Y-631756D01*
X268811Y-633244D01*
X268755Y-633528D01*
X268236Y-634046D01*
X267352Y-635369D01*
X267042Y-636930D01*
X267042Y-636930D01*
Y-663841D01*
X266271Y-664994D01*
X265922Y-666750D01*
X266271Y-668506D01*
X267042Y-669659D01*
Y-697840D01*
X267042Y-697840D01*
X267352Y-699401D01*
X267379Y-699441D01*
X267541Y-700256D01*
X268536Y-701744D01*
X270024Y-702739D01*
X271780Y-703088D01*
X273536Y-702739D01*
X275024Y-701744D01*
X276019Y-700256D01*
X276368Y-698500D01*
X276019Y-696744D01*
X275198Y-695516D01*
Y-667360D01*
X275088Y-666803D01*
X275098Y-666750D01*
X275088Y-666697D01*
X275198Y-666140D01*
Y-638977D01*
X276294Y-638244D01*
X277289Y-636756D01*
X277638Y-635000D01*
X277289Y-633244D01*
X276294Y-631756D01*
X274806Y-630761D01*
X273050Y-630412D01*
D02*
G37*
G36*
X208280Y-606282D02*
X206524Y-606631D01*
X205036Y-607626D01*
X204041Y-609114D01*
X203692Y-610870D01*
X204041Y-612626D01*
X204202Y-612866D01*
Y-690880D01*
X204202Y-690880D01*
X204512Y-692441D01*
X205396Y-693764D01*
X223834Y-712202D01*
X222782Y-714742D01*
X203200D01*
X203200Y-714742D01*
X201639Y-715052D01*
X200316Y-715936D01*
X200316Y-715936D01*
X174916Y-741336D01*
X174032Y-742659D01*
X173722Y-744220D01*
X173722Y-744220D01*
Y-762851D01*
X159818Y-776755D01*
X159534Y-776811D01*
X158046Y-777806D01*
X157051Y-779294D01*
X156702Y-781050D01*
X157051Y-782806D01*
X158046Y-784294D01*
X159534Y-785289D01*
X161290Y-785638D01*
X163046Y-785289D01*
X164534Y-784294D01*
X165529Y-782806D01*
X165585Y-782522D01*
X180684Y-767424D01*
X180684Y-767424D01*
X181568Y-766101D01*
X181878Y-764540D01*
X181878Y-764540D01*
Y-745909D01*
X204889Y-722898D01*
X212752D01*
X212850Y-723022D01*
X213674Y-725438D01*
X200458Y-738655D01*
X200174Y-738711D01*
X198686Y-739706D01*
X197691Y-741194D01*
X197342Y-742950D01*
X197691Y-744706D01*
X198686Y-746194D01*
X200174Y-747189D01*
X201930Y-747538D01*
X203686Y-747189D01*
X205174Y-746194D01*
X206169Y-744706D01*
X206225Y-744422D01*
X218859Y-731788D01*
X326390D01*
X326390Y-731788D01*
X327951Y-731478D01*
X329274Y-730594D01*
X332942Y-726925D01*
X333226Y-726869D01*
X334714Y-725874D01*
X335709Y-724386D01*
X336058Y-722630D01*
X335709Y-720874D01*
X334714Y-719386D01*
X333509Y-718580D01*
X333129Y-717801D01*
X332784Y-715713D01*
X335827Y-712671D01*
X336550Y-712815D01*
X338306Y-712466D01*
X339794Y-711471D01*
X340789Y-709982D01*
X341138Y-708227D01*
X340853Y-706793D01*
X341101Y-706017D01*
X342338Y-704217D01*
X343386Y-704009D01*
X344874Y-703014D01*
X345869Y-701526D01*
X346218Y-699770D01*
X345869Y-698014D01*
X344874Y-696526D01*
X343386Y-695531D01*
X341630Y-695182D01*
X339874Y-695531D01*
X339634Y-695692D01*
X331470D01*
X329909Y-696002D01*
X328586Y-696886D01*
X328586Y-696886D01*
X319201Y-706272D01*
X229439D01*
X212358Y-689191D01*
Y-612866D01*
X212519Y-612626D01*
X212868Y-610870D01*
X212519Y-609114D01*
X211524Y-607626D01*
X210036Y-606631D01*
X208280Y-606282D01*
D02*
G37*
G36*
X1471970Y-703411D02*
X1451970D01*
X1448968Y-703806D01*
X1446170Y-704965D01*
X1443768Y-706808D01*
X1441925Y-709210D01*
X1440766Y-712008D01*
X1440371Y-715010D01*
X1440766Y-718012D01*
X1441925Y-720810D01*
X1443768Y-723212D01*
X1446170Y-725055D01*
X1448968Y-726214D01*
X1451970Y-726609D01*
X1471970D01*
X1474972Y-726214D01*
X1477770Y-725055D01*
X1480172Y-723212D01*
X1482015Y-720810D01*
X1483174Y-718012D01*
X1483569Y-715010D01*
X1483174Y-712008D01*
X1482015Y-709210D01*
X1480172Y-706808D01*
X1477770Y-704965D01*
X1474972Y-703806D01*
X1471970Y-703411D01*
D02*
G37*
G36*
X1420970D02*
X1400970D01*
X1397968Y-703806D01*
X1395170Y-704965D01*
X1392768Y-706808D01*
X1390925Y-709210D01*
X1389766Y-712008D01*
X1389371Y-715010D01*
X1389766Y-718012D01*
X1390925Y-720810D01*
X1392768Y-723212D01*
X1395170Y-725055D01*
X1397968Y-726214D01*
X1400970Y-726609D01*
X1420970D01*
X1423972Y-726214D01*
X1426770Y-725055D01*
X1429172Y-723212D01*
X1431015Y-720810D01*
X1432174Y-718012D01*
X1432569Y-715010D01*
X1432174Y-712008D01*
X1431015Y-709210D01*
X1429172Y-706808D01*
X1426770Y-704965D01*
X1423972Y-703806D01*
X1420970Y-703411D01*
D02*
G37*
G36*
X568960Y-723122D02*
X567204Y-723471D01*
X565874Y-724360D01*
X565714Y-724419D01*
X565601Y-724524D01*
X565539Y-724571D01*
X565468Y-724615D01*
X565382Y-724658D01*
X565280Y-724699D01*
X565158Y-724736D01*
X565013Y-724768D01*
X564846Y-724794D01*
X564655Y-724810D01*
X564398Y-724817D01*
X564244Y-724886D01*
X548640D01*
X547559Y-725101D01*
X546643Y-725713D01*
X542358Y-729998D01*
X542200Y-730059D01*
X542013Y-730236D01*
X541867Y-730359D01*
X541731Y-730459D01*
X541606Y-730538D01*
X541493Y-730599D01*
X541392Y-730642D01*
X541301Y-730672D01*
X541219Y-730691D01*
X541142Y-730702D01*
X540988Y-730708D01*
X540833Y-730779D01*
X539264Y-731091D01*
X537776Y-732086D01*
X536781Y-733574D01*
X536432Y-735330D01*
X536781Y-737086D01*
X537776Y-738574D01*
X539264Y-739569D01*
X541020Y-739918D01*
X542776Y-739569D01*
X544264Y-738574D01*
X544365Y-738424D01*
X545481Y-738394D01*
X547203Y-738748D01*
X547936Y-739844D01*
X549424Y-740839D01*
X551180Y-741188D01*
X552936Y-740839D01*
X554266Y-739950D01*
X554426Y-739891D01*
X554539Y-739786D01*
X554601Y-739739D01*
X554672Y-739695D01*
X554758Y-739652D01*
X554860Y-739611D01*
X554982Y-739574D01*
X555127Y-739542D01*
X555294Y-739516D01*
X555485Y-739500D01*
X555742Y-739493D01*
X555896Y-739424D01*
X588010D01*
X588010Y-739424D01*
X589091Y-739209D01*
X590007Y-738597D01*
X593022Y-735582D01*
X593180Y-735521D01*
X593367Y-735344D01*
X593513Y-735221D01*
X593649Y-735121D01*
X593774Y-735042D01*
X593887Y-734981D01*
X593988Y-734938D01*
X594079Y-734908D01*
X594161Y-734889D01*
X594238Y-734878D01*
X594392Y-734872D01*
X594547Y-734801D01*
X596116Y-734489D01*
X597604Y-733494D01*
X598599Y-732006D01*
X598948Y-730250D01*
X598599Y-728494D01*
X597604Y-727006D01*
X596116Y-726011D01*
X594360Y-725662D01*
X592604Y-726011D01*
X591116Y-727006D01*
X590121Y-728494D01*
X589809Y-730063D01*
X589738Y-730218D01*
X589732Y-730372D01*
X589721Y-730449D01*
X589702Y-730531D01*
X589672Y-730622D01*
X589628Y-730723D01*
X589568Y-730836D01*
X589489Y-730961D01*
X589389Y-731097D01*
X589265Y-731243D01*
X589089Y-731430D01*
X589028Y-731588D01*
X586840Y-733776D01*
X572554D01*
X571783Y-731236D01*
X572204Y-730954D01*
X573199Y-729466D01*
X573548Y-727710D01*
X573199Y-725954D01*
X572204Y-724466D01*
X570716Y-723471D01*
X568960Y-723122D01*
D02*
G37*
G36*
X703580Y-712301D02*
X700578Y-712696D01*
X697780Y-713855D01*
X695378Y-715698D01*
X693535Y-718100D01*
X692376Y-720898D01*
X691981Y-723900D01*
Y-745765D01*
X687875Y-749871D01*
X639016D01*
Y-744220D01*
X638793Y-742523D01*
X638138Y-740942D01*
X637096Y-739584D01*
X635738Y-738542D01*
X634157Y-737887D01*
X632460Y-737664D01*
X630763Y-737887D01*
X629182Y-738542D01*
X627824Y-739584D01*
X626782Y-740942D01*
X626127Y-742523D01*
X625904Y-744220D01*
Y-754433D01*
X624955Y-755670D01*
X624796Y-756054D01*
X541793D01*
X540488Y-755052D01*
X538907Y-754397D01*
X537210Y-754174D01*
X535513Y-754397D01*
X533932Y-755052D01*
X532574Y-756094D01*
X531532Y-757452D01*
X530877Y-759033D01*
X530654Y-760730D01*
X530877Y-762427D01*
X531532Y-764008D01*
X532574Y-765366D01*
X534454Y-767246D01*
X535812Y-768288D01*
X537393Y-768943D01*
X539090Y-769166D01*
X626410D01*
X626798Y-769672D01*
X629200Y-771515D01*
X631998Y-772674D01*
X635000Y-773069D01*
X692680D01*
X692680Y-773069D01*
X695682Y-772674D01*
X698480Y-771515D01*
X700882Y-769672D01*
X711782Y-758772D01*
X711782Y-758772D01*
X713625Y-756370D01*
X714784Y-753572D01*
X715179Y-750570D01*
X715179Y-750570D01*
Y-723900D01*
X714784Y-720898D01*
X713625Y-718100D01*
X711782Y-715698D01*
X709380Y-713855D01*
X706582Y-712696D01*
X703580Y-712301D01*
D02*
G37*
G36*
X143470Y-725343D02*
X140890Y-725682D01*
X138486Y-726678D01*
X136422Y-728262D01*
X134838Y-730326D01*
X133842Y-732730D01*
X133503Y-735310D01*
X133842Y-737890D01*
X134838Y-740294D01*
X136422Y-742358D01*
X138486Y-743942D01*
X140890Y-744938D01*
X141018Y-744954D01*
Y-747516D01*
X140619Y-747569D01*
X137962Y-748670D01*
X135681Y-750420D01*
X133930Y-752702D01*
X132829Y-755359D01*
X132783Y-755710D01*
X143470D01*
X154157D01*
X154111Y-755359D01*
X153011Y-752702D01*
X151260Y-750420D01*
X148978Y-748670D01*
X146321Y-747569D01*
X145922Y-747516D01*
Y-744954D01*
X146050Y-744938D01*
X148454Y-743942D01*
X150518Y-742358D01*
X152102Y-740294D01*
X153098Y-737890D01*
X153437Y-735310D01*
X153098Y-732730D01*
X152102Y-730326D01*
X150518Y-728262D01*
X148454Y-726678D01*
X146050Y-725682D01*
X143470Y-725343D01*
D02*
G37*
G36*
X88870Y-756800D02*
Y-768410D01*
X100479D01*
X100316Y-767173D01*
X98874Y-763691D01*
X96580Y-760700D01*
X93589Y-758406D01*
X90107Y-756963D01*
X88870Y-756800D01*
D02*
G37*
G36*
X83870D02*
X82633Y-756963D01*
X79151Y-758406D01*
X76160Y-760700D01*
X73866Y-763691D01*
X72423Y-767173D01*
X72260Y-768410D01*
X83870D01*
Y-756800D01*
D02*
G37*
G36*
X154157Y-760710D02*
X145970D01*
Y-768897D01*
X146321Y-768851D01*
X148978Y-767750D01*
X151260Y-766000D01*
X153011Y-763718D01*
X154111Y-761061D01*
X154157Y-760710D01*
D02*
G37*
G36*
X140970D02*
X132783D01*
X132829Y-761061D01*
X133930Y-763718D01*
X135681Y-766000D01*
X137962Y-767750D01*
X140619Y-768851D01*
X140970Y-768897D01*
Y-760710D01*
D02*
G37*
G36*
X100479Y-773410D02*
X88870D01*
Y-785019D01*
X90107Y-784856D01*
X93589Y-783414D01*
X96580Y-781119D01*
X98874Y-778129D01*
X100316Y-774647D01*
X100479Y-773410D01*
D02*
G37*
G36*
X83870D02*
X72260D01*
X72423Y-774647D01*
X73866Y-778129D01*
X76160Y-781119D01*
X79151Y-783414D01*
X82633Y-784856D01*
X83870Y-785019D01*
Y-773410D01*
D02*
G37*
G36*
X516890Y-775192D02*
X515134Y-775541D01*
X513646Y-776536D01*
X512651Y-778024D01*
X512302Y-779780D01*
X512651Y-781536D01*
X513646Y-783024D01*
Y-785426D01*
X512651Y-786914D01*
X512302Y-788670D01*
X510540Y-790432D01*
X508784Y-790781D01*
X507296Y-791776D01*
X506598Y-792820D01*
X504676Y-794591D01*
X502920Y-794242D01*
X501164Y-794591D01*
X499676Y-795586D01*
X498681Y-797074D01*
X498332Y-798830D01*
X498681Y-800586D01*
X499676Y-802074D01*
X501164Y-803069D01*
X502920Y-803418D01*
X503291Y-803344D01*
X503378Y-803389D01*
X504013Y-803442D01*
X504880Y-803614D01*
X504880Y-803614D01*
X506089D01*
X506857Y-803678D01*
X507056Y-803614D01*
X620550D01*
X639353Y-822417D01*
X639353Y-822417D01*
X640269Y-823029D01*
X641350Y-823244D01*
X641350Y-823244D01*
X658076D01*
X658847Y-825784D01*
X658426Y-826066D01*
X657431Y-827554D01*
X657082Y-829310D01*
X657431Y-831066D01*
X658426Y-832554D01*
X659914Y-833549D01*
X659956Y-833557D01*
X659987Y-833589D01*
X660001Y-833636D01*
X660023Y-833750D01*
X660039Y-833909D01*
X660047Y-834162D01*
X660116Y-834313D01*
Y-863600D01*
X660116Y-863600D01*
X660331Y-864681D01*
X660943Y-865597D01*
X662688Y-867342D01*
X662748Y-867500D01*
X662926Y-867687D01*
X663049Y-867833D01*
X663149Y-867969D01*
X663229Y-868094D01*
X663289Y-868207D01*
X663332Y-868308D01*
X663362Y-868399D01*
X663381Y-868481D01*
X663392Y-868558D01*
X663398Y-868712D01*
X663469Y-868867D01*
X663781Y-870436D01*
X664776Y-871924D01*
X666264Y-872919D01*
X668020Y-873268D01*
X669776Y-872919D01*
X671264Y-871924D01*
X672259Y-870436D01*
X672608Y-868680D01*
X672259Y-866924D01*
X671264Y-865436D01*
X669776Y-864441D01*
X668207Y-864129D01*
X668052Y-864058D01*
X667898Y-864052D01*
X667821Y-864041D01*
X667739Y-864022D01*
X667648Y-863992D01*
X667547Y-863949D01*
X667434Y-863888D01*
X667309Y-863809D01*
X667173Y-863709D01*
X667027Y-863585D01*
X666840Y-863409D01*
X666682Y-863348D01*
X665764Y-862430D01*
Y-833163D01*
X665770Y-833156D01*
X665764Y-833104D01*
Y-832903D01*
X665833Y-832748D01*
X665855Y-831892D01*
X665888Y-831487D01*
X665935Y-831167D01*
X665953Y-831080D01*
X665971Y-831014D01*
X666001Y-830925D01*
X665986Y-830678D01*
X666258Y-829310D01*
X665909Y-827554D01*
X664914Y-826066D01*
X664493Y-825784D01*
X665264Y-823244D01*
X675740D01*
X679166Y-826670D01*
Y-841967D01*
X679160Y-841974D01*
X679166Y-842026D01*
Y-842227D01*
X679097Y-842382D01*
X679075Y-843238D01*
X679042Y-843643D01*
X678995Y-843963D01*
X678977Y-844050D01*
X678959Y-844116D01*
X678929Y-844205D01*
X678944Y-844452D01*
X678672Y-845820D01*
X679021Y-847576D01*
X680016Y-849064D01*
X681504Y-850059D01*
X683260Y-850408D01*
X685016Y-850059D01*
X686504Y-849064D01*
X687499Y-847576D01*
X687848Y-845820D01*
X687499Y-844064D01*
X686504Y-842576D01*
X685016Y-841581D01*
X684974Y-841573D01*
X684943Y-841541D01*
X684929Y-841494D01*
X684908Y-841380D01*
X684891Y-841221D01*
X684883Y-840968D01*
X684814Y-840817D01*
Y-825500D01*
X684814Y-825500D01*
X684599Y-824419D01*
X683987Y-823503D01*
X683987Y-823503D01*
X679918Y-819434D01*
X680971Y-816894D01*
X690980D01*
X695676Y-821590D01*
Y-845777D01*
X695670Y-845784D01*
X695676Y-845836D01*
Y-846037D01*
X695607Y-846192D01*
X695585Y-847048D01*
X695552Y-847453D01*
X695505Y-847773D01*
X695487Y-847859D01*
X695469Y-847925D01*
X695439Y-848015D01*
X695454Y-848262D01*
X695182Y-849630D01*
X695531Y-851386D01*
X696526Y-852874D01*
X698014Y-853869D01*
X699770Y-854218D01*
X701526Y-853869D01*
X703014Y-852874D01*
X704009Y-851386D01*
X704358Y-849630D01*
X704009Y-847874D01*
X703014Y-846386D01*
X701526Y-845391D01*
X701484Y-845383D01*
X701453Y-845351D01*
X701439Y-845304D01*
X701417Y-845190D01*
X701401Y-845031D01*
X701393Y-844778D01*
X701324Y-844627D01*
Y-824236D01*
X703864Y-822878D01*
X704566Y-823347D01*
Y-836930D01*
X704566Y-836930D01*
X704781Y-838011D01*
X705393Y-838927D01*
X714758Y-848292D01*
X714818Y-848450D01*
X714996Y-848637D01*
X715119Y-848783D01*
X715219Y-848919D01*
X715298Y-849044D01*
X715359Y-849157D01*
X715402Y-849258D01*
X715432Y-849349D01*
X715451Y-849431D01*
X715462Y-849508D01*
X715468Y-849662D01*
X715539Y-849817D01*
X715851Y-851386D01*
X716846Y-852874D01*
X718334Y-853869D01*
X720090Y-854218D01*
X721846Y-853869D01*
X723334Y-852874D01*
X724329Y-851386D01*
X724678Y-849630D01*
X724329Y-847874D01*
X723334Y-846386D01*
X721846Y-845391D01*
X720277Y-845079D01*
X720122Y-845008D01*
X719968Y-845002D01*
X719891Y-844991D01*
X719809Y-844972D01*
X719718Y-844942D01*
X719617Y-844899D01*
X719504Y-844838D01*
X719379Y-844759D01*
X719243Y-844659D01*
X719097Y-844535D01*
X718910Y-844359D01*
X718752Y-844298D01*
X710214Y-835760D01*
Y-820420D01*
X709999Y-819339D01*
X709387Y-818423D01*
X697957Y-806993D01*
X697041Y-806381D01*
X695960Y-806166D01*
X695960Y-806166D01*
X656374D01*
X655603Y-803626D01*
X656024Y-803344D01*
X657019Y-801856D01*
X657368Y-800100D01*
X657019Y-798344D01*
X656024Y-796856D01*
X654536Y-795861D01*
X652967Y-795549D01*
X652812Y-795478D01*
X652658Y-795472D01*
X652581Y-795461D01*
X652499Y-795442D01*
X652408Y-795412D01*
X652307Y-795368D01*
X652194Y-795309D01*
X652069Y-795229D01*
X651933Y-795129D01*
X651787Y-795005D01*
X651600Y-794828D01*
X651442Y-794768D01*
X636997Y-780323D01*
X636081Y-779711D01*
X635000Y-779496D01*
X635000Y-779496D01*
X521422D01*
X521129Y-778024D01*
X520134Y-776536D01*
X518646Y-775541D01*
X516890Y-775192D01*
D02*
G37*
G36*
X1307670Y-791583D02*
Y-803950D01*
X1320037D01*
X1319993Y-803502D01*
X1319133Y-800667D01*
X1317736Y-798054D01*
X1315856Y-795764D01*
X1313566Y-793884D01*
X1310954Y-792488D01*
X1308118Y-791628D01*
X1307670Y-791583D01*
D02*
G37*
G36*
X1302670Y-791583D02*
X1302222Y-791628D01*
X1299387Y-792488D01*
X1296774Y-793884D01*
X1294484Y-795764D01*
X1292604Y-798054D01*
X1291208Y-800667D01*
X1290348Y-803502D01*
X1290304Y-803950D01*
X1302670D01*
Y-791583D01*
D02*
G37*
G36*
X1374170Y-792450D02*
X1346170D01*
Y-820450D01*
X1374170D01*
Y-792450D01*
D02*
G37*
G36*
X1302670Y-808950D02*
X1290304D01*
X1290348Y-809398D01*
X1291208Y-812233D01*
X1292604Y-814846D01*
X1294484Y-817136D01*
X1296774Y-819016D01*
X1299387Y-820412D01*
X1302222Y-821272D01*
X1302670Y-821317D01*
Y-808950D01*
D02*
G37*
G36*
X1320037D02*
X1307670D01*
Y-821317D01*
X1308118Y-821272D01*
X1310954Y-820412D01*
X1313566Y-819016D01*
X1315856Y-817136D01*
X1317736Y-814846D01*
X1319133Y-812233D01*
X1319993Y-809398D01*
X1320037Y-808950D01*
D02*
G37*
G36*
X1433170Y-789870D02*
X1429935Y-790189D01*
X1426825Y-791132D01*
X1423959Y-792664D01*
X1421446Y-794726D01*
X1419384Y-797239D01*
X1417852Y-800105D01*
X1416909Y-803215D01*
X1416590Y-806450D01*
X1416909Y-809685D01*
X1417852Y-812795D01*
X1419384Y-815661D01*
X1421446Y-818174D01*
X1423959Y-820236D01*
X1426825Y-821768D01*
X1429935Y-822711D01*
X1433170Y-823030D01*
X1436405Y-822711D01*
X1439515Y-821768D01*
X1442381Y-820236D01*
X1444894Y-818174D01*
X1446956Y-815661D01*
X1448488Y-812795D01*
X1449431Y-809685D01*
X1449750Y-806450D01*
X1449431Y-803215D01*
X1448488Y-800105D01*
X1446956Y-797239D01*
X1444894Y-794726D01*
X1442381Y-792664D01*
X1439515Y-791132D01*
X1436405Y-790189D01*
X1433170Y-789870D01*
D02*
G37*
G36*
X137529Y-841272D02*
X126631D01*
X121182Y-846721D01*
Y-857619D01*
X126631Y-863068D01*
X137529D01*
X142978Y-857619D01*
Y-846721D01*
X137529Y-841272D01*
D02*
G37*
G36*
X1307670Y-852543D02*
Y-864910D01*
X1320037D01*
X1319993Y-864462D01*
X1319133Y-861627D01*
X1317736Y-859014D01*
X1315856Y-856724D01*
X1313566Y-854844D01*
X1310954Y-853448D01*
X1308118Y-852588D01*
X1307670Y-852543D01*
D02*
G37*
G36*
X1302670Y-852543D02*
X1302222Y-852588D01*
X1299387Y-853448D01*
X1296774Y-854844D01*
X1294484Y-856724D01*
X1292604Y-859014D01*
X1291208Y-861627D01*
X1290348Y-864462D01*
X1290304Y-864910D01*
X1302670D01*
Y-852543D01*
D02*
G37*
G36*
X197770Y-864461D02*
Y-874280D01*
X207589D01*
X207487Y-873506D01*
X206224Y-870456D01*
X204214Y-867836D01*
X201594Y-865826D01*
X198544Y-864563D01*
X197770Y-864461D01*
D02*
G37*
G36*
X192770D02*
X191996Y-864563D01*
X188946Y-865826D01*
X186327Y-867836D01*
X184317Y-870456D01*
X183053Y-873506D01*
X182951Y-874280D01*
X192770D01*
Y-864461D01*
D02*
G37*
G36*
X1374170Y-853410D02*
X1346170D01*
Y-881410D01*
X1374170D01*
Y-853410D01*
D02*
G37*
G36*
X1302670Y-869910D02*
X1290304D01*
X1290348Y-870358D01*
X1291208Y-873193D01*
X1292604Y-875806D01*
X1294484Y-878096D01*
X1296774Y-879976D01*
X1299387Y-881372D01*
X1302222Y-882232D01*
X1302670Y-882277D01*
Y-869910D01*
D02*
G37*
G36*
X1320037D02*
X1307670D01*
Y-882277D01*
X1308118Y-882232D01*
X1310954Y-881372D01*
X1313566Y-879976D01*
X1315856Y-878096D01*
X1317736Y-875806D01*
X1319133Y-873193D01*
X1319993Y-870358D01*
X1320037Y-869910D01*
D02*
G37*
G36*
X1433170Y-850830D02*
X1429935Y-851149D01*
X1426825Y-852092D01*
X1423959Y-853624D01*
X1421446Y-855686D01*
X1419384Y-858199D01*
X1417852Y-861065D01*
X1416909Y-864175D01*
X1416590Y-867410D01*
X1416909Y-870645D01*
X1417852Y-873755D01*
X1419384Y-876621D01*
X1421446Y-879134D01*
X1423959Y-881196D01*
X1426825Y-882728D01*
X1429935Y-883671D01*
X1433170Y-883990D01*
X1436405Y-883671D01*
X1439515Y-882728D01*
X1442381Y-881196D01*
X1444894Y-879134D01*
X1446956Y-876621D01*
X1448488Y-873755D01*
X1449431Y-870645D01*
X1449750Y-867410D01*
X1449431Y-864175D01*
X1448488Y-861065D01*
X1446956Y-858199D01*
X1444894Y-855686D01*
X1442381Y-853624D01*
X1439515Y-852092D01*
X1436405Y-851149D01*
X1433170Y-850830D01*
D02*
G37*
G36*
X379730Y-854442D02*
X379730Y-854442D01*
X273530D01*
X271969Y-854752D01*
X270646Y-855636D01*
X263601Y-862682D01*
X263507Y-862714D01*
X262954Y-863211D01*
X262405Y-863607D01*
X261789Y-863962D01*
X261104Y-864276D01*
X260343Y-864546D01*
X259507Y-864770D01*
X258616Y-864941D01*
X256508Y-865141D01*
X255347Y-865157D01*
X255287Y-865183D01*
X255270Y-865181D01*
X252268Y-865576D01*
X249470Y-866735D01*
X247068Y-868578D01*
X245225Y-870981D01*
X244066Y-873778D01*
X243671Y-876780D01*
X244066Y-879782D01*
X245225Y-882580D01*
X247068Y-884982D01*
X249470Y-886825D01*
X252268Y-887984D01*
X255270Y-888379D01*
X258272Y-887984D01*
X261070Y-886825D01*
X263472Y-884982D01*
X265315Y-882580D01*
X266474Y-879782D01*
X266869Y-876780D01*
X266867Y-876763D01*
X266893Y-876703D01*
X266910Y-875519D01*
X266980Y-874449D01*
X267105Y-873458D01*
X267280Y-872543D01*
X267504Y-871707D01*
X267774Y-870946D01*
X268088Y-870261D01*
X268443Y-869645D01*
X268839Y-869097D01*
X269335Y-868543D01*
X269368Y-868449D01*
X275219Y-862598D01*
X324722D01*
X325227Y-865138D01*
X323566Y-865826D01*
X320947Y-867836D01*
X318937Y-870456D01*
X317673Y-873506D01*
X317571Y-874280D01*
X342209D01*
X342107Y-873506D01*
X340844Y-870456D01*
X338834Y-867836D01*
X336214Y-865826D01*
X334553Y-865138D01*
X335058Y-862598D01*
X378041D01*
X379996Y-864554D01*
X380030Y-864648D01*
X380579Y-865259D01*
X380948Y-865784D01*
X381203Y-866281D01*
X381360Y-866755D01*
X381432Y-867220D01*
X381425Y-867698D01*
X381334Y-868208D01*
X381145Y-868766D01*
X380846Y-869373D01*
X380385Y-870093D01*
X380385Y-870093D01*
Y-870093D01*
X380384Y-870095D01*
X380341Y-870334D01*
X379845Y-870981D01*
X378686Y-873778D01*
X378291Y-876780D01*
X378686Y-879782D01*
X379845Y-882580D01*
X381688Y-884982D01*
X384090Y-886825D01*
X386888Y-887984D01*
X389890Y-888379D01*
X392892Y-887984D01*
X395690Y-886825D01*
X398092Y-884982D01*
X399935Y-882580D01*
X401094Y-879782D01*
X401489Y-876780D01*
X401094Y-873778D01*
X399935Y-870981D01*
X398092Y-868578D01*
X395818Y-866833D01*
X395760Y-866749D01*
X395731Y-866744D01*
X395713Y-866720D01*
X394803Y-866178D01*
X392066Y-864326D01*
X391218Y-863683D01*
X387661Y-860600D01*
X386804Y-859762D01*
X386697Y-859719D01*
X382614Y-855636D01*
X381291Y-854752D01*
X381032Y-854701D01*
X379730Y-854442D01*
D02*
G37*
G36*
X359890Y-865181D02*
X356888Y-865576D01*
X354090Y-866735D01*
X351688Y-868578D01*
X349845Y-870981D01*
X348686Y-873778D01*
X348291Y-876780D01*
X348686Y-879782D01*
X349845Y-882580D01*
X351688Y-884982D01*
X354090Y-886825D01*
X356888Y-887984D01*
X359890Y-888379D01*
X362892Y-887984D01*
X365690Y-886825D01*
X368092Y-884982D01*
X369935Y-882580D01*
X371094Y-879782D01*
X371489Y-876780D01*
X371094Y-873778D01*
X369935Y-870981D01*
X368092Y-868578D01*
X365690Y-866735D01*
X362892Y-865576D01*
X359890Y-865181D01*
D02*
G37*
G36*
X225270D02*
X222268Y-865576D01*
X219471Y-866735D01*
X217068Y-868578D01*
X215225Y-870981D01*
X214066Y-873778D01*
X213671Y-876780D01*
X214066Y-879782D01*
X215225Y-882580D01*
X217068Y-884982D01*
X219471Y-886825D01*
X222268Y-887984D01*
X225270Y-888379D01*
X228272Y-887984D01*
X231070Y-886825D01*
X233472Y-884982D01*
X235315Y-882580D01*
X236474Y-879782D01*
X236869Y-876780D01*
X236474Y-873778D01*
X235315Y-870981D01*
X233472Y-868578D01*
X231070Y-866735D01*
X228272Y-865576D01*
X225270Y-865181D01*
D02*
G37*
G36*
X137529Y-866672D02*
X126631D01*
X121182Y-872121D01*
Y-883019D01*
X126631Y-888468D01*
X137529D01*
X142978Y-883019D01*
Y-872121D01*
X137529Y-866672D01*
D02*
G37*
G36*
X342209Y-879280D02*
X332390D01*
Y-889099D01*
X333164Y-888997D01*
X336214Y-887734D01*
X338834Y-885724D01*
X340844Y-883104D01*
X342107Y-880054D01*
X342209Y-879280D01*
D02*
G37*
G36*
X327390D02*
X317571D01*
X317673Y-880054D01*
X318937Y-883104D01*
X320947Y-885724D01*
X323566Y-887734D01*
X326617Y-888997D01*
X327390Y-889099D01*
Y-879280D01*
D02*
G37*
G36*
X207589D02*
X197770D01*
Y-889099D01*
X198544Y-888997D01*
X201594Y-887734D01*
X204214Y-885724D01*
X206224Y-883104D01*
X207487Y-880054D01*
X207589Y-879280D01*
D02*
G37*
G36*
X192770D02*
X182951D01*
X183053Y-880054D01*
X184317Y-883104D01*
X186327Y-885724D01*
X188946Y-887734D01*
X191996Y-888997D01*
X192770Y-889099D01*
Y-879280D01*
D02*
G37*
G36*
X362390Y-894461D02*
Y-904280D01*
X372209D01*
X372107Y-903506D01*
X370844Y-900456D01*
X368834Y-897836D01*
X366214Y-895826D01*
X363164Y-894563D01*
X362390Y-894461D01*
D02*
G37*
G36*
X357390D02*
X356617Y-894563D01*
X353566Y-895826D01*
X350946Y-897836D01*
X348936Y-900456D01*
X347673Y-903506D01*
X347571Y-904280D01*
X357390D01*
Y-894461D01*
D02*
G37*
G36*
X227770D02*
Y-904280D01*
X237589D01*
X237487Y-903506D01*
X236224Y-900456D01*
X234214Y-897836D01*
X231594Y-895826D01*
X228544Y-894563D01*
X227770Y-894461D01*
D02*
G37*
G36*
X222770D02*
X221996Y-894563D01*
X218946Y-895826D01*
X216326Y-897836D01*
X214316Y-900456D01*
X213053Y-903506D01*
X212951Y-904280D01*
X222770D01*
Y-894461D01*
D02*
G37*
G36*
X137529Y-892072D02*
X126631D01*
X121182Y-897521D01*
Y-908419D01*
X126631Y-913868D01*
X137529D01*
X142978Y-908419D01*
Y-897521D01*
X137529Y-892072D01*
D02*
G37*
G36*
X266770Y-895280D02*
X243770D01*
Y-918280D01*
X266770D01*
Y-895280D01*
D02*
G37*
G36*
X372209Y-909280D02*
X362390D01*
Y-919099D01*
X363164Y-918997D01*
X366214Y-917734D01*
X368834Y-915724D01*
X370844Y-913104D01*
X372107Y-910054D01*
X372209Y-909280D01*
D02*
G37*
G36*
X357390D02*
X347571D01*
X347673Y-910054D01*
X348936Y-913104D01*
X350946Y-915724D01*
X353566Y-917734D01*
X356617Y-918997D01*
X357390Y-919099D01*
Y-909280D01*
D02*
G37*
G36*
X237589D02*
X227770D01*
Y-919099D01*
X228544Y-918997D01*
X231594Y-917734D01*
X234214Y-915724D01*
X236224Y-913104D01*
X237487Y-910054D01*
X237589Y-909280D01*
D02*
G37*
G36*
X222770D02*
X212951D01*
X213053Y-910054D01*
X214316Y-913104D01*
X216326Y-915724D01*
X218946Y-917734D01*
X221996Y-918997D01*
X222770Y-919099D01*
Y-909280D01*
D02*
G37*
G36*
X495190Y-864092D02*
X493434Y-864441D01*
X491946Y-865436D01*
X490951Y-866924D01*
X490895Y-867208D01*
X456671Y-901431D01*
X455787Y-902754D01*
X455477Y-904315D01*
X455477Y-904315D01*
Y-913859D01*
X455316Y-914099D01*
X454967Y-915855D01*
X455316Y-917611D01*
X456311Y-919099D01*
X457799Y-920094D01*
X459555Y-920443D01*
X461311Y-920094D01*
X462799Y-919099D01*
X463794Y-917611D01*
X464143Y-915855D01*
X463794Y-914099D01*
X463633Y-913859D01*
Y-906004D01*
X496662Y-872975D01*
X496946Y-872919D01*
X498434Y-871924D01*
X499429Y-870436D01*
X499778Y-868680D01*
X499429Y-866924D01*
X498434Y-865436D01*
X496946Y-864441D01*
X495190Y-864092D01*
D02*
G37*
G36*
X137529Y-917472D02*
X126631D01*
X121182Y-922921D01*
Y-933819D01*
X126631Y-939268D01*
X137529D01*
X142978Y-933819D01*
Y-922921D01*
X137529Y-917472D01*
D02*
G37*
G36*
X726340Y-930262D02*
X723999Y-930728D01*
X722014Y-932054D01*
X720688Y-934039D01*
X720223Y-936380D01*
X720688Y-938721D01*
X722014Y-940706D01*
X723999Y-942032D01*
X726340Y-942497D01*
X728681Y-942032D01*
X730666Y-940706D01*
X731992Y-938721D01*
X732458Y-936380D01*
X731992Y-934039D01*
X730666Y-932054D01*
X728681Y-930728D01*
X726340Y-930262D01*
D02*
G37*
G36*
X682340D02*
X679999Y-930728D01*
X678014Y-932054D01*
X676688Y-934039D01*
X676223Y-936380D01*
X676688Y-938721D01*
X678014Y-940706D01*
X679999Y-942032D01*
X682340Y-942497D01*
X684681Y-942032D01*
X686666Y-940706D01*
X687992Y-938721D01*
X688458Y-936380D01*
X687992Y-934039D01*
X686666Y-932054D01*
X684681Y-930728D01*
X682340Y-930262D01*
D02*
G37*
G36*
X52500Y-917556D02*
Y-947500D01*
X82444D01*
X82239Y-944894D01*
X81043Y-939913D01*
X79083Y-935182D01*
X76407Y-930814D01*
X73080Y-926920D01*
X69186Y-923593D01*
X64819Y-920917D01*
X60086Y-918957D01*
X55106Y-917761D01*
X52500Y-917556D01*
D02*
G37*
G36*
X47500D02*
X44894Y-917761D01*
X39913Y-918957D01*
X35182Y-920917D01*
X30814Y-923593D01*
X26920Y-926920D01*
X23593Y-930814D01*
X20917Y-935182D01*
X18957Y-939913D01*
X17761Y-944894D01*
X17556Y-947500D01*
X47500D01*
Y-917556D01*
D02*
G37*
G36*
X137529Y-942872D02*
X126631D01*
X121182Y-948321D01*
Y-959219D01*
X126631Y-964668D01*
X137529D01*
X142978Y-959219D01*
Y-948321D01*
X137529Y-942872D01*
D02*
G37*
G36*
X225270Y-934200D02*
X222036Y-934519D01*
X218925Y-935462D01*
X216059Y-936994D01*
X213546Y-939056D01*
X211484Y-941569D01*
X209952Y-944435D01*
X209009Y-947545D01*
X208690Y-950780D01*
X209009Y-954015D01*
X209952Y-957125D01*
X211484Y-959991D01*
X213546Y-962504D01*
X216059Y-964566D01*
X218925Y-966098D01*
X222036Y-967041D01*
X225270Y-967360D01*
X228505Y-967041D01*
X231615Y-966098D01*
X234481Y-964566D01*
X236994Y-962504D01*
X239056Y-959991D01*
X240588Y-957125D01*
X241531Y-954015D01*
X241850Y-950780D01*
X241531Y-947545D01*
X240588Y-944435D01*
X239056Y-941569D01*
X236994Y-939056D01*
X234481Y-936994D01*
X231615Y-935462D01*
X228505Y-934519D01*
X225270Y-934200D01*
D02*
G37*
G36*
X329890Y-895181D02*
X326888Y-895576D01*
X324090Y-896735D01*
X321688Y-898578D01*
X319845Y-900980D01*
X318686Y-903778D01*
X318291Y-906780D01*
X318686Y-909782D01*
X319845Y-912580D01*
X321655Y-914938D01*
X321676Y-914999D01*
X321987Y-915349D01*
X322215Y-915686D01*
X322435Y-916104D01*
X322639Y-916609D01*
X322821Y-917201D01*
X322976Y-917881D01*
X323097Y-918626D01*
X323248Y-920447D01*
X323267Y-921470D01*
X323334Y-921625D01*
Y-933584D01*
X283034Y-973884D01*
X212266D01*
X201826Y-963445D01*
Y-921647D01*
X201893Y-921503D01*
X201970Y-919479D01*
X202060Y-918646D01*
X202184Y-917881D01*
X202340Y-917201D01*
X202522Y-916609D01*
X202725Y-916104D01*
X202945Y-915686D01*
X203174Y-915349D01*
X203484Y-914999D01*
X203505Y-914938D01*
X205315Y-912580D01*
X206474Y-909782D01*
X206869Y-906780D01*
X206474Y-903778D01*
X205315Y-900980D01*
X203472Y-898578D01*
X201070Y-896735D01*
X198272Y-895576D01*
X195270Y-895181D01*
X192268Y-895576D01*
X189471Y-896735D01*
X187068Y-898578D01*
X185225Y-900980D01*
X184066Y-903778D01*
X183671Y-906780D01*
X184066Y-909782D01*
X185225Y-912580D01*
X187035Y-914938D01*
X187056Y-914999D01*
X187367Y-915349D01*
X187595Y-915686D01*
X187815Y-916104D01*
X188018Y-916609D01*
X188201Y-917201D01*
X188356Y-917881D01*
X188477Y-918626D01*
X188628Y-920447D01*
X188647Y-921470D01*
X188714Y-921625D01*
Y-966160D01*
X188937Y-967857D01*
X189592Y-969438D01*
X190634Y-970796D01*
X204914Y-985076D01*
X206272Y-986118D01*
X207853Y-986773D01*
X209550Y-986996D01*
X285750D01*
X287447Y-986773D01*
X289028Y-986118D01*
X290386Y-985076D01*
X334526Y-940936D01*
X335568Y-939578D01*
X336223Y-937997D01*
X336446Y-936300D01*
Y-921647D01*
X336512Y-921503D01*
X336590Y-919479D01*
X336680Y-918646D01*
X336804Y-917881D01*
X336960Y-917201D01*
X337142Y-916609D01*
X337345Y-916104D01*
X337565Y-915686D01*
X337794Y-915349D01*
X338104Y-914999D01*
X338125Y-914938D01*
X339935Y-912580D01*
X341094Y-909782D01*
X341489Y-906780D01*
X341094Y-903778D01*
X339935Y-900980D01*
X338092Y-898578D01*
X335690Y-896735D01*
X332892Y-895576D01*
X329890Y-895181D01*
D02*
G37*
G36*
X138049Y-967232D02*
X134580D01*
Y-976670D01*
X144018D01*
Y-973201D01*
X138049Y-967232D01*
D02*
G37*
G36*
X129580D02*
X126111D01*
X120142Y-973201D01*
Y-976670D01*
X129580D01*
Y-967232D01*
D02*
G37*
G36*
X1450000Y-918403D02*
X1445057Y-918792D01*
X1440236Y-919949D01*
X1435655Y-921846D01*
X1431427Y-924437D01*
X1427657Y-927657D01*
X1424437Y-931428D01*
X1421846Y-935655D01*
X1419949Y-940236D01*
X1418792Y-945057D01*
X1418403Y-950000D01*
X1418792Y-954943D01*
X1419949Y-959764D01*
X1421846Y-964345D01*
X1424437Y-968572D01*
X1427657Y-972343D01*
X1431427Y-975563D01*
X1435655Y-978154D01*
X1440236Y-980051D01*
X1445057Y-981208D01*
X1450000Y-981597D01*
X1454943Y-981208D01*
X1459764Y-980051D01*
X1464345Y-978154D01*
X1468573Y-975563D01*
X1472343Y-972343D01*
X1475563Y-968572D01*
X1478154Y-964345D01*
X1480051Y-959764D01*
X1481208Y-954943D01*
X1481597Y-950000D01*
X1481208Y-945057D01*
X1480051Y-940236D01*
X1478154Y-935655D01*
X1475563Y-931428D01*
X1472343Y-927657D01*
X1468573Y-924437D01*
X1464345Y-921846D01*
X1459764Y-919949D01*
X1454943Y-918792D01*
X1450000Y-918403D01*
D02*
G37*
G36*
X82444Y-952500D02*
X52500D01*
Y-982444D01*
X55106Y-982239D01*
X60086Y-981043D01*
X64819Y-979083D01*
X69186Y-976407D01*
X73080Y-973080D01*
X76407Y-969186D01*
X79083Y-964818D01*
X81043Y-960087D01*
X82239Y-955106D01*
X82444Y-952500D01*
D02*
G37*
G36*
X47500D02*
X17556D01*
X17761Y-955106D01*
X18957Y-960087D01*
X20917Y-964818D01*
X23593Y-969186D01*
X26920Y-973080D01*
X30814Y-976407D01*
X35182Y-979083D01*
X39913Y-981043D01*
X44894Y-982239D01*
X47500Y-982444D01*
Y-952500D01*
D02*
G37*
G36*
X144018Y-981670D02*
X134580D01*
Y-991108D01*
X138049D01*
X144018Y-985139D01*
Y-981670D01*
D02*
G37*
G36*
X129580D02*
X120142D01*
Y-985139D01*
X126111Y-991108D01*
X129580D01*
Y-981670D01*
D02*
G37*
%LPD*%
G36*
X163232Y-554763D02*
X163091Y-554948D01*
X162967Y-555148D01*
X162859Y-555363D01*
X162768Y-555593D01*
X162693Y-555838D01*
X162635Y-556098D01*
X162593Y-556373D01*
X162568Y-556663D01*
X162560Y-556968D01*
X160020D01*
X160012Y-556663D01*
X159987Y-556373D01*
X159945Y-556098D01*
X159887Y-555838D01*
X159812Y-555593D01*
X159721Y-555363D01*
X159613Y-555148D01*
X159489Y-554948D01*
X159348Y-554763D01*
X159190Y-554592D01*
X163390D01*
X163232Y-554763D01*
D02*
G37*
G36*
X157474Y-560518D02*
X157415Y-560684D01*
X157389Y-560858D01*
X157399Y-561041D01*
X157443Y-561231D01*
X157521Y-561429D01*
X157634Y-561634D01*
X157781Y-561848D01*
X157963Y-562070D01*
X158179Y-562299D01*
X156020Y-563732D01*
X153630Y-561200D01*
X157569Y-560359D01*
X157474Y-560518D01*
D02*
G37*
G36*
X150329Y-561602D02*
X150360Y-561833D01*
X150413Y-562062D01*
X150489Y-562290D01*
X150587Y-562518D01*
X150708Y-562744D01*
X150850Y-562969D01*
X151016Y-563192D01*
X151203Y-563415D01*
X151413Y-563637D01*
X149617Y-565433D01*
X149395Y-565223D01*
X149172Y-565036D01*
X148949Y-564870D01*
X148724Y-564728D01*
X148498Y-564607D01*
X148271Y-564509D01*
X148042Y-564433D01*
X147813Y-564380D01*
X147582Y-564349D01*
X147350Y-564340D01*
X150320Y-561370D01*
X150329Y-561602D01*
D02*
G37*
G36*
X147594Y-569417D02*
X147625Y-569648D01*
X147678Y-569877D01*
X147754Y-570106D01*
X147852Y-570333D01*
X147973Y-570559D01*
X148116Y-570784D01*
X148280Y-571007D01*
X148468Y-571230D01*
X148678Y-571452D01*
X146882Y-573248D01*
X146660Y-573038D01*
X146438Y-572850D01*
X146214Y-572685D01*
X145989Y-572543D01*
X145763Y-572422D01*
X145535Y-572324D01*
X145307Y-572248D01*
X145078Y-572195D01*
X144847Y-572164D01*
X144615Y-572155D01*
X147585Y-569185D01*
X147594Y-569417D01*
D02*
G37*
G36*
X398311Y-575230D02*
X398261Y-574755D01*
X398110Y-574330D01*
X397858Y-573955D01*
X397506Y-573630D01*
X397053Y-573355D01*
X396500Y-573130D01*
X395846Y-572955D01*
X395092Y-572830D01*
X394236Y-572755D01*
X393280Y-572730D01*
Y-567730D01*
X394236Y-567705D01*
X395092Y-567630D01*
X395846Y-567505D01*
X396500Y-567330D01*
X397053Y-567105D01*
X397506Y-566830D01*
X397858Y-566505D01*
X398110Y-566130D01*
X398261Y-565705D01*
X398311Y-565230D01*
Y-575230D01*
D02*
G37*
G36*
X141251Y-574260D02*
X141336Y-574411D01*
X141439Y-574572D01*
X141695Y-574922D01*
X142021Y-575309D01*
X142638Y-575962D01*
X141806Y-578722D01*
X141579Y-578509D01*
X141356Y-578328D01*
X141136Y-578179D01*
X140920Y-578062D01*
X140708Y-577976D01*
X140499Y-577923D01*
X140294Y-577901D01*
X140093Y-577911D01*
X139896Y-577953D01*
X139702Y-578027D01*
X141183Y-574118D01*
X141251Y-574260D01*
D02*
G37*
G36*
X408275Y-575719D02*
X407850Y-575870D01*
X407475Y-576122D01*
X407150Y-576474D01*
X406875Y-576927D01*
X406650Y-577480D01*
X406475Y-578134D01*
X406350Y-578889D01*
X406275Y-579744D01*
X406250Y-580700D01*
X401250D01*
X401225Y-579744D01*
X401150Y-578889D01*
X401025Y-578134D01*
X400850Y-577480D01*
X400625Y-576927D01*
X400350Y-576474D01*
X400025Y-576122D01*
X399650Y-575870D01*
X399225Y-575719D01*
X398750Y-575669D01*
X408750D01*
X408275Y-575719D01*
D02*
G37*
G36*
X320438Y-587570D02*
X320267Y-587412D01*
X320082Y-587271D01*
X319882Y-587147D01*
X319667Y-587039D01*
X319437Y-586948D01*
X319192Y-586873D01*
X318932Y-586815D01*
X318657Y-586773D01*
X318367Y-586748D01*
X318062Y-586740D01*
Y-584200D01*
X318367Y-584192D01*
X318657Y-584167D01*
X318932Y-584125D01*
X319192Y-584067D01*
X319437Y-583993D01*
X319667Y-583901D01*
X319882Y-583793D01*
X320082Y-583669D01*
X320267Y-583528D01*
X320438Y-583370D01*
Y-587570D01*
D02*
G37*
G36*
X314088Y-595190D02*
X313917Y-595032D01*
X313732Y-594891D01*
X313532Y-594767D01*
X313317Y-594659D01*
X313087Y-594567D01*
X312842Y-594493D01*
X312582Y-594435D01*
X312307Y-594393D01*
X312017Y-594368D01*
X311712Y-594360D01*
Y-591820D01*
X312017Y-591812D01*
X312307Y-591787D01*
X312582Y-591745D01*
X312842Y-591687D01*
X313087Y-591613D01*
X313317Y-591521D01*
X313532Y-591413D01*
X313732Y-591289D01*
X313917Y-591148D01*
X314088Y-590990D01*
Y-595190D01*
D02*
G37*
G36*
X294985Y-599146D02*
X295207Y-599328D01*
X295420Y-599475D01*
X295626Y-599588D01*
X295824Y-599666D01*
X296014Y-599710D01*
X296196Y-599719D01*
X296371Y-599694D01*
X296537Y-599634D01*
X296696Y-599540D01*
X295855Y-603479D01*
X293323Y-601089D01*
X294756Y-598930D01*
X294985Y-599146D01*
D02*
G37*
G36*
X309008Y-621860D02*
X308837Y-621702D01*
X308652Y-621561D01*
X308452Y-621437D01*
X308237Y-621329D01*
X308007Y-621237D01*
X307762Y-621163D01*
X307502Y-621105D01*
X307227Y-621063D01*
X306937Y-621038D01*
X306632Y-621030D01*
Y-618490D01*
X306937Y-618482D01*
X307227Y-618457D01*
X307502Y-618415D01*
X307762Y-618357D01*
X308007Y-618283D01*
X308237Y-618191D01*
X308452Y-618083D01*
X308652Y-617959D01*
X308837Y-617818D01*
X309008Y-617660D01*
Y-621860D01*
D02*
G37*
G36*
X485638Y-631962D02*
X483870Y-633730D01*
X481370Y-639766D01*
X481341Y-638787D01*
X481255Y-637850D01*
X481110Y-636956D01*
X480908Y-636104D01*
X480648Y-635294D01*
X480330Y-634526D01*
X479955Y-633801D01*
X479522Y-633117D01*
X479031Y-632476D01*
X478482Y-631878D01*
X485638Y-631962D01*
D02*
G37*
G36*
X486420Y-653270D02*
X486570Y-653709D01*
X486820Y-654096D01*
X487170Y-654431D01*
X487620Y-654715D01*
X488170Y-654947D01*
X488820Y-655128D01*
X489570Y-655257D01*
X490420Y-655334D01*
X491223Y-655356D01*
X492026Y-655335D01*
X492882Y-655260D01*
X493636Y-655135D01*
X494290Y-654960D01*
X494843Y-654735D01*
X495296Y-654460D01*
X495648Y-654135D01*
X495900Y-653760D01*
X496051Y-653335D01*
X496101Y-652860D01*
Y-662860D01*
X496051Y-662385D01*
X495900Y-661960D01*
X495648Y-661585D01*
X495296Y-661260D01*
X494843Y-660985D01*
X494290Y-660760D01*
X493636Y-660585D01*
X492882Y-660460D01*
X492026Y-660385D01*
X491271Y-660365D01*
X490420Y-660410D01*
X489570Y-660560D01*
X488820Y-660810D01*
X488170Y-661160D01*
X487620Y-661610D01*
X487170Y-662160D01*
X486820Y-662810D01*
X486570Y-663560D01*
X486420Y-664410D01*
X486370Y-665360D01*
X483870Y-657860D01*
X486370Y-652780D01*
X486420Y-653270D01*
D02*
G37*
G36*
X413752Y-655739D02*
Y-667654D01*
X411480Y-669782D01*
X409724Y-670131D01*
X408236Y-671126D01*
X407407Y-672367D01*
X406864Y-672683D01*
X404553Y-673106D01*
X366028Y-634581D01*
Y-611608D01*
X367902Y-610578D01*
X368498Y-610485D01*
X413752Y-655739D01*
D02*
G37*
G36*
X441159Y-848622D02*
X441190Y-848853D01*
X441243Y-849082D01*
X441319Y-849311D01*
X441417Y-849538D01*
X441538Y-849764D01*
X441680Y-849989D01*
X441846Y-850212D01*
X442033Y-850435D01*
X442243Y-850657D01*
X440447Y-852453D01*
X440225Y-852243D01*
X440003Y-852056D01*
X439779Y-851890D01*
X439554Y-851748D01*
X439328Y-851627D01*
X439100Y-851529D01*
X438872Y-851453D01*
X438643Y-851400D01*
X438412Y-851369D01*
X438180Y-851360D01*
X441150Y-848390D01*
X441159Y-848622D01*
D02*
G37*
G36*
X532595Y-871147D02*
X532817Y-871335D01*
X533041Y-871500D01*
X533266Y-871642D01*
X533492Y-871763D01*
X533719Y-871861D01*
X533948Y-871937D01*
X534177Y-871990D01*
X534408Y-872021D01*
X534640Y-872030D01*
X531670Y-875000D01*
X531661Y-874768D01*
X531630Y-874537D01*
X531577Y-874308D01*
X531501Y-874080D01*
X531403Y-873852D01*
X531282Y-873626D01*
X531140Y-873401D01*
X530975Y-873177D01*
X530787Y-872955D01*
X530577Y-872733D01*
X532373Y-870937D01*
X532595Y-871147D01*
D02*
G37*
G36*
X328058Y-649800D02*
X327887Y-649642D01*
X327702Y-649501D01*
X327502Y-649377D01*
X327287Y-649269D01*
X327057Y-649177D01*
X326812Y-649103D01*
X326552Y-649045D01*
X326277Y-649003D01*
X325987Y-648978D01*
X325682Y-648970D01*
Y-646430D01*
X325987Y-646422D01*
X326277Y-646397D01*
X326552Y-646355D01*
X326812Y-646297D01*
X327057Y-646223D01*
X327287Y-646131D01*
X327502Y-646023D01*
X327702Y-645899D01*
X327887Y-645758D01*
X328058Y-645600D01*
Y-649800D01*
D02*
G37*
G36*
X312193Y-645758D02*
X312378Y-645899D01*
X312578Y-646023D01*
X312793Y-646131D01*
X313023Y-646223D01*
X313268Y-646297D01*
X313528Y-646355D01*
X313803Y-646397D01*
X314093Y-646422D01*
X314398Y-646430D01*
Y-648970D01*
X314093Y-648978D01*
X313803Y-649003D01*
X313528Y-649045D01*
X313268Y-649103D01*
X313023Y-649177D01*
X312793Y-649269D01*
X312578Y-649377D01*
X312378Y-649501D01*
X312193Y-649642D01*
X312022Y-649800D01*
Y-645600D01*
X312193Y-645758D01*
D02*
G37*
G36*
X323049Y-656852D02*
X323080Y-657083D01*
X323133Y-657312D01*
X323209Y-657541D01*
X323307Y-657768D01*
X323428Y-657994D01*
X323570Y-658219D01*
X323736Y-658443D01*
X323923Y-658665D01*
X324133Y-658887D01*
X322337Y-660683D01*
X322115Y-660473D01*
X321893Y-660285D01*
X321669Y-660120D01*
X321444Y-659978D01*
X321218Y-659857D01*
X320990Y-659759D01*
X320762Y-659683D01*
X320533Y-659630D01*
X320302Y-659599D01*
X320070Y-659590D01*
X323040Y-656620D01*
X323049Y-656852D01*
D02*
G37*
G36*
X325585Y-660327D02*
X325807Y-660515D01*
X326031Y-660680D01*
X326256Y-660822D01*
X326482Y-660943D01*
X326710Y-661041D01*
X326938Y-661117D01*
X327167Y-661170D01*
X327398Y-661201D01*
X327630Y-661210D01*
X324660Y-664180D01*
X324651Y-663948D01*
X324620Y-663717D01*
X324567Y-663488D01*
X324491Y-663260D01*
X324393Y-663032D01*
X324272Y-662806D01*
X324130Y-662581D01*
X323965Y-662357D01*
X323777Y-662135D01*
X323567Y-661913D01*
X325363Y-660117D01*
X325585Y-660327D01*
D02*
G37*
G36*
X71470Y-669813D02*
X70807Y-669172D01*
X70136Y-668599D01*
X69455Y-668093D01*
X68765Y-667654D01*
X68066Y-667283D01*
X67358Y-666980D01*
X66641Y-666744D01*
X65914Y-666575D01*
X65179Y-666474D01*
X64434Y-666440D01*
X64447Y-661440D01*
X65190Y-661406D01*
X65926Y-661305D01*
X66652Y-661137D01*
X67370Y-660902D01*
X68080Y-660600D01*
X68780Y-660230D01*
X69473Y-659793D01*
X70156Y-659288D01*
X70831Y-658717D01*
X71498Y-658078D01*
X71470Y-669813D01*
D02*
G37*
G36*
X102464Y-670112D02*
X102767Y-670480D01*
X105024Y-672918D01*
X108950Y-676905D01*
X106458Y-681483D01*
X105857Y-680932D01*
X105263Y-680488D01*
X104677Y-680151D01*
X104098Y-679920D01*
X103527Y-679796D01*
X102963Y-679779D01*
X102405Y-679868D01*
X101856Y-680065D01*
X101313Y-680368D01*
X100778Y-680778D01*
X102265Y-669841D01*
X102464Y-670112D01*
D02*
G37*
G36*
X71470Y-690213D02*
X70807Y-689572D01*
X70136Y-688999D01*
X69455Y-688493D01*
X68765Y-688054D01*
X68066Y-687683D01*
X67358Y-687380D01*
X66641Y-687144D01*
X65914Y-686975D01*
X65179Y-686874D01*
X64434Y-686840D01*
X64447Y-681840D01*
X65190Y-681806D01*
X65926Y-681705D01*
X66652Y-681537D01*
X67370Y-681302D01*
X68080Y-681000D01*
X68780Y-680630D01*
X69473Y-680193D01*
X70156Y-679688D01*
X70831Y-679117D01*
X71498Y-678478D01*
X71470Y-690213D01*
D02*
G37*
G36*
X983596Y-679952D02*
X983459Y-680053D01*
X983337Y-680220D01*
X983232Y-680454D01*
X983143Y-680754D01*
X983070Y-681122D01*
X983013Y-681556D01*
X982948Y-682625D01*
X982940Y-683260D01*
X977940D01*
X977932Y-682625D01*
X977810Y-681122D01*
X977737Y-680754D01*
X977648Y-680454D01*
X977543Y-680220D01*
X977421Y-680053D01*
X977283Y-679952D01*
X977130Y-679919D01*
X983750D01*
X983596Y-679952D01*
D02*
G37*
G36*
X900368Y-681770D02*
X900106Y-681892D01*
X899875Y-682095D01*
X899675Y-682380D01*
X899505Y-682747D01*
X899367Y-683195D01*
X899259Y-683724D01*
X899182Y-684334D01*
X899135Y-685026D01*
X899120Y-685800D01*
X894120D01*
X894105Y-685026D01*
X893981Y-683724D01*
X893874Y-683195D01*
X893735Y-682747D01*
X893565Y-682380D01*
X893365Y-682095D01*
X893134Y-681892D01*
X892872Y-681770D01*
X892579Y-681729D01*
X900660D01*
X900368Y-681770D01*
D02*
G37*
G36*
X468075Y-688859D02*
X467650Y-689010D01*
X467275Y-689262D01*
X466950Y-689614D01*
X466675Y-690067D01*
X466450Y-690620D01*
X466275Y-691274D01*
X466150Y-692029D01*
X466075Y-692884D01*
X466050Y-693839D01*
X461050D01*
X461025Y-692884D01*
X460950Y-692029D01*
X460825Y-691274D01*
X460650Y-690620D01*
X460425Y-690067D01*
X460150Y-689614D01*
X459825Y-689262D01*
X459450Y-689010D01*
X459025Y-688859D01*
X458550Y-688809D01*
X468550D01*
X468075Y-688859D01*
D02*
G37*
G36*
X566818Y-729810D02*
X566647Y-729652D01*
X566462Y-729511D01*
X566262Y-729387D01*
X566047Y-729279D01*
X565817Y-729187D01*
X565572Y-729113D01*
X565312Y-729055D01*
X565037Y-729013D01*
X564747Y-728988D01*
X564442Y-728980D01*
Y-726440D01*
X564747Y-726432D01*
X565037Y-726407D01*
X565312Y-726365D01*
X565572Y-726307D01*
X565817Y-726233D01*
X566047Y-726141D01*
X566262Y-726033D01*
X566462Y-725909D01*
X566647Y-725768D01*
X566818Y-725610D01*
Y-729810D01*
D02*
G37*
G36*
X594330Y-733250D02*
X594098Y-733259D01*
X593867Y-733290D01*
X593638Y-733343D01*
X593410Y-733419D01*
X593182Y-733517D01*
X592956Y-733638D01*
X592731Y-733780D01*
X592508Y-733945D01*
X592285Y-734133D01*
X592063Y-734343D01*
X590267Y-732547D01*
X590477Y-732325D01*
X590664Y-732103D01*
X590830Y-731879D01*
X590972Y-731654D01*
X591093Y-731428D01*
X591191Y-731200D01*
X591267Y-730972D01*
X591320Y-730743D01*
X591351Y-730512D01*
X591360Y-730280D01*
X594330Y-733250D01*
D02*
G37*
G36*
X545113Y-733033D02*
X544903Y-733255D01*
X544715Y-733477D01*
X544550Y-733701D01*
X544408Y-733926D01*
X544287Y-734152D01*
X544189Y-734380D01*
X544113Y-734608D01*
X544060Y-734837D01*
X544029Y-735068D01*
X544020Y-735300D01*
X541050Y-732330D01*
X541282Y-732321D01*
X541513Y-732290D01*
X541742Y-732237D01*
X541970Y-732161D01*
X542198Y-732063D01*
X542424Y-731942D01*
X542649Y-731800D01*
X542873Y-731635D01*
X543095Y-731447D01*
X543317Y-731237D01*
X545113Y-733033D01*
D02*
G37*
G36*
X553493Y-734658D02*
X553678Y-734799D01*
X553878Y-734923D01*
X554093Y-735031D01*
X554323Y-735123D01*
X554568Y-735197D01*
X554828Y-735255D01*
X555103Y-735297D01*
X555393Y-735322D01*
X555698Y-735330D01*
Y-737870D01*
X555393Y-737878D01*
X555103Y-737903D01*
X554828Y-737945D01*
X554568Y-738003D01*
X554323Y-738077D01*
X554093Y-738169D01*
X553878Y-738277D01*
X553678Y-738401D01*
X553493Y-738542D01*
X553322Y-738700D01*
Y-734500D01*
X553493Y-734658D01*
D02*
G37*
G36*
X519203Y-786728D02*
X519388Y-786869D01*
X519588Y-786993D01*
X519803Y-787101D01*
X520033Y-787193D01*
X520278Y-787267D01*
X520538Y-787325D01*
X520813Y-787367D01*
X521103Y-787392D01*
X521408Y-787400D01*
Y-789940D01*
X521103Y-789948D01*
X520813Y-789973D01*
X520538Y-790015D01*
X520278Y-790073D01*
X520033Y-790147D01*
X519803Y-790239D01*
X519588Y-790347D01*
X519388Y-790471D01*
X519203Y-790612D01*
X519032Y-790770D01*
Y-786570D01*
X519203Y-786728D01*
D02*
G37*
G36*
X512853Y-793078D02*
X513038Y-793219D01*
X513238Y-793343D01*
X513453Y-793451D01*
X513683Y-793542D01*
X513928Y-793617D01*
X514188Y-793675D01*
X514463Y-793717D01*
X514753Y-793742D01*
X515058Y-793750D01*
Y-796290D01*
X514753Y-796298D01*
X514463Y-796323D01*
X514188Y-796365D01*
X513928Y-796423D01*
X513683Y-796497D01*
X513453Y-796589D01*
X513238Y-796697D01*
X513038Y-796821D01*
X512853Y-796962D01*
X512682Y-797120D01*
Y-792920D01*
X512853Y-793078D01*
D02*
G37*
G36*
X650705Y-796217D02*
X650928Y-796404D01*
X651151Y-796570D01*
X651376Y-796712D01*
X651602Y-796833D01*
X651830Y-796931D01*
X652058Y-797007D01*
X652287Y-797060D01*
X652518Y-797091D01*
X652750Y-797100D01*
X649780Y-800070D01*
X649771Y-799838D01*
X649740Y-799607D01*
X649687Y-799378D01*
X649611Y-799149D01*
X649513Y-798922D01*
X649392Y-798696D01*
X649250Y-798471D01*
X649084Y-798248D01*
X648897Y-798025D01*
X648687Y-797803D01*
X650483Y-796007D01*
X650705Y-796217D01*
D02*
G37*
G36*
X505941Y-798807D02*
X506001Y-798957D01*
X506093Y-799089D01*
X506217Y-799203D01*
X506373Y-799300D01*
X506562Y-799379D01*
X506783Y-799441D01*
X507036Y-799485D01*
X507322Y-799511D01*
X507640Y-799520D01*
X506991Y-802060D01*
X503512Y-801771D01*
X505914Y-798640D01*
X505941Y-798807D01*
D02*
G37*
G36*
X664417Y-830539D02*
X664374Y-830701D01*
X664335Y-830882D01*
X664274Y-831304D01*
X664233Y-831805D01*
X664210Y-832706D01*
X661670Y-834110D01*
X661660Y-833799D01*
X661630Y-833513D01*
X661580Y-833252D01*
X661511Y-833017D01*
X661421Y-832808D01*
X661312Y-832623D01*
X661182Y-832464D01*
X661033Y-832331D01*
X660864Y-832223D01*
X660674Y-832140D01*
X664466Y-830398D01*
X664417Y-830539D01*
D02*
G37*
G36*
X683270Y-841331D02*
X683300Y-841617D01*
X683350Y-841878D01*
X683419Y-842113D01*
X683509Y-842322D01*
X683618Y-842507D01*
X683748Y-842666D01*
X683897Y-842799D01*
X684066Y-842907D01*
X684256Y-842990D01*
X680464Y-844732D01*
X680513Y-844591D01*
X680556Y-844429D01*
X680595Y-844248D01*
X680656Y-843826D01*
X680697Y-843325D01*
X680720Y-842424D01*
X683260Y-841020D01*
X683270Y-841331D01*
D02*
G37*
G36*
X699780Y-845141D02*
X699810Y-845427D01*
X699860Y-845688D01*
X699929Y-845923D01*
X700019Y-846132D01*
X700128Y-846317D01*
X700258Y-846476D01*
X700407Y-846609D01*
X700576Y-846717D01*
X700766Y-846800D01*
X696974Y-848542D01*
X697023Y-848401D01*
X697066Y-848240D01*
X697105Y-848058D01*
X697166Y-847636D01*
X697207Y-847135D01*
X697230Y-846234D01*
X699770Y-844830D01*
X699780Y-845141D01*
D02*
G37*
G36*
X718015Y-845747D02*
X718238Y-845935D01*
X718461Y-846100D01*
X718686Y-846242D01*
X718912Y-846363D01*
X719139Y-846461D01*
X719368Y-846537D01*
X719597Y-846590D01*
X719828Y-846621D01*
X720060Y-846630D01*
X717090Y-849600D01*
X717081Y-849368D01*
X717050Y-849137D01*
X716997Y-848908D01*
X716921Y-848680D01*
X716823Y-848452D01*
X716702Y-848226D01*
X716560Y-848001D01*
X716395Y-847777D01*
X716207Y-847555D01*
X715997Y-847333D01*
X717793Y-845537D01*
X718015Y-845747D01*
D02*
G37*
G36*
X665945Y-864797D02*
X666168Y-864985D01*
X666391Y-865150D01*
X666616Y-865292D01*
X666842Y-865413D01*
X667069Y-865511D01*
X667298Y-865587D01*
X667527Y-865640D01*
X667758Y-865671D01*
X667990Y-865680D01*
X665020Y-868650D01*
X665011Y-868418D01*
X664980Y-868187D01*
X664927Y-867958D01*
X664851Y-867729D01*
X664753Y-867502D01*
X664632Y-867276D01*
X664490Y-867051D01*
X664324Y-866827D01*
X664137Y-866605D01*
X663927Y-866383D01*
X665723Y-864587D01*
X665945Y-864797D01*
D02*
G37*
G36*
X386561Y-861795D02*
X390195Y-864944D01*
X391119Y-865646D01*
X393931Y-867549D01*
X394882Y-868115D01*
X381750Y-870971D01*
X382262Y-870173D01*
X382649Y-869387D01*
X382910Y-868614D01*
X383047Y-867854D01*
X383058Y-867107D01*
X382944Y-866373D01*
X382705Y-865651D01*
X382341Y-864942D01*
X381851Y-864246D01*
X381237Y-863563D01*
X385669Y-860923D01*
X386561Y-861795D01*
D02*
G37*
G36*
X268127Y-867459D02*
X267573Y-868077D01*
X267078Y-868762D01*
X266643Y-869515D01*
X266268Y-870336D01*
X265952Y-871224D01*
X265696Y-872180D01*
X265500Y-873204D01*
X265364Y-874295D01*
X265287Y-875454D01*
X265270Y-876680D01*
X255370Y-866781D01*
X256596Y-866763D01*
X258846Y-866550D01*
X259870Y-866354D01*
X260826Y-866098D01*
X261714Y-865782D01*
X262535Y-865407D01*
X263288Y-864972D01*
X263974Y-864477D01*
X264591Y-863923D01*
X268127Y-867459D01*
D02*
G37*
G36*
X336510Y-914350D02*
X336170Y-914849D01*
X335870Y-915422D01*
X335610Y-916065D01*
X335390Y-916781D01*
X335210Y-917569D01*
X335070Y-918429D01*
X334970Y-919361D01*
X334890Y-921440D01*
X324890D01*
X324870Y-920365D01*
X324710Y-918429D01*
X324570Y-917569D01*
X324390Y-916781D01*
X324170Y-916065D01*
X323910Y-915422D01*
X323610Y-914849D01*
X323270Y-914350D01*
X322890Y-913921D01*
X336890D01*
X336510Y-914350D01*
D02*
G37*
G36*
X201890D02*
X201550Y-914849D01*
X201250Y-915422D01*
X200990Y-916065D01*
X200770Y-916781D01*
X200590Y-917569D01*
X200450Y-918429D01*
X200350Y-919361D01*
X200270Y-921440D01*
X190270D01*
X190250Y-920365D01*
X190090Y-918429D01*
X189950Y-917569D01*
X189770Y-916781D01*
X189550Y-916065D01*
X189290Y-915422D01*
X188990Y-914849D01*
X188650Y-914350D01*
X188270Y-913921D01*
X202270D01*
X201890Y-914350D01*
D02*
G37*
D27*
X896620Y-677290D02*
D03*
Y-661290D02*
D03*
D50*
X980440Y-674480D02*
D03*
Y-656480D02*
D03*
X463550Y-665370D02*
D03*
Y-683370D02*
D03*
X467360Y-566310D02*
D03*
Y-584310D02*
D03*
D51*
X519540Y-657860D02*
D03*
X501540D02*
D03*
X421750Y-570230D02*
D03*
X403750D02*
D03*
D59*
X703580Y-750570D02*
Y-723900D01*
X692680Y-761470D02*
X703580Y-750570D01*
X635000Y-761470D02*
X692680D01*
X784860Y-984250D02*
X807720Y-961390D01*
X405130Y-984250D02*
X784860D01*
X389890Y-969010D02*
X405130Y-984250D01*
X807720Y-873760D02*
X822960Y-858520D01*
X807720Y-961390D02*
Y-873760D01*
X389890Y-969010D02*
Y-906780D01*
D60*
X539090Y-762610D02*
X632590D01*
X633730Y-761470D01*
X632460Y-760200D02*
Y-744220D01*
X537210Y-760730D02*
X539090Y-762610D01*
X285750Y-980440D02*
X329890Y-936300D01*
X209550Y-980440D02*
X285750D01*
X195270Y-966160D02*
X209550Y-980440D01*
X329890Y-936300D02*
Y-906780D01*
X195270Y-966160D02*
Y-906780D01*
X916640Y-629620D02*
Y-614680D01*
Y-629620D02*
X928370Y-641350D01*
X985520D01*
X994410Y-632460D01*
Y-598170D01*
X985520Y-589280D02*
X994410Y-598170D01*
X967440Y-589280D02*
X985520D01*
D61*
X707390Y-836930D02*
X720090Y-849630D01*
X707390Y-836930D02*
Y-820420D01*
X695960Y-808990D02*
X707390Y-820420D01*
X648970Y-808990D02*
X695960D01*
X642620Y-814070D02*
X692150D01*
X698500Y-849630D02*
Y-820420D01*
X692150Y-814070D02*
X698500Y-820420D01*
X641350D02*
X676910D01*
X621720Y-800790D02*
X641350Y-820420D01*
X662940Y-863600D02*
Y-829310D01*
X635000Y-782320D02*
X652780Y-800100D01*
X519430Y-782320D02*
X635000D01*
X662940Y-863600D02*
X668020Y-868680D01*
X515620Y-855980D02*
X534670Y-875030D01*
X445770Y-855980D02*
X515620D01*
X438150Y-848360D02*
X445770Y-855980D01*
X666750Y-627380D02*
X688340D01*
X659780Y-633110D02*
X692770D01*
X138430Y-575310D02*
X140190D01*
X165590Y-600710D01*
X161290Y-560070D02*
X180377Y-579157D01*
X161290Y-560070D02*
Y-552450D01*
X147320Y-561340D02*
X175914Y-589934D01*
X551180Y-736600D02*
X588010D01*
X825500Y-612140D02*
X826770D01*
X807720Y-629920D02*
X825500Y-612140D01*
X821207Y-608330D02*
X859307Y-570230D01*
X796290Y-608330D02*
X821207D01*
X793750Y-610870D02*
X796290Y-608330D01*
X835660Y-603250D02*
X862330Y-576580D01*
X835660Y-615950D02*
Y-603250D01*
X816610Y-635000D02*
X835660Y-615950D01*
X722630Y-635000D02*
X816610D01*
X588010Y-736600D02*
X594360Y-730250D01*
X541020Y-735330D02*
X548640Y-727710D01*
X568960D01*
X502920Y-798830D02*
X504880Y-800790D01*
X621720D01*
X623570Y-795020D02*
X642620Y-814070D01*
X510540Y-795020D02*
X623570D01*
X628650Y-788670D02*
X648970Y-808990D01*
X516890Y-788670D02*
X628650D01*
X676910Y-820420D02*
X681990Y-825500D01*
Y-845820D02*
Y-825500D01*
X516890Y-779780D02*
X519430Y-782320D01*
X784860Y-610870D02*
X793750D01*
X819150Y-601980D02*
X855980Y-565150D01*
X793750Y-601980D02*
X819150D01*
X715630Y-628000D02*
X722630Y-635000D01*
X718820Y-622300D02*
X726440Y-629920D01*
X770890Y-624840D02*
X784860Y-610870D01*
X721360Y-614680D02*
X731520Y-624840D01*
X770890D01*
X726440Y-629920D02*
X807720D01*
X764730Y-619760D02*
X775860Y-608630D01*
X735330Y-619760D02*
X764730D01*
X724010Y-608440D02*
X735330Y-619760D01*
X706120Y-614680D02*
X721360D01*
X693420Y-622300D02*
X718820D01*
X862330Y-576580D02*
X1055370D01*
X170752Y-595322D02*
X289352D01*
X144585Y-569155D02*
X170752Y-595322D01*
X155135Y-561052D02*
Y-558605D01*
X165590Y-600710D02*
X284190D01*
X320040Y-656590D02*
X327660Y-664210D01*
X309880Y-647700D02*
X330200D01*
X775860Y-608440D02*
X782320Y-601980D01*
X793750D01*
X659130Y-632460D02*
X659780Y-633110D01*
X692770D02*
X697880Y-628000D01*
X688340Y-627380D02*
X693420Y-622300D01*
X697880Y-628000D02*
X715630D01*
X775860Y-608630D02*
Y-608440D01*
X712360D02*
X724010D01*
X855980Y-565150D02*
X1061720D01*
X1073150Y-576580D01*
X859307Y-570230D02*
X1057910D01*
X1069340Y-581660D01*
X1055370Y-576580D02*
X1065530Y-586740D01*
X1073150Y-576580D02*
X1106170D01*
X1112520Y-570230D01*
X1120140D01*
X1069340Y-581660D02*
X1108710D01*
X1112520Y-577850D01*
X1115060D01*
X1116330D01*
X1065530Y-586740D02*
X1118870D01*
X1120140Y-588010D01*
X157480Y-563880D02*
Y-563397D01*
X155135Y-561052D02*
X157480Y-563397D01*
X175914Y-589934D02*
X296564D01*
X308610Y-601980D01*
X312420D01*
X289352Y-595322D02*
X296003Y-601973D01*
X298450D01*
X284190Y-600710D02*
X303240Y-619760D01*
X311150D01*
X157480Y-563880D02*
X178146Y-584546D01*
X299676D02*
X308220Y-593090D01*
X178146Y-584546D02*
X299676D01*
X308220Y-593090D02*
X316230D01*
X304837Y-579157D02*
X311150Y-585470D01*
X180377Y-579157D02*
X304837D01*
X311150Y-585470D02*
X322580D01*
D62*
X539750Y-763270D02*
X633730D01*
Y-761470D02*
Y-760200D01*
X539090Y-762610D02*
X539750Y-763270D01*
X384810Y-524510D02*
X393700Y-533400D01*
X384810Y-524510D02*
Y-496570D01*
X401940Y-535290D02*
X405130Y-538480D01*
X401940Y-535290D02*
Y-530210D01*
X397510Y-525780D02*
X401940Y-530210D01*
X398780Y-595630D02*
Y-586740D01*
X403750Y-581770D01*
Y-570230D01*
X381000D02*
X403750D01*
X453390Y-942340D02*
X492760D01*
X439420Y-928370D02*
X453390Y-942340D01*
X439420Y-928370D02*
Y-876300D01*
X458470Y-934720D02*
X523240D01*
X447040Y-923290D02*
X458470Y-934720D01*
X447040Y-923290D02*
Y-871220D01*
X417830Y-854710D02*
Y-726742D01*
Y-854710D02*
X439420Y-876300D01*
X425450Y-849630D02*
Y-746760D01*
Y-849630D02*
X447040Y-871220D01*
X492760Y-942340D02*
X515620Y-965200D01*
X528320D01*
X523240Y-934720D02*
X527050Y-930910D01*
X459555Y-904315D02*
X495190Y-868680D01*
X459555Y-915855D02*
Y-904315D01*
X425450Y-746760D02*
X433070Y-739140D01*
X417830Y-726742D02*
X423060Y-721512D01*
X417830Y-670820D02*
X423060Y-676050D01*
Y-721512D02*
Y-676050D01*
X417830Y-670820D02*
Y-654050D01*
X357290Y-593510D02*
X417830Y-654050D01*
X411480Y-674370D02*
X416560Y-679450D01*
Y-718820D02*
Y-679450D01*
X360680Y-774700D02*
X416560Y-718820D01*
X361950Y-636270D02*
X407670Y-681990D01*
Y-715010D02*
Y-681990D01*
X358140Y-764540D02*
X407670Y-715010D01*
X433070Y-739140D02*
Y-655320D01*
X359410Y-581660D02*
X433070Y-655320D01*
X463550Y-697230D02*
Y-683370D01*
X467840Y-610450D02*
X479590D01*
X480250Y-609790D01*
X464880Y-613410D02*
X467840Y-610450D01*
X422910Y-613410D02*
X464880D01*
X405130Y-595630D02*
X422910Y-613410D01*
X349250Y-746760D02*
X387350Y-708660D01*
Y-702310D01*
X483870Y-633730D02*
X487680Y-637540D01*
X542290D01*
X549910Y-680720D02*
X558800Y-689610D01*
X576580D02*
X715010Y-551180D01*
X576580Y-678180D02*
X713740Y-541020D01*
X1140460Y-693420D02*
X1143000Y-690880D01*
X1004570Y-693420D02*
X1140460D01*
X993140Y-704850D02*
X1004570Y-693420D01*
X1308100Y-130810D02*
X1353276D01*
X1229360Y-209550D02*
X1308100Y-130810D01*
X1163320Y-209550D02*
X1229360D01*
X1353276Y-130810D02*
X1355816Y-133350D01*
X1258026Y-130810D02*
X1260566Y-133350D01*
X1209040Y-130810D02*
X1258026D01*
X1118870Y-220980D02*
X1209040Y-130810D01*
X1126490Y-340372D02*
Y-246380D01*
X713740Y-541020D02*
X925842D01*
X1126490Y-340372D01*
X1118858Y-337328D02*
X1118870D01*
X923837Y-532350D02*
X1118858Y-337328D01*
X709710Y-532350D02*
X923837D01*
X1118870Y-337328D02*
Y-220980D01*
X585973Y-132220D02*
X593510Y-139757D01*
X552450Y-539750D02*
X593510Y-498690D01*
X610870Y-502656D02*
Y-215900D01*
X618490Y-505699D02*
Y-222250D01*
X549910Y-558800D02*
X573273D01*
X603250Y-499613D02*
Y-211183D01*
X593510Y-498690D02*
Y-139757D01*
X594360Y-508503D02*
X603250Y-499613D01*
X601980Y-511546D02*
X610870Y-502656D01*
X609520Y-514669D02*
X618490Y-505699D01*
X573273Y-558800D02*
X609520Y-522553D01*
X569727Y-551180D02*
X601980Y-518927D01*
Y-511546D01*
X538480Y-551180D02*
X569727D01*
X609520Y-522553D02*
Y-514669D01*
X594360Y-515620D02*
Y-508503D01*
X323910Y-718820D02*
X334503Y-708227D01*
X203200Y-718820D02*
X323910D01*
X177800Y-744220D02*
X203200Y-718820D01*
X320890Y-710350D02*
X331470Y-699770D01*
X227750Y-710350D02*
X320890D01*
X208280Y-690880D02*
X227750Y-710350D01*
X177800Y-764540D02*
Y-744220D01*
X161290Y-781050D02*
X177800Y-764540D01*
X114300Y-792480D02*
X194310D01*
X63500Y-843280D02*
X114300Y-792480D01*
X63500Y-875030D02*
Y-843280D01*
X116840Y-801370D02*
X200660D01*
X72390Y-845820D02*
X116840Y-801370D01*
X72390Y-881380D02*
Y-845820D01*
X67310Y-886460D02*
X72390Y-881380D01*
X68470Y-704740D02*
X80000D01*
X59680Y-695950D02*
X68470Y-704740D01*
X208280Y-690880D02*
Y-610870D01*
X271120Y-697840D02*
X271780Y-698500D01*
X271120Y-697840D02*
Y-667360D01*
X270510Y-666750D02*
X271120Y-667360D01*
Y-636930D02*
X273050Y-635000D01*
X271120Y-666140D02*
Y-636930D01*
X270510Y-666750D02*
X271120Y-666140D01*
X339090Y-581660D02*
X359410D01*
X334860Y-593510D02*
X357290D01*
X331470Y-596900D02*
X334860Y-593510D01*
X334503Y-708227D02*
X336550D01*
X326390Y-727710D02*
X331470Y-722630D01*
X217170Y-727710D02*
X326390D01*
X201930Y-742950D02*
X217170Y-727710D01*
X331470Y-699770D02*
X341630D01*
X361950Y-636270D02*
Y-610870D01*
X353060Y-640080D02*
X397510Y-684530D01*
X353060Y-640080D02*
Y-614680D01*
X349250Y-610870D02*
X353060Y-614680D01*
X342900Y-610870D02*
X349250D01*
X344170Y-601980D02*
X353060D01*
X361950Y-610870D01*
X63500Y-875030D02*
X64770Y-876300D01*
X69850Y-895350D02*
X81280Y-883920D01*
X68580Y-895350D02*
X69850D01*
X119380Y-810260D02*
X204470D01*
X81280Y-848360D02*
X119380Y-810260D01*
X81280Y-883920D02*
Y-848360D01*
X93320Y-896010D02*
Y-847750D01*
X73660Y-902970D02*
X86360D01*
X93320Y-896010D01*
X240030Y-746760D02*
X349250D01*
X246380Y-755650D02*
X353060D01*
X250190Y-764540D02*
X358140D01*
X254000Y-774700D02*
X360680D01*
X93320Y-847750D02*
X121920Y-819150D01*
X607060Y-685800D02*
X896620D01*
X599440Y-693420D02*
X607060Y-685800D01*
X397510Y-711200D02*
Y-684530D01*
X242570Y-570230D02*
X252730Y-560070D01*
X370840D01*
X381000Y-570230D01*
X353060Y-755650D02*
X397510Y-711200D01*
X534670Y-547370D02*
X538480Y-551180D01*
X566420Y-541020D02*
X568960D01*
X674997Y-180450D02*
X924911D01*
X971327Y-134034D01*
X748393Y-163830D02*
X778873Y-133350D01*
X427990Y-528320D02*
X434020Y-522290D01*
X408940Y-493870D02*
X418940Y-483870D01*
X408940Y-530860D02*
Y-493870D01*
X426480Y-494373D02*
Y-259870D01*
X419100Y-518160D02*
Y-501753D01*
X426480Y-494373D01*
X418940Y-483870D02*
Y-262994D01*
X397510Y-525780D02*
Y-494533D01*
X411400Y-480643D02*
Y-266117D01*
X397510Y-494533D02*
X411400Y-480643D01*
X403860Y-477520D02*
Y-269240D01*
X384810Y-496570D02*
X403860Y-477520D01*
X489634Y-205056D02*
Y-134034D01*
X434020Y-260670D02*
X489634Y-205056D01*
X434020Y-522290D02*
Y-260670D01*
X392430Y-225821D02*
X426480Y-259870D01*
X392430Y-225821D02*
Y-133350D01*
X365656Y-209710D02*
X418940Y-262994D01*
X335280Y-209710D02*
X365656D01*
X297180Y-171610D02*
X335280Y-209710D01*
X297180Y-171610D02*
Y-133350D01*
X362533Y-217250D02*
X411400Y-266117D01*
X285830Y-217250D02*
X362533D01*
X200660Y-132080D02*
X285830Y-217250D01*
X359410Y-224790D02*
X403860Y-269240D01*
X196850Y-224790D02*
X359410D01*
X104280Y-132220D02*
X196850Y-224790D01*
X389890Y-876780D02*
Y-868680D01*
X379730Y-858520D02*
X389890Y-868680D01*
X273530Y-858520D02*
X379730D01*
X255270Y-876780D02*
X273530Y-858520D01*
X1126490Y-246380D02*
X1163320Y-209550D01*
X165100Y-637540D02*
X180340Y-622300D01*
X97800Y-674440D02*
X102950D01*
X123180Y-694670D01*
X126990Y-674350D02*
X132070Y-679430D01*
X126990Y-674350D02*
Y-664190D01*
X130800Y-660380D01*
X123180Y-694670D02*
X154940D01*
X158750Y-690860D01*
X132070Y-679430D02*
X154940D01*
X158750Y-683240D01*
Y-690860D02*
Y-683240D01*
X561340Y-570230D02*
X575310D01*
X582930Y-715010D02*
X623570D01*
X633730Y-704850D01*
X993140D01*
X576580Y-702310D02*
X579190Y-704920D01*
X616020D01*
X563880Y-678180D02*
X576580D01*
X558800Y-689610D02*
X576580D01*
X571470Y-665510D02*
X576550D01*
X709710Y-532350D01*
X562610Y-656590D02*
X565150Y-654050D01*
X575310D01*
X549910Y-652780D02*
X557530Y-645160D01*
X568960D01*
X547370Y-561340D02*
X549910Y-558800D01*
X1135380Y-252730D02*
X1169670Y-218440D01*
X1109980Y-186146D02*
X1164046Y-132080D01*
X1067666Y-132220D02*
X1101090Y-165644D01*
Y-331470D02*
Y-165644D01*
X1109980Y-334010D02*
Y-186146D01*
X1135380Y-342900D02*
Y-252730D01*
X715010Y-551180D02*
X927100D01*
X1135380Y-342900D01*
X568960Y-645160D02*
X701040Y-513080D01*
X919480D01*
X1101090Y-331470D01*
X575310Y-654050D02*
X707390Y-521970D01*
X922020D01*
X1109980Y-334010D01*
X662940Y-163830D02*
X748393D01*
X668020Y-172720D02*
X834753D01*
X874123Y-133350D01*
X616020Y-704920D02*
X624980Y-695960D01*
X967740D01*
X980440Y-683260D01*
X483870Y-652780D02*
Y-633730D01*
X480250Y-630110D02*
X483870Y-633730D01*
X480250Y-630110D02*
Y-609790D01*
X398780Y-595630D02*
X405130D01*
X467360Y-596900D02*
X480250Y-609790D01*
X467360Y-596900D02*
Y-591310D01*
X1169670Y-218440D02*
X1309370D01*
X1397000Y-130810D01*
X1449796D01*
X1453020Y-134034D01*
X568960Y-541020D02*
X594360Y-515620D01*
X603250Y-211183D02*
X682353Y-132080D01*
X610870Y-215900D02*
X662940Y-163830D01*
X618490Y-222250D02*
X668020Y-172720D01*
X575310Y-570230D02*
X626110Y-519430D01*
Y-229337D01*
X674997Y-180450D01*
X740410Y-596900D02*
X778510Y-558800D01*
X1068070D01*
X1078230Y-568960D01*
X194310Y-792480D02*
X240030Y-746760D01*
X200660Y-801370D02*
X246380Y-755650D01*
X204470Y-810260D02*
X250190Y-764540D01*
X121920Y-819150D02*
X209550D01*
X254000Y-774700D01*
X165100Y-654030D02*
Y-637540D01*
X158750Y-660380D02*
X165100Y-654030D01*
X130800Y-660380D02*
X158750D01*
X21580Y-690860D02*
X48500Y-663940D01*
X80000D01*
X30470Y-791210D02*
Y-699750D01*
X45880Y-684340D01*
X80000D01*
X21580Y-791210D02*
Y-690860D01*
X483870Y-657860D02*
X501540D01*
X483870Y-679450D02*
Y-652780D01*
X980440Y-683260D02*
Y-672480D01*
X896620Y-685800D02*
Y-676290D01*
Y-685800D02*
X896620Y-685800D01*
D72*
X132080Y-928370D02*
D03*
Y-902970D02*
D03*
Y-953770D02*
D03*
Y-877570D02*
D03*
Y-979170D02*
D03*
Y-852170D02*
D03*
D73*
X86370Y-770910D02*
D03*
Y-608310D02*
D03*
D74*
X143470Y-758210D02*
D03*
Y-735310D02*
D03*
Y-643910D02*
D03*
Y-621010D02*
D03*
X95270Y-654060D02*
D03*
X77470Y-663960D02*
D03*
X95270Y-674460D02*
D03*
X77470Y-684360D02*
D03*
X95270Y-694860D02*
D03*
X77470Y-704760D02*
D03*
X95270Y-715260D02*
D03*
D75*
X77470Y-725160D02*
D03*
D76*
X52070Y-626110D02*
D03*
Y-753110D02*
D03*
D77*
X726340Y-936380D02*
D03*
X682340D02*
D03*
D78*
X325120Y-298450D02*
D03*
Y-323850D02*
D03*
X223520Y-298450D02*
D03*
X248920Y-323850D02*
D03*
Y-298450D02*
D03*
X274320Y-323850D02*
D03*
Y-298450D02*
D03*
X299720Y-323850D02*
D03*
Y-298450D02*
D03*
X223520Y-323850D02*
D03*
X70150Y-544830D02*
D03*
X19350Y-570230D02*
D03*
Y-544830D02*
D03*
X44750Y-570230D02*
D03*
Y-544830D02*
D03*
X70150Y-570230D02*
D03*
X806450Y-307340D02*
D03*
Y-332740D02*
D03*
X704850Y-307340D02*
D03*
X730250Y-332740D02*
D03*
Y-307340D02*
D03*
X755650Y-332740D02*
D03*
Y-307340D02*
D03*
X781050Y-332740D02*
D03*
Y-307340D02*
D03*
X704850Y-332740D02*
D03*
X916640Y-589280D02*
D03*
X942040Y-614680D02*
D03*
Y-589280D02*
D03*
X967440Y-614680D02*
D03*
Y-589280D02*
D03*
X916640Y-614680D02*
D03*
X1187450Y-328930D02*
D03*
X1263650Y-303530D02*
D03*
Y-328930D02*
D03*
X1238250Y-303530D02*
D03*
Y-328930D02*
D03*
X1212850Y-303530D02*
D03*
Y-328930D02*
D03*
X1187450Y-303530D02*
D03*
X1289050Y-328930D02*
D03*
Y-303530D02*
D03*
D79*
X195270Y-876780D02*
D03*
X225270D02*
D03*
X255270D02*
D03*
X195270Y-906780D02*
D03*
X225270D02*
D03*
X329890Y-876780D02*
D03*
X359890D02*
D03*
X389890D02*
D03*
X329890Y-906780D02*
D03*
X359890D02*
D03*
D80*
X255270D02*
D03*
X389890D02*
D03*
D81*
X1461970Y-638810D02*
D03*
X1410970D02*
D03*
Y-715010D02*
D03*
X1461970D02*
D03*
D82*
X1305170Y-806450D02*
D03*
Y-867410D02*
D03*
D83*
X1360170Y-806450D02*
D03*
Y-867410D02*
D03*
D84*
X1450000Y-50000D02*
D03*
X50000D02*
D03*
Y-950000D02*
D03*
X1450000D02*
D03*
X995680Y-316230D02*
D03*
X514350D02*
D03*
D85*
X697230Y-748030D02*
D03*
X708660Y-740410D02*
D03*
Y-727710D02*
D03*
X701040Y-759460D02*
D03*
X698500Y-731520D02*
D03*
X665480Y-777240D02*
D03*
X393700Y-533400D02*
D03*
X405130Y-538480D02*
D03*
X406400Y-849630D02*
D03*
X480060Y-897890D02*
D03*
X476250Y-869950D02*
D03*
X457200D02*
D03*
X431800Y-923290D02*
D03*
Y-891540D02*
D03*
X406400Y-927100D02*
D03*
X391160Y-994410D02*
D03*
X406400Y-958850D02*
D03*
X340360Y-963930D02*
D03*
X370840Y-927100D02*
D03*
X341630Y-920750D02*
D03*
X318770Y-965200D02*
D03*
X294640Y-952500D02*
D03*
X314960Y-930910D02*
D03*
X180340Y-969010D02*
D03*
X179070Y-947420D02*
D03*
X180340Y-922020D02*
D03*
X209550Y-929640D02*
D03*
X275590Y-934720D02*
D03*
X191770Y-981710D02*
D03*
X276860Y-904240D02*
D03*
X275590Y-960120D02*
D03*
X568960Y-892810D02*
D03*
X593090Y-890270D02*
D03*
X541020Y-883920D02*
D03*
X556260Y-871220D02*
D03*
X598170D02*
D03*
X614680D02*
D03*
X607060Y-933450D02*
D03*
X615950Y-922020D02*
D03*
X542290D02*
D03*
X554990Y-932180D02*
D03*
X480060Y-960120D02*
D03*
X527050Y-895350D02*
D03*
X435610Y-967740D02*
D03*
X525780Y-953770D02*
D03*
X528320Y-965200D02*
D03*
X654050Y-967740D02*
D03*
X753110D02*
D03*
X60960Y-825500D02*
D03*
X152400Y-939800D02*
D03*
X53340Y-902970D02*
D03*
X46990Y-862330D02*
D03*
X109220Y-946150D02*
D03*
X115570Y-866140D02*
D03*
X101600Y-867410D02*
D03*
X92710Y-910590D02*
D03*
X151130Y-889000D02*
D03*
X447040Y-773430D02*
D03*
X435610Y-750570D02*
D03*
X386080Y-808990D02*
D03*
Y-764540D02*
D03*
X405130Y-758190D02*
D03*
Y-800100D02*
D03*
X406400Y-830580D02*
D03*
X255270Y-845820D02*
D03*
X308610Y-844550D02*
D03*
X218440Y-824230D02*
D03*
X186690Y-829310D02*
D03*
X156210Y-830580D02*
D03*
X652780Y-800100D02*
D03*
X661670Y-829310D02*
D03*
X537210Y-760730D02*
D03*
X632460Y-744220D02*
D03*
X534670Y-875030D02*
D03*
X438150Y-848360D02*
D03*
X666750Y-627380D02*
D03*
X459555Y-915855D02*
D03*
X495190Y-868680D02*
D03*
X138430Y-575310D02*
D03*
X147320Y-561340D02*
D03*
X161290Y-552450D02*
D03*
X551180Y-736600D02*
D03*
X820420Y-867410D02*
D03*
X812800Y-861060D02*
D03*
X810260Y-871220D02*
D03*
X822960Y-858520D02*
D03*
X826770Y-612140D02*
D03*
X568960Y-727710D02*
D03*
X527050Y-930910D02*
D03*
X411480Y-674370D02*
D03*
X463550Y-697230D02*
D03*
X502920Y-798830D02*
D03*
X510540Y-795020D02*
D03*
X516890Y-788670D02*
D03*
Y-779780D02*
D03*
X1235710Y-696383D02*
D03*
Y-684530D02*
D03*
Y-708237D02*
D03*
Y-720090D02*
D03*
X1247775Y-720513D02*
D03*
Y-708660D02*
D03*
Y-684953D02*
D03*
Y-696807D02*
D03*
X1259840Y-720513D02*
D03*
Y-708660D02*
D03*
Y-684953D02*
D03*
Y-696807D02*
D03*
X1271905Y-720513D02*
D03*
Y-708660D02*
D03*
Y-684953D02*
D03*
Y-696807D02*
D03*
X1283970Y-720513D02*
D03*
Y-708660D02*
D03*
Y-684953D02*
D03*
Y-696807D02*
D03*
X1296035Y-720513D02*
D03*
Y-708660D02*
D03*
Y-684953D02*
D03*
Y-696807D02*
D03*
X1308100Y-720513D02*
D03*
Y-708660D02*
D03*
Y-684953D02*
D03*
Y-696807D02*
D03*
X963507Y-902970D02*
D03*
X951653D02*
D03*
X975360D02*
D03*
X987213D02*
D03*
X963507Y-915035D02*
D03*
X951653D02*
D03*
X975360D02*
D03*
X987213D02*
D03*
X963507Y-927100D02*
D03*
X951653D02*
D03*
X975360D02*
D03*
X987213D02*
D03*
X963507Y-939165D02*
D03*
X951653D02*
D03*
X975360D02*
D03*
X987213D02*
D03*
X963507Y-951230D02*
D03*
X951653D02*
D03*
X975360D02*
D03*
X987213D02*
D03*
X963507Y-963295D02*
D03*
X951653D02*
D03*
X975360D02*
D03*
X987213D02*
D03*
X986790Y-975360D02*
D03*
X974937D02*
D03*
X951230D02*
D03*
X963083D02*
D03*
X754380Y-810260D02*
D03*
X728980Y-803910D02*
D03*
X741680Y-821690D02*
D03*
X855980Y-887730D02*
D03*
X970280Y-833120D02*
D03*
X234950Y-808990D02*
D03*
X246380Y-737870D02*
D03*
X1212850Y-666750D02*
D03*
Y-828040D02*
D03*
Y-793750D02*
D03*
Y-770890D02*
D03*
Y-741680D02*
D03*
X793750Y-610870D02*
D03*
X816610Y-595630D02*
D03*
X701040Y-657860D02*
D03*
X462280Y-603250D02*
D03*
X387350Y-702310D02*
D03*
X542290Y-637540D02*
D03*
X549910Y-680720D02*
D03*
X706120Y-614680D02*
D03*
X527050Y-575310D02*
D03*
X1082040Y-560070D02*
D03*
X144585Y-569155D02*
D03*
X155135Y-558605D02*
D03*
X262890Y-676910D02*
D03*
X307340Y-637540D02*
D03*
X327660Y-664210D02*
D03*
X320040Y-656590D02*
D03*
X307340Y-662940D02*
D03*
X328930Y-674370D02*
D03*
X59680Y-695950D02*
D03*
X127000Y-783590D02*
D03*
X660400Y-886460D02*
D03*
X640080D02*
D03*
X496570Y-593090D02*
D03*
X447040Y-590550D02*
D03*
X208280Y-610870D02*
D03*
X270510Y-666750D02*
D03*
X339090Y-581660D02*
D03*
X331470Y-596900D02*
D03*
X378460Y-706120D02*
D03*
X455930Y-704850D02*
D03*
X336550Y-708227D02*
D03*
X341630Y-699770D02*
D03*
X342900Y-610870D02*
D03*
X344170Y-601980D02*
D03*
X1107440Y-946150D02*
D03*
X961390Y-685800D02*
D03*
X1069340Y-679450D02*
D03*
X1040130Y-711200D02*
D03*
X960120Y-713740D02*
D03*
X1129030Y-613410D02*
D03*
X1118870Y-640080D02*
D03*
X1103630Y-566420D02*
D03*
X1149350Y-590550D02*
D03*
X1258570Y-633730D02*
D03*
X1327150Y-631190D02*
D03*
X1290320Y-632460D02*
D03*
X1440180Y-694690D02*
D03*
X1405890Y-687070D02*
D03*
X1381760Y-662940D02*
D03*
X1363980Y-645160D02*
D03*
X1447800Y-759460D02*
D03*
X1358900Y-744220D02*
D03*
X1407160Y-732790D02*
D03*
X1465580D02*
D03*
X1433830Y-731520D02*
D03*
X1367790Y-703580D02*
D03*
X1343660Y-678180D02*
D03*
X1383030Y-716280D02*
D03*
X1357630Y-690880D02*
D03*
X1334770Y-669290D02*
D03*
X1210310Y-869950D02*
D03*
X1249680Y-896620D02*
D03*
X1211580Y-895350D02*
D03*
X836930Y-960120D02*
D03*
X786130Y-957580D02*
D03*
X814070Y-990600D02*
D03*
X899160D02*
D03*
X1250950Y-830580D02*
D03*
X1259840Y-984250D02*
D03*
X1350010D02*
D03*
X1399540D02*
D03*
X1070610Y-902970D02*
D03*
X1188720Y-984250D02*
D03*
X1109980D02*
D03*
X1038860D02*
D03*
X1323340Y-930910D02*
D03*
X1276350D02*
D03*
X1211580D02*
D03*
X1362710Y-929640D02*
D03*
X1106170Y-901700D02*
D03*
X1182370Y-915670D02*
D03*
X1173480Y-871220D02*
D03*
X1130300Y-830580D02*
D03*
X1097280Y-842010D02*
D03*
X1098550Y-801370D02*
D03*
X1097280Y-763270D02*
D03*
X1130300Y-801370D02*
D03*
X1113790Y-684530D02*
D03*
X1076960Y-722630D02*
D03*
X1136650Y-675640D02*
D03*
X1129030Y-716280D02*
D03*
X1092200Y-740410D02*
D03*
X1214120Y-702310D02*
D03*
X961390Y-746760D02*
D03*
X1040130D02*
D03*
X977900Y-774700D02*
D03*
X1040130Y-802640D02*
D03*
X1005840Y-756920D02*
D03*
X923290Y-749300D02*
D03*
X957580Y-800100D02*
D03*
X939800Y-762000D02*
D03*
X847090Y-739140D02*
D03*
X821690Y-777240D02*
D03*
X807720Y-797560D02*
D03*
X847090Y-806450D02*
D03*
X896620Y-784860D02*
D03*
X772160Y-825500D02*
D03*
X839470Y-900430D02*
D03*
X457200Y-894080D02*
D03*
X772160Y-867410D02*
D03*
X824230Y-887730D02*
D03*
X772160Y-902970D02*
D03*
X754380Y-866140D02*
D03*
X745490Y-891540D02*
D03*
X1170940Y-701040D02*
D03*
X969010Y-810260D02*
D03*
X877570Y-716280D02*
D03*
X821690Y-715010D02*
D03*
X815340Y-748030D02*
D03*
X770890Y-713740D02*
D03*
X64770Y-876300D02*
D03*
X67310Y-886460D02*
D03*
X68580Y-895350D02*
D03*
X73660Y-902970D02*
D03*
X628650Y-835660D02*
D03*
X612140Y-775970D02*
D03*
X542290Y-751840D02*
D03*
X541020Y-735330D02*
D03*
X614680Y-850900D02*
D03*
X598170Y-839470D02*
D03*
X533400Y-861060D02*
D03*
X474980Y-847090D02*
D03*
X619760Y-753110D02*
D03*
X595630Y-722630D02*
D03*
X582930Y-751840D02*
D03*
X539750Y-725170D02*
D03*
X490220Y-788670D02*
D03*
X486410Y-824230D02*
D03*
X462280Y-845820D02*
D03*
X433070Y-788670D02*
D03*
X356870Y-844550D02*
D03*
X345440Y-801370D02*
D03*
X210820Y-861060D02*
D03*
X161290Y-864870D02*
D03*
X763270Y-863600D02*
D03*
X177800Y-782320D02*
D03*
X186690Y-760730D02*
D03*
X250190Y-702310D02*
D03*
X266700Y-736600D02*
D03*
X313690D02*
D03*
X271780Y-789940D02*
D03*
X320040Y-783590D02*
D03*
X162560Y-703580D02*
D03*
X185420Y-694690D02*
D03*
X175260Y-638810D02*
D03*
X167640Y-676910D02*
D03*
X186690Y-657860D02*
D03*
Y-635000D02*
D03*
X251460Y-610870D02*
D03*
X261620Y-655320D02*
D03*
X228600Y-693420D02*
D03*
X226060Y-654050D02*
D03*
Y-624840D02*
D03*
X214630Y-551180D02*
D03*
X102870Y-533400D02*
D03*
X224790Y-539750D02*
D03*
X162560Y-541020D02*
D03*
X309880D02*
D03*
X318770Y-551180D02*
D03*
X300990D02*
D03*
X299720Y-568960D02*
D03*
X360680Y-570230D02*
D03*
X431800Y-640080D02*
D03*
X471170Y-618490D02*
D03*
X759460Y-749300D02*
D03*
X717550Y-657860D02*
D03*
X673100D02*
D03*
X642620Y-656590D02*
D03*
X829310Y-575310D02*
D03*
X855980Y-636270D02*
D03*
X833120D02*
D03*
X725170Y-642620D02*
D03*
X753110D02*
D03*
X706120Y-635000D02*
D03*
X669290Y-640080D02*
D03*
X748030Y-575310D02*
D03*
X726440D02*
D03*
X704850D02*
D03*
X674370Y-601980D02*
D03*
X614680Y-665480D02*
D03*
X603250Y-675640D02*
D03*
X1003300Y-647700D02*
D03*
X753110Y-673100D02*
D03*
X783590Y-764540D02*
D03*
X680720Y-792480D02*
D03*
X664210Y-718820D02*
D03*
X679450Y-745490D02*
D03*
X635000Y-723900D02*
D03*
X637540Y-715010D02*
D03*
Y-862330D02*
D03*
X775970Y-847090D02*
D03*
X728980Y-913130D02*
D03*
X725170Y-891540D02*
D03*
X690880Y-833120D02*
D03*
X259080Y-796290D02*
D03*
X182880Y-568960D02*
D03*
X205740Y-571500D02*
D03*
X358140Y-722630D02*
D03*
X577850Y-187960D02*
D03*
X544830Y-185420D02*
D03*
X687070Y-288290D02*
D03*
X640080Y-241300D02*
D03*
X881380Y-220980D02*
D03*
X966470Y-193040D02*
D03*
X930910Y-194310D02*
D03*
X861060Y-262890D02*
D03*
X924560Y-236220D02*
D03*
X873760Y-289560D02*
D03*
X808990Y-287020D02*
D03*
X868680Y-193040D02*
D03*
X834390Y-195580D02*
D03*
X825500Y-234950D02*
D03*
X777240Y-257810D02*
D03*
X774700Y-194310D02*
D03*
X734060Y-199390D02*
D03*
X735330Y-262890D02*
D03*
X690880Y-238760D02*
D03*
X681990Y-195580D02*
D03*
X59690Y-454660D02*
D03*
X111760Y-414020D02*
D03*
X304800Y-412750D02*
D03*
X350520Y-452120D02*
D03*
X342900Y-394970D02*
D03*
X294640Y-370840D02*
D03*
X295910Y-453390D02*
D03*
X256540Y-452120D02*
D03*
X199390D02*
D03*
X240030Y-375920D02*
D03*
X204470Y-392430D02*
D03*
X157480Y-454660D02*
D03*
X100330Y-448310D02*
D03*
X144780Y-421640D02*
D03*
X156210Y-391160D02*
D03*
X181610Y-344170D02*
D03*
X133350Y-349250D02*
D03*
X101600Y-374650D02*
D03*
X54610Y-400050D02*
D03*
X59690Y-356870D02*
D03*
X80010Y-330200D02*
D03*
X101600Y-309880D02*
D03*
X77470Y-284480D02*
D03*
X59690Y-252730D02*
D03*
X52070Y-214630D02*
D03*
X66040Y-189230D02*
D03*
X100330D02*
D03*
X151130Y-241300D02*
D03*
X101600Y-245110D02*
D03*
X133350Y-276860D02*
D03*
X212090Y-275590D02*
D03*
X254000Y-242570D02*
D03*
X342900Y-236220D02*
D03*
X292100Y-248920D02*
D03*
X204470Y-240030D02*
D03*
X226060Y-214630D02*
D03*
X151130Y-199390D02*
D03*
X165100Y-176530D02*
D03*
X191770Y-184150D02*
D03*
X250190Y-200660D02*
D03*
X285750Y-190500D02*
D03*
X354330Y-186690D02*
D03*
X382270D02*
D03*
X405130D02*
D03*
X496570Y-217170D02*
D03*
X501650Y-181610D02*
D03*
X477520Y-189230D02*
D03*
X447040D02*
D03*
X430530Y-247650D02*
D03*
X402590Y-219710D02*
D03*
X379730Y-262890D02*
D03*
X334010Y-279400D02*
D03*
X393700Y-280670D02*
D03*
X753110Y-900430D02*
D03*
X654050D02*
D03*
X1247140Y-615950D02*
D03*
X1243330Y-792480D02*
D03*
X1054100Y-916940D02*
D03*
X854710Y-913130D02*
D03*
X502920Y-911860D02*
D03*
X530860Y-646430D02*
D03*
X403860Y-666750D02*
D03*
X384810Y-632460D02*
D03*
X242570Y-570230D02*
D03*
X273050Y-635000D02*
D03*
X271780Y-698500D02*
D03*
X441005Y-708345D02*
D03*
X473710Y-650240D02*
D03*
X406400Y-612140D02*
D03*
X349250Y-783590D02*
D03*
X624840Y-541020D02*
D03*
X509270Y-581660D02*
D03*
X344170Y-651510D02*
D03*
X561340Y-570230D02*
D03*
X547370Y-561340D02*
D03*
X534670Y-547370D02*
D03*
X566420Y-541020D02*
D03*
X552450Y-539750D02*
D03*
X1067666Y-132220D02*
D03*
X1164046Y-132080D02*
D03*
X1260566Y-133350D02*
D03*
X1355816D02*
D03*
X1453020Y-134034D02*
D03*
X585973Y-132220D02*
D03*
X682353Y-132080D02*
D03*
X778873Y-133350D02*
D03*
X874123D02*
D03*
X971327Y-134034D02*
D03*
X408940Y-530860D02*
D03*
X427990Y-528320D02*
D03*
X419100Y-518160D02*
D03*
X489634Y-134034D02*
D03*
X392430Y-133350D02*
D03*
X297180D02*
D03*
X200660Y-132080D02*
D03*
X104280Y-132220D02*
D03*
X549910Y-652780D02*
D03*
X563880Y-678180D02*
D03*
X571470Y-665510D02*
D03*
X562610Y-656590D02*
D03*
X180340Y-622300D02*
D03*
X331470Y-722630D02*
D03*
X201930Y-742950D02*
D03*
X896620Y-685800D02*
D03*
X980440Y-683260D02*
D03*
X582930Y-715010D02*
D03*
X576580Y-702310D02*
D03*
X599440Y-693420D02*
D03*
X309880Y-647700D02*
D03*
X330200D02*
D03*
X683260Y-845820D02*
D03*
X699770Y-849630D02*
D03*
X720090D02*
D03*
X668020Y-868680D02*
D03*
X654050Y-934720D02*
D03*
X753110D02*
D03*
X480250Y-609790D02*
D03*
X483870Y-652780D02*
D03*
X430530Y-598170D02*
D03*
X440690Y-684530D02*
D03*
X398780Y-595630D02*
D03*
X467360Y-641350D02*
D03*
X388620Y-650240D02*
D03*
X378460Y-678180D02*
D03*
X104140Y-501650D02*
D03*
X118110Y-485140D02*
D03*
X200660Y-501650D02*
D03*
X214630Y-486410D02*
D03*
X310377Y-485140D02*
D03*
X296407Y-501650D02*
D03*
X393700Y-468630D02*
D03*
X368300Y-504190D02*
D03*
X502644Y-485140D02*
D03*
X488950Y-463550D02*
D03*
X576580Y-467360D02*
D03*
X694911Y-485140D02*
D03*
X680941Y-501650D02*
D03*
X791045Y-485140D02*
D03*
X777075Y-501650D02*
D03*
X887178Y-485140D02*
D03*
X873208Y-501650D02*
D03*
X1079446Y-485140D02*
D03*
X1065476Y-501650D02*
D03*
X1175579Y-485140D02*
D03*
X1161609Y-501650D02*
D03*
X1271713Y-485140D02*
D03*
X1257743Y-501650D02*
D03*
X1367846Y-485140D02*
D03*
X1353876Y-501650D02*
D03*
X1463980Y-485140D02*
D03*
X1450010Y-501650D02*
D03*
X1022956Y-140970D02*
D03*
X1008986Y-157480D02*
D03*
X1119089Y-140970D02*
D03*
X1105119Y-157480D02*
D03*
X1215223Y-140970D02*
D03*
X1201253Y-157480D02*
D03*
X1311356Y-140970D02*
D03*
X1297386Y-157480D02*
D03*
X1407490Y-140970D02*
D03*
X1393520Y-157480D02*
D03*
X541263Y-140970D02*
D03*
X527293Y-157480D02*
D03*
X637396Y-140970D02*
D03*
X623426Y-157480D02*
D03*
X733530Y-140970D02*
D03*
X717550Y-154940D02*
D03*
X829663Y-140970D02*
D03*
X815694Y-157480D02*
D03*
X925797Y-140970D02*
D03*
X911827Y-157480D02*
D03*
X59570Y-140970D02*
D03*
X45600Y-157480D02*
D03*
X155704Y-140970D02*
D03*
X141734Y-157480D02*
D03*
X251837Y-140970D02*
D03*
X237867Y-157480D02*
D03*
X347971Y-140970D02*
D03*
X334001Y-157480D02*
D03*
X444104Y-140970D02*
D03*
X430134Y-157480D02*
D03*
X982980Y-513080D02*
D03*
X1002030Y-491490D02*
D03*
X393700Y-441960D02*
D03*
X394970Y-407670D02*
D03*
X393700Y-386080D02*
D03*
Y-345440D02*
D03*
X443230Y-462280D02*
D03*
Y-441960D02*
D03*
X444500Y-398780D02*
D03*
Y-334010D02*
D03*
X459740Y-278130D02*
D03*
X487680Y-397510D02*
D03*
X462280Y-358140D02*
D03*
X565150Y-355600D02*
D03*
X551180Y-373380D02*
D03*
X533400Y-417830D02*
D03*
X585470Y-402590D02*
D03*
X640080Y-392430D02*
D03*
X636270Y-444500D02*
D03*
Y-466090D02*
D03*
X637540Y-361950D02*
D03*
X582930Y-314960D02*
D03*
X643890Y-283210D02*
D03*
X548640Y-270510D02*
D03*
X494030Y-251460D02*
D03*
X582930Y-236220D02*
D03*
X683260Y-393700D02*
D03*
X735330D02*
D03*
X774700D02*
D03*
X819150Y-394970D02*
D03*
X833120Y-355600D02*
D03*
X910590Y-398780D02*
D03*
X875030Y-450850D02*
D03*
X833120Y-454660D02*
D03*
X772160Y-453390D02*
D03*
X732790Y-454660D02*
D03*
X675640Y-445770D02*
D03*
X582930D02*
D03*
X871220Y-396240D02*
D03*
X928370Y-453390D02*
D03*
X962660Y-448310D02*
D03*
X986790Y-422910D02*
D03*
X910590Y-327660D02*
D03*
X938530Y-353060D02*
D03*
X963930Y-384810D02*
D03*
X1022350Y-382270D02*
D03*
X1051560Y-353060D02*
D03*
X1076960Y-328930D02*
D03*
X1062990Y-295910D02*
D03*
X1038860Y-269240D02*
D03*
X1021080Y-245110D02*
D03*
X925830Y-298450D02*
D03*
X947420Y-275590D02*
D03*
X970280Y-246380D02*
D03*
X1029970Y-463550D02*
D03*
X1059180Y-455930D02*
D03*
X1079500Y-419100D02*
D03*
X1101090Y-396240D02*
D03*
X1118870Y-377190D02*
D03*
X1090930Y-260350D02*
D03*
X1146810Y-274320D02*
D03*
X1172210Y-285750D02*
D03*
X1060450Y-185420D02*
D03*
X1073150Y-220980D02*
D03*
X1168400Y-238760D02*
D03*
X1219200Y-267970D02*
D03*
X1209040Y-228600D02*
D03*
X1160780Y-194310D02*
D03*
X1125220Y-193040D02*
D03*
X1153160Y-175260D02*
D03*
X1275080Y-228600D02*
D03*
X1272540Y-208280D02*
D03*
X1314450Y-194310D02*
D03*
X1355090Y-198120D02*
D03*
X1372870Y-175260D02*
D03*
X1410970Y-187960D02*
D03*
X1449070D02*
D03*
X1220470Y-185420D02*
D03*
X1249680Y-175260D02*
D03*
X1310640Y-281940D02*
D03*
X1351280Y-280670D02*
D03*
X1383030Y-276860D02*
D03*
X1403350Y-252730D02*
D03*
X1357630Y-240030D02*
D03*
X1309370Y-237490D02*
D03*
X1287780Y-350520D02*
D03*
X1322070Y-359410D02*
D03*
X1346200Y-377190D02*
D03*
X1353820Y-403860D02*
D03*
X1360170Y-353060D02*
D03*
X1381760Y-372110D02*
D03*
X1404620Y-397510D02*
D03*
X1390650Y-325120D02*
D03*
X1412240Y-345440D02*
D03*
X1432560Y-369570D02*
D03*
X1413510Y-313690D02*
D03*
X1437640Y-288290D02*
D03*
X1308100Y-397510D02*
D03*
X1257300Y-378460D02*
D03*
X1259840Y-407670D02*
D03*
X1264920Y-431800D02*
D03*
X1252220Y-453390D02*
D03*
X1219200Y-454660D02*
D03*
X1217930Y-379730D02*
D03*
X1209040Y-407670D02*
D03*
X1158240Y-398780D02*
D03*
X1163320Y-377190D02*
D03*
X1158240Y-453390D02*
D03*
X1116330Y-455930D02*
D03*
X1309370D02*
D03*
X1353820Y-457200D02*
D03*
X1407160Y-458470D02*
D03*
X1446530Y-455930D02*
D03*
X1116330Y-549910D02*
D03*
X1150620Y-551180D02*
D03*
X1191260Y-549910D02*
D03*
X1247140Y-553720D02*
D03*
X1297940D02*
D03*
X1348740Y-552450D02*
D03*
X1398270Y-535940D02*
D03*
X1418590Y-509270D02*
D03*
X1094740Y-551180D02*
D03*
X712360Y-608440D02*
D03*
X793750Y-601980D02*
D03*
X659130Y-632460D02*
D03*
X749300Y-612140D02*
D03*
X687070Y-593090D02*
D03*
X731520D02*
D03*
X718820Y-600710D02*
D03*
X740410Y-596900D02*
D03*
X803910Y-575310D02*
D03*
X778510D02*
D03*
X753110Y-596900D02*
D03*
X783590Y-594360D02*
D03*
X1078230Y-568960D02*
D03*
X1120140Y-570230D02*
D03*
X1115060Y-577850D02*
D03*
X1120140Y-588010D02*
D03*
X1143000Y-690880D02*
D03*
X864870Y-582930D02*
D03*
X850900Y-598170D02*
D03*
X894080Y-628650D02*
D03*
X880110Y-619760D02*
D03*
X928370Y-654050D02*
D03*
X919480Y-680720D02*
D03*
X808990Y-676910D02*
D03*
X828040D02*
D03*
X1003300Y-680720D02*
D03*
X312420Y-601980D02*
D03*
X298450Y-601973D02*
D03*
X311150Y-619760D02*
D03*
X316230Y-593090D02*
D03*
X322580Y-585470D02*
D03*
X161290Y-781050D02*
D03*
X21580Y-791210D02*
D03*
X30470D02*
D03*
X483870Y-679450D02*
D03*
X594360Y-730250D02*
D03*
X1094740Y-873760D02*
D03*
D86*
X31750Y-909320D02*
D03*
M02*
