G04 Layer_Color=16711935*
%FSLAX44Y44*%
%MOMM*%
G71*
G01*
G75*
%ADD82P,2.0345X8X292.5*%
%ADD102R,1.3032X1.3032*%
%ADD103R,1.3032X1.3032*%
%ADD117R,1.2032X1.1032*%
%ADD145C,6.2032*%
%ADD146C,0.2032*%
%ADD147R,2.7032X2.7032*%
%ADD148C,2.7032*%
%ADD149O,4.2032X2.2032*%
%ADD150R,2.2032X2.2032*%
%ADD151C,2.2032*%
%ADD152P,2.2544X8X22.5*%
%ADD153C,1.8032*%
%ADD154C,1.1032*%
%ADD155C,3.4532*%
%ADD156C,1.8796*%
%ADD157C,2.5582*%
%ADD158P,2.2544X8X292.5*%
D82*
X77470Y-725160D02*
D03*
D102*
X467360Y-584310D02*
D03*
Y-566310D02*
D03*
X463550Y-683370D02*
D03*
Y-665370D02*
D03*
X980440Y-656480D02*
D03*
Y-674480D02*
D03*
D103*
X403750Y-570230D02*
D03*
X421750D02*
D03*
X501540Y-657860D02*
D03*
X519540D02*
D03*
D117*
X896620Y-661290D02*
D03*
Y-677290D02*
D03*
D145*
X50000Y-950000D02*
D03*
D146*
X1433170Y-867410D02*
D03*
X359890Y-950780D02*
D03*
X1433170Y-806450D02*
D03*
X225270Y-950780D02*
D03*
D147*
X1360170Y-867410D02*
D03*
Y-806450D02*
D03*
D148*
X1305170Y-867410D02*
D03*
Y-806450D02*
D03*
D149*
X1461970Y-715010D02*
D03*
X1410970D02*
D03*
Y-638810D02*
D03*
X1461970D02*
D03*
D150*
X389890Y-906780D02*
D03*
X255270D02*
D03*
D151*
X359890D02*
D03*
X329890D02*
D03*
X389890Y-876780D02*
D03*
X359890D02*
D03*
X329890D02*
D03*
X225270Y-906780D02*
D03*
X195270D02*
D03*
X255270Y-876780D02*
D03*
X225270D02*
D03*
X195270D02*
D03*
D152*
X1289050Y-303530D02*
D03*
Y-328930D02*
D03*
X1187450Y-303530D02*
D03*
X1212850Y-328930D02*
D03*
Y-303530D02*
D03*
X1238250Y-328930D02*
D03*
Y-303530D02*
D03*
X1263650Y-328930D02*
D03*
Y-303530D02*
D03*
X1187450Y-328930D02*
D03*
X916640Y-614680D02*
D03*
X967440Y-589280D02*
D03*
Y-614680D02*
D03*
X942040Y-589280D02*
D03*
Y-614680D02*
D03*
X916640Y-589280D02*
D03*
X704850Y-332740D02*
D03*
X781050Y-307340D02*
D03*
Y-332740D02*
D03*
X755650Y-307340D02*
D03*
Y-332740D02*
D03*
X730250Y-307340D02*
D03*
Y-332740D02*
D03*
X704850Y-307340D02*
D03*
X806450Y-332740D02*
D03*
Y-307340D02*
D03*
X70150Y-570230D02*
D03*
X44750Y-544830D02*
D03*
Y-570230D02*
D03*
X19350Y-544830D02*
D03*
Y-570230D02*
D03*
X70150Y-544830D02*
D03*
X223520Y-323850D02*
D03*
X299720Y-298450D02*
D03*
Y-323850D02*
D03*
X274320Y-298450D02*
D03*
Y-323850D02*
D03*
X248920Y-298450D02*
D03*
Y-323850D02*
D03*
X223520Y-298450D02*
D03*
X325120Y-323850D02*
D03*
Y-298450D02*
D03*
D153*
X733640Y-733830D02*
D03*
X759040D02*
D03*
X708240D02*
D03*
D154*
X682340Y-936380D02*
D03*
X726340D02*
D03*
D155*
X52070Y-753110D02*
D03*
Y-626110D02*
D03*
D156*
X95270Y-715260D02*
D03*
X77470Y-704760D02*
D03*
X95270Y-694860D02*
D03*
X77470Y-684360D02*
D03*
X95270Y-674460D02*
D03*
X77470Y-663960D02*
D03*
X95270Y-654060D02*
D03*
X143470Y-621010D02*
D03*
Y-643910D02*
D03*
Y-735310D02*
D03*
Y-758210D02*
D03*
D157*
X86370Y-608310D02*
D03*
Y-770910D02*
D03*
D158*
X132080Y-852170D02*
D03*
Y-979170D02*
D03*
Y-877570D02*
D03*
Y-953770D02*
D03*
Y-902970D02*
D03*
Y-928370D02*
D03*
M02*
