G04 Layer_Color=16711935*
%FSLAX44Y44*%
%MOMM*%
G71*
G01*
G75*
%ADD72P,2.0345X8X292.5*%
%ADD119R,1.2032X1.1032*%
%ADD141R,1.3032X1.3032*%
%ADD142R,1.3032X1.3032*%
%ADD149P,2.2544X8X292.5*%
%ADD150C,2.5582*%
%ADD151C,1.8796*%
%ADD152C,3.4532*%
%ADD153C,1.1032*%
%ADD154P,2.2544X8X22.5*%
%ADD155C,2.2032*%
%ADD156R,2.2032X2.2032*%
%ADD157C,0.2032*%
%ADD158O,4.2032X2.2032*%
%ADD159C,2.7032*%
%ADD160R,2.7032X2.7032*%
%ADD161C,6.2032*%
D72*
X77470Y-725160D02*
D03*
D119*
X896620Y-677290D02*
D03*
Y-661290D02*
D03*
D141*
X980440Y-674480D02*
D03*
Y-656480D02*
D03*
X463550Y-665370D02*
D03*
Y-683370D02*
D03*
X467360Y-566310D02*
D03*
Y-584310D02*
D03*
D142*
X519540Y-657860D02*
D03*
X501540D02*
D03*
X421750Y-570230D02*
D03*
X403750D02*
D03*
D149*
X132080Y-928370D02*
D03*
Y-902970D02*
D03*
Y-953770D02*
D03*
Y-877570D02*
D03*
Y-979170D02*
D03*
Y-852170D02*
D03*
D150*
X86370Y-770910D02*
D03*
Y-608310D02*
D03*
D151*
X143470Y-758210D02*
D03*
Y-735310D02*
D03*
Y-643910D02*
D03*
Y-621010D02*
D03*
X95270Y-654060D02*
D03*
X77470Y-663960D02*
D03*
X95270Y-674460D02*
D03*
X77470Y-684360D02*
D03*
X95270Y-694860D02*
D03*
X77470Y-704760D02*
D03*
X95270Y-715260D02*
D03*
D152*
X52070Y-626110D02*
D03*
Y-753110D02*
D03*
D153*
X726340Y-936380D02*
D03*
X682340D02*
D03*
D154*
X325120Y-298450D02*
D03*
Y-323850D02*
D03*
X223520Y-298450D02*
D03*
X248920Y-323850D02*
D03*
Y-298450D02*
D03*
X274320Y-323850D02*
D03*
Y-298450D02*
D03*
X299720Y-323850D02*
D03*
Y-298450D02*
D03*
X223520Y-323850D02*
D03*
X70150Y-544830D02*
D03*
X19350Y-570230D02*
D03*
Y-544830D02*
D03*
X44750Y-570230D02*
D03*
Y-544830D02*
D03*
X70150Y-570230D02*
D03*
X806450Y-307340D02*
D03*
Y-332740D02*
D03*
X704850Y-307340D02*
D03*
X730250Y-332740D02*
D03*
Y-307340D02*
D03*
X755650Y-332740D02*
D03*
Y-307340D02*
D03*
X781050Y-332740D02*
D03*
Y-307340D02*
D03*
X704850Y-332740D02*
D03*
X916640Y-589280D02*
D03*
X942040Y-614680D02*
D03*
Y-589280D02*
D03*
X967440Y-614680D02*
D03*
Y-589280D02*
D03*
X916640Y-614680D02*
D03*
X1187450Y-328930D02*
D03*
X1263650Y-303530D02*
D03*
Y-328930D02*
D03*
X1238250Y-303530D02*
D03*
Y-328930D02*
D03*
X1212850Y-303530D02*
D03*
Y-328930D02*
D03*
X1187450Y-303530D02*
D03*
X1289050Y-328930D02*
D03*
Y-303530D02*
D03*
D155*
X195270Y-876780D02*
D03*
X225270D02*
D03*
X255270D02*
D03*
X195270Y-906780D02*
D03*
X225270D02*
D03*
X329890Y-876780D02*
D03*
X359890D02*
D03*
X389890D02*
D03*
X329890Y-906780D02*
D03*
X359890D02*
D03*
D156*
X255270D02*
D03*
X389890D02*
D03*
D157*
X225270Y-950780D02*
D03*
X1433170Y-806450D02*
D03*
X359890Y-950780D02*
D03*
X1433170Y-867410D02*
D03*
D158*
X1461970Y-638810D02*
D03*
X1410970D02*
D03*
Y-715010D02*
D03*
X1461970D02*
D03*
D159*
X1305170Y-806450D02*
D03*
Y-867410D02*
D03*
D160*
X1360170Y-806450D02*
D03*
Y-867410D02*
D03*
D161*
X50000Y-950000D02*
D03*
M02*
