M48
;Layer_Color=9474304
;FILE_FORMAT=4:4
METRIC,LZ
;TYPE=PLATED
T1F00S00C0.3000
T2F00S00C0.6000
T3F00S00C1.0000
T4F00S00C1.0160
T5F00S00C1.1000
T6F00S00C1.5000
T7F00S00C1.5700
T8F00S00C1.6000
T9F00S00C4.5000
;TYPE=NON_PLATED
T10F00S00C0.9000
T11F00S00C3.0000
T12F00S00C3.2500
T13F00S00C4.5000
%
T01
X0005334Y-0090297
X0007366
X0006858Y-0089535
X0006731Y-0088646
X0006477Y-008763
X0009271Y-0091059
X0010922Y-0094615
X001524Y-009398
X0015113Y-00889
X00459555Y-00915855
X0050292Y-0091186
X0052705Y-0089535
X0053467Y-0087503
X0052705Y-0093091
X0052578Y-0095377
X0052832Y-009652
X0048006Y-0096012
X0043561Y-0096774
X0054229Y-0092202
X0055499Y-0093218
X0060706Y-0093345
X0061595Y-0092202
X0065405Y-0093472
Y-0096774
Y-0090043
X006604Y-0088646
X0064008
X0059309Y-0089027
X0056896Y-0089281
X0054102Y-0088392
X0072517Y-0089154
X0074549
X0075311Y-0090043
X0077216Y-0090297
X0075311Y-0093472
Y-0096774
X0078613Y-0095758
X0083693Y-0096012
X0081407Y-009906
X0089916
X0085471Y-0091313
X0085598Y-0088773
X0083947Y-0090043
X0082423Y-0088773
X0072898Y-0091313
X00951653Y-00915035
X00963507
X0097536
X00987213
Y-009271
X0097536
X00963507
X00951653
Y-00939165
X00963507
X0097536
X00987213
Y-0095123
X0097536
X00963507
X00951653
Y-00963295
X00963507
X0097536
X00987213
X0098679Y-0097536
X00974937
X00963083
X0095123
X00951653Y-0090297
X00963507
X0097536
X00987213
X010541Y-0091694
X0107061Y-0090297
X0110617Y-009017
X0110744Y-0094615
X0110998Y-0098425
X0103886
X0118872
X0125984
X0127635Y-0093091
X0132334
X0124968Y-0089662
X0121158Y-0089535
Y-0093091
X0118237Y-0091567
X0136271Y-0092964
X0135001Y-0098425
X0139954
X0140716Y-0073279
X0143383Y-0073152
X0146558Y-0073279
X014478Y-0075946
X0144018Y-0069469
X0140589Y-0068707
X0138176Y-0066294
X0136398Y-0064516
X0135763Y-0069088
X0136779Y-0070358
X0138303Y-0071628
X013589Y-0074422
X0134366Y-0067818
X0133477Y-0066929
X0134874Y-0055245
X01353876Y-0050165
X01367846Y-0048514
X0141859Y-0050927
X0145001Y-0050165
X0146398Y-0048514
X0139827Y-0053594
X0129794Y-0055372
X0124714
X0119126Y-0054991
X0115062Y-0055118
X0111633Y-0054991
X0109474Y-0055118
X0108204Y-0056007
X0107823Y-0056896
X0110363Y-0056642
X0112014Y-0057023
X0111506Y-0057785
X0112014Y-0058801
X0114935Y-0059055
X0112903Y-0061341
X0111887Y-0064008
X0111379Y-0068453
X0113665Y-0067564
X01143Y-0069088
X0117094Y-0070104
X0121412Y-0070231
X0123571Y-00708237
Y-0072009
X01247775Y-00720513
Y-0070866
Y-00696807
Y-00684953
X0125984
Y-00696807
Y-0070866
Y-00720513
X01271905
Y-0070866
Y-00696807
Y-00684953
X0128397
Y-00696807
Y-0070866
Y-00720513
X01296035
Y-0070866
Y-00696807
Y-00684953
X013081
Y-00696807
Y-0070866
Y-00720513
X0123571Y-00696383
Y-0068453
X0121285Y-0066675
Y-0074168
Y-0077089
Y-0079375
X0124333Y-0079248
X0125095Y-0083058
X0121285Y-0082804
X0121031Y-0086995
X0117348Y-0087122
X011303Y-0083058
Y-0080137
X0109855
X0109728Y-0076327
X010922Y-0074041
X0107696Y-0072263
X0104013Y-007112
Y-0074676
X0100584Y-0075692
X009779Y-007747
X0096901Y-0081026
X0095758Y-008001
X0097028Y-0083312
X0096139Y-0074676
X0096012Y-0071374
X0096139Y-006858
X0098044Y-0068326
X010033Y-0068072
Y-006477
X0106934Y-0067945
X0112903Y-0071628
X0109728Y-0084201
Y-0084455
X0104013Y-0080264
X009398Y-00762
X0098298Y-0051308
X0100203Y-0049149
X01065476Y-0050165
X01079446Y-0048514
X01175579
X01161609Y-0050165
X01257743
X01271713Y-0048514
X0124714Y-0061595
X0125857Y-0063373
X0129032Y-0063246
X0132715Y-0063119
X0092837Y-0065405
X0091948Y-0068072
X0089662Y-006858
X0087757Y-0071628
X0084709Y-0073914
X0081534Y-0074803
X0082169Y-0077724
X0080772Y-0079756
X0084709Y-0080645
X0089662Y-0078486
X0092329Y-007493
X0082169Y-0071501
X0082804Y-0067691
X0080899
X0075311Y-006731
X007366Y-0067691
X0071755Y-0065786
X0070104
X0070612Y-00635
Y-0061468
X0071236Y-0060844
X0071882Y-0060071
X0073152Y-0059309
X0074041Y-005969
X0075311
X007493Y-0061214
X0075311Y-0064262
X0072517
X0066929Y-0064008
X0066675Y-0062738
X0065913Y-0063246
X006731Y-0065786
X0064262Y-0065659
X0061468Y-0066548
X0060325Y-0067564
X0059944Y-0069342
X0057658Y-0070231
X0058293Y-0071501
X0059563Y-0072263
X0059436Y-0073025
X0056896Y-0072771
X0055118Y-007366
X0054102Y-0073533
X0053975Y-0072517
X0054229Y-0075184
X0058293
X0061976Y-0075565
X0061087Y-0077089
X0063246Y-0074422
X00635Y-007239
X0063754Y-0071501
X0066421Y-0071882
X0067818Y-0074041
X0068453Y-0079121
X0065278Y-008001
X0066167Y-0082931
X0069088Y-0083312
X0068326Y-0084582
X0069977Y-0084963
X0072009
X0074168Y-0082169
X0075438Y-0081026
X0072898Y-0080391
X0077216Y-008255
X0077597Y-0084709
X0077216Y-0086741
X0076327Y-008636
X0075438Y-0086614
X0081026Y-0087122
X008128Y-0086106
X0082296Y-0085852
X0082042Y-0086741
X0078359Y-0076454
X0077089Y-0071374
X0079375Y-0061087
Y-0060198
X0078359Y-0059436
X0077851Y-0057531
X0080391
X0082931
X0081661Y-0059563
X0082677Y-0061214
X0083312Y-0063627
X0085598
X0088011Y-0061976
X0090043Y-0062865
X008509Y-0059817
X0086487Y-0058293
X00873208Y-0050165
X00887178Y-0048514
X00791045
X00777075Y-0050165
X00680941
X00694911Y-0048514
X0070485Y-0057531
X0072644
X0074803
X0068707Y-0059309
X0067437Y-0060198
X0062484Y-0054102
X0056642
X0055245Y-0053975
X0054737Y-0056134
X0056134Y-0057023
X0054229Y-0063754
X0054991Y-0065278
X0056261Y-0065659
X0057147Y-0066551
X0056388Y-0067818
X0054991Y-0068072
X0055626Y-0087122
X0059817
X0061468
Y-008509
X0059817Y-0083947
X0062865Y-0083566
X0063754Y-0086233
X0066802Y-0086868
X005334Y-0086106
X0049519Y-0086868
X0046355Y-0087122
X0046228Y-0084582
X0047498Y-0084709
X0048641Y-0082423
X0049022Y-0078867
X0050292Y-0079883
X0051054Y-0079502
X0051689Y-0078867
Y-0077978
X0053721Y-0076073
X0044704Y-0077343
X0043307Y-0078867
X0040513Y-008001
X0038608Y-0080899
X004064Y-0083058
X0043815Y-0084836
X0035687Y-0084455
X0030861
X0025527Y-0084582
X0025908Y-0079629
X0027178Y-0078994
X0032004Y-0078359
X0034925
X0034544Y-0080137
X0038608Y-0076454
X0040513Y-0075819
X0043561Y-0075057
X00441005Y-00708345
X0045593Y-0070485
X0046355Y-0069723
X0044069Y-0068453
X0041148Y-0067437
X0040386Y-0066675
X0038862Y-0065024
X0038481Y-0063246
X004064Y-0061214
X0039878Y-0059563
X0043053Y-0059817
X0044704Y-0059055
X0046228Y-0060325
X0047117Y-0061849
X0048025Y-0060979
X0049657Y-0059309
X0051689Y-0057658
X0049276Y-0056007
X0053467Y-0054737
X00502644Y-0048514
X004191Y-0051816
X0042799Y-0052832
X0040894Y-0053086
X0039751Y-0052324
X0038481Y-0051943
X003683Y-0050419
X0036068Y-0057023
X0033909Y-0058166
X0032258Y-0058547
X0031623Y-0059309
X0031242Y-0060198
X0029845Y-00601973
X0031115Y-0061976
X0030734Y-0063754
X0030988Y-006477
X0030734Y-0066294
X0032004Y-0065659
X0032766Y-0066421
X0032893Y-0067437
X003302Y-006477
X0034417Y-0065151
X003429Y-0061087
X0034417Y-0060198
X0033147Y-005969
X0031877Y-0055118
X0030099
X0029972Y-0056896
X0030988Y-0054102
X00296407Y-0050165
X00310377Y-0048514
X0021463Y-0048641
X0020066Y-0050165
X0022479Y-0053975
X0021463Y-0055118
X0020574Y-005715
X0018288Y-0056896
X00155135Y-00558605
X0014732Y-0056134
X00144585Y-00569155
X0016129Y-0055245
X0016256Y-0054102
X0018034Y-006223
X0018669Y-00635
X0017526Y-0063881
X0018669Y-0065786
X0016764Y-0067691
X0016256Y-0070358
X0018542Y-0069469
X002286Y-0069342
X0025019Y-0070231
X0027178Y-006985
X0026289Y-0067691
X0027051Y-0066675
X0026162Y-0065532
X0027305Y-00635
X0025146Y-0061087
X0022606Y-0062484
Y-0065405
X0020828Y-0061087
X0024257Y-0057023
X0024638Y-0073787
X002667Y-007366
X0031369
X0033147Y-0072263
X0033655Y-00708227
X0034163Y-0069977
X0035814Y-0072263
X0037846Y-0070612
X0038735Y-0070231
X0037846Y-0067818
X004318Y-0064008
X0046736Y-0064135
X0047371Y-0065024
X0048387Y-0065278
Y-0067945
X0053086Y-0064643
X0020193Y-0074295
X0018669Y-0076073
X001778Y-0078232
X0016129Y-0078105
X0015621Y-0083058
X0018669Y-0082931
X0021844Y-0082423
X0023495Y-0080899
X0021082Y-0086106
X0016129Y-0086487
X0011557Y-0086614
X001016Y-0086741
X0004699Y-0086233
X0006096Y-008255
X0003047Y-0079121
X0002158
X00127Y-0078359
X0005968Y-0069595
X0013843Y-0057531
X0010287Y-005334
X0010414Y-0050165
X0011811Y-0048514
X0010033Y-0044831
X0011176Y-0041402
X001016Y-0037465
X0013335Y-0034925
X001016Y-0030988
X0008001Y-003302
X0005969Y-0035687
X0005461Y-0040005
X0005969Y-0045466
X0007747Y-0028448
X0005969Y-0025273
X0005207Y-0021463
X0006604Y-0018923
X0010033
X001016Y-0024511
X0013335Y-0027686
X00141734Y-0015748
X0010428Y-0013222
X0005957Y-0014097
X000456Y-0015748
X00155704Y-0014097
X001651Y-0017653
X0019177Y-0018415
X0015113Y-0019939
Y-002413
X0020447Y-0024003
X0021209Y-0027559
X0022606Y-0021463
X0025019Y-0020066
X0028575Y-001905
X002921Y-0024892
X00254Y-0024257
X003429Y-0023622
X0033401Y-002794
X003937Y-0028067
X0037973Y-0026289
X0040259Y-0021971
X0040513Y-0018669
X0038227
X0035433
X00334001Y-0015748
X00347971Y-0014097
X0039243Y-0013335
X00444104Y-0014097
X00430134Y-0015748
X0044704Y-0018923
X0047752
X0050165Y-0018161
X0049657Y-0021717
X0049403Y-0025146
X0045974Y-0027813
X0043053Y-0024765
X004445Y-0033401
X0046228Y-0035814
X004445Y-0039878
X0048768Y-0039751
X005334Y-0041783
X0048895Y-0046355
X0044323Y-0046228
Y-0044196
X003937
Y-0046863
X0035052Y-0045212
X0029591Y-0045339
X0025654Y-0045212
X0019939
X0015748Y-0045466
X0014478Y-0042164
X0015621Y-0039116
X0020447Y-0039243
X0024003Y-0037592
X0029464Y-0037084
X003048Y-0041275
X003429Y-0039497
X003937Y-0038608
X0039497Y-0040767
X003937Y-0034544
X0018161Y-0034417
X0020066Y-0013208
X00251837Y-0014097
X00237867Y-0015748
X0029718Y-0013335
X00489634Y-00134034
X00527293Y-0015748
X00541263Y-0014097
X0054483Y-0018542
X0057785Y-0018796
X0058293Y-0023622
X0064008Y-002413
X0064389Y-0028321
X0068707Y-0028829
X0069088Y-0023876
X0068199Y-0019558
X0073406Y-0019939
X007747Y-0019431
X0083439Y-0019558
X0086868Y-0019304
X0088138Y-0022098
X0092456Y-0023622
X0093091Y-0019431
X00911827Y-0015748
X00925797Y-0014097
X00874123Y-0013335
X00829663Y-0014097
X00815694Y-0015748
X00778873Y-0013335
X0073353Y-0014097
X0071755Y-0015494
X00682353Y-0013208
X00637396Y-0014097
X00623426Y-0015748
X00585973Y-0013222
X0054864Y-0027051
X0058293Y-0031496
X0056515Y-003556
X0055118Y-0037338
X0058547Y-0040259
X0058293Y-0044577
X0057658Y-0046736
X0063627Y-0046609
Y-004445
X0067564Y-0044577
X0068326Y-003937
X0064008Y-0039243
X0063754Y-0036195
X0073533Y-003937
X007747
X0081915Y-0039497
X0087122Y-0039624
X0091059Y-0039878
Y-0032766
X0092583Y-0029845
X0087376Y-0028956
X0086106Y-0026289
X008255Y-0023495
X0080899Y-0028702
X0077724Y-0025781
X0073533Y-0026289
X0083312Y-003556
Y-0045466
X0087503Y-0045085
X0092837Y-0045339
X0077216
X0073279Y-0045466
X0096266Y-0044831
X0098679Y-0042291
X0096393Y-0038481
X0093853Y-0035306
X0094742Y-0027559
X0097028Y-0024638
X0102108Y-0024511
X0103886Y-0026924
X0106299Y-0029591
X0107696Y-0032893
X0105156Y-0035306
X0102235Y-0038227
X0102997Y-0046355
X0105918Y-0045593
X0111633
X0115824Y-0045339
Y-0039878
X0116332Y-0037719
X0111887
X0110109Y-0039624
X010795Y-004191
X0120904Y-0040767
X0121793Y-0037973
X012573Y-0037846
X0125984Y-0040767
X0126492Y-004318
X0125222Y-0045339
X012192Y-0045466
X0130937Y-0045593
X013081Y-0039751
X0132207Y-0035941
X0128778Y-0035052
X0131064Y-0028194
X0130937Y-0023749
X0127508Y-002286
X0127254Y-0020828
X0124968Y-0017526
X0122047Y-0018542
X01201253Y-0015748
X01215223Y-0014097
X01260566Y-0013335
X01311356Y-0014097
X01297386Y-0015748
X0131445Y-0019431
X0120904Y-002286
X012192Y-0026797
X0117221Y-0028575
X0114681Y-0027432
X011684Y-0023876
X0116078Y-0019431
X0115316Y-0017526
X0112522Y-0019304
X01105119Y-0015748
X01119089Y-0014097
X01164046Y-0013208
X01067666Y-0013222
X01022956Y-0014097
X01008986Y-0015748
X00971327Y-00134034
X0096647Y-0019304
X0106045Y-0018542
X0107315Y-0022098
X0109093Y-0026035
X0135128Y-0028067
X0138303Y-0027686
X0140335Y-0025273
X0135763Y-0024003
X0135509Y-0019812
X0137287Y-0017526
X0139352Y-0015748
X0140749Y-0014097
X0141097Y-0018796
X0144907
X0145302Y-00134034
X01355816Y-0013335
X0136017Y-0035306
X013462Y-0037719
X0135382Y-0040386
Y-004572
X0140716Y-0045847
X0144653Y-0045593
X0143256Y-0036957
X0141224Y-0034544
X0141351Y-0031369
X0139065Y-0032512
X0138176Y-0037211
X0140462Y-0039751
X0143764Y-0028829
T02
X0003175Y-0090932
T03
X0070824Y-0073383
X0073364
X0075904
X0014347Y-0073531
Y-0075821
Y-0064391
Y-0062101
X0009527Y-0065406
Y-0067446
Y-0069486
Y-0071526
X0007747Y-0072516
Y-0070476
Y-0068436
Y-0066396
T04
X0013208Y-0097917
Y-0095377
Y-0092837
Y-0090297
Y-0087757
X0094204Y-0061468
X0096744
Y-0058928
X0094204
X0091664
Y-0061468
X0007015Y-0057023
Y-0054483
X0004475
Y-0057023
X0001935
Y-0054483
X0013208Y-0085217
X0022352Y-0032385
Y-0029845
X0024892
X0027432
X0029972
Y-0032385
X0027432
X0024892
X0032512
Y-0029845
X0070485Y-0030734
Y-0033274
X0073025
X0075565
X0078105
Y-0030734
X0075565
X0073025
X0080645
Y-0033274
X0118745Y-0032893
Y-0030353
X0121285
Y-0032893
X0123825
Y-0030353
X0126365
X0128905
Y-0032893
X0126365
T05
X0019527Y-0090678
X0022527
X0025527
Y-0087678
X0022527
X0019527
X0032989
Y-0090678
X0035989
X0038989
Y-0087678
X0035989
T06
X0141097Y-0071501
X0146197
Y-0063881
X0141097
T07
X0008637Y-0077091
Y-0060831
T08
X0136017Y-0086741
Y-0080645
X0130517
Y-0086741
T09
X0005Y-0095
T10
X0068234Y-0093638
X0072634
T11
X0022527Y-0095078
X0035989
X0143317Y-0086741
Y-0080645
T12
X0005207Y-0075311
Y-0062611
T13
X0145Y-0095
X0051435Y-0031623
X0099568
X0145Y-0005
X0005
M30
