G04 Layer_Color=8388736*
%FSLAX44Y44*%
%MOMM*%
G71*
G01*
G75*
%ADD25R,1.0000X0.9000*%
%ADD50R,0.9000X1.0000*%
%ADD69P,2.0345X8X292.5*%
%ADD97R,2.5400X7.3660*%
%ADD98R,7.7470X2.6670*%
%ADD99R,3.1750X3.0480*%
%ADD100R,1.8032X5.2032*%
%ADD101R,0.9652X0.9652*%
%ADD102R,0.9652X0.9652*%
%ADD103R,0.4510X2.4520*%
%ADD104R,0.5790X0.3650*%
%ADD105R,2.4520X0.4510*%
%ADD106R,0.3650X0.5790*%
G04:AMPARAMS|DCode=107|XSize=3.0032mm|YSize=0.7032mm|CornerRadius=0.2266mm|HoleSize=0mm|Usage=FLASHONLY|Rotation=270.000|XOffset=0mm|YOffset=0mm|HoleType=Round|Shape=RoundedRectangle|*
%AMROUNDEDRECTD107*
21,1,3.0032,0.2500,0,0,270.0*
21,1,2.5500,0.7032,0,0,270.0*
1,1,0.4532,-0.1250,-1.2750*
1,1,0.4532,-0.1250,1.2750*
1,1,0.4532,0.1250,1.2750*
1,1,0.4532,0.1250,-1.2750*
%
%ADD107ROUNDEDRECTD107*%
G04:AMPARAMS|DCode=108|XSize=3.7032mm|YSize=2.2532mm|CornerRadius=0.6141mm|HoleSize=0mm|Usage=FLASHONLY|Rotation=270.000|XOffset=0mm|YOffset=0mm|HoleType=Round|Shape=RoundedRectangle|*
%AMROUNDEDRECTD108*
21,1,3.7032,1.0250,0,0,270.0*
21,1,2.4750,2.2532,0,0,270.0*
1,1,1.2282,-0.5125,-1.2375*
1,1,1.2282,-0.5125,1.2375*
1,1,1.2282,0.5125,1.2375*
1,1,1.2282,0.5125,-1.2375*
%
%ADD108ROUNDEDRECTD108*%
G04:AMPARAMS|DCode=109|XSize=4.2032mm|YSize=2.2532mm|CornerRadius=0.6141mm|HoleSize=0mm|Usage=FLASHONLY|Rotation=270.000|XOffset=0mm|YOffset=0mm|HoleType=Round|Shape=RoundedRectangle|*
%AMROUNDEDRECTD109*
21,1,4.2032,1.0250,0,0,270.0*
21,1,2.9750,2.2532,0,0,270.0*
1,1,1.2282,-0.5125,-1.4875*
1,1,1.2282,-0.5125,1.4875*
1,1,1.2282,0.5125,1.4875*
1,1,1.2282,0.5125,-1.4875*
%
%ADD109ROUNDEDRECTD109*%
G04:AMPARAMS|DCode=110|XSize=3.7032mm|YSize=2.2532mm|CornerRadius=0.6141mm|HoleSize=0mm|Usage=FLASHONLY|Rotation=270.000|XOffset=0mm|YOffset=0mm|HoleType=Round|Shape=RoundedRectangle|*
%AMROUNDEDRECTD110*
21,1,3.7032,1.0250,0,0,270.0*
21,1,2.4750,2.2532,0,0,270.0*
1,1,1.2282,-0.5125,-1.2375*
1,1,1.2282,-0.5125,1.2375*
1,1,1.2282,0.5125,1.2375*
1,1,1.2282,0.5125,-1.2375*
%
%ADD110ROUNDEDRECTD110*%
%ADD111R,3.6032X1.6032*%
%ADD112R,1.1032X2.1032*%
%ADD113R,3.4032X2.1032*%
%ADD114R,1.6032X1.4032*%
%ADD115R,1.2032X1.1032*%
%ADD116R,0.9032X1.1032*%
%ADD117R,1.7272X0.9652*%
%ADD118R,0.9632X2.6032*%
%ADD119O,0.9632X2.6032*%
%ADD120R,5.5532X8.7432*%
%ADD121R,1.0932X2.6132*%
%ADD122R,2.1032X1.5532*%
%ADD123R,1.9032X1.1532*%
%ADD124R,1.7532X1.5532*%
%ADD125R,1.7032X2.2032*%
%ADD126R,4.0032X2.2032*%
%ADD127O,2.3032X0.5032*%
%ADD128O,0.5032X2.3032*%
%ADD129O,2.7032X0.9032*%
%ADD130R,0.8532X2.4032*%
%ADD131R,2.4032X0.9632*%
%ADD132R,1.5032X1.2032*%
%ADD133R,1.5032X1.2032*%
%ADD134R,1.6532X0.5032*%
%ADD135O,1.6532X0.5032*%
%ADD136R,3.0032X1.6532*%
%ADD137R,1.3032X1.3032*%
%ADD138R,1.3032X1.3032*%
%ADD139R,1.1032X1.2032*%
%ADD140R,8.7432X5.5532*%
%ADD141R,2.6132X1.0932*%
%ADD142R,1.5532X2.1032*%
%ADD143R,1.1532X1.9032*%
%ADD144R,1.5532X1.7532*%
%ADD145P,2.2544X8X292.5*%
%ADD146C,2.5582*%
%ADD147C,1.8796*%
%ADD148C,3.4532*%
%ADD149C,1.1032*%
%ADD150C,1.8032*%
%ADD151P,2.2544X8X22.5*%
%ADD152C,2.2032*%
%ADD153R,2.2032X2.2032*%
%ADD154C,0.2032*%
%ADD155O,4.2032X2.2032*%
%ADD156C,2.7032*%
%ADD157R,2.7032X2.7032*%
%ADD158C,6.2032*%
%ADD159C,0.8032*%
D25*
X718820Y-877600D02*
D03*
Y-863600D02*
D03*
X699770Y-877600D02*
D03*
Y-863600D02*
D03*
X681990Y-877600D02*
D03*
Y-863600D02*
D03*
D50*
X610870Y-759460D02*
D03*
X596870D02*
D03*
D69*
X77470Y-725160D02*
D03*
D97*
X1195070Y-701040D02*
D03*
D98*
X969645Y-864235D02*
D03*
D99*
X704215Y-913130D02*
D03*
D100*
X839470Y-861050D02*
D03*
Y-955050D02*
D03*
X1145540Y-817870D02*
D03*
Y-911870D02*
D03*
D101*
X1107440Y-647700D02*
D03*
X1092200D02*
D03*
X876300Y-770890D02*
D03*
X861060D02*
D03*
X67310Y-798830D02*
D03*
X82550D02*
D03*
D102*
X882650Y-605790D02*
D03*
Y-590550D02*
D03*
X1268730Y-859790D02*
D03*
Y-844550D02*
D03*
D103*
X124460Y-562610D02*
D03*
X92710Y-890270D02*
D03*
D104*
X130600Y-550110D02*
D03*
Y-555110D02*
D03*
Y-560110D02*
D03*
Y-565110D02*
D03*
Y-570110D02*
D03*
Y-575110D02*
D03*
X118320D02*
D03*
Y-570110D02*
D03*
Y-565110D02*
D03*
Y-560110D02*
D03*
Y-555110D02*
D03*
Y-550110D02*
D03*
X98850Y-877770D02*
D03*
Y-882770D02*
D03*
Y-887770D02*
D03*
Y-892770D02*
D03*
Y-897770D02*
D03*
Y-902770D02*
D03*
X86570D02*
D03*
Y-897770D02*
D03*
Y-892770D02*
D03*
Y-887770D02*
D03*
Y-882770D02*
D03*
Y-877770D02*
D03*
D105*
X561340Y-751840D02*
D03*
D106*
X548840Y-745700D02*
D03*
X553840D02*
D03*
X558840D02*
D03*
X563840D02*
D03*
X568840D02*
D03*
X573840D02*
D03*
Y-757980D02*
D03*
X568840D02*
D03*
X563840D02*
D03*
X558840D02*
D03*
X553840D02*
D03*
X548840D02*
D03*
D107*
X704340Y-913130D02*
D03*
X720340D02*
D03*
X712340D02*
D03*
X688340D02*
D03*
X696340D02*
D03*
D108*
X753590Y-912880D02*
D03*
D109*
Y-955380D02*
D03*
X655090D02*
D03*
D110*
Y-912880D02*
D03*
D111*
X36830Y-848180D02*
D03*
Y-889180D02*
D03*
D112*
X1026300Y-663730D02*
D03*
X1003300D02*
D03*
X980300D02*
D03*
X942480D02*
D03*
X919480D02*
D03*
X896480D02*
D03*
D113*
X1003300Y-730730D02*
D03*
X919480D02*
D03*
D114*
X472440Y-823720D02*
D03*
Y-807720D02*
D03*
X450440Y-823720D02*
D03*
Y-807720D02*
D03*
D115*
X468630Y-774570D02*
D03*
Y-758570D02*
D03*
X511810Y-748920D02*
D03*
Y-764920D02*
D03*
X524510Y-764920D02*
D03*
Y-748920D02*
D03*
X22860Y-828420D02*
D03*
Y-812420D02*
D03*
X44450Y-828420D02*
D03*
Y-812420D02*
D03*
D116*
X467980Y-788160D02*
D03*
X481980D02*
D03*
X455310Y-788160D02*
D03*
X441310D02*
D03*
D117*
X607060Y-922020D02*
D03*
X556260D02*
D03*
X607060Y-883920D02*
D03*
X556260D02*
D03*
D118*
X533400Y-822960D02*
D03*
D119*
X546100D02*
D03*
X558800D02*
D03*
X571500D02*
D03*
X584200D02*
D03*
X533400Y-783960D02*
D03*
X546100D02*
D03*
X558800D02*
D03*
X571500D02*
D03*
X584200D02*
D03*
D120*
X970280Y-940500D02*
D03*
D121*
X932180Y-864200D02*
D03*
X944880D02*
D03*
X957580D02*
D03*
X970280D02*
D03*
X982980D02*
D03*
X995680D02*
D03*
X1008380D02*
D03*
D122*
X1054100Y-869945D02*
D03*
Y-901945D02*
D03*
D123*
X862330Y-817910D02*
D03*
Y-789910D02*
D03*
D124*
X896620Y-818990D02*
D03*
Y-798990D02*
D03*
D125*
X58610Y-486160D02*
D03*
X81610D02*
D03*
X104610D02*
D03*
X1453020Y-156460D02*
D03*
X1430020D02*
D03*
X1407020D02*
D03*
X1404480Y-486160D02*
D03*
X1427480D02*
D03*
X1450480D02*
D03*
X1356681Y-156460D02*
D03*
X1333681D02*
D03*
X1310681D02*
D03*
X1308346Y-486160D02*
D03*
X1331346D02*
D03*
X1354346D02*
D03*
X1260343Y-156460D02*
D03*
X1237343D02*
D03*
X1214343D02*
D03*
X1212213Y-486160D02*
D03*
X1235213D02*
D03*
X1258213D02*
D03*
X1164004Y-156460D02*
D03*
X1141004D02*
D03*
X1118004D02*
D03*
X1116079Y-486160D02*
D03*
X1139079D02*
D03*
X1162079D02*
D03*
X1067666Y-156460D02*
D03*
X1044666D02*
D03*
X1021666D02*
D03*
X1019946Y-486160D02*
D03*
X1042946D02*
D03*
X1065946D02*
D03*
X971327Y-156460D02*
D03*
X948327D02*
D03*
X925327D02*
D03*
X923812Y-486160D02*
D03*
X946812D02*
D03*
X969812D02*
D03*
X874988Y-156460D02*
D03*
X851989D02*
D03*
X828988D02*
D03*
X827679Y-486160D02*
D03*
X850678D02*
D03*
X873679D02*
D03*
X778650Y-156460D02*
D03*
X755650D02*
D03*
X732650D02*
D03*
X731545Y-486160D02*
D03*
X754545D02*
D03*
X777545D02*
D03*
X682311Y-156460D02*
D03*
X659311D02*
D03*
X636311D02*
D03*
X635411Y-486160D02*
D03*
X658411D02*
D03*
X681411D02*
D03*
X585973Y-156460D02*
D03*
X562973D02*
D03*
X539973D02*
D03*
X539278Y-486160D02*
D03*
X562278D02*
D03*
X585278D02*
D03*
X489634Y-156460D02*
D03*
X466634D02*
D03*
X443634D02*
D03*
X443090Y-479810D02*
D03*
X466090D02*
D03*
X489090D02*
D03*
X393296Y-156460D02*
D03*
X370296D02*
D03*
X347296D02*
D03*
X347011Y-486160D02*
D03*
X370011D02*
D03*
X393011D02*
D03*
X296957Y-156460D02*
D03*
X273957D02*
D03*
X250957D02*
D03*
X250877Y-486160D02*
D03*
X273877D02*
D03*
X296877D02*
D03*
X200619Y-156460D02*
D03*
X177619D02*
D03*
X154619D02*
D03*
X154744Y-486160D02*
D03*
X177744D02*
D03*
X200744D02*
D03*
X104280Y-156460D02*
D03*
X81280D02*
D03*
X58280D02*
D03*
D126*
X81610Y-423160D02*
D03*
X1430020Y-219460D02*
D03*
X1427480Y-423160D02*
D03*
X1333681Y-219460D02*
D03*
X1331346Y-423160D02*
D03*
X1237343Y-219460D02*
D03*
X1235213Y-423160D02*
D03*
X1141004Y-219460D02*
D03*
X1139079Y-423160D02*
D03*
X1044666Y-219460D02*
D03*
X1042946Y-423160D02*
D03*
X948327Y-219460D02*
D03*
X946812Y-423160D02*
D03*
X851989Y-219460D02*
D03*
X850678Y-423160D02*
D03*
X755650Y-219460D02*
D03*
X754545Y-423160D02*
D03*
X659311Y-219460D02*
D03*
X658411Y-423160D02*
D03*
X562973Y-219460D02*
D03*
X562278Y-423160D02*
D03*
X466634Y-219460D02*
D03*
X466090Y-416810D02*
D03*
X370296Y-219460D02*
D03*
X370011Y-423160D02*
D03*
X273957Y-219460D02*
D03*
X273877Y-423160D02*
D03*
X177619Y-219460D02*
D03*
X177744Y-423160D02*
D03*
X81280Y-219460D02*
D03*
D127*
X514150Y-589510D02*
D03*
Y-593510D02*
D03*
Y-597510D02*
D03*
Y-601510D02*
D03*
Y-605510D02*
D03*
Y-609510D02*
D03*
Y-613510D02*
D03*
Y-617510D02*
D03*
Y-621510D02*
D03*
Y-625510D02*
D03*
Y-629510D02*
D03*
Y-633510D02*
D03*
Y-637510D02*
D03*
Y-641510D02*
D03*
Y-645510D02*
D03*
Y-649510D02*
D03*
Y-653510D02*
D03*
Y-657510D02*
D03*
Y-661510D02*
D03*
Y-665510D02*
D03*
Y-669510D02*
D03*
Y-673510D02*
D03*
Y-677510D02*
D03*
Y-681510D02*
D03*
Y-685510D02*
D03*
Y-689510D02*
D03*
Y-693510D02*
D03*
Y-697510D02*
D03*
Y-701510D02*
D03*
Y-705510D02*
D03*
Y-709510D02*
D03*
Y-713510D02*
D03*
X362150D02*
D03*
Y-709510D02*
D03*
Y-705510D02*
D03*
Y-701510D02*
D03*
Y-697510D02*
D03*
Y-693510D02*
D03*
Y-689510D02*
D03*
Y-685510D02*
D03*
Y-681510D02*
D03*
Y-677510D02*
D03*
Y-673510D02*
D03*
Y-669510D02*
D03*
Y-665510D02*
D03*
Y-661510D02*
D03*
Y-657510D02*
D03*
Y-653510D02*
D03*
Y-649510D02*
D03*
Y-645510D02*
D03*
Y-641510D02*
D03*
Y-637510D02*
D03*
Y-633510D02*
D03*
Y-629510D02*
D03*
Y-625510D02*
D03*
Y-621510D02*
D03*
Y-617510D02*
D03*
Y-613510D02*
D03*
Y-609510D02*
D03*
Y-605510D02*
D03*
Y-601510D02*
D03*
Y-597510D02*
D03*
Y-593510D02*
D03*
Y-589510D02*
D03*
D128*
X500150Y-727510D02*
D03*
X496150D02*
D03*
X492150D02*
D03*
X488150D02*
D03*
X484150D02*
D03*
X480150D02*
D03*
X476150D02*
D03*
X472150D02*
D03*
X468150D02*
D03*
X464150D02*
D03*
X460150D02*
D03*
X456150D02*
D03*
X452150D02*
D03*
X448150D02*
D03*
X444150D02*
D03*
X440150D02*
D03*
X436150D02*
D03*
X432150D02*
D03*
X428150D02*
D03*
X424150D02*
D03*
X420150D02*
D03*
X416150D02*
D03*
X412150D02*
D03*
X408150D02*
D03*
X404150D02*
D03*
X400150D02*
D03*
X396150D02*
D03*
X392150D02*
D03*
X388150D02*
D03*
X384150D02*
D03*
X380150D02*
D03*
X376150D02*
D03*
Y-575510D02*
D03*
X380150D02*
D03*
X384150D02*
D03*
X388150D02*
D03*
X392150D02*
D03*
X396150D02*
D03*
X400150D02*
D03*
X404150D02*
D03*
X408150D02*
D03*
X412150D02*
D03*
X416150D02*
D03*
X420150D02*
D03*
X424150D02*
D03*
X428150D02*
D03*
X432150D02*
D03*
X436150D02*
D03*
X440150D02*
D03*
X444150D02*
D03*
X448150D02*
D03*
X452150D02*
D03*
X456150D02*
D03*
X460150D02*
D03*
X464150D02*
D03*
X468150D02*
D03*
X472150D02*
D03*
X476150D02*
D03*
X480150D02*
D03*
X484150D02*
D03*
X488150D02*
D03*
X492150D02*
D03*
X496150D02*
D03*
X500150D02*
D03*
D129*
X504560Y-969010D02*
D03*
Y-956310D02*
D03*
Y-943610D02*
D03*
Y-930910D02*
D03*
X455560Y-969010D02*
D03*
Y-956310D02*
D03*
Y-943610D02*
D03*
Y-930910D02*
D03*
D130*
X626842Y-706340D02*
D03*
Y-669340D02*
D03*
D131*
X206375Y-711200D02*
D03*
Y-698500D02*
D03*
Y-685800D02*
D03*
Y-673100D02*
D03*
Y-660400D02*
D03*
Y-647700D02*
D03*
Y-635000D02*
D03*
Y-622300D02*
D03*
X288926D02*
D03*
Y-635000D02*
D03*
Y-647700D02*
D03*
Y-660400D02*
D03*
Y-673100D02*
D03*
Y-685800D02*
D03*
Y-698500D02*
D03*
Y-711200D02*
D03*
D132*
X650240Y-857250D02*
D03*
X628240Y-847250D02*
D03*
X762410Y-846930D02*
D03*
X740410Y-836930D02*
D03*
X513080Y-895350D02*
D03*
X491080Y-885350D02*
D03*
D133*
X650240Y-837250D02*
D03*
X740410Y-856930D02*
D03*
X513080Y-875350D02*
D03*
D134*
X1136650Y-593090D02*
D03*
X806450Y-624840D02*
D03*
D135*
X1136650Y-588090D02*
D03*
Y-583090D02*
D03*
Y-578090D02*
D03*
Y-573090D02*
D03*
X1092650Y-593090D02*
D03*
Y-588090D02*
D03*
Y-583090D02*
D03*
Y-578090D02*
D03*
Y-573090D02*
D03*
X762450Y-604840D02*
D03*
Y-609840D02*
D03*
Y-614840D02*
D03*
Y-619840D02*
D03*
Y-624840D02*
D03*
X806450Y-604840D02*
D03*
Y-609840D02*
D03*
Y-614840D02*
D03*
Y-619840D02*
D03*
D136*
X860280Y-652410D02*
D03*
Y-701410D02*
D03*
X1010920Y-585100D02*
D03*
Y-634100D02*
D03*
D137*
X788670Y-655210D02*
D03*
Y-673210D02*
D03*
X838200Y-601870D02*
D03*
Y-619870D02*
D03*
X326390Y-763380D02*
D03*
Y-745380D02*
D03*
X820420Y-797450D02*
D03*
Y-815450D02*
D03*
X1165860Y-678290D02*
D03*
Y-660290D02*
D03*
X924560Y-779375D02*
D03*
Y-761375D02*
D03*
Y-800745D02*
D03*
Y-818745D02*
D03*
X1019810Y-757565D02*
D03*
Y-775565D02*
D03*
Y-799475D02*
D03*
Y-817475D02*
D03*
X957580Y-811420D02*
D03*
Y-829420D02*
D03*
X670560Y-694800D02*
D03*
Y-676800D02*
D03*
X245110Y-796400D02*
D03*
Y-778400D02*
D03*
X226060Y-551070D02*
D03*
Y-569070D02*
D03*
X172720Y-602090D02*
D03*
Y-584090D02*
D03*
X179070Y-725060D02*
D03*
Y-743060D02*
D03*
X866140Y-623680D02*
D03*
Y-605680D02*
D03*
X839470Y-791320D02*
D03*
Y-773320D02*
D03*
X1268730Y-895460D02*
D03*
Y-877460D02*
D03*
X683260Y-635110D02*
D03*
Y-617110D02*
D03*
X655320Y-590440D02*
D03*
Y-608440D02*
D03*
D138*
X120760Y-798830D02*
D03*
X102760D02*
D03*
X647810Y-640080D02*
D03*
X629810D02*
D03*
X513190Y-854710D02*
D03*
X495190D02*
D03*
X1110090Y-751840D02*
D03*
X1092090D02*
D03*
X1150730D02*
D03*
X1132730D02*
D03*
X1013570Y-832605D02*
D03*
X995570D02*
D03*
X1147970Y-716280D02*
D03*
X1165970D02*
D03*
X736710Y-688340D02*
D03*
X718710D02*
D03*
X491600Y-911860D02*
D03*
X473600D02*
D03*
X282050Y-778510D02*
D03*
X264050D02*
D03*
X273160Y-556260D02*
D03*
X255160D02*
D03*
X273160Y-577850D02*
D03*
X255160D02*
D03*
X282050Y-749300D02*
D03*
X264050D02*
D03*
X1053990Y-660400D02*
D03*
X1071990D02*
D03*
X1097390Y-619760D02*
D03*
X1079390D02*
D03*
X1059290Y-619760D02*
D03*
X1041290D02*
D03*
X1059290Y-600710D02*
D03*
X1041290D02*
D03*
X811420Y-689610D02*
D03*
X829420D02*
D03*
X810150Y-664210D02*
D03*
X828150D02*
D03*
D139*
X605410Y-744220D02*
D03*
X621410D02*
D03*
X621410Y-728980D02*
D03*
X605410D02*
D03*
X77090Y-836930D02*
D03*
X93090D02*
D03*
X77090Y-817880D02*
D03*
X93090D02*
D03*
D140*
X1271215Y-703580D02*
D03*
D141*
X1194915Y-741680D02*
D03*
Y-728980D02*
D03*
Y-716280D02*
D03*
Y-703580D02*
D03*
Y-690880D02*
D03*
Y-678180D02*
D03*
Y-665480D02*
D03*
D142*
X1199390Y-615950D02*
D03*
X1231390D02*
D03*
D143*
X1202660Y-792480D02*
D03*
X1230660D02*
D03*
D144*
X1130460Y-775970D02*
D03*
X1150460D02*
D03*
D145*
X132080Y-928370D02*
D03*
Y-902970D02*
D03*
Y-953770D02*
D03*
Y-877570D02*
D03*
Y-979170D02*
D03*
Y-852170D02*
D03*
D146*
X86370Y-770910D02*
D03*
Y-608310D02*
D03*
D147*
X143470Y-758210D02*
D03*
Y-735310D02*
D03*
Y-643910D02*
D03*
Y-621010D02*
D03*
X95270Y-654060D02*
D03*
X77470Y-663960D02*
D03*
X95270Y-674460D02*
D03*
X77470Y-684360D02*
D03*
X95270Y-694860D02*
D03*
X77470Y-704760D02*
D03*
X95270Y-715260D02*
D03*
D148*
X52070Y-626110D02*
D03*
Y-753110D02*
D03*
D149*
X726340Y-936380D02*
D03*
X682340D02*
D03*
D150*
X708240Y-733830D02*
D03*
X759040D02*
D03*
X733640D02*
D03*
D151*
X325120Y-298450D02*
D03*
Y-323850D02*
D03*
X223520Y-298450D02*
D03*
X248920Y-323850D02*
D03*
Y-298450D02*
D03*
X274320Y-323850D02*
D03*
Y-298450D02*
D03*
X299720Y-323850D02*
D03*
Y-298450D02*
D03*
X223520Y-323850D02*
D03*
X70150Y-544830D02*
D03*
X19350Y-570230D02*
D03*
Y-544830D02*
D03*
X44750Y-570230D02*
D03*
Y-544830D02*
D03*
X70150Y-570230D02*
D03*
X806450Y-307340D02*
D03*
Y-332740D02*
D03*
X704850Y-307340D02*
D03*
X730250Y-332740D02*
D03*
Y-307340D02*
D03*
X755650Y-332740D02*
D03*
Y-307340D02*
D03*
X781050Y-332740D02*
D03*
Y-307340D02*
D03*
X704850Y-332740D02*
D03*
X916640Y-589280D02*
D03*
X942040Y-614680D02*
D03*
Y-589280D02*
D03*
X967440Y-614680D02*
D03*
Y-589280D02*
D03*
X916640Y-614680D02*
D03*
X1187450Y-328930D02*
D03*
X1263650Y-303530D02*
D03*
Y-328930D02*
D03*
X1238250Y-303530D02*
D03*
Y-328930D02*
D03*
X1212850Y-303530D02*
D03*
Y-328930D02*
D03*
X1187450Y-303530D02*
D03*
X1289050Y-328930D02*
D03*
Y-303530D02*
D03*
D152*
X195270Y-876780D02*
D03*
X225270D02*
D03*
X255270D02*
D03*
X195270Y-906780D02*
D03*
X225270D02*
D03*
X329890Y-876780D02*
D03*
X359890D02*
D03*
X389890D02*
D03*
X329890Y-906780D02*
D03*
X359890D02*
D03*
D153*
X255270D02*
D03*
X389890D02*
D03*
D154*
X225270Y-950780D02*
D03*
X1433170Y-806450D02*
D03*
X359890Y-950780D02*
D03*
X1433170Y-867410D02*
D03*
D155*
X1461970Y-638810D02*
D03*
X1410970D02*
D03*
Y-715010D02*
D03*
X1461970D02*
D03*
D156*
X1305170Y-806450D02*
D03*
Y-867410D02*
D03*
D157*
X1360170Y-806450D02*
D03*
Y-867410D02*
D03*
D158*
X50000Y-950000D02*
D03*
D159*
X1235710Y-696383D02*
D03*
Y-684530D02*
D03*
Y-708237D02*
D03*
Y-720090D02*
D03*
X1247775Y-720513D02*
D03*
Y-708660D02*
D03*
Y-684953D02*
D03*
Y-696807D02*
D03*
X1259840Y-720513D02*
D03*
Y-708660D02*
D03*
Y-684953D02*
D03*
Y-696807D02*
D03*
X1271905Y-720513D02*
D03*
Y-708660D02*
D03*
Y-684953D02*
D03*
Y-696807D02*
D03*
X1283970Y-720513D02*
D03*
Y-708660D02*
D03*
Y-684953D02*
D03*
Y-696807D02*
D03*
X1296035Y-720513D02*
D03*
Y-708660D02*
D03*
Y-684953D02*
D03*
Y-696807D02*
D03*
X1308100Y-720513D02*
D03*
Y-708660D02*
D03*
Y-684953D02*
D03*
Y-696807D02*
D03*
X963507Y-902970D02*
D03*
X951653D02*
D03*
X975360D02*
D03*
X987213D02*
D03*
X963507Y-915035D02*
D03*
X951653D02*
D03*
X975360D02*
D03*
X987213D02*
D03*
X963507Y-927100D02*
D03*
X951653D02*
D03*
X975360D02*
D03*
X987213D02*
D03*
X963507Y-939165D02*
D03*
X951653D02*
D03*
X975360D02*
D03*
X987213D02*
D03*
X963507Y-951230D02*
D03*
X951653D02*
D03*
X975360D02*
D03*
X987213D02*
D03*
X963507Y-963295D02*
D03*
X951653D02*
D03*
X975360D02*
D03*
X987213D02*
D03*
X986790Y-975360D02*
D03*
X974937D02*
D03*
X951230D02*
D03*
X963083D02*
D03*
M02*
