M48
;Layer_Color=9474304
;FILE_FORMAT=4:4
METRIC,LZ
;TYPE=PLATED
T1F00S00C0.3000
T2F00S00C0.8000
T3F00S00C1.0000
T4F00S00C1.0160
T5F00S00C1.1000
T6F00S00C1.5000
T7F00S00C1.6000
T8F00S00C4.5000
;TYPE=NON_PLATED
T9F00S00C0.9000
T10F00S00C2.0000
T11F00S00C3.0000
T12F00S00C3.2500
T13F00S00C4.5000
%
T01
X000381Y-0089027
X000762Y-0088011
X0015113Y-0089662
X001524Y-009398
X0017907Y-0094742
X0018034Y-0096901
X0019177Y-0098171
X0020955Y-0092964
X0018034Y-0092202
X0027559Y-0093472
Y-0096012
X0029464Y-009525
X0031877Y-009652
X0034036Y-0096393
X0034163Y-0092075
X0037084Y-009271
X004064
Y-0095885
X0039116Y-0099441
X0048895Y-0096774
Y-0093472
Y-0090043
X0031496Y-0093091
X0027686Y-0090424
X0056388Y-0091313
X0058801Y-0090043
X0060706Y-0090297
X0061849Y-0088011
X0065786
X0066548Y-0087503
X0058801Y-0093472
Y-0096774
X0093345Y-0092329
X009779Y-0089408
X0101346Y-0087376
X0104521
X0105029Y-0092075
X0105791Y-0091567
X010287Y-0092202
X0108585Y-0094107
Y-0094996
X0109982Y-0094488
X0117221Y-009525
X0120396Y-009652
X0122555Y-0095631
X0120523Y-0091821
Y-0090551
X0122555Y-0089662
X0136525Y-0075184
X014478Y-0075946
X0146558Y-0073279
X014605Y-0051308
X0139954Y-0053213
X0134874Y-0055245
X0136652Y-0048768
X01271713Y-0048514
X012446Y-0051308
X0124714Y-0055372
X0129794
X0119126Y-0054991
X0115062Y-0055118
X011303Y-0057023
X0112522Y-0057785
X011303Y-0058801
X0112903Y-0061341
X011176Y-0063373
X010668
X0103251Y-0063246
X010033Y-006477
Y-0068072
X0098044Y-0068326
X0096139Y-006858
X0096012Y-0071374
X0096139Y-0074676
X0095758Y-0078105
X009779Y-007747
X0098806Y-0076708
X0100584Y-0076454
X0101092Y-0078867
Y-0079756
X0099314Y-008128
X0099822Y-0082677
Y-0086487
X0104521Y-0079756
Y-0078867
X0104013Y-0074676
Y-007112
X0109855
X010922Y-0074041
X0107442Y-0074168
X011176Y-0076581
Y-007747
X0112903
Y-0076581
X011557Y-007112
Y-006985
Y-006731
X0115951Y-0059055
X0111506Y-0056642
X0110617Y-0054991
X010922Y-0056007
X0108839Y-0056896
X0106045Y-0054991
X0105029Y-0058293
X0103251Y-005842
X01065476Y-0050165
X01079446Y-0048514
X0100203Y-0049149
X0098298Y-0051308
X01161609Y-0050165
X0106553Y-0067564
X0124206Y-0069215
Y-00704003
Y-00715857
Y-0072771
X01254125Y-00728133
Y-0071628
Y-00704427
Y-00692573
X0126619
Y-00704427
Y-0071628
Y-00728133
X01278255
Y-0071628
Y-00704427
Y-00692573
X0129032
Y-00704427
Y-0071628
Y-00728133
X01302385
Y-0071628
Y-00704427
Y-00692573
X0131445
Y-00704427
Y-0071628
Y-00728133
X0122555Y-0083566
X0120523Y-0084582
Y-0085725
X0120269Y-0082042
X009271Y-0076327
X009017Y-0076708
X0089027Y-0079629
X0086106Y-007747
Y-0075057
X0081788
Y-0077851
X0076708Y-0077978
X0077216Y-0084836
X0068834Y-0079248
X0067183Y-0077851
X0064262
X0063246Y-0074422
X0062611Y-0072263
X0064389Y-0071501
X0064135Y-0070612
X0065913Y-0071755
X0065786Y-0065786
X0064262Y-0065659
X0065913Y-0063246
X0066675Y-0062738
X0066929Y-0064008
X0069342Y-0064389
X0071501Y-0063627
X0073406Y-0064516
X0075438Y-0064008
X007493Y-0061214
X0075311Y-005969
X0074041
X0073152Y-0059309
X0071882Y-0060071
X0071236Y-0060844
X0070612Y-0061468
X0070485Y-0057531
X0072644
X0074803
X0077851
X0078359Y-0059436
X0079375Y-0060198
Y-0061087
X0082677Y-0061214
X0081661Y-0059563
X0082931Y-0057531
X0080391
X0086487Y-0058293
X008509Y-0059817
X0085598Y-0063627
X0083312
X0082804Y-0067691
X0080899
X0075946Y-006731
X0089662Y-006858
X0091948Y-0067818
X0092837Y-0065405
X0089408Y-0062865
X0088011Y-0061976
X0087757Y-0071628
X0089154Y-0050292
X00777075Y-0050165
X00791045Y-0048514
X0070231Y-0048641
X00680941Y-0050165
X0062484Y-0054102
X0056642
X0055245Y-0053975
X0054737Y-0056134
X0056134Y-0057023
X0054229Y-0063754
X0054991Y-0065278
X0056261Y-0065659
X0057147Y-0066551
X0056388Y-0067818
X0054991Y-0068072
X0057658Y-0070231
X0058293Y-0071501
X0058674Y-0074295
X0057277
X0056388Y-007493
X0054991
X0055499Y-0084963
X0061087Y-0084709
X0060325Y-0086614
X0060833Y-0087249
X0061722
X0061341Y-0068707
X0060325Y-0067564
X0067437Y-0060198
X0068707Y-0059309
X0052705Y-0057531
X0050927Y-0058166
X0049657Y-0059309
X0048025Y-0060979
X0047117Y-0061849
X0046228Y-0060325
X0044704Y-0059055
X0043053Y-0059817
X0039878Y-0059563
X004064Y-0061214
X0038481Y-0063246
X0038862Y-0065024
X0040386Y-0066675
X0041148Y-0067437
X0037846Y-0067818
Y-0068961
X0038735Y-0070231
X0034163Y-0069977
X0033655Y-00708227
X0033147Y-0072263
X0035687
X003937Y-0075311
X0043434Y-0074676
X0043815Y-0075946
X0043942Y-0076708
X0044069Y-007747
X0044831
X004572Y-0077343
X0046228Y-0076835
X0044704Y-008001
X0049657Y-0078486
X0050038Y-0083058
X0050292Y-0085725
X004699Y-0084963
X0040132Y-0085725
X0035306Y-0083312
X0032639Y-0081534
X0030988Y-0078232
X0029718Y-0076962
X002921Y-0079502
X0028194Y-0081026
X002667Y-008001
X0024384Y-0079756
X0023495Y-0080899
X0021844Y-0083439
X0021209Y-0085217
X0018923
X0018542Y-0084201
X0018796Y-0083312
X0018923Y-0082042
X0018288Y-0081534
X0015748Y-0081661
X0016637Y-0079629
X002159Y-0077597
X0021463Y-0071755
X0021336Y-0066802
X0020066Y-0064135
X0022606Y-0062484
X002413Y-0065024
X0027305Y-0064527
X0027559Y-0061849
X002667Y-0060833
X002921Y-006096
X0029845Y-00601973
X0031242Y-0060198
X0031623Y-0059309
X0032258Y-0058547
X0033909Y-0058166
X0033147Y-005969
X0034417Y-0060198
X003429Y-0061087
X0034417Y-0065151
X0031877Y-0067945
X0027051Y-0068326
X0025908Y-0067945
X0026289Y-0069469
X0027062Y-0070115
X002667Y-007366
X0024638Y-0073787
X0029464Y-0073533
X002921Y-00635
X0029972Y-0056896
X0030099Y-0055118
X0031877
X0030988Y-0054102
X00296407Y-0050165
X0028067Y-0047752
X0020066Y-0050165
X0018034Y-0048387
X0016256Y-0054102
X0016129Y-0055245
X00155135Y-00558605
X0014732Y-0056134
X00144585Y-00569155
X0018288Y-0056896
X0020574Y-005715
X0021463Y-0055118
X0022479Y-0053975
X0025781Y-0057277
X0036068Y-0057023
X003937Y-005334
X0040513Y-0053848
X0040894Y-0053086
X0042799Y-0052832
X004191Y-0051816
X003683Y-0050419
X00502644Y-0048514
X0053467Y-0054737
X0053086Y-0064643
X0048387Y-0065278
X0047371Y-0064262
X0044831Y-0064897
X004318Y-0064008
X0045212Y-0062738
X0044069Y-0068453
X00441005Y-00708345
X0045593Y-0070485
Y-0069723
X0046482Y-0070739
X0048387Y-0067945
X0053213Y-0072136
X0051181Y-0074422
X0053721Y-0076073
X005334Y-0082423
X0053467Y-0083566
X002921Y-0084455
X0028067Y-0084963
X0026924Y-0084836
X0023622Y-0085344
X0011811Y-0081153
X0009906Y-0079883
X00127Y-0078359
X0012827Y-0069469
X0010287Y-005334
X0010414Y-0050165
X0010922Y-0048514
X000762Y-0083947
X0002667Y-0082804
X0002413Y-0085598
X0005969Y-0045466
X0010033Y-0044831
X0011176Y-0041402
X0012446Y-0037084
X0013335Y-0034925
X001016Y-0030988
X0008001Y-003302
X0005969Y-0035687
X0005461Y-0040005
X0006858Y-0029464
X001016Y-0024511
X0010033Y-0018923
X0007747Y-0017018
X000635Y-0015875
X0005957Y-0014097
X0005842Y-0021082
X0004318Y-0021336
X001397Y-0021209
X0013335Y-0027686
X0020447Y-0024003
X0019812Y-0020574
X0021971Y-002032
X0023495Y-0020701
X00237867Y-0015748
X00251837Y-0014097
X0025781Y-0017272
X0028575Y-001905
X0032258Y-0019939
X0035433Y-0018669
X0038227
X0040513
X0040259Y-0021971
X0042926Y-0021082
X00430134Y-0015748
X00444104Y-0014097
X0047752Y-0018923
X0050165Y-0018161
X0049657Y-0021717
X0052578Y-0021463
X00527293Y-0015748
X0049403Y-0025146
X0045974Y-0027813
X0044323Y-0030607
X003937Y-0028067
X0037973Y-0026289
X003937Y-0034544
X0045466Y-0037211
X004445Y-0039878
X0044323Y-0044196
Y-0046228
X0048895Y-0046355
X005334Y-0041783
X0038862Y-0047244
X0035814
X0035052Y-0045212
X003429Y-0039497
X003048Y-0041275
X0029972Y-0047498
X0025654Y-0045212
X0024003Y-0037592
X0018161Y-0034417
X0015621Y-0039116
X0014478Y-0042164
X0015748Y-0045466
X0016383Y-0017018
X0014986Y-0016129
X00155704Y-0014097
X0019177Y-0018415
X002921Y-0024892
X00334001Y-0015748
X00347971Y-0014097
X00541263
X0057785Y-0018796
X0058293Y-0023622
Y-0032639
X0056515Y-003556
X0055118Y-0037338
X0057912Y-0043561
X0058166Y-0047244
X0063627Y-0046609
Y-004445
X0067564Y-0043434
X0064008Y-0039243
X0063754Y-0036195
X0063627Y-0028829
X0068707
X0069088Y-0023876
X0068199Y-0019558
X0071882Y-0020574
X0074041Y-0020447
X007747Y-0019431
X0081407Y-002159
X008382Y-0020574
X0086868Y-0019304
X0088138Y-0022098
X0091059Y-0021717
X00911827Y-0015748
X00925797Y-0014097
X00829663
X00815694Y-0015748
X0073353Y-0014097
X0071755Y-0015494
X00637396Y-0014097
X00623426Y-0015748
X0062103Y-0016764
X0077724Y-0025781
X0086106Y-0026289
X0087376Y-0028956
X0092583Y-0029845
X0091059Y-0032766
Y-0039878
X0092837Y-0045339
X0086868Y-0043815
X0086487Y-0047625
X0083312Y-0045466
X0081915Y-0039497
X007747Y-003937
X0073533
X0073279Y-0045466
X0076454Y-0043434
X0083312Y-003556
X0093853Y-0035306
X0094742Y-0027559
X0097028Y-0024638
X0096647Y-0019304
X009398Y-002032
X0100711Y-0021463
X01008986Y-0015748
X01022956Y-0014097
X0106045Y-0018542
X0107315Y-0022098
X0110236Y-0021082
X0112522Y-0019304
X0116078Y-0019431
X0115316Y-0017526
X01105119Y-0015748
X01119089Y-0014097
X01215223
X01201253Y-0015748
X0122047Y-0016891
X0124968Y-0017526
X0127254Y-0020828
X012954Y-0021209
X0130937Y-0020574
X0131826Y-0016637
X01311356Y-0014097
X0127508Y-0023749
X0125222Y-0023495
X0119888Y-0020447
X011684Y-0023876
X0117221Y-0028575
X0109093Y-0026035
X0107696Y-0032893
X010541Y-0031242
X0105156Y-0035306
X0102235Y-0038227
X0098679Y-0042291
X0096266Y-0044831
X0102997Y-0046355
X010541Y-0047625
X010795Y-004191
X0110109Y-0039624
X0111887Y-0037719
X0115824Y-0039878
X011557Y-0043307
X0115189Y-0047625
X0111633Y-0045593
X012192Y-0045466
X0124079Y-0047117
X0126492Y-004318
X0128651Y-0038608
X013081Y-0039751
X0131064Y-0035179
Y-0028194
X0130937Y-0045593
X0120904Y-0040767
X0121793Y-0037973
X0136017Y-0035306
X0138176Y-0037211
X0140716Y-0037084
X0140462Y-0039751
X014097Y-004318
X0140716Y-0045847
X0143764Y-0047498
X0144653Y-0043434
X0134493Y-004318
Y-0047244
X0135128Y-0028067
X0138303Y-0027686
X0135763Y-0024003
X0135509Y-0019812
X0137287Y-0017526
X0140589Y-0016129
X0140749Y-0014097
X0142367Y-0016891
X0141605Y-002032
X0139192Y-0021463
X0143764Y-0028829
X0144018Y-0031369
X0145288Y-0032766
X0141351Y-0031369
T02
X0054976Y-0079597
X0056976
X0058976
X0060976
X0059976Y-0077597
X0057976
X0055976
X0061976
T03
X0011176Y-0097663
Y-0095123
Y-0092583
Y-0090043
Y-0087503
X0094204Y-0061468
X0096744
Y-0058928
X0094204
X0091664
Y-0061468
X0019685Y-0066167
Y-0068707
Y-0071247
Y-0073787
X0017145Y-0072517
Y-0069977
Y-0067437
Y-0064897
X0007415Y-0065557
X0005895Y-0063017
X0007015Y-0057023
Y-0054483
X0004475
Y-0057023
X0001935
Y-0054483
X0005895Y-0073127
X0007415Y-0075667
X0011176Y-0084963
X0022352Y-0032385
Y-0029845
X0024892
X0027432
X0029972
Y-0032385
X0027432
X0024892
X0032512
Y-0029845
X0070485Y-0030734
Y-0033274
X0073025
X0075565
X0078105
Y-0030734
X0075565
X0073025
X0080645
Y-0033274
X0118745Y-0032893
Y-0030353
X0121285
Y-0032893
X0123825
Y-0030353
X0126365
X0128905
Y-0032893
X0126365
T04
X0070612Y-0070231
X0073152
X0075692
T05
X0019527Y-0090678
Y-0087678
X0022527
X0025527
Y-0090678
X0022527
X0032989
Y-0087678
X0035989
X0038989
Y-0090678
X0035989
T06
X0141097Y-0087249
X0146197
Y-0078359
X0141097
X0137795Y-0069088
Y-0061468
T07
X0069841Y-0086106
X0074041
Y-0080606
X0069841
X0080128
X0084328
Y-0086106
X0080128
X0090551
Y-0080606
X0013845Y-0077217
Y-0061467
T08
X0005Y-0095
T09
X0051724Y-0093638
X0056124
T10
X0145415Y-0065278
T11
X0022527Y-0095078
X0035989
X0071941Y-0093406
X0082228
X0090551
T12
X0010795Y-0075057
Y-0063627
T13
X0145Y-0095
X0051435Y-0031623
X0099568
X0145Y-0005
X0005
M30
