G04 Layer_Color=65535*
%FSLAX44Y44*%
%MOMM*%
G71*
G01*
G75*
%ADD51C,0.2540*%
%ADD52C,1.0000*%
%ADD53C,0.5000*%
%ADD63C,0.1000*%
%ADD81C,0.2500*%
%ADD82C,0.2000*%
%ADD83C,0.2032*%
%ADD84C,0.6000*%
%ADD85C,0.1016*%
%ADD86C,0.1524*%
%ADD87C,0.1520*%
%ADD88R,0.2540X0.7620*%
%ADD89R,0.7620X0.2540*%
G36*
X1346108Y-597125D02*
X1346284Y-597145D01*
X1346479Y-597184D01*
X1346713Y-597223D01*
X1346947Y-597281D01*
X1347201Y-597360D01*
X1347474Y-597438D01*
X1347747Y-597555D01*
X1348020Y-597691D01*
X1348293Y-597847D01*
X1348547Y-598042D01*
X1348800Y-598237D01*
X1349034Y-598491D01*
X1349054Y-598510D01*
X1349093Y-598549D01*
X1349151Y-598628D01*
X1349229Y-598745D01*
X1349307Y-598901D01*
X1349405Y-599076D01*
X1349522Y-599271D01*
X1349619Y-599525D01*
X1349737Y-599798D01*
X1349834Y-600110D01*
X1349932Y-600461D01*
X1350029Y-600832D01*
X1350088Y-601241D01*
X1350146Y-601671D01*
X1350185Y-602158D01*
Y-602665D01*
X1344041D01*
Y-602685D01*
Y-602705D01*
Y-602763D01*
X1344060Y-602841D01*
X1344079Y-603056D01*
X1344118Y-603290D01*
X1344196Y-603582D01*
X1344294Y-603855D01*
X1344431Y-604128D01*
X1344626Y-604382D01*
X1344645Y-604402D01*
X1344723Y-604480D01*
X1344840Y-604577D01*
X1345016Y-604675D01*
X1345211Y-604792D01*
X1345464Y-604889D01*
X1345738Y-604967D01*
X1346030Y-604987D01*
X1346128D01*
X1346245Y-604967D01*
X1346381Y-604948D01*
X1346518Y-604909D01*
X1346693Y-604850D01*
X1346850Y-604772D01*
X1347006Y-604675D01*
X1347025Y-604655D01*
X1347064Y-604616D01*
X1347142Y-604538D01*
X1347220Y-604421D01*
X1347318Y-604285D01*
X1347435Y-604109D01*
X1347532Y-603914D01*
X1347610Y-603660D01*
X1350049Y-604070D01*
Y-604090D01*
X1350029Y-604128D01*
X1349990Y-604207D01*
X1349951Y-604285D01*
X1349912Y-604402D01*
X1349834Y-604538D01*
X1349678Y-604831D01*
X1349464Y-605162D01*
X1349210Y-605494D01*
X1348898Y-605826D01*
X1348547Y-606118D01*
X1348527D01*
X1348508Y-606157D01*
X1348449Y-606177D01*
X1348371Y-606235D01*
X1348273Y-606274D01*
X1348137Y-606333D01*
X1347844Y-606469D01*
X1347474Y-606606D01*
X1347045Y-606703D01*
X1346557Y-606782D01*
X1346011Y-606820D01*
X1345913D01*
X1345777Y-606801D01*
X1345621D01*
X1345406Y-606762D01*
X1345191Y-606742D01*
X1344938Y-606684D01*
X1344665Y-606625D01*
X1344372Y-606547D01*
X1344079Y-606430D01*
X1343767Y-606313D01*
X1343475Y-606157D01*
X1343182Y-605982D01*
X1342909Y-605767D01*
X1342655Y-605513D01*
X1342421Y-605240D01*
Y-605221D01*
X1342382Y-605182D01*
X1342343Y-605104D01*
X1342285Y-605006D01*
X1342207Y-604889D01*
X1342129Y-604733D01*
X1342051Y-604558D01*
X1341973Y-604363D01*
X1341895Y-604148D01*
X1341817Y-603894D01*
X1341739Y-603641D01*
X1341661Y-603348D01*
X1341563Y-602724D01*
X1341543Y-602392D01*
X1341524Y-602041D01*
Y-602022D01*
Y-601944D01*
Y-601827D01*
X1341543Y-601651D01*
X1341563Y-601475D01*
X1341583Y-601241D01*
X1341622Y-600988D01*
X1341680Y-600734D01*
X1341817Y-600149D01*
X1341914Y-599856D01*
X1342031Y-599544D01*
X1342168Y-599252D01*
X1342324Y-598959D01*
X1342499Y-598686D01*
X1342714Y-598432D01*
X1342733Y-598413D01*
X1342773Y-598374D01*
X1342831Y-598315D01*
X1342929Y-598218D01*
X1343046Y-598120D01*
X1343202Y-598003D01*
X1343358Y-597886D01*
X1343553Y-597769D01*
X1343767Y-597652D01*
X1343982Y-597515D01*
X1344236Y-597418D01*
X1344509Y-597321D01*
X1344801Y-597223D01*
X1345094Y-597164D01*
X1345426Y-597125D01*
X1345757Y-597106D01*
X1345952D01*
X1346108Y-597125D01*
D02*
G37*
G36*
X1321061Y-606586D02*
X1318701D01*
X1317101Y-600617D01*
X1315521Y-606586D01*
X1313141D01*
X1310215Y-597301D01*
X1312595D01*
X1314331Y-603387D01*
X1315931Y-597301D01*
X1318311D01*
X1319852Y-603387D01*
X1321627Y-597301D01*
X1324046D01*
X1321061Y-606586D01*
D02*
G37*
G36*
X1250679Y-597125D02*
X1250855Y-597145D01*
X1251050Y-597184D01*
X1251284Y-597223D01*
X1251518Y-597281D01*
X1251771Y-597360D01*
X1252045Y-597438D01*
X1252318Y-597555D01*
X1252591Y-597691D01*
X1252864Y-597847D01*
X1253117Y-598042D01*
X1253371Y-598237D01*
X1253605Y-598491D01*
X1253625Y-598510D01*
X1253664Y-598549D01*
X1253722Y-598628D01*
X1253800Y-598745D01*
X1253878Y-598901D01*
X1253976Y-599076D01*
X1254093Y-599271D01*
X1254190Y-599525D01*
X1254307Y-599798D01*
X1254405Y-600110D01*
X1254502Y-600461D01*
X1254600Y-600832D01*
X1254659Y-601241D01*
X1254717Y-601671D01*
X1254756Y-602158D01*
Y-602665D01*
X1248611D01*
Y-602685D01*
Y-602705D01*
Y-602763D01*
X1248631Y-602841D01*
X1248650Y-603056D01*
X1248689Y-603290D01*
X1248767Y-603582D01*
X1248865Y-603855D01*
X1249001Y-604128D01*
X1249196Y-604382D01*
X1249216Y-604402D01*
X1249294Y-604480D01*
X1249411Y-604577D01*
X1249587Y-604675D01*
X1249782Y-604792D01*
X1250035Y-604889D01*
X1250308Y-604967D01*
X1250601Y-604987D01*
X1250698D01*
X1250816Y-604967D01*
X1250952Y-604948D01*
X1251089Y-604909D01*
X1251264Y-604850D01*
X1251420Y-604772D01*
X1251576Y-604675D01*
X1251596Y-604655D01*
X1251635Y-604616D01*
X1251713Y-604538D01*
X1251791Y-604421D01*
X1251889Y-604285D01*
X1252005Y-604109D01*
X1252103Y-603914D01*
X1252181Y-603660D01*
X1254620Y-604070D01*
Y-604090D01*
X1254600Y-604128D01*
X1254561Y-604207D01*
X1254522Y-604285D01*
X1254483Y-604402D01*
X1254405Y-604538D01*
X1254249Y-604831D01*
X1254034Y-605162D01*
X1253781Y-605494D01*
X1253468Y-605826D01*
X1253117Y-606118D01*
X1253098D01*
X1253078Y-606157D01*
X1253020Y-606177D01*
X1252942Y-606235D01*
X1252844Y-606274D01*
X1252708Y-606333D01*
X1252415Y-606469D01*
X1252045Y-606606D01*
X1251615Y-606703D01*
X1251128Y-606782D01*
X1250582Y-606820D01*
X1250484D01*
X1250347Y-606801D01*
X1250191D01*
X1249977Y-606762D01*
X1249762Y-606742D01*
X1249509Y-606684D01*
X1249236Y-606625D01*
X1248943Y-606547D01*
X1248650Y-606430D01*
X1248338Y-606313D01*
X1248046Y-606157D01*
X1247753Y-605982D01*
X1247480Y-605767D01*
X1247226Y-605513D01*
X1246992Y-605240D01*
Y-605221D01*
X1246953Y-605182D01*
X1246914Y-605104D01*
X1246856Y-605006D01*
X1246778Y-604889D01*
X1246700Y-604733D01*
X1246621Y-604558D01*
X1246544Y-604363D01*
X1246466Y-604148D01*
X1246387Y-603894D01*
X1246309Y-603641D01*
X1246231Y-603348D01*
X1246134Y-602724D01*
X1246114Y-602392D01*
X1246095Y-602041D01*
Y-602022D01*
Y-601944D01*
Y-601827D01*
X1246114Y-601651D01*
X1246134Y-601475D01*
X1246153Y-601241D01*
X1246192Y-600988D01*
X1246251Y-600734D01*
X1246387Y-600149D01*
X1246485Y-599856D01*
X1246602Y-599544D01*
X1246739Y-599252D01*
X1246895Y-598959D01*
X1247070Y-598686D01*
X1247285Y-598432D01*
X1247304Y-598413D01*
X1247343Y-598374D01*
X1247402Y-598315D01*
X1247499Y-598218D01*
X1247616Y-598120D01*
X1247772Y-598003D01*
X1247928Y-597886D01*
X1248124Y-597769D01*
X1248338Y-597652D01*
X1248553Y-597515D01*
X1248806Y-597418D01*
X1249079Y-597321D01*
X1249372Y-597223D01*
X1249665Y-597164D01*
X1249996Y-597125D01*
X1250328Y-597106D01*
X1250523D01*
X1250679Y-597125D01*
D02*
G37*
G36*
X1329352D02*
X1329508D01*
X1329878Y-597145D01*
X1330268Y-597203D01*
X1330678Y-597262D01*
X1331068Y-597360D01*
X1331244Y-597418D01*
X1331400Y-597496D01*
X1331439Y-597515D01*
X1331536Y-597574D01*
X1331673Y-597652D01*
X1331848Y-597769D01*
X1332024Y-597906D01*
X1332219Y-598081D01*
X1332395Y-598276D01*
X1332531Y-598491D01*
X1332551Y-598510D01*
X1332590Y-598608D01*
X1332629Y-598764D01*
X1332707Y-598998D01*
X1332726Y-599135D01*
X1332765Y-599291D01*
X1332785Y-599466D01*
X1332804Y-599681D01*
X1332824Y-599895D01*
X1332843Y-600149D01*
X1332863Y-600403D01*
Y-600695D01*
X1332824Y-603543D01*
Y-603563D01*
Y-603602D01*
Y-603660D01*
Y-603738D01*
Y-603953D01*
X1332843Y-604226D01*
Y-604519D01*
X1332882Y-604831D01*
X1332902Y-605104D01*
X1332941Y-605357D01*
Y-605377D01*
X1332960Y-605455D01*
X1332999Y-605572D01*
X1333038Y-605728D01*
X1333097Y-605904D01*
X1333175Y-606118D01*
X1333273Y-606333D01*
X1333389Y-606586D01*
X1330971D01*
Y-606567D01*
X1330951Y-606547D01*
X1330932Y-606489D01*
X1330912Y-606411D01*
X1330873Y-606313D01*
X1330815Y-606196D01*
X1330776Y-606040D01*
X1330717Y-605884D01*
Y-605865D01*
Y-605845D01*
X1330678Y-605767D01*
X1330659Y-605670D01*
X1330639Y-605592D01*
X1330620Y-605611D01*
X1330522Y-605689D01*
X1330405Y-605806D01*
X1330229Y-605943D01*
X1330034Y-606099D01*
X1329800Y-606255D01*
X1329566Y-606391D01*
X1329293Y-606528D01*
X1329254Y-606547D01*
X1329176Y-606567D01*
X1329020Y-606625D01*
X1328825Y-606664D01*
X1328610Y-606723D01*
X1328357Y-606782D01*
X1328064Y-606801D01*
X1327771Y-606820D01*
X1327635D01*
X1327537Y-606801D01*
X1327420D01*
X1327264Y-606782D01*
X1326952Y-606723D01*
X1326582Y-606625D01*
X1326211Y-606508D01*
X1325840Y-606313D01*
X1325509Y-606060D01*
X1325470Y-606021D01*
X1325372Y-605923D01*
X1325255Y-605748D01*
X1325099Y-605513D01*
X1324943Y-605221D01*
X1324826Y-604889D01*
X1324728Y-604499D01*
X1324689Y-604070D01*
Y-604031D01*
Y-603933D01*
X1324709Y-603797D01*
X1324728Y-603602D01*
X1324787Y-603387D01*
X1324845Y-603153D01*
X1324943Y-602919D01*
X1325060Y-602685D01*
X1325079Y-602665D01*
X1325138Y-602587D01*
X1325216Y-602470D01*
X1325333Y-602334D01*
X1325470Y-602178D01*
X1325645Y-602022D01*
X1325860Y-601866D01*
X1326094Y-601729D01*
X1326133Y-601710D01*
X1326230Y-601671D01*
X1326387Y-601612D01*
X1326601Y-601534D01*
X1326874Y-601437D01*
X1327206Y-601339D01*
X1327596Y-601241D01*
X1328045Y-601144D01*
X1328064D01*
X1328123Y-601124D01*
X1328201Y-601105D01*
X1328318Y-601085D01*
X1328474Y-601066D01*
X1328630Y-601027D01*
X1329000Y-600949D01*
X1329391Y-600851D01*
X1329781Y-600754D01*
X1330151Y-600656D01*
X1330307Y-600598D01*
X1330444Y-600539D01*
Y-600305D01*
Y-600266D01*
Y-600188D01*
X1330424Y-600071D01*
X1330405Y-599915D01*
X1330366Y-599739D01*
X1330288Y-599583D01*
X1330210Y-599427D01*
X1330093Y-599291D01*
X1330073Y-599271D01*
X1330015Y-599232D01*
X1329937Y-599193D01*
X1329800Y-599135D01*
X1329625Y-599076D01*
X1329391Y-599018D01*
X1329098Y-598998D01*
X1328766Y-598979D01*
X1328649D01*
X1328532Y-598998D01*
X1328396Y-599018D01*
X1328045Y-599096D01*
X1327888Y-599154D01*
X1327732Y-599252D01*
X1327713Y-599271D01*
X1327674Y-599310D01*
X1327596Y-599369D01*
X1327518Y-599466D01*
X1327420Y-599583D01*
X1327323Y-599739D01*
X1327225Y-599934D01*
X1327147Y-600149D01*
X1324943Y-599739D01*
Y-599720D01*
X1324962Y-599681D01*
X1324982Y-599603D01*
X1325021Y-599525D01*
X1325119Y-599291D01*
X1325235Y-598998D01*
X1325411Y-598666D01*
X1325645Y-598354D01*
X1325918Y-598042D01*
X1326230Y-597769D01*
X1326250D01*
X1326269Y-597750D01*
X1326328Y-597711D01*
X1326406Y-597672D01*
X1326503Y-597613D01*
X1326620Y-597555D01*
X1326757Y-597496D01*
X1326913Y-597438D01*
X1327089Y-597379D01*
X1327303Y-597321D01*
X1327518Y-597262D01*
X1327771Y-597203D01*
X1328025Y-597164D01*
X1328318Y-597125D01*
X1328610Y-597106D01*
X1329215D01*
X1329352Y-597125D01*
D02*
G37*
G36*
X1287606D02*
X1287762D01*
X1288133Y-597145D01*
X1288523Y-597203D01*
X1288933Y-597262D01*
X1289323Y-597360D01*
X1289498Y-597418D01*
X1289654Y-597496D01*
X1289693Y-597515D01*
X1289791Y-597574D01*
X1289928Y-597652D01*
X1290103Y-597769D01*
X1290279Y-597906D01*
X1290474Y-598081D01*
X1290649Y-598276D01*
X1290786Y-598491D01*
X1290805Y-598510D01*
X1290844Y-598608D01*
X1290883Y-598764D01*
X1290961Y-598998D01*
X1290981Y-599135D01*
X1291020Y-599291D01*
X1291039Y-599466D01*
X1291059Y-599681D01*
X1291078Y-599895D01*
X1291098Y-600149D01*
X1291117Y-600403D01*
Y-600695D01*
X1291078Y-603543D01*
Y-603563D01*
Y-603602D01*
Y-603660D01*
Y-603738D01*
Y-603953D01*
X1291098Y-604226D01*
Y-604519D01*
X1291137Y-604831D01*
X1291156Y-605104D01*
X1291196Y-605357D01*
Y-605377D01*
X1291215Y-605455D01*
X1291254Y-605572D01*
X1291293Y-605728D01*
X1291351Y-605904D01*
X1291429Y-606118D01*
X1291527Y-606333D01*
X1291644Y-606586D01*
X1289225D01*
Y-606567D01*
X1289206Y-606547D01*
X1289186Y-606489D01*
X1289167Y-606411D01*
X1289128Y-606313D01*
X1289069Y-606196D01*
X1289030Y-606040D01*
X1288972Y-605884D01*
Y-605865D01*
Y-605845D01*
X1288933Y-605767D01*
X1288913Y-605670D01*
X1288894Y-605592D01*
X1288874Y-605611D01*
X1288777Y-605689D01*
X1288660Y-605806D01*
X1288484Y-605943D01*
X1288289Y-606099D01*
X1288055Y-606255D01*
X1287821Y-606391D01*
X1287548Y-606528D01*
X1287509Y-606547D01*
X1287431Y-606567D01*
X1287274Y-606625D01*
X1287079Y-606664D01*
X1286865Y-606723D01*
X1286611Y-606782D01*
X1286319Y-606801D01*
X1286026Y-606820D01*
X1285889D01*
X1285792Y-606801D01*
X1285675D01*
X1285519Y-606782D01*
X1285207Y-606723D01*
X1284836Y-606625D01*
X1284465Y-606508D01*
X1284095Y-606313D01*
X1283763Y-606060D01*
X1283724Y-606021D01*
X1283627Y-605923D01*
X1283510Y-605748D01*
X1283354Y-605513D01*
X1283197Y-605221D01*
X1283080Y-604889D01*
X1282983Y-604499D01*
X1282944Y-604070D01*
Y-604031D01*
Y-603933D01*
X1282963Y-603797D01*
X1282983Y-603602D01*
X1283042Y-603387D01*
X1283100Y-603153D01*
X1283197Y-602919D01*
X1283315Y-602685D01*
X1283334Y-602665D01*
X1283393Y-602587D01*
X1283471Y-602470D01*
X1283588Y-602334D01*
X1283724Y-602178D01*
X1283900Y-602022D01*
X1284114Y-601866D01*
X1284348Y-601729D01*
X1284387Y-601710D01*
X1284485Y-601671D01*
X1284641Y-601612D01*
X1284856Y-601534D01*
X1285129Y-601437D01*
X1285460Y-601339D01*
X1285851Y-601241D01*
X1286299Y-601144D01*
X1286319D01*
X1286377Y-601124D01*
X1286455Y-601105D01*
X1286572Y-601085D01*
X1286728Y-601066D01*
X1286884Y-601027D01*
X1287255Y-600949D01*
X1287645Y-600851D01*
X1288035Y-600754D01*
X1288406Y-600656D01*
X1288562Y-600598D01*
X1288698Y-600539D01*
Y-600305D01*
Y-600266D01*
Y-600188D01*
X1288679Y-600071D01*
X1288660Y-599915D01*
X1288620Y-599739D01*
X1288542Y-599583D01*
X1288465Y-599427D01*
X1288347Y-599291D01*
X1288328Y-599271D01*
X1288269Y-599232D01*
X1288191Y-599193D01*
X1288055Y-599135D01*
X1287879Y-599076D01*
X1287645Y-599018D01*
X1287352Y-598998D01*
X1287021Y-598979D01*
X1286904D01*
X1286787Y-598998D01*
X1286650Y-599018D01*
X1286299Y-599096D01*
X1286143Y-599154D01*
X1285987Y-599252D01*
X1285968Y-599271D01*
X1285928Y-599310D01*
X1285851Y-599369D01*
X1285773Y-599466D01*
X1285675Y-599583D01*
X1285577Y-599739D01*
X1285480Y-599934D01*
X1285402Y-600149D01*
X1283197Y-599739D01*
Y-599720D01*
X1283217Y-599681D01*
X1283237Y-599603D01*
X1283275Y-599525D01*
X1283373Y-599291D01*
X1283490Y-598998D01*
X1283666Y-598666D01*
X1283900Y-598354D01*
X1284173Y-598042D01*
X1284485Y-597769D01*
X1284505D01*
X1284524Y-597750D01*
X1284583Y-597711D01*
X1284660Y-597672D01*
X1284758Y-597613D01*
X1284875Y-597555D01*
X1285012Y-597496D01*
X1285168Y-597438D01*
X1285343Y-597379D01*
X1285558Y-597321D01*
X1285773Y-597262D01*
X1286026Y-597203D01*
X1286280Y-597164D01*
X1286572Y-597125D01*
X1286865Y-597106D01*
X1287470D01*
X1287606Y-597125D01*
D02*
G37*
G36*
X1275102Y-598510D02*
X1275122Y-598491D01*
X1275161Y-598452D01*
X1275219Y-598374D01*
X1275317Y-598296D01*
X1275434Y-598179D01*
X1275551Y-598062D01*
X1275707Y-597945D01*
X1275902Y-597808D01*
X1276311Y-597555D01*
X1276780Y-597321D01*
X1277053Y-597242D01*
X1277326Y-597164D01*
X1277618Y-597125D01*
X1277911Y-597106D01*
X1278048D01*
X1278223Y-597125D01*
X1278418Y-597145D01*
X1278652Y-597184D01*
X1278925Y-597242D01*
X1279179Y-597321D01*
X1279433Y-597438D01*
X1279472Y-597457D01*
X1279550Y-597496D01*
X1279667Y-597555D01*
X1279823Y-597652D01*
X1279979Y-597769D01*
X1280154Y-597906D01*
X1280330Y-598062D01*
X1280466Y-598237D01*
X1280486Y-598257D01*
X1280525Y-598315D01*
X1280583Y-598432D01*
X1280662Y-598549D01*
X1280740Y-598725D01*
X1280818Y-598901D01*
X1280876Y-599115D01*
X1280935Y-599330D01*
Y-599349D01*
X1280954Y-599447D01*
X1280974Y-599583D01*
X1281013Y-599778D01*
X1281032Y-600032D01*
X1281052Y-600344D01*
X1281071Y-600734D01*
Y-601163D01*
Y-606586D01*
X1278613D01*
Y-601690D01*
Y-601671D01*
Y-601632D01*
Y-601553D01*
Y-601456D01*
Y-601202D01*
X1278594Y-600910D01*
X1278574Y-600598D01*
X1278555Y-600305D01*
X1278516Y-600051D01*
X1278477Y-599934D01*
X1278457Y-599856D01*
Y-599837D01*
X1278438Y-599778D01*
X1278399Y-599720D01*
X1278340Y-599622D01*
X1278204Y-599408D01*
X1278087Y-599310D01*
X1277970Y-599213D01*
X1277950Y-599193D01*
X1277911Y-599174D01*
X1277833Y-599135D01*
X1277736Y-599096D01*
X1277599Y-599057D01*
X1277443Y-599018D01*
X1277287Y-598979D01*
X1276994D01*
X1276877Y-598998D01*
X1276721Y-599018D01*
X1276565Y-599057D01*
X1276370Y-599115D01*
X1276194Y-599193D01*
X1275999Y-599291D01*
X1275980Y-599310D01*
X1275921Y-599349D01*
X1275843Y-599408D01*
X1275746Y-599505D01*
X1275629Y-599642D01*
X1275512Y-599798D01*
X1275414Y-599973D01*
X1275317Y-600188D01*
Y-600207D01*
X1275278Y-600305D01*
X1275258Y-600442D01*
X1275219Y-600617D01*
X1275180Y-600871D01*
X1275141Y-601183D01*
X1275122Y-601534D01*
X1275102Y-601944D01*
Y-606586D01*
X1272644D01*
Y-593770D01*
X1275102D01*
Y-598510D01*
D02*
G37*
G36*
X1298121Y-597125D02*
X1298335Y-597164D01*
X1298569Y-597223D01*
X1298862Y-597301D01*
X1299154Y-597418D01*
X1299447Y-597574D01*
X1298686Y-599720D01*
X1298667Y-599700D01*
X1298589Y-599661D01*
X1298452Y-599583D01*
X1298316Y-599505D01*
X1298121Y-599447D01*
X1297925Y-599369D01*
X1297730Y-599330D01*
X1297516Y-599310D01*
X1297438D01*
X1297340Y-599330D01*
X1297223Y-599349D01*
X1297087Y-599388D01*
X1296931Y-599427D01*
X1296774Y-599505D01*
X1296638Y-599603D01*
X1296618Y-599622D01*
X1296579Y-599661D01*
X1296521Y-599739D01*
X1296443Y-599837D01*
X1296345Y-599973D01*
X1296248Y-600168D01*
X1296150Y-600383D01*
X1296072Y-600637D01*
Y-600676D01*
X1296053Y-600715D01*
X1296033Y-600793D01*
Y-600871D01*
X1296014Y-600988D01*
X1295994Y-601144D01*
X1295975Y-601300D01*
X1295955Y-601495D01*
X1295936Y-601710D01*
X1295916Y-601963D01*
Y-602256D01*
X1295897Y-602568D01*
X1295877Y-602919D01*
Y-603309D01*
Y-603738D01*
Y-606586D01*
X1293419D01*
Y-597301D01*
X1295702D01*
Y-598608D01*
X1295721Y-598588D01*
X1295799Y-598471D01*
X1295916Y-598315D01*
X1296053Y-598120D01*
X1296209Y-597906D01*
X1296384Y-597711D01*
X1296579Y-597535D01*
X1296755Y-597398D01*
X1296774Y-597379D01*
X1296833Y-597360D01*
X1296931Y-597301D01*
X1297067Y-597242D01*
X1297223Y-597203D01*
X1297399Y-597145D01*
X1297594Y-597125D01*
X1297808Y-597106D01*
X1297945D01*
X1298121Y-597125D01*
D02*
G37*
G36*
X1339866D02*
X1340081Y-597164D01*
X1340315Y-597223D01*
X1340607Y-597301D01*
X1340900Y-597418D01*
X1341192Y-597574D01*
X1340432Y-599720D01*
X1340412Y-599700D01*
X1340334Y-599661D01*
X1340197Y-599583D01*
X1340061Y-599505D01*
X1339866Y-599447D01*
X1339671Y-599369D01*
X1339476Y-599330D01*
X1339261Y-599310D01*
X1339183D01*
X1339086Y-599330D01*
X1338969Y-599349D01*
X1338832Y-599388D01*
X1338676Y-599427D01*
X1338520Y-599505D01*
X1338383Y-599603D01*
X1338364Y-599622D01*
X1338325Y-599661D01*
X1338266Y-599739D01*
X1338188Y-599837D01*
X1338091Y-599973D01*
X1337993Y-600168D01*
X1337896Y-600383D01*
X1337818Y-600637D01*
Y-600676D01*
X1337798Y-600715D01*
X1337779Y-600793D01*
Y-600871D01*
X1337759Y-600988D01*
X1337740Y-601144D01*
X1337720Y-601300D01*
X1337701Y-601495D01*
X1337681Y-601710D01*
X1337662Y-601963D01*
Y-602256D01*
X1337642Y-602568D01*
X1337623Y-602919D01*
Y-603309D01*
Y-603738D01*
Y-606586D01*
X1335165D01*
Y-597301D01*
X1337447D01*
Y-598608D01*
X1337466Y-598588D01*
X1337545Y-598471D01*
X1337662Y-598315D01*
X1337798Y-598120D01*
X1337954Y-597906D01*
X1338130Y-597711D01*
X1338325Y-597535D01*
X1338500Y-597398D01*
X1338520Y-597379D01*
X1338578Y-597360D01*
X1338676Y-597301D01*
X1338813Y-597242D01*
X1338969Y-597203D01*
X1339144Y-597145D01*
X1339339Y-597125D01*
X1339554Y-597106D01*
X1339690D01*
X1339866Y-597125D01*
D02*
G37*
G36*
X1309005Y-606586D02*
X1306723D01*
Y-605240D01*
X1306704Y-605279D01*
X1306626Y-605377D01*
X1306489Y-605513D01*
X1306333Y-605689D01*
X1306138Y-605865D01*
X1305904Y-606079D01*
X1305650Y-606255D01*
X1305358Y-606430D01*
X1305319Y-606450D01*
X1305221Y-606489D01*
X1305085Y-606547D01*
X1304890Y-606625D01*
X1304655Y-606703D01*
X1304382Y-606762D01*
X1304109Y-606801D01*
X1303817Y-606820D01*
X1303661D01*
X1303544Y-606801D01*
X1303407Y-606782D01*
X1303251Y-606742D01*
X1302880Y-606664D01*
X1302451Y-606508D01*
X1302217Y-606411D01*
X1301983Y-606274D01*
X1301749Y-606138D01*
X1301534Y-605962D01*
X1301300Y-605767D01*
X1301086Y-605533D01*
X1301066Y-605513D01*
X1301047Y-605475D01*
X1300988Y-605396D01*
X1300910Y-605299D01*
X1300832Y-605162D01*
X1300735Y-605006D01*
X1300617Y-604811D01*
X1300520Y-604597D01*
X1300422Y-604363D01*
X1300305Y-604090D01*
X1300208Y-603797D01*
X1300130Y-603465D01*
X1300052Y-603134D01*
X1300013Y-602763D01*
X1299974Y-602353D01*
X1299954Y-601944D01*
Y-601924D01*
Y-601846D01*
Y-601710D01*
X1299974Y-601553D01*
X1299993Y-601358D01*
X1300013Y-601124D01*
X1300052Y-600871D01*
X1300091Y-600617D01*
X1300227Y-600032D01*
X1300422Y-599427D01*
X1300539Y-599135D01*
X1300695Y-598862D01*
X1300851Y-598588D01*
X1301047Y-598354D01*
X1301066Y-598335D01*
X1301105Y-598296D01*
X1301164Y-598237D01*
X1301242Y-598159D01*
X1301359Y-598062D01*
X1301495Y-597964D01*
X1301651Y-597847D01*
X1301807Y-597730D01*
X1302003Y-597613D01*
X1302217Y-597496D01*
X1302705Y-597301D01*
X1302958Y-597223D01*
X1303251Y-597164D01*
X1303544Y-597125D01*
X1303856Y-597106D01*
X1304012D01*
X1304109Y-597125D01*
X1304246Y-597145D01*
X1304402Y-597184D01*
X1304772Y-597262D01*
X1305182Y-597418D01*
X1305416Y-597535D01*
X1305650Y-597652D01*
X1305865Y-597808D01*
X1306099Y-597984D01*
X1306333Y-598179D01*
X1306548Y-598413D01*
Y-593770D01*
X1309005D01*
Y-606586D01*
D02*
G37*
G36*
X1229514Y-597125D02*
X1229689Y-597145D01*
X1229904Y-597184D01*
X1230118Y-597223D01*
X1230372Y-597281D01*
X1230645Y-597360D01*
X1230918Y-597438D01*
X1231211Y-597555D01*
X1231484Y-597691D01*
X1231777Y-597847D01*
X1232069Y-598042D01*
X1232342Y-598237D01*
X1232596Y-598491D01*
X1232615Y-598510D01*
X1232654Y-598549D01*
X1232713Y-598628D01*
X1232810Y-598745D01*
X1232908Y-598862D01*
X1233025Y-599037D01*
X1233142Y-599213D01*
X1233279Y-599427D01*
X1233396Y-599681D01*
X1233513Y-599934D01*
X1233630Y-600227D01*
X1233727Y-600520D01*
X1233825Y-600851D01*
X1233883Y-601202D01*
X1233922Y-601553D01*
X1233942Y-601944D01*
Y-601963D01*
Y-602041D01*
Y-602139D01*
X1233922Y-602295D01*
X1233903Y-602470D01*
X1233864Y-602685D01*
X1233825Y-602919D01*
X1233766Y-603173D01*
X1233708Y-603446D01*
X1233610Y-603719D01*
X1233493Y-604011D01*
X1233376Y-604304D01*
X1233201Y-604597D01*
X1233025Y-604889D01*
X1232810Y-605162D01*
X1232576Y-605435D01*
X1232557Y-605455D01*
X1232518Y-605494D01*
X1232440Y-605572D01*
X1232342Y-605650D01*
X1232206Y-605748D01*
X1232050Y-605865D01*
X1231855Y-606001D01*
X1231640Y-606118D01*
X1231406Y-606255D01*
X1231152Y-606391D01*
X1230879Y-606508D01*
X1230567Y-606606D01*
X1230255Y-606684D01*
X1229904Y-606762D01*
X1229533Y-606801D01*
X1229163Y-606820D01*
X1228948D01*
X1228831Y-606801D01*
X1228694Y-606782D01*
X1228382Y-606742D01*
X1228012Y-606684D01*
X1227602Y-606586D01*
X1227173Y-606450D01*
X1226744Y-606255D01*
X1226724D01*
X1226685Y-606235D01*
X1226627Y-606196D01*
X1226549Y-606138D01*
X1226354Y-606001D01*
X1226100Y-605826D01*
X1225807Y-605592D01*
X1225515Y-605299D01*
X1225242Y-604948D01*
X1224988Y-604558D01*
Y-604538D01*
X1224968Y-604499D01*
X1224930Y-604441D01*
X1224891Y-604363D01*
X1224852Y-604245D01*
X1224812Y-604128D01*
X1224754Y-603972D01*
X1224695Y-603797D01*
X1224598Y-603407D01*
X1224500Y-602938D01*
X1224422Y-602412D01*
X1224403Y-601846D01*
Y-601827D01*
Y-601788D01*
Y-601729D01*
X1224422Y-601632D01*
Y-601534D01*
X1224442Y-601398D01*
X1224481Y-601085D01*
X1224539Y-600715D01*
X1224656Y-600325D01*
X1224793Y-599895D01*
X1224988Y-599466D01*
Y-599447D01*
X1225007Y-599408D01*
X1225046Y-599349D01*
X1225105Y-599271D01*
X1225242Y-599076D01*
X1225437Y-598823D01*
X1225671Y-598530D01*
X1225963Y-598237D01*
X1226295Y-597964D01*
X1226685Y-597711D01*
X1226705D01*
X1226744Y-597691D01*
X1226802Y-597652D01*
X1226880Y-597613D01*
X1226978Y-597574D01*
X1227114Y-597515D01*
X1227407Y-597398D01*
X1227778Y-597301D01*
X1228207Y-597203D01*
X1228655Y-597125D01*
X1229163Y-597106D01*
X1229358D01*
X1229514Y-597125D01*
D02*
G37*
G36*
X1241257D02*
X1241394Y-597145D01*
X1241550Y-597164D01*
X1241940Y-597262D01*
X1242369Y-597418D01*
X1242603Y-597515D01*
X1242837Y-597652D01*
X1243052Y-597789D01*
X1243286Y-597964D01*
X1243520Y-598159D01*
X1243734Y-598393D01*
X1243754Y-598413D01*
X1243793Y-598452D01*
X1243832Y-598530D01*
X1243910Y-598628D01*
X1243988Y-598764D01*
X1244086Y-598920D01*
X1244203Y-599096D01*
X1244300Y-599310D01*
X1244398Y-599544D01*
X1244515Y-599817D01*
X1244612Y-600110D01*
X1244690Y-600422D01*
X1244768Y-600754D01*
X1244827Y-601124D01*
X1244846Y-601515D01*
X1244866Y-601924D01*
Y-601944D01*
Y-602022D01*
Y-602139D01*
X1244846Y-602314D01*
X1244827Y-602509D01*
X1244807Y-602724D01*
X1244768Y-602978D01*
X1244729Y-603251D01*
X1244593Y-603816D01*
X1244495Y-604128D01*
X1244378Y-604421D01*
X1244242Y-604714D01*
X1244105Y-605006D01*
X1243910Y-605279D01*
X1243715Y-605533D01*
X1243695Y-605552D01*
X1243656Y-605592D01*
X1243598Y-605650D01*
X1243520Y-605728D01*
X1243403Y-605826D01*
X1243266Y-605943D01*
X1243110Y-606060D01*
X1242954Y-606177D01*
X1242544Y-606411D01*
X1242076Y-606625D01*
X1241823Y-606703D01*
X1241550Y-606762D01*
X1241257Y-606801D01*
X1240964Y-606820D01*
X1240828D01*
X1240691Y-606801D01*
X1240516Y-606782D01*
X1240301Y-606742D01*
X1240067Y-606703D01*
X1239814Y-606625D01*
X1239579Y-606528D01*
X1239560Y-606508D01*
X1239462Y-606469D01*
X1239345Y-606391D01*
X1239189Y-606274D01*
X1238994Y-606138D01*
X1238760Y-605943D01*
X1238526Y-605728D01*
X1238272Y-605475D01*
Y-610137D01*
X1235815D01*
Y-597301D01*
X1238097D01*
Y-598666D01*
X1238116Y-598628D01*
X1238175Y-598549D01*
X1238272Y-598432D01*
X1238409Y-598276D01*
X1238585Y-598101D01*
X1238780Y-597906D01*
X1239014Y-597730D01*
X1239287Y-597555D01*
X1239326Y-597535D01*
X1239423Y-597477D01*
X1239579Y-597418D01*
X1239794Y-597321D01*
X1240028Y-597242D01*
X1240321Y-597184D01*
X1240652Y-597125D01*
X1240984Y-597106D01*
X1241140D01*
X1241257Y-597125D01*
D02*
G37*
G36*
X1262344D02*
X1262539Y-597145D01*
X1262774Y-597184D01*
X1263027Y-597223D01*
X1263281Y-597301D01*
X1263534Y-597398D01*
X1263573Y-597418D01*
X1263651Y-597457D01*
X1263768Y-597515D01*
X1263905Y-597594D01*
X1264081Y-597711D01*
X1264237Y-597847D01*
X1264412Y-597984D01*
X1264549Y-598159D01*
X1264568Y-598179D01*
X1264607Y-598237D01*
X1264666Y-598335D01*
X1264744Y-598452D01*
X1264822Y-598608D01*
X1264900Y-598783D01*
X1264978Y-598979D01*
X1265036Y-599193D01*
Y-599213D01*
X1265056Y-599291D01*
X1265075Y-599427D01*
X1265114Y-599603D01*
X1265134Y-599837D01*
X1265153Y-600130D01*
X1265173Y-600461D01*
Y-600832D01*
Y-606586D01*
X1262715D01*
Y-601866D01*
Y-601846D01*
Y-601807D01*
Y-601729D01*
Y-601632D01*
Y-601495D01*
Y-601358D01*
X1262695Y-601066D01*
X1262676Y-600734D01*
X1262637Y-600422D01*
X1262598Y-600149D01*
X1262578Y-600032D01*
X1262539Y-599934D01*
Y-599915D01*
X1262520Y-599856D01*
X1262481Y-599778D01*
X1262422Y-599681D01*
X1262266Y-599447D01*
X1262032Y-599232D01*
X1262013Y-599213D01*
X1261974Y-599193D01*
X1261896Y-599154D01*
X1261798Y-599096D01*
X1261681Y-599057D01*
X1261525Y-599018D01*
X1261369Y-598998D01*
X1261193Y-598979D01*
X1261076D01*
X1260959Y-598998D01*
X1260803Y-599018D01*
X1260628Y-599057D01*
X1260433Y-599135D01*
X1260238Y-599213D01*
X1260042Y-599330D01*
X1260023Y-599349D01*
X1259964Y-599388D01*
X1259886Y-599466D01*
X1259769Y-599583D01*
X1259672Y-599720D01*
X1259555Y-599876D01*
X1259438Y-600051D01*
X1259360Y-600266D01*
Y-600286D01*
X1259340Y-600383D01*
X1259301Y-600520D01*
X1259282Y-600734D01*
X1259262Y-600871D01*
X1259243Y-601027D01*
X1259223Y-601202D01*
X1259204Y-601398D01*
Y-601612D01*
X1259184Y-601846D01*
Y-602119D01*
Y-602392D01*
Y-606586D01*
X1256726D01*
Y-597301D01*
X1259009D01*
Y-598666D01*
X1259028Y-598647D01*
X1259067Y-598608D01*
X1259126Y-598530D01*
X1259223Y-598413D01*
X1259340Y-598296D01*
X1259496Y-598179D01*
X1259652Y-598023D01*
X1259847Y-597886D01*
X1260062Y-597750D01*
X1260276Y-597594D01*
X1260530Y-597477D01*
X1260803Y-597340D01*
X1261096Y-597242D01*
X1261388Y-597164D01*
X1261720Y-597125D01*
X1262052Y-597106D01*
X1262188D01*
X1262344Y-597125D01*
D02*
G37*
%LPC*%
G36*
X1345913Y-598979D02*
X1345777D01*
X1345640Y-599018D01*
X1345445Y-599057D01*
X1345230Y-599135D01*
X1345016Y-599232D01*
X1344801Y-599388D01*
X1344587Y-599583D01*
X1344567Y-599603D01*
X1344509Y-599681D01*
X1344431Y-599817D01*
X1344333Y-599993D01*
X1344236Y-600227D01*
X1344158Y-600500D01*
X1344099Y-600812D01*
X1344079Y-601163D01*
X1347747D01*
Y-601144D01*
Y-601124D01*
Y-601066D01*
X1347727Y-600988D01*
X1347708Y-600793D01*
X1347669Y-600559D01*
X1347591Y-600305D01*
X1347493Y-600032D01*
X1347357Y-599778D01*
X1347181Y-599544D01*
X1347162Y-599525D01*
X1347084Y-599447D01*
X1346986Y-599369D01*
X1346830Y-599252D01*
X1346654Y-599154D01*
X1346440Y-599057D01*
X1346186Y-598998D01*
X1345913Y-598979D01*
D02*
G37*
G36*
X1250484D02*
X1250347D01*
X1250211Y-599018D01*
X1250016Y-599057D01*
X1249801Y-599135D01*
X1249587Y-599232D01*
X1249372Y-599388D01*
X1249157Y-599583D01*
X1249138Y-599603D01*
X1249079Y-599681D01*
X1249001Y-599817D01*
X1248904Y-599993D01*
X1248806Y-600227D01*
X1248728Y-600500D01*
X1248670Y-600812D01*
X1248650Y-601163D01*
X1252318D01*
Y-601144D01*
Y-601124D01*
Y-601066D01*
X1252298Y-600988D01*
X1252279Y-600793D01*
X1252240Y-600559D01*
X1252162Y-600305D01*
X1252064Y-600032D01*
X1251927Y-599778D01*
X1251752Y-599544D01*
X1251732Y-599525D01*
X1251654Y-599447D01*
X1251557Y-599369D01*
X1251401Y-599252D01*
X1251225Y-599154D01*
X1251011Y-599057D01*
X1250757Y-598998D01*
X1250484Y-598979D01*
D02*
G37*
G36*
X1330444Y-602139D02*
X1330424D01*
X1330346Y-602178D01*
X1330229Y-602197D01*
X1330073Y-602256D01*
X1329859Y-602314D01*
X1329605Y-602373D01*
X1329293Y-602451D01*
X1328942Y-602529D01*
X1328903D01*
X1328786Y-602568D01*
X1328610Y-602607D01*
X1328396Y-602665D01*
X1328181Y-602724D01*
X1327947Y-602802D01*
X1327771Y-602880D01*
X1327615Y-602958D01*
X1327596Y-602978D01*
X1327537Y-603017D01*
X1327459Y-603095D01*
X1327381Y-603192D01*
X1327303Y-603309D01*
X1327225Y-603465D01*
X1327167Y-603621D01*
X1327147Y-603816D01*
Y-603836D01*
Y-603894D01*
X1327167Y-604011D01*
X1327186Y-604128D01*
X1327245Y-604265D01*
X1327303Y-604421D01*
X1327401Y-604577D01*
X1327518Y-604714D01*
X1327537Y-604733D01*
X1327596Y-604772D01*
X1327674Y-604831D01*
X1327791Y-604889D01*
X1327928Y-604967D01*
X1328103Y-605026D01*
X1328279Y-605065D01*
X1328493Y-605084D01*
X1328610D01*
X1328727Y-605065D01*
X1328903Y-605026D01*
X1329098Y-604987D01*
X1329312Y-604909D01*
X1329527Y-604792D01*
X1329761Y-604655D01*
X1329781Y-604636D01*
X1329839Y-604597D01*
X1329898Y-604519D01*
X1329995Y-604421D01*
X1330093Y-604304D01*
X1330190Y-604168D01*
X1330268Y-604011D01*
X1330346Y-603836D01*
Y-603816D01*
X1330366Y-603777D01*
X1330385Y-603699D01*
X1330405Y-603563D01*
Y-603407D01*
X1330424Y-603192D01*
X1330444Y-602958D01*
Y-602646D01*
Y-602139D01*
D02*
G37*
G36*
X1288698D02*
X1288679D01*
X1288601Y-602178D01*
X1288484Y-602197D01*
X1288328Y-602256D01*
X1288113Y-602314D01*
X1287860Y-602373D01*
X1287548Y-602451D01*
X1287197Y-602529D01*
X1287157D01*
X1287040Y-602568D01*
X1286865Y-602607D01*
X1286650Y-602665D01*
X1286436Y-602724D01*
X1286202Y-602802D01*
X1286026Y-602880D01*
X1285870Y-602958D01*
X1285851Y-602978D01*
X1285792Y-603017D01*
X1285714Y-603095D01*
X1285636Y-603192D01*
X1285558Y-603309D01*
X1285480Y-603465D01*
X1285421Y-603621D01*
X1285402Y-603816D01*
Y-603836D01*
Y-603894D01*
X1285421Y-604011D01*
X1285441Y-604128D01*
X1285499Y-604265D01*
X1285558Y-604421D01*
X1285655Y-604577D01*
X1285773Y-604714D01*
X1285792Y-604733D01*
X1285851Y-604772D01*
X1285928Y-604831D01*
X1286046Y-604889D01*
X1286182Y-604967D01*
X1286358Y-605026D01*
X1286533Y-605065D01*
X1286748Y-605084D01*
X1286865D01*
X1286982Y-605065D01*
X1287157Y-605026D01*
X1287352Y-604987D01*
X1287567Y-604909D01*
X1287782Y-604792D01*
X1288016Y-604655D01*
X1288035Y-604636D01*
X1288094Y-604597D01*
X1288152Y-604519D01*
X1288250Y-604421D01*
X1288347Y-604304D01*
X1288445Y-604168D01*
X1288523Y-604011D01*
X1288601Y-603836D01*
Y-603816D01*
X1288620Y-603777D01*
X1288640Y-603699D01*
X1288660Y-603563D01*
Y-603407D01*
X1288679Y-603192D01*
X1288698Y-602958D01*
Y-602646D01*
Y-602139D01*
D02*
G37*
G36*
X1304499Y-598979D02*
X1304460D01*
X1304363Y-598998D01*
X1304207Y-599018D01*
X1303992Y-599057D01*
X1303778Y-599154D01*
X1303524Y-599271D01*
X1303290Y-599447D01*
X1303056Y-599681D01*
X1303036Y-599720D01*
X1302958Y-599817D01*
X1302880Y-599973D01*
X1302763Y-600207D01*
X1302666Y-600500D01*
X1302568Y-600851D01*
X1302490Y-601280D01*
X1302471Y-601768D01*
Y-601788D01*
Y-601827D01*
Y-601905D01*
Y-602022D01*
X1302490Y-602139D01*
Y-602275D01*
X1302529Y-602607D01*
X1302568Y-602958D01*
X1302627Y-603309D01*
X1302724Y-603641D01*
X1302802Y-603797D01*
X1302861Y-603933D01*
Y-603953D01*
X1302880Y-603972D01*
X1302978Y-604090D01*
X1303114Y-604226D01*
X1303290Y-604402D01*
X1303524Y-604577D01*
X1303817Y-604733D01*
X1304148Y-604850D01*
X1304324Y-604870D01*
X1304519Y-604889D01*
X1304558D01*
X1304655Y-604870D01*
X1304812Y-604850D01*
X1305007Y-604792D01*
X1305241Y-604714D01*
X1305475Y-604577D01*
X1305709Y-604402D01*
X1305943Y-604168D01*
X1305962Y-604128D01*
X1306040Y-604031D01*
X1306138Y-603855D01*
X1306255Y-603621D01*
X1306353Y-603329D01*
X1306450Y-602958D01*
X1306528Y-602509D01*
X1306548Y-602002D01*
Y-601983D01*
Y-601924D01*
Y-601846D01*
Y-601749D01*
X1306528Y-601612D01*
X1306509Y-601456D01*
X1306470Y-601105D01*
X1306411Y-600734D01*
X1306294Y-600364D01*
X1306158Y-599993D01*
X1306060Y-599837D01*
X1305962Y-599700D01*
X1305943Y-599661D01*
X1305865Y-599583D01*
X1305728Y-599466D01*
X1305572Y-599330D01*
X1305358Y-599213D01*
X1305104Y-599096D01*
X1304812Y-599018D01*
X1304499Y-598979D01*
D02*
G37*
G36*
X1229163Y-599115D02*
X1229124D01*
X1229007Y-599135D01*
X1228831Y-599154D01*
X1228597Y-599213D01*
X1228343Y-599291D01*
X1228090Y-599427D01*
X1227817Y-599603D01*
X1227563Y-599856D01*
X1227543Y-599895D01*
X1227465Y-599993D01*
X1227368Y-600168D01*
X1227251Y-600403D01*
X1227114Y-600695D01*
X1227017Y-601066D01*
X1226939Y-601475D01*
X1226919Y-601963D01*
Y-601983D01*
Y-602022D01*
Y-602100D01*
X1226939Y-602197D01*
Y-602314D01*
X1226958Y-602431D01*
X1226997Y-602743D01*
X1227075Y-603095D01*
X1227192Y-603446D01*
X1227348Y-603777D01*
X1227563Y-604090D01*
X1227602Y-604128D01*
X1227680Y-604207D01*
X1227817Y-604324D01*
X1228012Y-604441D01*
X1228246Y-604577D01*
X1228519Y-604694D01*
X1228811Y-604772D01*
X1229163Y-604811D01*
X1229202D01*
X1229319Y-604792D01*
X1229494Y-604772D01*
X1229728Y-604714D01*
X1229982Y-604636D01*
X1230236Y-604499D01*
X1230509Y-604324D01*
X1230762Y-604090D01*
X1230782Y-604050D01*
X1230860Y-603953D01*
X1230977Y-603777D01*
X1231094Y-603543D01*
X1231211Y-603251D01*
X1231328Y-602880D01*
X1231406Y-602451D01*
X1231425Y-601963D01*
Y-601944D01*
Y-601905D01*
Y-601827D01*
Y-601729D01*
X1231406Y-601632D01*
X1231386Y-601495D01*
X1231347Y-601183D01*
X1231269Y-600851D01*
X1231152Y-600500D01*
X1230977Y-600168D01*
X1230762Y-599856D01*
X1230743Y-599817D01*
X1230645Y-599739D01*
X1230509Y-599622D01*
X1230313Y-599486D01*
X1230099Y-599349D01*
X1229826Y-599232D01*
X1229514Y-599154D01*
X1229163Y-599115D01*
D02*
G37*
G36*
X1240301Y-599037D02*
X1240262D01*
X1240145Y-599057D01*
X1239989Y-599076D01*
X1239774Y-599115D01*
X1239540Y-599213D01*
X1239306Y-599330D01*
X1239053Y-599505D01*
X1238819Y-599739D01*
X1238799Y-599778D01*
X1238721Y-599876D01*
X1238643Y-600032D01*
X1238526Y-600266D01*
X1238428Y-600559D01*
X1238331Y-600910D01*
X1238253Y-601319D01*
X1238233Y-601807D01*
Y-601827D01*
Y-601885D01*
Y-601963D01*
X1238253Y-602061D01*
Y-602197D01*
X1238272Y-602353D01*
X1238311Y-602685D01*
X1238390Y-603075D01*
X1238487Y-603446D01*
X1238643Y-603816D01*
X1238741Y-603972D01*
X1238838Y-604128D01*
X1238858Y-604168D01*
X1238955Y-604245D01*
X1239092Y-604363D01*
X1239267Y-604499D01*
X1239482Y-604636D01*
X1239735Y-604753D01*
X1240028Y-604831D01*
X1240360Y-604870D01*
X1240399D01*
X1240496Y-604850D01*
X1240652Y-604831D01*
X1240847Y-604792D01*
X1241081Y-604694D01*
X1241316Y-604577D01*
X1241550Y-604421D01*
X1241764Y-604187D01*
X1241784Y-604148D01*
X1241862Y-604050D01*
X1241959Y-603894D01*
X1242057Y-603641D01*
X1242174Y-603329D01*
X1242213Y-603153D01*
X1242252Y-602938D01*
X1242291Y-602724D01*
X1242330Y-602470D01*
X1242349Y-602217D01*
Y-601924D01*
Y-601905D01*
Y-601866D01*
Y-601788D01*
Y-601690D01*
X1242330Y-601553D01*
X1242310Y-601417D01*
X1242271Y-601105D01*
X1242213Y-600754D01*
X1242096Y-600383D01*
X1241959Y-600051D01*
X1241764Y-599759D01*
X1241745Y-599720D01*
X1241667Y-599642D01*
X1241530Y-599525D01*
X1241355Y-599388D01*
X1241160Y-599271D01*
X1240906Y-599154D01*
X1240613Y-599076D01*
X1240301Y-599037D01*
D02*
G37*
%LPD*%
D51*
X1148080Y-600710D02*
G03*
X1148080Y-600710I-1270J0D01*
G01*
X807720Y-632460D02*
G03*
X807720Y-632460I-1270J0D01*
G01*
X1292403Y-573176D02*
G03*
X1282954Y-572770I-4362J8635D01*
G01*
X416560Y-818695D02*
G03*
X416560Y-825045I0J-3175D01*
G01*
X1278890Y-585470D02*
X1282954Y-572770D01*
X1275080Y-584200D02*
X1278890Y-585470D01*
X1268730Y-587908D02*
X1275080Y-584200D01*
X1263650Y-582930D02*
X1268730Y-587908D01*
X1263650Y-582930D02*
X1268730Y-576580D01*
X1264920Y-568960D02*
X1268730Y-576580D01*
X1257300Y-567690D02*
X1264920Y-568960D01*
X1257300Y-567690D02*
Y-561340D01*
X1266190Y-558800D01*
X1268425Y-552399D01*
X1264285Y-545592D02*
X1268425Y-552399D01*
X1264285Y-545592D02*
X1269213Y-540664D01*
X1276198Y-545135D01*
X1282700Y-542493D01*
X1283970Y-534721D01*
X1291590Y-534670D01*
X1292860Y-542341D01*
X1299210Y-544830D01*
X1306779Y-539699D01*
X1311910Y-544830D01*
X1306830Y-551180D02*
X1311910Y-544830D01*
X1306830Y-551180D02*
X1309370Y-558800D01*
X1318260Y-561340D01*
Y-567690D02*
Y-561340D01*
X1310640Y-568960D02*
X1318260Y-567690D01*
X1307338Y-576732D02*
X1310640Y-568960D01*
X1307338Y-576732D02*
X1311250Y-582879D01*
X1306830Y-588010D02*
X1311250Y-582879D01*
X1299845Y-583590D02*
X1306830Y-588010D01*
X1296670Y-585470D02*
X1299845Y-583590D01*
X1292403Y-573176D02*
X1296670Y-585470D01*
X-50Y-773420D02*
X211950D01*
X-50Y-615920D02*
X211950D01*
X-50Y-773420D02*
Y-615920D01*
X211950Y-773420D02*
Y-615920D01*
X314960Y-816610D02*
X416560D01*
X314960Y-827130D02*
Y-816610D01*
Y-827130D02*
X416560D01*
Y-825045D01*
Y-818695D02*
Y-816610D01*
X1199194Y-517053D02*
X1192530D01*
Y-522052D01*
X1195862D01*
X1192530D01*
Y-527050D01*
X1204193D02*
X1207525D01*
X1209191Y-525384D01*
Y-522052D01*
X1207525Y-520386D01*
X1204193D01*
X1202527Y-522052D01*
Y-525384D01*
X1204193Y-527050D01*
X1212524Y-520386D02*
Y-527050D01*
Y-523718D01*
X1214190Y-522052D01*
X1215856Y-520386D01*
X1217522D01*
X1232517Y-517053D02*
Y-527050D01*
Y-522052D01*
X1239182D01*
Y-517053D01*
Y-527050D01*
X1244180Y-520386D02*
X1247512D01*
X1249178Y-522052D01*
Y-527050D01*
X1244180D01*
X1242514Y-525384D01*
X1244180Y-523718D01*
X1249178D01*
X1259175Y-520386D02*
X1254177D01*
X1252511Y-522052D01*
Y-525384D01*
X1254177Y-527050D01*
X1259175D01*
X1262507D02*
Y-517053D01*
Y-523718D02*
X1267506Y-520386D01*
X1262507Y-523718D02*
X1267506Y-527050D01*
X1277503D02*
X1274170D01*
X1272504Y-525384D01*
Y-522052D01*
X1274170Y-520386D01*
X1277503D01*
X1279169Y-522052D01*
Y-523718D01*
X1272504D01*
X1282501Y-520386D02*
Y-527050D01*
Y-523718D01*
X1284167Y-522052D01*
X1285833Y-520386D01*
X1287499D01*
X1292498Y-527050D02*
X1297496D01*
X1299162Y-525384D01*
X1297496Y-523718D01*
X1294164D01*
X1292498Y-522052D01*
X1294164Y-520386D01*
X1299162D01*
X1302495Y-530382D02*
Y-520386D01*
X1307493D01*
X1309159Y-522052D01*
Y-525384D01*
X1307493Y-527050D01*
X1302495D01*
X1314158Y-520386D02*
X1317490D01*
X1319156Y-522052D01*
Y-527050D01*
X1314158D01*
X1312491Y-525384D01*
X1314158Y-523718D01*
X1319156D01*
X1329153Y-520386D02*
X1324154D01*
X1322488Y-522052D01*
Y-525384D01*
X1324154Y-527050D01*
X1329153D01*
X1337483D02*
X1334151D01*
X1332485Y-525384D01*
Y-522052D01*
X1334151Y-520386D01*
X1337483D01*
X1339149Y-522052D01*
Y-523718D01*
X1332485D01*
X1352478Y-517053D02*
Y-527050D01*
X1357477D01*
X1359143Y-525384D01*
Y-523718D01*
X1357477Y-522052D01*
X1352478D01*
X1357477D01*
X1359143Y-520386D01*
Y-518719D01*
X1357477Y-517053D01*
X1352478D01*
X1362475Y-520386D02*
Y-527050D01*
Y-523718D01*
X1364141Y-522052D01*
X1365807Y-520386D01*
X1367474D01*
X1372472Y-527050D02*
X1375804D01*
X1374138D01*
Y-520386D01*
X1372472D01*
X1380803Y-527050D02*
X1385801D01*
X1387467Y-525384D01*
X1385801Y-523718D01*
X1382469D01*
X1380803Y-522052D01*
X1382469Y-520386D01*
X1387467D01*
X1390800Y-517053D02*
Y-527050D01*
X1395798D01*
X1397464Y-525384D01*
Y-523718D01*
Y-522052D01*
X1395798Y-520386D01*
X1390800D01*
X1402462D02*
X1405795D01*
X1407461Y-522052D01*
Y-527050D01*
X1402462D01*
X1400796Y-525384D01*
X1402462Y-523718D01*
X1407461D01*
X1410793Y-527050D02*
Y-520386D01*
X1415791D01*
X1417457Y-522052D01*
Y-527050D01*
X1425788D02*
X1422456D01*
X1420790Y-525384D01*
Y-522052D01*
X1422456Y-520386D01*
X1425788D01*
X1427454Y-522052D01*
Y-523718D01*
X1420790D01*
X1440783Y-517053D02*
Y-523718D01*
X1444116Y-527050D01*
X1447448Y-523718D01*
Y-517053D01*
X1450780Y-527050D02*
X1454112D01*
X1452446D01*
Y-517053D01*
X1450780Y-518719D01*
X1459111Y-527050D02*
Y-525384D01*
X1460777D01*
Y-527050D01*
X1459111D01*
X1467441D02*
X1470774D01*
X1469108D01*
Y-517053D01*
X1467441Y-518719D01*
X1221740Y-495463D02*
Y-505460D01*
X1226738D01*
X1228404Y-503794D01*
Y-497129D01*
X1226738Y-495463D01*
X1221740D01*
X1236735Y-505460D02*
X1233403D01*
X1231737Y-503794D01*
Y-500462D01*
X1233403Y-498796D01*
X1236735D01*
X1238401Y-500462D01*
Y-502128D01*
X1231737D01*
X1241734Y-505460D02*
X1246732D01*
X1248398Y-503794D01*
X1246732Y-502128D01*
X1243400D01*
X1241734Y-500462D01*
X1243400Y-498796D01*
X1248398D01*
X1251730Y-505460D02*
X1255063D01*
X1253397D01*
Y-498796D01*
X1251730D01*
X1263393Y-508792D02*
X1265059D01*
X1266725Y-507126D01*
Y-498796D01*
X1261727D01*
X1260061Y-500462D01*
Y-503794D01*
X1261727Y-505460D01*
X1266725D01*
X1270058D02*
Y-498796D01*
X1275056D01*
X1276722Y-500462D01*
Y-505460D01*
X1285053D02*
X1281721D01*
X1280054Y-503794D01*
Y-500462D01*
X1281721Y-498796D01*
X1285053D01*
X1286719Y-500462D01*
Y-502128D01*
X1280054D01*
X1296716Y-495463D02*
Y-505460D01*
X1291718D01*
X1290051Y-503794D01*
Y-500462D01*
X1291718Y-498796D01*
X1296716D01*
X1310045Y-495463D02*
Y-505460D01*
X1315043D01*
X1316709Y-503794D01*
Y-502128D01*
X1315043Y-500462D01*
X1310045D01*
X1315043D01*
X1316709Y-498796D01*
Y-497129D01*
X1315043Y-495463D01*
X1310045D01*
X1320042Y-498796D02*
Y-503794D01*
X1321708Y-505460D01*
X1326706D01*
Y-507126D01*
X1325040Y-508792D01*
X1323374D01*
X1326706Y-505460D02*
Y-498796D01*
X1340035Y-495463D02*
Y-505460D01*
X1346700D01*
X1350032Y-498796D02*
Y-503794D01*
X1351698Y-505460D01*
X1356696D01*
Y-498796D01*
X1360029Y-505460D02*
Y-495463D01*
Y-502128D02*
X1365027Y-498796D01*
X1360029Y-502128D02*
X1365027Y-505460D01*
X1375024D02*
X1371692D01*
X1370026Y-503794D01*
Y-500462D01*
X1371692Y-498796D01*
X1375024D01*
X1376690Y-500462D01*
Y-502128D01*
X1370026D01*
X1390019Y-495463D02*
Y-505460D01*
Y-500462D01*
X1396684D01*
Y-495463D01*
Y-505460D01*
X1401682D02*
X1405014D01*
X1406680Y-503794D01*
Y-500462D01*
X1405014Y-498796D01*
X1401682D01*
X1400016Y-500462D01*
Y-503794D01*
X1401682Y-505460D01*
X1410013Y-498796D02*
X1413345Y-505460D01*
X1416677Y-498796D01*
X1420009Y-505460D02*
X1423342D01*
X1421676D01*
Y-498796D01*
X1420009D01*
X1428340Y-505460D02*
Y-498796D01*
X1433338D01*
X1435005Y-500462D01*
Y-505460D01*
X1441669Y-508792D02*
X1443335D01*
X1445001Y-507126D01*
Y-498796D01*
X1440003D01*
X1438337Y-500462D01*
Y-503794D01*
X1440003Y-505460D01*
X1445001D01*
X1450000Y-497129D02*
Y-498796D01*
X1448334D01*
X1451666D01*
X1450000D01*
Y-503794D01*
X1451666Y-505460D01*
X1458330D02*
X1461663D01*
X1463329Y-503794D01*
Y-500462D01*
X1461663Y-498796D01*
X1458330D01*
X1456664Y-500462D01*
Y-503794D01*
X1458330Y-505460D01*
X1466661D02*
Y-498796D01*
X1471660D01*
X1473326Y-500462D01*
Y-505460D01*
D52*
X133350Y-47643D02*
Y-87630D01*
Y-67636D01*
X160008D01*
Y-47643D01*
Y-87630D01*
X199995Y-54307D02*
X193331Y-47643D01*
X180002D01*
X173337Y-54307D01*
Y-60972D01*
X180002Y-67636D01*
X193331D01*
X199995Y-74301D01*
Y-80965D01*
X193331Y-87630D01*
X180002D01*
X173337Y-80965D01*
X213324Y-47643D02*
Y-87630D01*
X233318D01*
X239982Y-80965D01*
Y-74301D01*
X233318Y-67636D01*
X213324D01*
X233318D01*
X239982Y-60972D01*
Y-54307D01*
X233318Y-47643D01*
X213324D01*
X253311Y-87630D02*
Y-47643D01*
X279969Y-87630D01*
Y-47643D01*
X319956D02*
X293298D01*
Y-87630D01*
X319956D01*
X293298Y-67636D02*
X306627D01*
X373272D02*
X399930D01*
X453246Y-47643D02*
Y-74301D01*
X466576Y-87630D01*
X479905Y-74301D01*
Y-47643D01*
X519892D02*
X493234D01*
Y-87630D01*
X519892D01*
X493234Y-67636D02*
X506563D01*
X533221Y-87630D02*
Y-47643D01*
X559879Y-87630D01*
Y-47643D01*
X573208D02*
Y-87630D01*
X593201D01*
X599866Y-80965D01*
Y-54307D01*
X593201Y-47643D01*
X573208D01*
X653182Y-67636D02*
X679840D01*
X733156Y-87630D02*
Y-47643D01*
X746485Y-60972D01*
X759814Y-47643D01*
Y-87630D01*
X793137Y-47643D02*
X779808D01*
X773143Y-54307D01*
Y-80965D01*
X779808Y-87630D01*
X793137D01*
X799801Y-80965D01*
Y-54307D01*
X793137Y-47643D01*
X813130D02*
X839788D01*
X826459D01*
Y-87630D01*
X873111Y-47643D02*
X859782D01*
X853117Y-54307D01*
Y-80965D01*
X859782Y-87630D01*
X873111D01*
X879775Y-80965D01*
Y-54307D01*
X873111Y-47643D01*
X893104Y-87630D02*
Y-47643D01*
X913098D01*
X919762Y-54307D01*
Y-67636D01*
X913098Y-74301D01*
X893104D01*
X906433D02*
X919762Y-87630D01*
X999736Y-54307D02*
X993072Y-47643D01*
X979743D01*
X973078Y-54307D01*
Y-80965D01*
X979743Y-87630D01*
X993072D01*
X999736Y-80965D01*
X1033059Y-47643D02*
X1019730D01*
X1013065Y-54307D01*
Y-80965D01*
X1019730Y-87630D01*
X1033059D01*
X1039724Y-80965D01*
Y-54307D01*
X1033059Y-47643D01*
X1053053Y-87630D02*
Y-47643D01*
X1079711Y-87630D01*
Y-47643D01*
X1093040D02*
X1119698D01*
X1106369D01*
Y-87630D01*
X1133027D02*
Y-47643D01*
X1153020D01*
X1159685Y-54307D01*
Y-67636D01*
X1153020Y-74301D01*
X1133027D01*
X1146356D02*
X1159685Y-87630D01*
X1193007Y-47643D02*
X1179678D01*
X1173014Y-54307D01*
Y-80965D01*
X1179678Y-87630D01*
X1193007D01*
X1199672Y-80965D01*
Y-54307D01*
X1193007Y-47643D01*
X1213001D02*
Y-87630D01*
X1239659D01*
X1252988Y-47643D02*
Y-87630D01*
X1279646D01*
X1319633Y-47643D02*
X1292975D01*
Y-87630D01*
X1319633D01*
X1292975Y-67636D02*
X1306304D01*
X1332962Y-87630D02*
Y-47643D01*
X1352956D01*
X1359620Y-54307D01*
Y-67636D01*
X1352956Y-74301D01*
X1332962D01*
X1346291D02*
X1359620Y-87630D01*
D53*
X1559560Y-739140D02*
Y-566420D01*
X1499870Y-739140D02*
Y-566420D01*
X1559560D01*
X1499870Y-739140D02*
X1559560D01*
X1370838Y-566420D02*
X1499870D01*
X1370838Y-739140D02*
X1499870D01*
X1370838Y-593852D02*
Y-566420D01*
Y-739140D02*
Y-705612D01*
X1433470Y-783590D02*
X1439470D01*
X1433470Y-872490D02*
X1439470D01*
X506740Y-995630D02*
X571740D01*
X506740D02*
Y-893130D01*
X571740D01*
Y-995630D02*
Y-893130D01*
X671910Y-863672D02*
X658581D01*
X665246Y-870337D02*
Y-857008D01*
X671910Y-805017D02*
X658581D01*
X952580Y-862618D02*
X939251D01*
X945916Y-869283D02*
Y-855954D01*
X952580Y-803963D02*
X939251D01*
X1260389Y-870762D02*
X1247060D01*
Y-880759D01*
X1253725Y-877427D01*
X1257057D01*
X1260389Y-880759D01*
Y-887423D01*
X1257057Y-890755D01*
X1250392D01*
X1247060Y-887423D01*
X1267054Y-870762D02*
Y-884091D01*
X1273718Y-890755D01*
X1280383Y-884091D01*
Y-870762D01*
X1257057Y-906754D02*
X1250392D01*
X1247060Y-910087D01*
Y-923416D01*
X1250392Y-926748D01*
X1257057D01*
X1260389Y-923416D01*
Y-910087D01*
X1257057Y-906754D01*
X1267054Y-913419D02*
Y-923416D01*
X1270386Y-926748D01*
X1280383D01*
Y-913419D01*
X1290379Y-910087D02*
Y-913419D01*
X1287047D01*
X1293712D01*
X1290379D01*
Y-923416D01*
X1293712Y-926748D01*
X1247060Y-962740D02*
X1253725D01*
X1250392D01*
Y-942747D01*
X1247060Y-946079D01*
X1263721Y-962740D02*
Y-959408D01*
X1267054D01*
Y-962740D01*
X1263721D01*
X1280383Y-946079D02*
X1283715Y-942747D01*
X1290379D01*
X1293712Y-946079D01*
Y-949411D01*
X1290379Y-952743D01*
X1287047D01*
X1290379D01*
X1293712Y-956076D01*
Y-959408D01*
X1290379Y-962740D01*
X1283715D01*
X1280383Y-959408D01*
X1300376Y-962740D02*
Y-949411D01*
X1307041Y-942747D01*
X1313705Y-949411D01*
Y-962740D01*
Y-952743D01*
X1300376D01*
X1373977Y-866140D02*
Y-879469D01*
X1374303Y-789940D02*
Y-776611D01*
X1367639Y-783276D02*
X1380968D01*
X1386199Y-838200D02*
X1372870D01*
X1386199Y-824871D01*
Y-821539D01*
X1382867Y-818206D01*
X1376202D01*
X1372870Y-821539D01*
X1406193Y-818206D02*
X1399528Y-821539D01*
X1392864Y-828203D01*
Y-834868D01*
X1396196Y-838200D01*
X1402860D01*
X1406193Y-834868D01*
Y-831535D01*
X1402860Y-828203D01*
X1392864D01*
X1412857Y-818206D02*
Y-831535D01*
X1419522Y-838200D01*
X1426186Y-831535D01*
Y-818206D01*
X1452844D02*
Y-838200D01*
X1462841D01*
X1466173Y-834868D01*
Y-821539D01*
X1462841Y-818206D01*
X1452844D01*
X1486167Y-821539D02*
X1482835Y-818206D01*
X1476170D01*
X1472838Y-821539D01*
Y-834868D01*
X1476170Y-838200D01*
X1482835D01*
X1486167Y-834868D01*
X1309370Y-291949D02*
X1312702Y-288616D01*
X1319367D01*
X1322699Y-291949D01*
Y-295281D01*
X1319367Y-298613D01*
X1316035D01*
X1319367D01*
X1322699Y-301945D01*
Y-305278D01*
X1319367Y-308610D01*
X1312702D01*
X1309370Y-305278D01*
X1329364Y-291949D02*
X1332696Y-288616D01*
X1339360D01*
X1342693Y-291949D01*
Y-305278D01*
X1339360Y-308610D01*
X1332696D01*
X1329364Y-305278D01*
Y-291949D01*
X1323969Y-344170D02*
X1310640D01*
X1323969Y-330841D01*
Y-327509D01*
X1320637Y-324176D01*
X1313972D01*
X1310640Y-327509D01*
X1330634Y-340838D02*
X1333966Y-344170D01*
X1340630D01*
X1343963Y-340838D01*
Y-327509D01*
X1340630Y-324176D01*
X1333966D01*
X1330634Y-327509D01*
Y-330841D01*
X1333966Y-334173D01*
X1343963D01*
X1148709Y-306070D02*
X1135380D01*
X1148709Y-292741D01*
Y-289409D01*
X1145377Y-286076D01*
X1138712D01*
X1135380Y-289409D01*
X1168703Y-306070D02*
X1155374D01*
X1168703Y-292741D01*
Y-289409D01*
X1165370Y-286076D01*
X1158706D01*
X1155374Y-289409D01*
X1155059Y-340360D02*
X1141730D01*
X1155059Y-327031D01*
Y-323699D01*
X1151727Y-320366D01*
X1145062D01*
X1141730Y-323699D01*
X1161724Y-340360D02*
X1168388D01*
X1165056D01*
Y-320366D01*
X1161724Y-323699D01*
X837559Y-309880D02*
X824230D01*
X837559Y-296551D01*
Y-293219D01*
X834227Y-289886D01*
X827562D01*
X824230Y-293219D01*
X844224D02*
X847556Y-289886D01*
X854220D01*
X857553Y-293219D01*
Y-306548D01*
X854220Y-309880D01*
X847556D01*
X844224Y-306548D01*
Y-293219D01*
X826770Y-344170D02*
X833435D01*
X830102D01*
Y-324176D01*
X826770Y-327509D01*
X843431Y-340838D02*
X846764Y-344170D01*
X853428D01*
X856760Y-340838D01*
Y-327509D01*
X853428Y-324176D01*
X846764D01*
X843431Y-327509D01*
Y-330841D01*
X846764Y-334173D01*
X856760D01*
X656590Y-311150D02*
X663254D01*
X659922D01*
Y-291156D01*
X656590Y-294489D01*
X686580Y-311150D02*
X673251D01*
X686580Y-297821D01*
Y-294489D01*
X683248Y-291156D01*
X676583D01*
X673251Y-294489D01*
X660400Y-345440D02*
X667065D01*
X663732D01*
Y-325446D01*
X660400Y-328779D01*
X677061Y-345440D02*
X683726D01*
X680394D01*
Y-325446D01*
X677061Y-328779D01*
X346710Y-302260D02*
X353374D01*
X350042D01*
Y-282266D01*
X346710Y-285599D01*
X363371D02*
X366703Y-282266D01*
X373368D01*
X376700Y-285599D01*
Y-298928D01*
X373368Y-302260D01*
X366703D01*
X363371Y-298928D01*
Y-285599D01*
X350520Y-333218D02*
X353852Y-336550D01*
X360517D01*
X363849Y-333218D01*
Y-319889D01*
X360517Y-316556D01*
X353852D01*
X350520Y-319889D01*
Y-323221D01*
X353852Y-326553D01*
X363849D01*
X202559Y-298450D02*
X189230D01*
X202559Y-285121D01*
Y-281789D01*
X199227Y-278456D01*
X192562D01*
X189230Y-281789D01*
X193040Y-337820D02*
X199704D01*
X196372D01*
Y-317826D01*
X193040Y-321159D01*
D63*
X610290Y-832080D02*
Y-815080D01*
X601290Y-832080D02*
Y-815080D01*
X454660Y-838960D02*
X496570D01*
X454660D02*
Y-804670D01*
X496570D01*
Y-838960D02*
Y-804670D01*
X521390Y-879100D02*
Y-862100D01*
X512390Y-879100D02*
Y-862100D01*
X530170Y-879100D02*
Y-862100D01*
X539170Y-879100D02*
Y-862100D01*
X558220Y-879100D02*
Y-862100D01*
X549220Y-879100D02*
Y-862100D01*
X1450128Y-999960D02*
G03*
X1500128Y-949960I0J50000D01*
G01*
X1499960Y-49872D02*
G03*
X1449960Y127I-50000J0D01*
G01*
X49872Y-40D02*
G03*
X-127Y-50040I0J-50000D01*
G01*
X40Y-950127D02*
G03*
X50040Y-1000127I50000J0D01*
G01*
X50000Y0D02*
X1450000D01*
X0Y-950000D02*
Y-50000D01*
X50000Y-1000000D02*
X1450000D01*
X1500000Y-950000D02*
Y-50000D01*
D81*
X153350Y-827890D02*
G03*
X153350Y-827890I-500J0D01*
G01*
X1179010Y-637700D02*
G03*
X1179010Y-637700I-1250J0D01*
G01*
X292190Y-780680D02*
G03*
X292190Y-780680I-1250J0D01*
G01*
X508400Y-575510D02*
G03*
X508400Y-575510I-1250J0D01*
G01*
X1037550Y-663730D02*
G03*
X1037550Y-663730I-1250J0D01*
G01*
X953730D02*
G03*
X953730Y-663730I-1250J0D01*
G01*
X113980Y-551030D02*
G03*
X113980Y-551030I-500J0D01*
G01*
X625790Y-862180D02*
G03*
X625790Y-862180I-500J0D01*
G01*
X974090Y-560233D02*
Y-570230D01*
X979088D01*
X980754Y-568564D01*
Y-561899D01*
X979088Y-560233D01*
X974090D01*
X984087Y-570230D02*
Y-560233D01*
X989085D01*
X990751Y-561899D01*
Y-565232D01*
X989085Y-566898D01*
X984087D01*
X987419D02*
X990751Y-570230D01*
X994084Y-560233D02*
Y-566898D01*
X997416Y-570230D01*
X1000748Y-566898D01*
Y-560233D01*
X935034Y-561899D02*
X933368Y-560233D01*
X930036D01*
X928370Y-561899D01*
Y-563565D01*
X930036Y-565232D01*
X933368D01*
X935034Y-566898D01*
Y-568564D01*
X933368Y-570230D01*
X930036D01*
X928370Y-568564D01*
X945031Y-560233D02*
X938367D01*
Y-570230D01*
X945031D01*
X938367Y-565232D02*
X941699D01*
X948364Y-570230D02*
Y-560233D01*
X955028Y-570230D01*
Y-560233D01*
X890584Y-563169D02*
X888918Y-561503D01*
X885586D01*
X883920Y-563169D01*
Y-569834D01*
X885586Y-571500D01*
X888918D01*
X890584Y-569834D01*
Y-566502D01*
X887252D01*
X893917Y-571500D02*
Y-561503D01*
X900581Y-571500D01*
Y-561503D01*
X903914D02*
Y-571500D01*
X908912D01*
X910578Y-569834D01*
Y-563169D01*
X908912Y-561503D01*
X903914D01*
X13015Y-591109D02*
X11348Y-589443D01*
X8016D01*
X6350Y-591109D01*
Y-597774D01*
X8016Y-599440D01*
X11348D01*
X13015Y-597774D01*
Y-594442D01*
X9682D01*
X16347Y-599440D02*
Y-589443D01*
X23011Y-599440D01*
Y-589443D01*
X26344D02*
Y-599440D01*
X31342D01*
X33008Y-597774D01*
Y-591109D01*
X31342Y-589443D01*
X26344D01*
X33020Y-521970D02*
Y-511973D01*
X36352Y-515305D01*
X39685Y-511973D01*
Y-521970D01*
X43017Y-511973D02*
X46349D01*
X44683D01*
Y-521970D01*
X43017D01*
X46349D01*
X58012Y-513639D02*
X56346Y-511973D01*
X53014D01*
X51347Y-513639D01*
Y-515305D01*
X53014Y-516972D01*
X56346D01*
X58012Y-518638D01*
Y-520304D01*
X56346Y-521970D01*
X53014D01*
X51347Y-520304D01*
X68009Y-513639D02*
X66343Y-511973D01*
X63010D01*
X61344Y-513639D01*
Y-520304D01*
X63010Y-521970D01*
X66343D01*
X68009Y-520304D01*
X71341Y-516972D02*
X78005D01*
X81338Y-511973D02*
X84670D01*
X83004D01*
Y-521970D01*
X81338D01*
X84670D01*
X94667Y-511973D02*
X91334D01*
X89668Y-513639D01*
Y-520304D01*
X91334Y-521970D01*
X94667D01*
X96333Y-520304D01*
Y-513639D01*
X94667Y-511973D01*
X284795Y-867969D02*
X283128Y-866303D01*
X279796D01*
X278130Y-867969D01*
Y-874634D01*
X279796Y-876300D01*
X283128D01*
X284795Y-874634D01*
X288127Y-876300D02*
Y-869635D01*
X291459Y-866303D01*
X294791Y-869635D01*
Y-876300D01*
Y-871302D01*
X288127D01*
X298124Y-876300D02*
Y-866303D01*
X304788Y-876300D01*
Y-866303D01*
X135179Y-978856D02*
X133513Y-980522D01*
Y-983854D01*
X135179Y-985520D01*
X141844D01*
X143510Y-983854D01*
Y-980522D01*
X141844Y-978856D01*
X138512D01*
Y-982188D01*
X143510Y-975523D02*
X133513D01*
X143510Y-968859D01*
X133513D01*
Y-965526D02*
X143510D01*
Y-960528D01*
X141844Y-958862D01*
X135179D01*
X133513Y-960528D01*
Y-965526D01*
X106994Y-819313D02*
X100330D01*
Y-824312D01*
X103662D01*
X100330D01*
Y-829310D01*
X110327Y-819313D02*
X116991D01*
X113659D01*
Y-829310D01*
X120324Y-819313D02*
Y-829310D01*
X125322D01*
X126988Y-827644D01*
Y-820979D01*
X125322Y-819313D01*
X120324D01*
X130320D02*
X133653D01*
X131987D01*
Y-829310D01*
X130320D01*
X133653D01*
X971864Y-634289D02*
X970198Y-632623D01*
X966866D01*
X965200Y-634289D01*
Y-640954D01*
X966866Y-642620D01*
X970198D01*
X971864Y-640954D01*
Y-637622D01*
X968532D01*
X975197Y-642620D02*
Y-632623D01*
X981861Y-642620D01*
Y-632623D01*
X985194D02*
Y-642620D01*
X990192D01*
X991858Y-640954D01*
Y-634289D01*
X990192Y-632623D01*
X985194D01*
X935034Y-634289D02*
X933368Y-632623D01*
X930036D01*
X928370Y-634289D01*
Y-635956D01*
X930036Y-637622D01*
X933368D01*
X935034Y-639288D01*
Y-640954D01*
X933368Y-642620D01*
X930036D01*
X928370Y-640954D01*
X945031Y-632623D02*
X938367D01*
Y-642620D01*
X945031D01*
X938367Y-637622D02*
X941699D01*
X948364Y-642620D02*
Y-632623D01*
X955028Y-642620D01*
Y-632623D01*
X883920Y-633893D02*
Y-643890D01*
X888918D01*
X890584Y-642224D01*
Y-635559D01*
X888918Y-633893D01*
X883920D01*
X893917Y-643890D02*
Y-633893D01*
X898915D01*
X900581Y-635559D01*
Y-638892D01*
X898915Y-640558D01*
X893917D01*
X897249D02*
X900581Y-643890D01*
X903914Y-633893D02*
Y-640558D01*
X907246Y-643890D01*
X910578Y-640558D01*
Y-633893D01*
D82*
X1167130Y-984250D02*
G03*
X1154430Y-984250I-6350J0D01*
G01*
X1167130Y-864870D02*
G03*
X1154430Y-864870I-6350J0D01*
G01*
X1167130Y-924560D02*
G03*
X1154430Y-924560I-6350J0D01*
G01*
X1436370Y-209550D02*
G03*
X1436370Y-222250I0J-6350D01*
G01*
X1421130Y-433070D02*
G03*
X1421130Y-420370I0J6350D01*
G01*
X1340031Y-209550D02*
G03*
X1340031Y-222250I0J-6350D01*
G01*
X1324996Y-433070D02*
G03*
X1324996Y-420370I0J6350D01*
G01*
X1243693Y-209550D02*
G03*
X1243693Y-222250I0J-6350D01*
G01*
X1228863Y-433070D02*
G03*
X1228863Y-420370I0J6350D01*
G01*
X1147354Y-209550D02*
G03*
X1147354Y-222250I0J-6350D01*
G01*
X1132729Y-433070D02*
G03*
X1132729Y-420370I0J6350D01*
G01*
X1051016Y-209550D02*
G03*
X1051016Y-222250I0J-6350D01*
G01*
X1036596Y-433070D02*
G03*
X1036596Y-420370I0J6350D01*
G01*
X954677Y-209550D02*
G03*
X954677Y-222250I0J-6350D01*
G01*
X940462Y-433070D02*
G03*
X940462Y-420370I0J6350D01*
G01*
X858338Y-209550D02*
G03*
X858338Y-222250I0J-6350D01*
G01*
X844329Y-433070D02*
G03*
X844329Y-420370I0J6350D01*
G01*
X762000Y-209550D02*
G03*
X762000Y-222250I0J-6350D01*
G01*
X748195Y-433070D02*
G03*
X748195Y-420370I0J6350D01*
G01*
X665661Y-209550D02*
G03*
X665661Y-222250I0J-6350D01*
G01*
X652061Y-433070D02*
G03*
X652061Y-420370I0J6350D01*
G01*
X569323Y-209550D02*
G03*
X569323Y-222250I0J-6350D01*
G01*
X555928Y-433070D02*
G03*
X555928Y-420370I0J6350D01*
G01*
X472984Y-209550D02*
G03*
X472984Y-222250I0J-6350D01*
G01*
X459740Y-433070D02*
G03*
X459740Y-420370I0J6350D01*
G01*
X376646Y-209550D02*
G03*
X376646Y-222250I0J-6350D01*
G01*
X363661Y-433070D02*
G03*
X363661Y-420370I0J6350D01*
G01*
X280307Y-209550D02*
G03*
X280307Y-222250I0J-6350D01*
G01*
X267527Y-433070D02*
G03*
X267527Y-420370I0J6350D01*
G01*
X183969Y-209550D02*
G03*
X183969Y-222250I0J-6350D01*
G01*
X171394Y-433070D02*
G03*
X171394Y-420370I0J6350D01*
G01*
X87630Y-209550D02*
G03*
X87630Y-222250I0J-6350D01*
G01*
X75260Y-433070D02*
G03*
X75260Y-420370I0J6350D01*
G01*
X1126060Y-595590D02*
G03*
X1123560Y-595590I-1250J0D01*
G01*
X785700Y-627340D02*
G03*
X783200Y-627340I-1250J0D01*
G01*
X1202260Y-634950D02*
X1354760D01*
Y-787450D02*
Y-634950D01*
X1202260Y-787450D02*
X1354760D01*
X1202260D02*
Y-634950D01*
X1173480Y-984250D02*
Y-933450D01*
X1148080Y-984250D02*
Y-933450D01*
X1173480D01*
X1148080Y-984250D02*
X1154430D01*
X1167130D02*
X1173480D01*
Y-864870D02*
Y-814070D01*
X1148080Y-864870D02*
Y-814070D01*
X1173480D01*
X1148080Y-864870D02*
X1154430D01*
X1167130D02*
X1173480D01*
Y-924560D02*
Y-873760D01*
X1148080Y-924560D02*
Y-873760D01*
X1173480D01*
X1148080Y-924560D02*
X1154430D01*
X1167130D02*
X1173480D01*
X1385570Y-203200D02*
X1436370D01*
X1385570Y-228600D02*
X1436370D01*
X1385570D02*
Y-203200D01*
X1436370Y-228600D02*
Y-222250D01*
Y-209550D02*
Y-203200D01*
X1421130Y-439420D02*
X1471930D01*
X1421130Y-414020D02*
X1471930D01*
Y-439420D02*
Y-414020D01*
X1421130Y-420370D02*
Y-414020D01*
Y-439420D02*
Y-433070D01*
X1289231Y-203200D02*
X1340031D01*
X1289231Y-228600D02*
X1340031D01*
X1289231D02*
Y-203200D01*
X1340031Y-228600D02*
Y-222250D01*
Y-209550D02*
Y-203200D01*
X1324996Y-439420D02*
X1375796D01*
X1324996Y-414020D02*
X1375796D01*
Y-439420D02*
Y-414020D01*
X1324996Y-420370D02*
Y-414020D01*
Y-439420D02*
Y-433070D01*
X1192893Y-203200D02*
X1243693D01*
X1192893Y-228600D02*
X1243693D01*
X1192893D02*
Y-203200D01*
X1243693Y-228600D02*
Y-222250D01*
Y-209550D02*
Y-203200D01*
X1228863Y-439420D02*
X1279663D01*
X1228863Y-414020D02*
X1279663D01*
Y-439420D02*
Y-414020D01*
X1228863Y-420370D02*
Y-414020D01*
Y-439420D02*
Y-433070D01*
X1096554Y-203200D02*
X1147354D01*
X1096554Y-228600D02*
X1147354D01*
X1096554D02*
Y-203200D01*
X1147354Y-228600D02*
Y-222250D01*
Y-209550D02*
Y-203200D01*
X1132729Y-439420D02*
X1183529D01*
X1132729Y-414020D02*
X1183529D01*
Y-439420D02*
Y-414020D01*
X1132729Y-420370D02*
Y-414020D01*
Y-439420D02*
Y-433070D01*
X1000216Y-203200D02*
X1051016D01*
X1000216Y-228600D02*
X1051016D01*
X1000216D02*
Y-203200D01*
X1051016Y-228600D02*
Y-222250D01*
Y-209550D02*
Y-203200D01*
X1036596Y-439420D02*
X1087396D01*
X1036596Y-414020D02*
X1087396D01*
Y-439420D02*
Y-414020D01*
X1036596Y-420370D02*
Y-414020D01*
Y-439420D02*
Y-433070D01*
X903877Y-203200D02*
X954677D01*
X903877Y-228600D02*
X954677D01*
X903877D02*
Y-203200D01*
X954677Y-228600D02*
Y-222250D01*
Y-209550D02*
Y-203200D01*
X940462Y-439420D02*
X991262D01*
X940462Y-414020D02*
X991262D01*
Y-439420D02*
Y-414020D01*
X940462Y-420370D02*
Y-414020D01*
Y-439420D02*
Y-433070D01*
X807539Y-203200D02*
X858338D01*
X807539Y-228600D02*
X858338D01*
X807539D02*
Y-203200D01*
X858338Y-228600D02*
Y-222250D01*
Y-209550D02*
Y-203200D01*
X844329Y-439420D02*
X895128D01*
X844329Y-414020D02*
X895128D01*
Y-439420D02*
Y-414020D01*
X844329Y-420370D02*
Y-414020D01*
Y-439420D02*
Y-433070D01*
X711200Y-203200D02*
X762000D01*
X711200Y-228600D02*
X762000D01*
X711200D02*
Y-203200D01*
X762000Y-228600D02*
Y-222250D01*
Y-209550D02*
Y-203200D01*
X748195Y-439420D02*
X798995D01*
X748195Y-414020D02*
X798995D01*
Y-439420D02*
Y-414020D01*
X748195Y-420370D02*
Y-414020D01*
Y-439420D02*
Y-433070D01*
X614861Y-203200D02*
X665661D01*
X614861Y-228600D02*
X665661D01*
X614861D02*
Y-203200D01*
X665661Y-228600D02*
Y-222250D01*
Y-209550D02*
Y-203200D01*
X652061Y-439420D02*
X702861D01*
X652061Y-414020D02*
X702861D01*
Y-439420D02*
Y-414020D01*
X652061Y-420370D02*
Y-414020D01*
Y-439420D02*
Y-433070D01*
X518523Y-203200D02*
X569323D01*
X518523Y-228600D02*
X569323D01*
X518523D02*
Y-203200D01*
X569323Y-228600D02*
Y-222250D01*
Y-209550D02*
Y-203200D01*
X555928Y-439420D02*
X606728D01*
X555928Y-414020D02*
X606728D01*
Y-439420D02*
Y-414020D01*
X555928Y-420370D02*
Y-414020D01*
Y-439420D02*
Y-433070D01*
X422184Y-203200D02*
X472984D01*
X422184Y-228600D02*
X472984D01*
X422184D02*
Y-203200D01*
X472984Y-228600D02*
Y-222250D01*
Y-209550D02*
Y-203200D01*
X459740Y-439420D02*
X510540D01*
X459740Y-414020D02*
X510540D01*
Y-439420D02*
Y-414020D01*
X459740Y-420370D02*
Y-414020D01*
Y-439420D02*
Y-433070D01*
X325846Y-203200D02*
X376646D01*
X325846Y-228600D02*
X376646D01*
X325846D02*
Y-203200D01*
X376646Y-228600D02*
Y-222250D01*
Y-209550D02*
Y-203200D01*
X363661Y-439420D02*
X414461D01*
X363661Y-414020D02*
X414461D01*
Y-439420D02*
Y-414020D01*
X363661Y-420370D02*
Y-414020D01*
Y-439420D02*
Y-433070D01*
X229507Y-203200D02*
X280307D01*
X229507Y-228600D02*
X280307D01*
X229507D02*
Y-203200D01*
X280307Y-228600D02*
Y-222250D01*
Y-209550D02*
Y-203200D01*
X267527Y-439420D02*
X318327D01*
X267527Y-414020D02*
X318327D01*
Y-439420D02*
Y-414020D01*
X267527Y-420370D02*
Y-414020D01*
Y-439420D02*
Y-433070D01*
X133169Y-203200D02*
X183969D01*
X133169Y-228600D02*
X183969D01*
X133169D02*
Y-203200D01*
X183969Y-228600D02*
Y-222250D01*
Y-209550D02*
Y-203200D01*
X171394Y-439420D02*
X222194D01*
X171394Y-414020D02*
X222194D01*
Y-439420D02*
Y-414020D01*
X171394Y-420370D02*
Y-414020D01*
Y-439420D02*
Y-433070D01*
X36830Y-203200D02*
X87630D01*
X36830Y-228600D02*
X87630D01*
X36830D02*
Y-203200D01*
X87630Y-228600D02*
Y-222250D01*
Y-209550D02*
Y-203200D01*
X75260Y-439420D02*
X126060D01*
X75260Y-414020D02*
X126060D01*
Y-439420D02*
Y-414020D01*
X75260Y-420370D02*
Y-414020D01*
Y-439420D02*
Y-433070D01*
X243260Y-709160D02*
Y-708160D01*
X234260Y-709160D02*
Y-708160D01*
X234260Y-672330D02*
Y-671330D01*
X243260Y-672330D02*
Y-671330D01*
X534760Y-773970D02*
X551260D01*
X534760Y-797970D02*
Y-773970D01*
Y-797970D02*
X541260D01*
X568260Y-773970D02*
X571260D01*
X588260D02*
X591260D01*
X608260D02*
X611260D01*
X558260Y-797470D02*
X561260D01*
X578260D02*
X581260D01*
X598260Y-797970D02*
X601260D01*
X618260D02*
X634760D01*
Y-773970D01*
X627760D02*
X634760D01*
X538760Y-785970D02*
X630760D01*
X534760Y-783470D02*
X544260Y-773970D01*
X541760D02*
X544260D01*
X534760Y-780970D02*
X541760Y-773970D01*
X534760Y-780970D02*
Y-778470D01*
X539260Y-773970D01*
X536760D02*
X539260D01*
X534760Y-775970D02*
X536760Y-773970D01*
X68080Y-821110D02*
X69080D01*
X68080Y-812110D02*
X69080D01*
X659820Y-599940D02*
Y-598940D01*
X650820Y-599940D02*
Y-598940D01*
X678760Y-626610D02*
Y-625610D01*
X687760Y-626610D02*
Y-625610D01*
X818650Y-659710D02*
X819650D01*
X818650Y-668710D02*
X819650D01*
X819920Y-685110D02*
X820920D01*
X819920Y-694110D02*
X820920D01*
X1049790Y-605210D02*
X1050790D01*
X1049790Y-596210D02*
X1050790D01*
X1049790Y-624260D02*
X1050790D01*
X1049790Y-615260D02*
X1050790D01*
X799600Y-648390D02*
X800600D01*
X799600Y-639390D02*
X800600D01*
X1085270Y-611370D02*
Y-610370D01*
X1076270Y-611370D02*
Y-610370D01*
X873280Y-690410D02*
Y-663410D01*
X847280Y-690410D02*
Y-663410D01*
X1023920Y-623100D02*
Y-596100D01*
X997920Y-623100D02*
Y-596100D01*
X1126060Y-595590D02*
X1131210D01*
X1118410D02*
X1123560D01*
X1118410D02*
Y-570590D01*
X1131210D01*
Y-595590D02*
Y-570590D01*
X790850Y-627340D02*
Y-602340D01*
X778050D02*
X790850D01*
X778050Y-627340D02*
Y-602340D01*
Y-627340D02*
X783200D01*
X785700D02*
X790850D01*
X982290Y-974480D02*
Y-973480D01*
X991290Y-974480D02*
Y-973480D01*
X861640Y-615180D02*
Y-614180D01*
X870640Y-615180D02*
Y-614180D01*
X1062490Y-655900D02*
X1063490D01*
X1062490Y-664900D02*
X1063490D01*
X479640Y-861950D02*
Y-857950D01*
X468640Y-844950D02*
X475640D01*
X468640Y-851950D02*
Y-844950D01*
Y-874950D02*
X475640D01*
X468640D02*
Y-867950D01*
X591810Y-838930D02*
Y-831930D01*
X584810D02*
X591810D01*
Y-861930D02*
Y-854930D01*
X584810Y-861930D02*
X591810D01*
X580810Y-848930D02*
Y-844930D01*
X878510Y-1000060D02*
X932510D01*
Y-878060D01*
X878510Y-1000060D02*
Y-878060D01*
X893510Y-1000060D02*
Y-985060D01*
X917510D01*
Y-1000060D02*
Y-985060D01*
X878510Y-878060D02*
X932510D01*
X68080Y-594940D02*
X69080D01*
X68080Y-603940D02*
X69080D01*
X288980Y-692650D02*
Y-691650D01*
X279980Y-692650D02*
Y-691650D01*
Y-654550D02*
Y-653550D01*
X288980Y-654550D02*
Y-653550D01*
X301570Y-668520D02*
Y-667520D01*
X310570Y-668520D02*
Y-667520D01*
Y-706620D02*
Y-705620D01*
X301570Y-706620D02*
Y-705620D01*
X267390Y-636770D02*
Y-635770D01*
X258390Y-636770D02*
Y-635770D01*
X275090Y-718130D02*
X276090D01*
X275090Y-727130D02*
X276090D01*
X162270Y-997280D02*
X288270D01*
X162270D02*
Y-898280D01*
X185270D01*
X288270Y-997280D02*
Y-898280D01*
X205270D02*
X215270D01*
X235270D02*
X242270D01*
X268270D02*
X288270D01*
X215270Y-997280D02*
Y-987280D01*
X235270D01*
Y-997280D02*
Y-987280D01*
X296890Y-997280D02*
X422890D01*
X296890D02*
Y-898280D01*
X319890D01*
X422890Y-997280D02*
Y-898280D01*
X339890D02*
X349890D01*
X369890D02*
X376890D01*
X402890D02*
X422890D01*
X349890Y-997280D02*
Y-987280D01*
X369890D01*
Y-997280D02*
Y-987280D01*
X237890Y-797180D02*
X287890D01*
X237890Y-813180D02*
X287890D01*
Y-797180D01*
X237890Y-813180D02*
Y-797180D01*
X229290Y-803140D02*
Y-802140D01*
X220290Y-803140D02*
Y-802140D01*
X682760Y-650820D02*
X683760D01*
X682760Y-659820D02*
X683760D01*
X376650Y-713010D02*
Y-590010D01*
X499650Y-713010D02*
Y-590010D01*
X376650Y-713010D02*
X499650D01*
X376650Y-590010D02*
X499650D01*
X1110380Y-759960D02*
Y-758960D01*
X1096880Y-759960D02*
Y-758960D01*
X1146230Y-721860D02*
Y-720860D01*
X1137230Y-721860D02*
Y-720860D01*
X1150500Y-792900D02*
Y-781900D01*
X1135500Y-792900D02*
Y-781900D01*
X1171330Y-606210D02*
Y-595210D01*
X1188330Y-606210D02*
Y-595210D01*
X1115640Y-721860D02*
Y-720860D01*
X1124640Y-721860D02*
Y-720860D01*
X633230Y-812110D02*
X634230D01*
X633230Y-821110D02*
X634230D01*
X488450Y-791010D02*
X489450D01*
X488450Y-798010D02*
X489450D01*
X461780Y-798010D02*
X462780D01*
X461780Y-791010D02*
X462780D01*
X486600Y-773420D02*
Y-772420D01*
X478600Y-773420D02*
Y-772420D01*
X969800Y-677230D02*
X1036800D01*
X969800Y-717230D02*
X1036800D01*
Y-677230D01*
X969800Y-717230D02*
Y-677230D01*
X885980D02*
X952980D01*
X885980Y-717230D02*
X952980D01*
Y-677230D01*
X885980Y-717230D02*
Y-677230D01*
X325890Y-742370D02*
X326890D01*
X325890Y-733370D02*
X326890D01*
X842700Y-611370D02*
Y-610370D01*
X833700Y-611370D02*
Y-610370D01*
X638310Y-644580D02*
X639310D01*
X638310Y-635580D02*
X639310D01*
X602750Y-726250D02*
X603750D01*
X602750Y-734250D02*
X603750D01*
X602750Y-741490D02*
X603750D01*
X602750Y-749490D02*
X603750D01*
X531630Y-730060D02*
X532630D01*
X531630Y-738060D02*
X532630D01*
X531630Y-745300D02*
X532630D01*
X531630Y-753300D02*
X532630D01*
X1068840Y-564460D02*
X1069840D01*
X1068840Y-573460D02*
X1069840D01*
X734640Y-621530D02*
Y-620530D01*
X743640Y-621530D02*
Y-620530D01*
X731060Y-645360D02*
X737060D01*
X731060Y-670360D02*
X737060D01*
X874060Y-752260D02*
Y-741260D01*
X848060Y-752260D02*
Y-741260D01*
X830880Y-752260D02*
Y-741260D01*
X804880Y-752260D02*
Y-741260D01*
X68080Y-790520D02*
X69080D01*
X68080Y-799520D02*
X69080D01*
X817790Y-1000060D02*
X871790D01*
Y-878060D01*
X813280Y-985060D02*
X856790D01*
Y-1000060D02*
Y-985060D01*
X817790Y-878060D02*
X871790D01*
X774280D02*
X828280D01*
X789280Y-985060D02*
X813280D01*
X789280Y-1000060D02*
Y-985060D01*
X774280Y-1000060D02*
Y-878060D01*
Y-1000060D02*
X828280D01*
X1019230Y-974480D02*
Y-973480D01*
X1010230Y-974480D02*
Y-973480D01*
X963350Y-974480D02*
Y-973480D01*
X954350Y-974480D02*
Y-973480D01*
X714920Y-1000060D02*
X768920D01*
Y-878060D01*
X710410Y-985060D02*
X753920D01*
Y-1000060D02*
Y-985060D01*
X714920Y-878060D02*
X768920D01*
X671410D02*
X725410D01*
X686410Y-985060D02*
X710410D01*
X686410Y-1000060D02*
Y-985060D01*
X671410Y-1000060D02*
Y-878060D01*
Y-1000060D02*
X725410D01*
X1218120Y-888230D02*
Y-887230D01*
X1210120Y-888230D02*
Y-887230D01*
X1218120Y-949190D02*
Y-948190D01*
X1210120Y-949190D02*
Y-948190D01*
X1218120Y-828540D02*
Y-827540D01*
X1210120Y-828540D02*
Y-827540D01*
X1141230Y-755340D02*
X1142230D01*
X1141230Y-748340D02*
X1142230D01*
X1144960Y-679950D02*
Y-678950D01*
X1135960Y-679950D02*
Y-678950D01*
X1114370Y-679950D02*
Y-678950D01*
X1123370Y-679950D02*
Y-678950D01*
X695460Y-784280D02*
X696460D01*
X695460Y-775280D02*
X696460D01*
X744990Y-775280D02*
X745990D01*
X744990Y-784280D02*
X745990D01*
D83*
X1017970Y-775240D02*
G03*
X1017970Y-906240I13506J-65500D01*
G01*
X1041972Y-906240D02*
G03*
X1041972Y-776240I-13406J65000D01*
G01*
X611680Y-663840D02*
G03*
X611180Y-712340I4750J-24302D01*
G01*
X622180Y-712340D02*
G03*
X621680Y-663340I-5750J24444D01*
G01*
X1039970Y-908240D02*
X1097470D01*
Y-800740D01*
X1069970Y-773240D02*
X1097470Y-800740D01*
X1039970Y-773240D02*
X1069970D01*
X989970D02*
X1019970D01*
X962469Y-800740D02*
X989970Y-773240D01*
X962469Y-908240D02*
Y-800740D01*
Y-908240D02*
X1019970D01*
X20066Y-820166D02*
Y-812546D01*
X983234Y-925466D02*
X990854D01*
X879094Y-583946D02*
X886714D01*
X1050036Y-647446D02*
Y-639826D01*
X590182Y-714340D02*
Y-672340D01*
X601182Y-661340D01*
X632181D02*
X643181Y-672340D01*
Y-714340D02*
Y-672340D01*
X590182Y-714340D02*
X611182D01*
X622181D02*
X643181D01*
X601182Y-661340D02*
X611182D01*
X621680D02*
X632181D01*
X1011174Y-924196D02*
X1018794D01*
X955294D02*
X962914D01*
X656590Y-692150D02*
X725170D01*
Y-725170D02*
Y-692150D01*
X656590Y-725170D02*
X725170D01*
X656590D02*
Y-692150D01*
D84*
X492650Y-600010D02*
G03*
X492650Y-600010I-3000J0D01*
G01*
D85*
X1097470Y-908240D02*
Y-800740D01*
X1069970Y-773240D02*
X1097470Y-800740D01*
X962469D02*
X989970Y-773240D01*
X962469Y-908240D02*
Y-800740D01*
X590182Y-714340D02*
Y-672340D01*
X601182Y-661340D01*
X632181D02*
X643181Y-672340D01*
Y-714340D02*
Y-672340D01*
D86*
X76500Y-532130D02*
X82850Y-538480D01*
X57450D02*
X63800Y-532130D01*
X51100D02*
X57450Y-538480D01*
X32050D02*
X38400Y-532130D01*
X25700D02*
X32050Y-538480D01*
X6650D02*
X13000Y-532130D01*
X82850Y-576580D02*
Y-538480D01*
X76500Y-582930D02*
X82850Y-576580D01*
X63800Y-582930D02*
X76500D01*
X57450Y-576580D02*
X63800Y-582930D01*
X51100D02*
X57450Y-576580D01*
X38400Y-582930D02*
X51100D01*
X32050Y-576580D02*
X38400Y-582930D01*
X25700D02*
X32050Y-576580D01*
X13000Y-582930D02*
X25700D01*
X6650Y-576580D02*
X13000Y-582930D01*
Y-532130D02*
X25700D01*
X38400D02*
X51100D01*
X63800D02*
X76500D01*
X6650Y-576580D02*
Y-538480D01*
X217170Y-336550D02*
X229870D01*
X242570D02*
X255270D01*
X267970D02*
X280670D01*
X293370D02*
X306070D01*
Y-285750D02*
X312420Y-292100D01*
X293370Y-285750D02*
X306070D01*
X287020Y-292100D02*
X293370Y-285750D01*
X280670D02*
X287020Y-292100D01*
X267970Y-285750D02*
X280670D01*
X261620Y-292100D02*
X267970Y-285750D01*
X255270D02*
X261620Y-292100D01*
X242570Y-285750D02*
X255270D01*
X236220Y-292100D02*
X242570Y-285750D01*
X229870D02*
X236220Y-292100D01*
X217170Y-285750D02*
X229870D01*
X210820Y-292100D02*
X217170Y-285750D01*
X210820Y-330200D02*
Y-292100D01*
X306070Y-336550D02*
X312420Y-330200D01*
X287020D02*
X293370Y-336550D01*
X280670D02*
X287020Y-330200D01*
X261620D02*
X267970Y-336550D01*
X255270D02*
X261620Y-330200D01*
X236220D02*
X242570Y-336550D01*
X229870D02*
X236220Y-330200D01*
X210820D02*
X217170Y-336550D01*
X318770Y-285750D02*
X331470D01*
X312420Y-330200D02*
X318770Y-336550D01*
X331470D02*
X337820Y-330200D01*
X318770Y-336550D02*
X331470D01*
X312420Y-292100D02*
X318770Y-285750D01*
X331470D02*
X337820Y-292100D01*
Y-330200D02*
Y-292100D01*
X1301750Y-335280D02*
Y-297180D01*
X1295400Y-290830D02*
X1301750Y-297180D01*
X1276350D02*
X1282700Y-290830D01*
Y-341630D02*
X1295400D01*
X1301750Y-335280D01*
X1276350D02*
X1282700Y-341630D01*
Y-290830D02*
X1295400D01*
X1174750Y-335280D02*
X1181100Y-341630D01*
X1193800D02*
X1200150Y-335280D01*
X1206500Y-341630D01*
X1219200D02*
X1225550Y-335280D01*
X1231900Y-341630D01*
X1244600D02*
X1250950Y-335280D01*
X1257300Y-341630D01*
X1270000D02*
X1276350Y-335280D01*
X1174750D02*
Y-297180D01*
X1181100Y-290830D01*
X1193800D01*
X1200150Y-297180D01*
X1206500Y-290830D01*
X1219200D01*
X1225550Y-297180D01*
X1231900Y-290830D01*
X1244600D01*
X1250950Y-297180D01*
X1257300Y-290830D01*
X1270000D01*
X1276350Y-297180D01*
X1257300Y-341630D02*
X1270000D01*
X1231900D02*
X1244600D01*
X1206500D02*
X1219200D01*
X1181100D02*
X1193800D01*
X980140Y-621030D02*
Y-582930D01*
X910290Y-627380D02*
X922990D01*
X935690D02*
X948390D01*
X961090D02*
X973790D01*
Y-576580D02*
X980140Y-582930D01*
X961090Y-576580D02*
X973790D01*
X954740Y-582930D02*
X961090Y-576580D01*
X948390D02*
X954740Y-582930D01*
X935690Y-576580D02*
X948390D01*
X929340Y-582930D02*
X935690Y-576580D01*
X922990D02*
X929340Y-582930D01*
X910290Y-576580D02*
X922990D01*
X903940Y-582930D02*
X910290Y-576580D01*
X903940Y-621030D02*
Y-582930D01*
X973790Y-627380D02*
X980140Y-621030D01*
X954740D02*
X961090Y-627380D01*
X948390D02*
X954740Y-621030D01*
X929340D02*
X935690Y-627380D01*
X922990D02*
X929340Y-621030D01*
X903940D02*
X910290Y-627380D01*
X99060Y-843280D02*
X105410Y-836930D01*
X99060Y-855980D02*
X105410Y-862330D01*
X99060Y-868680D02*
X105410Y-862330D01*
X99060Y-881380D02*
X105410Y-887730D01*
X99060Y-894080D02*
X105410Y-887730D01*
X99060Y-906780D02*
X105410Y-913130D01*
X99060Y-919480D02*
X105410Y-913130D01*
X99060Y-932180D02*
X105410Y-938530D01*
X119126Y-836930D02*
X125476Y-843280D01*
Y-855980D02*
Y-843280D01*
X119126Y-862330D02*
X125476Y-855980D01*
X119126Y-862330D02*
X125476Y-868680D01*
Y-881380D02*
Y-868680D01*
X119126Y-887730D02*
X125476Y-881380D01*
X119126Y-887730D02*
X125476Y-894080D01*
Y-906780D02*
Y-894080D01*
X119126Y-913130D02*
X125476Y-906780D01*
X119126Y-913130D02*
X125476Y-919480D01*
Y-932180D02*
Y-919480D01*
X119126Y-938530D02*
X125476Y-932180D01*
X99060D02*
Y-919480D01*
Y-906780D02*
Y-894080D01*
Y-881380D02*
Y-868680D01*
Y-855980D02*
Y-843280D01*
X98806Y-957580D02*
Y-944880D01*
Y-957580D02*
X105156Y-963930D01*
X98806Y-944880D02*
X105156Y-938530D01*
X98806Y-982980D02*
Y-970280D01*
Y-982980D02*
X105156Y-989330D01*
X98806Y-970280D02*
X105156Y-963930D01*
X119126Y-989330D02*
X125476Y-982980D01*
Y-970280D01*
X119126Y-963930D02*
X125476Y-970280D01*
X119126Y-963930D02*
X125476Y-957580D01*
Y-944880D01*
X119126Y-938530D02*
X125476Y-944880D01*
X105156Y-989330D02*
X119126D01*
X105410Y-836930D02*
X119126D01*
X698500Y-345440D02*
X711200D01*
X723900D02*
X736600D01*
X749300D02*
X762000D01*
X774700D02*
X787400D01*
Y-294640D02*
X793750Y-300990D01*
X774700Y-294640D02*
X787400D01*
X768350Y-300990D02*
X774700Y-294640D01*
X762000D02*
X768350Y-300990D01*
X749300Y-294640D02*
X762000D01*
X742950Y-300990D02*
X749300Y-294640D01*
X736600D02*
X742950Y-300990D01*
X723900Y-294640D02*
X736600D01*
X717550Y-300990D02*
X723900Y-294640D01*
X711200D02*
X717550Y-300990D01*
X698500Y-294640D02*
X711200D01*
X692150Y-300990D02*
X698500Y-294640D01*
X692150Y-339090D02*
Y-300990D01*
X787400Y-345440D02*
X793750Y-339090D01*
X768350D02*
X774700Y-345440D01*
X762000D02*
X768350Y-339090D01*
X742950D02*
X749300Y-345440D01*
X736600D02*
X742950Y-339090D01*
X717550D02*
X723900Y-345440D01*
X711200D02*
X717550Y-339090D01*
X692150D02*
X698500Y-345440D01*
X800100Y-294640D02*
X812800D01*
X793750Y-339090D02*
X800100Y-345440D01*
X812800D02*
X819150Y-339090D01*
X800100Y-345440D02*
X812800D01*
X793750Y-300990D02*
X800100Y-294640D01*
X812800D02*
X819150Y-300990D01*
Y-339090D02*
Y-300990D01*
X673020Y-767310D02*
X789020D01*
X673020Y-682310D02*
X789020D01*
D87*
Y-767310D02*
Y-682310D01*
X673020Y-767310D02*
Y-682310D01*
D88*
X34290Y-816610D02*
D03*
X1064260Y-643890D02*
D03*
D89*
X986790Y-939690D02*
D03*
X882650Y-598170D02*
D03*
X1014730Y-938420D02*
D03*
X958850D02*
D03*
M02*
